<svg width="320" height="244" viewBox="0 0 320 244" fill="none" xmlns="http://www.w3.org/2000/svg">
<path d="M260.811 106.414C260.707 106.518 260.604 106.626 260.497 106.733C259.562 107.684 258.601 108.672 257.637 109.691C252.757 114.805 247.523 120.775 243.097 127.62C239.56 133.083 236.543 139.104 234.63 145.683C233.993 147.867 233.491 150.087 233.127 152.332C233.127 152.332 232.328 169.336 215.323 169.049C212.849 169.009 210.035 168.6 206.825 167.717L207.441 166.82L212.002 160.153C212.002 160.153 219.381 158.196 220.679 145.282C220.804 144.024 221.096 142.323 221.535 140.29C222.532 135.684 224.309 129.377 226.733 122.68C229.302 115.605 232.586 108.095 236.452 101.703C239.211 97.1239 242.27 93.1156 245.564 90.2472C256.192 80.9976 270.536 96.2201 260.811 106.414Z" fill="#A38DBF"/>
<path d="M257.637 109.691C252.757 114.805 247.523 120.775 243.097 127.62C238.419 125.52 234.335 124.25 231.004 123.482C229.455 123.127 228.023 122.867 226.73 122.683C229.299 115.608 232.583 108.099 236.449 101.706C243.55 103.377 250.613 106.038 257.637 109.691Z" fill="#5F5173"/>
<path d="M234.627 145.684C233.99 147.867 233.488 150.087 233.123 152.332C233.123 152.332 232.324 169.336 215.32 169.049C212.205 167.873 209.552 167.2 207.438 166.823L211.999 160.156C211.999 160.156 219.378 158.199 220.675 145.285C220.801 144.027 221.093 142.326 221.532 140.293C226.038 141.726 230.417 143.529 234.627 145.684Z" fill="#5F5173"/>
<g opacity="0.3">
<path opacity="0.3" d="M251.301 87.4901C256.982 90.7496 260.015 98.8451 254.077 105.068C253.974 105.171 253.87 105.278 253.763 105.387C252.829 106.338 251.869 107.326 250.909 108.345C246.029 113.458 240.794 119.428 236.368 126.274C232.831 131.737 229.815 137.756 227.901 144.337C227.263 146.52 226.761 148.741 226.397 150.986C226.397 150.986 225.597 167.989 208.594 167.703C208.047 167.693 207.481 167.663 206.9 167.617L206.829 167.72C210.039 168.6 212.853 169.009 215.327 169.052C232.331 169.337 233.131 152.335 233.131 152.335C233.495 150.09 233.997 147.87 234.634 145.686C236.551 139.107 239.568 133.086 243.101 127.623C247.527 120.778 252.761 114.808 257.641 109.694C258.605 108.675 259.566 107.687 260.501 106.736C260.608 106.629 260.711 106.521 260.815 106.417C268.846 97.9936 260.451 86.1439 251.301 87.4901Z" fill="#302839"/>
</g>
<path d="M215.76 170.573C212.917 170.573 209.805 170.109 206.422 169.183C206.189 169.119 205.975 169.001 205.797 168.837C205.619 168.673 205.483 168.47 205.4 168.243C205.317 168.016 205.289 167.773 205.319 167.533C205.349 167.293 205.436 167.064 205.572 166.865L210.748 159.301C210.951 159.006 211.251 158.792 211.596 158.696C211.881 158.612 218.005 156.684 219.166 145.134C220.037 136.476 229.657 102.092 244.569 89.1087C250.759 83.718 257.873 85.7578 261.863 89.9345C265.904 94.1635 267.642 101.452 261.908 107.459C261.803 107.57 261.694 107.682 261.583 107.795C249.926 119.665 237.613 134.254 234.631 152.496C234.565 153.56 233.806 162.278 226.959 167.249C223.91 169.463 220.162 170.573 215.76 170.573ZM209.308 166.776C216 168.251 221.332 167.589 225.177 164.797C231.156 160.454 231.604 152.341 231.608 152.259C231.608 152.202 231.613 152.145 231.625 152.088C234.721 132.971 247.411 117.897 259.417 105.673C259.512 105.577 259.615 105.47 259.713 105.367C264.074 100.8 262.748 95.25 259.67 92.0285C256.542 88.7547 251.275 87.2896 246.559 91.3949C232.939 103.255 223.113 136.194 222.183 145.435C220.996 157.248 214.914 160.631 212.973 161.418L209.308 166.776Z" fill="#302839"/>
<path d="M261.574 198.25C259.751 203.457 253.758 209.015 246.576 213.822C235.246 221.395 226.156 213.606 226.156 213.606C186.622 185.326 148.236 208.629 136.556 224.717C132.355 230.498 129.446 234.508 127.493 237.21C126.38 238.747 124.918 239.999 123.227 240.862C121.536 241.725 119.664 242.175 117.766 242.174H92.7535C84.1386 242.174 81.351 230.48 89.0945 226.71V226.705C89.3551 226.58 89.5121 226.515 89.5121 226.515C90.2352 218.076 100.479 218.942 100.479 218.942L104.712 202.503L107.427 191.943L109.281 184.743C105.816 171.469 105.362 158.674 105.362 158.674C80.8163 150.351 68.2074 139.147 68.2074 139.147C65.2266 140.086 61.6217 139.031 59.1081 136.597C55.6964 133.294 54.2912 127.444 59.1624 120.581C67.6299 108.653 80.1341 122.7 80.1341 122.7C85.9206 124.621 90.6614 125.846 94.5441 126.574C100.474 127.678 104.402 127.628 107.001 127.134C111.301 126.318 111.948 124.28 111.948 124.28C112.424 124.433 112.899 124.581 113.375 124.724L113.555 124.779C113.976 124.904 114.404 125.025 114.825 125.142C114.887 125.164 114.951 125.183 115.015 125.196C115.374 125.291 115.734 125.393 116.092 125.482C116.82 125.672 117.542 125.85 118.265 126.012C118.629 126.096 118.992 126.177 119.352 126.253C119.765 126.344 120.178 126.425 120.589 126.505C120.818 126.55 121.043 126.595 121.271 126.635C121.357 126.653 121.446 126.671 121.532 126.684C121.882 126.747 122.237 126.81 122.59 126.869C123.376 127.003 124.162 127.12 124.943 127.223C125.239 127.264 125.536 127.304 125.832 127.34C126.047 127.366 126.258 127.394 126.469 127.416C126.618 127.434 126.761 127.452 126.905 127.465C127.264 127.506 127.623 127.542 127.977 127.573C128.072 127.582 128.157 127.591 128.247 127.596C128.705 127.64 129.168 127.681 129.625 127.713C130.03 127.744 130.434 127.771 130.837 127.794C131.088 127.807 131.34 127.82 131.598 127.829C131.895 127.847 132.196 127.86 132.496 127.87C132.514 127.874 132.533 127.874 132.551 127.87C132.981 127.888 133.407 127.901 133.843 127.906C134.728 127.928 135.611 127.928 136.491 127.914C136.689 127.914 136.886 127.91 137.079 127.906C137.365 127.906 137.65 127.892 137.941 127.883C138.232 127.874 138.526 127.865 138.813 127.852C139.1 127.838 139.396 127.829 139.688 127.812C139.98 127.795 140.249 127.784 140.527 127.766C140.864 127.744 141.205 127.721 141.541 127.695C142.735 127.609 143.926 127.497 145.105 127.358C145.402 127.326 145.698 127.29 145.995 127.25C146.322 127.209 146.65 127.17 146.978 127.125C148.378 126.935 149.771 126.71 151.157 126.451C151.498 126.393 151.839 126.326 152.18 126.261C152.414 126.221 152.647 126.171 152.881 126.122C153.115 126.073 153.37 126.027 153.613 125.969C155.283 125.623 156.938 125.231 158.577 124.793C158.967 124.698 159.358 124.586 159.745 124.479C160.907 124.162 162.058 123.824 163.196 123.465C163.957 123.226 164.714 122.989 165.464 122.728C165.787 122.621 166.106 122.512 166.423 122.4C167.223 122.131 168.022 121.844 168.812 121.544C169.181 121.409 169.548 121.27 169.912 121.131C170.277 120.992 170.639 120.857 171.003 120.709C171.366 120.56 171.729 120.423 172.089 120.278C172.449 120.132 172.807 119.986 173.166 119.838C174.022 119.483 174.872 119.12 175.716 118.751C176.977 118.203 178.221 117.635 179.446 117.046C179.814 116.871 180.183 116.695 180.551 116.516C180.636 116.48 180.716 116.435 180.802 116.395C181.116 116.238 181.431 116.085 181.745 115.928C182.584 115.515 183.415 115.089 184.232 114.658C184.622 114.456 185.008 114.249 185.394 114.043C185.727 113.868 186.06 113.688 186.391 113.508C186.822 113.275 187.247 113.041 187.675 112.8C188.016 112.609 188.352 112.419 188.689 112.229C192.182 110.254 195.444 108.225 198.449 106.227C198.862 105.953 199.27 105.68 199.674 105.406C200.53 104.827 201.362 104.252 202.174 103.682C202.407 103.516 202.641 103.354 202.87 103.188C203.099 103.023 203.346 102.843 203.588 102.672C205.301 101.446 206.896 100.252 208.364 99.1164C209.114 98.538 209.832 97.9748 210.519 97.4249C210.726 97.2584 210.927 97.0966 211.125 96.9349C211.34 96.7646 211.556 96.5895 211.763 96.4192C213.019 95.4003 214.141 94.4527 215.125 93.6002C215.29 93.4604 215.452 93.3214 215.601 93.1873C216.884 92.0694 217.898 91.1446 218.621 90.471C219.303 89.8384 219.726 89.4245 219.878 89.277L219.914 89.2409L219.941 89.2142C220.664 84.1642 224.704 84.5999 224.704 84.5999C224.704 84.5999 239.903 73.7273 245.577 88.9184C248.401 96.482 246.457 100.738 243.795 103.103C241.107 105.487 237.69 105.957 237.69 105.957C227.976 115.672 208.184 145.277 208.184 145.277C211.066 151.121 212.371 163.021 212.371 163.021C218.062 164.749 223.508 167.721 228.023 170.692C230.62 172.406 233.129 174.25 235.539 176.218C238.203 178.383 239.781 179.904 239.781 179.904C248.725 175.505 251.543 181.78 251.543 181.78C260.269 182.288 259.982 189.789 259.982 189.789C262.288 192.356 262.625 195.247 261.574 198.25Z" fill="#A38DBF"/>
<path d="M105.366 158.68C80.8202 150.357 68.2113 139.153 68.2113 139.153C61.1862 141.366 50.7055 132.514 59.1663 120.587C67.6272 108.66 80.1381 122.706 80.1381 122.706C80.1381 122.706 73.8902 129.439 82.0647 136.361C90.2391 143.284 106.461 146.636 106.461 146.636C106.461 146.636 104.958 153.055 105.366 158.68Z" fill="#F6F4F9"/>
<path d="M259.994 189.797C259.994 189.797 260.279 182.296 251.555 181.788C251.555 181.788 248.74 175.509 239.794 179.912C239.794 179.912 235.026 175.306 228.032 170.701C223.022 172.545 218.467 175.446 214.679 179.208C212.381 181.48 209.687 183.314 206.73 184.618C203.311 186.13 199.454 186.355 195.843 185.392C195.73 185.363 195.619 185.332 195.507 185.297C189.718 183.68 186.379 177.531 188.181 171.798C189.831 166.553 191.004 157.071 187.051 141.849C185.02 134.03 187.241 125.662 193.107 120.107C197.749 115.712 202.171 109.897 202.178 103.69C201.366 104.261 200.535 104.832 199.678 105.414C199.274 105.688 198.865 105.962 198.452 106.235C195.449 108.233 192.185 110.262 188.693 112.237C188.356 112.427 188.019 112.617 187.679 112.808C187.252 113.049 186.822 113.283 186.394 113.517C186.062 113.696 185.728 113.876 185.398 114.051C185.012 114.258 184.626 114.464 184.236 114.666C183.418 115.097 182.588 115.522 181.749 115.936C181.435 116.093 181.12 116.246 180.806 116.403C180.72 116.443 180.64 116.489 180.555 116.524C180.186 116.704 179.818 116.879 179.45 117.054C178.225 117.642 176.981 118.21 175.72 118.76C174.876 119.128 174.028 119.491 173.17 119.846C172.811 119.995 172.451 120.142 172.093 120.286C171.734 120.429 171.37 120.571 171.006 120.717C170.643 120.862 170.279 121.002 169.916 121.139C169.553 121.276 169.184 121.417 168.816 121.552C168.026 121.848 167.226 122.135 166.427 122.408C166.109 122.521 165.791 122.629 165.467 122.737C164.718 122.992 163.958 123.234 163.2 123.473C162.058 123.831 160.908 124.169 159.748 124.487C159.362 124.595 158.971 124.702 158.581 124.801C156.943 125.237 155.288 125.629 153.617 125.977C153.374 126.031 153.131 126.085 152.885 126.13C152.639 126.175 152.418 126.225 152.184 126.269C151.843 126.337 151.502 126.404 151.161 126.459C149.778 126.713 148.384 126.938 146.981 127.133C146.654 127.178 146.326 127.218 145.999 127.259C145.702 127.299 145.406 127.335 145.109 127.366C143.929 127.505 142.739 127.617 141.545 127.703C141.208 127.73 140.868 127.752 140.531 127.774C140.252 127.792 139.97 127.806 139.692 127.82C139.414 127.834 139.108 127.851 138.817 127.86C138.525 127.868 138.237 127.886 137.945 127.891C137.653 127.896 137.374 127.909 137.083 127.914C136.893 127.914 136.693 127.923 136.495 127.923C135.615 127.936 134.731 127.936 133.846 127.914C133.415 127.914 132.984 127.896 132.554 127.878C132.537 127.883 132.518 127.883 132.5 127.878C132.2 127.868 131.899 127.855 131.602 127.837C131.346 127.828 131.095 127.815 130.841 127.802C130.437 127.779 130.033 127.752 129.629 127.721C129.171 127.69 128.709 127.649 128.25 127.604C128.161 127.599 128.071 127.591 127.981 127.581C127.627 127.55 127.267 127.514 126.909 127.474C126.765 127.46 126.623 127.442 126.473 127.424C126.262 127.402 126.051 127.375 125.836 127.348C125.54 127.312 125.243 127.272 124.947 127.231C124.166 127.128 123.38 127.011 122.594 126.877C122.24 126.818 121.885 126.755 121.535 126.692C121.45 126.679 121.36 126.661 121.275 126.643C121.046 126.603 120.822 126.558 120.592 126.514C120.18 126.433 119.767 126.352 119.356 126.262C118.996 126.185 118.633 126.105 118.269 126.02C117.546 125.858 116.824 125.683 116.096 125.49C115.737 125.4 115.378 125.3 115.019 125.204C114.935 125.187 114.852 125.162 114.772 125.129C114.469 125.072 114.172 124.984 113.886 124.868C113.714 124.832 113.543 124.787 113.376 124.733C112.9 124.589 112.425 124.441 111.949 124.288C111.949 124.288 111.302 126.322 107.002 127.143C107.94 128.219 108.938 129.242 109.99 130.207C112.457 132.498 114.344 135.343 115.493 138.508C116.642 141.672 117.022 145.065 116.599 148.405C115.339 158.551 115.849 174.142 126.195 188.892C126.962 189.969 127.788 191.002 128.669 191.987C130.115 193.628 132.884 197.157 134.125 201.331C134.508 202.632 134.546 204.01 134.235 205.331C133.923 206.651 133.273 207.867 132.349 208.859L132.306 208.905C123.766 218.103 108.448 214.629 104.755 202.633C104.742 202.591 104.73 202.548 104.716 202.505L100.484 218.943C100.484 218.943 90.2398 218.078 89.5168 226.517C89.5168 226.517 89.3598 226.579 89.0991 226.707C81.3509 230.478 84.1385 242.176 92.7535 242.176H117.766C119.664 242.176 121.536 241.727 123.227 240.864C124.917 240.001 126.38 238.749 127.493 237.211C129.446 234.509 132.355 230.5 136.556 224.718C148.241 208.63 186.622 185.33 226.156 213.608C226.156 213.608 235.246 221.397 246.576 213.824C257.906 206.251 266.269 196.796 259.994 189.797Z" fill="#F6F4F9"/>
<path d="M237.702 105.965C227.988 115.68 208.196 145.285 208.196 145.285C201.054 133.671 213.943 126.036 222.311 114.495C228.662 105.732 220.905 93.6391 218.633 90.4832C219.315 89.8506 219.737 89.4367 219.889 89.2892L219.926 89.2531L219.952 89.2264C220.675 84.1764 224.715 84.6121 224.715 84.6121C224.715 84.6121 239.915 73.7395 245.589 88.9306C251.263 104.122 237.702 105.965 237.702 105.965Z" fill="#F6F4F9"/>
<g opacity="0.3">
<path opacity="0.3" d="M212.034 105.32C207.848 111.268 198.41 122.782 186.645 125.228C186.549 125.25 186.438 125.273 186.334 125.29C186.334 125.29 147.199 157.876 107.612 131.855C107.612 131.855 101.349 131.509 94.5488 126.581C100.479 127.684 104.406 127.635 107.006 127.141C111.306 126.325 111.953 124.287 111.953 124.287C112.429 124.44 112.904 124.588 113.38 124.731L113.56 124.785C113.981 124.911 114.408 125.032 114.83 125.149C114.892 125.171 114.956 125.189 115.02 125.203C115.379 125.298 115.738 125.4 116.097 125.488C116.825 125.679 117.547 125.857 118.27 126.018C118.634 126.103 118.997 126.184 119.357 126.26C119.77 126.35 120.182 126.431 120.593 126.512C120.823 126.557 121.047 126.601 121.276 126.641C121.361 126.659 121.451 126.678 121.536 126.691C121.886 126.754 122.241 126.816 122.595 126.875C123.381 127.01 124.167 127.127 124.948 127.229C125.244 127.27 125.541 127.31 125.837 127.346C126.052 127.373 126.263 127.401 126.474 127.423C126.623 127.441 126.766 127.459 126.91 127.472C127.269 127.513 127.628 127.548 127.982 127.58C128.077 127.589 128.162 127.598 128.251 127.602C128.71 127.647 129.172 127.688 129.63 127.719C130.035 127.75 130.439 127.777 130.842 127.8C131.093 127.814 131.344 127.827 131.603 127.835C131.9 127.854 132.201 127.867 132.501 127.876C132.519 127.881 132.538 127.881 132.555 127.876C132.985 127.894 133.412 127.908 133.847 127.912C134.732 127.934 135.616 127.934 136.496 127.921C136.694 127.921 136.891 127.916 137.084 127.912C137.37 127.912 137.655 127.898 137.946 127.89C138.237 127.881 138.53 127.872 138.818 127.858C139.105 127.845 139.401 127.835 139.693 127.818C139.985 127.801 140.253 127.791 140.532 127.773C140.869 127.751 141.209 127.728 141.546 127.701C142.74 127.616 143.93 127.503 145.11 127.364C145.407 127.333 145.703 127.297 146 127.257C146.327 127.216 146.655 127.176 146.983 127.131C148.383 126.941 149.776 126.717 151.162 126.458C151.503 126.4 151.844 126.332 152.185 126.268C152.419 126.228 152.652 126.178 152.886 126.129C153.12 126.079 153.375 126.033 153.618 125.975C155.288 125.63 156.942 125.238 158.582 124.799C158.972 124.704 159.363 124.593 159.749 124.486C160.912 124.168 162.063 123.83 163.201 123.471C163.962 123.233 164.719 122.996 165.468 122.735C165.792 122.627 166.11 122.519 166.428 122.407C167.227 122.137 168.027 121.85 168.817 121.55C169.185 121.415 169.553 121.276 169.917 121.138C170.281 120.999 170.644 120.864 171.007 120.715C171.371 120.567 171.734 120.43 172.094 120.284C172.453 120.139 172.812 119.993 173.171 119.845C174.027 119.49 174.877 119.126 175.721 118.758C176.982 118.21 178.226 117.641 179.451 117.052C179.819 116.877 180.187 116.702 180.556 116.522C180.641 116.487 180.721 116.441 180.807 116.401C181.121 116.244 181.436 116.091 181.75 115.934C182.589 115.521 183.419 115.095 184.237 114.664C184.627 114.463 185.013 114.256 185.399 114.05C185.731 113.875 186.065 113.695 186.395 113.515C186.826 113.282 187.252 113.048 187.68 112.806C188.02 112.616 188.357 112.426 188.694 112.235C192.187 110.26 195.449 108.232 198.453 106.234C198.866 105.96 199.275 105.686 199.679 105.413C200.535 104.833 201.367 104.259 202.179 103.689C202.412 103.522 202.645 103.361 202.875 103.195C203.104 103.03 203.35 102.85 203.593 102.678C205.305 101.453 206.901 100.259 208.369 99.123C209.128 99.6186 209.918 100.064 210.735 100.455C212.577 101.343 213.206 103.654 212.034 105.32Z" fill="#302839"/>
</g>
<path d="M245.798 200.692C246.388 197.964 244.7 195.284 242.027 194.705C239.354 194.127 236.708 195.87 236.118 198.598C235.527 201.326 237.216 204.006 239.889 204.584C242.562 205.163 245.207 203.42 245.798 200.692Z" fill="#FFB3D2"/>
<path d="M244.569 189.572C244.903 188.027 243.947 186.508 242.433 186.181C240.919 185.854 239.421 186.841 239.086 188.386C238.752 189.932 239.709 191.45 241.223 191.777C242.737 192.105 244.235 191.117 244.569 189.572Z" fill="#FFB3D2"/>
<path d="M252.965 199.077C253.299 197.531 252.342 196.013 250.828 195.686C249.314 195.359 247.816 196.346 247.482 197.891C247.148 199.437 248.104 200.955 249.618 201.282C251.132 201.61 252.631 200.622 252.965 199.077Z" fill="#FFB3D2"/>
<path d="M251.973 191.163C252.308 189.617 251.351 188.099 249.837 187.772C248.323 187.445 246.825 188.432 246.491 189.977C246.157 191.523 247.113 193.041 248.627 193.368C250.141 193.695 251.639 192.708 251.973 191.163Z" fill="#FFB3D2"/>
<g opacity="0.3">
<path opacity="0.3" d="M261.574 198.25C259.751 203.457 253.758 209.015 246.576 213.822C235.246 221.395 226.156 213.606 226.156 213.606C186.622 185.326 148.236 208.628 136.556 224.717C132.355 230.498 129.446 234.508 127.493 237.209C126.38 238.747 124.918 239.999 123.227 240.862C121.536 241.725 119.664 242.174 117.766 242.174H92.7535C84.1385 242.174 81.3509 230.48 89.0944 226.71C89.005 226.943 86.419 233.551 90.6699 235.535C90.6699 235.535 93.4128 229.282 99.1146 231.639C99.1146 231.639 98.7502 238.422 112.388 235.535C126.025 232.648 127.174 204.081 166.565 193.263C197.068 184.885 224.241 200.241 234.95 207.597C236.572 208.705 238.458 209.364 240.417 209.505C242.376 209.647 244.337 209.268 246.102 208.405C250.903 206.065 257.38 202.451 261.574 198.25Z" fill="#302839"/>
</g>
<g opacity="0.3">
<path opacity="0.3" d="M112.521 197.233C110.932 196.298 109.029 194.692 107.432 191.948L109.286 184.748C109.286 184.748 111.528 190.388 114.242 195.614C114.815 196.715 113.592 197.862 112.521 197.233Z" fill="#302839"/>
</g>
<g opacity="0.3">
<path opacity="0.3" d="M239.793 179.913C239.793 179.913 231.977 184.505 229.571 188.882C229.571 188.882 229.814 181.255 235.551 176.228C238.218 178.392 239.793 179.913 239.793 179.913Z" fill="#302839"/>
</g>
<g opacity="0.3">
<path opacity="0.3" d="M237.701 105.965C227.987 115.68 208.195 145.285 208.195 145.285C211.077 151.129 212.381 163.03 212.381 163.03C212.381 163.03 208.522 161.412 200.617 160.309C200.019 160.225 199.886 159.41 200.432 159.152C201.283 158.744 202.179 158.44 203.102 158.246C204.894 157.883 206.097 156.191 205.748 154.396C204.588 148.418 201.701 136.706 195.835 128.941C195.763 128.849 195.723 128.736 195.719 128.619C195.715 128.502 195.749 128.387 195.815 128.29C195.881 128.193 195.976 128.12 196.086 128.081C196.196 128.042 196.316 128.038 196.428 128.071C198.617 128.732 200.758 129.544 202.834 130.503C204.562 131.297 206.508 131.481 208.354 131.026C210.2 130.571 211.837 129.503 212.999 127.997C216.328 123.686 221.181 117.552 226.136 111.746C226.791 110.983 227.208 110.045 227.338 109.048C227.467 108.051 227.303 107.038 226.866 106.133C225.996 104.325 225.164 101.873 225.439 99.4217C225.439 99.4217 222.876 96.656 224.357 93.191C224.357 93.191 232.514 99.0716 235.432 92.4365C235.432 92.4365 235.508 104.462 243.804 103.111C241.117 105.499 237.701 105.965 237.701 105.965Z" fill="#302839"/>
</g>
<g opacity="0.3">
<path opacity="0.3" d="M108.635 138.789C105.726 145.259 105.367 158.68 105.367 158.68C80.8205 150.357 68.2115 139.152 68.2115 139.152C65.2308 140.091 61.6259 139.036 59.1123 136.603C66.7074 135.283 64.697 128.317 64.697 128.317C71.138 132.828 77.1442 124.977 77.1442 124.977C79.2725 131.037 74.0998 133.932 74.0998 133.932C74.4147 135.881 73.5479 137.469 73.5479 137.469C86.3919 146.127 101.586 150.789 101.586 150.789C103.32 144.105 108.635 138.789 108.635 138.789Z" fill="#302839"/>
</g>
<g opacity="0.5">
<path opacity="0.5" d="M115.769 193.625C116.187 194.897 114.508 195.802 113.688 194.744C112.274 192.921 110.644 189.864 109.286 184.748C105.821 171.474 105.367 158.679 105.367 158.679C105.367 158.679 104.811 149.97 108.635 138.788C108.884 138.267 109.672 138.49 109.604 139.063C108.722 146.49 107.311 167.894 115.769 193.625Z" fill="#F6F4F9"/>
</g>
<path d="M117.766 243.688H92.7531C87.4253 243.688 84.1658 239.896 83.3 236.137C82.4637 232.509 83.6435 227.86 88.115 225.501C89.1616 219.127 95.2563 217.426 99.3178 217.385L107.72 184.745C104.865 173.632 104.085 163.085 103.902 159.778C82.6854 152.429 70.6397 143.139 67.8292 140.813C63.8981 141.629 59.3484 139.76 56.7197 136.151C55.1271 133.963 52.0578 127.986 57.9299 119.708C60.3503 116.299 63.3282 114.476 66.7779 114.285C73.4378 113.905 79.5876 119.922 80.9814 121.389C106.244 129.716 110.211 124.287 110.512 123.788C110.601 123.387 110.836 123.115 111.196 122.901C111.556 122.687 111.996 122.711 112.41 122.847C112.878 122.996 113.346 123.142 113.813 123.284L113.964 123.328C114.401 123.459 114.82 123.577 115.23 123.691C115.263 123.7 115.298 123.711 115.325 123.723C115.353 123.736 115.399 123.739 115.433 123.749C115.775 123.844 116.118 123.939 116.46 124.024C117.168 124.214 117.86 124.38 118.595 124.543C118.976 124.639 119.317 124.709 119.664 124.782C120.07 124.871 120.467 124.952 120.866 125.027C121.118 125.08 121.325 125.117 121.532 125.154L121.583 125.164C121.642 125.177 121.705 125.189 121.765 125.199L121.813 125.207C122.154 125.272 122.492 125.328 122.834 125.384C123.569 125.511 124.32 125.624 125.14 125.733C125.448 125.778 125.73 125.813 126.011 125.847L126.09 125.856C126.271 125.879 126.449 125.902 126.627 125.921L126.7 125.93C126.817 125.944 126.93 125.958 127.045 125.969C127.418 126.01 127.766 126.045 128.108 126.075C128.196 126.084 128.259 126.09 128.323 126.094L128.39 126.099C128.839 126.143 129.283 126.182 129.727 126.212C130.134 126.244 130.526 126.27 130.919 126.291C131.187 126.306 131.417 126.318 131.646 126.326C131.963 126.345 132.245 126.358 132.521 126.365H132.609C133.024 126.383 133.439 126.397 133.854 126.401C134.675 126.421 135.522 126.424 136.463 126.41C136.654 126.41 136.831 126.405 136.999 126.402H137.049C137.329 126.398 137.608 126.389 137.888 126.38C138.19 126.38 138.465 126.362 138.736 126.349C139.036 126.34 139.314 126.327 139.593 126.31H139.648C139.906 126.298 140.167 126.285 140.425 126.268C140.758 126.246 141.091 126.225 141.416 126.198C142.592 126.114 143.768 126.008 144.925 125.868C145.222 125.835 145.504 125.801 145.781 125.763C146.122 125.721 146.443 125.681 146.763 125.637C148.145 125.447 149.528 125.225 150.873 124.972C151.218 124.913 151.539 124.848 151.869 124.781C152.129 124.736 152.344 124.686 152.559 124.644L152.715 124.612C152.906 124.575 153.089 124.536 153.275 124.495C154.892 124.16 156.535 123.771 158.18 123.333C158.577 123.232 158.955 123.129 159.328 123.024C160.495 122.704 161.638 122.368 162.734 122.023C163.59 121.756 164.3 121.526 164.966 121.298C165.302 121.191 165.607 121.084 165.911 120.976C166.665 120.722 167.452 120.441 168.272 120.134C168.64 119.999 168.996 119.868 169.348 119.729C169.728 119.589 170.074 119.456 170.423 119.314C170.803 119.168 171.155 119.029 171.503 118.885C171.867 118.74 172.215 118.6 172.564 118.452C173.377 118.12 174.198 117.77 175.096 117.374C176.314 116.846 177.551 116.279 178.783 115.689C179.158 115.512 179.517 115.341 179.872 115.165L179.951 115.129L180.141 115.034C180.435 114.89 180.745 114.736 181.054 114.581C181.837 114.201 182.638 113.787 183.511 113.326C183.906 113.122 184.286 112.919 184.665 112.716C184.951 112.567 185.211 112.43 185.474 112.284L185.657 112.188C186.079 111.959 186.497 111.731 186.913 111.494C187.262 111.304 187.592 111.113 187.922 110.923C191.157 109.093 194.411 107.093 197.596 104.975C198.003 104.699 198.414 104.424 198.82 104.154C199.84 103.466 200.875 102.747 201.978 101.966C202.133 101.856 202.279 101.751 202.424 101.646L202.692 101.456C204.996 99.8041 207.307 98.0544 209.561 96.2553L210.155 95.7796C210.377 95.6036 210.584 95.4352 210.783 95.2706C211.925 94.344 213.044 93.4068 214.113 92.4744L214.6 92.0558C216.62 90.2967 217.955 89.0342 218.515 88.4947C219.334 84.2838 222.321 83.1345 224.249 83.0879C226.026 81.9281 232.754 77.9503 238.926 79.8332C242.564 80.9434 245.275 83.8291 246.985 88.4072C248.994 93.7874 248.967 98.2666 246.9 101.72C244.465 105.794 239.973 107.055 238.42 107.379C229.652 116.343 212.932 140.944 209.906 145.43C212.168 150.619 213.38 159.012 213.744 161.89C218.529 163.46 223.602 165.998 228.842 169.446C232.794 172.05 236.543 174.95 240.058 178.121C243.267 176.731 246.124 176.47 248.56 177.349C250.142 177.912 251.506 178.96 252.459 180.343C259.368 181.104 261.37 186.131 261.508 189.235C263.215 191.34 263.913 193.73 263.585 196.348C262.686 203.496 254.299 210.481 247.423 215.082C235.816 222.84 226.162 215.549 225.244 214.814C203.959 199.604 184.167 200.531 171.31 203.986C154.964 208.382 143.036 218.38 137.787 225.607C133.586 231.387 130.678 235.395 128.726 238.096C127.469 239.826 125.821 241.235 123.916 242.207C122.012 243.178 119.904 243.686 117.766 243.688ZM99.6051 220.428C97.4645 220.428 91.5182 220.944 91.0273 226.643C91.0024 226.923 90.9003 227.191 90.7323 227.417C90.5644 227.643 90.3371 227.817 90.0759 227.922C90.0597 227.928 89.9408 227.978 89.7553 228.067C86.3017 229.749 85.709 233.098 86.2522 235.457C86.805 237.854 88.8381 240.655 92.7503 240.655H117.763C119.421 240.654 121.055 240.26 122.532 239.506C124.009 238.752 125.287 237.66 126.262 236.318C128.215 233.615 131.124 229.606 135.326 223.822C140.867 216.196 153.403 205.657 170.516 201.056C184.013 197.427 204.772 196.446 227.035 212.37C227.071 212.396 227.106 212.423 227.14 212.452C227.474 212.737 235.534 219.373 245.731 212.559C254.711 206.55 259.981 200.657 260.573 195.966C260.815 194.044 260.256 192.356 258.86 190.806C258.598 190.512 258.46 190.129 258.474 189.735C258.489 189.127 258.428 183.703 251.462 183.298C251.185 183.282 250.918 183.191 250.689 183.033C250.461 182.876 250.28 182.659 250.166 182.406C249.588 181.354 248.638 180.555 247.503 180.167C245.638 179.519 243.269 179.888 240.462 181.269C240.182 181.406 239.867 181.453 239.559 181.405C239.251 181.357 238.965 181.215 238.74 181C238.694 180.954 233.983 176.433 227.199 171.961C221.856 168.441 216.721 165.927 211.939 164.475C211.655 164.388 211.402 164.22 211.213 163.992C211.023 163.763 210.905 163.484 210.873 163.188C210.859 163.072 209.565 151.486 206.836 145.949C206.718 145.711 206.664 145.445 206.681 145.18C206.698 144.914 206.784 144.658 206.931 144.436C207.743 143.222 226.918 114.596 236.625 104.888C236.86 104.654 237.165 104.502 237.494 104.457C237.535 104.452 242.181 103.75 244.331 100.13C245.887 97.5083 245.832 93.9168 244.165 89.4547C242.804 85.8108 240.752 83.5455 238.069 82.7235C232.472 81.011 225.66 85.7918 225.592 85.8403C225.288 86.0555 224.916 86.1526 224.545 86.1134C224.128 86.0753 221.925 86.081 221.446 89.4347C221.401 89.7466 221.26 90.0368 221.043 90.2653L220.998 90.311L220.935 90.3738C220.781 90.525 219.255 92.0225 216.6 94.3363L216.113 94.755C215.017 95.7064 213.873 96.6654 212.715 97.6025C212.514 97.7709 212.29 97.9517 212.068 98.1286L211.469 98.611C209.169 100.447 206.816 102.226 204.47 103.91L204.213 104.096C204.057 104.209 203.9 104.323 203.737 104.435C202.622 105.23 201.566 105.958 200.518 106.669C200.108 106.941 199.702 107.215 199.291 107.49C196.038 109.655 192.727 111.694 189.431 113.555C189.096 113.745 188.753 113.935 188.404 114.132C187.984 114.371 187.548 114.608 187.108 114.848L186.928 114.943C186.65 115.094 186.372 115.243 186.09 115.391C185.709 115.593 185.321 115.802 184.925 116.007C184.035 116.476 183.212 116.899 182.41 117.292C182.099 117.447 181.781 117.607 181.458 117.762L181.38 117.801C181.314 117.833 181.25 117.865 181.183 117.896C180.821 118.074 180.455 118.248 180.084 118.422C178.829 119.024 177.557 119.607 176.313 120.147C175.397 120.551 174.55 120.908 173.733 121.246C173.384 121.394 173.014 121.542 172.644 121.69C172.289 121.837 171.914 121.985 171.539 122.129C171.189 122.271 170.81 122.414 170.432 122.557C170.086 122.694 169.706 122.833 169.326 122.972C168.488 123.287 167.668 123.58 166.902 123.837C166.588 123.948 166.255 124.065 165.918 124.173C165.252 124.4 164.522 124.638 163.64 124.913C162.513 125.267 161.334 125.614 160.138 125.941C159.747 126.051 159.344 126.162 158.941 126.264C157.26 126.711 155.563 127.113 153.912 127.455C153.732 127.495 153.526 127.536 153.321 127.578L153.178 127.608C152.935 127.659 152.684 127.712 152.433 127.755C152.106 127.82 151.756 127.889 151.406 127.946C150.035 128.2 148.605 128.431 147.177 128.627C146.843 128.673 146.511 128.714 146.172 128.755C145.881 128.795 145.571 128.833 145.259 128.867C144.074 129.006 142.851 129.122 141.644 129.207C141.314 129.234 140.969 129.258 140.621 129.28C140.346 129.298 140.067 129.311 139.792 129.325C139.468 129.344 139.162 129.358 138.855 129.368C138.57 129.381 138.266 129.396 137.958 129.399C137.69 129.408 137.394 129.417 137.102 129.422C136.878 129.422 136.683 129.431 136.489 129.431C135.53 129.446 134.643 129.443 133.802 129.422C133.407 129.422 132.992 129.406 132.576 129.389C132.511 129.391 132.445 129.389 132.38 129.383C132.095 129.375 131.798 129.361 131.506 129.343C131.295 129.337 131.048 129.323 130.796 129.31C130.338 129.285 129.923 129.258 129.508 129.225C129.06 129.194 128.598 129.153 128.132 129.109C128.028 129.102 127.926 129.092 127.822 129.082C127.479 129.052 127.107 129.015 126.735 128.973C126.621 128.963 126.479 128.946 126.334 128.927L126.286 128.922C126.114 128.904 125.916 128.879 125.715 128.854L125.643 128.845C125.339 128.809 125.028 128.77 124.716 128.723C123.885 128.613 123.099 128.495 122.338 128.363C121.989 128.306 121.634 128.246 121.274 128.179C121.179 128.163 121.084 128.144 120.989 128.124C120.75 128.082 120.513 128.039 120.276 127.988C119.89 127.917 119.463 127.829 119.039 127.736C118.667 127.658 118.293 127.578 117.912 127.484C117.17 127.319 116.44 127.141 115.713 126.948C115.371 126.862 115.009 126.768 114.649 126.662C114.562 126.642 114.473 126.617 114.387 126.589C113.968 126.473 113.546 126.353 113.127 126.228C113.08 126.215 113.012 126.194 112.945 126.173L112.577 126.061C112.007 126.675 111.33 127.18 110.579 127.549C106.868 129.442 98.4958 130.385 79.6675 124.131C79.4155 124.048 79.19 123.899 79.0139 123.7C78.954 123.635 72.9183 116.957 66.9473 117.299C64.4308 117.441 62.2921 118.799 60.4093 121.451C57.0793 126.15 56.6265 130.853 59.1724 134.355C61.2141 137.157 64.9037 138.594 67.7579 137.694C68.0081 137.615 68.2743 137.603 68.5306 137.658C68.787 137.713 69.0248 137.833 69.2211 138.007C69.3439 138.117 81.9271 149.12 105.856 157.232C106.147 157.33 106.402 157.515 106.585 157.762C106.769 158.009 106.873 158.306 106.883 158.613C106.888 158.74 107.374 171.405 110.755 184.351C110.819 184.601 110.819 184.863 110.755 185.113L101.947 219.322C101.857 219.668 101.647 219.971 101.356 220.178C101.064 220.385 100.709 220.483 100.352 220.454C100.297 220.45 100.024 220.43 99.6051 220.43V220.428Z" fill="#302839"/>
<path d="M74.84 119.74C74.2231 119.827 73.6112 119.946 73.0067 120.097C72.3902 120.241 71.7825 120.421 71.1866 120.635C70.0457 121.018 68.9713 121.577 68.0023 122.291C67.1032 122.984 66.4696 123.857 66.147 124.806C65.9672 125.282 65.9301 125.789 65.9244 126.297C65.9625 126.55 65.9463 126.81 66.0253 127.058L66.108 127.439L66.2384 127.81C66.5809 128.812 67.3258 129.664 68.2078 130.245C68.6664 130.505 69.1468 130.751 69.6758 130.851C69.8071 130.878 69.9374 130.914 70.0706 130.938L70.4778 130.966C70.7381 130.994 71.0008 130.989 71.2599 130.951C71.7767 130.879 72.2713 130.694 72.7089 130.41C73.1887 130.088 73.631 129.714 74.0275 129.294C74.9009 128.426 75.6925 127.338 76.72 126.243C76.7312 126.232 76.7462 126.226 76.7619 126.226C76.7775 126.226 76.7925 126.232 76.8037 126.243C76.8149 126.254 76.8217 126.268 76.8227 126.284C76.9063 127.802 76.5236 129.309 75.7258 130.603C75.2956 131.295 74.7392 131.9 74.0856 132.387C73.3911 132.913 72.5916 133.284 71.7413 133.474C71.3197 133.569 70.8883 133.615 70.456 133.611H69.8233C69.613 133.592 69.4027 133.559 69.1915 133.532C68.3429 133.41 67.523 133.138 66.7712 132.726C65.2908 131.878 64.0549 130.578 63.3889 128.986L63.1463 128.386C63.0807 128.181 63.0283 127.97 62.9741 127.759C62.8466 127.343 62.8257 126.903 62.7686 126.468C62.7334 125.596 62.7972 124.699 63.0693 123.857C63.5649 122.149 64.6914 120.717 65.9786 119.712C67.2659 118.708 68.7149 118.052 70.1534 117.568C70.8708 117.337 71.6016 117.151 72.3416 117.009C73.0929 116.862 73.8527 116.765 74.6164 116.715C75.0081 116.69 75.3942 116.818 75.6936 117.072C75.9929 117.326 76.182 117.686 76.2212 118.077C76.2604 118.467 76.1466 118.858 75.9037 119.166C75.6608 119.474 75.3078 119.676 74.919 119.73L74.84 119.74Z" fill="#302839"/>
<path d="M68.9863 140.455L67.4346 137.85C70.2345 136.18 69.3726 132.843 69.3374 132.701L72.2563 131.884C72.8081 133.844 72.8404 138.157 68.9863 140.455Z" fill="#302839"/>
<path d="M224.195 83.1861C224.459 83.0909 224.614 83.0433 224.816 82.9863C225.018 82.9292 225.197 82.8864 225.387 82.8464C225.766 82.7708 226.15 82.7155 226.535 82.6809C227.319 82.6055 228.11 82.6324 228.887 82.7608C230.495 83.027 231.991 83.7541 233.194 84.8539C234.376 85.9518 235.192 87.298 235.745 88.6595C236.017 89.3341 236.246 90.0256 236.43 90.7297C236.623 91.4681 236.742 92.2242 236.783 92.9864C236.825 93.8105 236.729 94.6357 236.497 95.4278C236.245 96.2659 235.796 97.0315 235.187 97.6605C234.578 98.2895 233.828 98.7635 232.998 99.0431C232.24 99.305 231.442 99.4309 230.64 99.4151C229.106 99.3998 227.609 98.9369 226.333 98.0831C225.701 97.6654 225.13 97.1089 224.773 96.4144C224.416 95.7198 224.282 94.9102 224.534 94.2023C224.91 94.7191 225.359 95.1789 225.866 95.5676C226.31 95.9091 226.789 96.2037 227.293 96.4467C228.317 96.9027 229.443 97.0825 230.558 96.9681C231.638 96.8587 232.602 96.4343 233.16 95.7855C233.717 95.1366 233.93 94.2252 233.842 93.1644C233.787 92.6132 233.678 92.0688 233.515 91.5394C233.345 90.9756 233.139 90.4233 232.898 89.8858C232.422 88.8393 231.812 87.8984 231.041 87.2219C230.293 86.5284 229.358 86.0695 228.352 85.9023C227.831 85.8081 227.3 85.7742 226.77 85.8015C226.5 85.8149 226.23 85.8432 225.962 85.8861C225.829 85.9099 225.696 85.9299 225.568 85.9575L225.241 86.0336L225.064 86.0745C224.69 86.16 224.298 86.1 223.966 85.9067C223.635 85.7134 223.39 85.4012 223.28 85.0336C223.17 84.6659 223.204 84.2703 223.376 83.927C223.547 83.5837 223.843 83.3185 224.202 83.1851L224.195 83.1861Z" fill="#302839"/>
<path d="M237.693 107.482C229.411 107.437 227.094 101.261 227.026 98.001L230.058 97.9373L228.542 97.9687L230.058 97.9297C230.079 98.5957 230.472 104.411 237.709 104.45L237.693 107.482Z" fill="#302839"/>
<path d="M211.878 164.463C211.297 164.225 210.679 163.958 210.082 163.681C209.484 163.405 208.877 163.121 208.274 162.833C207.065 162.252 205.854 161.67 204.612 160.988C206.013 160.761 207.415 160.784 208.793 160.899C209.483 160.958 210.169 161.038 210.85 161.154C211.535 161.263 212.213 161.412 212.88 161.601L211.878 164.463Z" fill="#302839"/>
<path d="M206.775 145.819C206.459 144.829 206.09 143.788 205.736 142.769C205.382 141.75 204.982 140.733 204.585 139.718C204.188 138.704 203.729 137.72 203.267 136.73C202.806 135.74 202.32 134.759 201.81 133.742C202.738 134.398 203.549 135.212 204.283 136.075C205.018 136.937 205.653 137.876 206.294 138.811C206.934 139.746 207.509 140.718 208.064 141.703C208.619 142.688 209.132 143.68 209.611 144.748L206.775 145.819Z" fill="#302839"/>
<path d="M103.856 158.803C103.801 157.907 103.796 157.009 103.841 156.112C103.881 155.239 103.948 154.369 104.052 153.507C104.252 151.787 104.549 150.08 104.942 148.394C105.143 147.554 105.35 146.717 105.599 145.892L105.963 144.655C106.094 144.246 106.248 143.842 106.384 143.437C106.957 141.809 107.712 140.25 108.635 138.792C108.581 139.667 108.445 140.505 108.329 141.347C108.213 142.189 108.066 143.012 107.948 143.843C107.663 145.49 107.434 147.141 107.244 148.79C107.054 150.44 106.944 152.088 106.877 153.729C106.837 154.55 106.83 155.369 106.824 156.184C106.817 156.998 106.836 157.837 106.879 158.562L103.856 158.803Z" fill="#302839"/>
<path d="M110.701 184.203C111.028 185.102 111.341 186.038 111.633 186.972C111.925 187.905 112.21 188.849 112.484 189.796L113.34 192.636L114.23 195.496C112.884 193.989 111.741 192.316 110.676 190.613C110.141 189.761 109.644 188.89 109.167 188.009C108.69 187.128 108.261 186.232 107.874 185.292L110.701 184.203Z" fill="#302839"/>
<path d="M88.3652 225.533C88.5116 225.363 88.6706 225.204 88.8409 225.057C88.992 224.923 89.1508 224.798 89.3166 224.682C89.6401 224.45 89.984 224.247 90.3442 224.076C91.0695 223.73 91.8562 223.53 92.6589 223.489C93.4437 223.433 94.2305 223.566 94.9527 223.878C95.6328 224.168 96.2301 224.623 96.691 225.201C96.3161 225.218 95.986 225.18 95.6568 225.201C95.3276 225.222 95.0203 225.216 94.7187 225.283C94.4238 225.299 94.1412 225.399 93.8739 225.449C93.7397 225.484 93.6103 225.544 93.4828 225.583C93.3543 225.62 93.2294 225.669 93.1099 225.729C92.6336 225.945 92.1843 226.217 91.7713 226.538C91.5686 226.703 91.366 226.863 91.1766 227.039C91.0815 227.124 90.9863 227.214 90.8979 227.299L90.6771 227.513L88.3652 225.533Z" fill="#302839"/>
<path d="M93.8426 242.95C93.6534 242.671 93.4818 242.379 93.3288 242.078C93.1816 241.794 93.0489 241.502 92.9311 241.205C92.6855 240.602 92.5013 239.977 92.3812 239.338C92.1319 238.05 92.13 236.601 92.6428 235.226C93.148 233.885 94.108 232.764 95.3553 232.059C96.5303 231.416 97.8385 231.22 99.1124 231.641C98.2057 232.628 97.3837 233.285 96.7129 233.948C96.0786 234.52 95.6397 235.276 95.458 236.111C95.3743 236.52 95.3404 236.937 95.3572 237.354C95.3851 237.805 95.4487 238.253 95.5475 238.694C95.6546 239.161 95.7867 239.622 95.9433 240.074C96.026 240.303 96.105 240.536 96.1954 240.762L96.4513 241.398L93.8426 242.95Z" fill="#302839"/>
<path d="M240.602 181.196L237.849 183.024C236.919 183.635 235.994 184.256 235.073 184.885C234.156 185.519 233.266 186.181 232.343 186.833L229.572 188.887C229.959 187.758 230.572 186.728 231.25 185.759C231.927 184.789 232.728 183.924 233.542 183.08C234.364 182.244 235.226 181.45 236.127 180.701C237.031 179.947 237.985 179.255 238.982 178.63L240.602 181.196Z" fill="#302839"/>
<path d="M252.709 182.769C252.242 183.229 251.663 183.591 251.061 183.924C250.428 184.283 249.745 184.545 249.034 184.701C249.101 183.97 249.266 183.251 249.526 182.565C249.763 181.927 250.024 181.32 250.396 180.81L252.709 182.769Z" fill="#302839"/>
<path d="M261.011 190.921C260.38 191.371 259.703 191.754 258.992 192.063C258.275 192.389 257.531 192.679 256.646 192.784C256.875 191.892 257.248 191.185 257.647 190.515C258.047 189.844 258.469 189.21 258.979 188.67L261.011 190.921Z" fill="#302839"/>
<path d="M54.7276 197.06L23.5587 206.488L22.8642 206.699C22.8642 206.699 12.7375 203.405 12.1076 197.886C12.1076 197.886 6.55716 198.029 1.51758 192.198L6.48009 185.291L7.64746 183.654L7.66649 183.633L30.6238 151.656L65.1122 150.588C65.1122 150.588 65.743 152.155 68.4421 154.545C68.7123 154.782 68.9986 155.021 69.3098 155.281L54.7276 197.06Z" fill="#E05656"/>
<g opacity="0.3">
<path opacity="0.3" d="M54.7276 197.059L22.8642 206.695C22.8642 206.695 12.7375 203.4 12.1076 197.882C12.1076 197.882 6.55716 198.025 1.51758 192.194L6.48009 185.287C6.6228 185.524 10.2857 191.549 17.2852 188.855C17.2852 188.855 17.6771 196.411 26.059 199.195L35.965 196.845C40.6445 195.736 45.0065 193.566 48.7146 190.504C52.4227 187.441 55.3777 183.568 57.3516 179.183L68.443 154.548C68.7132 154.785 68.9996 155.024 69.3107 155.283L54.7276 197.059Z" fill="#302839"/>
</g>
<g opacity="0.3">
<path opacity="0.3" d="M30.624 151.661C30.624 151.661 35.2973 157.625 43.0874 161.309L69.3138 155.282C69.3138 155.282 67.8048 153.855 65.1171 150.592L30.624 151.661Z" fill="#302839"/>
</g>
<g opacity="0.5">
<path opacity="0.5" d="M68.1561 158.334L55.217 161.749C52.1011 162.571 49.1892 164.029 46.6646 166.032C44.14 168.034 42.0575 170.538 40.5483 173.385L23.3546 205.816L42.0335 164C42.0335 164 37.8225 162.818 34.3157 160.423C31.686 158.629 28.1316 159.075 26.0965 161.52L7.66309 183.636L30.6204 151.658C30.6204 151.658 35.6629 158.173 43.0838 161.311L69.314 155.283L68.1561 158.334Z" fill="#F6F4F9"/>
</g>
<path d="M22.8612 208.212C22.7019 208.212 22.5436 208.187 22.3922 208.137C21.338 207.795 12.6346 204.808 10.8726 199.303C8.76336 199.012 4.39547 197.84 0.369135 193.182C0.146395 192.925 0.0169052 192.6 0.0015435 192.259C-0.0138182 191.919 0.0858449 191.584 0.284461 191.307L29.3974 150.777C29.5335 150.589 29.711 150.434 29.9164 150.324C30.1217 150.215 30.3494 150.154 30.5819 150.147L65.0702 149.078C65.3807 149.07 65.6863 149.156 65.9462 149.326C66.206 149.496 66.4076 149.742 66.524 150.03C66.524 150.03 67.2803 151.674 70.2715 154.109C70.5135 154.306 70.689 154.572 70.7741 154.872C70.8592 155.172 70.8498 155.49 70.7472 155.785L56.1622 197.564C56.0838 197.789 55.9531 197.993 55.7808 198.158C55.6085 198.324 55.3995 198.446 55.1709 198.515L23.2998 208.147C23.1577 208.19 23.0098 208.212 22.8612 208.212ZM12.099 196.365C12.4725 196.365 12.8332 196.501 13.1128 196.749C13.3924 196.997 13.5716 197.338 13.6165 197.709C14.017 201.235 20.0755 204.1 22.8898 205.103L53.5497 195.832L67.5353 155.767C65.7686 154.218 64.7762 152.95 64.2463 152.135L31.4229 153.152L3.4669 192.073C7.67876 196.364 11.8878 196.37 12.08 196.365H12.099Z" fill="#302839"/>
<path d="M43.2197 162.881C42.9759 162.881 42.7357 162.823 42.5194 162.71C33.4992 158.011 29.5689 152.782 29.4062 152.562L31.8418 150.754C31.877 150.801 35.4258 155.478 43.4271 159.758L68.9665 153.802L69.6553 156.752L43.5641 162.835C43.4514 162.864 43.3359 162.879 43.2197 162.881Z" fill="#302839"/>
<path d="M41.834 160.767L21.4717 206.097L24.2375 207.339L44.5998 162.01L41.834 160.767Z" fill="#302839"/>
<g opacity="0.3">
<path opacity="0.3" d="M32.0112 164.85C31.0255 167.295 29.8696 169.649 28.6527 171.97C27.4359 174.29 26.1324 176.562 24.7757 178.803C23.419 181.043 21.9682 183.229 20.4373 185.359C18.9065 187.489 17.273 189.553 15.4463 191.46C16.6765 189.126 17.9723 186.863 19.2976 184.616C20.6229 182.369 21.9472 180.124 23.3344 177.917C24.7215 175.71 26.0934 173.49 27.5348 171.312C28.9762 169.133 30.4318 166.96 32.0112 164.85Z" fill="#302839"/>
</g>
<path d="M54.2237 165.252C54.6952 164.467 54.4405 163.447 53.6548 162.976C52.869 162.504 51.8498 162.759 51.3782 163.545C50.9067 164.33 51.1614 165.35 51.9471 165.821C52.7328 166.293 53.7521 166.038 54.2237 165.252Z" fill="#302839"/>
<path d="M62.12 163.212C62.0231 163.436 61.862 163.627 61.6571 163.759C61.4522 163.892 61.2125 163.961 60.9684 163.958C60.7243 163.955 60.4866 163.879 60.2853 163.741C60.084 163.603 59.928 163.408 59.8371 163.182C59.7461 162.955 59.7243 162.707 59.7742 162.468C59.8242 162.229 59.9438 162.01 60.1179 161.839C60.2921 161.668 60.5129 161.552 60.7527 161.506C60.9925 161.461 61.2405 161.487 61.4655 161.582C61.616 161.645 61.7525 161.738 61.867 161.854C61.9815 161.971 62.0718 162.109 62.1327 162.26C62.1935 162.412 62.2238 162.574 62.2216 162.738C62.2194 162.901 62.1849 163.062 62.12 163.212Z" fill="#302839"/>
<path d="M64.7868 128.843L52.1611 164.163L53.4297 164.617L66.0554 129.296L64.7868 128.843Z" fill="#302839"/>
<path d="M64.8147 131.247L60.3086 162.633L61.6421 162.825L66.1482 131.438L64.8147 131.247Z" fill="#302839"/>
<path d="M64.7407 129.104L45.7119 150.719L46.7231 151.609L65.7518 129.995L64.7407 129.104Z" fill="#302839"/>
<path d="M64.3625 130.036L55.2354 150.603L56.4667 151.149L65.5938 130.582L64.3625 130.036Z" fill="#302839"/>
<path d="M83.1687 196.144L58.1877 217.031L57.6311 217.498C57.6311 217.498 47.0239 218.437 44.281 213.606C44.281 213.606 39.231 215.914 32.3086 212.524L34.1676 204.224L34.6024 202.267L34.6119 202.241L43.1993 163.824L74.51 149.325C74.51 149.325 75.704 150.519 79.1243 151.659C79.4658 151.771 79.8245 151.883 80.2108 151.995L83.1687 196.144Z" fill="#94C5E9"/>
<g opacity="0.3">
<path opacity="0.3" d="M83.1687 196.144L57.6311 217.498C57.6311 217.498 47.0239 218.436 44.281 213.606C44.281 213.606 39.231 215.914 32.3086 212.524L34.1676 204.224C34.3922 204.386 40.1244 208.493 45.5065 203.273C45.5065 203.273 48.8288 210.069 57.6311 209.346L65.8237 203.301C69.6931 200.446 72.855 196.74 75.0655 192.469C77.2759 188.199 78.4757 183.477 78.5724 178.669L79.1204 151.658C79.462 151.77 79.8207 151.883 80.207 151.995L83.1687 196.144Z" fill="#302839"/>
</g>
<g opacity="0.3">
<path opacity="0.3" d="M43.2002 163.825C43.2002 163.825 49.8381 167.48 58.4464 167.821L80.2107 151.997C80.2107 151.997 78.2622 151.276 74.5108 149.333L43.2002 163.825Z" fill="#302839"/>
</g>
<g opacity="0.5">
<path opacity="0.5" d="M80.3451 155.255L69.777 163.468C67.2322 165.446 65.1246 167.93 63.5871 170.763C62.0495 173.595 61.1153 176.716 60.8433 179.927L57.7389 216.5L58.5333 170.708C58.5333 170.708 54.1949 171.271 50.0316 170.444C46.9091 169.823 43.817 171.626 42.896 174.675L34.6074 202.244L43.1948 163.827C43.1948 163.827 50.3864 167.845 58.4439 167.823L80.2062 151.999L80.3451 155.255Z" fill="#F6F4F9"/>
</g>
<path d="M55.4004 219.103C52.1342 219.103 46.4715 218.603 43.6982 215.393C41.6441 215.952 37.1668 216.589 31.6363 213.88C31.3303 213.73 31.0838 213.482 30.9364 213.175C30.789 212.868 30.7493 212.52 30.8238 212.188L41.724 163.495C41.775 163.268 41.8776 163.055 42.0237 162.874C42.1699 162.692 42.3557 162.547 42.5669 162.448L73.8776 147.947C74.1597 147.816 74.4753 147.775 74.7817 147.829C75.088 147.883 75.3703 148.03 75.5901 148.251C75.5901 148.251 76.9306 149.467 80.6325 150.534C80.9316 150.621 81.1967 150.798 81.3922 151.04C81.5876 151.282 81.7041 151.579 81.7257 151.89L84.6827 196.041C84.6991 196.28 84.6588 196.519 84.565 196.739C84.4712 196.958 84.3267 197.153 84.1432 197.306L58.6019 218.666C58.3644 218.864 58.0719 218.985 57.7637 219.012C57.4678 219.037 56.5935 219.103 55.4004 219.103ZM44.2776 212.092C44.5458 212.091 44.8095 212.16 45.0421 212.294C45.2747 212.428 45.4678 212.62 45.6019 212.853C47.3439 215.925 54.1645 216.183 57.0321 216.02L81.6049 195.47L78.7678 153.132C76.5349 152.4 75.1258 151.622 74.319 151.08L44.5173 164.887L34.0519 211.649C39.6071 213.947 43.4841 212.297 43.661 212.22C43.8553 212.134 44.0653 212.091 44.2776 212.092Z" fill="#302839"/>
<path d="M58.5912 169.334C58.5522 169.334 58.5132 169.334 58.4742 169.329C48.3332 168.541 42.6686 165.271 42.4326 165.133L43.9663 162.517C44.0177 162.547 49.1143 165.458 58.1526 166.26L79.3156 150.771L81.1062 153.217L59.4865 169.041C59.227 169.231 58.9133 169.334 58.5912 169.334Z" fill="#302839"/>
<path d="M57.0818 167.806L56.1191 217.489L59.1507 217.548L60.1133 167.865L57.0818 167.806Z" fill="#302839"/>
<g opacity="0.3">
<path opacity="0.3" d="M49.6453 175.416C49.6976 178.052 49.5558 180.671 49.3465 183.283C49.1372 185.894 48.828 188.495 48.4579 191.084C48.0878 193.673 47.6102 196.256 47.0365 198.816C46.4628 201.376 45.7683 203.919 44.8359 206.392C45.0519 203.762 45.3583 201.172 45.6922 198.585C46.0261 195.998 46.3686 193.414 46.7797 190.841C47.1907 188.267 47.5826 185.687 48.0555 183.117C48.5283 180.547 49.0202 177.976 49.6453 175.416Z" fill="#302839"/>
</g>
<path d="M68.5948 168.514C69.5112 168.514 70.254 167.771 70.254 166.855C70.254 165.939 69.5112 165.196 68.5948 165.196C67.6784 165.196 66.9355 165.939 66.9355 166.855C66.9355 167.771 67.6784 168.514 68.5948 168.514Z" fill="#302839"/>
<path d="M75.9375 163.254C76.5706 162.991 76.8712 162.266 76.609 161.633C76.3467 161 75.621 160.699 74.988 160.961C74.355 161.223 74.0544 161.949 74.3166 162.582C74.5788 163.215 75.3045 163.516 75.9375 163.254Z" fill="#302839"/>
<path d="M67.0362 129.37L65.6914 129.45L67.9291 166.893L69.2738 166.813L67.0362 129.37Z" fill="#302839"/>
<path d="M68.8478 131.813L67.541 132.163L75.7854 162.921L77.0922 162.571L68.8478 131.813Z" fill="#302839"/>
<path d="M65.751 129.732L56.709 157.072L57.9871 157.495L67.0292 130.154L65.751 129.732Z" fill="#302839"/>
<path d="M65.7684 130.708L65.4268 153.207L66.7728 153.227L67.1145 130.728L65.7684 130.708Z" fill="#302839"/>
<path d="M196.446 6.91685L182.436 45.0348C180.194 42.8599 177.775 40.8739 175.206 39.0971C159.805 28.4652 145.422 30.2319 145.422 30.2319C152.884 20.3611 164.706 11.7633 164.706 11.7633C184.952 -1.90646 192.375 1.02957 195.029 4.12829C196.208 5.50497 196.446 6.91685 196.446 6.91685Z" fill="#A38DBF"/>
<g opacity="0.3">
<path opacity="0.3" d="M161.924 19.9178C159.118 22.5817 160.015 27.196 163.573 28.7173C171.555 32.1309 175.194 39.021 175.194 39.021L175.208 39.0971C159.808 28.4652 145.425 30.2319 145.425 30.2319C152.887 20.3611 164.709 11.7633 164.709 11.7633C184.955 -1.90646 192.377 1.02957 195.032 4.12829C183.007 2.18647 169.687 12.5368 161.924 19.9178Z" fill="#302839"/>
</g>
<path d="M182.436 46.5456C182.043 46.5455 181.666 46.3926 181.383 46.1194C164.341 29.6487 145.795 31.7085 145.61 31.7304C145.315 31.7664 145.015 31.7147 144.749 31.5816C144.483 31.4485 144.261 31.24 144.113 30.982C143.964 30.724 143.895 30.428 143.913 30.1308C143.932 29.8337 144.037 29.5485 144.217 29.3109C151.733 19.3783 163.331 10.888 163.821 10.5312L163.865 10.5017C177.185 1.5081 187.006 -1.73238 193.073 0.870658C197.229 2.65549 197.917 6.50201 197.943 6.6647C197.987 6.92442 197.962 7.1911 197.871 7.43819L183.861 45.5523C183.773 45.7886 183.628 45.9993 183.439 46.1655C183.249 46.3316 183.022 46.4478 182.776 46.5037C182.665 46.5309 182.551 46.545 182.436 46.5456ZM148.681 28.5926C154.893 28.6992 168.527 30.4593 181.801 42.3651L194.862 6.835C194.63 6.12335 193.891 4.49645 191.817 3.63163C188.963 2.44143 181.767 2.07799 165.589 12.9982C165.086 13.3635 155.709 20.2983 148.678 28.5926H148.681Z" fill="#302839"/>
<path d="M200.387 61.5968C199.635 63.9334 198.756 66.3259 197.75 68.7741L175.194 39.0162C175.194 39.0162 176.496 17.4954 190.563 6.24511C192.58 4.62772 195.58 5.2509 196.851 7.50382C197.382 8.4438 197.962 9.55218 198.557 10.8195H198.563C202.902 20.0452 208.054 37.7594 200.387 61.5968Z" fill="#EC9A9A"/>
<g opacity="0.3">
<path opacity="0.3" d="M198.557 10.8199C198.376 10.6477 193.563 6.22277 189.072 13.3383C186.767 16.9888 185.574 19.0657 184.957 20.2284C184.896 20.3444 184.871 20.4759 184.886 20.6061C184.9 20.7363 184.953 20.8592 185.038 20.9591C185.122 21.059 185.235 21.1313 185.361 21.1667C185.487 21.2021 185.621 21.199 185.746 21.1579L188.255 20.334C188.892 20.1256 189.585 20.175 190.185 20.4717C190.786 20.7684 191.246 21.2887 191.467 21.9209C192.355 24.4345 193.333 28.9613 192.262 35.3024C192.037 36.5649 192.307 37.8654 193.014 38.9348C194.32 40.8662 196.059 44.6632 194.673 49.9882C194.392 51.0741 194.493 52.2234 194.958 53.2439C195.875 55.2723 197.663 58.6812 200.39 61.5972C199.639 63.9339 198.76 66.3264 197.754 68.7746L175.198 39.0167C175.198 39.0167 176.5 17.4959 190.567 6.2456C192.584 4.62821 195.584 5.25138 196.855 7.5043C197.382 8.44429 197.962 9.55267 198.557 10.8199Z" fill="#EC9A9A"/>
</g>
<path d="M197.754 70.2919C197.52 70.2914 197.289 70.237 197.079 70.1329C196.87 70.0288 196.687 69.8778 196.545 69.6916L173.986 39.9307C173.767 39.6419 173.659 39.2847 173.68 38.9232C173.736 38.0165 175.189 16.5976 189.615 5.06184C190.258 4.54837 191.006 4.18104 191.805 3.98537C192.604 3.7897 193.436 3.77036 194.244 3.92872C195.065 4.08719 195.842 4.42254 196.521 4.91148C197.2 5.40041 197.764 6.03122 198.174 6.76009C202.825 15.0107 212.231 37.6255 199.155 69.3538C199.053 69.6006 198.888 69.8162 198.676 69.9786C198.465 70.141 198.214 70.2445 197.949 70.2786C197.884 70.2877 197.819 70.2922 197.754 70.2919ZM176.753 38.5655L197.335 65.7176C208.435 36.5304 199.844 15.9012 195.527 8.25284C195.333 7.90638 195.066 7.60641 194.744 7.37376C194.421 7.14111 194.053 6.98138 193.663 6.90565C193.287 6.82872 192.898 6.83583 192.526 6.92645C192.153 7.01708 191.805 7.18898 191.506 7.42988C179.362 17.1418 177.078 35.2013 176.753 38.5655Z" fill="#302839"/>
<path d="M177.096 28.5935L187.011 25.333C187.011 25.333 189.537 32.694 186.387 37.5966C186.387 37.5966 196.315 47.0516 186.472 53.8932L175.193 39.0142C175.193 39.0142 175.798 32.7292 177.096 28.5935Z" fill="#A38DBF"/>
<path d="M186.473 55.4048C186.239 55.4053 186.008 55.3515 185.798 55.2474C185.588 55.1434 185.406 54.9921 185.264 54.8054L173.985 39.9265C173.756 39.6231 173.648 39.2444 173.685 38.8656C173.71 38.6021 174.319 32.3742 175.649 28.1357C175.722 27.9059 175.848 27.6966 176.017 27.5252C176.186 27.3538 176.394 27.2252 176.623 27.1501L186.537 23.8887C186.916 23.7636 187.33 23.7934 187.687 23.9716C188.044 24.1498 188.317 24.462 188.445 24.8401C188.55 25.1483 190.851 32.0117 188.255 37.3653C189.735 39.0521 192.657 42.9785 192.318 47.3797C192.086 50.3928 190.415 53.0035 187.341 55.1375C187.086 55.3135 186.783 55.4068 186.473 55.4048ZM176.769 38.5735L186.759 51.7495C188.312 50.3766 189.163 48.8363 189.295 47.1552C189.634 42.8558 185.388 38.7296 185.345 38.6877C185.092 38.4439 184.93 38.1198 184.889 37.7705C184.847 37.4211 184.928 37.0682 185.117 36.7716C187.056 33.7556 186.469 29.48 185.973 27.268L178.333 29.7807C177.448 32.9441 176.934 37.0703 176.765 38.5774L176.769 38.5735Z" fill="#302839"/>
<path d="M130.509 36.3029C130.509 36.3029 116.075 37.5997 103.252 51.2314C102.361 52.1751 101.482 53.1741 100.619 54.2444C99.5354 55.5764 98.4679 57.013 97.4366 58.5572L75.7266 24.2391C75.7266 24.2391 75.7266 24.1896 75.7266 24.0983C75.7684 23.0875 76.0411 22.0998 76.5238 21.2108C78.4685 17.624 85.1074 13.1962 107.773 22.3011C107.771 22.3011 121.138 28.2226 130.509 36.3029Z" fill="#A38DBF"/>
<g opacity="0.3">
<path opacity="0.3" d="M130.509 36.3029C130.509 36.3029 116.075 37.5997 103.252 51.2314C102.361 52.1751 101.482 53.1741 100.619 54.2444C99.9679 53.4675 99.5617 52.515 99.4517 51.5073C98.5869 44.3442 104.654 38.2438 109.03 34.8387C109.485 34.4867 109.847 34.0292 110.085 33.5058C110.323 32.9824 110.429 32.4089 110.396 31.835C110.362 31.261 110.189 30.7039 109.892 30.2119C109.594 29.7199 109.181 29.3078 108.689 29.0113C82.7089 13.3313 75.7266 24.2391 75.7266 24.2391C75.7266 24.2391 75.7266 24.1896 75.7266 24.0983C75.7684 23.0875 76.0411 22.0998 76.5238 21.2108C78.4685 17.624 85.1074 13.1962 107.773 22.3011C107.771 22.3011 121.138 28.2226 130.509 36.3029Z" fill="#302839"/>
</g>
<path d="M97.4379 60.0719H97.418C97.1655 60.0686 96.9179 60.0023 96.6976 59.8791C96.4773 59.7558 96.2912 59.5794 96.1564 59.366L74.4463 25.0489C74.306 24.8264 74.2257 24.5714 74.2132 24.3087C74.2056 24.1432 74.0696 20.2386 77.7572 17.6203C83.1364 13.8005 93.4249 14.9022 108.335 20.896L108.385 20.916C108.938 21.1615 122.067 27.023 131.498 35.1547C131.724 35.3492 131.887 35.6059 131.968 35.8929C132.049 36.1798 132.043 36.4841 131.952 36.7678C131.86 37.0515 131.687 37.302 131.454 37.4879C131.221 37.6737 130.939 37.7868 130.642 37.8129C130.458 37.83 111.85 39.7785 98.6938 59.4002C98.5555 59.6065 98.3687 59.7757 98.1497 59.8928C97.9307 60.0099 97.6863 60.0714 97.4379 60.0719ZM77.2615 23.8235L97.4998 55.8144C107.973 41.3835 120.932 36.7968 126.985 35.3868C118.366 28.7527 107.742 23.9472 107.178 23.6941C89.0684 16.4206 82.1051 18.2882 79.5668 20.0502C77.7192 21.3365 77.3386 23.0833 77.2615 23.8273V23.8235Z" fill="#302839"/>
<path d="M83.3688 78.524C84.5942 80.6507 85.9579 82.805 87.4599 84.9869L103.253 51.1522C103.253 51.1522 97.4572 30.3859 81.3385 22.3437C79.0276 21.1878 76.2247 22.4265 75.456 24.8963C75.1344 25.9267 74.8005 27.1331 74.4856 28.4964V28.5021C72.1746 38.4319 70.8626 56.8321 83.3688 78.524Z" fill="#EC9A9A"/>
<g opacity="0.3">
<path opacity="0.3" d="M74.4834 28.4994C74.6242 28.2929 78.3994 22.9556 84.2828 28.9675C87.3035 32.0529 88.9067 33.832 89.7544 34.8386C89.838 34.9389 89.8898 35.0618 89.9033 35.1917C89.9168 35.3216 89.8913 35.4525 89.83 35.5679C89.7688 35.6832 89.6746 35.7777 89.5595 35.8393C89.4443 35.9009 89.3134 35.9268 89.1835 35.9137L86.5557 35.6359C85.8898 35.5662 85.2231 35.7602 84.6986 36.1764C84.1741 36.5926 83.8335 37.1978 83.7501 37.8621C83.4104 40.5061 83.4076 45.1413 85.7861 51.1114C86.2712 52.2987 86.2814 53.6272 85.8146 54.8218C84.9431 56.9844 83.5541 60.006 86.0315 64.92C86.5358 65.9209 85.8764 67.7914 85.6395 68.8864C85.1696 71.0613 84.8442 74.6519 83.3705 78.5279C84.5959 80.6546 85.9595 82.8089 87.4615 84.9908L103.255 51.1561C103.255 51.1561 97.4588 30.3898 81.3402 22.3476C79.0292 21.1917 76.2264 22.4304 75.4576 24.9002C75.1323 25.9297 74.7983 27.136 74.4834 28.4994Z" fill="#EC9A9A"/>
</g>
<path d="M87.4521 86.5074C87.2064 86.5076 86.9644 86.4478 86.7469 86.3335C86.5294 86.2191 86.3431 86.0535 86.2039 85.851C66.7506 57.582 71.1927 33.4943 74.005 24.4494C74.2531 23.6506 74.672 22.9155 75.2328 22.2949C75.7935 21.6744 76.4826 21.1834 77.2522 20.8559C78.0084 20.5316 78.8262 20.3756 79.6487 20.3987C80.4713 20.4219 81.279 20.6237 82.0158 20.9901C98.5445 29.2359 104.469 49.8708 104.712 50.7452C104.808 51.0932 104.778 51.4644 104.625 51.7917L88.826 85.6302C88.7129 85.8723 88.538 86.0802 88.3188 86.2329C88.0996 86.3856 87.8439 86.4777 87.5777 86.4998C87.5359 86.5055 87.494 86.5074 87.4521 86.5074ZM79.4946 23.4295C79.1327 23.4305 78.7747 23.5049 78.4424 23.6483C78.077 23.8038 77.7498 24.0369 77.4835 24.3315C77.2172 24.626 77.0181 24.975 76.9001 25.3541C74.2933 33.7398 70.2308 55.7143 87.2171 81.915L101.632 51.043C100.608 47.8253 94.5781 30.6496 80.662 23.7073C80.3 23.5241 79.9003 23.4277 79.4946 23.4256V23.4295Z" fill="#302839"/>
<path d="M99.2009 41.3654L88.823 40.2617C88.823 40.2617 87.9001 47.989 92.0111 52.12C92.0111 52.12 84.2914 63.4512 95.3525 68.0703L103.249 51.1534C103.249 51.1534 101.34 45.1358 99.2009 41.3654Z" fill="#A38DBF"/>
<path d="M95.352 69.5869C95.1514 69.5871 94.9528 69.5473 94.7678 69.4699C91.318 68.0294 89.1327 65.8298 88.2726 62.9318C87.0158 58.7 89.047 54.2474 90.1392 52.2866C86.4716 47.6 87.2784 40.4055 87.3174 40.082C87.3638 39.6855 87.5646 39.3234 87.8763 39.074C88.188 38.8247 88.5854 38.7083 88.9823 38.75L99.3612 39.8537C99.6008 39.8792 99.8309 39.9616 100.032 40.094C100.234 40.2263 100.401 40.4049 100.519 40.6148C102.707 44.4784 104.616 50.439 104.696 50.6911C104.811 51.0539 104.786 51.447 104.624 51.7919L96.7277 68.7097C96.6059 68.9719 96.4117 69.1938 96.168 69.3492C95.9242 69.5046 95.6411 69.5871 95.352 69.5869ZM90.2525 41.9382C90.2306 44.2044 90.556 48.5086 93.0848 51.0507C93.3335 51.3004 93.4874 51.6291 93.5199 51.9801C93.5524 52.3311 93.4614 52.6824 93.2627 52.9735C93.2313 53.0211 89.9471 57.9465 91.182 62.0794C91.6643 63.6968 92.8212 65.0221 94.628 66.0382L101.624 51.0564C101.141 49.6189 99.7722 45.6934 98.25 42.7887L90.2525 41.9382Z" fill="#302839"/>
<path d="M202.823 91.5468C202.823 91.5468 205.035 93.8721 208.491 95.5237C210.33 96.4057 210.965 98.7157 209.787 100.376C205.601 106.325 196.168 117.837 184.399 120.285C184.299 120.309 184.194 120.329 184.09 120.35C184.09 120.35 144.954 152.933 105.368 126.914C105.368 126.914 93.8303 126.281 85.0735 114.403C84.7963 114.026 84.618 113.585 84.5546 113.12C84.4913 112.656 84.5451 112.183 84.7111 111.745C84.8959 111.23 85.2297 110.782 85.6701 110.457C86.6294 109.745 87.6916 109.183 88.8202 108.79C88.8202 108.79 85.5416 107.437 82.4876 102.534C82.1348 101.964 81.9966 101.287 82.0977 100.624C82.1988 99.9618 82.5327 99.357 83.0394 98.9183C84.1916 97.9279 85.6006 96.418 86.3323 94.5048C86.6763 93.6189 86.8421 92.6739 86.8203 91.7238C86.8032 91.0122 86.7366 89.5356 86.7632 87.4853C86.7728 86.7128 86.7965 85.8679 86.8413 84.9375C86.9221 83.2364 87.0686 81.2907 87.336 79.1701C88.7973 67.4031 93.7931 50.196 110.139 38.5214C110.547 38.2283 110.963 37.941 111.383 37.6575C115.6 34.8167 120.184 32.5628 125.009 30.9577C125.383 30.8321 125.761 30.7104 126.136 30.5924C131.96 28.7911 138.036 27.9427 144.131 28.0797C144.863 28.094 145.595 28.1273 146.326 28.1749C149.578 28.3763 152.807 28.8605 155.976 29.622C156.942 29.8522 157.924 30.1119 158.915 30.4088C162.638 31.4969 166.242 32.9597 169.67 34.7748C179.133 39.7944 188.618 48.3189 195.667 62.6166C196.476 64.2524 197.249 65.9649 197.987 67.7542C197.987 67.7542 198.064 68.1728 198.262 68.8626C198.402 69.3573 198.601 69.99 198.874 70.7092C199.817 73.1762 201.633 76.6488 204.896 78.9722C205.588 79.469 206.327 79.8952 207.104 80.2442C207.826 80.5672 208.406 81.141 208.737 81.8591C209.068 82.5773 209.128 83.3911 208.904 84.1497C208.092 86.8755 206.355 90.5707 202.823 91.5468Z" fill="#A38DBF"/>
<path d="M186.623 117.513L184.399 120.291C184.299 120.314 184.195 120.334 184.09 120.355C184.09 120.355 144.954 152.939 105.368 126.92C105.368 126.92 107.429 109.654 121.617 104.096C122.337 103.82 123 103.415 123.575 102.903C125.942 100.766 133.766 95.1964 147.095 99.9363C148.109 100.302 149.199 100.405 150.264 100.235C155.972 99.2998 175.815 97.6795 186.623 117.513Z" fill="#F6F4F9"/>
<path d="M116.702 77.2932C117.36 78.9867 115.45 80.5089 113.923 79.5233C112.7 78.7326 111.227 78.0638 109.557 77.8298C105.236 77.2228 113.421 68.8438 116.702 77.2932Z" fill="#F6F4F9"/>
<path d="M151.585 73.5628C151.253 75.0422 153.032 76.0364 154.153 75.0213C155.721 73.5942 157.943 72.2622 160.993 71.7798C167.837 70.6867 154.778 59.306 151.585 73.5628Z" fill="#F6F4F9"/>
<g opacity="0.3">
<path opacity="0.3" d="M100.527 84.0215C100.527 84.0215 105.539 86.0851 111.812 92.6859C111.91 92.7899 111.985 92.9139 112.031 93.0493C112.077 93.1847 112.093 93.3284 112.078 93.4706C112.064 93.6129 112.019 93.7504 111.946 93.8737C111.874 93.997 111.776 94.1033 111.659 94.1853C110.726 94.8418 109.375 95.9597 108.819 97.2545C108.819 97.2545 114.385 95.1462 119.359 96.2451C119.358 96.2451 113.901 87.2772 100.527 84.0215Z" fill="#302839"/>
</g>
<g opacity="0.3">
<path opacity="0.3" d="M172.65 75.2891C172.65 75.2891 164.891 79.6655 158.559 85.8715C157.912 86.5061 158.376 87.6154 159.282 87.5926C161.596 87.5336 165.091 87.8276 168.294 89.6248C168.294 89.6248 158.528 89.9721 150.449 92.4676C150.449 92.4647 156.116 78.9995 172.65 75.2891Z" fill="#302839"/>
</g>
<path d="M144.131 28.0846C144.036 28.2216 143.94 28.3548 143.845 28.5051C143.695 28.7738 143.528 29.0325 143.344 29.2796C142.678 30.3984 141.846 31.5829 141.083 33.0071C140.893 33.3592 140.683 33.7083 140.47 34.0623C140.356 34.2383 140.257 34.4239 140.175 34.6169L139.902 35.2001C139.545 35.9841 139.117 36.7376 138.829 37.6015C138.51 38.4454 138.169 39.2921 137.855 40.1703L137.042 42.8875L136.832 43.5772C136.753 43.8068 136.689 44.0414 136.641 44.2794L136.313 45.7065L135.637 48.6064C135.477 49.5911 135.303 50.5853 135.126 51.588L134.854 53.0951L134.717 53.8562L134.622 54.6173L134.228 57.7075L134.004 59.2697L133.893 60.0574L133.823 60.8414C133.758 61.5901 133.687 62.3389 133.614 63.0924C133.488 64.3292 131.817 64.6147 131.288 63.4949C130.956 62.7972 130.631 62.0922 130.312 61.3799C129.44 59.3819 128.718 57.3231 127.971 55.249L127.697 54.4651L127.468 53.6716L127.026 52.0723C126.73 51.0048 126.438 49.925 126.163 48.8375C125.934 47.7387 125.732 46.6255 125.532 45.5076C125.332 44.3897 125.104 43.2652 125.037 42.1083L124.727 38.6223C124.695 37.4388 124.711 36.2438 124.714 35.0355V34.126C124.714 33.8244 124.762 33.5171 124.782 33.2088L124.92 31.8217L124.964 31.3584L125.004 30.9645C125.378 30.8389 125.756 30.7171 126.131 30.5992C131.956 28.7968 138.035 27.9476 144.131 28.0846Z" fill="#5F5173"/>
<path d="M124.924 31.8196C124.752 31.9433 124.572 32.0651 124.387 32.1745C124.474 32.1408 124.558 32.1014 124.64 32.0565L124.672 32.0756C124.693 32.0879 124.712 32.0898 124.726 32.0994C124.715 32.1579 124.697 32.215 124.673 32.2697L124.625 32.3715L124.566 32.4818C124.543 32.5151 124.524 32.5513 124.501 32.5846C124.473 32.6209 124.448 32.6597 124.428 32.7006C124.329 32.8747 124.22 33.0433 124.103 33.2058C123.99 33.4008 123.867 33.5891 123.732 33.77C123.247 34.5882 122.641 35.4511 122.087 36.492C121.942 36.746 121.794 37.0048 121.637 37.2598C121.555 37.3896 121.483 37.5261 121.423 37.6679L121.222 38.0884C120.964 38.6593 120.652 39.2111 120.438 39.8447C120.207 40.4603 119.962 41.0816 119.729 41.7171L119.132 43.7017L118.983 44.2041C118.926 44.3705 118.88 44.5405 118.846 44.7131L118.606 45.7596L118.112 47.8727C117.997 48.5929 117.867 49.3188 117.737 50.0485L117.547 51.1493L117.443 51.7078L117.377 52.2653L117.091 54.5182L116.932 55.6599L116.848 56.2307L116.798 56.8016C116.75 57.3458 116.697 57.8928 116.641 58.4427C116.552 59.3428 115.333 59.5549 114.948 58.7386C114.706 58.2258 114.472 57.7083 114.231 57.1917C113.597 55.737 113.072 54.2356 112.526 52.7201L112.328 52.1492L112.158 51.566L111.834 50.4024C111.621 49.6194 111.408 48.8317 111.205 48.0392C111.04 47.2381 110.892 46.4275 110.748 45.6093C110.603 44.7911 110.435 43.9748 110.383 43.1299L110.156 40.584C110.139 39.9066 110.143 39.2149 110.147 38.5232C110.555 38.2302 110.971 37.9429 111.391 37.6594C115.608 34.8186 120.192 32.5646 125.017 30.9596C125.391 30.834 125.769 30.7122 126.144 30.5942C125.8 31.0604 125.389 31.4733 124.924 31.8196Z" fill="#5F5173"/>
<path d="M158.914 30.4072C158.472 30.8829 158 31.3995 157.536 31.9818C157.349 32.2114 157.155 32.4372 156.954 32.6592C156.849 32.7727 156.754 32.8942 156.668 33.0226L156.397 33.4032C156.039 33.9198 155.636 34.4041 155.309 34.9854C154.973 35.5486 154.613 36.1156 154.275 36.6979L153.333 38.5446L153.093 39.0127C153.007 39.1665 152.931 39.3254 152.864 39.4884L152.444 40.4712L151.577 42.4615C151.332 43.1475 151.076 43.8391 150.816 44.5346L150.427 45.5812L150.228 46.1092L150.06 46.6448L149.371 48.8121L149.006 49.9024L148.821 50.4552L148.67 51.008C148.524 51.5382 148.374 52.0681 148.221 52.5977C147.97 53.4635 146.732 53.454 146.5 52.5797C146.354 52.0326 146.215 51.4846 146.076 50.9318C145.714 49.3877 145.466 47.8141 145.202 46.2233L145.107 45.6278L145.046 45.0284L144.937 43.8201C144.867 43.0152 144.799 42.2027 144.747 41.3845C144.728 40.5663 144.728 39.7414 144.731 38.9109C144.734 38.0803 144.72 37.244 144.821 36.403L145.056 33.8589C145.19 33.0103 145.361 32.1464 145.52 31.2835L145.64 30.6346C145.682 30.4158 145.756 30.2008 145.814 29.9839L146.183 28.6795L146.327 28.1733C149.579 28.3755 152.808 28.8603 155.975 29.6223C156.938 29.8507 157.924 30.1104 158.914 30.4072Z" fill="#5F5173"/>
<path d="M204.896 78.9697L203.272 78.6119C202.41 78.4299 201.538 78.2529 200.657 78.081C198.898 77.7357 197.104 77.4522 195.287 77.2324C194.373 77.0982 193.459 77.0526 192.528 76.947C191.605 76.8975 190.656 76.7871 189.71 76.7567C187.784 76.5921 185.851 76.6111 183.716 76.4532C184.096 76.0936 184.507 75.7653 184.921 75.4333C185.333 75.1044 185.765 74.801 186.213 74.5247C186.657 74.2494 187.109 73.9811 187.57 73.7198C188.036 73.4686 188.512 73.2622 188.992 73.0367L189.716 72.7161C189.96 72.6143 190.206 72.5353 190.455 72.4402C190.948 72.2623 191.448 72.0986 191.95 71.9274C192.964 71.6638 193.991 71.3794 195.028 71.2043C196.299 70.9636 197.583 70.7996 198.874 70.7134C199.817 73.1737 201.63 76.6463 204.896 78.9697Z" fill="#5F5173"/>
<path d="M198.262 68.8597C197.596 68.757 196.925 68.6695 196.252 68.5876C195.338 68.4535 194.428 68.4069 193.493 68.3022C192.571 68.2537 191.621 68.1395 190.674 68.1043C188.75 67.9435 186.817 67.9635 184.681 67.8018C185.068 67.4421 185.475 67.1139 185.89 66.7819C186.299 66.4522 186.729 66.149 187.177 65.8742C187.625 65.5983 188.077 65.33 188.539 65.0722C189 64.8144 189.48 64.6108 189.956 64.3891L190.681 64.0647C190.925 63.9629 191.174 63.8829 191.418 63.7887C191.912 63.6108 192.416 63.4472 192.919 63.2798C193.822 63.0409 194.738 62.7926 195.667 62.6138C196.476 64.2495 197.249 65.9621 197.987 67.7513C197.987 67.7513 198.064 68.17 198.262 68.8597Z" fill="#5F5173"/>
<path d="M100.368 89.7906C98.333 90.4565 96.4511 90.8942 94.6206 91.5116C93.7092 91.7704 92.813 92.1044 91.9301 92.3679C91.0491 92.6952 90.1728 92.9578 89.3175 93.305C88.3059 93.6856 87.3107 94.0858 86.332 94.5057C86.676 93.6198 86.8419 92.6748 86.8201 91.7248C86.803 91.0131 86.7364 89.5365 86.763 87.4863C87.2197 87.4387 87.6773 87.4063 88.1321 87.3816C89.1786 87.3055 90.2452 87.3331 91.2936 87.3512C91.8226 87.3987 92.3458 87.4349 92.8682 87.4939C93.1317 87.5224 93.3895 87.5414 93.6512 87.589L94.4313 87.7279C94.9508 87.8288 95.4617 87.9182 95.9707 88.0533C96.4797 88.1884 96.9877 88.3463 97.4844 88.5119C97.9865 88.6701 98.4778 88.8608 98.9552 89.0827C99.4357 89.3082 99.9095 89.5327 100.368 89.7906Z" fill="#5F5173"/>
<path d="M97.3738 81.6236C95.3359 82.2896 93.453 82.7272 91.6225 83.3447C90.7101 83.6044 89.8149 83.9412 88.932 84.201C88.226 84.4616 87.5277 84.6833 86.8389 84.9383C86.9197 83.2372 87.0663 81.2916 87.3336 79.1709C87.6542 79.1709 87.9758 79.1814 88.2936 79.189C88.8216 79.2318 89.3496 79.2708 89.8719 79.326C90.1317 79.3602 90.3933 79.3774 90.654 79.4211L91.4341 79.5591C91.9508 79.6647 92.4655 79.7494 92.9745 79.8854C93.4835 80.0215 93.9877 80.1822 94.4843 80.344C94.9858 80.5032 95.4768 80.6939 95.9543 80.9148C96.4376 81.1451 96.9114 81.3667 97.3738 81.6236Z" fill="#5F5173"/>
<g opacity="0.3">
<path opacity="0.3" d="M203.439 91.3425C203.376 91.3665 203.319 91.4062 203.275 91.4579C203.231 91.5096 203.201 91.5716 203.188 91.6381C203.174 91.7047 203.178 91.7735 203.198 91.8383C203.218 91.903 203.255 91.9616 203.304 92.0084C204.855 93.422 206.602 94.6044 208.491 95.5191C210.33 96.4011 210.965 98.7111 209.787 100.371C205.601 106.32 196.167 117.832 184.399 120.28C184.299 120.304 184.194 120.324 184.089 120.345C184.089 120.345 145.011 152.883 105.454 126.965C105.399 126.929 105.336 126.907 105.27 126.901C104.139 126.806 93.3608 125.638 85.0731 114.397C84.6732 113.854 84.4829 113.186 84.5375 112.514C84.5457 112.438 84.5754 112.366 84.6232 112.306C84.6709 112.247 84.7347 112.202 84.807 112.177C84.8794 112.152 84.9573 112.149 85.0315 112.167C85.1058 112.185 85.1734 112.224 85.2263 112.279C87.3888 114.48 91.2201 117.58 96.7383 119.194C96.8067 119.215 96.8795 119.217 96.9492 119.201C97.0189 119.184 97.0829 119.149 97.1347 119.1C97.1865 119.051 97.2242 118.988 97.244 118.92C97.2638 118.851 97.2649 118.778 97.2473 118.709C96.9821 117.657 96.8507 116.576 96.8563 115.491C96.8552 115.412 96.8773 115.335 96.9198 115.268C96.9622 115.202 97.0232 115.149 97.0952 115.117C97.1673 115.084 97.2471 115.074 97.325 115.086C97.4029 115.099 97.4755 115.134 97.5337 115.187C101.113 118.517 119.204 133.685 146.712 128.172C177.542 121.994 211.144 68.8104 172.875 37.5606L172.839 37.5302C172.447 37.2095 172.886 36.6083 173.315 36.8794C181.531 42.0712 189.523 50.1467 195.665 62.6053C196.467 64.2284 197.235 65.928 197.968 67.7039C197.979 67.7283 197.987 67.7539 197.991 67.78C198.015 67.8961 198.096 68.2804 198.26 68.8503C198.399 69.3451 198.598 69.9778 198.871 70.697C199.815 73.164 201.63 76.6366 204.894 78.9599C205.585 79.4568 206.325 79.8829 207.102 80.232C207.824 80.555 208.404 81.1288 208.735 81.8469C209.066 82.5651 209.125 83.3789 208.902 84.1375C208.141 86.712 206.56 90.1313 203.439 91.3425Z" fill="#302839"/>
</g>
<g opacity="0.5">
<path opacity="0.5" d="M158.915 30.4069C157.924 30.1101 156.942 29.8504 155.976 29.6201C152.807 28.8603 149.578 28.3777 146.326 28.1778C145.595 28.1321 144.863 28.0988 144.131 28.0827C138.036 27.9456 131.96 28.7941 126.136 30.5953C125.761 30.7133 125.383 30.8351 125.009 30.9607C120.184 32.5657 115.6 34.8196 111.383 37.6604C110.963 37.9459 110.547 38.2313 110.139 38.5243C93.7931 50.199 88.7973 67.406 87.336 79.173C87.0686 81.2937 86.9221 83.2393 86.8413 84.9404C86.7965 85.8661 86.7728 86.7157 86.7632 87.4882C86.7366 89.5414 86.8032 91.0151 86.8203 91.7267C86.8421 92.6768 86.6763 93.6218 86.3323 94.5077C85.6006 96.421 84.1916 97.9327 83.0394 98.9213C82.5327 99.3599 82.1988 99.9647 82.0977 100.627C81.9966 101.29 82.1348 101.967 82.4876 102.537C85.5416 107.44 88.8202 108.793 88.8202 108.793C88.8202 108.793 89.5195 108.922 86.4645 104.019C85.7357 102.847 85.3228 102.095 86.3694 101.194C87.5206 100.204 88.9305 98.6929 89.6612 96.7796C90.006 95.894 90.1722 94.9489 90.1502 93.9987C90.1331 93.287 90.0656 91.8105 90.0922 89.7611C90.1027 88.9886 90.1255 88.1381 90.1702 87.2123C90.2511 85.5112 90.3986 83.5656 90.6649 81.4449C91.1262 77.6917 91.8898 73.9819 92.9483 70.3516C93.3041 69.1414 94.2727 68.2414 95.4762 67.8646C97.8385 67.1235 101.076 63.8887 103.664 59.4181C106.101 55.2091 107.301 51.0457 106.986 48.5569C106.825 47.281 107.233 45.9985 108.175 45.1223C109.845 43.5674 111.614 42.1227 113.472 40.7972C113.879 40.5032 114.295 40.2169 114.715 39.9333C118.931 37.0939 123.514 34.8412 128.337 33.2374C128.711 33.1118 129.089 32.99 129.465 32.872C135.289 31.0711 141.365 30.2226 147.46 30.3594C148.191 30.3746 148.924 30.4079 149.655 30.4545C152.907 30.6536 156.136 31.1359 159.304 31.8959C160.271 32.1271 161.253 32.3859 162.244 32.6827C167.29 34.1532 172.107 36.3171 176.558 39.1123C171.231 35.2012 165.259 32.2547 158.915 30.4069Z" fill="#F6F4F9"/>
</g>
<path d="M138.298 138.476C127.986 138.476 116.451 135.924 104.857 128.391C102.588 128.152 92.0802 126.46 83.8544 115.3C83.1767 114.374 82.8922 113.218 83.0627 112.083C83.2332 110.948 83.8449 109.926 84.7649 109.24C85.0776 109.008 85.401 108.789 85.7353 108.584C84.4262 107.528 82.7746 105.861 81.2 103.335C80.6612 102.456 80.4515 101.415 80.6083 100.396C80.7651 99.3777 81.2782 98.4477 82.0562 97.7719C83.5785 96.4618 85.3785 94.3563 85.311 91.7666L85.2986 91.3584C85.2035 88.3615 84.918 79.2395 87.9321 68.4687C91.7834 54.7 99.3898 43.9101 110.538 36.3997C123.927 27.3804 140.621 24.3721 156.336 28.1425C169.977 31.4201 188.525 40.8485 199.388 67.1738C199.428 67.2703 199.458 67.3708 199.476 67.4735C199.492 67.5544 201.151 75.8896 207.73 78.8637C208.785 79.3398 209.633 80.1814 210.116 81.2332C210.6 82.2851 210.687 83.4763 210.361 84.5873C209.6 87.1218 208.182 90.192 205.569 91.935C206.68 92.7991 207.879 93.5441 209.146 94.1575C209.781 94.4603 210.342 94.8981 210.791 95.4404C211.239 95.9827 211.564 96.6163 211.742 97.2971C211.918 97.9686 211.945 98.6704 211.822 99.3536C211.698 100.037 211.427 100.685 211.027 101.252C206.383 107.853 196.832 119.228 184.757 121.765C182.956 123.204 173.626 130.323 160.052 134.831C153.977 136.85 146.526 138.476 138.298 138.476ZM142.865 29.5877C131.953 29.5832 121.287 32.8316 112.23 38.9181C90.4619 53.5821 87.9102 78.0112 88.326 91.2671L88.3383 91.6905C88.4335 95.4704 86.055 98.336 84.0304 100.074C83.7974 100.276 83.6438 100.555 83.5971 100.859C83.5504 101.164 83.6136 101.476 83.7754 101.738C86.4964 106.106 89.3716 107.381 89.3992 107.392C89.6831 107.509 89.9249 107.71 90.0925 107.967C90.2602 108.224 90.3457 108.526 90.3379 108.833C90.33 109.14 90.2292 109.438 90.0486 109.686C89.8681 109.935 89.6164 110.122 89.3269 110.225C88.3424 110.568 87.4157 111.059 86.5782 111.68C86.2989 111.886 86.112 112.193 86.0586 112.536C86.0051 112.878 86.0893 113.228 86.2928 113.509C94.4844 124.623 105.343 125.402 105.451 125.408C105.717 125.424 105.974 125.509 106.196 125.655C122.18 136.159 139.944 138.291 158.999 131.991C173.317 127.258 183.025 119.274 183.121 119.194C183.317 119.031 183.552 118.92 183.802 118.871C195.012 116.696 204.116 105.809 208.546 99.5129C208.694 99.3065 208.794 99.0699 208.839 98.8201C208.884 98.5704 208.873 98.3137 208.807 98.0687C208.74 97.8142 208.618 97.5773 208.45 97.3747C208.282 97.1721 208.072 97.0086 207.834 96.8956C204.171 95.1422 201.822 92.699 201.724 92.5953C201.543 92.4054 201.415 92.1722 201.352 91.9182C201.288 91.6641 201.292 91.398 201.362 91.1457C201.432 90.8934 201.566 90.6635 201.751 90.4784C201.936 90.2932 202.166 90.1592 202.418 90.0893C205.237 89.3101 206.714 86.1952 207.456 83.7206C207.573 83.3128 207.539 82.8762 207.36 82.4915C207.181 82.1068 206.868 81.7999 206.481 81.6275C198.919 78.2101 196.814 69.5504 196.528 68.1975C186.145 43.1566 168.557 34.1991 155.622 31.0928C151.444 30.0914 147.162 29.5862 142.865 29.5877Z" fill="#302839"/>
<path d="M104.377 128.066C103.942 127.621 103.536 127.148 103.163 126.651C102.782 126.162 102.434 125.647 102.1 125.12C101.763 124.588 101.461 124.036 101.196 123.465C100.936 122.894 100.692 122.293 100.602 121.665C100.722 121.769 100.838 121.871 100.948 121.973L101.305 122.258C101.542 122.449 101.775 122.625 102.023 122.795C102.509 123.137 102.992 123.474 103.485 123.799L104.945 124.782C105.427 125.104 105.913 125.448 106.358 125.772L104.377 128.066Z" fill="#302839"/>
<path d="M182.992 119.313L185.685 116.5C186.586 115.553 187.48 114.597 188.367 113.633C189.253 112.669 190.124 111.687 190.979 110.689C191.85 109.701 192.721 108.715 193.738 107.778C193.408 109.118 192.851 110.362 192.209 111.546C191.543 112.717 190.852 113.872 190.104 114.988C189.356 116.104 188.582 117.205 187.769 118.275C187.363 118.809 186.947 119.337 186.516 119.854C186.085 120.371 185.66 120.885 185.191 121.398L182.992 119.313Z" fill="#302839"/>
<path d="M201.947 92.7838C201.655 92.5495 201.384 92.2904 201.137 92.0094C200.881 91.7243 200.639 91.4264 200.414 91.1169C199.959 90.4928 199.515 89.8211 199.286 88.9287C199.707 88.9523 200.125 89.0067 200.538 89.0914C200.918 89.1738 201.293 89.2786 201.661 89.4054C202.025 89.5224 202.376 89.6575 202.72 89.8031C203.059 89.9444 203.386 90.1127 203.699 90.3063L201.947 92.7838Z" fill="#302839"/>
<path d="M147.571 111.406C147.265 114.951 145.573 119.913 138.768 121.532C135.354 122.346 132.697 121.594 130.658 120.168C126.142 117.01 124.649 110.559 124.649 110.559C134.323 112.895 133.973 102.313 133.973 102.313C136.375 113.384 147.422 107.588 147.422 107.588C147.638 108.849 147.687 110.132 147.571 111.406Z" fill="#302839"/>
<path d="M147.57 111.407C147.265 114.952 145.572 119.913 138.768 121.532C135.353 122.346 132.697 121.594 130.658 120.168C132.398 116.461 137.178 109.287 147.57 111.407Z" fill="#E05656"/>
<path d="M136.047 123.386C134.025 123.397 132.04 122.834 130.325 121.762C124.97 118.445 123.242 111.214 123.171 110.907C123.113 110.655 123.12 110.393 123.191 110.144C123.263 109.896 123.397 109.67 123.581 109.488C123.764 109.306 123.991 109.174 124.24 109.104C124.49 109.035 124.752 109.03 125.004 109.091C127.27 109.638 129.031 109.417 130.236 108.436C132.532 106.565 132.461 102.407 132.459 102.366C132.448 101.988 132.578 101.62 132.824 101.333C133.069 101.047 133.413 100.862 133.788 100.816C134.163 100.769 134.542 100.864 134.85 101.082C135.159 101.3 135.374 101.626 135.456 101.995C136.018 104.585 137.139 106.292 138.786 107.066C142.088 108.617 146.675 106.272 146.721 106.247C146.93 106.14 147.16 106.082 147.395 106.078C147.629 106.074 147.861 106.124 148.073 106.225C148.285 106.326 148.471 106.474 148.616 106.658C148.761 106.842 148.861 107.058 148.909 107.287C149.814 111.704 148.934 120.673 139.123 123.009C138.116 123.254 137.084 123.381 136.047 123.386ZM126.848 112.411C127.674 114.494 129.267 117.549 131.933 119.191C133.83 120.362 135.95 120.647 138.417 120.06C145.363 118.405 146.189 112.758 146.118 109.769C143.991 110.496 140.535 111.231 137.511 109.817C136.341 109.271 135.324 108.445 134.548 107.413C134.052 108.634 133.298 109.852 132.151 110.786C130.722 111.951 128.945 112.49 126.848 112.411Z" fill="#302839"/>
<path d="M138.54 96.7739L129.001 97.926C128.826 97.9466 128.658 98.0043 128.508 98.0953C128.358 98.1862 128.229 98.3082 128.13 98.4531C128.031 98.5981 127.964 98.7625 127.933 98.9355C127.903 99.1084 127.91 99.2859 127.954 99.4559C128.43 101.252 129.849 104.118 134.034 103.642C139.042 103.071 139.879 99.8983 139.925 98.0202C139.928 97.8435 139.894 97.668 139.824 97.5057C139.753 97.3435 139.649 97.1983 139.517 97.0801C139.386 96.9618 139.231 96.8733 139.062 96.8204C138.893 96.7676 138.715 96.7517 138.54 96.7739Z" fill="#302839"/>
<path d="M135.217 100.988L135.351 101.575C135.403 101.785 135.465 101.995 135.525 102.206C135.647 102.621 135.793 103.03 135.96 103.43C136.262 104.194 136.671 104.912 137.174 105.561C138.152 106.775 139.423 107.45 141.036 107.512C141.238 107.528 141.441 107.53 141.644 107.52L141.953 107.511L142.292 107.474C142.744 107.438 143.194 107.379 143.64 107.298L144.306 107.186L144.951 107.024L145.274 106.944L145.584 106.838C145.789 106.765 146.005 106.708 146.206 106.627C147.029 106.324 147.736 105.866 148.475 105.422C148.844 105.197 149.216 104.961 149.599 104.696C149.983 104.432 150.389 104.149 150.824 103.8L150.839 103.787C150.855 103.774 150.873 103.766 150.893 103.762C150.913 103.759 150.934 103.761 150.953 103.768C150.972 103.774 150.989 103.786 151.002 103.801C151.016 103.816 151.025 103.835 151.029 103.854C151.142 104.437 151.094 105.039 150.892 105.596C150.708 106.149 150.428 106.664 150.064 107.119C149.345 108.03 148.361 108.659 147.378 109.182C147.129 109.313 146.874 109.42 146.617 109.536L146.236 109.705L145.847 109.842L145.066 110.114L144.275 110.32C143.746 110.468 143.215 110.539 142.684 110.633L142.285 110.701L141.851 110.743C141.558 110.775 141.264 110.79 140.97 110.789C139.728 110.811 138.499 110.545 137.377 110.013C136.223 109.476 135.243 108.622 134.501 107.67C133.792 106.741 133.24 105.701 132.868 104.593C132.687 104.063 132.539 103.523 132.425 102.975C132.365 102.703 132.323 102.427 132.285 102.149C132.247 101.872 132.218 101.615 132.2 101.263C132.182 100.885 132.306 100.515 132.547 100.224C132.788 99.9328 133.129 99.7427 133.504 99.6907C133.878 99.6387 134.258 99.7286 134.57 99.9427C134.881 100.157 135.101 100.48 135.186 100.848L135.217 100.988Z" fill="#302839"/>
<path d="M135.261 101.316C135.329 101.621 135.356 101.824 135.395 102.077C135.434 102.33 135.454 102.553 135.468 102.788C135.5 103.263 135.504 103.74 135.478 104.215C135.427 105.207 135.221 106.185 134.866 107.113C134.492 108.107 133.899 109.005 133.131 109.739C132.364 110.467 131.442 111.011 130.434 111.331C129.961 111.481 129.477 111.593 128.986 111.668C128.521 111.723 128.067 111.763 127.606 111.805C126.663 111.805 125.712 111.791 124.738 111.507C124.493 111.446 124.253 111.366 124.02 111.269C123.901 111.221 123.782 111.181 123.666 111.128L123.322 110.938C123.21 110.872 123.096 110.81 122.988 110.741C122.879 110.671 122.78 110.577 122.678 110.494C122.472 110.331 122.288 110.143 122.127 109.936C121.965 109.733 121.823 109.514 121.704 109.283C121.596 109.052 121.511 108.811 121.451 108.563C121.328 108.078 121.346 107.567 121.503 107.092C121.512 107.07 121.529 107.053 121.55 107.043C121.571 107.033 121.595 107.031 121.618 107.038C121.632 107.043 121.644 107.052 121.655 107.063L121.664 107.073C121.94 107.388 122.242 107.678 122.568 107.94C122.704 108.064 122.868 108.159 123 108.263C123.16 108.345 123.28 108.454 123.436 108.518C124.001 108.828 124.615 109.037 125.252 109.135C125.909 109.247 126.646 109.16 127.361 109.076L128.457 108.865C128.786 108.783 129.107 108.677 129.419 108.546C130.013 108.276 130.538 107.958 130.936 107.517C131.348 107.066 131.667 106.538 131.875 105.964C132.101 105.326 132.242 104.661 132.294 103.986C132.323 103.635 132.341 103.276 132.335 102.916C132.335 102.737 132.33 102.558 132.319 102.38L132.285 101.897L132.274 101.75C132.249 101.37 132.368 100.994 132.607 100.697C132.846 100.401 133.189 100.205 133.566 100.15C133.943 100.095 134.327 100.184 134.641 100.4C134.955 100.615 135.177 100.942 135.261 101.313V101.316Z" fill="#302839"/>
<path d="M100.534 83.9659C102.002 83.6947 103.468 83.8708 104.879 84.18C106.29 84.4892 107.638 85.0524 108.983 85.6071C111.665 86.7778 114.147 88.3604 116.34 90.2975L117.163 91.0253L117.924 91.8121L118.685 92.6027C118.937 92.8682 119.161 93.1593 119.398 93.4362L120.101 94.2781L120.276 94.4894L120.364 94.595L120.416 94.6587C120.469 94.7315 120.519 94.8071 120.564 94.8851C120.755 95.2236 120.84 95.6111 120.81 95.9983C120.779 96.3746 120.641 96.7342 120.412 97.0345C120.183 97.3348 119.873 97.5632 119.519 97.6927C119.16 97.822 118.77 97.8438 118.399 97.7555L117.958 97.6471C117.662 97.5795 117.356 97.5196 117.048 97.4568C115.762 97.2113 114.456 97.0909 113.147 97.0972C111.8 97.1171 110.428 97.2246 108.98 97.2789C108.962 97.2796 108.945 97.2769 108.928 97.2708C108.911 97.2647 108.896 97.2554 108.883 97.2434C108.87 97.2314 108.859 97.2169 108.852 97.2008C108.844 97.1847 108.84 97.1672 108.839 97.1495C108.838 97.1265 108.843 97.1037 108.853 97.0831C108.863 97.0625 108.879 97.0447 108.897 97.0315C110.104 96.2057 111.454 95.632 112.871 95.2305C114.291 94.8499 115.785 94.5541 117.335 94.6102C117.726 94.6237 118.115 94.6602 118.501 94.7196C118.691 94.7472 118.893 94.7814 119.087 94.8224C118.887 94.7751 118.677 94.7869 118.483 94.8563C118.29 94.9257 118.12 95.0497 117.996 95.2134C117.876 95.3713 117.804 95.5601 117.788 95.7576C117.771 95.9694 117.818 96.1814 117.922 96.3665C117.944 96.408 117.97 96.4472 117.999 96.4835L117.968 96.4464L117.888 96.3513L117.729 96.161L117.091 95.3903C116.875 95.1363 116.675 94.868 116.447 94.6292L115.756 93.9071L115.077 93.1755L114.346 92.4933C112.391 90.662 110.242 89.0508 107.935 87.6887C106.76 87.0194 105.55 86.4134 104.31 85.8735C103.073 85.3093 101.828 84.7223 100.524 84.0734C100.517 84.0702 100.511 84.0656 100.506 84.06C100.501 84.0544 100.498 84.0478 100.495 84.0408C100.493 84.0337 100.492 84.0262 100.492 84.0187C100.493 84.0112 100.495 84.004 100.498 83.9973C100.502 83.9899 100.506 83.9832 100.513 83.9778C100.519 83.9724 100.526 83.9683 100.534 83.9659Z" fill="#302839"/>
<path d="M172.664 75.3391C170.926 76.3752 169.196 77.2534 167.483 78.1619C165.76 79.0184 164.089 79.9752 162.478 81.0276C160.885 82.056 159.369 83.2008 157.944 84.4526C156.538 85.6704 155.259 87.0281 154.128 88.5047C153.576 89.2336 153.074 89.9986 152.624 90.7947L152.293 91.3903L152 92.0039L151.852 92.3103L151.82 92.3788C151.847 92.3178 151.868 92.254 151.882 92.1885C151.914 92.042 151.916 91.8904 151.887 91.7432C151.859 91.6059 151.803 91.4756 151.724 91.3601C151.645 91.2446 151.543 91.1461 151.425 91.0706C151.299 90.9911 151.158 90.9386 151.011 90.9161C150.863 90.8937 150.713 90.9019 150.569 90.9402C150.503 90.9579 150.439 90.9822 150.379 91.0125C150.355 91.0249 150.369 91.0183 150.379 91.0125L150.411 90.9973L150.474 90.9678C150.56 90.9279 150.645 90.8898 150.712 90.866C150.858 90.808 150.992 90.7604 151.123 90.7167C151.385 90.6272 151.635 90.5511 151.884 90.4779C152.381 90.3294 152.876 90.2143 153.369 90.0973C154.353 89.8718 155.341 89.6882 156.333 89.5398C158.314 89.2261 160.311 89.0187 162.314 88.9185C163.32 88.8724 164.329 88.8838 165.334 88.9528C166.339 89.0279 167.354 89.1773 168.317 89.4922C168.351 89.5031 168.378 89.5267 168.394 89.5579C168.41 89.5892 168.413 89.6254 168.402 89.6587C168.394 89.6858 168.378 89.7097 168.356 89.7268C168.334 89.744 168.306 89.7535 168.278 89.7538C167.306 89.7735 166.336 89.8654 165.377 90.0288C164.42 90.1753 163.469 90.3599 162.523 90.5597C160.627 90.9555 158.748 91.4559 156.89 92.0011L154.131 92.8573L152.784 93.3026C152.566 93.3777 152.348 93.4548 152.148 93.5328C152.047 93.5718 151.951 93.6108 151.871 93.6479C151.823 93.6679 151.796 93.6812 151.776 93.6936L151.706 93.726C151.374 93.8894 151.003 93.9556 150.635 93.9169C150.267 93.8782 149.918 93.7362 149.627 93.5074C149.336 93.2785 149.117 92.9721 148.993 92.6236C148.869 92.275 148.846 91.8986 148.928 91.5377C148.955 91.4122 148.995 91.2896 149.046 91.1714L149.092 91.0763L149.264 90.7176L149.612 90.0022L149.999 89.3095C150.52 88.3947 151.103 87.5162 151.743 86.6799C153.034 85.0282 154.533 83.5773 156.119 82.2739C157.729 81.0201 159.44 79.9018 161.234 78.9307C163.011 77.9803 164.85 77.1492 166.737 76.4428C168.633 75.7911 170.593 75.2802 172.636 75.2373C172.643 75.2371 172.651 75.2383 172.657 75.241C172.664 75.2436 172.671 75.2476 172.676 75.2528C172.682 75.2579 172.686 75.2641 172.689 75.2709C172.692 75.2777 172.694 75.2851 172.694 75.2925C172.693 75.3021 172.69 75.3113 172.685 75.3194C172.679 75.3275 172.672 75.3342 172.664 75.3391Z" fill="#302839"/>
<g opacity="0.3">
<path opacity="0.3" d="M130.946 101.453C130.946 101.453 131.775 110.191 121.584 107.085C121.584 107.085 119.983 110.633 124.985 113.341C124.985 113.341 136.656 123.507 147.392 112.148C147.392 112.148 152.074 108.924 150.927 103.826C150.927 103.826 148.864 104.542 144.487 105.354C143.078 105.614 141.624 105.451 140.309 104.885C138.993 104.319 137.875 103.375 137.095 102.173C136.543 101.313 136.043 100.421 135.598 99.501L130.946 101.453Z" fill="#302839"/>
</g>
<path d="M271.181 153.134L303.585 149.923L304.308 149.852C304.308 149.852 312.405 142.936 310.873 137.596C310.873 137.596 316.056 135.606 318.484 128.29L311.253 123.805L309.551 122.746L309.526 122.734L276.09 101.967L243.816 114.17C243.816 114.17 243.832 115.859 242.251 119.1C242.092 119.422 241.921 119.757 241.731 120.111L271.181 153.134Z" fill="#FFC35C"/>
<g opacity="0.3">
<path opacity="0.3" d="M271.181 153.134L304.308 149.852C304.308 149.852 312.405 142.936 310.873 137.596C310.873 137.596 316.056 135.606 318.484 128.29L311.253 123.805C311.212 124.079 310.131 131.047 302.635 131.236C302.635 131.236 305.161 138.366 298.483 144.144L288.43 145.762C283.682 146.525 278.822 146.189 274.225 144.777C269.628 143.366 265.416 140.917 261.914 137.621L242.251 119.1C242.092 119.422 241.921 119.757 241.731 120.111L271.181 153.134Z" fill="#302839"/>
</g>
<g opacity="0.3">
<path opacity="0.3" d="M276.09 101.969C276.09 101.969 274.053 109.267 268.266 115.65L241.729 120.109C241.729 120.109 242.578 118.214 243.814 114.171L276.09 101.969Z" fill="#302839"/>
</g>
<g opacity="0.5">
<path opacity="0.5" d="M243.963 122.489L257.228 120.694C260.421 120.262 263.67 120.496 266.768 121.381C269.867 122.267 272.749 123.784 275.232 125.837L303.518 149.229L270.267 117.737C270.267 117.737 273.706 115.033 276.03 111.482C277.774 108.818 281.226 107.872 284.045 109.353L309.531 122.738L276.09 101.967C276.09 101.967 273.924 109.915 268.266 115.652L241.731 120.111L243.963 122.489Z" fill="#F6F4F9"/>
</g>
<path d="M271.183 154.651C270.969 154.65 270.758 154.605 270.563 154.518C270.368 154.43 270.193 154.303 270.051 154.144L240.598 121.119C240.392 120.886 240.261 120.595 240.225 120.286C240.189 119.976 240.248 119.663 240.396 119.389C242.233 115.987 242.298 114.177 242.298 114.156C242.296 113.849 242.389 113.549 242.565 113.297C242.74 113.045 242.99 112.854 243.278 112.75L275.555 100.548C275.772 100.466 276.005 100.435 276.236 100.458C276.467 100.48 276.689 100.555 276.887 100.678L319.283 126.996C319.573 127.176 319.794 127.447 319.91 127.768C320.026 128.088 320.03 128.438 319.922 128.761C317.984 134.606 314.396 137.357 312.558 138.433C313.033 144.198 306.136 150.283 305.293 151.002C305.057 151.203 304.766 151.327 304.457 151.358L271.33 154.641C271.282 154.649 271.232 154.651 271.183 154.651ZM243.555 119.879L271.8 151.55L303.672 148.391C305.888 146.389 310.392 141.424 309.414 138.013C309.31 137.648 309.345 137.257 309.515 136.918C309.684 136.579 309.974 136.315 310.328 136.179C310.494 136.114 314.384 134.501 316.636 128.924L275.924 103.652L245.203 115.266C245.028 116.222 244.595 117.772 243.555 119.879Z" fill="#302839"/>
<path d="M241.977 121.606L241.483 118.614L267.362 114.349C273.118 107.334 274.607 101.657 274.623 101.601L277.563 102.338C277.498 102.603 275.866 108.938 269.328 116.73C269.095 117.007 268.771 117.191 268.414 117.25L241.977 121.606Z" fill="#302839"/>
<path d="M269.204 114.645L267.123 116.85L303.27 150.949L305.351 148.744L269.204 114.645Z" fill="#302839"/>
<g opacity="0.3">
<path opacity="0.3" d="M279.854 114.686C282.119 116.031 284.3 117.474 286.46 118.944C288.62 120.414 290.747 121.925 292.868 123.441C294.988 124.958 297.077 126.516 299.159 128.087C301.242 129.658 303.307 131.251 305.335 132.939C302.92 131.876 300.625 130.585 298.39 129.211C296.155 127.836 293.983 126.365 291.874 124.812C289.764 123.26 287.687 121.664 285.678 119.981C283.669 118.298 281.698 116.568 279.854 114.686Z" fill="#302839"/>
</g>
<path d="M259.31 123.407C259.544 123.637 259.841 123.792 260.164 123.853C260.486 123.914 260.82 123.877 261.122 123.749C261.423 123.62 261.681 123.405 261.86 123.131C262.04 122.856 262.134 122.534 262.131 122.206C262.128 121.878 262.027 121.558 261.842 121.287C261.657 121.016 261.396 120.806 261.092 120.683C260.787 120.561 260.453 120.531 260.132 120.598C259.811 120.665 259.517 120.826 259.287 121.061C258.979 121.375 258.808 121.798 258.813 122.238C258.817 122.678 258.996 123.099 259.31 123.407Z" fill="#302839"/>
<path d="M252.287 125.042C252.972 125.035 253.522 124.474 253.516 123.789C253.509 123.104 252.948 122.554 252.263 122.561C251.578 122.567 251.028 123.128 251.035 123.813C251.041 124.498 251.602 125.048 252.287 125.042Z" fill="#302839"/>
<path d="M235.808 93.9667L234.809 94.8706L259.975 122.684L260.974 121.78L235.808 93.9667Z" fill="#302839"/>
<path d="M236.698 96.1498L235.539 96.8364L251.699 124.119L252.859 123.432L236.698 96.1498Z" fill="#302839"/>
<path d="M235.955 94.1972L235.362 95.4058L261.214 108.093L261.807 106.884L235.955 94.1972Z" fill="#302839"/>
<path d="M236.648 94.8897L235.72 95.8647L252.017 111.379L252.946 110.404L236.648 94.8897Z" fill="#302839"/>
<path d="M244.553 163.166L275.623 172.912L276.315 173.131C276.315 173.131 286.475 169.941 287.161 164.429C287.161 164.429 292.71 164.63 297.809 158.851L292.918 151.893L291.768 150.25L291.749 150.23L269.123 118.017L234.648 116.59C234.648 116.59 234.002 118.15 231.277 120.512C231.005 120.746 230.715 120.987 230.402 121.238L244.553 163.166Z" fill="#A7C49C"/>
<g opacity="0.3">
<path opacity="0.3" d="M244.552 163.166L276.315 173.131C276.315 173.131 286.475 169.941 287.161 164.429C287.161 164.429 292.71 164.63 297.809 158.851L292.918 151.893C292.772 152.128 289.047 158.115 282.072 155.35C282.072 155.35 281.602 162.9 273.192 165.599L263.31 163.146C258.642 161.988 254.303 159.773 250.626 156.671C246.95 153.57 244.035 149.666 242.107 145.26L231.271 120.512C230.999 120.746 230.709 120.987 230.396 121.239L244.552 163.166Z" fill="#302839"/>
</g>
<g opacity="0.3">
<path opacity="0.3" d="M269.122 118.019C269.122 118.019 264.388 123.935 256.564 127.538L230.4 121.24C230.4 121.24 231.923 119.829 234.646 116.594L269.122 118.019Z" fill="#302839"/>
</g>
<g opacity="0.5">
<path opacity="0.5" d="M231.529 124.305L244.435 127.853C247.542 128.707 250.439 130.195 252.943 132.224C255.447 134.253 257.503 136.778 258.983 139.641L275.838 172.247L257.592 130.24C257.592 130.24 261.816 129.098 265.345 126.743C267.994 124.976 271.54 125.459 273.553 127.926L291.753 150.23L269.123 118.017C269.123 118.017 264.015 124.479 256.565 127.541L230.401 121.242L231.529 124.305Z" fill="#F6F4F9"/>
</g>
<path d="M276.318 174.648C276.164 174.648 276.011 174.624 275.864 174.578L244.099 164.614C243.871 164.542 243.663 164.418 243.493 164.25C243.322 164.083 243.193 163.878 243.117 163.652L228.964 121.725C228.865 121.43 228.858 121.111 228.946 120.812C229.034 120.513 229.213 120.249 229.456 120.055C232.481 117.644 233.249 116.005 233.256 115.989C233.374 115.705 233.577 115.465 233.837 115.302C234.097 115.139 234.402 115.061 234.709 115.079L269.185 116.506C269.418 116.516 269.645 116.579 269.849 116.691C270.053 116.803 270.229 116.96 270.363 117.15L299.051 157.979C299.247 158.258 299.344 158.594 299.325 158.935C299.306 159.275 299.173 159.598 298.948 159.854C294.874 164.47 290.495 165.595 288.381 165.865C286.562 171.354 277.829 174.248 276.774 174.58C276.626 174.626 276.472 174.649 276.318 174.648ZM245.743 161.952L276.305 171.538C279.129 170.564 285.218 167.762 285.655 164.241C285.7 163.863 285.885 163.517 286.175 163.27C286.464 163.023 286.835 162.894 287.215 162.909C287.392 162.909 291.607 162.951 295.861 158.706L268.313 119.498L235.498 118.142C234.959 118.952 233.954 120.209 232.168 121.74L245.743 161.952Z" fill="#302839"/>
<path d="M256.429 129.109C256.308 129.109 256.187 129.094 256.069 129.065L230.042 122.713L230.761 119.763L256.239 125.982C264.283 121.783 267.879 117.145 267.915 117.098L270.333 118.928C270.167 119.147 266.184 124.335 257.116 128.941C256.903 129.05 256.668 129.108 256.429 129.109Z" fill="#302839"/>
<path d="M257.815 127.006L255.036 128.22L274.923 173.76L277.701 172.546L257.815 127.006Z" fill="#302839"/>
<g opacity="0.3">
<path opacity="0.3" d="M267.6 131.194C269.157 133.319 270.598 135.502 272.009 137.7C273.42 139.899 274.785 142.123 276.141 144.349C277.498 146.575 278.805 148.828 280.109 151.09C281.412 153.351 282.684 155.626 283.89 157.973C282.082 156.048 280.478 153.961 278.961 151.82C277.445 149.68 276.023 147.476 274.69 145.22C273.358 142.965 272.072 140.683 270.885 138.347C269.697 136.012 268.56 133.648 267.6 131.194Z" fill="#302839"/>
</g>
<path d="M248.363 131.188C248.714 130.341 248.312 129.37 247.466 129.019C246.619 128.668 245.649 129.07 245.298 129.917C244.947 130.763 245.348 131.734 246.195 132.085C247.041 132.436 248.012 132.034 248.363 131.188Z" fill="#302839"/>
<path d="M239.552 129.607C240.024 129.11 240.003 128.325 239.506 127.853C239.01 127.382 238.224 127.402 237.753 127.899C237.281 128.396 237.301 129.181 237.798 129.653C238.295 130.125 239.08 130.104 239.552 129.607Z" fill="#302839"/>
<path d="M235.206 94.8341L233.934 95.2739L246.189 130.724L247.461 130.285L235.206 94.8341Z" fill="#302839"/>
<path d="M235.152 97.2471L233.816 97.4243L237.988 128.858L239.324 128.681L235.152 97.2471Z" fill="#302839"/>
<path d="M235.24 95.1083L234.221 95.9878L253.034 117.791L254.053 116.912L235.24 95.1083Z" fill="#302839"/>
<path d="M235.607 96.0719L234.37 96.6055L243.281 117.266L244.518 116.733L235.607 96.0719Z" fill="#302839"/>
<path d="M231.746 39.3528C228.676 35.331 227.016 30.4098 227.023 25.3501C227.023 12.5718 237.381 2.21387 250.16 2.21387C262.938 2.21387 273.295 12.5718 273.295 25.3501C273.295 38.1284 262.937 48.4853 250.16 48.4853C246.725 48.4895 243.332 47.7256 240.231 46.2495L229.825 49.7317L231.746 39.3528Z" fill="#F6F4F9"/>
<g opacity="0.5">
<path opacity="0.5" d="M250.159 7.16869C238.223 7.16869 228.401 16.207 227.159 27.8141C227.07 26.9947 227.025 26.1713 227.023 25.3471C227.023 12.5689 237.381 2.21094 250.159 2.21094C262.936 2.21094 273.295 12.5717 273.295 25.35C273.294 26.1779 273.25 27.0053 273.161 27.8284C271.924 16.2165 262.099 7.16869 250.159 7.16869Z" fill="#F6F4F9"/>
</g>
<path d="M229.825 51.2904C229.597 51.2903 229.371 51.2399 229.164 51.1428C228.957 51.0458 228.774 50.9044 228.628 50.7287C228.482 50.5531 228.376 50.3474 228.318 50.1263C228.261 49.9053 228.252 49.6742 228.293 49.4494L230.091 39.7356C227.069 35.5489 225.45 30.5134 225.466 25.3504C225.466 11.7339 236.543 0.656738 250.16 0.656738C263.776 0.656738 274.853 11.7358 274.853 25.3504C274.853 38.965 263.775 50.044 250.16 50.044C246.707 50.0519 243.292 49.3292 240.139 47.9234L230.32 51.2095C230.161 51.263 229.993 51.2903 229.825 51.2904ZM250.16 3.77258C238.261 3.77258 228.579 13.4483 228.579 25.3504C228.565 30.0701 230.113 34.6617 232.982 38.4093C233.114 38.5821 233.208 38.7806 233.258 38.992C233.309 39.2034 233.315 39.423 233.275 39.6367L231.838 47.4134L239.735 44.7704C240.117 44.6418 240.535 44.667 240.899 44.8408C243.79 46.2208 246.955 46.9332 250.159 46.9253C262.056 46.9253 271.736 37.2458 271.736 25.3475C271.736 13.4493 262.057 3.77258 250.16 3.77258Z" fill="#302839"/>
<g opacity="0.3">
<path opacity="0.3" d="M231.595 39.1456C238.445 43.8303 247.37 45.2736 255.774 42.2414C265.098 38.8792 271.393 30.8731 273.02 21.7739C273.204 22.9572 273.296 24.1528 273.296 25.3502C273.296 38.1276 262.938 48.4855 250.16 48.4855C246.725 48.4901 243.333 47.7262 240.232 46.2497L229.826 49.7318L231.747 39.353C231.695 39.2845 231.646 39.2141 231.595 39.1456Z" fill="#302839"/>
</g>
<path d="M241.804 18.6477C244.064 16.3881 247.727 16.7934 249.986 19.053L250.337 19.404L250.689 19.053C252.949 16.7934 256.613 16.3891 258.871 18.6477C259.956 19.7328 260.565 21.2044 260.565 22.7387C260.565 24.2731 259.956 25.7446 258.871 26.8298L258.519 27.1808L251.413 34.284C251.272 34.4261 251.104 34.5388 250.918 34.6158C250.733 34.6927 250.535 34.7323 250.334 34.7323C250.134 34.7323 249.935 34.6927 249.75 34.6158C249.565 34.5388 249.397 34.4261 249.255 34.284L242.151 27.1799L241.8 26.8288C240.716 25.7432 240.108 24.2716 240.108 22.7375C240.109 21.2033 240.719 19.7323 241.804 18.6477Z" fill="#E05656"/>
</svg>
