<svg width="266" height="259" viewBox="0 0 266 259" fill="none" xmlns="http://www.w3.org/2000/svg">
<g opacity="0.2">
<path opacity="0.2" d="M128.58 259C180.646 259 222.855 255.047 222.855 250.172C222.855 245.296 180.646 241.344 128.58 241.344C76.5131 241.344 34.3047 245.296 34.3047 250.172C34.3047 255.047 76.5131 259 128.58 259Z" fill="#302839"/>
</g>
<path d="M81.8222 226.255C58.3582 239.695 36.078 227.425 32.6988 208.844C32.0357 205.194 32.1074 201.3 33.0366 197.313C33.6172 194.859 34.4759 192.48 35.596 190.221C36.6269 188.117 37.683 186.01 38.709 183.898C42.2906 176.527 45.5052 169.174 46.0715 162.312C46.3416 159.055 46.0163 155.904 44.8461 152.917C44.2283 151.371 43.251 149.994 41.9953 148.901C40.5507 147.631 38.8064 146.75 36.927 146.341C36.1167 146.166 35.2876 146.095 34.4596 146.13C29.1763 146.353 24.3818 151.135 26.3169 163.055C29.0272 179.801 10.8194 185.04 4.12866 170.679C3.83246 170.041 3.56626 169.37 3.31749 168.668C3.23715 168.423 3.15293 168.175 3.07259 167.925C-1.10524 154.552 3.95539 131.397 24.6142 126.543C25.5599 126.316 26.5443 126.134 27.5627 125.991C28.9247 125.798 30.2966 125.682 31.6718 125.644C34.0797 125.573 36.4881 125.768 38.8532 126.225C55.6343 129.516 66.1979 146.031 60.9059 166.753C58.0629 177.875 46.5613 198.846 51.4313 208.975C52.9733 212.185 57.7038 214.677 63.3094 214.415C63.4527 214.411 63.5998 214.403 63.7479 214.394C67.7902 214.104 72.2546 212.371 76.2717 208.452L81.8222 226.255Z" fill="#A38DBF"/>
<g opacity="0.15">
<path opacity="0.15" d="M81.8197 226.256C58.3576 239.695 36.0736 227.417 32.6973 208.845C35.5325 218.224 50.8673 224.287 63.306 214.414C63.4502 214.414 63.5964 214.403 63.7454 214.391C67.7887 214.101 72.2521 212.368 76.2693 208.45L81.8197 226.256Z" fill="#302839"/>
</g>
<path d="M209.92 107.28C206.248 143.904 162.683 148.573 142.15 152.654H116.237C102.965 150.016 80.0719 147.137 64.5463 135.534C60.7963 132.734 57.48 129.425 54.8258 125.49C52.8703 122.581 51.3352 119.411 50.2656 116.073C49.4761 113.595 48.9187 111.049 48.6007 108.469C48.4716 107.436 48.3748 106.38 48.3103 105.301C48.1167 102.131 48.2212 98.7277 48.6481 95.0803C49.0188 91.9208 51.4378 81.1103 54.7358 70.5157C55.8577 66.907 57.0812 63.3236 58.3619 60.0789C53.6778 39.2807 51.7699 13.086 58.8091 4.06051C63.3876 -1.80839 75.7808 4.08181 94.5655 20.1756C107.982 14.2708 126.372 13.9224 129.193 13.933C132.015 13.9224 150.404 14.2679 163.817 20.1756C182.601 4.08181 194.995 -1.80839 199.573 4.06051C206.613 13.086 204.703 39.2807 200.021 60.0789C205.054 72.8563 209.237 90.8444 209.734 95.0803C210.254 99.5001 210.293 103.556 209.92 107.28Z" fill="#A38DBF"/>
<g opacity="0.5">
<path opacity="0.5" d="M204.177 28.386C203.945 20.0729 202.569 13.1247 199.574 9.28764C194.997 3.41874 182.603 9.30894 163.819 25.4027C150.406 19.498 132.017 19.1495 129.195 19.1601C126.373 19.1495 107.984 19.4951 94.5672 25.4027C75.7825 9.30894 63.3894 3.41874 58.8108 9.28764C55.8168 13.1247 54.4413 20.0729 54.209 28.386C53.9476 17.7982 55.207 8.68071 58.8108 4.06051C63.3894 -1.80839 75.7825 4.08181 94.5672 20.1756C107.984 14.2708 126.373 13.9224 129.195 13.933C132.017 13.9224 150.406 14.2679 163.819 20.1756C182.603 4.08181 194.997 -1.80839 199.574 4.06051C203.179 8.68071 204.439 17.7982 204.177 28.386Z" fill="#FFF9F2"/>
</g>
<path d="M209.92 107.28C206.248 143.903 162.683 148.573 142.15 152.654H116.237C102.965 150.016 80.0718 147.136 64.5462 135.534C60.7963 132.734 57.4799 129.425 54.8257 125.489C52.8703 122.581 51.3351 119.411 50.2655 116.073C49.476 113.595 48.9187 111.049 48.6006 108.468C80.3254 135.714 103.222 123.493 113.461 102.681C117.415 94.6465 125.198 93.8721 128.578 93.8721C131.957 93.8721 139.74 94.6465 143.69 102.681C154.077 123.79 177.493 136.064 209.92 107.28Z" fill="#F6F4F9"/>
<g opacity="0.15">
<path opacity="0.15" d="M206.329 120.601C194.753 145.17 159.875 149.131 142.151 152.654H116.238C102.966 150.016 80.0731 147.136 64.5475 135.534C60.7976 132.734 57.4813 129.425 54.827 125.489C53.783 123.938 52.8576 122.309 52.0586 120.619C53.7382 122.283 55.5331 123.827 57.43 125.239C69.2471 134.072 110.345 138.508 129.187 138.508C148.029 138.508 194.231 132.651 206.329 120.601Z" fill="#302839"/>
</g>
<path d="M81.8471 56.7817C80.8946 55.2968 87.2039 42.0247 99.0995 45.9402C103.384 47.3515 103.787 51.5294 100.465 52.4257C97.301 53.2747 95.8761 52.5903 90.9714 54.3162C88.1961 55.2919 82.7996 58.2656 81.8471 56.7817Z" fill="#302839"/>
<path d="M176.539 56.7817C177.493 55.2968 171.183 42.0247 159.288 45.9402C155.004 47.3515 154.6 51.5294 157.921 52.4257C161.087 53.2747 162.511 52.5903 167.415 54.3162C170.19 55.2919 175.587 58.2656 176.539 56.7817Z" fill="#302839"/>
<path d="M75.2097 35.8685C69.4338 42.0278 65.7941 50.6467 65.2801 49.64C65.2231 49.5273 65.173 49.4113 65.1301 49.2925C64.0363 46.4698 62.2261 35.279 62.2532 25.3106C62.261 23.7028 62.3045 22.2828 62.3888 21.0312C62.6153 17.6519 63.0983 15.4875 63.6897 14.1023C64.4235 12.4093 66.0671 11.8924 67.521 12.4635C71.3881 13.9871 82.3661 21.2296 85.9389 25.8672C86.5768 26.6919 80.9896 29.7082 75.2097 35.8685Z" fill="#5F5173"/>
<path d="M75.2097 35.8684C69.4337 42.0277 65.794 50.6467 65.28 49.64C65.223 49.5273 65.1729 49.4112 65.13 49.2924C66.4232 44.0653 69.9699 36.8403 72.6948 31.618C76.4138 24.4859 71.3145 18.8057 66.8869 17.0982C65.3691 16.5174 63.5609 19.008 62.3887 21.0272C62.6152 17.648 63.0982 15.4836 63.6896 14.0984C64.4234 12.4054 66.067 11.8885 67.5209 12.4596C71.388 13.9832 82.366 21.2257 85.9388 25.8633C86.5767 26.6919 80.9895 29.7082 75.2097 35.8684Z" fill="#5F5173"/>
<path d="M65.4182 51.639H65.3214C64.9554 51.6246 64.5999 51.5124 64.292 51.314C63.984 51.1157 63.7348 50.8385 63.5703 50.5113C62.2732 47.9674 60.3082 35.6633 60.3362 25.3068C60.3517 19.7215 60.8725 15.8099 61.9286 13.3474C63.0301 10.7986 65.6766 9.67966 68.2205 10.6815C72.3112 12.2893 83.5544 19.6315 87.4583 24.696C87.9287 25.3049 88.4592 26.5759 86.7342 28.2379C86.1863 28.7654 85.4013 29.3917 84.411 30.1836C82.3454 31.8291 79.5169 34.0845 76.6129 37.1821C73.4186 40.5875 70.8699 44.8408 69.1817 47.6547C67.4132 50.6013 66.7898 51.639 65.4182 51.639ZM64.1733 25.3165C64.153 32.77 65.1868 40.8275 66.0841 45.3538C67.8546 42.4044 70.4624 38.1268 73.8116 34.5559C76.9091 31.2561 79.9815 28.8042 82.0162 27.1818C82.5273 26.7743 83.0752 26.3387 83.5079 25.9747C79.4327 21.6188 70.02 15.5108 66.8179 14.2515C66.4665 14.114 65.8218 14.0085 65.4521 14.8642C64.879 16.2 64.1937 19.103 64.1733 25.3185V25.3165Z" fill="#302839"/>
<path d="M183.378 35.8685C189.153 42.0278 192.793 50.6467 193.307 49.64C193.364 49.5271 193.414 49.4111 193.457 49.2925C194.551 46.4698 196.361 35.279 196.334 25.3106C196.326 23.7028 196.283 22.2828 196.198 21.0312C195.972 17.6519 195.489 15.4875 194.898 14.1023C194.164 12.4093 192.52 11.8924 191.065 12.4635C187.199 13.9871 176.221 21.2296 172.649 25.8672C172.011 26.6919 177.598 29.7082 183.378 35.8685Z" fill="#5F5173"/>
<path d="M183.378 35.8684C189.153 42.0277 192.793 50.6467 193.307 49.64C193.364 49.5271 193.414 49.4111 193.457 49.2924C192.164 44.0653 188.617 36.8403 185.893 31.618C182.173 24.4859 187.273 18.8057 191.7 17.0982C193.218 16.5174 195.025 19.008 196.198 21.0272C195.972 17.648 195.489 15.4836 194.898 14.0984C194.164 12.4054 192.52 11.8885 191.065 12.4596C187.199 13.9832 176.221 21.2257 172.649 25.8633C172.011 26.6919 177.598 29.7082 183.378 35.8684Z" fill="#5F5173"/>
<path d="M193.174 51.6385C191.801 51.6385 191.179 50.6009 189.411 47.6534C187.724 44.8394 185.174 40.587 181.981 37.1807C179.077 34.0831 176.249 31.8287 174.183 30.1822C173.189 29.3903 172.404 28.7641 171.86 28.2365C170.135 26.5745 170.665 25.3035 171.136 24.6946C175.04 19.6301 186.283 12.288 190.373 10.6801C192.919 9.67826 195.567 10.7973 196.665 13.3411C197.723 15.8085 198.244 19.7202 198.26 25.3054C198.288 35.6629 196.324 47.966 195.025 50.5099C194.86 50.837 194.611 51.1141 194.303 51.3124C193.996 51.5107 193.64 51.623 193.275 51.6376L193.174 51.6385ZM175.084 25.9743C175.517 26.3383 176.065 26.7739 176.576 27.1814C178.609 28.8037 181.686 31.2557 184.78 34.5555C188.13 38.1264 190.737 42.404 192.508 45.3534C193.405 40.8271 194.439 32.7696 194.419 25.3161C194.402 19.1026 193.712 16.1996 193.137 14.8618C192.77 14.0119 192.126 14.1155 191.774 14.2539C188.567 15.5104 179.154 21.6213 175.079 25.9743H175.084Z" fill="#302839"/>
<path d="M141.989 151.849C147.543 150.346 153.137 149.242 158.65 147.913C164.168 146.603 169.64 145.196 174.94 143.332C176.261 142.855 177.582 142.383 178.872 141.841C180.181 141.338 181.442 140.74 182.719 140.172C183.355 139.881 183.967 139.551 184.592 139.245C185.218 138.938 185.842 138.626 186.439 138.277L188.253 137.251C188.847 136.893 189.424 136.51 190.01 136.141L190.886 135.584C191.172 135.39 191.447 135.18 191.728 134.98L193.405 133.765L194.997 132.45C195.258 132.228 195.535 132.02 195.786 131.786L196.531 131.077C198.575 129.237 200.316 127.108 201.898 124.896L203.01 123.18C203.101 123.037 203.198 122.896 203.286 122.75L203.525 122.298L204.009 121.396L204.493 120.495C204.571 120.344 204.657 120.196 204.73 120.043L204.93 119.571L205.728 117.689L205.929 117.219L206.088 116.735L206.403 115.761C206.596 115.108 206.851 114.471 207.01 113.805L207.472 111.804L207.704 110.804L207.849 109.784L208.139 107.745C208.162 107.575 208.193 107.406 208.209 107.234L208.241 106.718L208.305 105.686L208.436 103.623C208.436 102.931 208.42 102.238 208.414 101.547L208.383 99.4709L208.206 97.3946L208.032 95.3173L207.89 94.3348L207.711 93.3155C207.191 90.5713 206.549 87.798 205.876 85.0508C205.204 82.3037 204.477 79.5546 203.7 76.8229C202.151 71.3703 200.435 65.9612 198.39 60.7263L198.196 60.222L198.313 59.6935C200.09 51.7095 201.368 43.5949 202.022 35.457C202.334 31.3915 202.499 27.3124 202.382 23.2662C202.265 19.22 201.898 15.1864 200.919 11.3987C200.435 9.51205 199.748 7.70676 198.817 6.16669C198.706 5.97431 198.583 5.78935 198.449 5.613L198.255 5.3439C198.201 5.25825 198.139 5.17788 198.069 5.10384C197.959 4.96489 197.837 4.83538 197.706 4.71665L197.512 4.54144C197.445 4.4882 197.371 4.44464 197.302 4.39528C196.696 3.99067 195.996 3.7502 195.269 3.69736C194.412 3.63117 193.551 3.68986 192.711 3.87159C191.792 4.05828 190.89 4.31458 190.01 4.63824C188.204 5.29454 186.421 6.17831 184.675 7.14629C181.184 9.09872 177.839 11.4306 174.577 13.8719C171.316 16.3131 168.151 18.9248 165.037 21.5925L164.153 22.3485L163.07 21.8849C160.44 20.7734 157.735 19.8461 154.977 19.1096C152.201 18.3565 149.362 17.7961 146.507 17.3189C143.651 16.8417 140.765 16.497 137.869 16.2541C134.974 16.0111 132.061 15.8533 129.197 15.8398C126.337 15.862 123.414 16.0111 120.525 16.2599C117.637 16.5087 114.746 16.8571 111.89 17.3247C109.033 17.7922 106.195 18.3643 103.421 19.1174C100.662 19.8543 97.9583 20.7819 95.3283 21.8936L94.2345 22.363L93.3459 21.6022C90.2309 18.9354 87.0627 16.3373 83.8045 13.8844C80.5462 11.4316 77.198 9.11324 73.7064 7.16081C71.9641 6.19283 70.1781 5.31099 68.3728 4.65566C67.4944 4.33187 66.5925 4.0759 65.675 3.88998C64.8368 3.7086 63.9766 3.65023 63.1215 3.71672C62.3984 3.76946 61.7013 4.00893 61.0984 4.41173C61.0297 4.46206 60.9561 4.50853 60.8893 4.55693L60.6957 4.73116C60.5649 4.84859 60.4438 4.97646 60.3337 5.11352C60.2647 5.18781 60.2025 5.26815 60.1478 5.35358L59.9542 5.62171C59.8197 5.79751 59.6971 5.98217 59.5874 6.17444C58.6571 7.71257 57.9737 9.51593 57.4878 11.4016C56.514 15.1874 56.1423 19.2277 56.0281 23.2642C55.9139 27.3007 56.0765 31.3856 56.3901 35.4531C57.0454 43.5842 58.3261 51.7027 60.1023 59.6857L60.2224 60.2239L60.021 60.735C57.966 65.9621 56.2623 71.3829 54.7116 76.8307C53.9372 79.5585 53.2132 82.3011 52.5395 85.0586C51.8619 87.8076 51.224 90.5761 50.709 93.3213C50.5783 94.0076 50.4689 94.6823 50.3867 95.3221C50.3053 96.0133 50.2353 96.7047 50.1766 97.3965C50.0585 98.7808 49.9895 100.165 49.9695 101.549C49.9249 104.303 50.1193 107.056 50.5502 109.777C51.4118 115.192 53.3923 120.396 56.5034 124.878C59.5941 129.373 63.7342 133.12 68.3825 136.115C73.0308 139.11 78.1718 141.412 83.4579 143.278C88.7441 145.144 94.2297 146.547 99.7511 147.817L101.822 148.301L103.901 148.769L108.063 149.728C110.842 150.373 113.628 151.039 116.394 151.845C116.592 151.902 116.762 152.031 116.87 152.207C116.978 152.384 117.015 152.594 116.976 152.796C116.936 152.999 116.821 153.18 116.655 153.302C116.489 153.424 116.282 153.48 116.077 153.457C110.403 152.861 104.721 152.114 99.0706 150.994C93.3942 149.888 87.8033 148.381 82.3399 146.484C76.865 144.558 71.4917 142.17 66.5288 138.991C61.5659 135.812 57.0658 131.769 53.6643 126.84C50.2395 121.933 48.0499 116.192 47.1129 110.338C46.6459 107.416 46.4325 104.459 46.475 101.501C46.4924 100.028 46.5631 98.5604 46.687 97.0974C46.7477 96.3669 46.8203 95.6377 46.9048 94.9098C47.0016 94.1354 47.1226 93.3978 47.2572 92.6834C47.7924 89.8104 48.4362 87.0139 49.1157 84.2155C49.7952 81.417 50.527 78.6389 51.3053 75.8695C52.8705 70.3326 54.5868 64.8344 56.7008 59.4243L56.6195 60.4736C54.792 52.33 53.4745 44.0808 52.7882 35.7445C52.4591 31.5744 52.28 27.383 52.3933 23.1665C52.5065 18.9499 52.8773 14.7053 53.9488 10.4762C54.4938 8.36596 55.2585 6.25187 56.4656 4.24814C56.6129 3.99303 56.7745 3.74644 56.9496 3.50957L57.2081 3.1456C57.2961 3.0151 57.3931 2.8909 57.4985 2.7739C57.7124 2.50886 57.9464 2.26065 58.1983 2.03145L58.5855 1.68781C58.7201 1.58037 58.8652 1.48357 59.0066 1.3829C60.1478 0.584313 61.5021 0.163239 62.7633 0.0461123C63.9709 -0.0579909 65.1872 0.0143976 66.3739 0.261002C67.4824 0.482107 68.5724 0.787921 69.6341 1.17575C71.7143 1.92884 73.6464 2.88812 75.5146 3.91806C79.2423 5.99536 82.6951 8.3979 86.0512 10.9001C89.4072 13.4024 92.6277 16.0508 95.7949 18.7515L93.8154 18.4611C96.6174 17.2669 99.4997 16.2707 102.441 15.4797C105.362 14.6821 108.315 14.0926 111.276 13.5921C114.237 13.0917 117.215 12.7306 120.198 12.4712C123.181 12.2118 126.16 12.0424 129.2 12.0298C132.239 12.0511 135.212 12.2166 138.202 12.477C141.193 12.7374 144.16 13.1043 147.123 13.5989C150.086 14.0935 153.038 14.6898 155.956 15.4884C158.897 16.2796 161.779 17.2761 164.581 18.4708L162.613 18.7612C165.78 16.0614 169.009 13.4227 172.357 10.9118C175.705 8.4008 179.166 6.00891 182.892 3.93354C184.753 2.89973 186.689 1.93853 188.763 1.1893C189.824 0.801351 190.913 0.49585 192.021 0.275525C193.206 0.0293309 194.42 -0.0427377 195.626 0.0615975C196.97 0.178144 198.261 0.637784 199.375 1.39645C199.516 1.49325 199.666 1.59005 199.795 1.7004L200.183 2.04307C200.434 2.27161 200.668 2.51918 200.881 2.78358C200.987 2.9006 201.084 3.0248 201.172 3.15528L201.429 3.51828C201.605 3.7546 201.766 4.00088 201.913 4.25589C203.118 6.25768 203.881 8.37079 204.43 10.4791C205.505 14.7063 205.868 18.9528 205.979 23.1597C206.09 27.3666 205.911 31.5667 205.582 35.7358C204.894 44.0711 203.574 52.3184 201.746 60.4611L201.667 59.4282C203.767 64.8383 205.497 70.3336 207.055 75.8704C207.837 78.6389 208.561 81.4199 209.244 84.2145C209.927 87.0091 210.565 89.8104 211.102 92.6795L211.291 93.7704L211.453 94.9069L211.635 97.0984L211.814 99.2909L211.844 101.497C211.85 102.233 211.868 102.968 211.86 103.704L211.718 105.915L211.645 107.02L211.61 107.573C211.59 107.757 211.558 107.94 211.533 108.123L211.213 110.323L211.051 111.423L210.799 112.509L210.291 114.68C210.116 115.402 209.846 116.101 209.626 116.809L209.279 117.874L209.103 118.405L208.883 118.92L208.005 120.979L207.784 121.494C207.703 121.661 207.611 121.824 207.524 121.989L206.997 122.978L206.469 123.965L206.203 124.458C206.107 124.618 206.002 124.772 205.901 124.929L204.676 126.809C202.945 129.229 201.032 131.542 198.824 133.526L198.014 134.288C197.743 134.541 197.447 134.764 197.164 135.003L195.45 136.411L193.658 137.708C193.357 137.921 193.061 138.142 192.757 138.35L191.827 138.942C191.204 139.329 190.589 139.737 189.96 140.114L188.044 141.192C187.411 141.565 186.754 141.884 186.099 142.211C185.445 142.539 184.797 142.878 184.132 143.179C182.799 143.771 181.477 144.392 180.118 144.911C178.774 145.473 177.408 145.958 176.038 146.449C173.293 147.39 170.528 148.266 167.73 148.982C166.335 149.369 164.929 149.682 163.528 150.025C162.119 150.328 160.711 150.637 159.299 150.905C153.65 152.007 147.973 152.774 142.313 153.461H142.308C142.1 153.488 141.89 153.435 141.721 153.312C141.551 153.19 141.435 153.007 141.394 152.802C141.354 152.597 141.394 152.384 141.505 152.207C141.616 152.029 141.791 151.901 141.993 151.848L141.989 151.849Z" fill="#302839"/>
<path d="M143.235 108.494C143.235 108.494 143.235 117.053 135.581 116.601C130.161 116.284 129.032 111.82 128.951 111.459C128.866 111.82 127.742 116.284 122.317 116.601C114.656 117.053 114.659 108.494 114.659 108.494L128.884 97.4014H129.014L143.235 108.494Z" fill="#F6F4F9"/>
<path d="M143.159 108.551C143.159 108.551 140.661 115.063 134.848 113.547C128.23 111.821 129.04 103.927 129.04 103.927H128.795C128.795 103.927 129.575 111.823 122.952 113.523C117.132 115.017 114.66 108.49 114.66 108.49C114.66 108.49 113.03 93.873 128.881 93.873C144.733 93.873 143.159 108.551 143.159 108.551Z" fill="#FFF9F2"/>
<path d="M142.412 110.004C141.288 111.827 138.855 114.593 134.85 113.546C128.228 111.821 129.042 103.926 129.042 103.926H128.803C128.803 103.926 129.583 111.827 122.956 113.525C118.952 114.552 116.528 111.783 115.405 109.952C116.635 110.056 117.874 109.947 119.066 109.629C130.004 106.822 128.717 96.1025 128.717 96.1025H129.123C129.123 96.1025 127.783 106.816 138.712 109.67C139.916 109.998 141.169 110.111 142.412 110.004Z" fill="#F6F4F9"/>
<path d="M115.558 108.154C115.752 108.474 116.007 108.872 116.264 109.208C116.514 109.553 116.784 109.883 117.072 110.197C117.603 110.794 118.232 111.297 118.931 111.684C119.569 112.03 120.273 112.234 120.997 112.28C121.362 112.249 121.721 112.291 122.096 112.183C122.281 112.14 122.468 112.127 122.655 112.075L123.214 111.891C124.706 111.407 125.837 110.357 126.602 108.934C126.992 108.191 127.283 107.4 127.467 106.582C127.575 106.165 127.644 105.732 127.711 105.298C127.778 104.864 127.82 104.401 127.837 104.019V103.946C127.847 103.708 127.945 103.483 128.112 103.314C128.278 103.144 128.502 103.043 128.739 103.029C128.976 103.014 129.21 103.089 129.396 103.237C129.581 103.385 129.705 103.597 129.744 103.832C129.831 104.355 129.878 104.883 129.885 105.413C129.897 105.934 129.874 106.455 129.816 106.973C129.695 108.012 129.475 109.071 129.018 110.079C128.19 112.112 126.361 113.936 124.207 114.643L123.408 114.914C123.131 114.986 122.849 115.043 122.565 115.084C122.009 115.212 121.404 115.181 120.816 115.187C119.63 115.088 118.486 114.698 117.486 114.051C116.555 113.433 115.755 112.639 115.129 111.714C114.831 111.274 114.564 110.814 114.333 110.336C114.096 109.852 113.902 109.35 113.752 108.833C113.686 108.61 113.704 108.371 113.801 108.161C113.899 107.95 114.069 107.781 114.281 107.687C114.494 107.592 114.733 107.578 114.955 107.646C115.177 107.715 115.366 107.861 115.488 108.059L115.558 108.154Z" fill="#302839"/>
<path d="M144.055 108.894C143.905 109.41 143.711 109.912 143.474 110.395C143.241 110.872 142.973 111.331 142.673 111.769C142.043 112.691 141.239 113.48 140.306 114.092C139.303 114.735 138.158 115.12 136.971 115.215C136.386 115.205 135.78 115.236 135.223 115.105C134.939 115.063 134.658 115.006 134.381 114.933L133.583 114.658C131.432 113.942 129.61 112.106 128.79 110.074C128.338 109.065 128.121 108.005 128.005 106.966C127.949 106.448 127.928 105.927 127.942 105.406C127.951 104.876 128 104.347 128.089 103.824C128.129 103.59 128.254 103.379 128.44 103.232C128.626 103.085 128.86 103.012 129.097 103.027C129.334 103.043 129.556 103.145 129.722 103.314C129.888 103.484 129.985 103.709 129.995 103.946V104.021C130.01 104.401 130.059 104.875 130.116 105.299C130.174 105.731 130.254 106.16 130.355 106.584C130.536 107.403 130.824 108.195 131.211 108.939C131.974 110.366 133.101 111.416 134.592 111.91L135.149 112.095C135.336 112.15 135.524 112.162 135.709 112.207C136.084 112.314 136.442 112.274 136.808 112.304C137.531 112.261 138.237 112.06 138.875 111.716C139.576 111.331 140.206 110.831 140.741 110.237C141.029 109.923 141.3 109.594 141.553 109.251C141.81 108.916 142.064 108.519 142.262 108.199L142.32 108.103C142.443 107.906 142.633 107.76 142.855 107.692C143.077 107.625 143.316 107.64 143.528 107.735C143.74 107.831 143.909 107.999 144.006 108.21C144.103 108.421 144.12 108.66 144.054 108.883L144.055 108.894Z" fill="#302839"/>
<path d="M136.903 99.8021C136.903 101.67 134.459 103.315 132.221 104.432C131.09 105.008 129.839 105.307 128.57 105.304C127.301 105.302 126.05 104.998 124.922 104.417C122.687 103.292 120.254 101.637 120.258 99.7711C120.268 94.1374 136.914 94.1703 136.903 99.8021Z" fill="#302839"/>
<g opacity="0.5">
<path opacity="0.5" d="M131.882 98.6889C131.882 99.228 130.914 99.7014 130.026 100.023C129.091 100.36 128.066 100.358 127.132 100.017C126.246 99.6927 125.281 99.2145 125.282 98.6763C125.285 97.052 131.885 97.0646 131.882 98.6889Z" fill="#FFF9F2"/>
</g>
<path d="M58.3124 104.477C57.9959 104.295 57.628 104.1 57.2747 103.919C56.9214 103.738 56.5604 103.551 56.1954 103.378C55.8305 103.204 55.4685 103.03 55.0939 102.872C54.7192 102.714 54.3601 102.536 53.9845 102.388C52.4851 101.776 50.978 101.186 49.435 100.701C46.3539 99.7166 43.2099 98.9064 40.0039 98.4175C39.2073 98.2685 38.3961 98.2162 37.5936 98.101L36.3865 97.95C35.9839 97.9035 35.5783 97.8939 35.1737 97.8639C34.3634 97.8135 33.5542 97.7613 32.744 97.6993L30.3066 97.6703C28.6775 97.5986 27.0571 97.7922 25.4251 97.8339L24.8133 97.86L24.2054 97.9268L22.9867 98.0594L20.5454 98.3111L20.4883 98.3169C20.2699 98.3425 20.05 98.2818 19.8757 98.1476C19.7014 98.0134 19.5864 97.8164 19.5553 97.5986C19.5243 97.3808 19.5795 97.1595 19.7094 96.9819C19.8392 96.8044 20.0333 96.6845 20.2502 96.6481L22.7292 96.195L23.9731 95.9772L24.5955 95.8679L25.2228 95.8001C26.0601 95.7033 26.8983 95.6249 27.7395 95.5475C28.1596 95.5146 28.5788 95.4507 28.9979 95.4439L30.2631 95.4061C31.1071 95.3839 31.9512 95.35 32.7963 95.3384L35.3305 95.4352C35.7525 95.4584 36.1765 95.4613 36.5976 95.501L37.8559 95.6327C38.6962 95.7294 39.5431 95.7866 40.3727 95.9347L42.8769 96.3615C43.7094 96.5213 44.5312 96.7294 45.3569 96.921C46.1864 97.0972 46.9918 97.3682 47.8078 97.5986C48.6238 97.829 49.4215 98.1194 50.2191 98.4079C53.4134 99.583 56.4606 101.032 59.2746 103.098C59.4479 103.226 59.5658 103.415 59.6041 103.627C59.6425 103.839 59.5984 104.057 59.4809 104.238C59.3634 104.418 59.1813 104.547 58.972 104.597C58.7627 104.648 58.542 104.617 58.355 104.51L58.3124 104.477Z" fill="#302839"/>
<path d="M60.4574 117.123C59.0761 116.958 57.6192 116.845 56.1982 116.786C54.7772 116.727 53.3349 116.703 51.9062 116.734C49.0516 116.806 46.2028 117.037 43.417 117.58C42.025 117.842 40.6492 118.183 39.2962 118.601C38.6186 118.795 37.9575 119.05 37.2886 119.279C36.6352 119.544 35.9693 119.784 35.3343 120.09C32.7471 121.242 30.3309 122.745 28.1537 124.556L28.1402 124.567C27.9727 124.706 27.7579 124.775 27.5406 124.76C27.3234 124.745 27.1204 124.646 26.974 124.485C26.8277 124.324 26.7493 124.112 26.7552 123.894C26.7611 123.677 26.8508 123.469 27.0057 123.316C29.1519 121.167 31.6337 119.381 34.3537 118.028C35.7074 117.343 37.1107 116.76 38.5519 116.286C39.9841 115.799 41.4475 115.409 42.932 115.117C45.8836 114.518 48.8921 114.246 51.9033 114.305C54.9108 114.367 57.868 114.693 60.8204 115.467C61.027 115.522 61.2052 115.653 61.3191 115.833C61.4331 116.014 61.4742 116.232 61.4343 116.442C61.3945 116.652 61.2765 116.839 61.1042 116.965C60.9319 117.092 60.7181 117.148 60.5058 117.123H60.4574Z" fill="#302839"/>
<path d="M199.102 103.093C201.916 101.028 204.966 99.5786 208.159 98.4035C208.956 98.1131 209.753 97.8227 210.569 97.5942C211.385 97.3658 212.191 97.0947 213.02 96.9166C213.845 96.723 214.665 96.5169 215.5 96.3572L218.005 95.9303C218.838 95.7822 219.685 95.726 220.522 95.6283L221.78 95.4966C222.201 95.4569 222.625 95.454 223.047 95.4308L225.581 95.334C226.426 95.3456 227.271 95.3795 228.115 95.4018L229.38 95.4395C229.802 95.4482 230.22 95.5102 230.638 95.5431C231.478 95.6205 232.318 95.7018 233.155 95.7957L233.782 95.8635L234.405 95.9729L235.648 96.1907L238.127 96.6437C238.34 96.6843 238.529 96.8052 238.655 96.9814C238.782 97.1575 238.835 97.3755 238.805 97.5901C238.775 97.8047 238.664 97.9994 238.494 98.1341C238.324 98.2688 238.109 98.333 237.893 98.3135L237.832 98.3067L235.391 98.055L234.174 97.9205L233.566 97.8537L232.954 97.8275C231.323 97.7859 229.702 97.5923 228.074 97.6639L225.637 97.693C224.826 97.7549 224.016 97.8072 223.206 97.8575C222.802 97.8875 222.396 97.8972 221.993 97.9437L220.786 98.0947C219.983 98.2099 219.172 98.2621 218.376 98.4112C215.17 98.8952 212.027 99.7103 208.945 100.695C207.396 101.179 205.892 101.77 204.395 102.382C204.018 102.533 203.658 102.713 203.285 102.866C202.911 103.019 202.544 103.192 202.183 103.371C201.822 103.55 201.455 103.722 201.104 103.912C200.752 104.103 200.384 104.289 200.067 104.471L200.014 104.501C199.827 104.611 199.605 104.645 199.393 104.595C199.182 104.545 198.998 104.416 198.88 104.234C198.761 104.053 198.718 103.832 198.758 103.619C198.798 103.406 198.918 103.216 199.094 103.089L199.102 103.093Z" fill="#302839"/>
<path d="M197.569 115.473C200.521 114.698 203.479 114.369 206.487 114.311C209.498 114.252 212.506 114.524 215.458 115.123C216.942 115.414 218.405 115.805 219.837 116.292C221.279 116.766 222.682 117.349 224.036 118.034C226.756 119.386 229.237 121.173 231.383 123.322C231.539 123.475 231.63 123.682 231.637 123.9C231.644 124.118 231.566 124.33 231.42 124.492C231.273 124.654 231.07 124.754 230.853 124.769C230.635 124.785 230.42 124.715 230.252 124.576L230.236 124.562C228.059 122.751 225.642 121.248 223.055 120.096C222.42 119.79 221.754 119.55 221.101 119.285C220.432 119.058 219.772 118.801 219.093 118.607C217.74 118.188 216.364 117.847 214.972 117.586C212.186 117.043 209.338 116.811 206.483 116.74C205.055 116.709 203.623 116.731 202.192 116.792C200.76 116.853 199.31 116.963 197.933 117.129H197.887C197.674 117.156 197.458 117.101 197.284 116.975C197.11 116.849 196.991 116.661 196.95 116.45C196.91 116.239 196.952 116.02 197.067 115.839C197.183 115.657 197.363 115.527 197.572 115.474L197.569 115.473Z" fill="#302839"/>
<g opacity="0.15">
<path opacity="0.15" d="M52.2075 156.668C51.1766 169.147 42.5828 179.718 38.7109 183.898C42.2924 176.528 45.5042 169.173 46.0734 162.312C46.3425 159.054 46.0163 155.905 44.845 152.922C44.2304 151.375 43.2535 149.998 41.9962 148.906C39.8889 147.05 37.1118 146.015 34.4595 146.132C29.1772 146.355 24.3837 151.137 26.3158 163.058C29.0262 179.804 10.8183 185.043 4.13051 170.682C3.84011 170.046 3.56617 169.371 3.31934 168.67C6.68503 171.198 15.0959 175.536 19.7577 170.353C26.3158 163.058 17.3813 150.882 25.9983 141.911C32.5632 135.072 53.5453 140.489 52.2075 156.668Z" fill="#302839"/>
</g>
<path d="M39.0264 140.223C38.8619 140.396 36.7333 139.843 36.7923 140.075C37.042 141.093 37.5018 143.15 36.9278 146.339C36.9166 146.337 36.9051 146.337 36.8939 146.339C36.7333 146.301 36.5774 146.271 36.4167 146.25C36.2773 146.225 36.1379 146.208 35.9986 146.191C35.8882 146.178 35.774 146.166 35.6607 146.157C35.5475 146.148 35.4536 146.14 35.3481 146.137C35.0525 146.12 34.7562 146.118 34.4604 146.132C29.1772 146.355 24.3827 151.137 26.3177 163.057C29.0281 179.803 10.8203 185.042 4.12953 170.681C3.83333 170.043 3.56713 169.372 3.31836 168.67C6.68502 171.197 15.0949 175.534 19.7577 170.352C26.3177 163.057 17.3793 150.88 25.9963 141.908C28.7377 139.057 33.9832 138.339 39.0729 139.644C39.1406 139.907 39.1368 140.109 39.0264 140.223Z" fill="#333230"/>
<path d="M36.927 146.339C36.1167 146.165 35.2876 146.094 34.4596 146.128C29.1763 146.352 24.3818 151.134 26.3169 163.053C29.0272 179.799 10.8194 185.038 4.12866 170.677C3.83246 170.039 3.56626 169.368 3.31749 168.667C3.23715 168.422 3.15293 168.173 3.07259 167.923C-1.10524 154.551 3.95539 131.395 24.6142 126.542C25.5599 126.314 26.5443 126.132 27.5627 125.989C28.9247 125.796 30.2966 125.68 31.6718 125.643C33.0337 126.494 36.442 129.815 37.3829 133.29C37.5 133.72 35.324 132.882 35.4943 133.339C36.0684 134.877 39.7302 139.476 39.0226 140.222C38.8591 140.394 36.7305 139.842 36.7866 140.073C37.0373 141.095 37.5019 143.15 36.927 146.339Z" fill="#F6F4F9"/>
<g opacity="0.15">
<path opacity="0.15" d="M39.0254 140.223C38.8609 140.396 36.7323 139.843 36.7913 140.075C37.0411 141.093 37.5009 143.15 36.9268 146.339C36.9156 146.337 36.9042 146.337 36.893 146.339C36.7323 146.305 36.5764 146.276 36.4157 146.25C36.2764 146.225 36.137 146.208 35.9976 146.191C35.8872 146.178 35.773 146.166 35.6598 146.157C35.5465 146.148 35.4478 146.14 35.3471 146.137C35.0515 146.12 34.7552 146.118 34.4594 146.132C29.1762 146.355 24.3817 151.137 26.3167 163.057C29.0271 179.803 10.8193 185.042 4.12856 170.681C3.83235 170.043 3.56616 169.372 3.31738 168.67C6.68404 171.197 15.0939 175.534 19.7567 170.352C26.3167 163.057 17.3784 150.88 25.9954 141.908C28.7367 139.057 33.9822 138.339 39.0719 139.644C39.1397 139.907 39.1358 140.109 39.0254 140.223Z" fill="#302839"/>
</g>
<path d="M61.7853 233.584C53.5158 233.584 45.7709 230.744 39.7974 225.14C30.1321 216.07 27.8912 202.071 34.0766 189.479C34.4638 188.685 34.8565 187.89 35.2547 187.094C41.0626 175.359 47.0641 163.225 43.2725 153.533C41.7112 149.542 36.907 146.979 32.9935 148.05C28.5581 149.262 26.6851 154.771 27.9832 162.786C29.5484 172.442 24.6726 178.478 19.1474 180.177C13.7267 181.842 6.50257 179.773 2.59481 171.389C-1.49977 162.595 -0.682792 149.685 4.58112 139.994C7.92939 133.83 14.593 126.108 27.3288 124.312C38.5884 122.729 49.0117 126.248 55.9202 133.967C63.3882 142.308 65.8024 154.41 62.5432 167.169C61.7059 170.445 60.1503 174.521 58.5038 178.836C54.6222 189.007 49.7919 201.664 52.9514 208.237C53.9252 210.263 56.6549 211.942 59.9045 212.517C65.1645 213.448 70.7014 211.524 75.1019 207.24C75.4228 206.927 75.8547 206.754 76.3028 206.76C76.7508 206.766 77.1782 206.95 77.4908 207.271C77.8035 207.591 77.9759 208.023 77.9701 208.471C77.9643 208.919 77.7808 209.347 77.4599 209.66C72.2763 214.711 65.663 216.967 59.3217 215.844C54.9658 215.074 51.3629 212.721 49.911 209.701C46.1203 201.818 51.0241 188.968 55.351 177.631C56.9627 173.409 58.4844 169.421 59.2733 166.332C62.2489 154.686 60.1106 143.711 53.4073 136.222C47.2597 129.356 37.9263 126.236 27.8051 127.66C16.4661 129.255 10.5362 136.124 7.55865 141.604C2.22311 151.427 2.5677 163.305 5.6672 169.959C8.71248 176.5 14.1351 178.182 18.16 176.943C21.9826 175.768 25.9775 171.497 24.6533 163.323C22.2779 148.663 29.7585 145.43 32.1068 144.787C37.6795 143.264 44.2357 146.705 46.4243 152.299C50.7599 163.382 44.4196 176.196 38.2884 188.589C37.8954 189.382 37.504 190.175 37.1142 190.967C31.5095 202.369 33.4252 214.518 42.1148 222.672C51.9166 231.868 67.175 232.7 80.9853 224.785C81.3734 224.574 81.8289 224.523 82.2542 224.643C82.6796 224.763 83.0408 225.045 83.2606 225.429C83.4804 225.812 83.5412 226.267 83.43 226.694C83.3188 227.122 83.0444 227.489 82.6657 227.717C75.8143 231.642 68.6202 233.584 61.7853 233.584Z" fill="#302839"/>
<path d="M214.507 223.311C214.464 230.728 211.621 236.202 208.081 240.147C202.929 245.891 195.482 249.042 187.769 249.042H70.6157C62.9037 249.042 55.457 245.891 50.3034 240.147C46.7635 236.202 43.9215 230.728 43.8789 223.311C43.8789 222.804 43.8789 222.309 43.9041 221.832C44.4916 207.312 54.9159 206.314 61.3656 210.603C61.5592 210.725 61.7421 210.857 61.9231 210.991L62.4594 210.15C66.7185 203.118 72.1325 202.053 77.1467 203.374C84.9641 205.423 91.8155 213.262 91.8155 213.262H166.569C166.569 213.262 172.884 206.035 180.315 203.645C185.581 201.947 191.407 202.681 195.93 210.153L196.459 210.998C196.813 210.736 197.181 210.491 197.561 210.264C204.061 206.368 213.992 207.716 214.49 221.989C214.502 222.415 214.511 222.859 214.507 223.311Z" fill="#A38DBF"/>
<g opacity="0.5">
<path opacity="0.5" d="M65.5126 211.296C65.9599 209.123 70.0844 205.248 73.7618 205.695C76.8284 206.067 75.2883 207.945 72.9419 208.599C69.3681 209.596 65.0654 213.469 65.5126 211.296Z" fill="#C8BBD9"/>
</g>
<g opacity="0.5">
<path opacity="0.5" d="M192.821 211.296C192.374 209.123 188.249 205.248 184.572 205.695C181.505 206.067 183.044 207.945 185.392 208.599C188.969 209.596 193.271 213.469 192.821 211.296Z" fill="#C8BBD9"/>
</g>
<g opacity="0.15">
<path opacity="0.15" d="M214.508 223.311C214.465 230.728 211.622 236.202 208.082 240.147C202.93 245.891 195.483 249.042 187.77 249.042H70.6166C62.9047 249.042 55.458 245.891 50.3044 240.147C46.7645 236.202 43.9225 230.728 43.8799 223.311C43.8799 222.804 43.8799 222.309 43.905 221.832L66.9431 218.242C66.9431 218.242 76.4546 231.965 77.5358 225.963C77.8359 224.299 74.0685 215.412 77.1438 203.374C77.668 201.333 78.3476 199.335 79.1765 197.397C82.9362 188.588 128.693 197.397 128.693 197.397C128.693 197.397 174.451 188.588 178.209 197.397C179.076 199.419 179.778 201.509 180.309 203.644C183.261 215.551 179.553 224.312 179.849 225.963C180.93 231.965 190.442 218.242 190.442 218.242L214.485 221.989C214.503 222.415 214.512 222.859 214.508 223.311Z" fill="#302839"/>
</g>
<path d="M214.507 223.311C214.465 230.728 211.622 236.202 208.082 240.148C202.929 245.892 195.482 249.042 187.77 249.042H70.6161C62.9042 249.042 55.4574 245.892 50.3039 240.148C46.7639 236.202 43.9219 230.728 43.8793 223.311C43.799 207.383 54.7053 206.178 61.366 210.606C68.3229 216.929 68.2939 224.397 71.9897 227.881C82.5107 237.803 96.0316 231.011 97.6955 213.265C97.9453 210.604 97.924 207.693 97.59 204.553C95.0055 180.299 129.269 191.679 129.269 191.679C129.269 191.679 163.536 180.299 160.944 204.553C160.622 207.446 160.586 210.364 160.838 213.265C162.507 231.013 176.023 237.805 186.545 227.881C190.312 224.334 190.211 216.658 197.557 210.264C204.251 206.251 214.587 207.801 214.507 223.311Z" fill="#FFF9F2"/>
<path d="M214.507 223.311C214.481 227.754 213.451 231.501 211.867 234.637C210.854 236.632 209.581 238.484 208.082 240.145C202.929 245.889 195.482 249.039 187.77 249.039H70.6161C62.9042 249.039 55.4574 245.889 50.3039 240.145C49.1881 238.905 48.1951 237.559 47.3389 236.128C45.2984 232.706 43.9094 228.48 43.8793 223.308C43.799 207.38 54.7053 206.175 61.366 210.603C68.3229 216.926 68.2939 224.394 71.9897 227.878C72.1707 228.047 72.3527 228.216 72.5346 228.377H72.5424C81.6328 236.369 92.7239 232.199 96.5175 219.471C97.1145 217.443 97.5091 215.36 97.6955 213.254C97.9453 210.593 97.924 207.682 97.59 204.542C95.0055 180.288 129.269 191.668 129.269 191.668C129.269 191.668 163.536 180.288 160.944 204.542C160.622 207.435 160.586 210.354 160.838 213.254C161.027 215.363 161.422 217.448 162.017 219.48C165.599 231.45 175.622 235.847 184.365 229.663C185.134 229.121 185.863 228.524 186.545 227.876C190.312 224.329 190.211 216.654 197.557 210.259C204.251 206.251 214.587 207.801 214.507 223.311Z" fill="#F6F4F9"/>
<g opacity="0.15">
<path opacity="0.15" d="M211.867 234.643C210.854 236.638 209.581 238.49 208.082 240.151C202.929 245.895 195.482 249.045 187.77 249.045H70.616C62.9041 249.045 55.4574 245.895 50.3038 240.151C49.188 238.91 48.1951 237.565 47.3389 236.133C53.3704 241.075 62.7057 246.638 71.1271 242.917C78.722 239.563 72.4204 228.306 72.4204 228.306L72.5346 228.383H72.5423C81.6327 236.374 92.7239 232.205 96.5174 219.477C110.676 219.38 128.728 221.94 128.728 221.94C128.728 221.94 147.715 219.249 162.017 219.486C165.599 231.456 175.622 235.853 184.365 229.669C182.971 232.774 180.365 240.279 186.329 242.911C195.613 247.019 206.012 239.835 211.867 234.643Z" fill="#302839"/>
</g>
<path d="M185.838 227.223C186.871 226.255 187.553 224.857 188.129 223.367C188.705 221.876 189.212 220.281 189.823 218.696C190.434 217.111 191.138 215.516 192.049 214.002C192.966 212.469 194.058 211.047 195.304 209.765C195.618 209.451 196.043 209.273 196.487 209.27C196.932 209.267 197.36 209.439 197.678 209.748C197.997 210.058 198.181 210.48 198.191 210.924C198.201 211.369 198.036 211.799 197.731 212.122C197.698 212.155 197.665 212.187 197.634 212.219L197.61 212.241C196.458 213.245 195.425 214.378 194.532 215.619C193.623 216.872 192.855 218.256 192.153 219.71C191.451 221.163 190.811 222.684 190.067 224.221C189.688 225.012 189.255 225.776 188.771 226.507L188.383 227.06C188.238 227.239 188.08 227.413 187.929 227.587L187.7 227.847C187.619 227.931 187.524 228.006 187.436 228.085L186.898 228.549C186.732 228.698 186.514 228.776 186.29 228.764C186.067 228.752 185.858 228.652 185.709 228.485C185.56 228.319 185.482 228.1 185.494 227.877C185.506 227.654 185.606 227.445 185.773 227.296L185.838 227.223Z" fill="#302839"/>
<path d="M71.4631 228.544L70.9258 228.079C70.8377 228.001 70.7439 227.926 70.6616 227.842L70.4331 227.576C70.2821 227.402 70.1243 227.228 69.9792 227.05L69.592 226.496C69.1075 225.765 68.6744 225.001 68.2958 224.21C67.5524 222.673 66.9184 221.151 66.2098 219.699C65.5012 218.247 64.7394 216.862 63.8305 215.608C62.9377 214.367 61.9048 213.234 60.7523 212.23L60.731 212.211C60.3928 211.916 60.1857 211.499 60.1553 211.051C60.1249 210.603 60.2736 210.161 60.5689 209.823C60.8641 209.485 61.2816 209.277 61.7295 209.247C62.1775 209.217 62.6191 209.365 62.9574 209.661C62.9913 209.692 63.0271 209.726 63.0542 209.757C64.2998 211.04 65.3917 212.463 66.3076 213.998C67.2184 215.512 67.928 217.106 68.5339 218.692C69.1399 220.278 69.6529 221.863 70.2279 223.363C70.8029 224.862 71.4863 226.255 72.5191 227.219L72.5888 227.284C72.7557 227.433 72.8565 227.642 72.869 227.866C72.8815 228.089 72.8048 228.309 72.6556 228.475C72.5065 228.642 72.2971 228.743 72.0737 228.756C71.8502 228.768 71.6309 228.691 71.464 228.542L71.4631 228.544Z" fill="#302839"/>
<path d="M187.769 250.734H70.6169C62.3028 250.734 54.4408 247.286 49.0463 241.275C44.5345 236.249 42.2277 230.208 42.1919 223.319C42.1397 213.525 45.9864 209.512 49.2224 207.871C52.8301 206.041 57.4503 206.37 61.4113 208.645C64.3153 204.128 68.0188 201.63 72.3941 201.249C81.4506 200.458 90.3202 209.191 92.5621 211.577H165.823C168.066 209.191 176.935 200.459 185.991 201.249C190.357 201.629 194.048 204.117 196.973 208.645C200.93 206.372 205.553 206.042 209.162 207.871C212.399 209.511 216.246 213.524 216.194 223.32C216.158 230.209 213.852 236.25 209.339 241.277C203.945 247.286 196.083 250.734 187.769 250.734ZM54.3227 210.079C53.0856 210.063 51.862 210.338 50.7509 210.882C47.3281 212.619 45.5363 216.913 45.5702 223.299C45.6022 229.336 47.6175 234.625 51.5611 239.017C56.3158 244.314 63.2611 247.353 70.6169 247.353H187.769C195.126 247.353 202.07 244.314 206.824 239.017C210.768 234.624 212.783 229.337 212.815 223.299C212.849 216.911 211.057 212.617 207.634 210.881C204.73 209.407 200.638 209.998 197.46 212.353L195.991 213.443L194.493 211.049C192.086 207.072 189.133 204.914 185.704 204.612C177.156 203.862 167.931 214.271 167.84 214.377L167.334 214.957H91.0511L90.5467 214.377C90.4499 214.273 81.2289 203.864 72.6825 204.613C69.2539 204.915 66.3006 207.073 63.9068 211.028L62.3735 213.429L60.9215 212.352C58.9071 210.863 56.5317 210.081 54.3227 210.081V210.079Z" fill="#302839"/>
<path d="M86.1693 189.275C59.2215 188.76 52.2472 170.909 51.525 156.021C51.2956 151.174 51.6643 146.318 52.6227 141.562L84.0988 136.625C84.4508 137.693 84.9006 138.727 85.4423 139.713C91.1951 150.307 106.544 156.347 106.544 156.347C106.544 156.347 123.246 189.988 86.1693 189.275Z" fill="#A38DBF"/>
<g opacity="0.15">
<path opacity="0.15" d="M86.1687 189.275C63.5333 188.844 54.9879 176.177 52.4072 163.311C57.4166 170.741 66.2068 176.303 81.0751 176.587C103.145 177.014 106.16 165.261 104.984 155.678C105.965 156.122 106.544 156.35 106.544 156.35C106.544 156.35 123.245 189.989 86.1687 189.275Z" fill="#302839"/>
</g>
<path d="M85.4433 139.712C82.7058 145.372 77.9579 149.876 72.3571 152.802C65.9539 156.143 58.4394 157.427 51.525 156.021C51.2956 151.174 51.6643 146.318 52.6227 141.562L84.0988 136.625C84.3406 137.362 84.6297 138.083 84.9641 138.784C85.118 139.095 85.2739 139.408 85.4433 139.712Z" fill="#F6F4F9"/>
<g opacity="0.15">
<path opacity="0.15" d="M85.4423 139.712C82.7049 145.372 77.9569 149.876 72.3561 152.803C72.3443 152.81 72.3316 152.815 72.3184 152.819C68.5548 154.496 62.4981 154.465 60.8129 150.923C59.5032 148.164 76.986 141.609 84.9641 138.783C85.1171 139.096 85.2729 139.409 85.4423 139.712Z" fill="#302839"/>
</g>
<path d="M87.3048 190.977C86.9176 190.977 86.5304 190.977 86.1355 190.966C73.3581 190.721 63.7305 186.656 57.5257 178.886C46.6775 165.3 50.1583 145.126 50.9666 141.22C51.0115 141.003 51.0988 140.797 51.2235 140.613C51.3481 140.429 51.5077 140.272 51.6931 140.15C51.8785 140.029 52.086 139.945 52.3039 139.903C52.5219 139.861 52.7458 139.863 52.9631 139.908C53.1803 139.953 53.3866 140.04 53.5701 140.165C53.7536 140.289 53.9108 140.449 54.0326 140.634C54.1544 140.82 54.2386 141.027 54.2802 141.245C54.3218 141.463 54.3201 141.687 54.2752 141.904C53.5211 145.551 50.26 164.37 60.1663 176.777C65.7148 183.725 74.4732 187.363 86.2052 187.588C96.4329 187.788 103.231 185.323 106.428 180.275C111.227 172.699 106.838 161.206 105.432 157.973C101.173 157.597 86.1578 154.991 82.4494 136.968C82.4033 136.75 82.4007 136.525 82.4418 136.306C82.483 136.087 82.567 135.878 82.6891 135.692C82.8112 135.506 82.969 135.345 83.1533 135.22C83.3376 135.095 83.5449 135.008 83.7631 134.963C83.9814 134.918 84.2063 134.917 84.4249 134.96C84.6436 135.002 84.8517 135.088 85.0372 135.211C85.2227 135.335 85.3819 135.493 85.5058 135.679C85.6297 135.864 85.7157 136.072 85.7589 136.29C89.4915 154.429 105.746 154.662 106.533 154.662H106.54H107.59L108.06 155.603C108.383 156.253 115.893 171.654 109.283 182.09C105.539 187.985 98.1482 190.977 87.3048 190.977Z" fill="#302839"/>
<path d="M88.479 140.295C85.0707 142.863 79.9607 142.981 76.3056 136.624C77.2522 140.084 76.775 150.901 62.3753 150.956C61.8729 150.956 61.3531 150.948 60.8129 150.922L51.4651 152.316C50.8107 126.732 68.308 117.478 83.0214 125.237C85.5305 126.559 87.933 129.593 89.1749 132.667C90.4052 135.695 90.5069 138.766 88.479 140.295Z" fill="#F6F4F9"/>
<g opacity="0.15">
<path opacity="0.15" d="M88.4797 140.295C85.0714 142.863 79.9614 142.981 76.3063 136.624C77.253 140.084 76.7757 150.901 62.376 150.956C64.8434 149.891 69.5313 147.4 72.2223 142.934C74.2406 139.576 74.469 136.079 75.0566 135.729C76.3527 134.948 87.6346 139.716 89.1805 132.667C90.406 135.695 90.5076 138.766 88.4797 140.295Z" fill="#302839"/>
</g>
<path d="M49.7765 152.363C49.6903 148.736 49.9526 145.074 50.699 141.468C51.4675 137.873 52.7501 134.32 54.7722 131.136C56.7915 127.969 59.556 125.16 62.9537 123.344C66.331 121.505 70.2436 120.694 74.0478 120.941C75.9456 121.062 77.8214 121.416 79.6331 121.994C80.0793 122.149 80.5313 122.284 80.9708 122.459L82.2776 122.998L83.5466 123.612C83.7499 123.709 83.9813 123.835 84.2136 123.971C84.4459 124.106 84.655 124.25 84.8747 124.391C86.5619 125.575 87.8513 127.051 88.9402 128.65C90.005 130.255 90.8714 131.997 91.3815 133.942C91.6508 134.955 91.7727 136.003 91.7435 137.051C91.6855 138.145 91.4241 139.374 90.67 140.429C90.4867 140.693 90.2807 140.941 90.0544 141.17C89.9411 141.283 89.8163 141.384 89.6962 141.488L89.5123 141.642L89.3497 141.756L88.7012 142.199L88.0119 142.586C87.0537 143.078 86.0198 143.405 84.9531 143.555C82.7839 143.862 80.4587 143.214 78.7764 141.966C77.0524 140.744 75.8008 139.132 74.8464 137.469L77.9439 136.183C78.128 136.782 78.2534 137.398 78.3185 138.022C78.3879 138.615 78.4134 139.213 78.395 139.811C78.3645 141.006 78.1767 142.193 77.8365 143.34C77.4865 144.508 76.9645 145.617 76.2877 146.631C75.6 147.647 74.7599 148.55 73.7971 149.31C72.848 150.041 71.8064 150.643 70.6995 151.1C69.6265 151.528 68.508 151.832 67.3658 152.005C65.1755 152.326 62.9454 152.246 60.7835 151.771C60.5875 151.727 60.413 151.616 60.2907 151.457C60.1683 151.298 60.1056 151.1 60.1137 150.9C60.1218 150.699 60.2 150.508 60.3348 150.359C60.4696 150.21 60.6523 150.113 60.8512 150.085H60.8619C62.9053 149.807 64.8751 149.504 66.7133 148.982C68.5515 148.461 70.2368 147.695 71.5416 146.548C72.8573 145.416 73.8197 143.93 74.314 142.266C74.576 141.417 74.7384 140.54 74.798 139.653C74.8551 138.773 74.8299 137.835 74.6818 137.078L74.6653 137.008C74.5741 136.613 74.6279 136.199 74.817 135.84C75.0061 135.482 75.3178 135.204 75.6953 135.056C76.0727 134.908 76.4906 134.901 76.8727 135.036C77.2549 135.172 77.5756 135.44 77.7765 135.792C78.5654 137.177 79.5595 138.39 80.7172 139.206C80.996 139.435 81.3125 139.564 81.6068 139.745C81.9223 139.862 82.2263 140.018 82.5506 140.082C83.1883 140.26 83.8561 140.304 84.5117 140.211C85.1906 140.112 85.8484 139.901 86.4583 139.586L86.921 139.329L87.3624 139.026L87.4708 138.951L87.5376 138.89C87.5812 138.849 87.6344 138.816 87.6741 138.773C87.7563 138.688 87.8314 138.596 87.8987 138.498C88.1823 138.12 88.3304 137.552 88.3682 136.901C88.3812 136.187 88.2942 135.475 88.1097 134.785C87.7283 133.319 87.0178 131.855 86.135 130.535C85.2522 129.216 84.1632 128.019 82.96 127.177C82.8081 127.081 82.6599 126.97 82.507 126.887C82.3463 126.79 82.1805 126.702 82.0104 126.623L80.9031 126.086L79.7686 125.617C79.3881 125.471 78.9942 125.352 78.6128 125.216C77.067 124.723 75.4666 124.421 73.8474 124.316C70.6271 124.101 67.4111 124.795 64.5663 126.32C61.7321 127.833 59.3886 130.198 57.6288 132.951C55.8699 135.719 54.7103 138.891 54.0095 142.172C53.3319 145.463 53.0783 148.868 53.1596 152.279V152.286C53.1649 152.508 53.1264 152.729 53.0464 152.936C52.9664 153.142 52.8464 153.332 52.6932 153.492C52.5401 153.653 52.3569 153.782 52.154 153.871C51.9511 153.961 51.7324 154.01 51.5106 154.015C51.2888 154.021 51.0681 153.982 50.8612 153.902C50.6542 153.822 50.465 153.702 50.3045 153.549C50.1439 153.396 50.015 153.213 49.9253 153.01C49.8355 152.807 49.7866 152.588 49.7813 152.366L49.7765 152.363Z" fill="#302839"/>
<path d="M176.278 228.67C181.476 215.505 177.446 192.419 173.921 167.761H83.468C79.9435 192.419 75.9177 215.51 81.1119 228.67" fill="#A38DBF"/>
<g opacity="0.15">
<path opacity="0.15" d="M175.685 228.67C180.883 215.506 176.853 192.419 173.329 167.762H82.8752C79.3507 192.419 75.3249 215.511 80.5191 228.67" fill="#302839"/>
</g>
<path d="M175.492 228.359C176.75 223.542 177.096 218.565 177.096 213.543L177.023 209.768C176.958 208.51 176.921 207.251 176.829 205.985C176.737 204.719 176.651 203.461 176.539 202.199L176.177 198.408C175.647 193.354 174.961 188.297 174.274 183.232L173.243 175.625C172.901 173.088 172.557 170.546 172.249 168.001L173.922 169.453H83.468L85.1397 168.001C84.8319 170.546 84.4854 173.087 84.1446 175.625L83.1137 183.232C82.4226 188.296 81.7295 193.353 81.199 198.408C80.6686 203.463 80.2891 208.518 80.2572 213.544C80.2252 218.571 80.5786 223.561 81.9028 228.359L81.9202 228.422C81.9774 228.629 81.9541 228.849 81.8549 229.039C81.7558 229.228 81.5882 229.373 81.3862 229.444C81.1842 229.515 80.9628 229.507 80.7668 229.42C80.5708 229.334 80.415 229.177 80.3308 228.98C80.0704 228.375 79.8032 227.767 79.5564 227.15C79.4344 226.842 79.2863 226.537 79.1876 226.222L78.8972 225.273C78.7103 224.639 78.4993 224.005 78.3415 223.363L77.9311 221.427L77.7375 220.459L77.6039 219.484L77.3416 217.529C77.2138 216.224 77.1335 214.915 77.0454 213.611C77.0261 212.309 76.9815 211.002 76.9835 209.701C77.0144 208.403 77.029 207.1 77.088 205.805C77.147 204.51 77.2129 203.216 77.3029 201.925C77.3929 200.633 77.4916 199.346 77.6097 198.059C78.0734 192.915 78.7365 187.81 79.4567 182.726C79.8174 180.184 80.1978 177.647 80.5979 175.115C80.9958 172.583 81.38 170.053 81.804 167.528L82.0131 166.076H175.394L175.603 167.528C176.027 170.053 176.413 172.583 176.81 175.115C177.207 177.647 177.597 180.182 177.955 182.726C178.678 187.809 179.348 192.913 179.813 198.057L180.128 201.923C180.218 203.214 180.271 204.511 180.343 205.804C180.416 207.098 180.413 208.402 180.451 209.7C180.467 211.002 180.424 212.309 180.4 213.612C180.325 214.92 180.255 216.226 180.115 217.531L179.86 219.49L179.722 220.465L179.522 221.438C179.393 222.087 179.25 222.732 179.109 223.374C178.942 224.015 178.739 224.652 178.544 225.285L178.247 226.233C178.151 226.548 177.997 226.851 177.872 227.159C177.613 227.775 177.342 228.382 177.071 228.983C176.985 229.177 176.829 229.332 176.634 229.417C176.439 229.501 176.219 229.509 176.019 229.438C175.818 229.367 175.651 229.224 175.552 229.035C175.453 228.847 175.429 228.629 175.484 228.423L175.492 228.359Z" fill="#302839"/>
<path d="M174.287 153.567C174.287 153.567 213.945 202.021 171.811 208.701L174.287 153.567Z" fill="#A38DBF"/>
<path d="M170.029 210.696L172.797 149.08L175.594 152.497C176.52 153.629 198.203 180.407 191.663 197.597C189.064 204.424 182.476 208.723 172.08 210.374L170.029 210.696ZM175.764 158.333L173.593 206.662C181.516 205.024 186.527 201.577 188.5 196.401C193.034 184.491 181.355 166.124 175.764 158.333Z" fill="#302839"/>
<path d="M144.317 249.044H113.132C106.734 249.044 100.542 246.786 95.6458 242.667C90.7502 238.549 87.4655 232.834 86.3706 226.531L76.7391 171.079L75.8612 162.464C74.9484 153.517 81.9711 145.742 90.9618 145.742H166.419C175.438 145.742 182.467 153.556 181.52 162.524L180.493 172.248L171.082 226.523C169.989 232.828 166.704 238.545 161.807 242.666C156.911 246.786 150.717 249.045 144.317 249.044Z" fill="#94C5E9"/>
<g opacity="0.4">
<path opacity="0.25" d="M181.523 162.528L181.485 162.869C180.547 155.474 174.225 149.62 166.423 149.62H159.407C158.175 149.62 156.993 150.109 156.122 150.98C155.25 151.852 154.761 153.034 154.761 154.266V162.869H140.949V154.266C140.949 153.034 140.459 151.852 139.588 150.98C138.716 150.109 137.535 149.62 136.302 149.62H108.049C107.419 149.62 106.796 149.744 106.214 149.984C105.632 150.225 105.104 150.579 104.659 151.024C104.214 151.469 103.861 151.998 103.62 152.579C103.379 153.161 103.255 153.784 103.255 154.414V162.869H95.7621V154.416C95.7621 153.786 95.638 153.163 95.3971 152.581C95.1562 151.999 94.803 151.471 94.3578 151.026C93.9126 150.581 93.3841 150.227 92.8024 149.986C92.2207 149.745 91.5972 149.621 90.9676 149.621C83.1618 149.621 76.8428 155.476 75.9057 162.871L75.8631 162.47C74.9503 153.52 81.9711 145.748 90.9637 145.748H166.419C175.441 145.748 182.473 153.562 181.523 162.528Z" fill="white"/>
</g>
<path d="M144.317 250.735H113.132C106.334 250.746 99.7514 248.351 94.5491 243.976C89.3469 239.6 85.8604 233.525 84.7069 226.825L75.0793 171.368C75.0725 171.329 75.0677 171.29 75.0638 171.25L74.1859 162.635C73.9462 160.287 74.2018 157.915 74.9362 155.672C75.6706 153.429 76.8674 151.365 78.4492 149.613C80.0311 147.862 81.9629 146.462 84.1198 145.503C86.2766 144.545 88.6106 144.05 90.9707 144.05H166.428C168.794 144.05 171.134 144.548 173.295 145.512C175.456 146.475 177.39 147.882 178.972 149.641C180.554 151.401 181.748 153.473 182.477 155.724C183.206 157.975 183.454 160.354 183.203 162.707L182.173 172.426C182.173 172.463 182.164 172.5 182.158 172.537L172.749 226.812C171.599 233.515 168.113 239.594 162.909 243.973C157.705 248.352 151.119 250.747 144.317 250.735ZM78.414 170.852L88.0358 226.246C89.0535 232.162 92.1313 237.526 96.7243 241.39C101.317 245.254 107.13 247.369 113.132 247.359H144.317C150.321 247.369 156.135 245.254 160.728 241.388C165.322 237.523 168.4 232.156 169.415 226.239L178.816 172.014L179.842 162.351C180.041 160.469 179.842 158.567 179.259 156.767C178.675 154.968 177.72 153.311 176.454 151.905C175.189 150.498 173.642 149.373 171.914 148.604C170.186 147.834 168.315 147.436 166.423 147.436H90.9659C89.0785 147.436 87.212 147.832 85.4872 148.598C83.7623 149.364 82.2174 150.484 80.9523 151.884C79.6871 153.285 78.7299 154.935 78.1425 156.729C77.555 158.523 77.3504 160.42 77.5419 162.297L78.414 170.852Z" fill="#302839"/>
<path d="M180.493 172.248L179.724 176.68L178.17 185.647L174.298 207.957L172.727 217.009L169.592 235.091C168.915 238.997 166.879 242.539 163.845 245.091C160.811 247.644 156.974 249.043 153.009 249.042H104.445C100.48 249.043 96.6427 247.644 93.6089 245.091C90.5751 242.539 88.54 238.997 87.8624 235.091L86.9796 229.993L85.7841 223.096L85.1588 219.497L83.1783 208.074L82.5821 204.652L76.9677 172.251C75.5157 164.712 81.2888 157.713 88.9708 157.713H168.49C170.885 157.711 173.228 158.414 175.228 159.733C177.227 161.053 178.794 162.931 179.734 165.134C180.119 166.031 180.393 166.972 180.549 167.935C180.789 169.364 180.77 170.825 180.493 172.248Z" fill="#94C5E9"/>
<g opacity="0.15">
<path opacity="0.15" d="M178.17 185.647L174.298 207.957L172.727 217.009L169.593 235.091C168.915 238.997 166.88 242.539 163.846 245.091C160.812 247.644 156.974 249.043 153.009 249.042H104.445C100.481 249.043 96.6431 247.644 93.6093 245.091C90.5755 242.539 88.5404 238.997 87.8628 235.091L83.1787 208.071C89.1676 220.73 101.861 234.851 128.694 234.863H128.728C149.056 234.855 161.269 226.749 168.598 217.313C159.789 217.119 154.393 210.977 156.796 193.621C158.181 183.624 173.591 185.022 178.17 185.647Z" fill="#302839"/>
</g>
<g opacity="0.4">
<path opacity="0.25" d="M180.493 172.248L179.724 176.679L86.9796 229.996L85.7842 223.098L180.55 167.935C180.79 169.364 180.77 170.825 180.493 172.248Z" fill="white"/>
</g>
<g opacity="0.4">
<path opacity="0.25" d="M179.736 165.132L85.1637 219.497L83.1832 208.074L82.5869 204.652L163.225 157.713H168.49C170.885 157.711 173.229 158.413 175.228 159.732C177.228 161.051 178.795 162.929 179.736 165.132Z" fill="white"/>
</g>
<path d="M153.012 250.734H104.446C100.081 250.741 95.8542 249.202 92.5143 246.392C89.1745 243.581 86.9367 239.68 86.1972 235.378L75.3015 172.536C74.9175 170.525 74.9822 168.454 75.4913 166.47C76.0003 164.487 76.941 162.64 78.2462 161.063C79.5514 159.485 81.1888 158.215 83.0417 157.343C84.8945 156.471 86.917 156.019 88.9647 156.02H168.491C170.541 156.019 172.567 156.473 174.422 157.347C176.277 158.221 177.916 159.495 179.221 161.077C180.526 162.658 181.466 164.509 181.972 166.497C182.478 168.484 182.538 170.559 182.149 172.572L171.26 235.378C170.52 239.68 168.283 243.581 164.943 246.392C161.603 249.202 157.377 250.741 153.012 250.734ZM88.9647 159.398C87.4123 159.398 85.8792 159.741 84.475 160.403C83.0708 161.065 81.8303 162.029 80.8422 163.226C79.8541 164.423 79.143 165.824 78.7596 167.329C78.3762 168.833 78.3301 170.403 78.6246 171.927L89.5271 234.8C90.131 238.317 91.9602 241.507 94.6907 243.805C97.4213 246.103 100.877 247.361 104.446 247.355H153.012C156.58 247.361 160.036 246.103 162.767 243.805C165.498 241.508 167.327 238.317 167.931 234.8L178.827 171.959C179.127 170.433 179.085 168.86 178.704 167.352C178.324 165.843 177.614 164.438 176.625 163.237C175.637 162.036 174.395 161.069 172.989 160.405C171.582 159.741 170.046 159.397 168.491 159.398H88.9647Z" fill="#302839"/>
<path d="M181.937 201.321C179.867 205.29 176.429 208.164 171.813 208.704C161.151 209.946 155.107 203.906 158.98 188.802C160.045 184.632 163.014 181.989 166.372 180.316C172.324 177.339 179.496 177.405 179.496 177.405C185.021 184.38 185.511 194.479 181.937 201.321Z" fill="#FFF9F2"/>
<g opacity="0.15">
<path opacity="0.15" d="M181.937 201.322C179.867 205.29 176.429 208.164 171.813 208.705C161.151 209.946 155.107 203.906 158.98 188.802C160.045 184.633 163.014 181.989 166.372 180.316C164.18 185.512 162.034 193.469 165.494 200.029C168.581 205.883 176.775 205.512 181.937 201.322Z" fill="#302839"/>
</g>
<path d="M179.479 179.095C174.631 179.269 169.418 180.333 165.475 182.87C163.513 184.15 161.965 185.871 161.142 187.936C161.045 188.195 160.948 188.456 160.863 188.722C160.778 188.988 160.711 189.247 160.637 189.568C160.488 190.181 160.342 190.792 160.22 191.407C159.963 192.621 159.778 193.85 159.668 195.086C159.458 197.517 159.584 199.965 160.381 202.034C160.757 203.038 161.338 203.952 162.088 204.718C162.854 205.464 163.765 206.045 164.765 206.424C166.825 207.212 169.289 207.355 171.708 207.141C172.245 207.079 172.896 206.957 173.51 206.835C174.123 206.713 174.762 206.586 175.388 206.448C176.013 206.31 176.633 206.162 177.243 206.003L178.138 205.758C178.428 205.677 178.713 205.579 178.892 205.509L178.999 205.467C179.323 205.34 179.683 205.342 180.004 205.474C180.326 205.605 180.585 205.856 180.726 206.174C180.868 206.491 180.881 206.851 180.764 207.178C180.647 207.505 180.408 207.775 180.097 207.93C179.747 208.103 179.388 208.257 179.021 208.39C178.689 208.514 178.365 208.623 178.042 208.727C177.394 208.935 176.752 209.125 176.106 209.307C175.46 209.489 174.816 209.663 174.161 209.82C173.507 209.976 172.866 210.123 172.106 210.243C170.707 210.436 169.318 210.566 167.876 210.485C166.4 210.422 164.941 210.137 163.549 209.64C162.085 209.11 160.751 208.274 159.637 207.187C158.538 206.085 157.681 204.766 157.12 203.315C156.018 200.476 155.915 197.549 156.124 194.788C156.236 193.414 156.43 192.049 156.705 190.699C156.834 190.027 156.986 189.365 157.151 188.706C157.223 188.389 157.328 188.014 157.441 187.657C157.554 187.301 157.682 186.945 157.821 186.593C158.392 185.196 159.191 183.903 160.184 182.767C161.16 181.662 162.283 180.696 163.521 179.896C165.951 178.312 168.622 177.341 171.303 176.702C172.642 176.387 173.997 176.146 175.363 175.983C176.042 175.899 176.724 175.834 177.408 175.789C178.104 175.745 178.754 175.715 179.512 175.72C179.955 175.721 180.379 175.895 180.694 176.206C181.01 176.517 181.19 176.939 181.197 177.381C181.204 177.824 181.038 178.251 180.732 178.572C180.427 178.893 180.009 179.081 179.566 179.096L179.479 179.095Z" fill="#302839"/>
<path d="M168.286 189.294C167.285 189.463 166.3 189.719 165.343 190.059C164.402 190.384 163.499 190.81 162.65 191.33C161.858 191.807 161.153 192.417 160.566 193.131C160.307 193.467 160.084 193.828 159.899 194.21C159.732 194.582 159.605 194.972 159.52 195.371V195.382C159.475 195.602 159.387 195.811 159.26 195.997C159.133 196.182 158.971 196.341 158.782 196.463C158.593 196.585 158.382 196.669 158.161 196.708C157.939 196.748 157.713 196.744 157.493 196.695C157.274 196.646 157.066 196.554 156.883 196.424C156.699 196.294 156.543 196.129 156.424 195.938C156.305 195.748 156.225 195.535 156.189 195.313C156.153 195.092 156.161 194.865 156.214 194.646C156.23 194.575 156.251 194.506 156.275 194.437C156.5 193.805 156.794 193.2 157.154 192.634C157.515 192.087 157.933 191.58 158.401 191.122C159.302 190.275 160.339 189.588 161.47 189.089C162.532 188.616 163.641 188.259 164.779 188.024C165.894 187.786 167.028 187.647 168.167 187.609C168.382 187.602 168.591 187.677 168.752 187.819C168.913 187.96 169.014 188.158 169.035 188.371C169.056 188.585 168.995 188.798 168.864 188.968C168.733 189.139 168.543 189.252 168.331 189.287L168.286 189.294Z" fill="#302839"/>
<path d="M169.424 203.716C168.333 204.078 167.205 204.319 166.061 204.434C164.888 204.559 163.703 204.522 162.539 204.325C161.348 204.105 160.131 203.672 159.054 202.93C157.966 202.205 157.076 201.178 156.424 200.063L156.417 200.053C156.191 199.665 156.127 199.203 156.241 198.769C156.354 198.334 156.636 197.963 157.024 197.736C157.411 197.509 157.873 197.445 158.308 197.559C158.742 197.673 159.114 197.955 159.341 198.342C159.376 198.405 159.409 198.47 159.437 198.536C159.747 199.314 160.227 200.012 160.843 200.579C161.461 201.148 162.251 201.57 163.13 201.862C164.053 202.145 165.01 202.3 165.974 202.324C166.968 202.353 167.962 202.277 168.94 202.097L168.995 202.086C169.206 202.046 169.424 202.087 169.605 202.201C169.786 202.316 169.917 202.495 169.971 202.702C170.025 202.91 169.999 203.13 169.896 203.318C169.794 203.507 169.624 203.649 169.42 203.716H169.424Z" fill="#302839"/>
<path d="M84.4086 172.478L85.9477 181.169C86.1889 182.526 86.9 183.754 87.9562 184.639C89.0125 185.524 90.3466 186.009 91.7246 186.009C92.5789 186.009 93.423 185.823 94.1977 185.462C94.9724 185.102 95.6591 184.577 96.2098 183.924C96.7605 183.271 97.1618 182.505 97.3858 181.681C97.6097 180.856 97.6509 179.993 97.5064 179.151L96.0147 170.465C95.7809 169.101 95.0724 167.864 94.0145 166.972C92.9567 166.08 91.6176 165.591 90.2339 165.591H90.1845C89.3279 165.592 88.4818 165.779 87.7055 166.142C86.9292 166.504 86.2417 167.032 85.6912 167.688C85.1407 168.344 84.7406 169.113 84.519 169.941C84.2974 170.768 84.2597 171.634 84.4086 172.478Z" fill="#302839"/>
<path d="M91.7294 187.701C89.9534 187.703 88.2336 187.079 86.8727 185.938C85.5118 184.797 84.597 183.213 84.2894 181.464L82.7493 172.772C82.5571 171.685 82.6052 170.569 82.8904 169.503C83.1755 168.437 83.6908 167.446 84.3999 166.6C85.1091 165.754 85.9949 165.074 86.9951 164.607C87.9953 164.141 89.0855 163.899 90.1893 163.898H90.2377C92.0211 163.895 93.748 164.524 95.1115 165.673C96.4751 166.823 97.387 168.419 97.6854 170.177L99.1761 178.868C99.362 179.953 99.3088 181.065 99.0203 182.127C98.7318 183.188 98.2148 184.174 97.5056 185.016C96.7964 185.857 95.9121 186.533 94.9143 186.997C93.9166 187.461 92.8296 187.701 91.7294 187.701ZM86.0773 172.182L87.6164 180.874C87.8259 181.947 88.4477 182.895 89.3482 183.514C90.2488 184.134 91.3563 184.376 92.4332 184.188C93.5101 184 94.4704 183.398 95.1082 182.51C95.7459 181.622 96.0102 180.52 95.8443 179.439L94.3536 170.749C94.1898 169.776 93.6861 168.894 92.9321 168.258C92.1781 167.622 91.2229 167.275 90.2367 167.278H90.1883C89.5781 167.278 88.9754 167.412 88.4225 167.67C87.8696 167.928 87.38 168.304 86.988 168.771C86.596 169.239 86.3113 169.787 86.1538 170.376C85.9963 170.966 85.9698 171.583 86.0763 172.183L86.0773 172.182Z" fill="#302839"/>
<path d="M90.0591 174.06C91.8564 174.06 93.3134 172.603 93.3134 170.806C93.3134 169.008 91.8564 167.551 90.0591 167.551C88.2617 167.551 86.8047 169.008 86.8047 170.806C86.8047 172.603 88.2617 174.06 90.0591 174.06Z" fill="#302839"/>
<path d="M90.9261 171C91.0397 170.519 90.7416 170.036 90.2603 169.923C89.7791 169.809 89.2968 170.107 89.1832 170.589C89.0696 171.07 89.3677 171.552 89.849 171.666C90.3303 171.779 90.8125 171.481 90.9261 171Z" fill="#302839"/>
<path d="M90.0594 174.905C89.2486 174.905 88.456 174.664 87.7819 174.214C87.1077 173.764 86.5823 173.123 86.272 172.374C85.9617 171.625 85.8806 170.801 86.0387 170.006C86.1969 169.211 86.5873 168.48 87.1607 167.907C87.734 167.333 88.4644 166.943 89.2596 166.785C90.0548 166.627 90.8791 166.708 91.6282 167.018C92.3772 167.328 93.0175 167.854 93.4679 168.528C93.9184 169.202 94.1588 169.995 94.1588 170.805C94.1575 171.892 93.7252 172.934 92.9567 173.703C92.1882 174.471 91.1462 174.904 90.0594 174.905ZM90.0594 168.396C89.5826 168.396 89.1166 168.538 88.7202 168.802C88.3238 169.067 88.0149 169.444 87.8325 169.884C87.6501 170.325 87.6024 170.809 87.6955 171.277C87.7886 171.745 88.0182 172.174 88.3554 172.511C88.6926 172.848 89.1221 173.078 89.5898 173.171C90.0574 173.263 90.542 173.216 90.9824 173.033C91.4228 172.85 91.7992 172.541 92.0639 172.145C92.3287 171.748 92.4699 171.282 92.4697 170.805C92.4692 170.166 92.215 169.554 91.7631 169.102C91.3112 168.65 90.6984 168.396 90.0594 168.396Z" fill="#94C5E9"/>
<path d="M94.9666 180.831C95.2546 179.056 94.0498 177.385 92.2757 177.097C90.5016 176.809 88.8299 178.014 88.5419 179.788C88.254 181.562 89.4587 183.233 91.2328 183.521C93.007 183.809 94.6786 182.605 94.9666 180.831Z" fill="#302839"/>
<path d="M91.7479 184.396C90.9371 184.396 90.1446 184.155 89.4706 183.705C88.7966 183.254 88.2713 182.614 87.9612 181.865C87.6511 181.116 87.57 180.291 87.7283 179.496C87.8866 178.701 88.2771 177.971 88.8505 177.398C89.4238 176.824 90.1543 176.434 90.9494 176.276C91.7446 176.118 92.5688 176.199 93.3178 176.509C94.0669 176.82 94.7071 177.345 95.1575 178.019C95.6079 178.693 95.8483 179.486 95.8483 180.297C95.8472 181.384 95.4149 182.426 94.6461 183.195C93.8773 183.963 92.835 184.395 91.7479 184.396ZM91.7479 177.887C91.2711 177.887 90.8051 178.029 90.4087 178.294C90.0123 178.559 89.7034 178.935 89.521 179.376C89.3386 179.816 89.2909 180.301 89.384 180.768C89.4771 181.236 89.7067 181.665 90.0439 182.002C90.3811 182.339 90.8106 182.569 91.2782 182.662C91.7459 182.755 92.2305 182.707 92.6709 182.524C93.1113 182.342 93.4877 182.033 93.7524 181.636C94.0172 181.24 94.1584 180.773 94.1582 180.297C94.1574 179.658 93.9032 179.045 93.4513 178.594C92.9994 178.142 92.3868 177.888 91.7479 177.887Z" fill="#94C5E9"/>
<path d="M107.146 92.8776C107.774 84.3287 103.174 77.0234 96.8718 76.5606C90.5697 76.0978 84.952 82.6528 84.3242 91.2016C83.6964 99.7505 88.2963 107.056 94.5984 107.519C100.9 107.981 106.518 101.426 107.146 92.8776Z" fill="#302839"/>
<path d="M103.596 88.7222C103.834 85.3189 102.304 82.4394 100.179 82.2906C98.0542 82.1419 96.1383 84.7802 95.9001 88.1835C95.6619 91.5868 97.1914 94.4663 99.3165 94.615C101.442 94.7638 103.357 92.1255 103.596 88.7222Z" fill="#FFF9F2"/>
<g opacity="0.35">
<path opacity="0.35" d="M92.0809 101.782C93.0735 101.41 93.2592 99.4576 92.4956 97.4218C91.7321 95.3861 90.3084 94.0376 89.3158 94.4099C88.3232 94.7822 88.1375 96.7343 88.9011 98.77C89.6647 100.806 91.0883 102.154 92.0809 101.782Z" fill="#FFF9F2"/>
</g>
<path d="M162.556 107.53C168.858 107.067 173.458 99.7616 172.831 91.2128C172.203 82.6639 166.585 76.1089 160.283 76.5717C153.981 77.0345 149.381 84.3399 150.009 92.8887C150.637 101.438 156.254 107.993 162.556 107.53Z" fill="#302839"/>
<path d="M157.753 95.5769C159.872 95.4212 161.388 92.5436 161.139 89.1494C160.89 85.7553 158.969 83.1299 156.85 83.2856C154.731 83.4412 153.215 86.3189 153.464 89.713C153.713 93.1072 155.633 95.7325 157.753 95.5769Z" fill="#FFF9F2"/>
<g opacity="0.35">
<path opacity="0.35" d="M168.249 98.7491C169.012 96.7134 168.826 94.7613 167.834 94.3889C166.841 94.0166 165.418 95.3651 164.654 97.4009C163.89 99.4366 164.076 101.389 165.069 101.761C166.061 102.133 167.485 100.785 168.249 98.7491Z" fill="#FFF9F2"/>
</g>
<path d="M56.9582 236.045C59.5971 235.606 61.2565 232.367 60.6648 228.812C60.073 225.256 57.454 222.73 54.8152 223.17C52.1763 223.609 50.5168 226.847 51.1086 230.402C51.7004 233.958 54.3194 236.484 56.9582 236.045Z" fill="#C8BBD9"/>
<path d="M60.6223 220.286C60.6517 219.081 59.9508 218.087 59.0566 218.065C58.1625 218.043 57.4138 219.002 57.3844 220.207C57.3549 221.411 58.0559 222.405 58.95 222.427C59.8441 222.449 60.5928 221.49 60.6223 220.286Z" fill="#C8BBD9"/>
<path d="M53.9986 221.966C55.2463 221.855 56.1368 220.402 55.9876 218.721C55.8384 217.039 54.706 215.766 53.4583 215.876C52.2107 215.987 51.3202 217.44 51.4694 219.122C51.6186 220.803 52.751 222.077 53.9986 221.966Z" fill="#C8BBD9"/>
<path d="M50.465 224.93C51.3352 224.681 51.769 223.529 51.434 222.357C51.0989 221.184 50.1217 220.435 49.2515 220.684C48.3812 220.933 47.9474 222.085 48.2825 223.257C48.6176 224.43 49.5947 225.179 50.465 224.93Z" fill="#C8BBD9"/>
<path d="M207.144 230.375C207.736 226.82 206.077 223.581 203.438 223.142C200.799 222.703 198.18 225.229 197.588 228.785C196.996 232.34 198.656 235.578 201.295 236.017C203.934 236.457 206.552 233.931 207.144 230.375Z" fill="#C8BBD9"/>
<path d="M199.302 222.465C200.196 222.444 200.897 221.449 200.867 220.245C200.838 219.04 200.089 218.081 199.195 218.103C198.301 218.125 197.6 219.119 197.629 220.324C197.659 221.528 198.408 222.487 199.302 222.465Z" fill="#C8BBD9"/>
<path d="M208.359 218.505C208.511 216.817 207.619 215.357 206.366 215.244C205.114 215.131 203.975 216.409 203.823 218.097C203.671 219.785 204.563 221.245 205.816 221.358C207.068 221.471 208.207 220.193 208.359 218.505Z" fill="#C8BBD9"/>
<path d="M209.995 223.256C210.331 222.083 209.897 220.931 209.027 220.682C208.156 220.434 207.179 221.183 206.844 222.355C206.509 223.528 206.943 224.68 207.813 224.928C208.683 225.177 209.66 224.428 209.995 223.256Z" fill="#C8BBD9"/>
<path d="M222.138 57.3365C219.723 53.1233 218.763 48.2321 219.407 43.4187C221.011 31.2599 232.168 22.7038 244.326 24.3068C256.485 25.9098 265.041 37.0678 263.437 49.2267C261.833 61.3856 250.673 69.9416 238.513 68.3425C235.244 67.9152 232.112 66.7627 229.346 64.969L219.008 66.9766L222.138 57.3365Z" fill="#FFF9F2"/>
<g opacity="0.5">
<path opacity="0.5" d="M243.763 28.5409C232.404 27.0434 221.923 34.4117 219.284 45.3006C219.302 44.5097 219.363 43.7203 219.465 42.9358C221.069 30.777 232.226 22.2209 244.385 23.8239C256.544 25.4269 265.1 36.5849 263.496 48.7438C263.391 49.5315 263.245 50.3131 263.057 51.0853C263.338 39.8838 255.125 30.0403 243.763 28.5409Z" fill="#FFF9F2"/>
</g>
<path d="M241.434 70.2482C240.382 70.248 239.331 70.1788 238.288 70.0411C235.001 69.6149 231.839 68.504 229.007 66.7799L216.473 69.2134L220.278 57.5134C217.939 53.1281 217.038 48.1184 217.702 43.193C219.428 30.1145 231.472 20.878 244.55 22.6039C257.629 24.3298 266.865 36.3725 265.14 49.451C263.547 61.4695 253.246 70.2482 241.434 70.2482ZM229.699 63.1461L230.28 63.5226C232.83 65.1809 235.721 66.2445 238.737 66.6347C249.938 68.1128 260.251 60.2015 261.729 49.0019C263.207 37.8023 255.296 27.4874 244.095 26.0102C232.895 24.5331 222.582 32.4425 221.104 43.6431C220.505 48.0845 221.393 52.5992 223.628 56.4834L224.006 57.1436L221.541 64.7297L229.699 63.1461Z" fill="#302839"/>
<g opacity="0.15">
<path opacity="0.15" d="M222.02 57.1193C227.952 62.4375 236.263 64.931 244.64 63.1005C253.933 61.0678 260.929 54.2425 263.62 45.7881C263.646 46.9373 263.584 48.0868 263.434 49.2264C261.83 61.3853 250.673 69.9413 238.514 68.3373C235.245 67.9101 232.113 66.7575 229.347 64.9639L219.008 66.9715L222.139 57.3362C222.097 57.2645 222.06 57.191 222.02 57.1193Z" fill="#302839"/>
</g>
<path d="M234.307 40.0858C236.228 38.1634 239.341 38.508 241.266 40.4295L241.565 40.7286L241.864 40.4295C243.786 38.508 246.898 38.1634 248.823 40.0858C249.28 40.5426 249.643 41.0851 249.89 41.6821C250.137 42.2791 250.265 42.919 250.265 43.5652C250.265 44.2115 250.137 44.8514 249.89 45.4484C249.643 46.0454 249.28 46.5878 248.823 47.0447L248.524 47.3438L242.483 53.386C242.362 53.5069 242.219 53.6028 242.061 53.6683C241.903 53.7338 241.734 53.7675 241.563 53.7675C241.392 53.7675 241.223 53.7338 241.065 53.6683C240.907 53.6028 240.764 53.5069 240.643 53.386L234.604 47.3438L234.305 47.0447C233.848 46.5877 233.486 46.0452 233.238 45.4481C232.991 44.851 232.864 44.2111 232.864 43.5648C232.864 42.9186 232.992 42.2787 233.239 41.6818C233.487 41.0848 233.85 40.5425 234.307 40.0858Z" fill="#E05656"/>
</svg>
