<svg width="160" height="32" viewBox="0 0 160 32" fill="none" xmlns="http://www.w3.org/2000/svg">
<path d="M24.352 21.2372C24.128 21.9839 23.82 22.6372 23.428 23.1972C23.036 23.7385 22.5973 24.2052 22.112 24.5972C21.6267 24.9892 21.104 25.3065 20.544 25.5492C20.0027 25.7919 19.4613 25.9879 18.92 26.1372C17.632 26.4732 16.26 26.6225 14.804 26.5852C13.684 26.6039 12.76 26.4919 12.032 26.2492C11.304 25.9879 10.716 25.6985 10.268 25.3812C9.74533 25.0265 9.32533 24.6252 9.008 24.1772C8.728 23.7105 8.51333 23.1879 8.364 22.6092C8.23333 22.0305 8.14 21.4519 8.084 20.8732C8.028 20.2759 8 19.6972 8 19.1372C8 18.5585 8 18.0265 8 17.5412C8 16.5519 8.028 15.6465 8.084 14.8252C8.14 13.9852 8.21467 13.2572 8.308 12.6412C8.38267 11.9132 8.48533 11.2599 8.616 10.6812C8.70933 10.1025 8.868 9.59853 9.092 9.1692C9.316 8.73987 9.568 8.37587 9.848 8.0772C10.1467 7.75987 10.4547 7.49853 10.772 7.2932C11.108 7.08787 11.444 6.9292 11.78 6.8172C12.5453 6.5372 13.3947 6.41587 14.328 6.4532C15.224 6.4532 16.0453 6.51853 16.792 6.6492C17.5387 6.7612 18.2107 6.91987 18.808 7.1252C19.4053 7.31187 19.9373 7.53587 20.404 7.7972C20.8893 8.05853 21.3187 8.31987 21.692 8.5812C22.5507 9.21587 23.2227 9.93453 23.708 10.7372C24.1747 11.5399 24.52 12.4639 24.744 13.5092C24.8373 13.9572 24.912 14.4612 24.968 15.0212C25.0427 15.5625 25.0707 16.1599 25.052 16.8132C25.0333 17.4665 24.968 18.1665 24.856 18.9132C24.7627 19.6412 24.5947 20.4159 24.352 21.2372ZM16.596 15.5252C16.2787 15.5252 16.008 15.6092 15.784 15.7772C15.5787 15.9265 15.476 16.2345 15.476 16.7012C15.476 17.1492 15.5787 17.4385 15.784 17.5692C16.008 17.6812 16.2787 17.7372 16.596 17.7372C16.9133 17.7372 17.1747 17.6439 17.38 17.4572C17.5853 17.2705 17.688 17.0185 17.688 16.7012C17.688 16.4025 17.5947 16.1319 17.408 15.8892C17.2213 15.6465 16.9507 15.5252 16.596 15.5252Z" fill="#E06B38"/>
<path d="M41.1406 23.0292C40.842 23.5705 40.4873 24.0465 40.0766 24.4572C39.6846 24.8492 39.302 25.1759 38.9286 25.4372C38.4993 25.7545 38.0606 26.0065 37.6126 26.1932C37.2393 26.3425 36.8753 26.4545 36.5206 26.5292C36.1846 26.6225 35.886 26.6879 35.6246 26.7252C35.3073 26.7812 35.0273 26.8092 34.7846 26.8092C33.758 26.8092 32.8526 26.7065 32.0686 26.5012C31.3033 26.2959 30.6313 26.0345 30.0526 25.7172C29.474 25.3812 28.9793 24.9985 28.5686 24.5692C28.1766 24.1399 27.8593 23.7012 27.6166 23.2532C27.0006 22.2265 26.6646 21.0412 26.6086 19.6972C26.6086 18.6145 26.7206 17.6812 26.9446 16.8972C27.1873 16.0945 27.4953 15.4132 27.8686 14.8532C28.2606 14.2745 28.6993 13.7985 29.1846 13.4252C29.6886 13.0519 30.1926 12.7532 30.6966 12.5292C31.8913 12.0065 33.254 11.7732 34.7846 11.8292C35.6806 11.8292 36.474 11.9319 37.1646 12.1372C37.8553 12.3425 38.4526 12.6132 38.9566 12.9492C39.4793 13.2852 39.9086 13.6679 40.2446 14.0972C40.5993 14.5079 40.8886 14.9372 41.1126 15.3852C41.6353 16.4119 41.934 17.5879 42.0086 18.9132C42.0086 19.7905 41.9246 20.5652 41.7566 21.2372C41.6073 21.9092 41.402 22.5065 41.1406 23.0292ZM34.6166 18.6052C34.2993 18.6052 34.0193 18.7265 33.7766 18.9692C33.5526 19.2119 33.4593 19.4825 33.4966 19.7812C33.534 20.1732 33.646 20.4439 33.8326 20.5932C34.038 20.7425 34.2993 20.8172 34.6166 20.8172C34.934 20.8172 35.1953 20.7239 35.4006 20.5372C35.606 20.3505 35.7086 20.0985 35.7086 19.7812C35.7086 19.4825 35.6153 19.2119 35.4286 18.9692C35.242 18.7265 34.9713 18.6052 34.6166 18.6052Z" fill="#E06B38"/>
<path d="M52.5349 11.0732C53.2442 10.1025 53.9255 9.4492 54.5789 9.1132C55.2509 8.75853 55.8762 8.5812 56.4549 8.5812C56.8655 8.5812 57.2295 8.64653 57.5469 8.7772C57.8829 8.90787 58.1815 9.04787 58.4429 9.1972C58.7229 9.38387 58.9842 9.57987 59.2269 9.7852C59.5815 10.1585 59.8242 10.5412 59.9549 10.9332C60.1042 11.3252 60.1789 11.7265 60.1789 12.1372C60.1789 12.7159 60.0575 13.2665 59.8149 13.7892C59.5909 14.3119 59.3482 14.7785 59.0869 15.1892C58.7509 15.6745 58.3869 16.1319 57.9949 16.5612C58.5175 16.8972 59.0309 17.3172 59.5349 17.8212C60.0389 18.3252 60.4775 18.8759 60.8509 19.4732C61.2242 20.0519 61.5229 20.6585 61.7469 21.2932C61.9895 21.9279 62.1109 22.5345 62.1109 23.1132C62.1109 23.6172 61.9989 24.0839 61.7749 24.5132C61.5509 24.9425 61.2615 25.3159 60.9069 25.6332C60.5522 25.9319 60.1509 26.1652 59.7029 26.3332C59.2549 26.5012 58.8162 26.5852 58.3869 26.5852C57.7709 26.5852 57.2015 26.4359 56.6789 26.1372C56.1749 25.8385 55.6989 25.4652 55.2509 25.0172C54.8215 24.5692 54.4389 24.0839 54.1029 23.5612C53.7669 23.0199 53.4775 22.5159 53.2349 22.0492C53.0109 21.5825 52.8335 21.1812 52.7029 20.8452C52.5722 20.5092 52.4975 20.3132 52.4789 20.2572C52.4789 20.2945 52.4789 20.3692 52.4789 20.4812C52.4975 20.5932 52.5069 20.7425 52.5069 20.9292C52.5069 21.3585 52.4602 21.8999 52.3669 22.5532C52.2922 23.2065 52.1149 23.8412 51.8349 24.4572C51.5549 25.0732 51.1349 25.6052 50.5749 26.0532C50.0335 26.4825 49.2869 26.6972 48.3349 26.6972C47.5509 26.6972 46.8975 26.5105 46.3749 26.1372C45.8522 25.7452 45.4322 25.3252 45.1149 24.8772C44.7975 24.4105 44.5735 23.9905 44.4429 23.6172C44.3122 23.2252 44.2469 23.0199 44.2469 23.0012C43.9855 21.9372 43.7989 20.8545 43.6869 19.7532C43.5749 18.6519 43.5189 17.5785 43.5189 16.5332C43.5189 15.5252 43.5469 14.5825 43.6029 13.7052C43.6775 12.8092 43.7615 12.0345 43.8549 11.3812C43.9482 10.6159 44.0602 9.90653 44.1909 9.2532C44.2842 8.8612 44.4055 8.4412 44.5549 7.9932C44.7042 7.52653 44.9189 7.0972 45.1989 6.7052C45.4975 6.3132 45.8895 5.98653 46.3749 5.7252C46.8602 5.4452 47.4855 5.3052 48.2509 5.3052C48.9789 5.3052 49.5855 5.4452 50.0709 5.7252C50.5749 6.0052 50.9855 6.35987 51.3029 6.7892C51.6202 7.19987 51.8629 7.6572 52.0309 8.1612C52.1989 8.64653 52.3202 9.10387 52.3949 9.5332C52.4695 9.96253 52.5069 10.3265 52.5069 10.6252C52.5255 10.9052 52.5349 11.0545 52.5349 11.0732Z" fill="#E06B38"/>
<path d="M71.1186 7.7132C71.1559 8.12387 71.0999 8.5252 70.9506 8.9172C70.8199 9.3092 70.6146 9.66387 70.3346 9.9812C70.0732 10.2799 69.7466 10.5319 69.3546 10.7372C68.9626 10.9239 68.5332 11.0452 68.0666 11.1012C67.5812 11.1572 67.1239 11.1292 66.6946 11.0172C66.2839 10.8865 65.9106 10.6999 65.5746 10.4572C65.2386 10.2145 64.9586 9.9252 64.7346 9.5892C64.5292 9.23453 64.3986 8.84253 64.3426 8.4132C64.3052 8.00253 64.3519 7.61053 64.4826 7.2372C64.6319 6.8452 64.8466 6.49987 65.1266 6.2012C65.4066 5.88387 65.7426 5.62253 66.1346 5.4172C66.5266 5.21187 66.9559 5.0812 67.4226 5.0252C67.8892 4.9692 68.3279 5.00653 68.7386 5.1372C69.1679 5.2492 69.5506 5.42653 69.8866 5.6692C70.2226 5.91187 70.5026 6.21053 70.7266 6.5652C70.9506 6.91987 71.0812 7.30253 71.1186 7.7132ZM72.3226 23.4492C72.1732 24.2892 71.8839 24.9332 71.4546 25.3812C71.0252 25.8105 70.5866 26.1279 70.1386 26.3332C69.5972 26.5572 69.0186 26.6785 68.4026 26.6972C67.5999 26.7345 66.9466 26.6225 66.4426 26.3612C65.9386 26.1185 65.5372 25.8385 65.2386 25.5212C64.9026 25.1665 64.6319 24.7465 64.4266 24.2612C64.0532 23.2532 63.8292 22.2172 63.7546 21.1532C63.6986 20.0705 63.7172 19.0812 63.8106 18.1852C63.9039 17.1585 64.0719 16.1505 64.3146 15.1612C64.5386 14.3025 64.8652 13.6585 65.2946 13.2292C65.7426 12.7812 66.1812 12.4545 66.6106 12.2492C67.1146 12.0252 67.6466 11.9039 68.2066 11.8852C69.0652 11.8479 69.7559 11.9972 70.2786 12.3332C70.8199 12.6505 71.2492 13.0239 71.5666 13.4532C71.9212 13.9385 72.1826 14.5172 72.3506 15.1892C72.4812 15.8052 72.5839 16.5239 72.6586 17.3452C72.7146 18.0545 72.7239 18.9225 72.6866 19.9492C72.6679 20.9572 72.5466 22.1239 72.3226 23.4492Z" fill="#E06B38"/>
<path d="M102.938 21.2372C102.714 21.9839 102.406 22.6372 102.014 23.1972C101.622 23.7385 101.183 24.2052 100.698 24.5972C100.213 24.9892 99.6899 25.3065 99.1299 25.5492C98.5886 25.7919 98.0473 25.9879 97.5059 26.1372C96.2179 26.4732 94.8459 26.6225 93.3899 26.5852C92.2699 26.6039 91.3459 26.4919 90.6179 26.2492C89.8899 25.9879 89.3019 25.6985 88.8539 25.3812C88.3313 25.0265 87.9113 24.6252 87.5939 24.1772C87.3139 23.7105 87.0993 23.1879 86.9499 22.6092C86.8193 22.0305 86.7259 21.4519 86.6699 20.8732C86.6139 20.2759 86.5859 19.6972 86.5859 19.1372C86.5859 18.5585 86.5859 18.0265 86.5859 17.5412C86.5859 16.5519 86.6139 15.6465 86.6699 14.8252C86.7259 13.9852 86.8006 13.2572 86.8939 12.6412C86.9686 11.9132 87.0713 11.2599 87.2019 10.6812C87.2953 10.1025 87.4539 9.59853 87.6779 9.1692C87.9019 8.73987 88.1539 8.37587 88.4339 8.0772C88.7326 7.75987 89.0406 7.49853 89.3579 7.2932C89.6939 7.08787 90.0299 6.9292 90.3659 6.8172C91.1313 6.5372 91.9806 6.41587 92.9139 6.4532C93.8099 6.4532 94.6313 6.51853 95.3779 6.6492C96.1246 6.7612 96.7966 6.91987 97.3939 7.1252C97.9913 7.31187 98.5233 7.53587 98.9899 7.7972C99.4753 8.05853 99.9046 8.31987 100.278 8.5812C101.137 9.21587 101.809 9.93453 102.294 10.7372C102.761 11.5399 103.106 12.4639 103.33 13.5092C103.423 13.9572 103.498 14.4612 103.554 15.0212C103.629 15.5625 103.657 16.1599 103.638 16.8132C103.619 17.4665 103.554 18.1665 103.442 18.9132C103.349 19.6412 103.181 20.4159 102.938 21.2372ZM95.1819 15.5252C94.8646 15.5252 94.5939 15.6092 94.3699 15.7772C94.1646 15.9265 94.0619 16.2345 94.0619 16.7012C94.0619 17.1492 94.1646 17.4385 94.3699 17.5692C94.5939 17.6812 94.8646 17.7372 95.1819 17.7372C95.4993 17.7372 95.7606 17.6439 95.9659 17.4572C96.1713 17.2705 96.2739 17.0185 96.2739 16.7012C96.2739 16.4025 96.1806 16.1319 95.9939 15.8892C95.8073 15.6465 95.5366 15.5252 95.1819 15.5252Z" fill="#E06B38"/>
<path d="M119.727 23.0292C119.428 23.5705 119.073 24.0465 118.663 24.4572C118.271 24.8492 117.888 25.1759 117.515 25.4372C117.085 25.7545 116.647 26.0065 116.199 26.1932C115.825 26.3425 115.461 26.4545 115.107 26.5292C114.771 26.6225 114.472 26.6879 114.211 26.7252C113.893 26.7812 113.613 26.8092 113.371 26.8092C112.344 26.8092 111.439 26.7065 110.655 26.5012C109.889 26.2959 109.217 26.0345 108.639 25.7172C108.06 25.3812 107.565 24.9985 107.155 24.5692C106.763 24.1399 106.445 23.7012 106.203 23.2532C105.587 22.2265 105.251 21.0412 105.195 19.6972C105.195 18.6145 105.307 17.6812 105.531 16.8972C105.773 16.0945 106.081 15.4132 106.455 14.8532C106.847 14.2745 107.285 13.7985 107.771 13.4252C108.275 13.0519 108.779 12.7532 109.283 12.5292C110.477 12.0065 111.84 11.7732 113.371 11.8292C114.267 11.8292 115.06 11.9319 115.751 12.1372C116.441 12.3425 117.039 12.6132 117.543 12.9492C118.065 13.2852 118.495 13.6679 118.831 14.0972C119.185 14.5079 119.475 14.9372 119.699 15.3852C120.221 16.4119 120.52 17.5879 120.595 18.9132C120.595 19.7905 120.511 20.5652 120.343 21.2372C120.193 21.9092 119.988 22.5065 119.727 23.0292ZM113.203 18.6052C112.885 18.6052 112.605 18.7265 112.363 18.9692C112.139 19.2119 112.045 19.4825 112.083 19.7812C112.12 20.1732 112.232 20.4439 112.419 20.5932C112.624 20.7425 112.885 20.8172 113.203 20.8172C113.52 20.8172 113.781 20.7239 113.987 20.5372C114.192 20.3505 114.295 20.0985 114.295 19.7812C114.295 19.4825 114.201 19.2119 114.015 18.9692C113.828 18.7265 113.557 18.6052 113.203 18.6052Z" fill="#E06B38"/>
<path d="M131.121 11.0732C131.83 10.1025 132.511 9.4492 133.165 9.1132C133.837 8.75853 134.462 8.5812 135.041 8.5812C135.451 8.5812 135.815 8.64653 136.133 8.7772C136.469 8.90787 136.767 9.04787 137.029 9.1972C137.309 9.38387 137.57 9.57987 137.813 9.7852C138.167 10.1585 138.41 10.5412 138.541 10.9332C138.69 11.3252 138.765 11.7265 138.765 12.1372C138.765 12.7159 138.643 13.2665 138.401 13.7892C138.177 14.3119 137.934 14.7785 137.673 15.1892C137.337 15.6745 136.973 16.1319 136.581 16.5612C137.103 16.8972 137.617 17.3172 138.121 17.8212C138.625 18.3252 139.063 18.8759 139.437 19.4732C139.81 20.0519 140.109 20.6585 140.333 21.2932C140.575 21.9279 140.697 22.5345 140.697 23.1132C140.697 23.6172 140.585 24.0839 140.361 24.5132C140.137 24.9425 139.847 25.3159 139.493 25.6332C139.138 25.9319 138.737 26.1652 138.289 26.3332C137.841 26.5012 137.402 26.5852 136.973 26.5852C136.357 26.5852 135.787 26.4359 135.265 26.1372C134.761 25.8385 134.285 25.4652 133.837 25.0172C133.407 24.5692 133.025 24.0839 132.689 23.5612C132.353 23.0199 132.063 22.5159 131.821 22.0492C131.597 21.5825 131.419 21.1812 131.289 20.8452C131.158 20.5092 131.083 20.3132 131.065 20.2572C131.065 20.2945 131.065 20.3692 131.065 20.4812C131.083 20.5932 131.093 20.7425 131.093 20.9292C131.093 21.3585 131.046 21.8999 130.953 22.5532C130.878 23.2065 130.701 23.8412 130.421 24.4572C130.141 25.0732 129.721 25.6052 129.161 26.0532C128.619 26.4825 127.873 26.6972 126.921 26.6972C126.137 26.6972 125.483 26.5105 124.961 26.1372C124.438 25.7452 124.018 25.3252 123.701 24.8772C123.383 24.4105 123.159 23.9905 123.029 23.6172C122.898 23.2252 122.833 23.0199 122.833 23.0012C122.571 21.9372 122.385 20.8545 122.273 19.7532C122.161 18.6519 122.105 17.5785 122.105 16.5332C122.105 15.5252 122.133 14.5825 122.189 13.7052C122.263 12.8092 122.347 12.0345 122.441 11.3812C122.534 10.6159 122.646 9.90653 122.777 9.2532C122.87 8.8612 122.991 8.4412 123.141 7.9932C123.29 7.52653 123.505 7.0972 123.785 6.7052C124.083 6.3132 124.475 5.98653 124.961 5.7252C125.446 5.4452 126.071 5.3052 126.837 5.3052C127.565 5.3052 128.171 5.4452 128.657 5.7252C129.161 6.0052 129.571 6.35987 129.889 6.7892C130.206 7.19987 130.449 7.6572 130.617 8.1612C130.785 8.64653 130.906 9.10387 130.981 9.5332C131.055 9.96253 131.093 10.3265 131.093 10.6252C131.111 10.9052 131.121 11.0545 131.121 11.0732Z" fill="#E06B38"/>
<path d="M149.704 7.7132C149.742 8.12387 149.686 8.5252 149.536 8.9172C149.406 9.3092 149.201 9.66387 148.921 9.9812C148.659 10.2799 148.333 10.5319 147.941 10.7372C147.549 10.9239 147.119 11.0452 146.653 11.1012C146.167 11.1572 145.71 11.1292 145.281 11.0172C144.87 10.8865 144.497 10.6999 144.161 10.4572C143.825 10.2145 143.545 9.9252 143.321 9.5892C143.115 9.23453 142.985 8.84253 142.929 8.4132C142.891 8.00253 142.938 7.61053 143.069 7.2372C143.218 6.8452 143.433 6.49987 143.713 6.2012C143.993 5.88387 144.329 5.62253 144.721 5.4172C145.113 5.21187 145.542 5.0812 146.008 5.0252C146.475 4.9692 146.914 5.00653 147.325 5.1372C147.754 5.2492 148.137 5.42653 148.473 5.6692C148.809 5.91187 149.089 6.21053 149.312 6.5652C149.536 6.91987 149.667 7.30253 149.704 7.7132ZM150.909 23.4492C150.759 24.2892 150.47 24.9332 150.041 25.3812C149.611 25.8105 149.173 26.1279 148.725 26.3332C148.183 26.5572 147.605 26.6785 146.989 26.6972C146.186 26.7345 145.533 26.6225 145.029 26.3612C144.525 26.1185 144.123 25.8385 143.825 25.5212C143.489 25.1665 143.218 24.7465 143.013 24.2612C142.639 23.2532 142.415 22.2172 142.34 21.1532C142.285 20.0705 142.303 19.0812 142.396 18.1852C142.49 17.1585 142.658 16.1505 142.9 15.1612C143.124 14.3025 143.451 13.6585 143.881 13.2292C144.329 12.7812 144.767 12.4545 145.197 12.2492C145.701 12.0252 146.233 11.9039 146.793 11.8852C147.651 11.8479 148.342 11.9972 148.865 12.3332C149.406 12.6505 149.835 13.0239 150.153 13.4532C150.507 13.9385 150.769 14.5172 150.937 15.1892C151.067 15.8052 151.17 16.5239 151.245 17.3452C151.301 18.0545 151.31 18.9225 151.273 19.9492C151.254 20.9572 151.133 22.1239 150.909 23.4492Z" fill="#E06B38"/>
</svg>
