<svg width="166" height="174" viewBox="0 0 166 174" fill="none" xmlns="http://www.w3.org/2000/svg">
<path d="M52.1319 170.932C56.9876 173.329 63.326 173.678 68.7398 173.81C72.179 173.893 76.8138 174.01 80.2474 173.81C86.8199 173.426 94.894 172.763 100.386 169.756C100.895 169.477 97.5966 148.495 94.7986 139.849C94.2218 139.769 93.6348 139.807 93.0733 139.961C92.9222 142.757 92.4472 145.566 91.33 148.133C90.2129 150.701 88.4159 153.024 86.0135 154.46C84.2041 155.544 82.1191 156.095 80.0293 156.376C74.7032 157.093 69.0203 156.028 64.7255 152.799C60.2219 149.414 58.1888 144.262 58.5816 138.755C56.0235 137.3 56.3965 142.69 56.2482 144.051C55.9385 146.91 55.6174 149.769 55.285 152.625C54.9526 155.482 54.6098 158.338 54.2566 161.192C54.1584 161.986 51.7655 170.756 52.1319 170.932Z" fill="#E05656"/>
<path d="M75.339 164.598C75.1083 164.598 74.8796 164.554 74.6662 164.466C74.4527 164.378 74.2586 164.249 74.095 164.086C73.9315 163.924 73.8016 163.73 73.7129 163.517C73.6241 163.304 73.5782 163.076 73.5779 162.845L73.5703 159.721C73.5697 159.49 73.6145 159.262 73.7023 159.048C73.7901 158.835 73.919 158.641 74.0818 158.477C74.2445 158.314 74.4379 158.184 74.6509 158.095C74.8639 158.006 75.0922 157.96 75.323 157.96C75.5538 157.959 75.7824 158.004 75.9959 158.092C76.2093 158.18 76.4034 158.309 76.567 158.471C76.7307 158.634 76.8606 158.827 76.9495 159.04C77.0384 159.253 77.0845 159.482 77.0851 159.713L77.0927 162.836C77.0932 163.067 77.0482 163.296 76.9603 163.509C76.8725 163.723 76.7435 163.917 76.5806 164.08C76.4178 164.244 76.2243 164.374 76.0113 164.462C75.7983 164.551 75.5698 164.597 75.339 164.598Z" fill="#FFF9F2"/>
<path d="M76.3646 159.858V161.841C76.0457 161.668 75.6887 161.578 75.3259 161.578C74.9631 161.578 74.606 161.668 74.2871 161.841V159.858C74.2864 159.583 74.3951 159.318 74.5894 159.123C74.7836 158.927 75.0475 158.817 75.323 158.816C75.5985 158.816 75.8631 158.924 76.0584 159.119C76.2537 159.313 76.3639 159.577 76.3646 159.852V159.858Z" fill="#FAB292"/>
<path d="M78.9484 164.589C79.1792 164.589 79.4076 164.543 79.6207 164.454C79.8337 164.365 80.0271 164.235 80.1899 164.072C80.3527 163.908 80.4817 163.714 80.5694 163.501C80.6571 163.287 80.7018 163.059 80.7011 162.828L80.6935 159.704C80.693 159.473 80.6471 159.245 80.5583 159.032C80.4695 158.819 80.3397 158.625 80.1761 158.462C80.0126 158.3 79.8186 158.171 79.6052 158.083C79.3918 157.995 79.1632 157.95 78.9324 157.95C78.7016 157.951 78.4732 157.997 78.2602 158.086C78.0472 158.175 77.8538 158.305 77.6911 158.469C77.5283 158.632 77.3994 158.826 77.3117 159.04C77.2239 159.253 77.1791 159.482 77.1797 159.713L77.1872 162.836C77.1876 163.067 77.2335 163.296 77.3222 163.509C77.411 163.722 77.5409 163.915 77.7044 164.078C77.868 164.241 78.0621 164.37 78.2755 164.457C78.489 164.545 78.7176 164.59 78.9484 164.589Z" fill="#FFF9F2"/>
<path d="M77.8945 159.854V161.837C78.2131 161.664 78.5699 161.573 78.9326 161.572C79.2953 161.571 79.6525 161.66 79.9721 161.832V159.849C79.9721 159.573 79.8626 159.309 79.6678 159.114C79.473 158.919 79.2088 158.81 78.9333 158.81C78.6578 158.81 78.3936 158.919 78.1988 159.114C78.004 159.309 77.8945 159.573 77.8945 159.849V159.854Z" fill="#FAB292"/>
<path d="M77.1644 170.541C80.6691 170.533 83.505 168.362 83.4985 165.694C83.492 163.025 80.6455 160.869 77.1408 160.877C73.6361 160.886 70.8002 163.056 70.8067 165.725C70.8132 168.393 73.6597 170.55 77.1644 170.541Z" fill="#FFF9F2"/>
<path d="M75.9748 163.638C75.9748 163.947 75.6509 164.198 75.2496 164.199C74.8482 164.2 74.5224 163.951 74.5215 163.642C74.5205 163.333 74.8454 163.082 75.2467 163.081C75.6481 163.08 75.9739 163.329 75.9748 163.638Z" fill="#FAB292"/>
<path d="M79.7736 163.517C79.7736 163.826 79.4497 164.077 79.0484 164.078C78.6471 164.079 78.3213 163.83 78.3203 163.521C78.3194 163.212 78.6442 162.961 79.0456 162.96C79.4469 162.959 79.7727 163.209 79.7736 163.517Z" fill="#FAB292"/>
<path d="M77.0915 163.644L77.0254 163.644L77.028 164.731L77.0942 164.731L77.0915 163.644Z" fill="#944C2C"/>
<path d="M77.5928 163.316C77.5928 163.555 77.351 163.749 77.0507 163.75C76.7504 163.751 76.5068 163.561 76.5059 163.319C76.5049 163.077 76.7486 162.886 77.0489 162.885C77.3491 162.884 77.5928 163.077 77.5928 163.316Z" fill="#944C2C"/>
<path d="M76.0324 162.982C76.0335 163.058 76.012 163.132 75.9705 163.196C75.9291 163.26 75.8696 163.31 75.7997 163.34C75.7297 163.37 75.6525 163.378 75.5777 163.364C75.503 163.35 75.4341 163.314 75.3799 163.261C75.3258 163.207 75.2887 163.139 75.2734 163.064C75.2582 162.99 75.2654 162.912 75.2943 162.842C75.3231 162.772 75.3722 162.711 75.4354 162.669C75.4986 162.627 75.5729 162.604 75.649 162.604C75.7498 162.604 75.8466 162.643 75.9184 162.714C75.9902 162.785 76.0311 162.881 76.0324 162.982Z" fill="#944C2C"/>
<path d="M78.7975 162.98C78.7977 163.052 78.7766 163.122 78.7369 163.181C78.6972 163.241 78.6407 163.288 78.5745 163.315C78.5083 163.343 78.4354 163.35 78.3651 163.337C78.2947 163.323 78.23 163.288 78.1791 163.238C78.1283 163.187 78.0936 163.123 78.0794 163.052C78.0652 162.982 78.0722 162.909 78.0995 162.843C78.1268 162.777 78.1731 162.72 78.2326 162.68C78.2922 162.64 78.3622 162.618 78.4339 162.618C78.4816 162.618 78.5287 162.627 78.5728 162.645C78.6168 162.664 78.6569 162.69 78.6906 162.724C78.7244 162.757 78.7512 162.797 78.7695 162.841C78.7879 162.885 78.7974 162.932 78.7975 162.98Z" fill="#944C2C"/>
<path d="M64.0313 152.498C67.0144 154.9 71.4613 155.536 75.2688 155.992C77.2869 156.232 79.3568 156.37 81.3314 155.888C83.9614 155.252 86.2297 153.57 88.1145 151.628C91.024 148.633 93.2649 144.617 92.8607 140.461C92.0108 140.024 91.1052 139.816 90.1883 140.083C84.1861 141.806 77.9781 142.029 71.7502 141.587C68.5849 141.362 62.5742 139.681 59.4579 139.233C56.3851 138.791 58.15 142.366 58.9348 144.987C59.7969 147.87 61.6554 150.584 64.0313 152.498Z" fill="#FFF9F2"/>
<path d="M66.5124 146.897C68.8903 148.397 71.6968 149.148 74.5052 149.276C75.7414 149.333 77.0001 149.269 78.1777 148.886C79.0607 148.603 79.8775 148.138 80.6859 147.681C82.6945 146.548 84.788 145.33 85.9921 143.362C79.3034 146.049 71.3616 145.386 65.2111 141.628C64.5973 141.25 63.3593 140.201 62.5812 140.495C61.7313 140.808 61.8947 141.699 62.1638 142.352C62.9268 144.202 64.8665 145.86 66.5124 146.897Z" fill="#FFF9F2"/>
<path d="M134.339 107.912C134.258 106.163 134.13 105.614 133.278 104.059C132.239 102.17 129.643 101.596 127.834 100.584C123.962 98.4182 120.759 94.2442 117.465 91.2696C114.119 88.2546 111.166 84.8296 108.677 81.0756C106.171 77.2822 104.295 73.1224 101.86 69.2866C97.5608 62.5119 90.2347 56.1604 81.6054 57.9433C76.5835 58.982 73.0281 63.3165 69.1082 66.2864C64.5839 69.7134 59.7593 72.722 55.0518 75.8827C45.4329 82.3372 36.7006 89.9797 29.4605 99.0528C29.4573 99.0591 29.4535 99.0651 29.4491 99.0707C26.314 99.4853 22.7208 100.597 21.6282 103.442C20.0549 107.539 21.2627 113.272 23.6113 116.836C26.3498 120.991 30.9667 122.652 35.7743 122.575L36.5033 122.564C39.511 128.392 44.3412 132.935 50.2754 136.011C52.9828 137.413 55.7525 138.772 58.6931 139.614C59.9963 139.991 61.4005 140.332 62.7594 140.411C64.4743 140.511 66.1382 141.239 67.9211 141.544C69.8476 141.857 71.7942 142.03 73.7458 142.061C76.4758 142.115 79.2002 141.842 81.9133 141.581C86.2836 141.159 90.6672 140.969 94.9856 140.281C95.6939 139.96 96.4021 139.646 97.1104 139.317C101.36 137.334 105.376 134.964 109.112 132.127C110.877 130.797 112.544 129.342 114.102 127.775C114.9 126.966 115.621 125.98 116.47 125.241C117.596 124.254 118.617 123.361 120.078 123.286C128.44 122.866 134.717 116.203 134.339 107.912Z" fill="#FDEFE8"/>
<path d="M32.5785 102.185C38.0216 98.2103 42.8301 95.4642 49.4763 93.8353C59.2794 91.4319 69.4867 91.2572 79.5164 91.8333C86.9558 92.2611 93.9647 93.0855 101.33 94.247C108.255 95.3377 115.6 97.8638 121.634 102.085C121.992 100.574 122.529 97.9884 122.653 96.4388C120.879 94.6908 119.186 92.8173 117.47 91.2667C114.123 88.2517 111.17 84.8266 108.681 81.0726C106.176 77.2793 104.299 73.1195 101.865 69.2836C97.5654 62.509 90.2393 56.1574 81.61 57.9403C76.588 58.9791 73.0326 63.3136 69.1127 66.2835C64.5884 69.7105 59.7639 72.7191 55.0564 75.8798C46.5055 81.6175 38.6581 88.2977 31.9316 96.0884C32.0771 98.1291 32.2083 100.177 32.5785 102.185Z" fill="#FCE4D8"/>
<path d="M132.376 79.6032C131.267 75.3537 129.977 71.1439 128.152 67.1551C127.956 66.8596 127.786 66.5474 127.645 66.2221C126.337 64.2437 123.407 58.3964 121.936 56.5351C119.197 53.077 116.145 49.8738 112.74 47.0701C109.907 44.7423 106.846 42.7262 103.641 40.9603C94.1122 35.7042 80.8199 34.0988 70.148 35.6362C58.7858 37.2708 48.6022 43.0945 39.9143 50.3923C34.5496 54.9024 30.5891 61.8234 27.5153 68.4818C24.0213 76.0535 23.1714 82.4579 23.6067 90.87C23.7011 92.652 23.6124 96.8571 25.3301 98.2481C26.3821 99.098 28.2216 98.7127 29.7685 98.3548C30.9498 98.741 31.6203 98.0951 32.5146 97.1441C32.7034 96.9421 32.6534 96.4302 32.8583 96.265C33.5382 95.7144 37.5233 93.8815 38.4015 93.6681C40.5774 93.1513 42.7116 92.4723 44.7861 91.6368C45.0241 91.5424 45.2715 91.4649 45.5123 91.3752C46.0591 87.6923 47.9024 86.2088 48.7599 82.5864C49.0224 81.4777 49.9535 79.8601 49.6919 80.9678C49.6919 80.9829 51.1651 79.6457 51.1613 79.6637C51.4276 79.726 52.0225 79.7241 52.1056 80.081C52.6817 82.7082 51.4673 86.8651 52.1132 89.4762C62.515 87.2325 74.3606 87.7112 84.5178 88.1078C88.4368 88.2608 91.1725 88.4582 95.0112 89.1636C94.9886 87.9539 96.0849 87.0058 95.9556 85.8027C95.9036 85.324 96.4022 84.9179 96.8404 84.9179C97.3551 84.9179 97.6733 85.3277 97.7252 85.8027C97.8688 87.1248 98.8584 88.258 98.8754 89.5801C103.556 90.5386 107.703 91.9598 111.932 93.6303C112.144 93.5132 112.39 93.4722 112.629 93.5141C114.228 93.7804 115.83 94.0618 117.385 94.5312C118.882 94.9826 120.829 95.6455 121.607 97.1319C121.717 97.3285 121.743 97.5604 121.682 97.7768C121.708 98.0257 121.641 98.2755 121.493 98.4775C121.678 98.9823 121.738 99.5244 121.668 100.057C121.445 101.559 122.801 102.841 124.271 102.059C126.021 101.128 128.311 101.538 129.849 100.413C131.23 99.403 130.872 97.1706 131.339 95.6993C132.937 90.6632 132.982 84.0255 132.332 79.6221C132.346 79.6137 132.361 79.6073 132.376 79.6032Z" fill="#725440"/>
<path d="M132.754 84.6904C132.754 84.6574 132.226 81.797 132.221 81.763C132.076 80.7564 131.886 79.7384 131.664 78.7166C130.201 78.4369 128.78 77.971 127.435 77.3303C123.966 75.6683 120.236 73.2697 118.116 70.0939C116.788 68.1108 115.52 66.2685 114.339 64.1947C114.602 65.7717 115.401 67.327 115.398 68.8842C115.392 71.4736 115.39 74.3085 112.769 75.5947C109.464 77.217 105.388 74.6437 103.021 72.4614C99.7889 69.483 97.5622 65.5366 95.4006 61.7612C93.7953 58.9593 92.8585 54.5899 90.7847 52.0648C90.8622 52.7778 91.5676 54.724 91.6346 55.4361C92.1143 60.5826 92.7338 68.2298 90.5704 73.1734C86.4814 82.5147 71.0095 81.9321 62.9959 78.9895C57.2412 76.8771 57.4905 65.1504 58.1884 60.6346C58.6747 57.4824 59.4774 54.3888 60.4321 51.3452C58.7465 53.2216 57.4839 55.4823 56.3403 57.7223C55.0607 60.2295 53.8633 62.7678 52.6678 65.3166C51.5138 67.7718 50.307 70.2328 48.7961 72.4935C47.5174 74.402 45.9385 76.4096 43.81 77.4125C42.453 78.0518 40.8609 78.473 39.416 77.8677C38.1554 77.3398 37.3989 76.1792 36.9466 74.9402C35.7719 71.7163 36.2176 67.8578 36.7407 64.5526C36.9151 63.4503 37.1355 62.3558 37.4018 61.2692C35.7832 63.8793 34.582 66.751 33.53 69.6567C32.8104 71.654 32.1447 73.6701 31.4242 75.6674C30.8292 77.3133 30.2494 79.0481 29.2135 80.4834C28.6082 81.3192 27.7809 82.1568 26.6855 82.2144C25.7969 82.2616 25.0235 81.7611 24.4786 81.0944C24.2843 80.8553 24.1069 80.6029 23.9479 80.339C23.4861 83.6347 23.4134 87.0437 23.6108 90.8749C23.7052 92.6568 23.6165 96.8619 25.3332 98.2529C26.3862 99.1028 28.2257 98.7175 29.7716 98.3596C30.9539 98.7458 31.6244 98.0999 32.5186 97.149C32.7075 96.9469 32.6575 96.436 32.8624 96.2698C33.5423 95.7193 37.5274 93.8863 38.4056 93.6729C40.5815 93.1561 42.7157 92.4771 44.7902 91.6416C45.0282 91.5472 45.2756 91.4698 45.5164 91.3801C46.0632 87.6972 47.9065 86.2136 48.764 82.5912C49.0265 81.4826 49.9585 79.8649 49.696 80.9726C49.696 80.9877 51.1692 79.6506 51.1654 79.6685C51.4317 79.7308 52.0266 79.7289 52.1097 80.0859C52.6858 82.713 51.4713 86.8699 52.1173 89.481C62.5191 87.2373 74.3647 87.7161 84.5219 88.1127C88.4409 88.2657 91.1776 88.463 95.0153 89.1684C94.9917 87.9588 96.089 87.0107 95.9597 85.8076C95.9077 85.3288 96.4063 84.9227 96.8445 84.9227C97.3592 84.9227 97.6774 85.3326 97.7293 85.8076C97.8729 87.1296 98.8625 88.2628 98.8795 89.5849C103.56 90.5434 107.707 91.9646 111.936 93.6351C112.148 93.518 112.394 93.4771 112.633 93.519C114.232 93.7853 115.834 94.0667 117.389 94.536C118.887 94.9874 120.833 95.6503 121.611 97.1367C121.721 97.3334 121.747 97.5653 121.686 97.7817C121.712 98.0306 121.645 98.2803 121.497 98.4824C121.682 98.9872 121.742 99.5293 121.671 100.062C121.449 101.564 122.804 102.846 124.275 102.064C126.025 101.133 128.315 101.543 129.853 100.418C131.234 99.4078 131.139 97.234 131.344 95.7042C131.937 91.2564 133.404 89.0938 132.754 84.6904Z" fill="#725440"/>
<path opacity="0.25" d="M51.0523 115.858C55.5318 115.858 59.1631 113.116 59.1631 109.734C59.1631 106.352 55.5318 103.61 51.0523 103.61C46.5728 103.61 42.9414 106.352 42.9414 109.734C42.9414 113.116 46.5728 115.858 51.0523 115.858Z" fill="#FAB292"/>
<path opacity="0.25" d="M102.341 116.866C106.821 116.866 110.452 114.124 110.452 110.742C110.452 107.359 106.821 104.618 102.341 104.618C97.8618 104.618 94.2305 107.359 94.2305 110.742C94.2305 114.124 97.8618 116.866 102.341 116.866Z" fill="#FAB292"/>
<path d="M78.2567 106.498C80.0758 106.498 81.5505 105.646 81.5505 104.596C81.5505 103.545 80.0758 102.694 78.2567 102.694C76.4376 102.694 74.9629 103.545 74.9629 104.596C74.9629 105.646 76.4376 106.498 78.2567 106.498Z" fill="#FF8685"/>
<path d="M70.0554 36.9877C43.5697 40.8424 17.3108 67.9248 26.0401 96.1027C26.0751 96.2151 26.2743 96.1971 26.2573 96.0734C24.4216 82.239 27.7994 68.4395 36.6856 57.5032C45.2516 46.9617 57.2247 40.5195 70.2036 37.4646C71.1262 37.2474 70.9449 36.8583 70.0554 36.9877Z" fill="#725440"/>
<path d="M127.822 111.306C127.822 111.166 127.812 111.023 127.8 110.88C127.549 107.859 124.911 104.291 121.568 105.831C120.937 106.122 121.112 107.006 121.61 107.299C120.777 110.854 120.145 114.406 119.65 118.023C119.555 118.716 120.075 119.534 120.884 119.259C124.398 118.079 127.9 115.282 127.822 111.306Z" fill="#FCE4D8"/>
<path d="M34.4373 115.888C33.7054 111.797 33.424 107.59 32.9264 103.464C32.9148 103.3 32.8439 103.145 32.7269 103.029C32.6098 102.912 32.4546 102.842 32.2899 102.832C32.0881 102.713 31.8592 102.649 31.6253 102.645C31.3914 102.641 31.1604 102.697 30.9546 102.808C27.9762 104.367 26.0054 107.719 26.4464 111.124C26.893 114.574 29.8157 116.399 32.8385 117.489C33.8575 117.861 34.5988 116.776 34.4373 115.888Z" fill="#FCE4D8"/>
<path d="M1.96282 71.4196C1.67952 73.3611 17.1609 75.3537 20.9335 74.347C21.2753 74.2526 21.8665 75.5095 22.1479 75.5038C22.3263 75.5038 23.8694 76.3801 24.0205 76.3868C25.1697 72.3951 27.2586 68.1475 29.0094 64.373C28.1642 64.0236 25.4474 63.1841 25.4662 63.1841C26.2651 62.7903 12.7036 50.0872 11.4599 51.4026C8.94048 54.0628 3.03936 64.0075 1.96282 71.4196Z" fill="#725440"/>
<path d="M25.7966 63.29C24.5746 65.2429 23.6501 67.4526 22.8229 69.5557C22.1812 71.2292 21.7175 72.9656 21.4395 74.7363C21.7076 75.0753 21.9834 75.5116 22.1515 75.5087C22.3196 75.5059 23.8721 76.3851 24.0231 76.3917C25.1733 72.4 27.2612 68.1524 29.012 64.3779C28.3482 64.1003 26.5426 63.529 25.7966 63.29Z" fill="#E05656"/>
<path d="M23.741 67.4025C24.3076 65.986 24.8893 64.579 25.5711 63.2182C25.5003 63.1946 25.4597 63.1814 25.4616 63.1804C26.2605 62.7866 12.6989 50.0835 11.4553 51.399C10.3693 52.5473 8.65438 55.0516 6.96875 58.1216C7.38726 58.1578 7.80299 58.2208 8.21338 58.3105C11.544 59.0518 14.4998 61.1048 17.0523 63.2918C19.1752 65.1097 21.1129 67.1457 22.9185 69.2836C23.1895 68.6481 23.4955 68.021 23.741 67.4025Z" fill="#725440"/>
<g style="mix-blend-mode:multiply">
<g style="mix-blend-mode:multiply" opacity="0.5">
<path d="M25.7778 63.2832C24.8608 65.3343 24.027 67.426 23.3867 69.5762C23.4516 69.5857 23.515 69.6031 23.5756 69.6282C24.4321 69.9936 25.2131 70.5149 25.9799 71.0446C26.9468 68.7556 28.029 66.4892 29.0102 64.3777C28.3426 64.0972 26.5115 63.5183 25.7778 63.2832Z" fill="#E05656"/>
</g>
</g>
<path d="M24.233 75.214L23.2887 74.7853L22.8713 74.5964C22.7476 74.5398 22.4936 74.3216 22.6267 74.5766C22.7599 74.8316 22.7287 74.4 22.7448 74.2754C22.7608 74.1507 22.7816 74.0081 22.8024 73.875C22.8458 73.5917 22.8968 73.3084 22.9487 73.0317C23.1848 71.8053 23.5182 70.5996 23.9459 69.4262C24.3616 68.2909 24.8701 67.1918 25.4663 66.14C25.6061 65.8919 25.7506 65.6461 25.8998 65.4025C26.014 65.2136 26.2265 64.7112 26.4201 64.5922C26.3257 64.6489 26.3748 64.5866 26.5145 64.6366C26.6543 64.6866 26.8139 64.7235 26.9621 64.766L28.0821 65.0908C29.1785 65.4081 29.6459 63.7017 28.5543 63.3844C27.8111 63.1691 26.896 62.7347 26.1085 62.8348C25.2878 62.9387 24.8865 63.6904 24.488 64.3269C23.6373 65.6952 22.9231 67.1439 22.3557 68.6519C21.7963 70.121 21.3866 71.6428 21.1328 73.1941C21.0251 73.8551 20.7211 74.8354 21.0809 75.4605C21.2999 75.8382 21.7088 75.9978 22.0866 76.1706L23.3397 76.7429C24.3681 77.2151 25.268 75.6881 24.233 75.215V75.214Z" fill="#2D1111"/>
<path d="M21.1688 73.2073C17.2022 73.4199 13.2244 73.1893 9.30894 72.5198C7.45617 72.1978 5.57128 71.8239 3.778 71.2507C2.87711 70.9674 2.76096 70.5471 2.99798 69.6538C3.23973 68.7416 3.53436 67.8397 3.83938 66.9464C5.08455 63.3173 6.7383 59.8416 8.76878 56.5862C9.24158 55.8263 9.73452 55.0787 10.2476 54.3434C10.478 54.0129 10.7125 53.6852 10.9511 53.3603C11.14 53.1082 11.5272 52.3216 11.8341 52.2271C12.2411 52.1034 13.3837 53.2055 13.7227 53.4548C14.4889 54.0295 15.2422 54.621 15.9825 55.2292C19.2279 57.8725 22.2176 60.8151 24.9121 64.018C25.644 64.8925 26.8895 63.6403 26.1633 62.7668C23.4121 59.4976 20.3542 56.4992 17.0317 53.8127C16.3058 53.2228 15.5686 52.6455 14.82 52.0808C14.1042 51.5397 13.2931 50.7172 12.4092 50.4754C11.429 50.2053 10.7188 50.7672 10.1522 51.4972C9.49119 52.3471 8.86699 53.2215 8.26357 54.112C5.88945 57.6444 3.95264 61.4517 2.4956 65.4506C2.12164 66.4705 1.78106 67.5017 1.47384 68.5442C1.20281 69.4649 0.897796 70.4518 1.28497 71.3838C1.60132 72.1393 2.2633 72.5746 3.00554 72.8532C4.07358 73.2536 5.23132 73.4831 6.3428 73.7305C11.2062 74.8108 16.1933 75.2295 21.1688 74.9751C22.302 74.9175 22.3086 73.1469 21.1688 73.2054V73.2073Z" fill="#2D1111"/>
<path d="M21.8903 70.1241C18.8524 70.1864 15.8022 69.5415 12.9277 68.5962C9.99364 67.6311 7.02939 66.2722 4.729 64.1692C4.16996 63.6573 3.33329 64.4893 3.89516 65.003C6.29848 67.2005 9.34489 68.633 12.4064 69.6642C15.4283 70.6841 18.6843 71.3697 21.8903 71.3036C22.6458 71.2875 22.6514 70.1081 21.8903 70.1241Z" fill="#2D1111"/>
<path d="M23.3704 67.5517C19.0828 63.3825 14.1041 59.9892 8.65585 57.5229C7.96932 57.2122 7.36873 58.2293 8.06093 58.5419C13.4201 60.9603 18.3185 64.2914 22.5375 68.3865C23.0824 68.9153 23.9172 68.0824 23.3713 67.5517H23.3704Z" fill="#2D1111"/>
<path d="M154.56 76.7692C154.709 78.7249 139.129 79.6513 135.433 78.3934C135.099 78.2792 134.423 79.4889 134.142 79.4634C133.964 79.4473 132.366 80.2188 132.214 80.2188C131.34 76.1582 129.549 71.7765 128.059 67.8906C128.926 67.595 131.693 66.9463 131.679 66.9387C130.91 66.4921 145.31 54.7484 146.461 56.146C148.795 58.9742 153.995 69.3005 154.56 76.7692Z" fill="#725440"/>
<path d="M131.341 67.0239C132.426 69.0561 133.198 71.3244 133.879 73.4794C134.406 75.1925 134.749 76.9566 134.904 78.7421C134.614 79.0622 134.309 79.4787 134.142 79.4636C133.975 79.4485 132.366 80.219 132.214 80.219C131.34 76.1584 129.549 71.7767 128.059 67.8908C128.74 67.6576 130.581 67.2109 131.341 67.0239Z" fill="#FF7BB1"/>
<path d="M133.11 71.2686C132.646 69.8182 132.158 68.3724 131.57 66.9672C131.608 66.959 131.646 66.949 131.683 66.937C130.913 66.4903 145.313 54.7467 146.463 56.1443C147.468 57.3643 149.007 59.9801 150.479 63.1587C150.059 63.1674 149.64 63.203 149.225 63.2655C145.85 63.7763 142.761 65.6263 140.065 67.6292C137.822 69.2969 135.747 71.195 133.802 73.2007C133.574 72.5482 133.31 71.9013 133.11 71.2686Z" fill="#725440"/>
<g style="mix-blend-mode:multiply">
<g style="mix-blend-mode:multiply">
<path d="M131.362 67.019C132.135 69.1277 132.824 71.2685 133.315 73.4613C133.251 73.4662 133.187 73.4792 133.126 73.5C132.247 73.8059 131.432 74.2724 130.63 74.7427C129.821 72.3989 128.895 70.0655 128.062 67.8888C128.747 67.6555 130.613 67.2032 131.362 67.019Z" fill="#FF5FAF"/>
</g>
</g>
<path d="M132.711 80.673C133.416 80.4077 134.492 80.2065 135.042 79.6721C135.608 79.1196 135.402 78.1866 135.338 77.4812C135.057 74.2365 134.125 71.0815 132.599 68.2041C132.254 67.5506 131.904 66.7432 131.113 66.5534C130.323 66.3636 129.295 66.7744 128.518 66.9434C127.406 67.1842 127.876 68.8906 128.99 68.6498C129.29 68.5847 130.547 68.1909 130.678 68.307C130.772 68.3883 130.937 68.8406 131.022 69.0011C131.158 69.2567 131.29 69.5158 131.418 69.7783C131.954 70.8879 132.397 72.0406 132.74 73.2242C133.08 74.3673 133.329 75.5356 133.483 76.7182C133.555 77.2848 133.532 77.892 133.632 78.4558C133.632 78.5285 133.638 78.6012 133.641 78.6739C133.812 78.4189 133.808 78.3396 133.633 78.4378C133.532 78.4237 133.3 78.5625 133.203 78.5993L132.236 78.9629C131.179 79.3604 131.637 81.0716 132.708 80.6693L132.711 80.673Z" fill="#2D1111"/>
<path d="M135.218 79.0027C139.708 79.5455 144.249 79.528 148.736 78.9508C149.748 78.8195 150.757 78.6675 151.758 78.4786C152.655 78.3134 153.654 78.1953 154.434 77.6807C156.265 76.4672 155.254 73.8514 154.819 72.1648C153.738 67.9939 152.149 63.9715 150.088 60.1879C149.574 59.2436 149.031 58.3166 148.459 57.4069C148.006 56.6873 147.553 55.7174 146.769 55.3095C145.969 54.8921 145.198 55.2424 144.502 55.6721C143.558 56.2545 142.63 56.8585 141.719 57.4843C137.848 60.1284 134.214 63.138 130.963 66.5215C130.173 67.3431 131.423 68.599 132.214 67.7728C134.822 65.0637 137.66 62.5859 140.697 60.3673C142.12 59.3267 143.579 58.3376 145.074 57.4002C145.253 57.2879 145.762 56.8421 145.967 56.8979C146.196 56.9592 146.446 57.5494 146.566 57.7336C147.076 58.5231 147.565 59.326 148.033 60.1426C149.94 63.4772 151.461 67.0183 152.566 70.6973C152.842 71.6152 153.092 72.5404 153.316 73.4727C153.46 74.0724 154.016 75.4615 153.63 76.0394C153.277 76.5673 152.103 76.6173 151.559 76.7203C150.527 76.9158 149.489 77.0829 148.448 77.2142C144.052 77.7597 139.606 77.765 135.209 77.2302C134.076 77.0952 134.091 78.8658 135.209 78.9999L135.218 79.0027Z" fill="#2D1111"/>
<path d="M134.725 75.2876C137.919 75.5709 141.209 75.0987 144.297 74.2923C147.427 73.4736 150.55 72.2355 153.099 70.2071C153.693 69.7349 152.853 68.9049 152.265 69.3733C149.827 71.3129 146.761 72.4471 143.772 73.2091C140.839 73.957 137.751 74.3792 134.725 74.1081C133.969 74.0401 133.969 75.2206 134.725 75.2876Z" fill="#2D1111"/>
<path d="M134.272 72.3035C138.722 68.5394 143.79 65.5753 149.252 63.5429C149.957 63.2804 149.652 62.1396 148.939 62.4097C143.286 64.5111 138.041 67.5786 133.438 71.4753C132.858 71.9663 133.696 72.7973 134.272 72.3091V72.3035Z" fill="#2D1111"/>
<path d="M86.754 107.989C86.1525 107.462 84.7539 107.853 84.041 107.881C82.3638 107.947 80.6858 108.01 79.0077 108.041C76.0264 108.095 72.879 108.507 69.9242 108.118C69.419 108.051 69.0884 108.396 68.9732 108.82C68.9137 108.873 68.8576 108.93 68.8052 108.99C68.6454 109.778 68.5726 110.581 68.588 111.385C68.7287 111.797 68.7022 112.461 68.6966 113.072C68.7523 113.568 68.8231 114.064 68.9052 114.559C69.1085 115.242 69.3939 115.898 69.7551 116.512C70.6909 118.084 72.1178 119.305 73.8158 119.986C77.5591 121.444 83.8993 120.83 86.331 117.276C87.5737 115.459 88.2055 109.256 86.754 107.989Z" fill="#E05656"/>
<path d="M80.0094 114.354C76.3832 114.059 72.8325 114.691 69.4141 115.842C69.5217 116.069 69.6265 116.297 69.754 116.512C70.6898 118.084 72.1166 119.305 73.8146 119.986C77.558 121.444 83.8982 120.83 86.3298 117.276C86.5806 116.875 86.7754 116.441 86.9087 115.987C84.6905 115.148 82.3882 114.547 80.0094 114.354Z" fill="#EC9A9A"/>
<path d="M83.7002 108.134C81.77 107.769 81.227 108.364 79.2619 108.323C77.0748 108.276 75.8094 108.281 73.6327 108.073C72.4532 107.959 72.0491 109.123 73.0661 109.584C75.7102 110.779 81.1222 110.654 83.6426 109.646C84.2649 109.392 84.4132 108.267 83.7002 108.134Z" fill="#FFF9F2"/>
<path d="M69.3169 108.901C74.9253 109.042 80.5384 108.878 86.1477 108.881C86.4546 108.881 86.7634 108.894 87.0713 108.89C87.2139 108.89 87.1959 108.926 87.177 108.89C87.1421 108.82 86.7993 108.573 86.7653 108.623C86.7237 108.693 86.7851 109.001 86.787 109.096C86.8135 110.653 86.7672 112.318 86.4801 113.851C86.143 115.658 85.3337 117.37 83.8445 118.503C82.0814 119.845 79.7112 120.297 77.5392 120.121C74.999 119.911 72.301 118.735 70.9572 116.477C69.4982 114.022 69.6352 111.06 69.7693 108.315C69.8061 107.559 68.6266 107.559 68.5888 108.315C68.4595 110.943 68.3792 113.667 69.4576 116.128C70.4605 118.416 72.4257 119.942 74.7591 120.739C78.9491 122.169 84.4989 121.09 86.686 116.911C87.5708 115.22 87.7852 113.36 87.8909 111.484C87.9391 110.625 87.9986 109.756 87.9618 108.895C87.941 108.398 87.9032 107.857 87.3366 107.727C86.6671 107.572 85.8417 107.699 85.1647 107.701C83.6575 107.708 82.1507 107.718 80.6442 107.73C76.8668 107.756 73.0895 107.813 69.3179 107.719C68.5624 107.7 68.5624 108.879 69.3179 108.898L69.3169 108.901Z" fill="#2D1111"/>
<path d="M119.111 116.859C118.167 123.168 114.079 128.358 109.05 132.063C104.022 135.767 98.0856 138.314 91.9636 139.469C84.5978 140.857 76.9194 140.995 69.4885 140.078C61.9188 139.144 54.3707 136.967 47.7576 133.111C44.358 131.128 41.253 128.59 38.9215 125.391C36.6091 122.214 35.1029 118.522 34.5322 114.634C34.3651 113.511 32.6596 113.988 32.8258 115.106C33.9279 122.472 38.2633 128.762 44.2994 133.007C50.6671 137.484 58.421 140.048 66.0379 141.348C73.908 142.691 81.9754 142.74 89.8728 141.597C96.4198 140.653 102.753 138.392 108.293 134.744C113.728 131.165 118.548 126.1 120.321 119.694C120.534 118.918 120.7 118.129 120.817 117.333C120.983 116.219 119.278 115.738 119.11 116.861L119.111 116.859Z" fill="#2D1111"/>
<path d="M26.727 98.6597C24.4758 91.9908 23.9158 84.8951 25.3379 77.9873C26.7601 71.0796 29.9406 64.6411 34.039 58.9496C41.52 48.5564 53.0568 41.0631 65.5626 38.3538C71.8896 36.9836 78.5736 36.8656 85.0007 37.5171C91.5439 38.1782 98.0466 39.8657 103.954 42.7884C112.538 47.0379 119.347 53.9315 124.347 62.0329C130.41 71.8615 133.282 83.523 130.762 94.9484C130.384 96.6428 129.909 98.3139 129.339 99.9534C128.961 101.032 130.675 101.495 131.045 100.426C133.233 94.0985 133.981 87.3523 133.094 80.708C132.331 74.9863 130.428 69.4752 127.731 64.3824C123.329 56.0723 116.883 48.4818 108.854 43.491C97.3214 36.3216 82.7994 34.195 69.4608 35.9042C56.3459 37.5842 43.9563 44.4221 35.3516 54.4443C30.7603 59.7929 27.0878 66.0935 24.8903 72.8001C22.6655 79.5889 22.1706 86.8489 23.59 93.8587C23.9554 95.6444 24.4332 97.4054 25.0206 99.1309C25.3823 100.205 27.0925 99.7438 26.727 98.6587V98.6597Z" fill="#2D1111"/>
<path d="M31.2373 97.8411C31.5051 101.413 31.9517 104.969 32.5755 108.496C32.6595 108.968 33.2365 109.232 33.6643 109.114C34.161 108.978 34.3659 108.498 34.2819 108.026C33.6867 104.654 33.2613 101.255 33.007 97.8411C32.923 96.7079 31.1523 96.7079 31.2373 97.8411Z" fill="#2D1111"/>
<path d="M123.357 102.57C125.674 100.93 128.709 100.918 130.85 102.885C132.78 104.658 133.501 107.259 133.432 109.813C133.307 114.486 130.285 118.516 126.255 120.68C123.926 121.928 121.309 122.539 118.668 122.453C117.53 122.416 117.535 124.186 118.668 124.223C124.124 124.396 129.545 121.781 132.7 117.308C135.855 112.836 136.434 105.719 132.181 101.708C129.491 99.1726 125.476 98.9091 122.462 101.047C121.539 101.7 122.422 103.235 123.355 102.575L123.357 102.57Z" fill="#2D1111"/>
<path d="M31.326 97.6644C28.493 97.5889 25.592 98.1366 23.3445 99.9526C21.6041 101.36 20.52 103.447 20.1149 105.626C19.2188 110.451 20.9138 115.889 24.5344 119.224C26.0579 120.615 27.8476 121.683 29.7953 122.362C31.743 123.042 33.8084 123.319 35.8663 123.177C36.9995 123.095 36.9995 121.326 35.8663 121.409C29.9756 121.837 24.3191 118.366 22.4276 112.721C21.2406 109.175 21.1452 104.558 23.9933 101.745C25.9254 99.8373 28.7149 99.3671 31.3288 99.437C32.4686 99.4672 32.4677 97.6975 31.3288 97.6673L31.326 97.6644Z" fill="#2D1111"/>
<path d="M130.903 101.107C130.884 100.874 130.865 100.64 130.845 100.406C130.849 100.327 130.831 100.248 130.795 100.178C130.748 100.073 130.673 99.983 130.577 99.9188C130.482 99.8546 130.37 99.8188 130.255 99.8157C130.099 99.817 129.95 99.879 129.839 99.9885C129.784 100.043 129.74 100.108 129.71 100.18C129.68 100.251 129.665 100.328 129.666 100.406C129.685 100.64 129.704 100.874 129.724 101.107C129.728 101.262 129.791 101.409 129.901 101.519C130.011 101.629 130.159 101.692 130.314 101.697C130.47 101.696 130.62 101.634 130.73 101.524C130.786 101.47 130.83 101.405 130.859 101.333C130.889 101.261 130.904 101.184 130.903 101.107Z" fill="#2D1111"/>
<path d="M121.191 98.2585C121.278 102.046 120.134 105.782 119.73 109.528C119.679 110 120.174 110.413 120.615 110.413C121.136 110.413 121.448 110.005 121.5 109.528C121.905 105.779 123.048 102.052 122.961 98.2585C122.934 97.1253 121.167 97.1177 121.191 98.2585Z" fill="#2D1111"/>
<path d="M31.4098 97.1903C34.3869 95.8526 37.4347 94.6781 40.5395 93.6717C42.0316 93.1864 43.6077 92.8596 45.0723 92.3185C45.5445 92.1457 45.8278 91.7906 46.096 91.3846C46.8373 90.2684 47.3444 88.969 47.877 87.7461C48.5852 86.1199 49.2604 84.4787 49.9725 82.8545C50.4966 81.6599 50.998 80.3888 51.7402 79.3085C51.8611 79.1329 51.745 79.3142 51.7903 79.2424C51.9027 79.0667 51.8847 79.2424 51.778 79.2235C51.9319 79.2556 51.5221 79.2802 51.4381 79.2688C51.1614 79.232 51.1548 79.1196 51.0329 79.0318C51.1614 79.1206 51.0273 78.9666 51.0707 79.1017C51.1047 79.2037 51.1312 79.3066 51.1557 79.4124C51.2095 79.6353 51.2436 79.8625 51.2577 80.0913C51.541 83.0008 51.0745 86.0208 51.6496 88.8991C51.744 89.3458 51.8876 89.8283 52.2303 90.1485C52.9773 90.8482 54.3154 90.2608 55.1653 90.1192C58.4828 89.5639 61.8247 89.1701 65.1752 88.9161C71.8242 88.4118 78.5101 88.4647 85.1582 88.952C86.9014 89.0779 88.6418 89.2353 90.3794 89.4242C91.1537 89.5079 91.9271 89.5989 92.6996 89.6971C93.4437 89.7915 94.2955 90.0446 95.0434 90.0078C96.374 89.9416 96.4297 87.7414 96.5685 86.8074C96.7819 85.3579 96.8849 83.8517 97.2938 82.4399C97.3448 82.2614 97.3297 82.3634 97.3212 82.3577C97.4836 82.4588 96.085 82.641 96.188 82.4144C96.1983 82.3917 96.2144 82.3634 96.1964 82.4371C96.1964 82.4578 96.2673 82.5664 96.2758 82.5872C96.3145 82.6631 96.3461 82.7425 96.3702 82.8242C96.612 83.5334 96.7952 84.2606 96.9736 84.9877C97.3438 86.4939 97.6082 88.0766 98.1852 89.5205C98.4685 90.2287 98.7971 90.5961 99.5715 90.7481C101.048 91.0427 102.523 91.3468 103.994 91.6717C109.419 92.8672 114.759 94.397 119.846 96.6615C121.184 97.2574 122.502 97.8957 123.806 98.5634C124.817 99.0818 125.713 97.5548 124.698 97.0354C119.607 94.4286 114.241 92.3946 108.701 90.971C105.881 90.2438 103.03 89.6395 100.174 89.0681C100.2 89.0681 99.6536 88.986 99.6451 88.9624C99.6319 88.9237 99.986 89.1512 99.9549 89.1616C100.072 89.139 99.9143 89.2561 99.9464 89.1361C99.953 89.1106 99.8944 89.0417 99.8831 89.0162C99.8463 88.9218 99.7075 88.544 99.6263 88.274C99.3921 87.4958 99.206 86.7026 99.0162 85.9131C98.68 84.5108 98.4761 82.8346 97.7442 81.5692C97.408 80.9875 96.7215 80.6409 96.1228 81.0904C95.695 81.4115 95.5647 81.997 95.4561 82.4928C95.118 84.0377 94.9962 85.627 94.7318 87.1861C94.6789 87.4958 94.6241 87.8065 94.5495 88.1125C94.5231 88.223 94.4919 88.3335 94.4598 88.4439C94.4417 88.488 94.4263 88.5331 94.4136 88.579C94.4504 88.3297 94.4693 88.5525 94.4079 88.5686C94.4249 88.5686 94.9414 88.1578 94.966 88.2277C94.9584 88.205 94.4655 88.1588 94.3871 88.1474C93.9703 88.0908 93.5536 88.0357 93.1368 87.9822C92.2196 87.8632 91.3014 87.7536 90.3822 87.6535C83.632 86.9008 76.8361 86.6385 70.048 86.8688C66.6547 86.9916 63.2708 87.2553 59.8964 87.6601C58.2992 87.8534 56.7068 88.0791 55.1191 88.3372C54.6941 88.4062 54.2692 88.4779 53.847 88.5525C53.7526 88.5677 53.1605 88.6234 53.1416 88.6781C53.0887 88.8339 52.8952 88.4147 53.221 88.7291C53.2644 88.7716 53.4806 88.8821 53.423 88.833C53.8008 89.156 53.4391 88.8906 53.4816 88.8925C53.4476 88.8925 53.4901 88.9624 53.4816 88.8925C53.0009 86.2616 53.2663 83.2728 53.0623 80.47C52.9953 79.5446 52.9594 77.8665 51.829 77.5483C50.7393 77.2414 50.0943 78.5398 49.6873 79.3142C48.1301 82.2718 47.029 85.4523 45.62 88.4855C45.3537 89.0596 45.0808 89.6347 44.7607 90.1806C44.7088 90.2693 44.3924 90.7642 44.518 90.5743C44.4972 90.6065 44.4236 90.7169 44.3801 90.7254C44.2404 90.7585 44.5397 90.6386 44.451 90.6707C44.756 90.5583 44.4585 90.6546 44.3244 90.6858C41.1468 91.4412 37.9974 92.5981 34.9642 93.786C33.4659 94.3715 31.983 94.9954 30.5155 95.6577C29.4767 96.1242 30.3776 97.6502 31.4088 97.1865L31.4098 97.1903Z" fill="#2D1111"/>
<path d="M52.0443 78.8251C54.2871 66.8973 58.1589 54.9553 65.0459 44.8586C67.0186 41.9521 69.2729 39.2471 71.7761 36.7827C72.3191 36.2501 71.4843 35.4162 70.9422 35.9488C61.9957 44.7188 56.5828 56.5144 53.2436 68.4337C52.3135 71.755 51.5438 75.1187 50.9064 78.5079C50.7666 79.2501 51.9036 79.5683 52.0443 78.8214V78.8251Z" fill="#2D1111"/>
<path d="M82.1848 36.6636C89.6856 46.749 93.5706 59.0649 95.1221 71.4319C95.5622 74.9325 95.8181 78.4539 95.9239 81.98C95.9465 82.7355 97.126 82.7412 97.1033 81.98C96.7256 69.3704 94.4205 56.5776 88.7847 45.205C87.2003 41.9983 85.3312 38.9402 83.2 36.0677C82.7524 35.4652 81.7278 36.0526 82.182 36.6636H82.1848Z" fill="#2D1111"/>
<path d="M83.9787 37.506C89.2245 37.5872 93.847 40.7035 97.7187 43.9728C101.225 46.9501 104.353 50.3464 107.032 54.0856C112.496 61.6733 116.27 70.4688 118.123 79.6269C119.166 84.7222 119.552 89.93 119.273 95.1234C119.231 95.8788 120.411 95.8788 120.453 95.1234C120.988 85.5469 119.158 75.8675 115.516 67.0135C111.9 58.2237 106.47 50.0694 99.2995 43.783C95.0245 40.0331 89.8808 36.4172 83.9787 36.3285C83.2232 36.3171 83.2232 37.4966 83.9787 37.5079V37.506Z" fill="#2D1111"/>
<path d="M69.2015 36.0819C59.9301 38.2633 51.4037 43.3438 44.9993 50.3857C38.186 57.878 34.0668 67.478 33.1149 77.5446C32.558 83.4181 33.108 89.344 34.7363 95.0147C34.946 95.7428 36.0848 95.433 35.8742 94.7012C33.0526 84.917 33.6078 74.2923 37.3427 64.8245C40.8263 55.9865 47.1996 48.4375 55.1773 43.3117C59.5759 40.4805 64.4244 38.4188 69.515 37.2151C70.2535 37.0414 69.9409 35.9034 69.2015 36.0819Z" fill="#2D1111"/>
<path d="M60.3794 107.635C63.263 107.635 65.6006 105.085 65.6006 101.939C65.6006 98.7927 63.263 96.2424 60.3794 96.2424C57.4958 96.2424 55.1582 98.7927 55.1582 101.939C55.1582 105.085 57.4958 107.635 60.3794 107.635Z" fill="#400705"/>
<path d="M95.5063 107.635C98.3899 107.635 100.728 105.084 100.728 101.938C100.728 98.7925 98.3899 96.2422 95.5063 96.2422C92.6228 96.2422 90.2852 98.7925 90.2852 101.938C90.2852 105.084 92.6228 107.635 95.5063 107.635Z" fill="#400705"/>
<path d="M57.7743 101.515C58.1689 101.12 58.1689 100.48 57.7743 100.086C57.3797 99.6912 56.7399 99.6912 56.3453 100.086C55.9507 100.48 55.9507 101.12 56.3453 101.515C56.7399 101.909 57.3797 101.909 57.7743 101.515Z" fill="#FFF9F2"/>
<path d="M99.5614 101.514C99.956 101.12 99.956 100.48 99.5614 100.085C99.1668 99.6907 98.5271 99.6907 98.1325 100.085C97.7379 100.48 97.7379 101.12 98.1324 101.514C98.527 101.909 99.1668 101.909 99.5614 101.514Z" fill="#FFF9F2"/>
<path d="M164.801 68.071C163.816 62.7119 161.514 56.7211 156.659 55.1573C162.973 50.5858 162.444 40.1302 159.478 32.9221C156.512 25.714 151.439 19.7676 144.445 16.3208C140.265 14.2593 135.675 13.9685 131.019 14.1847C126.362 14.401 120.099 16.3227 117.826 20.3918C117.847 14.79 114.916 11.0505 110.309 7.8643C105.701 4.67814 100.691 1.55996 95.1193 0.970697C82.2764 -0.379694 68.1115 3.75647 61.08 14.5898C55.2572 11.0278 47.7876 12.4339 42.6655 16.9431C37.5435 21.4523 35.0788 28.666 37.5529 35.0279C39.2065 39.2774 42.6788 42.7053 46.8159 44.5657C51.7406 46.7801 55.0315 46.3599 59.7305 44.3513C63.0064 42.9537 66.5297 44.103 70.0653 44.5071C77.3555 45.341 84.1518 47.2192 90.7348 50.4564C98.2894 54.1714 105.306 57.9081 111.675 63.4098C116.795 67.834 120.748 73.5717 124.402 79.2698C128.056 84.9679 130.775 90.4913 130.051 97.2177C129.732 100.182 128.864 105.067 128.524 105.771C128.247 106.343 127.974 107.06 127.98 107.111C129.824 108.661 131.028 110.332 131.603 112.344C132.243 112.671 134.069 112.879 134.625 112.971C135.866 113.175 137.136 112.877 138.321 112.456C142.807 110.866 145.533 107.054 147.582 102.758C154.476 105.107 158.572 100.342 159.953 95.8645C161.335 91.3865 159.198 87.1124 157.604 82.7109C162.882 81.3917 165.786 73.4263 164.801 68.071Z" fill="#FFF9F2"/>
<path d="M141.718 103.25C141.516 100.707 141.71 97.8845 142.906 95.5831C144.02 93.4423 145.921 91.8436 147.781 90.3714C147.714 90.2033 147.593 90.0626 147.437 89.9719C145.305 88.7443 143.434 87.0171 142.64 84.7233C141.855 82.457 142.517 79.624 144.305 78.1772C144.397 78.1033 144.466 78.0052 144.506 77.8939C144.545 77.7826 144.553 77.6625 144.528 77.547C144.503 77.4316 144.446 77.3254 144.364 77.2404C144.282 77.1554 144.178 77.0949 144.064 77.0658C141.359 76.3755 138.744 75.1271 137.331 72.7813C135.15 69.1598 136.68 64.6894 138.688 60.8006C138.778 60.6298 138.822 60.4388 138.818 60.2459C138.813 60.0529 138.759 59.8644 138.661 59.6981C138.563 59.5318 138.424 59.3933 138.258 59.2957C138.091 59.1982 137.902 59.1447 137.709 59.1405C131.993 58.9951 126.361 56.2754 122.76 51.821C119.292 47.5328 117.792 41.7403 118.626 36.2991C118.755 35.4577 117.819 34.8731 117.109 35.3415C110.992 39.3785 103.118 40.7714 96.0844 38.7062C89.0019 36.6239 83.0186 30.9806 80.6333 24.0228C80.568 23.8283 80.4506 23.6555 80.2938 23.5232C80.1371 23.391 79.947 23.3043 79.7444 23.2726C79.5417 23.2409 79.3343 23.2655 79.1447 23.3437C78.955 23.4219 78.7905 23.5506 78.6691 23.7159C75.6888 27.7009 71.2013 30.6293 66.2662 30.939C60.537 31.2979 54.5244 27.5111 53.276 21.9075C50.4997 24.4449 51.9984 29.3677 52.9361 32.4556C53.3525 33.8296 53.4507 35.2952 53.1051 36.6881C51.936 41.4032 47.3116 41.3002 43.845 40.083C42.1802 39.5003 40.4804 37.6768 38.875 37.5928C39.9969 40.2161 43.133 44.0718 45.7743 44.9869C49.4487 46.2589 53.0768 46.8755 56.8503 45.9312C58.5029 45.5195 59.2687 44.7451 60.4898 43.5581C61.0904 42.9736 62.4662 39.6108 63.2075 39.2218C63.9706 38.8214 62.7137 39.4399 63.5739 39.4928C73.3714 40.0924 85.3662 42.5685 94.3223 46.5885C106.278 51.956 116.788 59.5957 124.702 70.0485C126.632 72.5971 128.398 75.2655 129.991 78.0375C132.567 82.5212 132.574 89.5743 130.151 93.9759C129.91 99.2698 129.602 103.313 127.624 106.61C127.263 107.212 130.031 108.776 131.716 112.386C132.377 113.813 139.867 111.258 140.018 111.303C141.206 111.654 142.532 110.521 143.646 109.226C142.406 107.452 141.891 105.41 141.718 103.25Z" fill="#FAB292"/>
<path d="M61.3193 44.6433C72.5729 44.8841 83.7066 47.7765 93.7505 52.8382C103.737 57.8695 112.653 64.9955 119.64 73.7371C121.593 76.183 123.383 78.7546 124.998 81.4353C126.939 84.6526 128.702 88.1183 129.164 91.8966C129.3 93.0118 131.071 93.0298 130.933 91.8966C130.158 85.5526 126.401 79.8186 122.667 74.7882C119.224 70.1477 115.272 65.9071 110.886 62.1455C102.082 54.5916 91.7563 49.0199 80.6092 45.8086C74.3317 44.0073 67.8485 43.0215 61.3193 42.8755C60.1795 42.8519 60.1805 44.6206 61.3193 44.6452V44.6433Z" fill="#2D1111"/>
<path d="M60.69 44.7782C62.3734 42.3701 64.0578 39.9624 65.7431 37.555C66.0169 37.1631 65.8139 36.571 65.4258 36.3444C64.9838 36.0856 64.4899 36.2688 64.2151 36.6617L59.1611 43.8848C58.8872 44.2767 59.0903 44.8688 59.4793 45.0955C59.9203 45.3542 60.4152 45.171 60.69 44.7782Z" fill="#2D1111"/>
<path d="M131.057 93.8106C133.377 91.922 135.844 90.2212 138.435 88.7245C139.42 88.1531 138.529 86.6233 137.542 87.1956C134.825 88.7758 132.238 90.5693 129.806 92.5594C129.435 92.8625 129.492 93.4971 129.806 93.8106C130.172 94.177 130.686 94.1147 131.057 93.8106Z" fill="#2D1111"/>
<path d="M61.9375 15.2481C67.6979 6.98995 77.5085 2.22675 87.4656 1.83863C96.2856 1.49017 105.921 3.83306 112.12 10.4792C114.829 13.3788 116.655 16.9902 117.386 20.8905C117.528 21.6573 118.644 21.7253 119.002 21.102C121.159 17.353 125.546 15.6551 129.673 15.2528C134.335 14.7996 139.166 15.6825 143.428 17.6014C152.281 21.5865 158.515 30.0174 159.698 39.6713C160.339 44.9048 159.682 50.77 155.76 54.6437C154.945 55.4501 156.168 56.6513 157.012 55.8949C156.964 55.9374 156.939 55.8854 156.98 55.9119C156.752 55.7646 157.231 56.0063 157.065 55.9374C157.434 56.0979 157.698 56.3822 157.978 56.6768C158.72 57.4568 159.318 58.37 159.882 59.2822C160.404 60.1245 160.89 60.987 161.34 61.8697C161.645 62.4479 161.898 63.0518 162.096 63.6743C162.83 65.8116 163.28 68.0364 163.432 70.2912C163.585 72.5699 163.473 74.96 162.617 77.1045C161.687 79.4399 159.822 80.8819 157.349 81.27C156.905 81.3389 156.576 81.948 156.731 82.3578C158.501 87.0559 160.473 93.144 157.802 97.8977C155.978 101.145 151.62 103.821 148 101.787C147.528 101.521 146.824 101.745 146.701 102.316C145.359 108.533 138.57 112.926 132.347 111.466C131.239 111.206 130.766 112.913 131.875 113.172C138.993 114.842 146.857 109.967 148.407 102.785L147.108 103.313C150.407 105.167 154.305 104.028 157.009 101.648C160.323 98.7297 161.196 94.2951 160.66 90.0607C160.303 87.241 159.432 84.5364 158.438 81.8857C158.23 82.2483 158.024 82.6112 157.819 82.9745C160.395 82.5732 162.577 81.0669 163.796 78.7514C165.015 76.436 165.33 73.6842 165.242 71.0873C165.154 68.4675 164.69 65.874 163.865 63.3863C163.233 61.4976 162.273 59.743 161.205 58.065C160.277 56.606 157.877 52.7342 155.755 54.637L157.011 55.8902C160.772 52.1742 161.887 46.801 161.638 41.678C161.374 36.4703 159.767 31.4194 156.974 27.0163C151.402 18.2586 141.119 12.8911 130.732 13.4048C125.644 13.6569 120.141 15.5767 117.474 20.204L119.092 20.4155C117.599 12.4331 111.712 6.16272 104.379 3.0096C94.8521 -1.0869 83.353 -0.994358 73.9097 3.24379C68.5053 5.66789 63.8054 9.49148 60.4143 14.3548C59.7617 15.2915 61.2944 16.1764 61.9422 15.2481H61.9375Z" fill="#2D1111"/>
<path d="M56.0906 32.2441C62.461 38.2056 72.9497 38.9828 80.0709 33.89L78.8603 33.5727C84.6981 41.7251 94.8393 46.3212 104.812 45.7546C107.622 45.6017 110.392 45.0225 113.028 44.0369L111.908 43.187C112.495 51.3309 117.857 58.7854 125.223 62.2303C127.304 63.2034 129.526 63.8433 131.806 64.1265C131.554 63.6858 131.3 63.242 131.042 62.795C129.015 65.7565 129.059 69.6886 130.578 72.854C132.105 76.0411 135.085 78.3548 138.263 79.7476L137.946 78.537C135.519 83.7308 136.802 90.2911 141.164 94.0665C142.022 94.8088 143.279 93.5622 142.416 92.8153C138.689 89.5894 137.37 83.931 139.474 79.4303C139.663 79.0375 139.625 78.4246 139.157 78.2197C136.36 76.9921 133.782 75.1091 132.315 72.3724C130.867 69.6716 130.814 66.2569 132.57 63.6912C132.992 63.0736 132.408 62.4352 131.806 62.3597C124.449 61.4333 117.94 56.0601 115.131 49.2722C114.324 47.3355 113.833 45.282 113.677 43.1898C113.64 42.6685 113.134 42.118 112.557 42.3399C103.721 45.6734 93.4747 43.9254 85.938 38.3341C83.8066 36.7489 81.9343 34.8422 80.3882 32.6822C80.1304 32.3225 79.595 32.0665 79.1776 32.365C72.708 36.9922 63.1721 36.4511 57.3418 30.9957C56.5108 30.2175 55.2577 31.4678 56.0906 32.2469V32.2441Z" fill="#2D1111"/>
<path d="M53.067 45.7075C45.6493 45.9975 39.1514 39.9707 37.8472 32.8401C36.4723 25.3166 41.6387 17.7894 48.3454 14.776C51.9546 13.1546 56.9567 12.7495 59.8851 15.8922C60.6622 16.728 61.9116 15.4739 61.1363 14.641C58.2334 11.5294 53.5118 11.2527 49.6448 12.4133C45.6153 13.623 42.1071 16.3115 39.6056 19.6563C37.1041 23.0011 35.6243 27.1996 35.9 31.3877C36.1682 35.4616 38.0144 39.3343 40.8209 42.273C43.9939 45.5952 48.436 47.6557 53.067 47.4763C54.2002 47.4319 54.2078 45.6622 53.067 45.7075Z" fill="#2D1111"/>
<path d="M53.3719 21.4448C52.96 22.0655 52.694 22.7713 52.5937 23.5093C52.4935 24.2474 52.5616 24.9986 52.793 25.7066C52.9412 26.1448 53.4087 26.4781 53.8818 26.3251C54.3171 26.1844 54.658 25.7057 54.4994 25.2363C54.4496 25.0909 54.4083 24.9427 54.3757 24.7925C54.3672 24.7547 54.3606 24.5885 54.3341 24.5659C54.3511 24.7066 54.354 24.7273 54.3426 24.6301C54.3426 24.5923 54.3351 24.5536 54.3313 24.5158C54.3209 24.3817 54.3162 24.2467 54.3181 24.1126C54.3181 24.0351 54.3237 23.9586 54.3294 23.8822C54.3294 23.8434 54.3351 23.8057 54.3388 23.7669C54.3502 23.6725 54.3464 23.6905 54.3285 23.8312C54.3517 23.7574 54.3648 23.6809 54.3672 23.6036C54.3832 23.528 54.4002 23.4534 54.4191 23.3788C54.4531 23.2485 54.4937 23.1201 54.54 22.9935C54.5532 22.9577 54.5674 22.9218 54.5815 22.8868C54.5287 23.0087 54.522 23.0266 54.5598 22.9388C54.5938 22.8698 54.6259 22.8 54.6618 22.732C54.7338 22.5964 54.8132 22.4649 54.8998 22.3382C55.1614 21.9538 54.9857 21.34 54.5825 21.1275C54.1339 20.8905 53.6504 21.0331 53.3719 21.4448Z" fill="#2D1111"/>
<path d="M37.604 131.365C40.0083 129.717 41.6732 126.778 41.1972 123.905C43.3002 124.402 44.8858 126.537 44.7536 128.694C47.7031 130.146 50.4778 131.929 53.024 134.009C53.3158 134.248 53.6104 134.497 53.7974 134.825C54.2346 135.593 57.4029 138.61 57.078 139.431C55.5151 143.388 55.8825 147.458 55.1997 150.874C55.0637 151.555 55.7238 157.172 55.0288 157.192C53.8097 157.227 42.1491 146.174 41.3662 145.238C38.4422 141.712 34.9874 138.662 31.1259 136.198C30.6358 135.885 28.8794 135.038 28.8322 134.368C28.767 133.423 30.2487 133.554 30.9276 133.482C33.2941 133.232 35.6068 132.729 37.604 131.365Z" fill="white"/>
<path d="M37.4123 136.628C36.3028 136.805 35.2744 136.365 34.8995 135.098C34.6813 134.357 34.6776 133.506 34.8353 132.699C33.5803 133.112 32.2639 133.341 30.9276 133.483C30.2477 133.555 28.767 133.427 28.8322 134.369C28.8794 135.039 30.6358 135.886 31.1259 136.199C35.0279 138.685 53.804 156.628 54.3838 156.243C55.0949 155.771 54.8994 152.895 55.5463 152.339C55.4358 152.258 38.4823 138.838 37.4123 136.628Z" fill="#FFF9F2"/>
<path d="M28.508 114.772C28.4202 113.761 28.4646 112.666 29.0595 111.845C30.1219 110.378 32.4789 110.51 33.9303 111.592C35.3818 112.675 36.1807 114.394 37.0381 115.989C37.1779 116.25 37.3328 116.523 37.5906 116.668C37.8672 116.824 38.2053 116.803 38.5217 116.829C39.8173 116.932 40.958 117.927 41.3717 119.159C41.7853 120.392 41.5199 121.798 40.8051 122.885C40.6445 123.13 40.0855 123.553 40.365 123.64C41.2895 123.935 41.4633 124.598 41.5076 125.032C41.7692 127.588 39.4594 129.376 37.6434 131.199C35.8275 133.021 32.4987 134.076 29.9811 133.559C27.9716 133.148 26.4569 132.172 24.8515 130.895C23.1083 129.506 23.6145 128.107 23.7004 125.879C23.7438 124.776 23.996 124.425 24.5947 123.498C25.6939 121.791 26.268 120.6 28.0481 119.655C30.1209 118.558 28.695 116.933 28.508 114.772Z" fill="#FDEFE8"/>
<path d="M36.0428 126.622C34.2552 128.281 30.8622 128.417 28.3938 128.107C26.6346 127.885 24.9907 127.113 23.6976 125.9C23.6098 128.116 23.1112 129.513 24.8497 130.897C26.4551 132.175 27.966 133.15 29.9793 133.562C32.4969 134.078 35.8256 133.018 37.6416 131.201C38.8362 130.006 40.2385 128.82 40.9883 127.424C38.8758 128.437 37.5745 128.348 36.0428 126.622Z" fill="#FCE4D8"/>
<path d="M26.3734 130.675C24.2468 129.552 23.9304 127.181 24.9012 125.11C25.4423 123.956 26.2393 122.921 27.1109 121.999C27.9296 121.132 28.8929 120.311 30.0657 119.99C32.5285 119.316 34.9073 121.447 35.7808 123.594C36.7072 125.871 35.5919 128.316 33.7269 129.76C31.9865 131.112 29.1705 132.14 27.1109 130.936C26.125 130.36 25.2336 131.889 26.2176 132.464C28.7059 133.919 31.927 133.093 34.1981 131.586C36.694 129.929 38.492 126.88 37.7186 123.842C36.9631 120.894 34.1301 118.045 30.9487 118.082C27.7672 118.119 25.056 121.116 23.6244 123.718C21.9936 126.678 22.2523 130.489 25.4801 132.194C26.4867 132.726 27.3819 131.199 26.3734 130.666V130.675Z" fill="#2D1111"/>
<path d="M36.7272 119.183C36.7489 118.97 36.679 119.38 36.7272 119.177C36.7404 119.121 36.7508 119.063 36.7659 119.006C36.781 118.95 36.7999 118.899 36.816 118.844C36.8679 118.655 36.7159 119.016 36.8093 118.852C36.8622 118.757 36.9113 118.663 36.967 118.568L36.9963 118.526C37.052 118.45 37.0369 118.469 36.9529 118.58C36.9633 118.535 37.0596 118.461 37.0926 118.428C37.1257 118.394 37.171 118.36 37.206 118.323C37.3287 118.191 37.0341 118.428 37.188 118.335C37.2768 118.281 37.3599 118.221 37.4515 118.172C37.4968 118.147 37.5459 118.126 37.5903 118.103C37.7272 118.031 37.5261 118.127 37.5233 118.13C37.5856 118.066 37.7877 118.036 37.8736 118.02C37.9255 118.006 37.9775 117.997 38.0294 117.986C38.1135 117.966 38.2183 117.9 38.0049 117.986C38.1101 117.961 38.2184 117.954 38.3259 117.963C38.4345 117.963 38.5412 117.969 38.6498 117.973C38.732 117.973 38.8623 117.944 38.6291 117.967C38.7013 117.97 38.7728 117.983 38.8415 118.005C38.9469 118.028 39.0509 118.056 39.1532 118.09C39.2063 118.101 39.2576 118.119 39.3052 118.145C39.2986 118.139 39.1041 118.051 39.2419 118.119C39.3364 118.167 39.4308 118.213 39.5252 118.268C39.5706 118.295 39.614 118.326 39.6593 118.354C39.8605 118.481 39.5913 118.273 39.6914 118.377C39.7651 118.454 39.8454 118.525 39.92 118.6C39.9681 118.648 40.0966 118.737 39.92 118.588C39.9571 118.629 39.9888 118.674 40.0144 118.722C40.104 118.864 40.1856 119.01 40.259 119.161C40.2996 119.242 40.3392 119.324 40.3732 119.407C40.3222 119.283 40.4356 119.588 40.445 119.617C40.4922 119.76 40.5328 119.905 40.5668 120.051C40.5867 120.139 40.6037 120.226 40.6188 120.314C40.5886 120.139 40.6292 120.423 40.6301 120.433C40.6443 120.61 40.6462 120.787 40.6358 120.963C40.6358 120.975 40.597 121.259 40.6273 121.077C40.6084 121.194 40.5829 121.309 40.5508 121.422C40.5272 121.507 40.4979 121.591 40.4677 121.674C40.5291 121.506 40.4422 121.725 40.4308 121.747C40.3969 121.81 40.36 121.873 40.3204 121.936C40.3052 121.959 40.1608 122.158 40.2864 121.999C40.1936 122.116 40.0912 122.225 39.9804 122.325C39.9436 122.358 39.9058 122.39 39.8671 122.419C40.022 122.289 39.7783 122.476 39.7443 122.497C39.682 122.535 39.6178 122.572 39.5555 122.606C39.5233 122.623 39.3033 122.706 39.4997 122.637C39.3625 122.684 39.2229 122.724 39.0814 122.756C38.8614 122.809 39.258 122.764 39.0323 122.756C38.9605 122.756 38.8897 122.756 38.8179 122.756C38.7641 122.756 38.5601 122.702 38.7679 122.756C38.6734 122.733 38.579 122.712 38.4846 122.682C38.291 122.617 38.5856 122.76 38.3845 122.631C38.2834 122.566 38.1796 122.509 38.0814 122.442C38.2088 122.536 37.9775 122.357 37.9784 122.357C37.9114 122.299 37.8453 122.241 37.7811 122.18C37.6323 122.041 37.4917 121.894 37.3599 121.739C37.3599 121.739 37.1805 121.514 37.2787 121.645C37.2079 121.55 37.1417 121.456 37.0794 121.356C36.9697 121.185 36.8728 121.007 36.7895 120.822C36.8603 120.983 36.7555 120.728 36.7527 120.717C36.715 120.61 36.6835 120.502 36.6583 120.393C36.6583 120.372 36.6129 120.104 36.6346 120.298C36.6224 120.189 36.6176 120.078 36.6205 119.968C36.6205 119.946 36.6479 119.679 36.6205 119.873C36.639 119.762 36.6649 119.652 36.6979 119.545C36.8292 119.101 36.5402 118.561 36.0803 118.456C35.8541 118.398 35.6144 118.431 35.4114 118.546C35.2085 118.661 35.058 118.851 34.9915 119.074C34.4249 120.991 35.7149 122.976 37.2579 124.02C38.834 125.083 40.92 124.33 41.8643 122.792C42.8559 121.177 42.4121 118.889 41.2751 117.464C40.5102 116.506 39.1466 116.064 37.952 116.214C37.1965 116.308 36.51 116.574 35.9349 117.081C35.3249 117.62 35.0368 118.378 34.9556 119.171C34.9075 119.632 35.3966 120.075 35.8405 120.056C36.3598 120.032 36.6743 119.666 36.7253 119.171L36.7272 119.183Z" fill="#2D1111"/>
<path d="M39.7679 124.04C40.5923 126.26 39.4695 128.493 37.885 130.062C36.0813 131.847 33.5316 133.013 30.9658 132.834C29.4776 132.731 28.1253 132.046 27.0677 131.013C26.2527 130.217 24.9996 131.467 25.8164 132.264C30.6079 136.943 38.9096 133.942 41.3034 128.151C41.904 126.696 42.0324 125.061 41.4781 123.569C41.0843 122.511 39.3732 122.969 39.7717 124.042L39.7679 124.04Z" fill="#2D1111"/>
<path d="M30.1871 118.945C29.832 117.522 29.5874 116.029 29.6337 114.556C29.663 113.627 29.8707 112.427 30.8556 112.077C32.0606 111.648 33.2278 112.579 33.9587 113.433C34.9191 114.552 35.6831 115.888 36.4187 117.164C36.9853 118.149 38.5179 117.258 37.9466 116.27C37.2469 115.06 36.5084 113.854 35.6585 112.742C34.8322 111.662 33.8038 110.672 32.4412 110.342C31.189 110.04 29.7838 110.309 28.9207 111.323C28.1416 112.238 27.8914 113.441 27.8631 114.616C27.8243 116.221 28.0944 117.864 28.4816 119.415C28.7564 120.52 30.4647 120.052 30.1871 118.943V118.945Z" fill="#2D1111"/>
<path d="M26.6727 132.713C27.6803 134.359 28.8844 135.997 30.5879 136.977C32.4162 138.029 34.6486 138.094 36.6118 137.403C38.6261 136.696 40.307 135.315 41.7235 133.748C43.14 132.182 44.4686 130.402 44.6773 128.239C44.7822 127.147 44.5536 125.997 43.9436 125.075C43.3694 124.21 42.3666 123.548 42.0304 122.543C41.6706 121.468 39.9614 121.928 40.324 123.015C40.6573 124.01 41.3344 124.706 42.0153 125.476C42.7179 126.27 43.0389 127.176 42.9077 128.241C42.6319 130.48 40.6658 132.496 39.0463 133.916C37.372 135.385 35.0641 136.509 32.792 135.97C30.6597 135.464 29.2838 133.592 28.2007 131.822C27.6067 130.853 26.0759 131.741 26.6727 132.715V132.713Z" fill="#2D1111"/>
<path d="M33.1728 138.123C38.4261 143.424 43.7965 148.631 49.285 153.688C50.6231 154.921 51.9678 156.155 53.3768 157.307C54.2522 158.022 55.511 156.777 54.629 156.055C51.7799 153.728 49.1254 151.145 46.4614 148.613C43.4176 145.717 40.4004 142.792 37.41 139.838C36.4109 138.853 35.4118 137.869 34.4241 136.872C33.6214 136.062 32.3692 137.313 33.1728 138.123Z" fill="#2D1111"/>
<path d="M43.6262 128.961C48.3479 132.308 52.4227 136.508 57.1443 139.854C58.0754 140.515 58.9603 138.981 58.0377 138.326C53.316 134.98 49.2403 130.781 44.5186 127.434C43.5885 126.773 42.7036 128.308 43.6262 128.961Z" fill="#2D1111"/>
<path d="M115.4 132.619C112.995 130.971 111.331 128.032 111.806 125.159C109.704 125.656 108.118 127.791 108.25 129.948C105.3 131.403 102.526 133.188 99.9805 135.271C99.6887 135.509 99.3931 135.759 99.2071 136.086C98.7699 136.854 95.6016 139.871 95.9255 140.693C97.4884 144.65 97.1211 148.72 97.8048 152.135C97.9407 152.817 97.2806 158.434 97.9747 158.454C99.1948 158.489 110.855 147.435 111.637 146.5C114.562 142.974 118.016 139.924 121.878 137.46C122.369 137.147 124.125 136.3 124.171 135.629C124.237 134.685 122.755 134.815 122.077 134.744C119.711 134.49 117.398 133.987 115.4 132.619Z" fill="white"/>
<path d="M115.592 137.885C116.701 138.063 117.73 137.623 118.104 136.356C118.322 135.615 118.327 134.763 118.169 133.957C119.423 134.37 120.74 134.599 122.077 134.741C122.756 134.813 124.236 134.685 124.171 135.627C124.125 136.297 122.368 137.144 121.877 137.457C117.975 139.943 99.1993 157.885 98.6205 157.501C97.9094 157.029 98.1039 154.152 97.457 153.597C97.5685 153.516 114.517 140.096 115.592 137.885Z" fill="#FFF9F2"/>
<path d="M124.494 116.03C124.582 115.018 124.537 113.924 123.942 113.102C122.88 111.636 120.523 111.768 119.072 112.851C117.62 113.934 116.82 115.652 115.964 117.247C115.824 117.508 115.668 117.78 115.411 117.926C115.134 118.082 114.797 118.061 114.479 118.086C113.184 118.189 112.043 119.185 111.629 120.417C111.216 121.649 111.482 123.056 112.196 124.142C112.357 124.388 112.916 124.812 112.636 124.898C111.711 125.193 111.537 125.855 111.492 126.29C111.231 128.846 113.541 130.634 115.357 132.456C117.173 134.279 120.502 135.334 123.02 134.817C125.029 134.405 126.543 133.43 128.149 132.152C129.893 130.764 129.386 129.365 129.3 127.137C129.257 126.034 129.004 125.683 128.406 124.755C127.307 123.049 126.733 121.858 124.953 120.913C122.88 119.816 124.307 118.19 124.494 116.03Z" fill="#FDEFE8"/>
<path d="M116.958 127.88C118.745 129.538 122.139 129.674 124.607 129.365C126.366 129.143 128.01 128.371 129.302 127.158C129.39 129.374 129.89 130.771 128.15 132.155C126.545 133.433 125.034 134.408 123.021 134.82C120.504 135.336 117.174 134.276 115.358 132.459C114.165 131.264 112.762 130.078 112.012 128.682C114.123 129.695 115.429 129.605 116.958 127.88Z" fill="#FCE4D8"/>
<path d="M127.522 133.46C130.309 131.989 131.004 128.785 129.854 125.985C129.243 124.496 128.244 123.169 127.144 122.006C126.077 120.872 124.754 119.843 123.21 119.492C119.999 118.763 116.933 121.141 115.687 123.968C115.026 125.459 114.865 127.127 115.451 128.67C115.992 130.089 116.896 131.343 118.071 132.305C120.407 134.169 124.021 135.337 126.786 133.722C127.768 133.147 126.88 131.617 125.892 132.194C124.032 133.282 121.621 132.519 119.921 131.459C118.08 130.311 116.455 128.04 116.941 125.785C117.432 123.503 119.571 121.091 122.054 121.118C124.457 121.145 126.492 123.621 127.625 125.495C128.961 127.691 129.175 130.587 126.626 131.932C125.619 132.464 126.512 133.992 127.519 133.46H127.522Z" fill="#2D1111"/>
<path d="M118.047 120.439C117.971 119.703 117.726 119.039 117.215 118.493C116.774 118.04 116.213 117.721 115.599 117.574C114.347 117.264 112.954 117.564 112 118.439C111.399 118.987 111.023 119.813 110.801 120.579C110.538 121.484 110.501 122.511 110.832 123.404C111.429 125.02 113.327 126.299 115.061 125.632C116.072 125.243 116.912 124.386 117.479 123.48C118.059 122.55 118.329 121.414 118.014 120.344C117.884 119.9 117.386 119.576 116.926 119.725C116.466 119.874 116.171 120.338 116.308 120.814C116.332 120.895 116.35 120.977 116.371 121.059C116.429 121.296 116.384 120.913 116.38 121.154C116.38 121.237 116.38 121.319 116.38 121.402C116.38 121.426 116.343 121.685 116.38 121.497C116.351 121.662 116.31 121.825 116.256 121.984C116.256 121.994 116.148 122.25 116.219 122.09C116.172 122.195 116.119 122.297 116.063 122.398C115.978 122.551 115.881 122.696 115.78 122.841C115.624 123.069 115.883 122.731 115.703 122.936C115.646 123.003 115.59 123.07 115.531 123.134C115.433 123.242 115.331 123.345 115.226 123.444C115.161 123.504 115.095 123.564 115.027 123.62C114.982 123.66 114.933 123.698 114.889 123.736C114.948 123.687 114.936 123.694 114.851 123.756C114.775 123.803 114.697 123.851 114.622 123.896C114.421 124.026 114.717 123.882 114.522 123.947C114.453 123.97 114.381 123.985 114.312 124.008C114.101 124.077 114.485 124.008 114.264 124.019C114.192 124.019 114.122 124.026 114.049 124.025C114.007 124.025 113.775 123.993 113.999 124.03C113.833 124.001 113.669 123.957 113.511 123.899C113.706 123.968 113.486 123.885 113.454 123.868C113.389 123.834 113.325 123.798 113.265 123.758C113.206 123.719 113.14 123.677 113.076 123.634C113.106 123.654 113.201 123.743 113.076 123.634C112.952 123.524 112.862 123.428 112.762 123.316C112.606 123.144 112.837 123.459 112.72 123.258C112.671 123.172 112.615 123.092 112.569 123.003C112.558 122.981 112.475 122.762 112.532 122.93C112.502 122.847 112.474 122.763 112.449 122.678C112.425 122.593 112.41 122.506 112.389 122.42C112.326 122.162 112.389 122.572 112.372 122.307C112.359 122.131 112.356 121.954 112.364 121.778C112.364 121.689 112.376 121.6 112.388 121.512C112.365 121.673 112.428 121.337 112.434 121.307C112.467 121.16 112.509 121.016 112.556 120.873C112.584 120.787 112.615 120.702 112.65 120.618C112.592 120.769 112.705 120.498 112.705 120.498C112.781 120.336 112.866 120.179 112.96 120.026C112.988 119.98 113.022 119.932 113.055 119.889C113.11 119.814 113.096 119.831 113.014 119.939C113.037 119.912 113.06 119.885 113.084 119.858C113.158 119.783 113.24 119.712 113.313 119.635C113.441 119.502 113.143 119.739 113.301 119.643C113.346 119.615 113.389 119.582 113.434 119.548C113.529 119.492 113.623 119.444 113.717 119.395C113.748 119.377 113.779 119.362 113.812 119.35C113.549 119.42 113.791 119.363 113.851 119.344C113.953 119.31 114.058 119.281 114.163 119.259C114.215 119.247 114.27 119.241 114.322 119.228C114.511 119.184 114.108 119.237 114.301 119.228C114.494 119.22 114.803 119.158 114.999 119.236C114.786 119.151 114.89 119.217 114.974 119.236C115.043 119.252 115.113 119.264 115.181 119.283C115.249 119.302 115.423 119.324 115.481 119.378L115.366 119.328L115.461 119.372C115.522 119.404 115.583 119.434 115.643 119.466C115.687 119.492 115.73 119.521 115.773 119.548C115.973 119.673 115.701 119.463 115.799 119.566C115.859 119.632 116.032 119.734 116.051 119.824L115.977 119.73C115.998 119.757 116.018 119.786 116.038 119.815C116.075 119.875 116.113 119.934 116.146 119.997C116.176 120.043 116.199 120.091 116.217 120.142C116.157 119.883 116.206 120.134 116.223 120.193C116.24 120.253 116.254 120.305 116.266 120.362C116.32 120.615 116.266 120.26 116.279 120.425C116.327 120.884 116.652 121.332 117.164 121.31C117.602 121.29 118.1 120.918 118.049 120.425L118.047 120.439Z" fill="#2D1111"/>
<path d="M111.529 124.827C110.491 127.622 111.866 130.587 113.867 132.571C116.024 134.707 119.19 136.159 122.271 135.843C124.128 135.656 125.865 134.836 127.189 133.521C128.006 132.724 126.754 131.473 125.938 132.27C122.077 136.041 115.33 133.411 113.37 128.833C112.879 127.686 112.803 126.472 113.239 125.297C113.636 124.228 111.926 123.767 111.532 124.825L111.529 124.827Z" fill="#2D1111"/>
<path d="M124.527 120.673C124.887 119.257 125.094 117.807 125.143 116.347C125.175 115.214 125.036 113.95 124.388 112.982C123.659 111.889 122.418 111.352 121.118 111.506C119.754 111.67 118.619 112.46 117.748 113.489C116.709 114.717 115.859 116.134 115.058 117.526C114.491 118.513 116.015 119.405 116.586 118.419C117.321 117.145 118.084 115.808 119.041 114.688C119.773 113.838 120.939 112.903 122.145 113.332C123.129 113.682 123.337 114.883 123.366 115.812C123.412 117.284 123.168 118.777 122.813 120.2C122.537 121.305 124.243 121.777 124.519 120.672L124.527 120.673Z" fill="#2D1111"/>
<path d="M124.803 133.078C123.744 134.808 122.399 136.658 120.332 137.198C118.024 137.8 115.663 136.668 113.957 135.172C112.352 133.767 110.456 131.81 110.116 129.618C109.945 128.513 110.256 127.56 110.988 126.732C111.669 125.961 112.345 125.268 112.679 124.271C113.041 123.188 111.333 122.724 110.973 123.799C110.682 124.668 109.869 125.272 109.322 125.978C108.724 126.748 108.373 127.681 108.313 128.654C108.154 130.826 109.365 132.743 110.699 134.337C113.315 137.464 117.483 140.391 121.704 138.587C123.774 137.7 125.187 135.842 126.332 133.973C126.927 132.999 125.398 132.109 124.804 133.08L124.803 133.078Z" fill="#2D1111"/>
<path d="M118.577 138.13C113.323 143.43 107.952 148.637 102.464 153.694C101.126 154.928 99.782 156.161 98.3722 157.313C97.4902 158.035 98.7499 159.28 99.6234 158.564C102.471 156.237 105.127 153.654 107.79 151.122C110.834 148.226 113.852 145.301 116.841 142.347C117.841 141.362 118.841 140.377 119.828 139.381C120.631 138.571 119.38 137.319 118.577 138.13Z" fill="#2D1111"/>
<path d="M108.484 128.691C103.762 132.039 99.6865 136.237 94.9658 139.584C94.0442 140.238 94.9271 141.773 95.8592 141.113C100.581 137.765 104.657 133.566 109.377 130.219C110.299 129.567 109.416 128.031 108.484 128.691Z" fill="#2D1111"/>
<path d="M62.8351 140.864C64.6463 142.623 66.5444 144.335 68.9053 145.312C70.4955 145.973 72.184 146.337 73.8866 146.558C77.5327 147.03 81.4885 146.808 84.8578 145.227C86.5916 144.414 88.1158 143.13 89.0072 141.416C89.5313 140.407 88.0053 139.51 87.4793 140.523C86.0165 143.336 82.7359 144.46 79.7726 144.837C76.5723 145.246 73.1434 144.969 70.0951 143.884C67.723 143.04 65.8626 141.334 64.0864 139.612C63.2686 138.818 62.0164 140.069 62.8351 140.864Z" fill="#2D1111"/>
<path d="M72.9195 141.67C72.8759 142.831 72.9848 143.993 73.2434 145.126C73.3454 145.579 73.8921 145.882 74.3313 145.744C74.5547 145.677 74.7437 145.527 74.859 145.324C74.9742 145.121 75.0068 144.882 74.9498 144.656C74.8903 144.393 74.8384 144.127 74.7959 143.86C74.7864 143.798 74.777 143.736 74.7685 143.671C74.7364 143.455 74.7912 143.876 74.7685 143.659C74.7534 143.525 74.7373 143.39 74.726 143.256C74.6801 142.727 74.6681 142.196 74.6901 141.666C74.709 141.204 74.2699 140.761 73.8053 140.781C73.5722 140.787 73.35 140.881 73.1852 141.046C73.0203 141.211 72.9255 141.433 72.9204 141.666L72.9195 141.67Z" fill="#2D1111"/>
<path d="M57.6152 139.297C57.2242 143.263 58.3924 147.567 60.8013 150.745C62.8789 153.493 66.032 155.113 69.2729 156.111C75.5225 158.037 83.3359 157.855 88.5864 153.534C92.2088 150.553 94.0351 145.413 94.0323 140.828C94.0323 139.695 92.2617 139.687 92.2626 140.828C92.2626 144.652 90.8669 148.911 88.0726 151.623C85.947 153.687 83.0866 154.778 80.2007 155.242C77.16 155.73 73.9776 155.503 70.9992 154.756C68.1898 154.05 65.183 152.867 63.1235 150.755C60.2631 147.827 58.9873 143.317 59.3849 139.297C59.4972 138.164 57.7266 138.172 57.6152 139.297Z" fill="#2D1111"/>
<path d="M63.0509 151.007C65.9651 149.432 68.6772 147.518 71.5914 145.943C72.5933 145.401 71.7009 143.872 70.6981 144.415C67.7848 145.991 65.0718 147.904 62.1576 149.479C61.1556 150.021 62.048 151.55 63.0509 151.007Z" fill="#2D1111"/>
<path d="M74.2155 152.088C75.3242 151.629 75.8507 150.358 75.3914 149.249C74.9322 148.14 73.6611 147.614 72.5524 148.073C71.4437 148.532 70.9172 149.804 71.3765 150.912C71.8357 152.021 73.1068 152.547 74.2155 152.088Z" fill="#2D1111"/>
<path d="M84.4479 152.088C85.5566 151.629 86.0831 150.357 85.6239 149.249C85.1646 148.14 83.8936 147.614 82.7848 148.073C81.6761 148.532 81.1496 149.803 81.6089 150.912C82.0681 152.02 83.3392 152.547 84.4479 152.088Z" fill="#2D1111"/>
<path d="M55.747 139.058C54.628 146.235 54.0576 153.497 53.2209 160.711C53.0245 162.4 52.8215 164.091 52.5646 165.772C52.3947 166.887 54.0992 167.366 54.271 166.245C55.3485 159.191 55.8858 152.057 56.7263 144.973C56.9425 143.156 57.1701 141.339 57.4525 139.53C57.6262 138.416 55.9208 137.936 55.7461 139.058H55.747Z" fill="#2D1111"/>
<path d="M95.01 140.619C95.9619 147.254 96.8987 153.892 97.979 160.508C98.2283 162.044 98.4842 163.58 98.777 165.107C98.9904 166.225 100.697 165.751 100.483 164.635C99.2369 158.124 98.3596 151.534 97.4105 144.974C97.1782 143.365 96.9469 141.756 96.7165 140.147C96.6475 139.675 96.0479 139.418 95.6276 139.528C95.1186 139.663 94.9421 140.146 95.01 140.617V140.619Z" fill="#2D1111"/>
<path d="M28.06 141.547C33.1258 149.993 39.6829 157.448 47.4121 163.55C48.297 164.248 49.5577 163.005 48.6634 162.299C41.0457 156.299 34.5822 148.963 29.5879 140.651C29.0024 139.677 27.4717 140.565 28.06 141.545V141.547Z" fill="#2D1111"/>
<path d="M28.0068 151.778C30.1241 155.004 32.6296 157.957 35.467 160.571C36.3046 161.341 37.5596 160.092 36.7182 159.32C33.9859 156.814 31.5723 153.981 29.5319 150.885C28.9086 149.941 27.375 150.823 28.004 151.778H28.0068Z" fill="#2D1111"/>
<path d="M110.683 163.472C115.738 158.845 119.618 153.081 122.002 146.657C122.401 145.588 120.69 145.127 120.296 146.185C117.999 152.315 114.276 157.811 109.436 162.219C108.593 162.988 109.847 164.236 110.687 163.47L110.683 163.472Z" fill="#2D1111"/>
<path d="M119.347 162.699L124.959 154.672C125.234 154.28 125.031 153.689 124.642 153.461C124.201 153.203 123.706 153.386 123.431 153.778L117.819 161.805C117.545 162.197 117.749 162.788 118.137 163.016C118.579 163.274 119.072 163.091 119.347 162.699Z" fill="#2D1111"/>
<g style="mix-blend-mode:multiply" opacity="0.3">
<g style="mix-blend-mode:multiply" opacity="0.3">
<path d="M17.004 145.278C13.9028 147.044 9.96496 147.927 6.46622 146.94C4.75887 146.457 3.08175 145.574 1.76818 144.376C1.37858 144.017 1.02091 143.625 0.699204 143.204C0.684095 143.227 0.672762 143.25 0.657653 143.272C-1.06764 145.764 0.813467 149.153 3.84099 149.007C4.43301 148.978 5.02317 149.093 5.56073 149.343C6.09829 149.593 6.56717 149.969 6.92706 150.44C8.76378 152.851 12.5685 152.11 13.3645 149.185C13.5205 148.613 13.8131 148.087 14.2173 147.653C14.6215 147.219 15.1251 146.89 15.6848 146.694C16.145 146.536 16.5683 146.287 16.929 145.96C17.2898 145.634 17.5803 145.237 17.7831 144.795C17.5281 144.963 17.2694 145.127 17.004 145.278Z" fill="#FFAF10"/>
</g>
</g>
<g style="mix-blend-mode:multiply" opacity="0.3">
<g style="mix-blend-mode:multiply" opacity="0.3">
<path d="M147.701 150.992C144.185 151.612 140.18 151.119 137.219 149.009C135.773 147.98 134.492 146.584 133.657 145.014C133.411 144.545 133.206 144.055 133.044 143.55C133.023 143.566 133.004 143.585 132.983 143.6C130.519 145.367 131.151 149.192 134.051 150.073C134.618 150.245 135.135 150.552 135.557 150.969C135.979 151.385 136.294 151.898 136.474 152.463C137.393 155.352 141.225 155.933 142.958 153.447C143.298 152.961 143.75 152.564 144.276 152.292C144.803 152.019 145.388 151.879 145.98 151.882C146.467 151.888 146.949 151.796 147.399 151.61C147.848 151.424 148.255 151.148 148.595 150.8C148.299 150.874 148 150.939 147.701 150.992Z" fill="#FFAF10"/>
</g>
</g>
</svg>
