<svg width="20" height="20" viewBox="0 0 20 20" fill="none" xmlns="http://www.w3.org/2000/svg">
<path d="M15.0567 12.0173C15.4741 12.0173 15.8821 12.1411 16.2291 12.373C16.5761 12.6049 16.8466 12.9345 17.0064 13.3201C17.1661 13.7057 17.2079 14.13 17.1264 14.5393C17.045 14.9487 16.844 15.3247 16.5489 15.6199C16.2538 15.915 15.8777 16.116 15.4684 16.1974C15.059 16.2788 14.6347 16.237 14.2491 16.0773C13.8635 15.9176 13.5339 15.6471 13.302 15.3001C13.0701 14.953 12.9464 14.545 12.9464 14.1276C12.947 13.5682 13.1696 13.0318 13.5652 12.6362C13.9608 12.2405 14.4972 12.018 15.0567 12.0173ZM15.0567 14.8364C15.1969 14.8364 15.3339 14.7949 15.4505 14.717C15.5671 14.6392 15.6579 14.5285 15.7116 14.399C15.7653 14.2695 15.7793 14.127 15.752 13.9895C15.7247 13.852 15.6572 13.7257 15.5581 13.6265C15.4589 13.5274 15.3326 13.4599 15.1952 13.4325C15.0577 13.4052 14.9152 13.4192 14.7856 13.4728C14.6561 13.5265 14.5454 13.6173 14.4675 13.7339C14.3897 13.8504 14.3481 13.9875 14.3481 14.1276C14.3481 14.3156 14.4227 14.4958 14.5556 14.6288C14.6885 14.7617 14.8687 14.8364 15.0567 14.8364Z" fill="#944C2C"/>
<path d="M5.6143 12.0173C6.03168 12.0173 6.43968 12.1411 6.78672 12.373C7.13376 12.6049 7.40425 12.9345 7.56397 13.3201C7.72369 13.7057 7.76549 14.13 7.68406 14.5393C7.60263 14.9487 7.40164 15.3247 7.10651 15.6199C6.81138 15.915 6.43536 16.116 6.026 16.1974C5.61664 16.2788 5.19232 16.237 4.80672 16.0773C4.42111 15.9176 4.09152 15.6471 3.85964 15.3001C3.62775 14.953 3.50398 14.545 3.50398 14.1276C3.50461 13.5681 3.72714 13.0317 4.12277 12.6361C4.51839 12.2405 5.0548 12.018 5.6143 12.0173ZM5.6143 14.8364C5.75447 14.8364 5.8915 14.7948 6.00806 14.7169C6.12461 14.6391 6.21545 14.5284 6.2691 14.3989C6.32274 14.2694 6.33678 14.1269 6.30943 13.9894C6.28208 13.8519 6.21458 13.7256 6.11546 13.6265C6.01634 13.5274 5.89005 13.4599 5.75257 13.4325C5.61508 13.4052 5.47258 13.4192 5.34307 13.4728C5.21356 13.5265 5.10287 13.6173 5.02499 13.7339C4.94711 13.8504 4.90555 13.9875 4.90555 14.1276C4.90553 14.2207 4.92384 14.3129 4.95945 14.3989C4.99507 14.4849 5.04727 14.563 5.11309 14.6289C5.17891 14.6947 5.25705 14.7469 5.34304 14.7825C5.42904 14.8181 5.52122 14.8364 5.6143 14.8364Z" fill="#944C2C"/>
<path d="M2.60172 11.6434C2.61728 11.6083 2.62543 11.5703 2.62567 11.5319C2.62591 11.4934 2.61824 11.4553 2.60312 11.42C2.46515 11.1045 2.33437 10.6639 2.63625 10.2325C2.76508 10.0242 2.95848 9.86374 3.18697 9.77556C3.41546 9.68738 3.66651 9.67631 3.90187 9.74405C3.90703 9.74561 4.07375 9.81374 4.15734 9.8478C4.17175 9.85371 4.18734 9.85619 4.20288 9.85506C4.21841 9.85392 4.23347 9.84919 4.24687 9.84124C4.34718 9.78264 4.45187 9.72577 4.56234 9.67108C4.57531 9.66501 4.58688 9.65631 4.59632 9.64553C4.60575 9.63476 4.61284 9.62214 4.61715 9.60848C4.62145 9.59482 4.62287 9.58041 4.62132 9.56618C4.61976 9.55194 4.61527 9.53818 4.60812 9.52577C4.38187 9.14843 4.24875 8.62436 4.65062 8.18467C4.769 8.0597 4.9121 7.96075 5.07082 7.89411C5.22953 7.82748 5.40039 7.79463 5.5725 7.79764L9.48437 7.92889C9.92609 7.92889 10.3281 8.3678 10.3281 8.84983C10.3338 9.05425 10.285 9.2565 10.1866 9.43577C10.0882 9.61505 9.94379 9.76487 9.76828 9.86983C9.65488 9.92492 9.56037 10.0124 9.49672 10.1212C9.291 10.5074 9.18725 10.9396 9.19531 11.377C9.19618 11.6542 9.30681 11.9198 9.50299 12.1157C9.69918 12.3116 9.96496 12.4218 10.2422 12.4222H11.5216C11.6474 12.4235 11.7713 12.3914 11.8806 12.3292C11.99 12.267 12.0809 12.1769 12.1441 12.0681C12.4122 11.5908 12.668 10.6383 12.1841 9.11827C11.9184 8.28467 11.5297 6.8478 11.6361 5.86717L11.3106 5.6003C11.2736 5.69886 11.2165 5.7887 11.1431 5.8642C11.0697 5.9397 10.9815 5.99923 10.8841 6.03905C10.8311 6.05734 10.7754 6.06673 10.7194 6.06686C10.5937 6.06491 10.4727 6.01928 10.377 5.9378C10.0569 5.6778 9.91437 5.06436 10.0455 4.51077C10.1305 4.15139 10.317 3.89827 10.5572 3.81639C10.6432 3.78727 10.7354 3.7813 10.8244 3.79907C10.9135 3.81684 10.9963 3.85774 11.0645 3.91764C11.3373 4.13905 11.4792 4.61702 11.435 5.09592L11.7562 5.35952C11.8711 5.0519 12.0761 4.78607 12.3444 4.59677C12.6127 4.40747 12.9318 4.30349 13.2602 4.29842C13.2689 4.29842 13.7964 4.30202 13.923 4.32311C13.9942 4.33609 14.0625 4.36198 14.1244 4.39952H14.1253C14.4634 4.59842 14.7134 5.12733 14.7134 5.70655C14.7126 5.93591 14.6629 6.16246 14.5677 6.37112C14.4725 6.57979 14.334 6.76578 14.1612 6.91671C14.087 6.9695 14.0068 7.01335 13.9223 7.04733C13.8887 7.05932 13.8538 7.06735 13.8183 7.07124C13.5881 7.09577 13.3554 7.08354 13.1291 7.03499C13.1207 7.03307 13.1119 7.03363 13.1038 7.03659C13.0958 7.03956 13.0887 7.04481 13.0836 7.05171C13.0776 7.05865 13.0737 7.06721 13.0725 7.07632C13.0713 7.08543 13.0728 7.0947 13.0769 7.10296C13.4586 7.96655 14.1641 9.76889 14.5583 10.8081C14.5826 10.8726 14.6275 10.9273 14.6861 10.9636C14.7447 10.9999 14.8136 11.0158 14.8822 11.0089C15.396 10.9554 15.9149 11.0345 16.3894 11.2385C16.8639 11.4426 17.2782 11.7648 17.5928 12.1745C17.6786 12.2832 17.7198 12.4205 17.708 12.5584C17.6975 12.6661 17.654 12.7679 17.5834 12.85C17.5128 12.932 17.4187 12.9902 17.3137 13.0167C17.3063 13.0187 17.2987 13.0202 17.2911 13.0214L13.3677 13.612C13.2075 13.6334 13.0536 13.688 12.9158 13.7723C12.7706 13.8645 12.6021 13.9133 12.4302 13.913H2.89062C2.73644 13.9135 2.58805 13.8543 2.47661 13.7477C2.36517 13.6412 2.29935 13.4956 2.29296 13.3415C2.26922 12.7597 2.37466 12.1797 2.60172 11.6434ZM10.7692 4.28155C10.7562 4.26823 10.739 4.25984 10.7205 4.2578C10.6902 4.25874 10.6589 4.28905 10.6291 4.32686C10.5664 4.41397 10.523 4.51341 10.5017 4.61858C10.4381 4.88737 10.4606 5.16934 10.5659 5.42467C10.5972 5.49014 10.6655 5.59514 10.733 5.59514C10.7894 5.59514 10.8855 5.46655 10.94 5.23577C11.0328 4.84483 10.9264 4.40921 10.7692 4.28155ZM13.8691 6.50452C13.8711 6.50868 13.8741 6.51232 13.8777 6.51514C13.8814 6.51796 13.8857 6.51989 13.8902 6.52077C13.8948 6.52164 13.8995 6.52145 13.9039 6.52021C13.9084 6.51896 13.9125 6.51669 13.9159 6.51358C14.1248 6.29686 14.2427 6.00832 14.2453 5.70733C14.2581 5.40655 14.1616 5.1113 13.9737 4.87608C13.9706 4.87268 13.9667 4.87009 13.9623 4.86853C13.9579 4.86696 13.9532 4.86648 13.9486 4.8671C13.944 4.86773 13.9397 4.86946 13.9359 4.87214C13.9321 4.87481 13.929 4.87836 13.9269 4.88249C13.7914 5.14749 13.7158 5.43898 13.7053 5.73639C13.7021 6.00143 13.758 6.26385 13.8691 6.50452ZM5.14906 9.47764H9.48047C9.58984 9.47764 9.85937 9.25717 9.85937 8.84967C9.85931 8.74106 9.8208 8.63598 9.75068 8.55305C9.68055 8.47011 9.58333 8.41467 9.47625 8.39655L5.56515 8.26577C5.45936 8.26348 5.35423 8.28313 5.2564 8.32347C5.15858 8.3638 5.07016 8.42396 4.99671 8.50014C4.68 8.84764 5.00343 9.30514 5.14906 9.47764ZM2.95281 11.0105C3.17127 10.6979 3.43553 10.4201 3.73672 10.1862C3.59924 10.1569 3.45602 10.1716 3.32738 10.2283C3.19875 10.285 3.09125 10.3808 3.02015 10.502C2.96969 10.5755 2.93731 10.6598 2.92566 10.7482C2.91402 10.8366 2.92342 10.9264 2.95312 11.0105H2.95281Z" fill="#944C2C"/>
</svg>
