<svg width="34" height="48" viewBox="0 0 34 48" fill="none" xmlns="http://www.w3.org/2000/svg">
<path d="M31.5458 12.7684V36.3869C31.5458 38.5515 30.3587 40.4389 28.6008 41.4338C27.5373 40.9034 26.3395 40.378 24.9979 39.8573C-10.7804 25.9734 13.0901 0 13.0901 0H17.3227C17.7033 0 18.0491 0.223125 18.2036 0.571875C18.7223 1.74637 19.6757 2.68725 20.8598 3.19041C21.5135 3.468 21.4279 4.13831 21.4732 4.42772C21.4732 4.42772 18.8566 13.1798 27.7488 8.62847C28.0067 8.71641 28.224 8.91441 28.3341 9.18197C28.8316 10.3855 29.7782 11.3562 30.9653 11.8837C31.3169 12.0401 31.5458 12.3849 31.5458 12.7684Z" fill="#C8AE9D"/>
<path d="M20.7354 42.1823H8.25003C5.04903 42.1823 2.45459 39.587 2.45459 36.3869V5.79544C2.4545 2.59444 5.04893 0 8.25003 0H13.0903C11.652 5.31441 6.38684 28.5687 22.2944 35.2732C28.1236 37.7295 26.1164 40.0999 20.7354 42.1823Z" fill="#C8AE9D"/>
<path fill-rule="evenodd" clip-rule="evenodd" d="M12.0958 4.36997C12.0959 4.36989 12.0959 4.36981 12.0959 4.36974C12.0379 4.36589 11.9791 4.36392 11.9201 4.36402H8.98854C7.38804 4.36402 6.09082 5.66124 6.09082 7.26174V10.9205C6.09082 12.521 7.38804 13.8182 8.98854 13.8182H11.1029C11.1029 13.8182 11.1029 13.8181 11.1029 13.818C11.103 13.8181 11.1031 13.8182 11.1032 13.8183H11.9203C13.5208 13.8183 14.8181 12.5211 14.8181 10.9206V7.26175C14.8181 5.72013 13.6146 4.45966 12.0961 4.36975C12.0961 4.36975 12.096 4.36982 12.0958 4.36997Z" fill="#AE896F"/>
<path d="M27.9091 8.98692V10.9207C27.9091 12.5212 26.6119 13.8184 25.0114 13.8184H22.0798C20.4793 13.8184 19.1821 12.5212 19.1821 10.9207V7.26183C19.1821 5.86898 20.1644 4.70601 21.4733 4.42786C21.5042 4.61714 21.5447 4.80164 21.595 4.98229C22.1919 7.11698 24.1517 8.6827 26.4766 8.6827C27.0973 8.6827 27.346 8.48639 27.7487 8.62861C27.8463 8.71542 27.9091 8.84395 27.9091 8.98692Z" fill="#AE896F"/>
<path d="M25.0969 27.6365H21.9946C20.4413 27.6365 19.1821 26.3773 19.1821 24.824V20.9944C19.1821 19.441 20.4413 18.1819 21.9946 18.1819H25.0969C26.6503 18.1819 27.9094 19.441 27.9094 20.9944V24.824C27.9094 26.3773 26.6502 27.6365 25.0969 27.6365Z" fill="#AE896F"/>
<path fill-rule="evenodd" clip-rule="evenodd" d="M14.8181 24.7389V21.0791C14.8181 19.4796 13.5208 18.1813 11.9203 18.1814H11.2752C11.2752 18.1814 11.2751 18.1815 11.2749 18.1818C11.2748 18.1817 11.2748 18.1816 11.2748 18.1815H8.98854C7.38804 18.1815 6.09082 19.4798 6.09082 21.0792V24.739C6.09082 26.3396 7.38804 27.6368 8.98854 27.6368H11.9201C12.5605 27.6368 13.1526 27.4291 13.6317 27.0765C13.6317 27.0765 13.6317 27.0764 13.6316 27.0764C13.6317 27.0764 13.6318 27.0765 13.6319 27.0765C14.3516 26.55 14.8181 25.699 14.8181 24.7389Z" fill="#AE896F"/>
<path d="M33.0005 28.364V42.2045C33.0005 45.4055 30.4051 48 27.2051 48H13.2215C13.2215 48 -1.52893 42.9096 10.2755 28.364H33.0005Z" fill="#A7C49C"/>
<path d="M13.2216 48H6.79544C3.59537 48 1 45.4055 1 42.2045V28.364H10.2756C9.60138 31.2993 7.53438 42.3832 13.2216 48Z" fill="#A7C49C"/>
<path d="M33.7279 29.8892C33.7279 32.3878 31.3121 34.1645 28.9302 33.4331C28.3609 33.3407 25.0476 31.6899 20.8629 33.3646C18.3874 34.3543 15.6162 34.3556 13.1375 33.3646C13.0554 33.3317 12.9734 33.2998 12.8902 33.2689C5.28559 30.1153 12.2343 26.182 12.2343 26.182H30.0197C32.0674 26.182 33.7279 27.8415 33.7279 29.8892Z" fill="#FFE1AE"/>
<path d="M12.8901 33.2689C11.7262 32.8381 10.5024 32.6208 9.27471 32.6208C7.16628 32.6208 5.82462 33.2401 5.07012 33.4331C2.68624 34.1662 0.272461 32.3841 0.272461 29.8892C0.272461 28.8653 0.687774 27.939 1.35818 27.2677C2.02952 26.5964 2.95671 26.182 3.98065 26.182H12.2344C11.6828 27.3208 10.5526 30.4243 12.8901 33.2689Z" fill="#FFE1AE"/>
<path d="M11.9532 41.0588C11.9538 42.3568 10.6331 43.4096 9.00316 43.4104C7.37331 43.4113 6.05144 42.3598 6.05078 41.0618C6.05013 39.7638 7.37088 38.7109 9.00082 38.7101C10.6308 38.7092 11.9525 39.7608 11.9532 41.0588Z" fill="#F2F7F1"/>
<path d="M22.0474 41.0536C22.048 42.3516 23.3698 43.4031 24.9997 43.4022C26.6296 43.4014 27.9503 42.3486 27.9498 41.0506C27.9491 39.7527 26.6273 38.7011 24.9974 38.7019C23.3675 38.7027 22.0467 39.7557 22.0474 41.0536Z" fill="#F2F7F1"/>
<path d="M19.8921 39.9923C19.8912 38.2045 18.596 38.0371 16.9983 38.038C15.4007 38.0388 14.1056 38.2074 14.1064 39.9953C14.1074 41.7831 15.4033 43.2317 17.0009 43.2309C18.5986 43.23 19.8931 41.7801 19.8921 39.9923Z" fill="#415539"/>
<path d="M9.31572 39.2271C8.91578 39.2271 8.5915 38.903 8.59131 38.503C8.59075 37.329 9.5454 36.3734 10.7194 36.3728H10.7205C11.8941 36.3728 12.849 37.3272 12.8495 38.5008C12.8497 38.901 12.5255 39.2254 12.1254 39.2256C12.1253 39.2256 12.1251 39.2256 12.125 39.2256C11.7251 39.2256 11.4008 38.9015 11.4006 38.5015C11.4004 38.1266 11.0953 37.8216 10.7204 37.8216C10.7202 37.8216 10.7201 37.8216 10.72 37.8216C10.3449 37.8218 10.0399 38.1271 10.0401 38.5022C10.0403 38.9024 9.71612 39.2268 9.316 39.227C9.3159 39.2271 9.31581 39.2271 9.31572 39.2271Z" fill="#415539"/>
<path d="M21.8724 39.2208C21.4724 39.2208 21.1481 38.8967 21.1479 38.4967C21.1477 37.928 21.3688 37.3932 21.7708 36.991C22.1727 36.5886 22.7073 36.3669 23.276 36.3666H23.2771C23.8453 36.3666 24.3797 36.5877 24.7818 36.9895C25.1841 37.3914 25.4059 37.9259 25.4062 38.4947C25.4064 38.8948 25.0822 39.2193 24.6821 39.2195C24.682 39.2195 24.6819 39.2195 24.6818 39.2195C24.2818 39.2195 23.9575 38.8954 23.9574 38.4954C23.9573 38.3137 23.8864 38.143 23.7579 38.0145C23.6294 37.8862 23.4586 37.8155 23.2771 37.8155C23.277 37.8155 23.2769 37.8155 23.2768 37.8155C23.095 37.8156 22.9243 37.8865 22.796 38.015C22.6675 38.1435 22.5969 38.3144 22.597 38.4961C22.5971 38.8962 22.273 39.2207 21.8729 39.2209C21.8726 39.2208 21.8725 39.2208 21.8724 39.2208Z" fill="#415539"/>
</svg>
