<svg width="52" height="38" viewBox="0 0 52 38" fill="none" xmlns="http://www.w3.org/2000/svg">
<path d="M45.7185 37.5154H6.28156C2.22566 37.5154 -0.765963 33.7275 0.173692 29.7825L5.64537 6.8003C5.81071 6.1045 6.20518 5.51005 6.73676 5.08938C7.26935 4.66983 7.93804 4.42384 8.65375 4.42384C9.82365 4.42384 10.9109 3.77293 11.4173 2.7182C12.0535 1.39657 13.4043 0.484131 14.9698 0.484131C16.7058 0.484131 18.1791 1.6069 18.7045 3.16609C18.8321 3.54492 19.077 3.85986 19.3909 4.07965C19.7038 4.29943 20.0847 4.42394 20.4845 4.42394C21.0046 4.42394 21.4932 4.21361 21.8416 3.85682C22.0289 3.66527 22.1755 3.43198 22.2643 3.16721C22.2654 3.16609 22.2654 3.16609 22.2654 3.16609C22.7906 1.60701 24.264 0.484131 26 0.484131C27.736 0.484131 29.2093 1.6069 29.7347 3.16609C29.8623 3.54492 30.1072 3.85986 30.4211 4.07965C30.734 4.29943 31.1149 4.42394 31.5157 4.42394C32.3152 4.42394 33.0403 3.92476 33.2957 3.16619C33.8209 1.60711 35.2943 0.484232 37.0303 0.484232C38.5957 0.484232 39.9467 1.39667 40.5829 2.7183C41.0893 3.77303 42.1766 4.42394 43.3464 4.42394C44.7779 4.42394 46.023 5.40758 46.3548 6.8003L51.8264 29.7825C52.766 33.7275 49.7743 37.5154 45.7185 37.5154Z" fill="#EC9A9A"/>
<g style="mix-blend-mode:multiply" opacity="0.25">
<path d="M32.3579 37.5154H6.28156C2.22566 37.5154 -0.765964 33.7275 0.173693 29.7825L5.64537 6.8003C5.81072 6.1045 6.20519 5.51005 6.73676 5.08938C7.26936 4.66983 7.93805 4.42384 8.65376 4.42384C9.82366 4.42384 10.9109 3.77293 11.4173 2.7182C12.0535 1.39657 13.4043 0.484131 14.9698 0.484131C16.7058 0.484131 18.1791 1.6069 18.7045 3.16609C18.8321 3.54492 19.077 3.85986 19.3909 4.07965C19.7039 4.29943 20.0847 4.42394 20.4845 4.42394C21.0046 4.42394 21.4932 4.21361 21.8417 3.85682C19.4213 7.95771 8.29382 29.2279 32.3579 37.5154Z" fill="#EC9A9A"/>
</g>
<path d="M43.636 25.6975C42.5991 25.6975 41.7577 26.5377 41.7577 27.5758V29.6362C41.7577 30.9421 40.6987 32 39.3938 32H37.818C36.5121 32 35.4541 30.9421 35.4541 29.6362V28.0603C35.4541 26.7555 34.3963 25.6976 33.0903 25.6976H31.5311C30.2325 25.6976 29.138 26.7377 29.1516 28.0363C29.1579 28.6987 28.8921 29.2993 28.4588 29.7325C28.0308 30.1594 27.4396 30.4242 26.7877 30.4242H25.2119C23.906 30.4242 22.848 29.3652 22.848 28.0603C22.848 27.4074 22.5832 26.8172 22.1563 26.3892C21.7284 25.9623 21.1382 25.6976 20.4852 25.6976H18.9083C18.699 25.6976 18.496 25.7248 18.3035 25.7761C17.2916 26.0429 16.5455 26.9648 16.5455 28.0603V29.6362C16.5455 30.9411 15.4876 32 14.1817 32H12.6058C11.3009 32 10.2419 30.9421 10.2419 29.6362V27.5758C10.2419 26.5377 9.4006 25.6975 8.36365 25.6975C7.30263 25.6975 6.48535 24.83 6.48535 23.8223C6.48535 23.6779 6.50099 23.5315 6.53664 23.3839L9.25425 11.9728C9.63308 10.3823 10.692 9.03454 12.1549 8.30207C12.1716 8.29365 12.1894 8.2843 12.2072 8.27587C13.8228 7.45027 15.744 7.48064 17.3409 8.34178C17.9551 8.67247 18.6248 8.9079 19.3279 9.0314C19.7046 9.09843 20.0918 9.13296 20.4842 9.13296C21.5464 9.13296 22.5624 8.88179 23.4644 8.42659C25.0654 7.62089 26.9343 7.62089 28.5353 8.42659C29.4373 8.88179 30.4534 9.13296 31.5154 9.13296C32.6414 9.13296 33.716 8.85041 34.6588 8.34189C36.2556 7.48074 38.1768 7.45037 39.7925 8.27597C39.8102 8.2844 39.828 8.29375 39.8448 8.30218C41.3077 9.03464 42.3666 10.3824 42.7454 11.9729L45.4629 23.384C45.7434 24.5643 44.8488 25.6975 43.636 25.6975Z" fill="#FFE1AE"/>
<path d="M18.3044 25.776C17.2926 26.0428 16.5465 26.9647 16.5465 28.0602V29.6361C16.5465 30.941 15.4886 31.9999 14.1826 31.9999H12.6068C11.3019 31.9999 10.2429 30.942 10.2429 29.6361V27.5757C10.2429 26.5376 9.40158 25.6974 8.36462 25.6974C7.3036 25.6974 6.48633 24.8299 6.48633 23.8222C6.48633 23.6778 6.50197 23.5314 6.53762 23.3838L9.25513 11.9728C9.63395 10.3823 10.6928 9.03454 12.1558 8.30207C12.1725 8.29365 12.1903 8.2843 12.2081 8.27587C13.8237 7.45027 15.7449 7.48064 17.3417 8.34178C17.956 8.67247 18.6257 8.90789 19.3288 9.03139C17.5594 13.5131 16.0453 19.9004 18.3044 25.776Z" fill="#FFE1AE"/>
<path d="M17.2256 21.1927C19.0135 21.1927 20.4629 20.0385 20.4629 18.6147C20.4629 17.1909 19.0135 16.0366 17.2256 16.0366C15.4377 16.0366 13.9883 17.1909 13.9883 18.6147C13.9883 20.0385 15.4377 21.1927 17.2256 21.1927Z" fill="#FAB292"/>
<path d="M34.7744 21.1927C36.5623 21.1927 38.0117 20.0385 38.0117 18.6147C38.0117 17.1909 36.5623 16.0366 34.7744 16.0366C32.9865 16.0366 31.5371 17.1909 31.5371 18.6147C31.5371 20.0385 32.9865 21.1927 34.7744 21.1927Z" fill="#FAB292"/>
<path opacity="0.7" d="M25.9997 18.5571C26.9488 18.5571 27.7181 17.6962 27.7181 16.6342C27.7181 15.5721 26.9488 14.7112 25.9997 14.7112C25.0506 14.7112 24.2812 15.5721 24.2812 16.6342C24.2812 17.6962 25.0506 18.5571 25.9997 18.5571Z" fill="#332712"/>
<path opacity="0.7" d="M17.7672 16.2886C17.3337 16.2886 16.9824 15.9373 16.9824 15.5039V14.2482C16.9824 13.8147 17.3338 13.4634 17.7672 13.4634C18.2007 13.4634 18.552 13.8147 18.552 14.2482V15.5039C18.552 15.9373 18.2007 16.2886 17.7672 16.2886Z" fill="#332712"/>
<path opacity="0.7" d="M34.232 16.2886C33.7986 16.2886 33.4473 15.9373 33.4473 15.5039V14.2482C33.4473 13.8147 33.7987 13.4634 34.232 13.4634C34.6655 13.4634 35.0168 13.8147 35.0168 14.2482V15.5039C35.0168 15.9373 34.6655 16.2886 34.232 16.2886Z" fill="#332712"/>
</svg>
