<svg width="32" height="52" viewBox="0 0 32 52" fill="none" xmlns="http://www.w3.org/2000/svg">
<path d="M11.9033 25.0786H20.0968V47.9034C20.0968 50.1659 18.2627 52.0001 16.0001 52.0001C13.7376 52.0001 11.9034 50.1659 11.9034 47.9034V25.0786H11.9033Z" fill="#FFF9F2"/>
<path d="M20.0968 40.5865V25.0786H11.9033V40.5865C14.5133 39.4357 17.4868 39.4357 20.0968 40.5865Z" fill="#FFF9F2"/>
<path d="M15.9999 31.3806C24.6654 31.3806 31.6902 24.3558 31.6902 15.6903C31.6902 7.02479 24.6654 0 15.9999 0C7.33436 0 0.30957 7.02479 0.30957 15.6903C0.30957 24.3558 7.33436 31.3806 15.9999 31.3806Z" fill="#FFE1AE"/>
<g style="mix-blend-mode:multiply" opacity="0.3">
<path d="M5.37701 4.14282C2.26161 7.01025 0.30957 11.1223 0.30957 15.6903C0.30957 24.3558 7.33438 31.3806 15.9999 31.3806C23.3433 31.3806 29.5084 26.3358 31.2187 19.5229C22.593 21.5782 11.3387 19.3349 5.37701 4.14282Z" fill="#FFE1AE"/>
</g>
<path d="M15.3373 29.7098C15.1535 29.7098 14.9689 29.6457 14.8199 29.5148C12.5271 27.5016 10.8648 25.5353 9.73805 23.5034C8.32893 20.9625 7.73203 18.1837 8.05742 15.6788C8.43178 12.7954 10.1012 10.1917 12.4142 8.88397C15.017 7.41227 18.3286 7.65323 20.4676 9.46967C22.7923 11.4441 23.2804 15.0799 21.5334 17.4089C20.8137 18.3682 19.6777 19.0317 18.4941 19.184C17.5369 19.3075 16.6286 19.0728 15.9368 18.5234C15.5974 18.254 15.5408 17.7604 15.8103 17.421C16.0798 17.0817 16.5734 17.0249 16.9128 17.2945C17.3704 17.6578 17.9165 17.6762 18.2938 17.6276C19.0542 17.5297 19.8143 17.0851 20.2779 16.4673C21.5226 14.808 21.1366 12.097 19.4517 10.6661C17.8305 9.28898 15.1954 9.11415 13.1865 10.25C11.2948 11.3197 9.92575 13.4773 9.61365 15.8808C9.33126 18.0556 9.86287 20.4924 11.1105 22.7421C12.1484 24.6137 13.7005 26.4432 15.8554 28.3354C16.1811 28.6214 16.2134 29.1172 15.9274 29.4428C15.7721 29.6195 15.5552 29.7098 15.3373 29.7098Z" fill="#E06B38"/>
<path d="M13.464 35.7829C12.5856 36.6724 11.4081 37.5246 10.2486 37.844C9.01121 38.1849 7.59068 37.979 6.61732 37.1423C5.50325 36.1849 5.1405 34.5156 5.57251 33.1115C6.00441 31.7075 7.13848 30.5829 8.46986 29.9622C9.80125 29.3416 11.3128 29.1868 12.7774 29.2996C13.891 29.3853 15.1826 29.9097 15.4018 31.1368C15.639 32.4645 14.6619 34.4572 13.7968 35.4283C13.6915 35.5465 13.5804 35.6651 13.464 35.7829Z" fill="#FEF2ED"/>
<g style="mix-blend-mode:multiply">
<path d="M5.88086 32.3622C6.43057 31.3085 7.38447 30.468 8.46956 29.9622C9.80095 29.3416 11.3125 29.1868 12.7771 29.2996C13.8907 29.3853 15.1823 29.9097 15.4015 31.1368C15.6387 32.4645 14.6616 34.4572 13.7965 35.4283C13.6913 35.5463 13.5801 35.6649 13.4638 35.7828C11.4171 33.959 8.51894 32.7969 5.88086 32.3622Z" fill="#FEF2ED"/>
</g>
<path d="M9.54574 31.1972C8.32274 30.938 6.9698 30.4068 6.07503 29.6031C5.12009 28.7454 4.52674 27.4385 4.70555 26.1675C4.9102 24.7128 6.1196 23.5065 7.53458 23.1121C8.94967 22.7178 10.5085 23.0655 11.7496 23.8512C12.9907 24.637 13.937 25.8259 14.6326 27.1196C15.1616 28.1033 15.4173 29.4736 14.5027 30.3205C13.513 31.2368 11.3082 31.49 10.0237 31.286C9.86757 31.2612 9.70781 31.2316 9.54574 31.1972Z" fill="#FEF2ED"/>
<path d="M18.5364 35.7829C19.4148 36.6724 20.5922 37.5246 21.7517 37.844C22.9892 38.1849 24.4097 37.979 25.383 37.1423C26.4971 36.1849 26.8599 34.5156 26.4279 33.1115C25.9959 31.7075 24.8619 30.5829 23.5305 29.9622C22.1991 29.3416 20.6876 29.1868 19.223 29.2996C18.1093 29.3853 16.8178 29.9097 16.5986 31.1368C16.3614 32.4645 17.3384 34.4572 18.2036 35.4283C18.3088 35.5465 18.42 35.6651 18.5364 35.7829Z" fill="#FEF2ED"/>
<g style="mix-blend-mode:multiply">
<path d="M26.1192 32.3622C25.5695 31.3085 24.6156 30.468 23.5305 29.9622C22.1991 29.3416 20.6875 29.1868 19.223 29.2996C18.1093 29.3853 16.8178 29.9097 16.5986 31.1368C16.3614 32.4645 17.3384 34.4572 18.2036 35.4283C18.3087 35.5463 18.42 35.6649 18.5363 35.7828C20.5829 33.959 23.4811 32.7969 26.1192 32.3622Z" fill="#FEF2ED"/>
</g>
<path d="M22.454 31.1972C23.6769 30.938 25.0299 30.4068 25.9247 29.6031C26.8796 28.7454 27.4729 27.4385 27.2941 26.1675C27.0895 24.7128 25.8801 23.5065 24.4651 23.1121C23.05 22.7178 21.4912 23.0655 20.2501 23.8512C19.009 24.637 18.0627 25.8259 17.3671 27.1196C16.8381 28.1033 16.5824 29.4736 17.497 30.3205C18.4867 31.2368 20.6915 31.49 21.976 31.286C22.1321 31.2612 22.2919 31.2316 22.454 31.1972Z" fill="#FEF2ED"/>
<path d="M15.9997 34.1798C18.0458 34.1798 19.7045 32.5211 19.7045 30.475C19.7045 28.4289 18.0458 26.7703 15.9997 26.7703C13.9536 26.7703 12.2949 28.4289 12.2949 30.475C12.2949 32.5211 13.9536 34.1798 15.9997 34.1798Z" fill="#FAB292"/>
<path d="M19.7045 30.4749C19.7045 32.521 18.0458 34.1796 15.9997 34.1796C13.9536 34.1796 12.2949 32.521 12.2949 30.4749C14.8373 31.9113 17.9322 31.5633 19.7045 30.4749Z" fill="#FAB292"/>
</svg>
