<svg width="91" height="117" viewBox="0 0 91 117" fill="none" xmlns="http://www.w3.org/2000/svg">
<path d="M89.3289 45.7883C89.3289 21.8447 69.9187 2.43445 45.975 2.43445C22.0313 2.43445 2.62109 21.8447 2.62109 45.7883C2.62109 69.732 22.0313 89.1423 45.975 89.1423C69.9187 89.1423 89.3289 69.732 89.3289 45.7883Z" fill="#FFF9EF"/>
<g opacity="0.2">
<path opacity="0.2" d="M45.4292 116.5C61.0066 116.5 73.6347 114.734 73.6347 112.556C73.6347 110.377 61.0066 108.611 45.4292 108.611C29.8517 108.611 17.2236 110.377 17.2236 112.556C17.2236 114.734 29.8517 116.5 45.4292 116.5Z" fill="#332712"/>
</g>
<path d="M38.4142 52.7986L47.2635 91.0406C47.3451 91.3932 47.3565 91.7584 47.297 92.1153C47.2374 92.4723 47.1082 92.814 46.9165 93.1211C46.7249 93.4281 46.4747 93.6943 46.1801 93.9046C45.8856 94.1149 45.5525 94.2651 45.1999 94.3466L43.6375 94.7084C43.2849 94.79 42.9197 94.8014 42.5628 94.7419C42.2058 94.6823 41.864 94.5531 41.557 94.3614C41.25 94.1698 40.9838 93.9196 40.7735 93.625C40.5632 93.3305 40.413 92.9974 40.3315 92.6448L31.4822 54.4029C31.4005 54.0503 31.3891 53.6851 31.4486 53.3281C31.5081 52.9711 31.6374 52.6293 31.829 52.3223C32.0207 52.0153 32.2709 51.7491 32.5655 51.5388C32.86 51.3285 33.1931 51.1783 33.5458 51.0968L35.1082 50.7351C35.4607 50.6534 35.8259 50.6421 36.1829 50.7016C36.5399 50.7611 36.8816 50.8904 37.1886 51.082C37.4956 51.2736 37.7619 51.5239 37.9722 51.8184C38.1825 52.1129 38.3327 52.446 38.4142 52.7986Z" fill="#FFF9F2"/>
<path d="M43.01 95.4515C42.2363 95.4493 41.4862 95.1856 40.8813 94.7033C40.2763 94.221 39.8522 93.5484 39.6777 92.7947L30.8288 54.5542C30.7271 54.1157 30.7128 53.6615 30.7867 53.2174C30.8607 52.7734 31.0214 52.3482 31.2596 51.9663C31.4979 51.5844 31.8091 51.2532 32.1754 50.9916C32.5418 50.73 32.9561 50.5431 33.3946 50.4417L34.9574 50.0803C35.3959 49.9787 35.8501 49.9644 36.2941 50.0384C36.7381 50.1124 37.1632 50.2731 37.5451 50.5113C37.927 50.7496 38.2582 51.0607 38.5199 51.427C38.7815 51.7933 38.9684 52.2075 39.0699 52.6461L47.9192 90.888C48.1233 91.7736 47.9677 92.704 47.4866 93.475C47.0055 94.246 46.2382 94.7947 45.353 95.0006L43.7903 95.362C43.5344 95.4215 43.2726 95.4515 43.01 95.4515ZM35.734 51.3344C35.5748 51.3345 35.416 51.3528 35.2609 51.389L33.6982 51.7504C33.1596 51.8752 32.6927 52.2088 32.4 52.6778C32.1073 53.1468 32.0127 53.7128 32.1372 54.2514L40.9854 92.4934C41.1106 93.0317 41.4443 93.4984 41.9131 93.791C42.382 94.0837 42.9477 94.1785 43.4864 94.0547L45.0492 93.6929C45.5874 93.5677 46.0541 93.234 46.3467 92.7652C46.6393 92.2963 46.7341 91.7305 46.6101 91.1919L37.7608 52.95C37.6546 52.4916 37.3966 52.0826 37.0287 51.7893C36.6608 51.496 36.2045 51.3357 35.734 51.3344Z" fill="#332712"/>
<path d="M57.5653 28.8926C57.6687 33.169 56.8045 37.4136 55.0373 41.3092C53.2702 45.2048 50.6457 48.6509 47.3599 51.3899C44.0741 54.1289 40.2119 56.0902 36.0618 57.1272C31.9117 58.1642 27.5809 58.2502 23.3929 57.3787C16.0478 55.8523 9.71924 51.4774 5.64709 45.4334C3.15165 41.7349 1.57001 37.4968 1.0323 33.0677C0.921423 32.1596 0.853729 31.2376 0.829224 30.3017C0.691198 25.0859 2.00054 19.9337 4.61204 15.4165C9.39497 7.14446 18.2424 1.48371 28.4928 1.22895C32.7246 1.11728 36.9274 1.95808 40.7905 3.6892C49.9982 7.8163 56.6376 16.7158 57.4819 27.3145C57.5012 27.5554 57.5183 27.7986 57.5307 28.0424C57.5438 28.2549 57.5529 28.4676 57.558 28.6804C57.5616 28.7528 57.5635 28.8238 57.5653 28.8926Z" fill="#FFE1AE"/>
<path d="M56.181 34.9687C55.3923 22.5219 40.2883 14.0438 36.9885 26.7185L37.1835 24.2222C30.5314 14.5839 43.253 8.67713 55.1663 18.1444C55.1663 18.1429 59.5398 24.6163 56.181 34.9687Z" fill="#E06B38"/>
<path d="M30.4893 49.1852C38.0593 47.3291 40.3404 37.8998 40.3404 37.8998C40.3404 37.8998 43.6523 35.1232 45.0255 31.1395C45.0255 31.1395 48.5029 38.8416 45.2802 46.0466C40.62 48.9003 35.6944 49.9794 30.4893 49.1852Z" fill="#E06B38"/>
<path d="M46.3541 52.1998C43.1187 54.6529 39.3953 56.3843 35.4346 57.2776C31.4739 58.171 27.3678 58.2054 23.3927 57.3787C23.3264 57.3325 23.2678 57.2899 23.2169 57.2528C23.0251 57.2477 22.8329 57.2353 22.6407 57.2135C18.558 56.1639 14.6591 54.0876 10.8916 51.2812C11.0783 51.3839 18.4252 55.3672 26.9491 53.3029L31.0835 53.977L44.6724 51.6718L46.3541 52.1998Z" fill="#E06B38"/>
<path d="M14.832 38.4365C17.761 40.8484 21.4099 41.6636 26.3763 39.5593L30.2803 40.7803C30.2803 40.7803 26.0007 45.366 19.4195 44.3921C19.4195 44.3935 16.8854 41.6287 14.832 38.4365Z" fill="#E06B38"/>
<path d="M22.9801 15.9631C22.9801 15.9631 20.2596 19.1746 20.6508 25.3499C20.6508 25.3499 19.2751 29.5484 20.7236 32.9199C17.0056 31.7342 14.4853 29.1877 15.782 22.3059C15.7824 22.3063 18.6699 17.3377 22.9801 15.9631Z" fill="#E06B38"/>
<path d="M14.0969 45.302C8.7782 43.5161 2.60101 38.7215 1.03133 33.0677C0.920444 32.1595 0.852753 31.2376 0.828247 30.3017C0.690222 25.0859 1.99956 19.9337 4.61106 15.4165C4.61106 15.4165 2.27492 25.1505 8.71997 34.5169C8.72252 34.5169 9.89005 42.4793 14.0969 45.302Z" fill="#E06B38"/>
<path d="M57.5652 28.8925C57.7472 35.7779 55.4081 42.4927 50.9877 47.7749C49.9509 48.612 48.8588 49.3781 47.7187 50.0678C43.8944 52.3875 39.4823 53.8262 34.952 54.046C32.7036 54.1708 30.4646 53.9962 28.2507 53.5853C27.1502 53.3614 26.0525 53.1045 24.9811 52.7457L24.5789 52.6175L24.1786 52.472C23.9136 52.373 23.6483 52.2798 23.3852 52.1772C22.8637 51.9559 22.3388 51.7484 21.8301 51.4962C21.314 51.2637 20.8179 50.9867 20.3164 50.7207C20.0697 50.5831 19.828 50.4335 19.5827 50.2901L19.2188 50.0718L18.8617 49.837C17.9048 49.2168 16.9947 48.5272 16.1387 47.7738C14.408 46.262 12.9152 44.4976 11.711 42.5403C11.1036 41.5639 10.5962 40.5274 10.1424 39.4723C9.70493 38.409 9.34514 37.3154 9.06587 36.2001C8.99745 35.9217 8.9425 35.6393 8.88208 35.3609L8.7911 34.9394L8.72304 34.5172L8.58838 33.6689L8.49994 32.8176L8.457 32.3929L8.4348 31.9656L8.39258 31.1133V30.2424C8.39258 29.953 8.4166 29.6626 8.42897 29.3729C8.49964 28.2126 8.66605 27.0601 8.92648 25.9271C9.19464 24.7943 9.55856 23.6864 10.0143 22.6152C10.9209 20.4696 12.1906 18.4962 13.7676 16.782C16.8906 13.3442 21.231 11.0175 25.8363 10.3486L26.2683 10.2841L26.7007 10.2372C26.9897 10.2128 27.2783 10.171 27.5676 10.1619C27.8569 10.1528 28.1459 10.1302 28.4411 10.1211C28.7384 10.1233 29.0376 10.1178 29.3349 10.1258C33.5667 10.2548 37.595 11.9719 40.6185 14.9356C43.6421 17.8992 45.4394 21.8923 45.653 26.1207L45.6737 26.5691V27.0313C45.6796 27.3399 45.6526 27.6475 45.6373 27.9565C45.5835 28.5715 45.5089 29.1873 45.376 29.7929C45.1282 31.0074 44.6987 32.1822 44.1434 33.2867C43.0031 35.4974 41.2997 37.368 39.205 38.7095C37.1042 40.0446 34.6847 40.794 32.197 40.88C30.909 40.9177 29.6232 40.7515 28.3872 40.3876C27.1451 40.0273 25.9812 39.425 24.9403 38.6724C23.8966 37.9138 22.9829 36.9907 22.2351 35.9392C21.493 34.8801 20.933 33.7045 20.5781 32.461C20.4918 32.1505 20.3961 31.8423 20.3495 31.5213L20.2647 31.0456C20.24 30.8873 20.2032 30.729 20.1974 30.5677L20.1246 29.6051C20.1166 29.2754 20.133 28.9336 20.1421 28.5977C20.2351 27.2393 20.6146 25.916 21.2558 24.7148C22.5296 22.3241 24.7893 20.496 27.4249 19.7401C28.0834 19.5519 28.76 19.4341 29.4434 19.3889C29.5318 19.3845 29.6119 19.3732 29.7021 19.3729H29.9762L30.5221 19.3842C30.7041 19.4009 30.886 19.4205 31.068 19.4457L31.3395 19.4821C31.4301 19.4973 31.5189 19.5184 31.6074 19.5388C31.7868 19.5785 31.9644 19.6222 32.142 19.6677C32.3178 19.7186 32.4899 19.7816 32.6624 19.8427C32.836 19.8997 33.0056 19.9685 33.1698 20.0487C33.3346 20.1251 33.5017 20.2034 33.6629 20.2856C33.8223 20.3737 33.9763 20.4716 34.132 20.5655L34.3639 20.7093C34.4367 20.7595 34.5094 20.8184 34.5822 20.8709L35.0106 21.2053C35.146 21.3229 35.2777 21.4481 35.4073 21.5733L35.5998 21.7622L35.7796 21.963C35.8979 22.1003 36.0143 22.2353 36.1272 22.3747L36.4354 22.8136L36.5846 23.0363L36.7171 23.2689C36.8034 23.4239 36.8918 23.5793 36.9741 23.7344C37.0468 23.8974 37.1164 24.0619 37.184 24.2239C37.2204 24.3057 37.2532 24.3854 37.2838 24.4688L37.3649 24.7199C37.4192 24.8895 37.4712 25.0569 37.5196 25.2243C37.5582 25.3961 37.5924 25.5679 37.6262 25.7379L37.6746 25.9955L37.7005 26.2539L37.7478 26.7704C37.7518 26.9429 37.7478 27.1157 37.7453 27.2864C37.7478 27.6183 37.6994 27.9914 37.6466 28.3419C37.6102 28.5173 37.5738 28.6927 37.5294 28.8645C37.485 29.0363 37.4202 29.2048 37.3653 29.374C37.1263 30.0299 36.7784 30.6409 36.3364 31.1813C35.9043 31.6961 35.3874 32.1332 34.8079 32.4737C33.6818 33.1517 32.348 33.3555 31.1896 33.1197C31.059 33.0934 30.9409 33.0246 30.8537 32.924C30.7665 32.8234 30.7152 32.6967 30.7077 32.5638C30.7002 32.4309 30.737 32.2992 30.8124 32.1895C30.8877 32.0797 30.9973 31.998 31.124 31.9573L31.1604 31.9449C32.966 31.3626 33.9522 29.8384 33.9694 28.5147C33.9653 28.4303 33.9748 28.3495 33.9694 28.2694C33.9577 28.185 33.9537 28.1068 33.9479 28.0263C33.9191 27.864 33.906 27.7203 33.8496 27.5416C33.8245 27.4557 33.8088 27.3698 33.7859 27.2868L33.6975 27.0437L33.656 26.9218L33.5974 26.8082C33.5593 26.7325 33.5249 26.6567 33.494 26.5807C33.3237 26.2896 33.1556 26.0119 32.9332 25.7775L32.8561 25.6855L32.7698 25.6014C32.7108 25.5471 32.6537 25.4922 32.5987 25.4369C32.5343 25.3885 32.4735 25.3401 32.4146 25.288L32.3247 25.2134L32.2272 25.1486C32.1609 25.1064 32.1001 25.0598 32.0379 25.0154C31.9699 24.979 31.9018 24.9401 31.8374 24.9015C31.7729 24.8615 31.7053 24.8266 31.6354 24.7971C31.5655 24.7643 31.5015 24.7276 31.4316 24.6966C31.286 24.6544 31.1579 24.5751 31.0098 24.5459L30.7969 24.4786C30.7241 24.4648 30.6513 24.4531 30.5785 24.4339C30.5421 24.4251 30.5057 24.4146 30.4693 24.408L30.3601 24.3953C30.2852 24.3876 30.2116 24.3742 30.1385 24.3589C30.0657 24.3567 29.9889 24.3527 29.9121 24.3491L29.7986 24.3403C29.7622 24.3374 29.7145 24.3443 29.6741 24.3454C29.3291 24.3489 28.9851 24.3855 28.6471 24.4546C27.9626 24.5955 27.3184 24.888 26.7618 25.3106C26.204 25.7426 25.7437 26.2877 25.4113 26.9101C25.0789 27.5325 24.8818 28.2181 24.8329 28.922C24.8355 29.1003 24.8224 29.2732 24.8249 29.4555C24.8413 29.6488 24.8559 29.8402 24.8682 30.0335C24.8682 30.1314 24.8959 30.2227 24.9116 30.3184L24.9611 30.603C24.9829 30.7941 25.0469 30.9746 25.0975 31.1595C25.3088 31.899 25.6408 32.5984 26.0802 33.2296C26.53 33.856 27.0773 34.4064 27.7012 34.8597C28.3221 35.3084 29.0114 35.6749 29.752 35.8831C30.4929 36.0982 31.2627 36.1973 32.0339 36.1772C33.6831 36.1216 35.2874 35.6255 36.68 34.7403C38.0712 33.8487 39.2027 32.6059 39.9602 31.1373C40.3274 30.4051 40.6153 29.6306 40.7754 28.827C40.8653 28.4267 40.9108 28.018 40.9487 27.6107C40.9549 27.4051 40.9785 27.1994 40.9716 26.9942V26.6837L40.9559 26.3598C40.8691 24.6317 40.4139 22.942 39.621 21.404C38.8212 19.8684 37.7076 18.518 36.3524 17.4403C34.3081 15.8207 31.796 14.9032 29.189 14.824C28.9739 14.8178 28.7573 14.824 28.5408 14.8207L27.87 14.8509C27.644 14.8563 27.4224 14.8906 27.2004 14.9095L26.8656 14.9459L26.5329 14.9986C22.9881 15.5144 19.6511 17.302 17.2371 19.957C16.0203 21.2785 15.0413 22.8005 14.3434 24.4557C13.9913 25.2791 13.7113 26.1315 13.5063 27.0033C13.3056 27.8761 13.1776 28.764 13.1235 29.6579C13.1158 29.8824 13.0925 30.1055 13.0962 30.3297L13.0936 31.003L13.13 31.6905L13.146 32.0355L13.1824 32.378L13.2534 33.0626L13.36 33.7391L13.4146 34.0772L13.4874 34.411C13.5369 34.6341 13.5773 34.8575 13.633 35.0784C13.8555 35.9597 14.1397 36.8243 14.4835 37.6657C14.8435 38.4988 15.2416 39.3158 15.7209 40.0863C17.616 43.1885 20.5009 45.6735 23.8467 47.2512C27.1887 48.8369 30.9847 49.548 34.7216 49.3537C38.4207 49.1717 42.0732 47.9955 45.2825 46.0495C48.4987 44.1093 51.2701 41.4092 53.3515 38.256C55.4461 35.0917 56.8337 31.5128 57.4196 27.7636C57.4429 27.6154 57.4658 27.4655 57.4833 27.3174C57.5237 27.8367 57.5521 28.3637 57.5652 28.8925Z" fill="#E06B38"/>
<path d="M28.5082 1.86799C20.8654 4.58736 16.2204 9.78082 13.7686 16.7809C13.7686 16.7809 19.0967 10.4847 28.4402 10.1207C28.4402 10.1207 35.3551 2.14604 47.6439 7.78678C41.9195 3.68406 35.8675 0.651327 28.5082 1.86799Z" fill="#E06B38"/>
<g opacity="0.6">
<path opacity="0.6" d="M3.03965 31.7812C3.26566 40.8914 7.76144 48.8927 14.5672 53.9154C6.54114 49.075 1.08128 40.3644 0.831252 30.3014C0.440742 14.6348 12.8257 1.61801 28.4934 1.22896C34.8016 1.06248 40.984 3.01221 46.0554 6.76743C41.583 4.06661 36.3134 2.56936 30.7033 2.70838C15.0356 3.0978 2.6506 16.1135 3.03965 31.7812Z" fill="white"/>
</g>
<path d="M29.1779 58.793C21.6552 58.793 14.5412 55.9542 9.0715 50.7477C3.42203 45.3719 0.204051 38.1189 0.00934142 30.3218C-0.185368 22.5247 2.66939 15.121 8.04519 9.47152C13.421 3.82205 20.674 0.604072 28.4711 0.409362C36.2682 0.214653 43.673 3.07051 49.3228 8.44775C54.9726 13.825 58.1902 21.0765 58.385 28.8733C58.5797 36.67 55.7249 44.0744 50.3491 49.7239C44.9733 55.3734 37.7203 58.5913 29.9232 58.7861C29.6739 58.7897 29.425 58.793 29.1779 58.793ZM29.2143 2.03909C28.9806 2.03909 28.7466 2.04201 28.5122 2.04783C21.1533 2.2298 14.3064 5.26799 9.232 10.6005C4.15755 15.933 1.46438 22.9225 1.64635 30.2814C1.82832 37.6403 4.86651 44.4871 10.199 49.5612C15.5315 54.6353 22.5232 57.3274 29.8795 57.1465C37.2359 56.9656 44.0853 53.9263 49.1597 48.5939C54.2342 43.2614 56.9292 36.2719 56.7472 28.913C56.5652 21.5544 53.5271 14.7072 48.1946 9.63311C43.031 4.72062 36.3151 2.03909 29.215 2.03909H29.2143Z" fill="#332712"/>
<g opacity="0.6">
<path opacity="0.6" d="M33.6982 27.042L33.7619 27.2167L33.7087 27.1719L33.6188 27.0992L33.5213 27.0344C33.4551 26.9918 33.3943 26.9456 33.3321 26.9008C33.264 26.8644 33.1959 26.8258 33.1315 26.7869C33.067 26.7471 32.9994 26.7123 32.9295 26.6828C32.8597 26.6501 32.7956 26.6133 32.7257 26.5824C32.5802 26.5398 32.4521 26.4604 32.3039 26.4317L32.091 26.364C32.0182 26.3505 31.9454 26.3389 31.8727 26.3196C31.8363 26.3109 31.7999 26.3003 31.7635 26.2934L31.6543 26.281C31.5793 26.273 31.5058 26.2595 31.4326 26.2446C31.3599 26.2446 31.2831 26.2388 31.2063 26.2348L31.0927 26.2264C31.0563 26.2232 31.0087 26.2304 30.9683 26.2312C30.6232 26.235 30.2793 26.2716 29.9412 26.3403C29.2568 26.4815 28.6126 26.7741 28.056 27.1967C27.4981 27.6287 27.0379 28.1738 26.7055 28.7962C26.373 29.4186 26.1759 30.1042 26.1271 30.8081C26.1296 30.9864 26.1165 31.1593 26.1191 31.3416C26.1355 31.5349 26.15 31.7263 26.1624 31.9196C26.1624 32.0175 26.1901 32.1088 26.2057 32.2042L26.2552 32.4888C26.277 32.6802 26.3411 32.8607 26.3917 33.0456C26.4905 33.3862 26.6142 33.719 26.7618 34.0414C26.5138 33.7889 26.2858 33.5176 26.0798 33.2298C25.6404 32.5986 25.3084 31.8991 25.0971 31.1597C25.0466 30.9748 24.9825 30.7957 24.9607 30.6032L24.9112 30.3186C24.8955 30.2229 24.8682 30.1315 24.8679 30.0336C24.8555 29.8404 24.8409 29.6489 24.8245 29.4557C24.822 29.2737 24.8351 29.1005 24.8326 28.9221C24.8814 28.2182 25.0785 27.5326 25.4109 26.9102C25.7433 26.2879 26.2036 25.7428 26.7614 25.3107C27.318 24.8881 27.9622 24.5956 28.6467 24.4548C28.9847 24.3857 29.3287 24.3491 29.6737 24.3456C29.7141 24.3456 29.7618 24.3376 29.7982 24.3405L29.9117 24.3492C29.9885 24.3529 30.0635 24.3569 30.1381 24.359C30.2109 24.3725 30.2837 24.386 30.3597 24.3954L30.4689 24.4082C30.5053 24.4147 30.5417 24.4253 30.5781 24.434C30.6509 24.4533 30.7237 24.4649 30.7965 24.4788L31.0094 24.5461C31.1575 24.5752 31.2863 24.6553 31.4312 24.6968C31.5011 24.7277 31.5651 24.7645 31.635 24.7972C31.705 24.8267 31.7725 24.8616 31.837 24.9017C31.9014 24.9403 31.9695 24.9788 32.0375 25.0156C32.0998 25.06 32.1605 25.1066 32.2268 25.1488L32.3243 25.2136L32.4142 25.2882C32.4732 25.3402 32.5339 25.3886 32.5984 25.437C32.6533 25.4913 32.7105 25.5462 32.7694 25.6015L32.8557 25.6856L32.9328 25.7777C33.1552 26.0121 33.3233 26.2916 33.4937 26.5809C33.5242 26.6569 33.5587 26.7327 33.597 26.8084L33.6556 26.9219L33.6982 27.042Z" fill="white"/>
</g>
<g opacity="0.6">
<path opacity="0.6" d="M13.1292 31.6877L13.0928 31.0002L13.0953 30.3269C13.0917 30.1027 13.115 29.8796 13.1226 29.6551C13.1767 28.7612 13.3048 27.8733 13.5055 27.0005C13.7104 26.1287 13.9905 25.2763 14.3425 24.4529C15.0405 22.7977 16.0195 21.2757 17.2363 19.9542C19.6503 17.2974 22.9865 15.5116 26.5321 14.9959L26.8647 14.9453L27.1995 14.9089C27.4215 14.8899 27.6432 14.8557 27.8692 14.8503L28.5399 14.8201C28.7583 14.8223 28.973 14.8172 29.1881 14.8233C31.7952 14.9025 34.3072 15.82 36.3516 17.4397C37.6137 18.4437 38.6675 19.6847 39.4535 21.093C38.9118 20.4444 38.3059 19.8522 37.645 19.3257C35.6008 17.7057 33.0887 16.7881 30.4816 16.7089C30.2668 16.7027 30.0499 16.7089 29.8334 16.706L29.1626 16.7359C28.9366 16.7417 28.715 16.7759 28.493 16.7948L28.1582 16.8312L27.8259 16.8814C24.2807 17.3971 20.9437 19.1852 18.5297 21.8401C17.9228 22.5007 17.3733 23.2117 16.8872 23.9656C16.4042 24.72 15.9857 25.5138 15.636 26.3385C15.284 27.1619 15.0039 28.0143 14.7989 28.8861C14.5983 29.7587 14.4702 30.6465 14.4161 31.5403C14.4084 31.7649 14.3851 31.9879 14.3888 32.2125L14.3862 32.8854L14.4226 33.5733L14.4386 33.9179L14.475 34.2604L14.5478 34.9453L14.6548 35.6216L14.709 35.9597L14.7818 36.2938C14.8317 36.5168 14.8717 36.7403 14.9274 36.9612C15.1501 37.8425 15.4343 38.707 15.7779 39.5485C16.1055 40.3077 16.4654 41.0523 16.8898 41.7613C16.468 41.2253 16.0781 40.665 15.7223 40.0831C15.2426 39.3127 14.8444 38.4956 14.4849 37.6625C14.141 36.8211 13.8568 35.9566 13.6343 35.0753C13.579 34.8544 13.5386 34.6309 13.4887 34.4078L13.416 34.0741L13.3614 33.736L13.2547 33.0594L13.1838 32.3748L13.1474 32.0324L13.1292 31.6877Z" fill="white"/>
</g>
<g opacity="0.6">
<path opacity="0.6" d="M45.6736 27.0302V26.568L45.6529 26.1196C45.5321 23.7225 44.9003 21.3789 43.8001 19.2458C43.6592 18.971 43.5089 18.7024 43.3524 18.436C45.5185 21.1733 46.7751 24.5191 46.9463 28.0055L46.9671 28.4539V28.9161C46.9729 29.2247 46.946 29.5323 46.9307 29.8413C46.8768 30.4563 46.8022 31.0721 46.6694 31.6773C46.4215 32.8918 45.9924 34.0666 45.4367 35.1712C44.2966 37.3819 42.5931 39.2526 40.4984 40.5939C38.3977 41.9282 35.9786 42.6769 33.4914 42.7623C32.2035 42.8001 30.9177 42.634 29.6816 42.2702C28.4395 41.9096 27.2756 41.3076 26.2348 40.555C25.1911 39.7964 24.2776 38.8733 23.5299 37.8218C23.2814 37.4698 23.0539 37.1034 22.8486 36.7245C23.4658 37.4542 24.1684 38.107 24.9413 38.669C25.9822 39.4217 27.1461 40.024 28.3882 40.3843C29.6242 40.7482 30.91 40.9144 32.1979 40.8767C34.6854 40.7905 37.1046 40.0411 39.2053 38.7062C41.2999 37.3646 43.0034 35.4941 44.1436 33.2834C44.699 32.1803 45.1285 31.0055 45.3763 29.7896C45.5091 29.184 45.5837 28.5682 45.6376 27.9531C45.6525 27.6463 45.6795 27.3388 45.6736 27.0302Z" fill="white"/>
</g>
<g opacity="0.6">
<path opacity="0.6" d="M33.97 28.5118C33.966 28.4274 33.9755 28.3466 33.97 28.2665C33.9584 28.1821 33.9544 28.1038 33.9485 28.0234C33.9198 27.8611 33.9067 27.7173 33.8503 27.5386C33.8252 27.4528 33.8095 27.3669 33.7866 27.2839L33.6981 27.0408L33.6567 26.9188L33.5981 26.8053C33.56 26.7296 33.5255 26.6538 33.4947 26.5778C33.3855 26.3926 33.2763 26.211 33.1533 26.0414C33.2039 26.073 33.2585 26.1022 33.3127 26.1316C33.3753 26.176 33.4361 26.2226 33.5023 26.2648L33.5999 26.3296L33.6898 26.4042C33.7487 26.4563 33.8091 26.5047 33.8739 26.5531C33.9289 26.6073 33.986 26.6623 34.0446 26.7176L34.1312 26.8017L34.2084 26.8937C34.4308 27.1281 34.5989 27.4076 34.7692 27.697C34.7998 27.7729 34.8343 27.8487 34.8726 27.9244L34.9312 28.038L34.9723 28.1599L35.0607 28.403C35.084 28.4849 35.0997 28.5708 35.1248 28.6578C35.1808 28.8365 35.1943 28.9802 35.2231 29.1425C35.2289 29.223 35.2329 29.3012 35.2445 29.3853C35.2504 29.4657 35.2409 29.5465 35.2445 29.6309C35.2274 30.9546 34.2411 32.477 32.4356 33.0611L32.3992 33.0735C32.3139 33.1 32.2362 33.1465 32.1725 33.2092C31.8427 33.2121 31.5134 33.1811 31.1899 33.1168C31.0593 33.0905 30.9412 33.0217 30.854 32.9211C30.7668 32.8205 30.7155 32.6938 30.708 32.5609C30.7005 32.428 30.7373 32.2963 30.8126 32.1866C30.888 32.0768 30.9976 31.9951 31.1243 31.9544L31.1607 31.942C32.9666 31.3582 33.9529 29.8355 33.97 28.5118Z" fill="white"/>
</g>
<g opacity="0.6">
<path opacity="0.6" d="M21.4188 29.7138C21.41 30.0498 21.3937 30.3915 21.4017 30.7212L21.4745 31.6839C21.4803 31.8451 21.5167 32.0034 21.5418 32.1617L21.6266 32.6374C21.6746 32.9566 21.7689 33.2666 21.8551 33.5771C22.21 34.8206 22.7701 35.9962 23.5122 37.0553C23.8808 37.574 24.2906 38.0622 24.7376 38.5151C23.7785 37.7869 22.9356 36.9174 22.2376 35.9362C21.4955 34.8771 20.9355 33.7015 20.5806 32.458C20.4944 32.1475 20.3986 31.8393 20.3521 31.5183L20.2673 31.0426C20.2425 30.8843 20.2058 30.726 20.1999 30.5647L20.1271 29.6021C20.1191 29.2724 20.1355 28.9306 20.1446 28.5947C20.2376 27.2363 20.6171 25.913 21.2583 24.7118C22.5321 22.3211 24.7918 20.493 27.4275 19.7371C28.0859 19.5489 28.7625 19.4311 29.4459 19.3859C29.5343 19.3815 29.6144 19.3702 29.7046 19.3699H29.9787L30.5246 19.3812C30.7066 19.3979 30.8885 19.4175 31.0705 19.4427L31.342 19.4791C31.4326 19.4943 31.5214 19.5155 31.6099 19.5358C31.7893 19.5755 31.9669 19.6192 32.1445 19.6647C32.3203 19.7156 32.4924 19.7786 32.665 19.8397C32.8386 19.8967 33.0081 19.9656 33.1723 20.0457C33.3372 20.1221 33.5042 20.2004 33.6654 20.2826C33.8248 20.3707 33.9788 20.4686 34.1346 20.5625L34.3664 20.7063C34.4392 20.7565 34.512 20.8155 34.5847 20.8679L35.0131 21.2023C35.1485 21.3199 35.2802 21.4451 35.4098 21.5703L35.6023 21.7592L35.701 21.8683C35.682 21.8518 35.6618 21.8369 35.6405 21.8236L35.4087 21.6798C35.2529 21.5859 35.099 21.488 34.9396 21.3999C34.7784 21.3177 34.612 21.2394 34.4465 21.163C34.2815 21.0828 34.1113 21.0139 33.9369 20.957C33.7648 20.8959 33.5926 20.8329 33.4169 20.782C33.2393 20.7365 33.0617 20.6928 32.8822 20.6531C32.7938 20.6342 32.705 20.6116 32.6144 20.5964L32.3429 20.56C32.1609 20.5356 31.9789 20.5152 31.7969 20.4985L31.251 20.4872H30.977C30.8867 20.4872 30.8063 20.4988 30.7182 20.5032C30.0349 20.5484 29.3583 20.6662 28.6998 20.8544C26.0641 21.6103 23.804 23.4384 22.5306 25.8291C21.89 27.0311 21.5111 28.355 21.4188 29.7138Z" fill="white"/>
</g>
<g opacity="0.6">
<path opacity="0.6" d="M12.9848 43.6591C14.0315 45.361 15.2975 46.9178 16.7501 48.2895C16.5427 48.1203 16.3407 47.9489 16.1387 47.7735C14.408 46.2616 12.9152 44.4973 11.711 42.54C11.1036 41.5635 10.5962 40.527 10.1424 39.4719C9.70493 38.4087 9.34514 37.3151 9.06587 36.1997C8.99745 35.9213 8.9425 35.6389 8.88208 35.3605L8.7911 34.939L8.72304 34.5169L8.58838 33.6689L8.49994 32.8176L8.457 32.3929L8.4348 31.9656L8.39258 31.1133V30.2424C8.39258 29.953 8.4166 29.6626 8.42897 29.3729C8.49964 28.2126 8.66605 27.0601 8.92648 25.9271C9.19464 24.7943 9.55856 23.6864 10.0143 22.6152C10.9209 20.4696 12.1906 18.4962 13.7676 16.782C16.8906 13.3442 21.231 11.0175 25.8363 10.3486L26.2683 10.2841L26.7007 10.2372C26.9897 10.2128 27.2783 10.171 27.5676 10.1619C27.8569 10.1528 28.1459 10.1302 28.4411 10.1211C28.7384 10.1233 29.0376 10.1178 29.3349 10.1258C32.9506 10.2388 36.4341 11.5118 39.2705 13.7569C39.7141 14.1078 40.1392 14.4814 40.5443 14.876C37.7079 12.6308 34.2244 11.3577 30.6087 11.2449C30.311 11.2369 30.0122 11.2424 29.7149 11.2402C29.4215 11.2493 29.1326 11.2679 28.8414 11.281C28.5503 11.2941 28.2635 11.3319 27.9745 11.3563L27.5421 11.4033L27.1109 11.4684C22.5052 12.1373 18.1652 14.464 15.0418 17.9018C13.466 19.6158 12.1972 21.5885 11.291 23.7333C10.8353 24.8044 10.4713 25.9124 10.2032 27.0451C9.94259 28.1781 9.77619 29.3306 9.70568 30.4909C9.69367 30.7821 9.66929 31.0711 9.66929 31.3604V32.2313L9.7115 33.0837L9.73371 33.5109L9.77665 33.9357L9.86509 34.7869L9.99902 35.6353L10.0671 36.0574L10.1581 36.4789C10.2188 36.7573 10.2738 37.0397 10.3422 37.3181C10.6215 38.4335 10.9813 39.5271 11.4188 40.5903C11.8704 41.6461 12.3777 42.6826 12.9848 43.6591Z" fill="white"/>
</g>
<g opacity="0.6">
<path opacity="0.6" d="M40.8956 22.5246C41.6887 24.0631 42.144 25.7532 42.2309 27.4819L42.2466 27.8058V28.1162C42.2535 28.3215 42.2299 28.5271 42.2237 28.7327C42.1873 29.14 42.1403 29.5498 42.0504 29.949C41.8899 30.7526 41.6024 31.5271 41.2352 32.2593C40.4776 33.728 39.346 34.9708 37.9546 35.8624C36.5621 36.7467 34.9583 37.242 33.3096 37.297C32.5383 37.3172 31.7684 37.218 31.0273 37.003C30.2878 36.7948 29.5978 36.4283 28.9769 35.9795C28.5674 35.683 28.1911 35.3432 27.8545 34.966C28.4343 35.3663 29.0733 35.6939 29.7532 35.8838C30.4941 36.0989 31.2638 36.1981 32.0351 36.1779C33.6843 36.1224 35.2886 35.6262 36.6812 34.7411C38.0724 33.8494 39.2039 32.6066 39.9614 31.138C40.3286 30.4058 40.6165 29.6313 40.7766 28.8277C40.8665 28.4274 40.912 28.0187 40.9499 27.6114C40.9561 27.4058 40.9797 27.2002 40.9728 26.9949V26.6845L40.9571 26.3606C40.87 24.6321 40.4145 22.9421 39.6211 21.404C39.0461 20.2984 38.3064 19.2866 37.4273 18.4033L37.6267 18.5595C38.9823 19.6374 40.096 20.9883 40.8956 22.5246Z" fill="white"/>
</g>
<path d="M33.5283 54.6604C31.7228 54.6555 29.9215 54.4849 28.1471 54.1509C27.2158 53.9613 26.0035 53.6945 24.7988 53.2913L24.4047 53.1657C24.397 53.1635 24.3897 53.1606 24.3821 53.1581L23.9818 53.0125C23.8842 52.9761 23.7911 52.9419 23.6979 52.908C23.5232 52.8443 23.3492 52.7806 23.176 52.7129L22.808 52.5586C22.4077 52.3909 21.991 52.2176 21.5841 52.0164C21.1401 51.8158 20.7106 51.5858 20.2976 51.3613L20.0461 51.2266C19.8707 51.1291 19.7073 51.0315 19.5438 50.9355C19.4601 50.8856 19.3764 50.8354 19.2924 50.7862L18.9215 50.5642L18.9008 50.5515L18.5441 50.3168C17.6248 49.7279 16.712 49.0364 15.7592 48.2059C13.9845 46.6565 12.4544 44.8475 11.2209 42.8403C10.6648 41.9461 10.1385 40.9176 9.61405 39.698C9.16512 38.6066 8.79561 37.4842 8.50839 36.3396C8.4589 36.1397 8.41704 35.9392 8.37555 35.7434C8.35736 35.6561 8.3388 35.5688 8.31987 35.4817L8.22889 35.0592C8.2267 35.0494 8.22488 35.0395 8.22306 35.0294L8.02071 33.7556C8.02071 33.7454 8.0178 33.7352 8.01671 33.725L7.88496 32.4475L7.88278 32.4195L7.81836 31.1384C7.81836 31.1286 7.81836 31.1188 7.81836 31.109V30.2384C7.81836 30.0317 7.82891 29.8268 7.8402 29.6281C7.84565 29.5342 7.85111 29.4399 7.85475 29.346C7.92715 28.1502 8.0983 26.9623 8.36646 25.7947C8.64241 24.6295 9.01655 23.4898 9.48485 22.3878C10.4168 20.182 11.7218 18.1531 13.3426 16.3904C16.5453 12.8671 21.0677 10.456 25.7531 9.77576L26.1829 9.71135L26.2055 9.70844L26.6374 9.66149C26.7466 9.65202 26.8438 9.64184 26.9402 9.63164C27.136 9.6109 27.3384 9.58979 27.5488 9.58288C27.6492 9.57851 27.7566 9.57305 27.8636 9.56723C28.0485 9.55776 28.2333 9.54794 28.4208 9.54211H28.4426C28.5481 9.54211 28.6541 9.54211 28.7603 9.54211C28.9561 9.54211 29.1523 9.54211 29.3481 9.54685C33.0893 9.6638 36.6936 10.9816 39.628 13.3053C41.5692 14.8487 43.1641 16.7831 44.3094 18.9828C45.4463 21.1895 46.0996 23.6132 46.2259 26.0924L46.247 26.5433C46.247 26.5513 46.247 26.5597 46.247 26.5677V27.0299C46.2514 27.2614 46.2383 27.4939 46.2259 27.7188C46.2208 27.8064 46.2162 27.8943 46.2121 27.9823C46.2121 27.9907 46.2121 27.9991 46.2121 28.0075C46.1447 28.7743 46.0607 29.3628 45.9395 29.9167C45.6931 31.1243 45.2615 32.3478 44.6584 33.5448C43.4736 35.8487 41.6993 37.7974 39.5163 39.1925C37.3304 40.5869 34.8095 41.3672 32.2181 41.4515C30.8679 41.493 29.5196 41.3188 28.2242 40.9354C26.9741 40.5715 25.7549 39.9666 24.6056 39.1354C23.5107 38.3405 22.5526 37.3726 21.769 36.2697C20.9884 35.1582 20.3999 33.9237 20.0279 32.6175L19.9915 32.485C19.9038 32.196 19.8344 31.9017 19.7837 31.6039L19.7014 31.1432C19.6934 31.093 19.6865 31.054 19.6796 31.0147C19.6522 30.8771 19.6344 30.7377 19.6261 30.5976L19.5533 29.6445C19.5533 29.635 19.5533 29.6255 19.5533 29.6161C19.5468 29.3471 19.5555 29.0749 19.5635 28.8118L19.5708 28.5792C19.5708 28.5712 19.5708 28.5636 19.5708 28.5556C19.6701 27.1161 20.0723 25.7138 20.751 24.4405C22.1049 21.8998 24.4807 19.9847 27.2685 19.184C27.9668 18.9845 28.6843 18.8597 29.4089 18.8117C29.4453 18.8117 29.474 18.8074 29.5009 18.8052C29.5668 18.7993 29.632 18.7946 29.7018 18.7943H29.9806L30.5356 18.8059C30.5491 18.8059 30.5629 18.8059 30.5764 18.8085C30.7649 18.8256 30.9556 18.847 31.1441 18.8721L31.4178 18.9085C31.5055 18.9227 31.5772 18.9387 31.6482 18.9548L31.7268 18.9722C31.9172 19.0141 32.1006 19.0592 32.2844 19.1065L32.3026 19.1112C32.4718 19.1607 32.6327 19.2179 32.7881 19.2728L32.8539 19.2965C33.0474 19.3604 33.2363 19.4373 33.4195 19.5265C33.5884 19.6048 33.7591 19.6852 33.9239 19.7693C33.9298 19.7722 33.9356 19.7751 33.941 19.7784C34.0637 19.846 34.1831 19.9192 34.3024 19.992L34.6664 20.2165L34.6846 20.2285C34.7392 20.2649 34.7938 20.305 34.8451 20.3454L34.9179 20.4014L34.9342 20.4134L35.3626 20.7483L35.3859 20.7672C35.5333 20.8953 35.6745 21.0296 35.8048 21.1559L36.0006 21.3477C36.0093 21.3564 36.0184 21.3655 36.0268 21.375L36.2062 21.5759C36.3351 21.7247 36.4555 21.8645 36.5702 22.0082C36.5785 22.0188 36.5865 22.0293 36.5942 22.0403L37.0586 22.7121C37.0662 22.7237 37.0739 22.7357 37.0808 22.7485L37.2791 23.0993C37.3465 23.2198 37.4141 23.3406 37.4782 23.4633C37.4844 23.4751 37.49 23.4872 37.4949 23.4997C37.5706 23.6682 37.6405 23.8363 37.7133 24.0052L37.7235 24.0292C37.7573 24.1089 37.7908 24.1879 37.821 24.2698C37.8239 24.2774 37.8265 24.2851 37.829 24.2931L37.9098 24.5442C37.9662 24.72 38.019 24.8928 38.0696 25.0653C38.0729 25.0763 38.0754 25.0872 38.078 25.0981C38.118 25.2757 38.1544 25.4529 38.1872 25.6287L38.2367 25.8893C38.2396 25.9057 38.2417 25.9224 38.2436 25.9392L38.3164 26.7184C38.3164 26.731 38.3171 26.7431 38.3185 26.7548C38.3233 26.9429 38.3185 27.1311 38.316 27.2967C38.3189 27.6559 38.2672 28.0529 38.2112 28.4249C38.2112 28.4347 38.2079 28.4449 38.2057 28.4547C38.1748 28.6061 38.1329 28.8056 38.0823 29.0039C38.0459 29.1495 38.0005 29.2798 37.9564 29.4072C37.9397 29.4549 37.9233 29.5025 37.9076 29.5498C37.647 30.2726 37.2655 30.9459 36.7794 31.541C36.3049 32.1089 35.7361 32.5909 35.098 32.9658C33.8901 33.6937 32.4212 33.9539 31.0728 33.6799C30.8178 33.628 30.5872 33.4932 30.417 33.2964C30.2468 33.0996 30.1466 32.8519 30.132 32.5921C30.1175 32.3323 30.1895 32.075 30.3367 31.8605C30.484 31.6459 30.6982 31.4862 30.9458 31.4063L30.9716 31.3972C32.6119 30.8669 33.3737 29.5367 33.3922 28.5177C33.3922 28.4704 33.3922 28.4238 33.3922 28.3779C33.3922 28.3583 33.3922 28.3386 33.3922 28.3194C33.3831 28.2466 33.3784 28.1792 33.3737 28.1105V28.0923C33.3678 28.058 33.3624 28.0246 33.3573 27.9911C33.3449 27.8962 33.3252 27.8024 33.2983 27.7105C33.2787 27.6439 33.2656 27.5878 33.2525 27.5325C33.2466 27.5074 33.2408 27.483 33.2346 27.4597L33.1225 27.146L33.0836 27.0699C33.0436 26.9906 33.0072 26.9127 32.9744 26.8363C32.8157 26.567 32.6785 26.3464 32.5129 26.1725C32.5046 26.1637 32.4966 26.1546 32.4889 26.1455L32.4307 26.076L32.3655 26.0123C32.3208 25.9716 32.2695 25.9217 32.22 25.8715C32.1574 25.8238 32.0977 25.775 32.038 25.7237L31.9787 25.6746L31.9059 25.6265C31.8571 25.5956 31.804 25.5574 31.7512 25.5174L31.7275 25.5003C31.6628 25.4639 31.5987 25.4275 31.5372 25.3911L31.5175 25.3787C31.4813 25.3577 31.4437 25.3392 31.4051 25.323L31.388 25.315C31.3516 25.2975 31.3152 25.2786 31.2788 25.2611C31.2591 25.2513 31.2402 25.2411 31.2206 25.2317C31.1456 25.2073 31.0794 25.1793 31.0244 25.156C30.9827 25.1367 30.9397 25.1207 30.8956 25.1079C30.8739 25.1037 30.8525 25.0981 30.8315 25.0912L30.6528 25.0348C30.5782 25.0213 30.5047 25.0075 30.429 24.9875L30.401 24.9802L30.3751 24.9733L30.2918 24.9638C30.2219 24.9569 30.1488 24.9445 30.0734 24.9314C30.0126 24.9292 29.9519 24.926 29.8915 24.923H29.8653L29.7728 24.9158H29.7623C29.7361 24.9158 29.7099 24.9194 29.6855 24.9201C29.3769 24.9229 29.0693 24.9553 28.7669 25.0169C28.1654 25.1402 27.5991 25.3965 27.1095 25.767C26.6193 26.1472 26.2143 26.6259 25.9207 27.1723C25.6271 27.7187 25.4513 28.3206 25.4048 28.9391C25.4048 29.0272 25.4048 29.1146 25.4004 29.2023C25.3982 29.2751 25.3957 29.3519 25.3964 29.4286C25.4124 29.6186 25.4262 29.8068 25.4386 29.9971C25.4386 30.0085 25.4386 30.0198 25.4386 30.031C25.4386 30.0444 25.4477 30.0867 25.4543 30.1172C25.4608 30.1478 25.4685 30.19 25.4747 30.2246L25.5231 30.5052C25.5231 30.5161 25.5263 30.5267 25.5278 30.5376C25.5452 30.6478 25.5713 30.7565 25.606 30.8626C25.6202 30.911 25.6344 30.9594 25.6475 31.0082C25.8406 31.6834 26.1437 32.3222 26.5446 32.8988C26.9577 33.4738 27.4603 33.9788 28.0332 34.3946C28.6486 34.8394 29.2775 35.1542 29.9016 35.3296C30.5882 35.5298 31.3017 35.6219 32.0165 35.6026C33.5604 35.5505 35.0621 35.0855 36.3653 34.256C37.6718 33.421 38.7337 32.2547 39.4428 30.8757C39.8067 30.1478 40.0651 29.4199 40.207 28.7157C40.2875 28.3579 40.33 28.002 40.3701 27.5755C40.3726 27.5027 40.377 27.4299 40.3817 27.3542C40.389 27.2333 40.3959 27.1187 40.3926 27.015C40.3926 27.0088 40.3926 27.0022 40.3926 26.9957V26.6991L40.3777 26.389C40.2928 24.7438 39.8595 23.1354 39.1065 21.6701C38.3427 20.2072 37.2813 18.9202 35.9904 17.892C34.0445 16.35 31.6536 15.4759 29.1719 15.399C29.0497 15.3954 28.9256 15.3961 28.8014 15.3969C28.7181 15.3969 28.6348 15.3969 28.5514 15.3969L27.8963 15.4263C27.7609 15.4296 27.631 15.4438 27.4934 15.4587C27.4123 15.4678 27.3308 15.4766 27.2496 15.4835L26.9392 15.5162L26.62 15.5646C23.172 16.0736 20.0069 17.7616 17.6634 20.3414C16.4896 21.6153 15.5456 23.0831 14.8734 24.6796C14.5344 25.4723 14.2642 26.2928 14.0658 27.1318C13.8726 27.9733 13.7493 28.8293 13.6971 29.691C13.6946 29.7638 13.6895 29.849 13.6844 29.9349C13.6764 30.0703 13.6687 30.1977 13.6705 30.3185L13.668 30.9871L13.7193 31.9904L13.8223 32.9865L13.9781 33.9692L14.048 34.2869C14.0672 34.3735 14.0844 34.4609 14.1036 34.5486C14.1302 34.6789 14.1571 34.8092 14.1895 34.9387C14.4058 35.793 14.6814 36.6311 15.0142 37.447C15.4146 38.374 15.7956 39.119 16.2083 39.7821C17.9971 42.7104 20.7958 45.1768 24.0909 46.7308C27.322 48.2638 30.9855 48.9709 34.6908 48.7791C38.2341 48.6066 41.7927 47.4926 44.983 45.5575C48.0908 43.6828 50.8178 41.0486 52.8704 37.9391C54.9132 34.8518 56.2893 31.3026 56.8501 27.6759C56.8723 27.5336 56.8945 27.3909 56.9113 27.2497C56.9276 27.1077 56.9963 26.9768 57.104 26.8827C57.2116 26.7885 57.3505 26.7379 57.4935 26.7406C57.6365 26.7433 57.7733 26.7992 57.8773 26.8974C57.9812 26.9956 58.0449 27.129 58.0559 27.2716C58.0992 27.8142 58.1286 28.3557 58.1407 28.8813C58.3185 35.9051 55.9329 42.7534 51.4296 48.1466C51.4055 48.1754 51.3786 48.2018 51.3495 48.2255C50.2925 49.0787 49.1791 49.8596 48.0169 50.5628C43.9986 53.0012 39.4904 54.4046 34.9805 54.6233C34.5008 54.6483 34.0167 54.6606 33.5283 54.6604ZM24.7661 52.0731L25.1569 52.1976C26.3092 52.5838 27.4771 52.8407 28.3665 53.0216C30.603 53.4368 32.8114 53.589 34.9211 53.4718C39.2448 53.2618 43.5659 51.9148 47.4215 49.5776C48.5234 48.911 49.5797 48.1718 50.5834 47.3648C54.1163 43.1172 56.3008 37.9116 56.857 32.4148C56.1126 34.5865 55.0956 36.6549 53.8305 38.5705C51.6832 41.8216 48.831 44.5756 45.5788 46.5409C42.2262 48.5742 38.4819 49.7435 34.749 49.9255C30.857 50.1275 27.001 49.3822 23.5996 47.7681C20.1058 46.1201 17.1316 43.4972 15.2289 40.3833C14.7879 39.6747 14.3821 38.8813 13.9552 37.8914C13.5999 37.0218 13.3058 36.1285 13.0751 35.2179C13.0387 35.0723 13.0082 34.9245 12.978 34.7782C12.9609 34.6967 12.9441 34.6148 12.9259 34.5329L12.8531 34.1978C12.8505 34.1872 12.8484 34.1765 12.8469 34.1657L12.6854 33.1496C12.6854 33.1394 12.6824 33.1292 12.6814 33.119L12.5751 32.0916C12.5751 32.0811 12.5751 32.0705 12.5729 32.0596L12.5205 31.0304C12.5205 31.0194 12.5205 31.0089 12.5205 30.998L12.523 30.3247C12.5205 30.1715 12.53 30.0157 12.5391 29.865C12.5434 29.7882 12.5482 29.7114 12.5511 29.6346C12.6069 28.7041 12.7397 27.7798 12.9481 26.8712C13.1615 25.9672 13.4523 25.0832 13.8172 24.229C14.5405 22.5137 15.5551 20.9366 16.8161 19.5673C19.3411 16.79 22.7644 14.9641 26.4537 14.4277L26.7812 14.3778L26.8074 14.3742L27.1422 14.3378C27.2256 14.3305 27.2976 14.3225 27.3701 14.3145C27.5251 14.2977 27.6856 14.2781 27.8577 14.2759L28.5168 14.2461C28.5274 14.2461 28.5376 14.2461 28.5485 14.2461C28.6319 14.2461 28.7152 14.2461 28.7989 14.2461C28.9354 14.2461 29.0715 14.2461 29.2072 14.2493C31.9383 14.332 34.5699 15.2932 36.7114 16.9902C38.1289 18.1191 39.2943 19.5324 40.1324 21.1391C40.9612 22.7507 41.4381 24.5199 41.5314 26.3297L41.5474 26.655C41.5474 26.6641 41.5474 26.6736 41.5474 26.6827V26.9844C41.5522 27.1391 41.5431 27.2832 41.5347 27.4211C41.5303 27.4896 41.526 27.5576 41.5238 27.626C41.5238 27.6377 41.523 27.6498 41.5216 27.6624C41.4834 28.0766 41.4346 28.5195 41.3371 28.9522C41.1795 29.7435 40.8883 30.5696 40.4745 31.3943C39.6723 32.9566 38.4698 34.2781 36.9898 35.2237C35.5107 36.1658 33.8059 36.6936 32.0533 36.7523C31.2206 36.7749 30.3894 36.6677 29.5897 36.4345C28.8418 36.2245 28.0907 35.8522 27.3646 35.326C26.6901 34.8367 26.0988 34.2421 25.6133 33.5649C25.1361 32.8809 24.7756 32.1224 24.5466 31.3204C24.5328 31.2695 24.5204 31.2276 24.5102 31.1858C24.458 31.0228 24.4194 30.8558 24.3948 30.6864L24.3483 30.4164C24.3439 30.3905 24.3395 30.3687 24.3351 30.3472C24.3134 30.2516 24.3005 30.1541 24.2966 30.0561C24.2846 29.8712 24.2707 29.6881 24.2551 29.5029C24.2551 29.4898 24.2551 29.4763 24.2533 29.4632C24.2533 29.3628 24.2533 29.2649 24.2573 29.1673C24.2598 29.088 24.262 29.0094 24.2613 28.9293C24.2613 28.9144 24.2613 28.8991 24.2613 28.8842C24.3155 28.098 24.5357 27.3322 24.9072 26.6372C25.2787 25.9423 25.7933 25.3339 26.4169 24.8521C27.0416 24.3782 27.7643 24.0498 28.5321 23.8909C28.9044 23.8142 29.2832 23.7733 29.6633 23.769H29.6818C29.7371 23.7638 29.7927 23.7631 29.8481 23.7668L29.9595 23.7755C30.0239 23.7784 30.0905 23.7821 30.1568 23.7839C30.1868 23.7846 30.2167 23.7876 30.2463 23.793C30.3045 23.8039 30.3628 23.8152 30.4224 23.8214L30.5385 23.8349C30.5516 23.8349 30.5644 23.8381 30.5771 23.8403C30.6179 23.848 30.6586 23.8581 30.698 23.8683L30.7209 23.8745C30.7733 23.888 30.8181 23.8956 30.8635 23.9036L30.9032 23.9109C30.9268 23.9153 30.9502 23.9211 30.9731 23.9284L31.1591 23.9877C31.2682 24.0143 31.3747 24.0509 31.4772 24.0969C31.5155 24.1143 31.5547 24.1294 31.5947 24.1424C31.6195 24.1496 31.6438 24.1584 31.6675 24.1686C31.7163 24.1904 31.7636 24.2141 31.8105 24.2381C31.8342 24.2505 31.8578 24.2625 31.8833 24.2745C31.9743 24.3138 32.0623 24.3598 32.1464 24.4121C32.2007 24.4445 32.2556 24.4765 32.3146 24.5074C32.3354 24.5183 32.3556 24.5305 32.375 24.5438L32.4347 24.5871C32.4711 24.6122 32.5042 24.6377 32.5413 24.6599L32.6465 24.7294C32.6632 24.7407 32.6793 24.7527 32.6949 24.7658L32.7848 24.8386L32.8004 24.8521C32.8474 24.8936 32.8958 24.9321 32.946 24.9704C32.967 24.9861 32.9868 25.0032 33.0053 25.0217C33.0559 25.0715 33.108 25.1229 33.1622 25.1727L33.2597 25.2673C33.2739 25.281 33.2873 25.2954 33.2998 25.3106L33.366 25.3896C33.6361 25.6779 33.8333 26.0131 33.9924 26.2831C34.0063 26.3078 34.0184 26.3335 34.0288 26.3599C34.0531 26.421 34.0812 26.4822 34.1121 26.5419L34.1685 26.651C34.1815 26.6761 34.1926 26.7022 34.2016 26.7289L34.3275 27.0827C34.3322 27.096 34.3365 27.1095 34.3406 27.1231C34.3538 27.17 34.365 27.2173 34.377 27.2657C34.385 27.3021 34.3931 27.3356 34.4036 27.3709C34.4464 27.5138 34.4779 27.6598 34.4979 27.8076C34.5037 27.844 34.5095 27.8804 34.5161 27.9168C34.5197 27.9364 34.5223 27.9563 34.5237 27.9762L34.527 28.0275C34.5306 28.0781 34.5335 28.1283 34.5412 28.1814C34.5412 28.1942 34.5441 28.2069 34.5452 28.2196C34.5496 28.2815 34.5488 28.343 34.5452 28.4056C34.5452 28.4296 34.5452 28.454 34.5452 28.4784C34.5452 28.49 34.5452 28.5013 34.5452 28.5148C34.527 29.9342 33.5156 31.7808 31.3381 32.4847L31.3123 32.4938C31.2948 32.4996 31.2861 32.5054 31.2828 32.5196C31.2822 32.5265 31.2842 32.5334 31.2884 32.5389C31.2927 32.5444 31.2989 32.548 31.3057 32.5491C32.3743 32.7675 33.5433 32.5571 34.5121 31.9737C35.0368 31.6663 35.5046 31.2709 35.895 30.8047C36.2944 30.3164 36.6085 29.7642 36.8242 29.1713C36.8362 29.135 36.8548 29.0804 36.8733 29.0258C36.9097 28.9166 36.9461 28.8143 36.9709 28.7171C37.0145 28.5468 37.0517 28.371 37.08 28.2342C37.1259 27.9267 37.1718 27.5751 37.1696 27.2836C37.1728 27.1122 37.1761 26.9538 37.1728 26.7963L37.1044 26.0684L37.0608 25.8354C37.0305 25.6793 36.9978 25.5192 36.9618 25.3587C36.9163 25.2018 36.8675 25.0446 36.8162 24.8856L36.7398 24.6483C36.7168 24.5875 36.6921 24.5293 36.667 24.4696L36.6542 24.4394C36.5891 24.2821 36.5247 24.13 36.457 23.9779C36.3995 23.8687 36.3391 23.7624 36.279 23.6551L36.0949 23.3297L35.9573 23.1248L35.6661 22.7121C35.5609 22.5829 35.4525 22.4573 35.3422 22.3296L35.1821 22.1505L35.0027 21.9747C34.8902 21.8656 34.7665 21.7476 34.6427 21.6399L34.234 21.3207C34.2049 21.2993 34.1758 21.2774 34.1474 21.2556C34.119 21.2338 34.0819 21.2054 34.0484 21.1828L33.7005 20.9684C33.5978 20.9058 33.4956 20.8429 33.3908 20.7865C33.2386 20.709 33.081 20.6351 32.9256 20.5634L32.9089 20.555C32.7674 20.4868 32.6215 20.4282 32.4722 20.3796L32.3994 20.3537C32.256 20.3028 32.1202 20.2548 31.9859 20.2151C31.8178 20.1721 31.6493 20.131 31.4797 20.0932L31.3905 20.0735C31.341 20.0622 31.2915 20.0509 31.2417 20.0426L30.9869 20.0062C30.8224 19.9843 30.6546 19.9654 30.4883 19.9498L29.7 19.9381C29.6658 19.9381 29.6305 19.9418 29.5945 19.9447C29.5585 19.9476 29.513 19.9516 29.4704 19.9534C28.831 19.9966 28.198 20.1072 27.5819 20.2835C25.0958 21.0037 22.974 22.7143 21.7664 24.982C21.1659 26.1082 20.8092 27.3483 20.7194 28.6214L20.7128 28.8471C20.7048 29.1018 20.6972 29.3402 20.7026 29.5724L20.7732 30.5208C20.7732 30.5281 20.7732 30.5354 20.7732 30.5427C20.7797 30.6333 20.7918 30.7233 20.8096 30.8124C20.818 30.8589 20.826 30.9052 20.8333 30.9514L20.9163 31.4161C20.9605 31.6716 21.0205 31.924 21.0961 32.172L21.1325 32.3027C21.4686 33.4829 22.0001 34.5985 22.7051 35.6029C23.416 36.6034 24.285 37.4814 25.2781 38.2026C26.3197 38.9556 27.4196 39.5037 28.5478 39.8309C29.727 40.1768 30.9533 40.3353 32.1817 40.3007C34.5657 40.2178 36.8843 39.4993 38.8974 38.2196C40.9105 36.9398 42.545 35.1454 43.6317 33.0219C44.1867 31.9198 44.5849 30.7931 44.8127 29.6772C44.9241 29.1677 45.0009 28.6276 45.0635 27.9179C45.0671 27.8295 45.0722 27.741 45.0773 27.6526C45.0893 27.4397 45.1006 27.2381 45.097 27.0412L45.0948 26.583L45.0748 26.1463C44.9573 23.8329 44.3482 21.5711 43.2882 19.5116C42.2182 17.4564 40.7281 15.649 38.9147 14.2068C36.1746 12.0383 32.8098 10.8086 29.3172 10.6995C29.1352 10.6947 28.9503 10.6951 28.7651 10.6954C28.6595 10.6954 28.554 10.6954 28.4481 10.6954C28.2726 10.7009 28.0994 10.71 27.9262 10.7191C27.817 10.7249 27.7078 10.7307 27.595 10.7355C27.4196 10.7409 27.2463 10.7591 27.0629 10.7788C26.9592 10.7897 26.8551 10.8006 26.751 10.8094L26.3441 10.8538L25.9219 10.9167C21.4928 11.5594 17.219 13.8381 14.1935 17.1678C12.6605 18.8347 11.4263 20.7533 10.545 22.8395C10.1029 23.8805 9.74986 24.9572 9.48958 26.0578C9.23664 27.1587 9.07498 28.2786 9.00627 29.4061C9.00263 29.4945 8.99717 29.5946 8.99134 29.6947C8.98079 29.8839 8.9706 30.063 8.97133 30.2381V31.0977L9.03429 32.3471L9.16276 33.5925L9.35965 34.8299L9.44773 35.2368C9.46665 35.3249 9.48412 35.4151 9.5045 35.505C9.54381 35.6903 9.58275 35.8762 9.62788 36.06C9.90059 37.1471 10.2514 38.2131 10.6775 39.2496C11.1757 40.4081 11.6758 41.3863 12.2028 42.234C13.3761 44.1436 14.8319 45.8646 16.5206 47.3383C17.4304 48.1302 18.2984 48.7882 19.1774 49.3501L19.5297 49.582L19.8852 49.7949C19.9675 49.8429 20.0541 49.8946 20.14 49.9463C20.2939 50.038 20.4475 50.1282 20.6033 50.2167L20.8486 50.3481C21.2668 50.5726 21.662 50.7848 22.0732 50.9704L22.0918 50.9791C22.4685 51.1658 22.8521 51.326 23.2564 51.4952C23.3758 51.5452 23.4953 51.5954 23.6149 51.6459C23.7649 51.7041 23.9312 51.7645 24.0975 51.8253L24.3846 51.9312L24.7661 52.0731Z" fill="#332712"/>
<g opacity="0.3">
<path opacity="0.3" d="M55.4983 28.0963C55.5673 30.7886 55.253 33.4771 54.5648 36.0809C52.6447 39.5445 50.231 42.2817 47.5011 44.3424C43.5115 47.3547 38.8458 48.9167 34.0538 49.193C30.8937 49.375 27.6775 48.9924 24.5654 48.0975C47.5753 53.0959 64.4928 16.9579 39.0227 3.73331L40.3758 3.69983C48.7174 8.11117 54.6216 16.5645 55.4154 26.519C55.4346 26.7603 55.4518 27.0034 55.4641 27.2469C55.4772 27.4594 55.4863 27.6721 55.4914 27.8849C55.4947 27.9551 55.4965 28.0279 55.4983 28.0963Z" fill="#332712"/>
</g>
<g opacity="0.3">
<path opacity="0.3" d="M54.3045 37.006C52.5656 42.7404 49.0601 47.7791 44.2881 51.4032C39.7082 54.889 34.0282 57.0148 27.8353 57.1687C24.4901 57.2543 21.1561 56.7475 17.9874 55.6719C12.9778 53.5119 8.69427 49.9581 5.64648 45.4334C5.98495 45.0971 6.17784 44.9083 6.17784 44.9083C6.17784 44.9083 11.051 52.8444 24.5784 52.6177C24.5784 52.6177 30.4513 53.0908 29.1171 49.5605C30.7683 49.5289 32.4165 49.4054 34.054 49.1908C38.8522 48.5535 43.5471 47.0657 47.5013 44.3401C50.2868 42.4324 52.6111 39.9267 54.3045 37.006Z" fill="#332712"/>
</g>
<path d="M62.9619 67.0141L54.9916 101.074C54.9182 101.388 54.7836 101.685 54.5955 101.947C54.4075 102.209 54.1696 102.431 53.8956 102.601C53.6216 102.771 53.3167 102.886 52.9985 102.938C52.6802 102.99 52.3548 102.979 52.0408 102.906L50.649 102.58C50.335 102.507 50.0385 102.372 49.7765 102.184C49.5145 101.996 49.2921 101.758 49.122 101.484C48.952 101.21 48.8376 100.905 48.7853 100.587C48.7331 100.269 48.7441 99.9435 48.8177 99.6295L56.788 65.5692C56.8615 65.2552 56.996 64.9587 57.1841 64.6967C57.3721 64.4346 57.61 64.2122 57.884 64.0421C58.158 63.872 58.4629 63.7576 58.7811 63.7053C59.0994 63.653 59.4248 63.664 59.7389 63.7375L61.1302 64.0632C61.4443 64.1367 61.7408 64.2713 62.0028 64.4593C62.2648 64.6474 62.4872 64.8852 62.6573 65.1592C62.8274 65.4333 62.9419 65.7381 62.9942 66.0564C63.0464 66.3746 63.0355 66.7001 62.9619 67.0141Z" fill="white"/>
<path d="M52.6056 103.643C52.3637 103.642 52.1226 103.614 51.8871 103.559L50.4954 103.234C49.688 103.044 48.9886 102.542 48.5513 101.838C48.1139 101.133 47.9744 100.284 48.1633 99.4762L56.1336 65.4163C56.3233 64.6093 56.8254 63.9105 57.5298 63.4733C58.2341 63.036 59.0832 62.8961 59.8906 63.0842L61.2827 63.4117C62.0901 63.6007 62.7894 64.1027 63.2268 64.8073C63.6641 65.5118 63.8037 66.3613 63.6148 67.1687L55.6445 101.229C55.4837 101.915 55.0962 102.526 54.5447 102.965C53.9933 103.403 53.31 103.643 52.6056 103.644V103.643ZM59.1791 64.3438C58.7766 64.3444 58.3861 64.4808 58.0708 64.7309C57.7555 64.9811 57.5338 65.3303 57.4416 65.722L49.4713 99.7823C49.4177 100.011 49.4096 100.247 49.4475 100.478C49.4854 100.71 49.5686 100.931 49.6922 101.13C49.8158 101.33 49.9775 101.502 50.1679 101.639C50.3584 101.776 50.5739 101.873 50.8022 101.927L52.1939 102.252C52.4222 102.306 52.6587 102.314 52.8901 102.276C53.1214 102.238 53.3431 102.155 53.5423 102.032C53.7415 101.908 53.9143 101.746 54.051 101.556C54.1877 101.365 54.2854 101.15 54.3387 100.921L62.309 66.8612C62.3626 66.6329 62.3707 66.3963 62.3328 66.165C62.2949 65.9336 62.2118 65.712 62.0881 65.5127C61.9644 65.3135 61.8027 65.1407 61.6122 65.004C61.4216 64.8674 61.206 64.7697 60.9777 64.7165L59.586 64.3889C59.4525 64.3584 59.316 64.3433 59.1791 64.3438Z" fill="#2D1111"/>
<path d="M87.6826 55.4327C86.0826 58.8929 83.7215 61.9468 80.7757 64.3664C77.8299 66.7861 74.3754 68.5089 70.6704 69.4062C66.9653 70.3034 63.1054 70.352 59.3789 69.5483C55.6524 68.7446 52.1557 67.1093 49.1499 64.7646C43.8775 60.6539 40.5387 54.6656 39.6605 48.2303C39.1205 44.2913 39.5234 40.2803 40.836 36.5274C41.1051 35.7573 41.4138 34.993 41.7622 34.2346C43.7039 30.01 46.7775 26.4056 50.6424 23.8211C57.72 19.0898 67.0216 18.0428 75.3177 21.8725C78.7455 23.448 81.7753 25.774 84.183 28.6783C89.9209 35.6008 91.729 45.3293 88.2337 54.1364C88.1543 54.3369 88.071 54.5367 87.9858 54.7387C87.913 54.9139 87.8366 55.0875 87.7565 55.2595C87.734 55.321 87.7078 55.3785 87.6826 55.4327Z" fill="#94C5E9"/>
<path d="M84.184 59.7484C88.4512 49.4852 79.7097 36.7636 72.084 45.5998L73.222 43.6807C71.6957 33.3564 84.192 33.6392 89.9932 45.8953C89.9932 45.8953 90.9435 52.7924 84.184 59.7484Z" fill="white"/>
<path d="M58.0469 61.0065C64.8289 62.4987 70.3645 55.8585 70.3645 55.8585C70.3645 55.8585 74.1058 54.9421 76.7699 52.297C76.7699 52.297 76.5199 59.8237 71.1088 64.3173C66.2596 64.7649 61.8963 63.6898 58.0469 61.0065Z" fill="white"/>
<path d="M69.5472 69.6595C65.9949 70.3481 62.3364 70.2676 58.8179 69.4234C55.2994 68.5793 52.0025 66.9912 49.1493 64.766C49.1147 64.7026 49.0845 64.6455 49.0583 64.596C48.9069 64.5167 48.7581 64.4311 48.6132 64.3376C45.7617 61.8923 43.4609 58.6965 41.5527 54.9701C41.6619 55.1255 45.9703 61.2022 53.5967 62.904L56.6374 65.0699L68.4102 68.5735L69.5472 69.6595Z" fill="white"/>
<path d="M49.7568 46.2527C51.1496 49.3335 53.7464 51.4207 58.5457 51.6929L61.1868 54.2041C61.1868 54.2041 55.9602 56.1876 51.0816 52.8189C51.0816 52.82 50.143 49.6119 49.7568 46.2527Z" fill="white"/>
<path d="M65.1144 31.4875C65.1144 31.4875 61.6758 32.9851 59.5602 38.0777C59.5602 38.0777 56.8081 40.8932 56.6385 44.1588C54.132 41.7477 53.1185 38.7201 56.8634 33.7275C56.8634 33.7275 61.1274 30.891 65.1144 31.4875Z" fill="white"/>
<path d="M46.4682 51.4518C42.9183 47.931 39.8655 41.6665 40.8354 36.5302C41.1045 35.7601 41.4133 34.9958 41.7617 34.2373C43.7033 30.0128 46.777 26.4084 50.6419 23.8239C50.6419 23.8239 44.944 30.6878 46.4118 40.713C46.4147 40.713 44.2154 47.5391 46.4682 51.4518Z" fill="white"/>
<path d="M87.682 55.4326C85.1184 61.01 80.6059 65.4589 74.9928 67.9431C73.8345 68.204 72.6599 68.3864 71.4771 68.489C67.5065 68.8392 63.4125 68.2532 59.7032 66.6468C57.8562 65.8617 56.1347 64.8412 54.5265 63.6413C53.7342 63.0292 52.9575 62.3923 52.242 61.6837L51.9709 61.4231L51.7096 61.1498C51.5363 60.9678 51.3609 60.7877 51.1909 60.6017C50.8608 60.2199 50.5227 59.8472 50.2152 59.4458C49.8942 59.0567 49.606 58.6411 49.3101 58.2299C49.167 58.0228 49.0328 57.8084 48.893 57.597L48.6866 57.2778L48.4934 56.9502C47.9725 56.0777 47.5163 55.1682 47.1282 54.2291C46.3393 52.3398 45.8398 50.3423 45.6466 48.3041C45.5455 47.285 45.5476 46.2562 45.5997 45.2339C45.6684 44.2115 45.8111 43.1956 46.0266 42.1938C46.0812 41.9445 46.1485 41.6967 46.2086 41.4503L46.3017 41.0773L46.4135 40.7133L46.6398 39.9825L46.9041 39.267L47.0369 38.9104L47.1872 38.5602L47.4889 37.8618L47.8325 37.166C47.9453 36.9342 48.08 36.7118 48.2037 36.485C48.7164 35.5849 49.3029 34.7289 49.9572 33.9258C50.6171 33.1255 51.344 32.3828 52.1299 31.7058C53.6989 30.3466 55.4905 29.2681 57.426 28.5176C61.2758 26.9978 65.6616 26.8435 69.6075 28.1224L69.9784 28.241L70.3423 28.3731C70.5832 28.4674 70.8303 28.5475 71.0651 28.6541C71.2998 28.7607 71.54 28.8565 71.7784 28.9645C72.015 29.0832 72.2563 29.1964 72.491 29.3201C75.3383 30.8329 77.6232 33.2217 79.0078 36.1335C79.9237 38.0648 80.4215 40.1678 80.4686 42.3049C80.5089 44.4435 80.0919 46.566 79.2454 48.5304L79.0857 48.8969L78.9037 49.2671C78.7869 49.5164 78.6446 49.7515 78.5121 49.9949C78.2316 50.4682 77.9212 50.9229 77.5826 51.3565C75.868 53.5474 73.4683 55.1001 70.7672 55.7665C68.0661 56.4329 65.2196 56.1743 62.6828 55.0323C61.6381 54.5557 60.6754 53.917 59.8302 53.1398C58.9789 52.3628 58.2853 51.4234 57.7492 50.412C57.213 49.3949 56.8456 48.2974 56.6613 47.1624C56.4847 46.0235 56.4995 44.863 56.705 43.729C56.7582 43.4469 56.8051 43.1616 56.8921 42.8875L57.0115 42.4741C57.0478 42.3353 57.0925 42.1988 57.1454 42.0654L57.4671 41.2673C57.5901 41.0005 57.7379 40.7333 57.8769 40.4684C58.486 39.4191 59.3102 38.5104 60.2953 37.8022C62.2544 36.3915 64.7809 35.819 67.1858 36.2518C67.7864 36.3602 68.3737 36.5322 68.9378 36.7649C69.0106 36.7962 69.0787 36.8188 69.1511 36.8541L69.3695 36.9633L69.8008 37.1867C69.9387 37.2712 70.077 37.3592 70.212 37.4499L70.4144 37.5867C70.4806 37.6344 70.5428 37.6875 70.6062 37.7374C70.7339 37.8396 70.8587 37.9445 70.9828 38.0504C71.1069 38.1563 71.2165 38.2786 71.33 38.3954C71.4466 38.5091 71.5552 38.6307 71.655 38.7593C71.7566 38.8852 71.8592 39.0141 71.956 39.1429C72.0528 39.2718 72.1333 39.4148 72.221 39.5513L72.3498 39.7576C72.3895 39.8268 72.4226 39.9006 72.4612 39.9727L72.6719 40.4094C72.7338 40.555 72.7898 40.7086 72.8444 40.8596L72.9241 41.0867L72.9885 41.3178C73.0293 41.474 73.0693 41.6279 73.1046 41.7837L73.1774 42.2568L73.2091 42.4937L73.2233 42.7318C73.2313 42.8897 73.2411 43.0484 73.2458 43.2049C73.24 43.3643 73.2313 43.5219 73.2207 43.678C73.2164 43.7566 73.2127 43.8341 73.2043 43.9131L73.1705 44.1457C73.1472 44.3025 73.1228 44.4568 73.0955 44.6101C73.0591 44.7626 73.0195 44.9136 72.9787 45.0624L72.9165 45.2874L72.8353 45.5057L72.6697 45.9374C72.6053 46.0771 72.5347 46.2136 72.4648 46.349C72.336 46.615 72.1507 46.8949 71.9706 47.154C71.873 47.2803 71.7737 47.4055 71.6711 47.5256C71.5684 47.6457 71.4505 47.7552 71.3399 47.8681C70.8904 48.2983 70.3719 48.6499 69.8059 48.9082C69.2582 49.1498 68.6733 49.296 68.0764 49.3406C66.9089 49.4396 65.7625 49.0778 64.929 48.4333C64.8349 48.3609 64.7675 48.2594 64.7373 48.1446C64.7071 48.0298 64.7159 47.9083 64.7622 47.799C64.8085 47.6897 64.8898 47.5989 64.9933 47.5408C65.0968 47.4827 65.2167 47.4606 65.3341 47.4779L65.3679 47.4823C67.0421 47.7261 68.4291 46.8967 68.9637 45.8446C68.9935 45.7758 69.0328 45.7146 69.0598 45.648C69.0867 45.5814 69.1114 45.5119 69.1384 45.4453C69.1791 45.3041 69.225 45.1844 69.2505 45.0191C69.2639 44.9409 69.2869 44.8659 69.2992 44.7913L69.324 44.562L69.3389 44.4485L69.3367 44.3346C69.3367 44.2589 69.339 44.1846 69.3436 44.1118C69.3214 43.8138 69.2971 43.5237 69.2112 43.2489L69.1861 43.1452L69.1497 43.0437C69.1238 42.9774 69.1002 42.9101 69.0769 42.8449C69.0441 42.7809 69.0146 42.7183 68.9884 42.6535L68.9455 42.5585L68.8931 42.4683C68.8567 42.4082 68.8265 42.3474 68.7941 42.2863C68.7541 42.2299 68.7148 42.1724 68.6787 42.1163C68.643 42.0588 68.6027 42.0043 68.5583 41.9533C68.5153 41.8994 68.4785 41.8441 68.4349 41.7928C68.3355 41.7018 68.2638 41.5879 68.1568 41.5064L68.0131 41.3684C67.9599 41.3291 67.9075 41.2916 67.8566 41.2472C67.8322 41.2269 67.8071 41.2039 67.7805 41.1839L67.6979 41.1308C67.6408 41.0944 67.5887 41.0554 67.5345 41.0158C67.4752 40.9848 67.4169 40.9521 67.3569 40.919L67.2699 40.8673C67.2419 40.8505 67.2008 40.8374 67.1684 40.8222C66.8907 40.6898 66.6012 40.5839 66.3036 40.5059C65.7009 40.3495 65.0708 40.33 64.4595 40.4487C63.8434 40.5746 63.2608 40.8293 62.7499 41.1961C62.2391 41.5629 61.8115 42.0335 61.4952 42.5771C61.4272 42.7227 61.3497 42.854 61.279 43.0007C61.2161 43.1616 61.152 43.3202 61.0862 43.48C61.0537 43.5593 61.0279 43.6411 61.009 43.7246L60.9362 43.9713C60.8787 44.1329 60.8587 44.3025 60.827 44.4703C60.705 45.1445 60.695 45.8342 60.7976 46.5117C60.9108 47.1897 61.132 47.8452 61.4527 48.4533C61.7726 49.0563 62.1805 49.6208 62.6901 50.0779C63.1982 50.5418 63.7753 50.9241 64.4006 51.2112C65.741 51.8158 67.2188 52.0503 68.6805 51.8904C70.1435 51.7248 71.537 51.1764 72.7203 50.3003C73.3065 49.8635 73.8315 49.3502 74.2813 48.7739C74.5066 48.486 74.7133 48.1839 74.9 47.8695C74.9858 47.7076 75.0859 47.5525 75.1609 47.3858L75.2832 47.1373L75.3978 46.8723C76.0083 45.4563 76.3091 43.9262 76.28 42.3846C76.2445 40.8417 75.8849 39.3236 75.2246 37.9288C74.2272 35.8294 72.5797 34.1073 70.5265 33.0181C70.3569 32.9286 70.1814 32.8478 70.0093 32.7608L69.4612 32.521C69.2792 32.4362 69.0874 32.3754 68.9025 32.3026L68.6209 32.1989L68.3352 32.1083C65.2977 31.1256 61.9261 31.2425 58.9513 32.4158C58.206 32.705 57.4868 33.0574 56.8015 33.4691C56.1184 33.8821 55.4715 34.352 54.8675 34.8739C54.2619 35.3935 53.7024 35.9644 53.1952 36.5804C52.6913 37.1993 52.2396 37.8588 51.8446 38.5522C51.7499 38.7288 51.6437 38.898 51.5581 39.0789L51.2914 39.616L51.0497 40.1802L50.9271 40.4626L50.8204 40.7501L50.6075 41.3255L50.4256 41.9078L50.336 42.1989L50.2632 42.4948C50.2152 42.6928 50.1592 42.8872 50.1177 43.0859C49.949 43.8777 49.836 44.6803 49.7796 45.4879C49.7399 46.2958 49.737 47.1056 49.816 47.9103C50.1108 51.1366 51.4399 54.2585 53.494 56.8367C55.5426 59.4207 58.298 61.4821 61.3628 62.797C64.3911 64.1072 67.7758 64.6036 71.1069 64.3103C74.4421 64.0242 77.7205 62.9557 80.6255 61.2531C83.5457 59.5496 86.0642 57.2365 88.0095 54.4714C88.0867 54.3623 88.1642 54.2509 88.2363 54.1395C88.0637 54.5738 87.879 55.0049 87.682 55.4326Z" fill="#66ACDF"/>
<path d="M75.0816 22.3926C67.8996 21.5596 62.1427 23.8848 57.4268 28.5167C57.4268 28.5167 64.1652 25.5775 71.7792 28.9636C71.7792 28.9636 80.4476 25.3089 88.0529 34.6535C85.0907 29.1216 81.4448 24.3157 75.0816 22.3926Z" fill="white"/>
<g opacity="0.6">
<path opacity="0.6" d="M42.9457 36.289C39.5421 43.6625 39.988 51.8294 43.4527 58.523C38.9398 51.4938 38.0012 42.3811 41.7611 34.2364C47.6147 21.5556 62.639 16.0214 75.3198 21.8751C80.4299 24.2237 84.6067 28.2153 87.1844 33.2137C84.5863 29.1607 80.8803 25.9378 76.5059 23.9274C63.824 18.0737 48.7994 23.6082 42.9457 36.289Z" fill="white"/>
</g>
<path d="M64.6819 70.9418C60.9165 70.9415 57.1962 70.1219 53.7793 68.5398C40.709 62.5063 34.9842 46.9642 41.0176 33.8925C43.9405 27.5599 49.1539 22.7467 55.6976 20.3363C62.2413 17.9259 69.3316 18.208 75.6631 21.1308C88.7334 27.1643 94.4586 42.706 88.4251 55.7781C84.0233 65.3145 74.556 70.9418 64.6819 70.9418ZM64.7347 20.3538C61.8433 20.3565 58.9752 20.8716 56.2636 21.8751C50.1311 24.1337 45.2448 28.6466 42.5054 34.5788C36.8505 46.8291 42.2143 61.3963 54.4664 67.0512C66.7185 72.7062 81.2839 67.3402 86.9388 55.0899C92.5937 42.8396 87.2278 28.2728 74.9775 22.6179C71.7681 21.1291 68.2733 20.3563 64.7354 20.3531L64.7347 20.3538Z" fill="#2D1111"/>
<g opacity="0.6">
<path opacity="0.6" d="M69.326 44.5637L69.3081 44.7285C69.3001 44.7096 69.2917 44.6921 69.2837 44.6721L69.2408 44.5771L69.1884 44.4869C69.152 44.4268 69.1218 44.3657 69.0894 44.3049C69.0494 44.2488 69.01 44.1913 68.974 44.1349C68.9383 44.0775 68.898 44.0231 68.8535 43.9722C68.8106 43.9184 68.7738 43.8631 68.7302 43.8117C68.6308 43.7208 68.5591 43.6068 68.4521 43.5253L68.3087 43.3874C68.2552 43.3477 68.2028 43.3106 68.1519 43.2662C68.1275 43.2455 68.1024 43.2225 68.0758 43.2029L67.9932 43.1497C67.9361 43.1133 67.884 43.0744 67.8298 43.0347C67.7705 43.0038 67.7122 42.971 67.6522 42.9376L67.5652 42.8862C67.5372 42.8695 67.496 42.856 67.4637 42.8411C67.1861 42.7086 66.8965 42.6027 66.5989 42.5248C65.9962 42.3685 65.3661 42.349 64.7548 42.4677C64.1386 42.5934 63.5559 42.8481 63.0451 43.2149C62.5342 43.5817 62.1067 44.0524 61.7905 44.596C61.7225 44.7394 61.6449 44.8726 61.5743 45.0193C61.5114 45.1805 61.4477 45.3392 61.3815 45.4986C61.3491 45.578 61.3233 45.6599 61.3043 45.7436L61.2315 45.9903C61.174 46.1519 61.154 46.3215 61.1223 46.4893C61.0674 46.8005 61.0354 47.1153 61.0266 47.4312C60.9276 47.1316 60.852 46.8249 60.8006 46.5137C60.6981 45.8362 60.708 45.1465 60.8301 44.4723C60.8625 44.3045 60.8825 44.1349 60.9393 43.9733L61.012 43.7266C61.031 43.6431 61.0568 43.5613 61.0892 43.482C61.1551 43.3222 61.2191 43.1636 61.2821 43.0027C61.3516 42.8571 61.4302 42.7228 61.4983 42.5791C61.8146 42.0355 62.2421 41.5649 62.753 41.1981C63.2638 40.8313 63.8464 40.5766 64.4626 40.4507C65.0739 40.332 65.7039 40.3515 66.3067 40.5079C66.6042 40.5859 66.8937 40.6918 67.1714 40.8241C67.2038 40.8394 67.2442 40.8525 67.2729 40.8693L67.3599 40.921C67.42 40.9541 67.4782 40.9868 67.5375 41.0178C67.5907 41.0574 67.6438 41.0971 67.7009 41.1328L67.7836 41.1859C67.8101 41.2059 67.8352 41.2289 67.8596 41.2492C67.9106 41.2936 67.963 41.3311 68.0161 41.3704L68.1599 41.5084C68.2669 41.5899 68.3386 41.7038 68.4379 41.7948C68.4816 41.8468 68.5184 41.9014 68.5613 41.9553C68.6058 42.0063 68.6461 42.0608 68.6818 42.1183C68.7182 42.1744 68.7571 42.2319 68.7971 42.2883C68.8295 42.3483 68.8597 42.4091 68.8961 42.4703L68.9485 42.5605L68.9915 42.6555C69.0177 42.7203 69.0472 42.7829 69.0799 42.8469C69.1025 42.9121 69.1261 42.9794 69.1527 43.0457L69.1891 43.1472L69.2142 43.2509C69.3001 43.5257 69.3234 43.8158 69.3467 44.1138C69.3414 44.1866 69.339 44.2609 69.3398 44.3366L69.342 44.4505L69.326 44.5637Z" fill="white"/>
</g>
<g opacity="0.6">
<path opacity="0.6" d="M51.0499 40.1835L51.2915 39.6194L51.5583 39.0822C51.6438 38.9002 51.7501 38.7321 51.8447 38.5556C52.2397 37.8622 52.6914 37.2026 53.1953 36.5837C53.7025 35.9678 54.2621 35.3968 54.8676 34.8772C55.4716 34.3554 56.1186 33.8854 56.8016 33.4724C57.4869 33.0607 58.2061 32.7084 58.9514 32.4192C61.9263 31.2458 65.2978 31.1293 68.3353 32.1116L68.621 32.2022L68.9027 32.306C69.0876 32.3788 69.2783 32.4377 69.4613 32.5243L70.0094 32.7642C70.1816 32.8512 70.357 32.932 70.5266 33.0215C72.5799 34.1107 74.2274 35.8327 75.2247 37.9322C75.8391 39.2316 76.1933 40.6387 76.2674 42.0742C76.0897 41.3423 75.8383 40.6303 75.517 39.9491C74.5196 37.8497 72.8721 36.1276 70.8188 35.0385C70.6492 34.9489 70.4742 34.8681 70.3017 34.7808L69.7536 34.5409C69.5716 34.4565 69.3798 34.3954 69.1949 34.3226L68.9132 34.2192L68.6275 34.1286C65.5901 33.146 62.2185 33.2628 59.2437 34.4358C57.7507 35.0133 56.369 35.8451 55.1599 36.8942C54.5537 37.4137 53.9935 37.9847 53.4857 38.6007C52.9818 39.2195 52.53 39.8791 52.1351 40.5726C52.0405 40.7491 51.9342 40.9183 51.8487 41.0992L51.5819 41.6364L51.3403 42.2005L51.2176 42.4825L51.111 42.7704L50.8981 43.3458L50.7161 43.9281L50.6266 44.2193L50.5538 44.5151C50.5058 44.7131 50.4497 44.9075 50.4082 45.1062C50.2395 45.898 50.1266 46.7006 50.0701 47.5082C50.0279 48.2433 50.0341 48.9805 50.0887 49.7148C49.9624 49.1203 49.8711 48.5189 49.8154 47.9136C49.7353 47.109 49.7382 46.2992 49.779 45.4912C49.8354 44.6836 49.9484 43.881 50.1171 43.0892C50.1597 42.8905 50.2157 42.6962 50.2627 42.4982L50.3354 42.2023L50.425 41.9111L50.6069 41.3288L50.8198 40.7534L50.9265 40.4659L51.0499 40.1835Z" fill="white"/>
</g>
<g opacity="0.6">
<path opacity="0.6" d="M78.9056 49.266L79.0875 48.8959L79.2473 48.5294C80.0938 46.565 80.5108 44.4425 80.4705 42.3038C80.4658 42.0287 80.4512 41.755 80.4312 41.4802C81.0862 44.5212 80.7745 47.6909 79.5395 50.546L79.3798 50.9129L79.1978 51.283C79.081 51.5319 78.9387 51.7674 78.8062 52.0109C78.5253 52.4854 78.2142 52.9414 77.8749 53.376C76.1606 55.5674 73.7611 57.1206 71.0599 57.7874C68.3588 58.4542 65.5121 58.1959 62.9751 57.054C61.9304 56.5775 60.9677 55.9388 60.1225 55.1615C59.2712 54.3845 58.5776 53.4452 58.0415 52.432C57.5053 51.4148 57.1379 50.3173 56.9536 49.1823C56.8937 48.8031 56.8561 48.4207 56.8408 48.037C57.0477 48.8634 57.3532 49.6619 57.7507 50.4154C58.2868 51.4268 58.9804 52.3661 59.8317 53.1431C60.6769 53.9203 61.6396 54.559 62.6843 55.0356C64.7073 55.9458 66.9369 56.2986 69.1421 56.0576C70.792 55.8779 72.3892 55.3694 73.8394 54.5622C75.2896 53.7551 76.5634 52.6655 77.5855 51.358C77.9249 50.9232 78.236 50.4671 78.5169 49.9925C78.6464 49.7504 78.7887 49.5153 78.9056 49.266Z" fill="white"/>
</g>
<g opacity="0.6">
<path opacity="0.6" d="M68.9655 45.8462C68.9953 45.7774 69.0346 45.7162 69.0615 45.6496C69.0885 45.583 69.1132 45.5135 69.1401 45.4469C69.1809 45.3057 69.2268 45.186 69.2522 45.0207C69.2657 44.9425 69.2886 44.8675 69.301 44.7929L69.3258 44.5636L69.3407 44.4501L69.3385 44.3362C69.3385 44.2605 69.3408 44.1862 69.3454 44.1134C69.3305 43.922 69.3152 43.7346 69.2835 43.5504C69.3119 43.5952 69.3436 43.6403 69.3756 43.6851C69.408 43.7451 69.4382 43.8063 69.4746 43.867L69.527 43.9573L69.57 44.0519C69.5965 44.1171 69.6256 44.1797 69.6584 44.2434C69.681 44.3085 69.7046 44.3758 69.7312 44.4424L69.7676 44.5436L69.7927 44.6477C69.8786 44.9225 69.9019 45.2122 69.9252 45.5106C69.9201 45.5834 69.9175 45.6562 69.9186 45.733V45.8469L69.9037 45.9604L69.879 46.1901C69.8651 46.2629 69.8426 46.3393 69.8302 46.4179C69.8047 46.5831 69.7574 46.7029 69.7181 46.8441C69.6912 46.9107 69.6635 46.9751 69.6395 47.0468C69.6155 47.1185 69.5732 47.1742 69.5434 47.2433C69.0088 48.2951 67.6211 49.1242 65.9476 48.8811L65.9138 48.8767C65.8351 48.8644 65.7546 48.8712 65.6791 48.8964C65.4144 48.7685 65.1635 48.6142 64.9301 48.4356C64.836 48.3633 64.7685 48.2617 64.7383 48.147C64.7081 48.0322 64.7169 47.9106 64.7632 47.8013C64.8096 47.6921 64.8909 47.6012 64.9944 47.5431C65.0979 47.485 65.2177 47.4629 65.3351 47.4803L65.369 47.4846C67.0431 47.7274 68.4297 46.898 68.9655 45.8462Z" fill="white"/>
</g>
<g opacity="0.6">
<path opacity="0.6" d="M58.4577 41.8682C58.3187 42.1331 58.1709 42.3999 58.0479 42.6666L57.7262 43.4651C57.6676 43.5962 57.6348 43.737 57.5922 43.8738L57.4728 44.2873C57.3859 44.5613 57.3389 44.8463 57.2858 45.1287C57.0802 46.2627 57.0656 47.423 57.2425 48.5618C57.333 49.1216 57.4685 49.6732 57.6479 50.2112C57.168 49.2516 56.8367 48.2248 56.6653 47.1657C56.4887 46.0268 56.5034 44.8663 56.7089 43.7323C56.7621 43.4502 56.809 43.1649 56.896 42.8908L57.0154 42.4774C57.0517 42.3386 57.0965 42.2021 57.1493 42.0687L57.471 41.2706C57.594 41.0038 57.7418 40.7367 57.8808 40.4717C58.4899 39.4224 59.3141 38.5137 60.2992 37.8055C62.2583 36.3948 64.7848 35.8223 67.1897 36.2551C67.7903 36.3635 68.3776 36.5355 68.9418 36.7682C69.0146 36.7995 69.0826 36.8221 69.155 36.8574L69.3734 36.9666L69.8047 37.19C69.9426 37.2745 70.0809 37.3625 70.2159 37.4532L70.4183 37.59C70.4845 37.6377 70.5467 37.6908 70.6101 37.7407C70.7378 37.8429 70.8627 37.9478 70.9868 38.0537C71.1109 38.1596 71.2204 38.2819 71.334 38.3987C71.4505 38.5124 71.5591 38.634 71.659 38.7626C71.7605 38.8886 71.8631 39.0174 71.9599 39.1462C72.0567 39.2751 72.1372 39.4181 72.2249 39.5546L72.3537 39.7609C72.3934 39.8301 72.4265 39.904 72.4651 39.976L72.6758 40.4127C72.7377 40.5583 72.7937 40.7119 72.8483 40.8629L72.928 41.09L72.9644 41.2174C72.9557 41.1967 72.9454 41.1768 72.9335 41.1577L72.8046 40.9517C72.7169 40.8153 72.6325 40.6766 72.5397 40.5434C72.4469 40.4102 72.3406 40.2857 72.2387 40.1598C72.1388 40.0313 72.0302 39.9097 71.9137 39.7959C71.8002 39.6794 71.687 39.5615 71.5669 39.4512C71.4468 39.3409 71.3179 39.2405 71.1898 39.1382C71.1265 39.088 71.0643 39.0349 70.998 38.9872L70.7957 38.8507C70.6607 38.7601 70.5227 38.672 70.3844 38.5876L69.9532 38.3641L69.7348 38.2549C69.662 38.2185 69.594 38.1974 69.5215 38.1661C68.9573 37.9335 68.37 37.7613 67.7695 37.6526C65.3646 37.2199 62.8381 37.7927 60.879 39.2034C59.8928 39.9107 59.0676 40.8189 58.4577 41.8682Z" fill="white"/>
</g>
<g opacity="0.6">
<path opacity="0.6" d="M46.2246 49.7005C46.3918 51.473 46.7915 53.2159 47.4132 54.8842C47.3139 54.6658 47.22 54.4507 47.1275 54.2312C46.3386 52.3412 45.8393 50.343 45.6466 48.3041C45.5455 47.285 45.5476 46.2562 45.5997 45.2339C45.6684 44.2115 45.8111 43.1956 46.0266 42.1938C46.0812 41.9445 46.1485 41.6967 46.2086 41.4503L46.3017 41.0773L46.4135 40.7133L46.6398 39.9825L46.9041 39.267L47.0369 38.9104L47.1872 38.5602L47.4889 37.8618L47.8325 37.166C47.9453 36.9342 48.08 36.7118 48.2037 36.485C48.7164 35.5849 49.3029 34.7289 49.9572 33.9258C50.6171 33.1255 51.344 32.3828 52.1299 31.7058C53.6989 30.3466 55.4905 29.2681 57.426 28.5176C61.2758 26.9978 65.6616 26.8435 69.6075 28.1224L69.9784 28.241L70.3423 28.3731C70.5832 28.4674 70.8303 28.5475 71.0651 28.6541C71.2998 28.7607 71.54 28.8565 71.7784 28.9645C72.015 29.0832 72.2563 29.1964 72.491 29.3201C75.3383 30.8329 77.6232 33.2217 79.0078 36.1335C79.2246 36.5887 79.4177 37.0548 79.5864 37.5299C78.2016 34.6184 75.9169 32.2295 73.07 30.7162C72.8353 30.5928 72.594 30.4796 72.3571 30.361C72.1191 30.2518 71.8818 30.1546 71.6438 30.0505C71.4057 29.9465 71.1619 29.8638 70.921 29.7696L70.557 29.6371L70.1862 29.5188C66.2403 28.2414 61.8548 28.3939 58.0047 29.9141C56.0694 30.6645 54.2779 31.7428 52.7089 33.1018C51.923 33.779 51.196 34.5217 50.5358 35.3219C49.8816 36.125 49.2951 36.9811 48.7824 37.8811C48.6586 38.1082 48.524 38.3302 48.4111 38.5624L48.0676 39.2583L47.7659 39.9563L47.6156 40.3068L47.4831 40.6631L47.2185 41.3786L46.9921 42.1098L46.8804 42.4737L46.7872 42.8468C46.7261 43.0932 46.6591 43.3406 46.6053 43.5903C46.3897 44.592 46.2471 45.608 46.1787 46.6303C46.1256 47.6523 46.1234 48.6808 46.2246 49.7005Z" fill="white"/>
</g>
<g opacity="0.6">
<path opacity="0.6" d="M76.8577 43.7836C76.8868 45.3252 76.586 46.8551 75.9755 48.271L75.8609 48.5363L75.7386 48.7845C75.6636 48.9512 75.5635 49.1066 75.4776 49.2682C75.2916 49.5827 75.0856 49.8849 74.8608 50.1729C74.411 50.7492 73.886 51.2626 73.2998 51.6993C72.1165 52.5754 70.7231 53.1239 69.2601 53.2894C67.7982 53.4492 66.3203 53.2147 64.9797 52.6103C64.3545 52.3231 63.7774 51.9408 63.2692 51.477C62.7597 51.0195 62.3521 50.455 62.0318 49.852C61.8212 49.4537 61.654 49.034 61.5332 48.6C61.8386 49.1492 62.2214 49.6609 62.6902 50.0805C63.1984 50.5444 63.7754 50.9267 64.4007 51.2138C65.7411 51.8184 67.219 52.0529 68.6807 51.8929C70.1437 51.7274 71.5371 51.179 72.7204 50.3029C73.3066 49.8661 73.8316 49.3527 74.2814 48.7765C74.5067 48.4886 74.7134 48.1865 74.9001 47.8721C74.986 47.7102 75.086 47.5551 75.161 47.3884L75.2833 47.1399L75.3979 46.8749C76.0084 45.4589 76.3092 43.9288 76.2801 42.3871C76.2554 41.2768 76.0621 40.1767 75.7069 39.1244C75.7394 39.1923 75.7721 39.2601 75.8048 39.3278C76.4643 40.7228 76.823 42.2409 76.8577 43.7836Z" fill="white"/>
</g>
<path d="M69.2504 69.0688C65.8577 69.0688 62.5295 68.3963 59.512 67.089C57.7094 66.3247 55.9345 65.2929 54.2389 64.0282C53.5696 63.5111 52.7063 62.821 51.9038 62.0266L51.6381 61.7718L51.6239 61.758L51.3623 61.4847C51.2986 61.4173 51.2371 61.3529 51.1756 61.2885C51.0617 61.1695 50.9481 61.0505 50.8364 60.9289C50.7534 60.8328 50.6788 60.7469 50.6045 60.6625C50.3472 60.3681 50.0812 60.0638 49.8337 59.7403C49.5673 59.4178 49.314 59.0634 49.0694 58.7212L48.9209 58.5142C48.8205 58.3686 48.7291 58.2281 48.6374 58.0869C48.5889 58.0141 48.5404 57.9403 48.4919 57.8656L48.283 57.5421C48.279 57.5366 48.2757 57.5308 48.272 57.525L48.0792 57.1974C47.5465 56.3068 47.0805 55.378 46.6849 54.4187C45.876 52.4844 45.3647 50.4388 45.1683 48.3514C45.0755 47.419 45.0592 46.3912 45.1199 45.2117C45.1901 44.1641 45.336 43.1229 45.5567 42.0964C45.596 41.9144 45.6407 41.7404 45.6855 41.5657L45.8365 40.9634C45.8387 40.9554 45.8409 40.947 45.8435 40.939L46.1819 39.8425C46.1845 39.8341 46.187 39.8261 46.1903 39.8181L46.5877 38.7452C46.5903 38.7379 46.5932 38.7303 46.5964 38.723L47.0488 37.6737C47.0521 37.6661 47.0554 37.6588 47.059 37.6515L47.4029 36.9557C47.483 36.7908 47.5729 36.6314 47.6599 36.4775C47.701 36.4047 47.7421 36.3319 47.7825 36.2591C48.3098 35.3331 48.9128 34.4524 49.5855 33.626C50.2633 32.8043 51.0096 32.0416 51.8161 31.3459C53.4264 29.9515 55.2647 28.8447 57.2505 28.074C61.1894 26.5193 65.7475 26.3715 69.7552 27.669L70.1239 27.7869L70.1417 27.7931L70.5056 27.9252C70.5966 27.9616 70.6778 27.9907 70.7586 28.0202C70.9231 28.0809 71.093 28.1432 71.263 28.2203C71.3445 28.2567 71.4322 28.2931 71.5178 28.3295C71.6699 28.395 71.8216 28.4602 71.9741 28.529L71.9909 28.5373C72.0761 28.5799 72.1619 28.6221 72.2478 28.664C72.4032 28.74 72.559 28.8165 72.7119 28.8969C75.651 30.4582 78.0096 32.9239 79.439 35.9294C80.3827 37.9218 80.8971 40.0903 80.949 42.2943C80.9896 44.5015 80.5593 46.692 79.6868 48.7197L79.5259 49.0881C79.5234 49.0942 79.5205 49.1004 79.5176 49.1066L79.3356 49.4767C79.2483 49.6631 79.1467 49.8432 79.0485 50.0179C79.0099 50.086 78.9713 50.1544 78.9335 50.2232C78.9302 50.2294 78.9265 50.2356 78.9229 50.2414C78.5688 50.8266 78.2707 51.2633 77.9566 51.6571C76.1759 53.9318 73.6839 55.5439 70.8792 56.2357C68.0744 56.9275 65.1186 56.6591 62.4843 55.4734C61.3919 54.9764 60.3856 54.3086 59.5033 53.495C58.6491 52.7155 57.9151 51.7543 57.3247 50.6403C56.7637 49.5772 56.3796 48.4298 56.1874 47.2432C56.0013 46.0512 56.0164 44.8363 56.2322 43.6493L56.2547 43.5292C56.2981 43.2648 56.3581 43.0035 56.4345 42.7467L56.5503 42.3464C56.5634 42.3031 56.5732 42.2689 56.5834 42.2343C56.6153 42.1149 56.6553 41.9978 56.7031 41.8838L57.0216 41.0933C57.0245 41.0861 57.0278 41.0788 57.031 41.0715C57.1315 40.8531 57.2454 40.6395 57.3557 40.432L57.4521 40.2501C57.455 40.2446 57.4579 40.2388 57.4612 40.2333C58.1048 39.1253 58.9752 38.1658 60.0154 37.4175C62.0898 35.9254 64.7339 35.3281 67.2698 35.7845C67.9043 35.8988 68.5247 36.0803 69.1208 36.3257C69.1518 36.3392 69.1747 36.3479 69.1976 36.3566C69.2515 36.3781 69.3068 36.3996 69.3607 36.4265L70.0212 36.7639C70.0311 36.769 70.0409 36.7748 70.0507 36.7806C70.1945 36.8683 70.3382 36.9604 70.4787 37.0547L70.6821 37.1922C70.7455 37.237 70.7953 37.2774 70.8452 37.3174L70.902 37.3633C71.0374 37.4725 71.1662 37.5791 71.2943 37.6908C71.4213 37.8069 71.5272 37.9154 71.6299 38.0206L71.6728 38.0646C71.8031 38.1932 71.9247 38.3303 72.0367 38.4751C72.1328 38.5938 72.2391 38.727 72.3392 38.8609C72.4196 38.9759 72.4866 39.0815 72.5532 39.1885L72.7555 39.5102C72.7919 39.5757 72.8196 39.6274 72.8458 39.6801C72.8585 39.7053 72.8709 39.7304 72.8822 39.7551L73.1005 40.2068C73.1042 40.214 73.1075 40.2217 73.1107 40.2293C73.1733 40.3782 73.2286 40.5267 73.2927 40.7025L73.3735 40.9328C73.3772 40.9427 73.3804 40.9528 73.383 40.963L73.4477 41.1941C73.4918 41.363 73.5329 41.5217 73.5697 41.6822C73.5718 41.6931 73.574 41.704 73.5759 41.7149L73.6825 42.4341C73.6825 42.4457 73.6854 42.4574 73.6861 42.4705L73.7065 42.8293C73.7131 42.952 73.7196 43.0746 73.7232 43.1958C73.7232 43.2067 73.7232 43.2173 73.7232 43.2282C73.7174 43.3924 73.7083 43.5558 73.6978 43.7166V43.741C73.6934 43.8171 73.689 43.8924 73.6814 43.9692C73.6814 43.9761 73.6814 43.9827 73.6789 43.9896L73.6446 44.2221C73.6203 44.3848 73.5955 44.5439 73.5671 44.7015C73.5657 44.7107 73.5638 44.7198 73.5617 44.7288C73.5253 44.886 73.483 45.0417 73.4412 45.1953L73.3782 45.4228C73.3742 45.4363 73.3699 45.4497 73.3651 45.4628L73.1173 46.1143C73.1133 46.1245 73.1093 46.1339 73.1049 46.1438C73.0372 46.2893 72.9637 46.4331 72.8902 46.5747C72.7523 46.8615 72.5554 47.157 72.3647 47.4328L72.3497 47.4532C72.2471 47.5853 72.143 47.7167 72.0357 47.8423C71.9505 47.9427 71.8624 48.0297 71.7773 48.1138C71.7456 48.1454 71.7136 48.1767 71.6823 48.2088C71.1921 48.6812 70.6253 49.0669 70.0059 49.3494C69.4069 49.6143 68.7667 49.7744 68.1134 49.8225C66.8691 49.9277 65.6022 49.5615 64.6371 48.8166C64.4591 48.6794 64.3317 48.4871 64.2747 48.2697C64.2177 48.0524 64.2345 47.8223 64.3223 47.6155C64.4101 47.4087 64.564 47.2368 64.7599 47.1269C64.9558 47.0169 65.1827 46.975 65.405 47.0078L65.4305 47.011C66.9663 47.2345 68.1105 46.4597 68.5323 45.6422C68.5494 45.6059 68.5687 45.5695 68.5873 45.5331C68.596 45.5163 68.6051 45.5003 68.6128 45.4836C68.6339 45.4221 68.6568 45.3653 68.6805 45.3078L68.6867 45.2925C68.6958 45.2627 68.7045 45.2335 68.7136 45.2044C68.7416 45.122 68.7631 45.0376 68.778 44.9518C68.7882 44.8922 68.7995 44.8427 68.8108 44.7943C68.8162 44.7713 68.8217 44.7484 68.826 44.7255L68.8606 44.427V44.3488C68.8606 44.2691 68.8606 44.1934 68.8661 44.1191C68.8446 43.8385 68.8217 43.6056 68.7569 43.3975C68.754 43.3876 68.7511 43.3782 68.7489 43.3683L68.7016 43.2097C68.6816 43.1591 68.6601 43.0983 68.639 43.0379C68.6062 42.972 68.576 42.9069 68.5487 42.8399L68.4832 42.7151C68.4563 42.671 68.429 42.6197 68.4021 42.5695L68.3893 42.5458C68.3529 42.492 68.3165 42.4366 68.2801 42.3835L68.2692 42.366C68.2481 42.3338 68.2247 42.303 68.1993 42.274C68.1658 42.2325 68.1444 42.2041 68.1233 42.1753C68.1113 42.1593 68.0993 42.1429 68.0869 42.1269C68.0377 42.0789 67.997 42.0319 67.9606 41.9897C67.9332 41.9562 67.9033 41.9247 67.8714 41.8955C67.8566 41.8842 67.8425 41.8721 67.8292 41.8591L67.7051 41.7404C67.6512 41.7008 67.5985 41.6611 67.5468 41.616L67.5282 41.6003L67.5078 41.5825L67.4431 41.541C67.3896 41.5075 67.3361 41.4682 67.2822 41.4292C67.2327 41.4027 67.1832 41.375 67.1326 41.347L67.0329 41.2902C67.0118 41.2819 66.9914 41.2735 66.9725 41.2647C66.7225 41.1447 66.4616 41.0487 66.1933 40.9783C65.6591 40.8393 65.1005 40.8214 64.5585 40.9259C64.012 41.037 63.495 41.2615 63.0409 41.585C62.5867 41.9085 62.2056 42.3237 61.9221 42.8039C61.8878 42.8766 61.8511 42.944 61.8147 43.0135C61.783 43.0728 61.7514 43.1325 61.7215 43.1955C61.6593 43.3538 61.5963 43.5099 61.5315 43.6686C61.5279 43.6773 61.5239 43.6857 61.5195 43.6944C61.5102 43.7209 61.5023 43.7479 61.4959 43.7752C61.4879 43.8062 61.4795 43.8375 61.47 43.8684L61.3973 44.1119C61.3947 44.1206 61.3918 44.1293 61.3889 44.1377C61.3586 44.2346 61.3362 44.3338 61.3219 44.4343C61.3143 44.4784 61.3066 44.5224 61.2983 44.5661C61.1859 45.1857 61.1768 45.8196 61.2713 46.4422C61.3757 47.0682 61.5801 47.6734 61.8766 48.2346C62.1954 48.8358 62.5768 49.3381 63.0099 49.7268C63.4822 50.1593 64.0192 50.5154 64.6014 50.7822C65.8619 51.3508 67.2518 51.5707 68.6262 51.4191C70.0055 51.2652 71.3193 50.7482 72.4334 49.9208C72.984 49.5106 73.4771 49.0286 73.8998 48.4876C74.1121 48.2167 74.3066 47.9324 74.4821 47.6363C74.513 47.5784 74.5458 47.5213 74.5781 47.4641C74.632 47.3695 74.6833 47.28 74.7237 47.1941L74.8478 46.9415L74.957 46.6868C75.5384 45.3335 75.8255 43.8721 75.7995 42.3995C75.7646 40.9246 75.4212 39.4734 74.7914 38.1392C73.8385 36.133 72.264 34.4875 70.3018 33.4469C70.205 33.3956 70.1053 33.3472 70.0056 33.2984C69.9386 33.2657 69.872 33.2333 69.8054 33.1998L69.2693 32.965C69.1601 32.9145 69.0488 32.8744 68.9323 32.8318C68.8639 32.8071 68.7958 32.7823 68.7285 32.7558L68.4661 32.6597L68.191 32.5724C65.2268 31.6206 62.0245 31.7253 59.1288 32.8686C58.4085 33.1487 57.7133 33.4897 57.0507 33.8876C56.391 34.287 55.7659 34.7411 55.1822 35.2451C54.5978 35.747 54.0576 36.2982 53.5678 36.8927C53.081 37.4909 52.6444 38.1282 52.2627 38.7983C52.2325 38.8551 52.1943 38.9221 52.1564 38.989C52.0964 39.0942 52.0399 39.1936 51.9933 39.2918L51.7284 39.8257L51.3739 40.6497L51.0635 41.4868L50.8014 42.3347L50.7323 42.6172C50.7137 42.6939 50.6937 42.7715 50.6733 42.8486C50.6435 42.9636 50.6136 43.0786 50.5885 43.1947C50.4252 43.9645 50.3157 44.7448 50.261 45.5298C50.2166 46.4313 50.2279 47.1784 50.2974 47.8721C50.5765 50.9238 51.8463 54.0035 53.8735 56.5474C55.8573 59.0488 58.5137 61.0603 61.5563 62.3658C64.4624 63.6243 67.7513 64.1345 71.0694 63.8423C74.2968 63.5657 77.5188 62.5321 80.3863 60.8496C83.2385 59.182 85.7392 56.8826 87.6171 54.1993C87.6899 54.0941 87.7652 53.9882 87.8355 53.8819C87.9002 53.7822 87.9996 53.7101 88.1144 53.6796C88.2293 53.649 88.3514 53.6622 88.457 53.7167C88.5627 53.7711 88.6444 53.8628 88.6862 53.974C88.728 54.0853 88.7271 54.2081 88.6835 54.3186C88.5055 54.7681 88.3155 55.2117 88.119 55.6376C85.5009 61.3166 80.9045 65.848 75.1888 68.385C75.1603 68.3977 75.1306 68.4076 75.1 68.4145C73.9207 68.6806 72.7247 68.8668 71.5203 68.9717C70.7614 69.0367 70.0047 69.0691 69.2504 69.0688ZM52.3096 61.0869L52.5735 61.3416C53.3439 62.1041 54.1777 62.7701 54.8186 63.2654C56.4462 64.4795 58.1549 65.4713 59.8902 66.2086C63.4346 67.7445 67.4238 68.3683 71.4341 68.0145C72.58 67.9151 73.7181 67.7392 74.8405 67.4879C79.4336 65.439 83.294 62.0404 85.9084 57.7441C84.4101 59.2716 82.7156 60.5933 80.8693 61.6746C77.8787 63.427 74.5174 64.5065 71.1498 64.7951C67.6745 65.1015 64.2247 64.5651 61.1742 63.2443C57.9875 61.8766 55.2019 59.7665 53.1205 57.1417C50.9787 54.454 49.6361 51.1931 49.3406 47.9613C49.2678 47.2228 49.2547 46.4305 49.302 45.4716C49.3597 44.6383 49.4758 43.8101 49.6496 42.9931C49.6779 42.8614 49.7111 42.7336 49.7442 42.6055C49.7628 42.5327 49.7806 42.4599 49.7995 42.3871L49.8723 42.0902C49.8745 42.0811 49.877 42.0723 49.8796 42.0636L50.15 41.1876C50.1525 41.1796 50.1554 41.1712 50.1584 41.1632L50.4779 40.2999L50.4877 40.2756L50.8517 39.4316C50.8553 39.4232 50.8589 39.4152 50.8629 39.4068L51.1301 38.8696C51.1876 38.747 51.256 38.6265 51.3222 38.5104C51.3564 38.4507 51.3907 38.3907 51.4231 38.3285C51.8329 37.6083 52.3017 36.9233 52.8246 36.2806C53.3495 35.6429 53.9285 35.0517 54.5551 34.5136C55.8053 33.4292 57.2336 32.5693 58.7769 31.9718C61.8783 30.7475 65.3081 30.6355 68.4828 31.6549L68.766 31.7444L68.7867 31.7517L69.0684 31.8554C69.1376 31.8823 69.1984 31.9042 69.2595 31.9282C69.3898 31.9755 69.5241 32.0243 69.6624 32.0879L70.2017 32.3238L70.2254 32.3351C70.292 32.3685 70.359 32.4013 70.4259 32.4341C70.5351 32.4872 70.6443 32.5403 70.7506 32.5967C72.8954 33.7342 74.6163 35.5329 75.658 37.7258C76.3453 39.1823 76.7201 40.7665 76.7582 42.3766C76.7869 43.9866 76.4729 45.5844 75.837 47.0638L75.7217 47.3298C75.7188 47.3372 75.7155 47.3443 75.7118 47.3513L75.5899 47.5995C75.5393 47.7124 75.4745 47.8263 75.4116 47.9362C75.3814 47.9893 75.3508 48.0424 75.322 48.0967C75.3173 48.1054 75.3126 48.1138 75.3075 48.1222C75.084 48.4861 74.8879 48.7885 74.6549 49.0771C74.2182 49.6463 73.6628 50.1904 73.0103 50.6847C71.7588 51.6147 70.2829 52.1959 68.7332 52.369C67.1859 52.5391 65.6212 52.2909 64.2025 51.6502C63.531 51.3424 62.9115 50.9318 62.3664 50.4332C61.854 49.9732 61.4031 49.3821 61.0304 48.6801C60.6856 48.0265 60.448 47.3218 60.3265 46.5929C60.2147 45.8618 60.2249 45.1173 60.3567 44.3896C60.3655 44.3437 60.3724 44.3055 60.3789 44.2673C60.4013 44.1178 60.4358 43.9704 60.4823 43.8265L60.5515 43.5914C60.5584 43.5689 60.5635 43.5492 60.5686 43.5299C60.5881 43.4468 60.6154 43.3656 60.6501 43.2875C60.7134 43.1347 60.7749 42.9826 60.8353 42.8282C60.8393 42.8177 60.8437 42.8075 60.8484 42.7973C60.8866 42.7172 60.927 42.6405 60.9674 42.5644C61.0006 42.5014 61.034 42.4388 61.0646 42.374C61.07 42.3625 61.0759 42.3512 61.0824 42.3402C61.4328 41.7371 61.907 41.215 62.4736 40.8083C63.0403 40.4016 63.6867 40.1196 64.3703 39.9808C65.0513 39.8485 65.7532 39.87 66.4247 40.0437C66.7505 40.1283 67.0674 40.2441 67.371 40.3895L67.3877 40.396C67.4321 40.4133 67.4752 40.4339 67.5166 40.4575L67.6028 40.5085C67.6512 40.5354 67.7051 40.5653 67.7597 40.594C67.7813 40.6056 67.8021 40.6188 67.8219 40.6333C67.8667 40.6664 67.9085 40.6985 67.954 40.7268L68.0414 40.7829C68.0508 40.7891 68.0599 40.7953 68.0687 40.8018C68.0974 40.8233 68.1251 40.8469 68.152 40.8699L68.168 40.8837C68.2044 40.9157 68.2383 40.9397 68.2718 40.9645L68.3012 40.9863C68.3173 40.9983 68.3326 41.0112 68.3471 41.0249L68.4734 41.1465C68.5492 41.2098 68.619 41.2799 68.6819 41.3561C68.7064 41.3863 68.7326 41.415 68.7605 41.442C68.7761 41.4562 68.7907 41.4714 68.8042 41.4875C68.8344 41.5239 68.8621 41.5603 68.8897 41.5967C68.9043 41.616 68.9185 41.6356 68.9341 41.6549C68.9906 41.7211 69.0421 41.7914 69.0881 41.8653C69.119 41.9129 69.1521 41.9617 69.186 42.0108C69.1978 42.027 69.2085 42.0439 69.218 42.0614L69.2479 42.1182C69.266 42.1528 69.2842 42.1877 69.305 42.2223L69.3614 42.3187C69.3699 42.3333 69.3775 42.3482 69.3843 42.3635L69.4273 42.4585C69.4553 42.5269 69.4793 42.5775 69.5059 42.6295C69.5157 42.6488 69.5241 42.6687 69.531 42.6892C69.5521 42.7493 69.5736 42.8111 69.5976 42.8712L69.638 42.9851C69.6436 43.0003 69.6484 43.0159 69.6522 43.0317L69.674 43.1216C69.7759 43.4557 69.8018 43.7992 69.8225 44.0766C69.8244 44.1008 69.8244 44.1251 69.8225 44.1494C69.8182 44.2087 69.8163 44.2695 69.8167 44.3313L69.8189 44.4405C69.8194 44.4641 69.818 44.4877 69.8149 44.5111L69.7763 44.8441C69.7763 44.8554 69.7734 44.8671 69.7712 44.8805C69.7636 44.9227 69.7537 44.9653 69.7439 45.0079C69.7366 45.0392 69.729 45.0709 69.7235 45.1036C69.7018 45.233 69.6701 45.3606 69.6285 45.485C69.6187 45.5163 69.6092 45.548 69.5994 45.5807C69.595 45.5968 69.5897 45.6126 69.5834 45.6281L69.5667 45.6692C69.5488 45.7121 69.5303 45.7543 69.5157 45.8013C69.5126 45.811 69.5089 45.8208 69.5048 45.8308C69.4844 45.881 69.46 45.929 69.4346 45.9763C69.424 45.996 69.4131 46.016 69.404 46.0371C69.4 46.0459 69.396 46.0546 69.3916 46.0633C68.8242 47.1799 67.3015 48.2495 65.2994 47.9558L65.2736 47.9526C65.262 47.9499 65.2499 47.9506 65.2387 47.9545C65.2275 47.9584 65.2177 47.9655 65.2103 47.9748C65.2016 47.987 65.1981 48.0021 65.2005 48.0168C65.2029 48.0316 65.211 48.0449 65.223 48.0537C65.9986 48.6535 67.0249 48.9476 68.0363 48.862C68.5805 48.8226 69.1139 48.6896 69.6129 48.469C70.1278 48.2344 70.5995 47.9144 71.0079 47.5227C71.033 47.4969 71.0687 47.4616 71.1043 47.4267C71.1771 47.3539 71.2474 47.2851 71.3063 47.2156C71.402 47.1035 71.4941 46.9874 71.5847 46.8706C71.7434 46.6413 71.9196 46.3767 72.0335 46.1405C72.1037 46.0047 72.1688 45.8788 72.2285 45.7507L72.4607 45.1407L72.5175 44.9355C72.5539 44.7983 72.5921 44.6563 72.6267 44.5133C72.6522 44.3677 72.6751 44.2221 72.6969 44.0766L72.7293 43.856C72.7351 43.7978 72.7381 43.7406 72.7413 43.6828V43.6529C72.7515 43.5012 72.7599 43.3534 72.7654 43.2046C72.7617 43.0954 72.7559 42.9862 72.7501 42.8748L72.7308 42.5407L72.7013 42.3224L72.6318 41.8765C72.5983 41.731 72.559 41.5854 72.5226 41.4398L72.4644 41.2316L72.3898 41.0195C72.3341 40.8651 72.2853 40.7338 72.2325 40.6075L72.0273 40.1827C72.0185 40.1671 72.0029 40.1354 71.9869 40.1038C71.9709 40.0721 71.9505 40.031 71.9316 39.9979L71.7416 39.6962C71.6826 39.6026 71.6237 39.5091 71.5596 39.4185C71.4759 39.3067 71.3776 39.1834 71.279 39.0622C71.1896 38.9465 71.0923 38.837 70.9879 38.7346L70.9409 38.6862C70.8437 38.5865 70.7517 38.4922 70.6567 38.4053C70.5475 38.3132 70.4278 38.2116 70.304 38.1141L70.2403 38.0628C70.2039 38.0344 70.1697 38.0056 70.1311 37.9787L69.9397 37.8499C69.816 37.7669 69.6886 37.6854 69.5612 37.6071L68.9338 37.2869C68.905 37.2727 68.8744 37.261 68.8439 37.2505C68.8133 37.2399 68.7766 37.2239 68.7423 37.209C68.2118 36.9909 67.6596 36.8295 67.0951 36.7275C64.815 36.3173 62.4367 36.8523 60.5711 38.1956C59.6434 38.8633 58.8667 39.7189 58.2917 40.7068L58.1986 40.883C58.0916 41.0839 57.9908 41.2738 57.9027 41.4635L57.5857 42.2503C57.5835 42.2561 57.581 42.2616 57.5784 42.2674C57.5475 42.3437 57.5215 42.4218 57.5005 42.5014C57.4889 42.5418 57.4772 42.5819 57.4641 42.6219L57.3473 43.0262C57.2819 43.2492 57.2304 43.476 57.193 43.7053L57.1712 43.8236C56.9748 44.9033 56.9608 46.0082 57.1297 47.0926C57.3051 48.1759 57.6556 49.2234 58.1676 50.1941C58.7059 51.2095 59.3723 52.0837 60.1482 52.7915C60.9576 53.5345 61.8787 54.1457 62.8778 54.6029C65.317 55.7019 68.0544 55.9507 70.6517 55.3093C73.2491 54.6679 75.5561 53.1735 77.2033 51.0654C77.4944 50.7014 77.7685 50.2982 78.0986 49.7552C78.135 49.6856 78.1754 49.6169 78.2139 49.5484C78.3078 49.3818 78.3959 49.2249 78.4716 49.0648L78.6503 48.6972L78.8064 48.3398C79.6243 46.4388 80.0277 44.3853 79.9896 42.3162C79.9421 40.2471 79.4603 38.2111 78.5753 36.3402C77.2345 33.5216 75.0226 31.2091 72.2664 29.7442C72.1237 29.6692 71.9752 29.5986 71.8297 29.5258C71.7438 29.4839 71.6579 29.4417 71.5727 29.3991C71.4293 29.334 71.2863 29.2729 71.1433 29.2113C71.0534 29.175 70.9638 29.1346 70.8739 29.0952C70.7306 29.0301 70.5828 28.9762 70.4292 28.9195C70.3422 28.8874 70.2549 28.855 70.1686 28.8216L69.8243 28.6964L69.4626 28.581C65.6612 27.3501 61.339 27.4892 57.6028 28.9653C55.7176 29.6953 53.9723 30.7447 52.4435 32.0676C51.6785 32.7271 50.9707 33.4503 50.3279 34.2294C49.6909 35.0117 49.1197 35.8454 48.6203 36.722C48.5839 36.7915 48.5388 36.8676 48.4948 36.9466C48.4114 37.0943 48.3328 37.2341 48.264 37.3753L47.9245 38.0628L47.4823 39.0884L47.0943 40.1362L46.7639 41.2058L46.6146 41.8005C46.5728 41.9653 46.5306 42.1306 46.4938 42.2969C46.2839 43.2749 46.1447 44.2668 46.0775 45.2648C46.02 46.3894 46.0349 47.3702 46.123 48.2568C46.3101 50.2486 46.7979 52.2006 47.5696 54.0464C47.9479 54.9637 48.3936 55.8517 48.9031 56.7032L49.0938 57.0275L49.2947 57.3383C49.342 57.4111 49.3915 57.4864 49.4403 57.5625C49.5269 57.6957 49.6132 57.8289 49.7031 57.9588L49.8486 58.1611C50.095 58.5058 50.3279 58.8315 50.5842 59.142C50.8236 59.4546 51.0678 59.7341 51.3266 60.03C51.4019 60.1166 51.4776 60.2032 51.5526 60.2898C51.6502 60.3961 51.759 60.51 51.8682 60.6239C51.9311 60.6898 51.9944 60.7557 52.057 60.8223L52.3096 61.0869ZM67.0282 41.2826H67.0318H67.0282Z" fill="#2D1111"/>
<g opacity="0.3">
<path opacity="0.3" d="M86.3429 53.9846C85.339 56.1646 84.0299 58.1906 82.4549 60.0017C79.5568 62.0158 76.5496 63.2546 73.5569 63.8267C69.1816 64.6656 64.8361 64.0786 60.8961 62.4143C58.2982 61.3148 55.8762 59.7451 53.7402 57.8049C70.1722 70.857 97.9177 48.6176 82.7552 28.021L83.8503 28.5269C88.7842 35.3359 90.1792 44.4184 86.8976 52.6897C86.8182 52.8903 86.7349 53.0901 86.6493 53.2924C86.5766 53.4674 86.5003 53.641 86.4204 53.8132C86.3953 53.8715 86.3687 53.9286 86.3429 53.9846Z" fill="#332712"/>
</g>
<g opacity="0.3">
<path opacity="0.3" d="M81.8819 60.6389C79.5644 63.1197 76.7714 65.1091 73.6694 66.4885C70.5673 67.868 67.2194 68.6095 63.825 68.6687C60.4305 68.728 57.0588 68.104 53.9105 66.8336C50.7621 65.5633 47.9014 63.6727 45.4986 61.2743C42.3428 57.576 40.316 53.0489 39.6592 48.2317C40.0624 48.096 40.291 48.021 40.291 48.021C40.291 48.021 41.0647 56.2843 51.9703 61.4257C51.9703 61.4257 56.4799 64.1153 56.8023 60.7674C58.1353 61.3917 59.5019 61.9415 60.8959 62.4142C64.9834 63.7928 69.3223 64.4501 73.5568 63.8266C76.5345 63.3969 79.3787 62.3079 81.8819 60.6389Z" fill="#332712"/>
</g>
</svg>
