<svg width="64" height="64" viewBox="0 0 64 64" fill="none" xmlns="http://www.w3.org/2000/svg">
<rect width="64" height="64" rx="16" fill="#C4C4C4"/>
<rect width="64" height="64" rx="16" fill="#FFE1AE"/>
<mask id="mask0_520_11651" style="mask-type:alpha" maskUnits="userSpaceOnUse" x="0" y="0" width="64" height="64">
<rect width="64" height="64" rx="16" fill="#C4C4C4"/>
</mask>
<g mask="url(#mask0_520_11651)">
<path d="M56.638 56.0214C56.638 56.0214 58.519 55.0313 61.0275 56.0214C61.0275 56.0214 60.334 52.9688 56.5554 53.6782C52.7768 54.3876 51.1156 52.9196 51.5998 45.3199C52.194 41.5928 53.8553 39.6705 53.8553 39.6705C55.821 36.5709 56.7622 31.8344 56.1767 24.6028C55.2629 13.3436 45.6429 4.60303 33.3815 4.60303C28.1877 4.60303 23.4102 6.24676 19.6286 9.0003C19.6286 9.0003 6.6988 9.31716 7.53484 31.4729L7.61142 37.8679C6.96381 39.3591 6.05903 41.049 4.80151 42.9303C-1.91635 52.9793 4.56031 62.1601 4.56031 62.1601C4.56031 62.1601 3.65825 59.3863 4.51629 55.7793L4.55881 55.5336C6.65629 60.715 12.3072 69.161 26.8901 69.4206C59.4992 69.9977 49.3784 60.8398 59.4992 62.1929C59.4992 62.1929 58.9987 60.3119 56.3088 59.8331C56.3088 59.8331 60.3681 59.2887 62.0185 62.028C62.0164 62.028 62.3145 56.9786 56.638 56.0214Z" fill="#725440"/>
<g opacity="0.5">
<path opacity="0.5" d="M5.01442 44.5885C6.27225 42.7072 7.17673 41.0173 7.82433 39.5261L7.74775 33.1312C6.91172 10.9754 19.8415 10.6585 19.8415 10.6585C23.6231 7.90497 28.4 6.26124 33.5944 6.26124C45.1862 6.26124 54.4155 14.0738 56.1608 24.4412C55.1686 13.2601 45.5851 4.60303 33.3816 4.60303C28.1877 4.60303 23.4103 6.24676 19.6287 9.0003C19.6287 9.0003 6.69886 9.31716 7.5349 31.4729L7.61148 37.8679C6.96387 39.3591 6.0594 41.049 4.80157 42.9303C1.66333 47.626 1.40465 52.13 2.0194 55.5981C1.76433 52.4077 2.35526 48.5664 5.01442 44.5885Z" fill="white"/>
</g>
<g opacity="0.3">
<path opacity="0.3" d="M61.7325 60.1077C61.7147 60.051 61.6957 59.9934 61.6758 59.9355C61.6957 59.9928 61.7147 60.0504 61.7325 60.1077Z" fill="#31241B"/>
</g>
<g opacity="0.3">
<path opacity="0.3" d="M56.6385 57.6412C59.8512 58.1824 61.1498 60.0348 61.6735 61.5413C59.8645 59.3561 56.3096 59.8328 56.3096 59.8328C58.9992 60.3121 59.4988 62.1923 59.4988 62.1923C59.3122 62.1675 59.1334 62.1476 58.9591 62.1289C56.8185 60.8229 53.1741 59.518 49.2245 62.1045C42.9812 66.1913 34.4927 68.8902 20.9979 65.0347C7.50309 61.1792 7.61163 48.8379 7.61163 48.8379C6.48736 51.8408 6.81268 54.3299 6.81268 54.3299C3.72207 48.8024 5.37848 42.9003 6.62907 39.8884C7.00714 39.1789 7.33466 38.505 7.61163 37.8666C7.61163 37.8666 12.0704 35.379 11.3423 28.6286C11.3423 28.6286 10.2012 29.0205 9.61023 28.7395C9.61023 28.7395 12.1551 26.8628 13.0804 23.1876C13.0804 23.1876 11.1264 22.9298 10.6636 21.8504C10.6636 21.8504 19.0674 20.2293 22.095 14.8624C22.4342 14.2576 23.3242 14.3273 23.557 14.9797C24.7228 18.2431 27.7857 24.1237 34.9636 25.4994C34.9636 25.4994 30.2736 21.2273 31.0708 15.7938C31.0708 15.7938 36.0306 27.6059 51.7372 29.8825C51.7372 29.8825 46.3405 40.1414 49.5734 48.1921C49.5734 48.1921 50.5418 38.9755 53.6016 34.1727C53.6016 34.1727 53.3116 36.3628 54.8184 37.8184C54.5485 38.4609 54.2258 39.08 53.8537 39.6693C53.8537 39.6693 52.1927 41.591 51.5988 45.3186C51.5234 46.5062 51.5002 47.5454 51.5294 48.4478C51.3582 54.7309 53.0408 55.955 56.5541 55.2938C57.8526 55.0502 58.7852 55.2507 59.4521 55.6191C57.7709 55.4219 56.6373 56.0186 56.6373 56.0186C59.8576 56.5613 61.1552 58.4215 61.6741 59.9302C61.3726 59.0585 60.8115 58.0681 59.7683 57.2834C57.9163 56.9701 56.6385 57.6412 56.6385 57.6412Z" fill="#31241B"/>
</g>
<path d="M4.18158 61.5565C4.41011 61.9485 4.55905 62.1595 4.55905 62.1595C4.55905 62.1595 4.25756 61.2318 4.16952 59.7527C4.13389 60.3536 4.13792 60.9562 4.18158 61.5565Z" fill="white"/>
<g opacity="0.5">
<path opacity="0.5" d="M4.80147 44.5506C6.059 42.6693 6.96378 40.9797 7.61138 39.4882L7.59239 37.9111C6.94629 39.3921 6.04754 41.0675 4.80147 42.9313C2.28883 46.69 1.62223 50.3269 1.77177 53.4075C1.90322 50.7035 2.71665 47.6683 4.80147 44.5506Z" fill="white"/>
</g>
<g opacity="0.3">
<path opacity="0.3" d="M8.9674 29.6785L7.5127 30.6933C7.51873 30.9511 7.52506 31.2091 7.53501 31.473L7.61159 37.8679C9.74947 33.8454 8.9674 29.6785 8.9674 29.6785Z" fill="#31241B"/>
</g>
<path d="M7.56385 37.9754C7.08193 37.9506 6.61157 37.8189 6.18679 37.5899C5.76201 37.361 5.39343 37.0405 5.10771 36.6516C4.82199 36.2627 4.62628 35.8152 4.53473 35.3414C4.44317 34.8676 4.45807 34.3794 4.57835 33.9121C4.69862 33.4448 4.92126 33.01 5.23016 32.6393C5.53906 32.2686 5.92651 31.9711 6.36446 31.7685C6.80241 31.5659 7.27992 31.4631 7.76245 31.4677C8.24498 31.4722 8.72048 31.584 9.15452 31.7948" fill="#FCE4D8"/>
<g opacity="0.6">
<path opacity="0.6" d="M7.72747 32.9414C8.09718 32.941 8.46423 33.0037 8.81285 33.1268L9.15534 31.7963C8.60246 31.5245 7.9837 31.4154 7.37119 31.4818C6.75869 31.5482 6.17768 31.7874 5.6959 32.1714C5.21412 32.5554 4.85142 33.0684 4.65009 33.6507C4.44877 34.233 4.4171 34.8605 4.55879 35.4601C4.72523 34.7443 5.12892 34.1058 5.70421 33.6485C6.27951 33.1913 6.99258 32.942 7.72747 32.9414Z" fill="white"/>
</g>
<path d="M7.53228 38.6112C6.9556 38.5821 6.39261 38.425 5.8841 38.1515C5.37559 37.878 4.93428 37.4947 4.59214 37.0296C4.24999 36.5645 4.01558 36.0291 3.90588 35.4622C3.79618 34.8953 3.81393 34.3111 3.95785 33.7519C4.10178 33.1927 4.36827 32.6725 4.73802 32.229C5.10778 31.7855 5.57154 31.4298 6.09572 31.1876C6.61991 30.9454 7.19139 30.8229 7.76878 30.8288C8.34616 30.8348 8.915 30.969 9.4341 31.2219L8.87513 32.3676C8.52595 32.1978 8.14339 32.1077 7.75513 32.104C7.36687 32.1002 6.98263 32.1828 6.63022 32.3458C6.27781 32.5088 5.96606 32.7481 5.71752 33.0464C5.46898 33.3447 5.28988 33.6946 5.19317 34.0706C5.09647 34.4467 5.08459 34.8395 5.15839 35.2207C5.23219 35.6019 5.38982 35.9619 5.61988 36.2747C5.84993 36.5875 6.14665 36.8452 6.48857 37.0292C6.83048 37.2132 7.20902 37.3189 7.5968 37.3386L7.53228 38.6112Z" fill="#31241B"/>
<path d="M54.3646 39.9934L53.3462 39.3476C55.3867 36.1298 56.1157 31.3228 55.5751 24.6516C54.6758 13.5658 45.1344 5.20537 33.3816 5.20537C28.4634 5.20537 23.8304 6.686 19.9836 9.48656C19.8846 9.5586 19.766 9.59877 19.6435 9.60173C19.6098 9.60173 16.0717 9.74765 12.9637 13.0749C9.44343 16.8436 7.81959 23.0242 8.13737 31.4491L6.9314 31.4946C6.59975 22.7155 8.34238 16.231 12.1095 12.222C15.1748 8.95955 18.5651 8.47837 19.4162 8.40812C23.4429 5.52405 28.2677 4 33.3816 4C45.7685 4 55.8265 12.8364 56.7775 24.554C57.3397 31.4961 56.5507 36.5464 54.3646 39.9934Z" fill="#31241B"/>
<path d="M54.2525 41.4434C54.2524 42.0634 54.1136 42.6756 53.8464 43.2351C53.5792 43.7946 53.1903 44.2872 52.7081 44.677C52.2259 45.0668 51.6627 45.3438 51.0596 45.4879C50.4566 45.6319 49.8289 45.6392 49.2227 45.5094C50.2477 42.2062 51.2213 39.611 51.9885 37.7417C52.6704 38.0902 53.2426 38.6203 53.6421 39.2735C54.0416 39.9268 54.2528 40.6777 54.2525 41.4434Z" fill="#FCE4D8"/>
<g opacity="0.6">
<path opacity="0.6" d="M51.989 37.7417C51.8325 38.1225 51.6673 38.5352 51.4951 38.9763C51.9581 39.32 52.3444 39.7564 52.6295 40.2576C52.9147 40.7587 53.0923 41.3138 53.1512 41.8874C53.2101 42.461 53.149 43.0406 52.9717 43.5892C52.7943 44.1379 52.5048 44.6437 52.1213 45.0743C52.7787 44.7074 53.3242 44.1688 53.6995 43.5161C54.0748 42.8634 54.2658 42.1211 54.2523 41.3683C54.2387 40.6156 54.021 39.8806 53.6223 39.2419C53.2237 38.6032 52.6592 38.0847 51.989 37.7417Z" fill="white"/>
</g>
<path d="M50.0937 46.239C49.7557 46.2391 49.4187 46.2034 49.0882 46.1323C49.0017 46.1137 48.92 46.0772 48.8484 46.0253C48.7767 45.9734 48.7166 45.9071 48.672 45.8307C48.6274 45.7543 48.5991 45.6695 48.5891 45.5815C48.579 45.4936 48.5874 45.4046 48.6137 45.3201C49.4898 42.4984 50.4269 39.867 51.3983 37.4994C51.4317 37.4177 51.4818 37.344 51.5453 37.2827C51.6087 37.2214 51.6842 37.174 51.767 37.1434C51.8497 37.1128 51.9379 37.0997 52.026 37.1049C52.1141 37.1101 52.2001 37.1336 52.2786 37.1737C53.0661 37.5743 53.727 38.1853 54.1879 38.939C54.6489 39.6927 54.8917 40.5594 54.8895 41.4429C54.8895 44.0879 52.7381 46.239 50.0937 46.239ZM50.0636 44.9637C52.0199 44.9875 53.616 43.3959 53.616 41.4429C53.6174 40.9142 53.4991 40.392 53.27 39.9155C53.0409 39.439 52.7069 39.0205 52.2931 38.6915C51.5204 40.6273 50.7727 42.7309 50.062 44.964L50.0636 44.9637Z" fill="#31241B"/>
<path d="M48.8579 49.0086L47.6299 48.6661C47.9537 47.5045 48.285 46.3787 48.6146 45.3196L49.832 45.6986C49.5064 46.7456 49.1783 47.8591 48.8579 49.0086Z" fill="#31241B"/>
<path d="M53.6394 34.1933C53.4283 34.8162 53.2453 35.4481 53.0702 36.0803C52.895 36.7126 52.7328 37.3466 52.5787 37.9839C52.5358 38.1473 52.4304 38.2873 52.2854 38.3739C52.1403 38.4604 51.9671 38.4866 51.8029 38.4469C51.6388 38.4071 51.4967 38.3046 51.4073 38.1613C51.3179 38.0179 51.2883 37.8453 51.3248 37.6803C51.34 37.6182 51.3642 37.5586 51.3966 37.5034L51.3993 37.4997C51.741 36.9281 52.0911 36.3624 52.4497 35.8026C52.8097 35.244 53.1751 34.6904 53.5652 34.1538C53.5712 34.1455 53.5799 34.1396 53.5898 34.1372C53.5998 34.1348 53.6102 34.136 53.6193 34.1407C53.6284 34.1454 53.6355 34.1532 53.6393 34.1627C53.6431 34.1722 53.6433 34.1827 53.64 34.1924L53.6394 34.1933Z" fill="#31241B"/>
<path d="M3.57283 51.5413C4.0308 52.8359 4.54183 54.1016 5.09236 55.3353C5.64831 56.5672 6.25642 57.7756 6.99508 58.9044C8.46012 61.1691 10.3599 63.1206 12.5844 64.646C13.6912 65.4091 14.8885 66.0328 16.1158 66.5794L17.0505 66.9648C17.3649 67.0853 17.6872 67.1857 18.005 67.2964L18.4831 67.4604C18.6444 67.5096 18.8082 67.5508 18.9707 67.5967L19.9469 67.8659C20.2761 67.9419 20.6081 68.0079 20.9385 68.0794C21.2689 68.1508 21.5985 68.2265 21.9352 68.269C22.6055 68.3682 23.2724 68.4879 23.9507 68.5355L24.964 68.6323C25.3032 68.6519 25.6433 68.6625 25.9828 68.6769C26.3223 68.6914 26.6605 68.7071 27.0033 68.7167L28.039 68.7267C30.8003 68.7683 33.5602 68.7246 36.308 68.5723C36.6511 68.5521 36.9954 68.5391 37.3379 68.512L38.3651 68.43C38.707 68.3999 39.0507 68.3806 39.3902 68.3435L40.4122 68.2322C41.0957 68.168 41.7689 68.0574 42.4473 67.9651C42.7874 67.9232 43.1196 67.8505 43.4561 67.7948C43.7904 67.7314 44.1296 67.6838 44.4591 67.6045C45.7917 67.3332 47.0996 66.9822 48.3484 66.5065C48.6659 66.3982 48.961 66.2496 49.2673 66.1209C49.4217 66.0582 49.5646 65.9768 49.712 65.9032C49.8595 65.8296 50.0075 65.7561 50.1504 65.6753C50.7212 65.3535 51.2645 64.985 51.7746 64.5736C52.2871 64.1618 52.7562 63.6921 53.2757 63.2006C53.5398 62.957 53.8111 62.7068 54.1259 62.4791L54.3611 62.3088L54.6158 62.1559C54.782 62.0483 54.9662 61.9687 55.148 61.8864C55.8866 61.5668 56.6696 61.4682 57.4073 61.4532C58.1532 61.4294 58.8672 61.5171 59.5781 61.6039L58.9272 62.3438C58.9239 62.3366 58.9211 62.3291 58.919 62.3215C58.916 62.3106 58.9088 62.2943 58.9034 62.2805C58.8934 62.2521 58.8795 62.222 58.8657 62.1915C58.84 62.1312 58.8054 62.0709 58.7719 62.0106C58.7384 61.9503 58.7017 61.89 58.6588 61.8327C58.6198 61.7731 58.577 61.716 58.5307 61.6618C58.3463 61.4376 58.1322 61.2396 57.8943 61.0733C57.7679 60.9961 57.6479 60.9105 57.5108 60.8475C57.3775 60.7769 57.2399 60.7151 57.0986 60.6623C56.9593 60.602 56.8068 60.5686 56.6618 60.5188C56.511 60.4815 56.3576 60.4513 56.2056 60.4163L56.1673 60.4094C56.032 60.378 55.912 60.3 55.8285 60.189C55.745 60.078 55.7032 59.9411 55.7106 59.8023C55.718 59.6636 55.774 59.5319 55.8688 59.4304C55.9636 59.3288 56.0912 59.264 56.2291 59.2471C56.3986 59.2266 56.5306 59.217 56.6789 59.2098C56.8273 59.2025 56.9666 59.1992 57.1101 59.198C57.3971 59.198 57.6837 59.2103 57.9699 59.2348C58.5499 59.2836 59.1227 59.3962 59.6779 59.5706C60.2378 59.753 60.7886 60.0105 61.2821 60.3726C61.7817 60.7363 62.2041 61.1955 62.5249 61.7236L61.4259 61.995V61.8927L61.4235 61.7721C61.4208 61.691 61.416 61.6081 61.4088 61.5255C61.3946 61.36 61.3741 61.1939 61.3445 61.0287C61.2886 60.6986 61.2033 60.3743 61.0898 60.0594C60.8702 59.4347 60.5274 58.8606 60.0816 58.371C59.861 58.1266 59.6146 57.9066 59.3468 57.715C59.2172 57.6124 59.071 57.5314 58.9329 57.4397C58.7849 57.3625 58.6447 57.2727 58.4894 57.2066C57.8831 56.9178 57.2216 56.7243 56.5378 56.6076H56.5333C56.411 56.587 56.2982 56.5284 56.211 56.4402C56.1238 56.3519 56.0666 56.2385 56.0475 56.1159C56.0283 55.9933 56.0483 55.8678 56.1045 55.7572C56.1607 55.6466 56.2503 55.5564 56.3606 55.4996C56.4016 55.4785 56.4242 55.4694 56.451 55.4553L56.5297 55.4209C56.5816 55.3983 56.6322 55.3781 56.6826 55.3606C56.7839 55.3205 56.884 55.2895 56.9841 55.2563C57.1844 55.1951 57.3879 55.1447 57.5937 55.1055C58.0015 55.0266 58.4163 54.9893 58.8316 54.9943C59.2449 55.0042 59.6595 55.0374 60.0617 55.1266C60.2658 55.1601 60.4615 55.2228 60.6602 55.2747C60.8573 55.332 61.0476 55.4073 61.2411 55.4737L60.4485 56.1526C60.4401 56.1189 60.4117 56.032 60.3882 55.9678C60.3596 55.8991 60.3339 55.8276 60.2996 55.7598C60.2346 55.6221 60.1591 55.4897 60.0737 55.3636C59.9088 55.113 59.7004 54.8938 59.4584 54.7163C59.2275 54.5285 58.948 54.4148 58.6667 54.3096C58.5159 54.2795 58.3709 54.2321 58.2169 54.2101C58.0595 54.199 57.9063 54.17 57.7459 54.1691L57.2614 54.1803L56.7691 54.2472C56.7266 54.2529 56.6895 54.2565 56.6431 54.2644L56.5008 54.2891C56.4058 54.3045 56.3123 54.3232 56.2155 54.3352L55.9267 54.3747L55.6337 54.4049C55.2288 54.4416 54.8212 54.4373 54.4171 54.3919C53.9824 54.3434 53.5599 54.2175 53.1696 54.0202C52.7696 53.8116 52.4198 53.5185 52.1445 53.1612C51.8861 52.8246 51.6786 52.4519 51.5285 52.055C51.2376 51.2917 51.1034 50.5223 51.0241 49.7652C50.8704 48.2487 50.9207 46.7608 51.0076 45.2832C51.0168 45.1263 51.0879 44.9795 51.2053 44.8751C51.3228 44.7707 51.4769 44.7172 51.6338 44.7264C51.7906 44.7356 51.9375 44.8067 52.0419 44.9241C52.1463 45.0416 52.1998 45.1957 52.1906 45.3526V45.358C52.1053 46.7973 52.0607 48.2442 52.2033 49.6392C52.2361 49.9883 52.2937 50.3293 52.3573 50.6643C52.4249 50.9899 52.517 51.31 52.6329 51.6218C52.8678 52.2248 53.2199 52.7162 53.7183 52.9674C54.2154 53.2281 54.8667 53.2776 55.5351 53.2218L55.7877 53.1968L56.0422 53.1618C56.1269 53.1516 56.2128 53.1341 56.2982 53.1202L56.4263 53.0982L56.5719 53.0774L57.1665 52.9978C57.3694 52.9891 57.5744 52.987 57.7782 52.9833C57.9829 52.9854 58.1921 53.0189 58.3987 53.0379C58.6058 53.0681 58.8126 53.1284 59.0185 53.1769C59.4219 53.3201 59.8256 53.4947 60.1684 53.7663C60.258 53.8277 60.3425 53.8963 60.4211 53.9713C60.4995 54.0458 60.5815 54.1176 60.6559 54.1956L60.867 54.4401C60.9357 54.5231 60.9936 54.6132 61.0563 54.7C61.1759 54.8768 61.2817 55.0626 61.3726 55.2557C61.4199 55.3513 61.4579 55.452 61.4986 55.552C61.5402 55.6623 61.5755 55.7749 61.6044 55.8891C61.6296 55.9907 61.6271 56.0971 61.5972 56.1974C61.5673 56.2977 61.5111 56.3881 61.4344 56.4592C61.3577 56.5304 61.2633 56.5797 61.1611 56.602C61.0588 56.6244 60.9525 56.6189 60.8531 56.5862L60.8091 56.5714C60.6472 56.5177 60.488 56.4532 60.3243 56.4059C60.1597 56.3643 59.9975 56.3097 59.8298 56.2835C59.4982 56.2087 59.1599 56.1843 58.8235 56.1749C58.4872 56.171 58.1514 56.2013 57.8213 56.2654C57.658 56.297 57.4964 56.3372 57.3374 56.386C57.2602 56.4119 57.1806 56.4357 57.1074 56.4653C57.0697 56.4791 57.0332 56.4936 56.9988 56.5087L56.9488 56.5307L56.9132 56.5473L56.7359 55.4384C57.5065 55.5686 58.2753 55.7908 59.0022 56.1373C59.1865 56.2171 59.3595 56.3245 59.5377 56.4194C59.7077 56.5298 59.8841 56.6305 60.0454 56.7562C60.3777 56.995 60.6837 57.2684 60.9583 57.5717C61.5091 58.1771 61.9333 58.8864 62.2059 59.6581C62.3427 60.0379 62.4457 60.429 62.5134 60.827C62.5487 61.0254 62.5737 61.2252 62.5906 61.4275C62.5994 61.5285 62.6054 61.6298 62.6087 61.7333L62.612 61.8894C62.612 61.9455 62.612 61.9904 62.6084 62.064C62.6024 62.1897 62.5564 62.3102 62.4771 62.4079C62.3979 62.5057 62.2895 62.5755 62.1677 62.6073C62.0459 62.6391 61.9172 62.6312 61.8003 62.5847C61.6833 62.5382 61.5843 62.4556 61.5176 62.3489L61.5092 62.335C61.2697 61.942 60.9548 61.6003 60.5827 61.3296C60.2088 61.0552 59.775 60.849 59.314 60.6988C58.8427 60.5514 58.3565 60.4563 57.8644 60.4151C57.6154 60.3931 57.3645 60.3823 57.114 60.3832C56.9889 60.3832 56.8635 60.3868 56.7395 60.3934C56.6156 60.4001 56.4836 60.41 56.3862 60.4218L56.4112 59.2514C56.5972 59.2927 56.7839 59.3301 56.9693 59.3768C57.1529 59.4371 57.3395 59.482 57.5198 59.5577C57.7032 59.6267 57.8821 59.7072 58.0553 59.7989C58.2328 59.883 58.3984 59.9955 58.5678 60.1004C58.8989 60.3313 59.1965 60.6067 59.4524 60.9189C59.5174 60.997 59.5782 61.0785 59.6345 61.1631C59.6948 61.2454 59.7463 61.3356 59.7994 61.4239C59.8525 61.5123 59.8998 61.6048 59.9429 61.704C59.9652 61.7522 59.9869 61.8014 60.0068 61.8548C60.0171 61.8816 60.027 61.9048 60.037 61.9356C60.0469 61.9663 60.0551 61.9856 60.0692 62.0366V62.0414C60.0955 62.1331 60.0989 62.2299 60.0791 62.3233C60.0594 62.4167 60.017 62.5038 59.9559 62.5771C59.8947 62.6503 59.8166 62.7075 59.7282 62.7436C59.6399 62.7797 59.544 62.7937 59.4491 62.7843L59.4189 62.7809C58.7535 62.7125 58.0839 62.6441 57.4426 62.6784C56.7992 62.702 56.183 62.802 55.6484 63.0438C55.1106 63.279 54.6403 63.6655 54.1551 64.1331C53.67 64.6007 53.1653 65.1184 52.6013 65.5818C52.0367 66.0474 51.4345 66.4653 50.8007 66.8312C50.6428 66.9216 50.48 67.0024 50.3184 67.0884C50.1568 67.1743 49.9979 67.2626 49.8317 67.3326C49.5001 67.477 49.176 67.6422 48.8368 67.7622C48.501 67.8885 48.1678 68.0293 47.8262 68.1318L47.3167 68.2976L47.0616 68.3806L46.8045 68.4511C46.4614 68.5437 46.1189 68.6404 45.7752 68.7294L44.7383 68.9588C44.3934 69.0417 44.0449 69.0918 43.6985 69.1578C43.3512 69.216 43.005 69.2917 42.6568 69.3354C41.9607 69.4313 41.2654 69.5464 40.5681 69.6128L39.5225 69.7282C39.1743 69.7668 38.8252 69.7885 38.4766 69.8187L37.4305 69.9037C37.0816 69.9308 36.7328 69.9444 36.3843 69.964C33.5943 70.1229 30.8045 70.1708 28.0203 70.1337L26.9759 70.125C26.6256 70.1178 26.2704 70.0948 25.9183 70.081C25.5661 70.0671 25.2122 70.0508 24.8594 70.0288L23.8027 69.9227C23.0969 69.8687 22.3977 69.7418 21.6971 69.633C21.3455 69.5859 20.9994 69.5036 20.6524 69.4285C20.3054 69.3535 19.959 69.2802 19.6119 69.1988L18.5844 68.91C18.4135 68.8608 18.2414 68.8156 18.0719 68.7629L17.5669 68.5874C17.2313 68.4668 16.8919 68.3589 16.5596 68.2301L15.5722 67.8168C15.2406 67.688 14.9261 67.5153 14.6038 67.36C14.2815 67.2047 13.9617 67.0474 13.656 66.8613C13.3478 66.6804 13.0334 66.5098 12.7307 66.3187L11.8361 65.7271C9.48853 64.0829 7.49029 61.9895 5.95704 59.5679C5.7671 59.2664 5.57655 58.9649 5.4056 58.6526L5.1424 58.1877L4.89759 57.7132C4.56984 57.0814 4.28225 56.4296 4.03653 55.7616C3.79295 55.0935 3.5966 54.4091 3.44892 53.7136C3.37516 53.366 3.31757 53.0152 3.27616 52.661C3.25265 52.4853 3.23757 52.3074 3.22642 52.1292C3.21526 51.951 3.20953 51.7744 3.21285 51.5892C3.21349 51.5462 3.22923 51.5049 3.2573 51.4723C3.28537 51.4397 3.324 51.4181 3.36643 51.4111C3.40885 51.4041 3.45237 51.4123 3.48939 51.4342C3.5264 51.456 3.55455 51.4902 3.56891 51.5307L3.57283 51.5413Z" fill="#31241B"/>
<path d="M9.18306 29.8226C9.41943 30.175 9.54275 30.5396 9.62626 30.917C9.64767 31.0108 9.66696 31.1054 9.68414 31.2004C9.70133 31.2954 9.70646 31.3892 9.71761 31.4838L9.74203 31.7693C9.74595 31.8643 9.74595 31.9584 9.74475 32.0527C9.73932 32.2412 9.74475 32.4323 9.72937 32.6198L9.6742 33.1812C9.62807 33.5542 9.54757 33.9193 9.47159 34.285C9.3712 34.6432 9.28045 35.0047 9.1701 35.3586L8.82459 36.412L8.43687 37.4461C8.3009 37.7877 8.14563 38.12 8.00061 38.457C7.85559 38.7941 7.69188 39.1203 7.52697 39.4481L7.28004 39.938C7.19834 40.1017 7.11663 40.2657 7.02347 40.4222C6.65897 41.0553 6.31497 41.6999 5.91157 42.3059L4.76831 44.1118C4.59254 44.4112 4.42943 44.7178 4.25909 45.0202C4.10111 45.329 3.95518 45.6434 3.80203 45.9549C2.66088 48.4793 2.16492 51.2804 2.41999 54.0382C2.48326 54.7279 2.58695 55.4132 2.73052 56.0907C2.87727 56.7687 3.06157 57.4379 3.28256 58.0954C3.50401 58.7531 3.76353 59.3973 4.0598 60.0249C4.20663 60.3388 4.36521 60.6466 4.52983 60.9496C4.61395 61.1003 4.69836 61.2496 4.7867 61.3958C4.87504 61.542 4.96911 61.694 5.05111 61.8125L3.98473 62.3467C3.95729 62.2581 3.93981 62.1945 3.92051 62.1212C3.90122 62.0479 3.88433 61.9801 3.86805 61.9102C3.83338 61.77 3.80775 61.6313 3.7776 61.492C3.72545 61.2134 3.67962 60.9348 3.64676 60.6553C3.57741 60.0967 3.54757 59.5362 3.52827 58.9751C3.50898 58.414 3.50355 57.8472 3.62143 57.2946C3.72545 56.7426 3.92534 56.2008 4.31848 55.7329C4.34435 55.702 4.37804 55.6787 4.41601 55.6654C4.45399 55.6521 4.49485 55.6492 4.53431 55.6571C4.57378 55.665 4.61039 55.6833 4.64032 55.7103C4.67024 55.7372 4.69237 55.7716 4.7044 55.8101L4.70952 55.826C4.80208 56.1194 4.82017 56.388 4.84519 56.6554C4.87021 56.9229 4.85785 57.1797 4.85484 57.4375C4.84308 57.6944 4.83253 57.95 4.81354 58.2051C4.79454 58.4602 4.77344 58.7176 4.76288 58.9724C4.73846 59.4849 4.78489 59.9993 4.84338 60.5067C4.87353 60.7609 4.91483 61.0126 4.96157 61.2622C4.98689 61.3856 5.01101 61.511 5.04086 61.6313C5.05503 61.6916 5.07101 61.7519 5.08578 61.8122C5.10055 61.8725 5.11925 61.9346 5.13131 61.9744L5.13673 61.9922C5.17651 62.1291 5.16646 62.2757 5.10835 62.406C5.05025 62.5362 4.94785 62.6417 4.81936 62.7036C4.69087 62.7655 4.5446 62.7798 4.40653 62.7441C4.26846 62.7083 4.14753 62.6248 4.06523 62.5083C3.94463 62.3319 3.85238 62.1821 3.75258 62.0181C3.65279 61.8541 3.56415 61.6949 3.4731 61.5324C3.29552 61.2056 3.12578 60.8757 2.9687 60.5402C2.65273 59.8709 2.376 59.1839 2.1399 58.4825C1.90393 57.781 1.70725 57.0668 1.55078 56.3434C1.39713 55.618 1.28639 54.8842 1.21914 54.1458C0.943574 51.1879 1.48083 48.1582 2.70339 45.4589C2.86589 45.1273 3.02237 44.7905 3.1912 44.4616C3.3721 44.1393 3.54636 43.8128 3.73389 43.4944L4.89072 41.6658C5.28266 41.0779 5.6143 40.4562 5.96524 39.8466C6.05568 39.6959 6.13347 39.5382 6.21186 39.3811L6.44853 38.9108C6.60681 38.5975 6.76902 38.2855 6.90077 37.9623C7.03252 37.6391 7.18779 37.3234 7.31683 36.9975L7.68344 36.0177C7.79107 35.686 7.88665 35.3544 7.98313 35.02C8.07026 34.6848 8.13538 34.3456 8.21286 34.0094C8.32984 33.3329 8.45979 32.6605 8.53275 31.9867C8.61023 31.3156 8.69796 30.6366 8.79806 29.9435L8.80318 29.9079C8.80906 29.8663 8.82746 29.8274 8.85593 29.7965C8.8844 29.7655 8.9216 29.744 8.96261 29.7347C9.00361 29.7253 9.04648 29.7287 9.08552 29.7443C9.12457 29.7599 9.15796 29.787 9.18126 29.822L9.18306 29.8226Z" fill="#31241B"/>
<path d="M42.1861 65.4602C42.8647 69.9485 43.1723 69.7508 32.4135 69.2892C32.4135 69.2892 30.4662 71.0568 26.8887 69.0106C23.5291 70.2847 19.0037 70.9525 16.58 66.87C16.58 66.87 15.3496 66.0753 15.747 64.9003C18.8825 55.6267 16.126 46.6326 16.126 46.6326C16.126 46.6326 32.923 42.2498 43.3942 51.5674C43.3942 51.5662 41.5062 60.9719 42.1861 65.4602Z" fill="#81AA71"/>
<path d="M30.149 70.6382C29.2515 70.6382 28.1414 70.4075 26.8359 69.7093C21.8803 71.508 18.1761 70.6819 16.1028 67.313C15.5299 66.8828 14.7343 65.9011 15.1422 64.6948C18.1713 55.7351 15.5423 46.9068 15.5155 46.8178C15.4903 46.7356 15.4821 46.6492 15.4912 46.5637C15.5003 46.4783 15.5266 46.3955 15.5685 46.3205C15.6104 46.2454 15.667 46.1796 15.735 46.127C15.803 46.0744 15.8809 46.0361 15.9641 46.0144C16.139 45.9688 20.3092 44.8988 25.8404 44.967C33.2031 45.0592 39.4193 47.1763 43.8172 51.0897C43.9005 51.1638 43.963 51.2585 43.9983 51.3643C44.0336 51.4701 44.0405 51.5834 44.0183 51.6927C43.9996 51.7855 42.1605 61.0389 42.8156 65.3657L42.8759 65.7639C43.1322 67.4336 43.3016 68.5377 42.6197 69.2968C41.6893 70.3343 39.6952 70.2465 33.7787 69.9869L32.6113 69.9363C32.2347 70.1926 31.3978 70.6382 30.149 70.6382ZM26.8884 68.3725C26.9994 68.3724 27.1086 68.4014 27.2049 68.4566C30.3438 70.2517 31.9685 68.8307 31.9845 68.8163C32.1091 68.7037 32.2729 68.6445 32.4407 68.6513L33.8357 68.7116C38.5477 68.9185 41.1439 69.0324 41.6718 68.4439C41.9509 68.1325 41.8108 67.2192 41.6169 65.956L41.5566 65.5547C40.9364 61.4604 42.3534 53.6099 42.6987 51.8039C37.4792 47.3307 30.6821 46.3065 25.8597 46.242C21.7093 46.185 18.2781 46.8118 16.9168 47.1031C17.493 49.3745 19.0646 57.0776 16.3515 65.1022C16.116 65.7989 16.9183 66.3271 16.9265 66.3323C17.0093 66.386 17.0785 66.4583 17.1288 66.5433C19.3257 70.2444 23.5261 69.6028 26.6635 68.4126C26.7358 68.3857 26.8124 68.3721 26.8896 68.3725H26.8884Z" fill="#31241B"/>
<path d="M38.3431 47.6531C38.9609 42.9919 36.014 38.7564 31.7611 38.1927C27.5081 37.629 23.5596 40.9506 22.9418 45.6118C22.3241 50.2729 25.2709 54.5085 29.5239 55.0722C33.7768 55.6358 37.7253 52.3142 38.3431 47.6531Z" fill="#81AA71"/>
<path d="M30.4608 55.5854C30.1272 55.5853 29.7941 55.5633 29.4634 55.5194C24.9712 54.9236 21.8429 50.4519 22.4926 45.5511C23.1423 40.6504 27.3265 37.147 31.8196 37.7425C36.3127 38.3379 39.4401 42.81 38.7904 47.7107L38.3421 47.6504L38.7904 47.7107C38.1892 52.247 34.5602 55.5854 30.4608 55.5854ZM30.8226 38.5812C27.17 38.5812 23.9311 41.5877 23.3902 45.6693C22.8059 50.0759 25.5841 54.0918 29.5831 54.6236C33.5821 55.1555 37.3107 52.0007 37.8947 47.5934C38.4787 43.1871 35.7007 39.1709 31.7017 38.6409C31.41 38.6016 31.116 38.5817 30.8217 38.5812H30.8226Z" fill="#31241B"/>
<path d="M34.9393 49.2501C34.6812 51.1962 32.4288 52.5029 29.9083 52.1688C27.3878 51.8348 25.5532 49.9863 25.8113 48.0402C26.0694 46.0941 28.3218 44.7874 30.8423 45.1215C33.3628 45.4555 35.1974 47.3043 34.9393 49.2501Z" fill="#FCE4D8"/>
<path d="M30.6838 52.858C30.3962 52.8579 30.109 52.8388 29.8239 52.8007C26.9598 52.4209 24.8749 50.2477 25.1788 47.9563C25.4827 45.665 28.0605 44.1105 30.9256 44.4892C33.7907 44.8679 35.8746 47.0422 35.5707 49.3336C35.2978 51.3946 33.1877 52.858 30.6838 52.858ZM30.0528 45.7066C28.1835 45.7066 26.6308 46.7049 26.4427 48.124C26.2316 49.7183 27.8232 51.2492 29.9916 51.5369C32.1599 51.8245 34.0955 50.7608 34.3068 49.1665C34.5182 47.5722 32.9263 46.041 30.758 45.7533C30.5242 45.7223 30.2886 45.7067 30.0528 45.7066Z" fill="#31241B"/>
<g opacity="0.3">
<path opacity="0.3" d="M43.3948 51.5657C41.7999 50.1469 40.0582 49.0471 38.2516 48.1999C38.2866 48.019 38.3182 47.8381 38.3421 47.6521C38.9598 42.991 36.013 38.7553 31.7602 38.1915C27.5073 37.6277 23.5596 40.9493 22.9409 45.6103C22.9382 45.6308 22.9367 45.651 22.9343 45.6706C18.9178 45.9022 16.126 46.6303 16.126 46.6303C16.126 46.6303 18.8822 55.6244 15.747 64.898C15.3496 66.0738 16.58 66.8677 16.58 66.8677C19.0037 70.9508 23.5291 70.283 26.8887 69.0083C30.4662 71.0545 32.4135 69.2869 32.4135 69.2869C43.1723 69.749 42.8647 69.9468 42.1861 65.4579C41.5074 60.969 43.3948 51.5657 43.3948 51.5657ZM37.576 67.7191C33.9517 68.4276 30.0929 67.7191 30.0929 67.7191C30.0929 67.7191 31.4777 66.8083 31.8859 65.4971C31.8859 65.4971 20.7798 70.3553 18.2666 64.649C18.2666 64.649 22.3491 58.9743 21.596 53.4063C21.596 53.4063 23.4185 56.5401 29.0706 57.2015C29.0706 57.2015 25.3975 55.2934 24.1996 51.5657C24.1996 51.5657 28.0503 58.3354 36.0718 52.576C36.0718 52.576 40.4468 58.2405 34.9629 63.2953C34.9629 63.2953 36.0368 63.3857 37.1889 63.1762C38.9019 62.866 40.2912 64.6279 39.5743 66.214C39.2514 66.9292 38.6454 67.5102 37.5763 67.7191H37.576Z" fill="#31241B"/>
</g>
<path d="M47.511 30.3504C47.4809 30.4641 45.63 37.5464 45.4108 45.6584C45.4108 45.6584 43.1731 51.7389 31.5563 49.9857C19.9395 48.2326 15.3963 44.2432 13.6356 39.8498C11.4311 34.3491 13.6477 25.7922 14.1319 24.0746L14.1373 24.0535C14.1596 23.985 14.1795 23.9163 14.1976 23.8448C14.2018 23.8319 14.2057 23.8171 14.2096 23.8041C14.2136 23.7912 14.2175 23.7803 14.2202 23.7682C14.3421 23.3109 14.4228 22.8435 14.4614 22.3717C22.7558 21.1875 22.9749 14.6794 22.9749 14.6794C22.9749 14.6794 23.8104 27.441 39.6966 27.8806L39.7521 27.7802C41.8333 28.9207 44.3863 29.8515 47.511 30.3504Z" fill="#FCE4D8"/>
<g opacity="0.3">
<path opacity="0.3" d="M39.7527 27.7802L39.6972 27.8806C23.811 27.441 22.9755 14.6794 22.9755 14.6794C22.9755 14.6794 22.9231 16.2219 21.9131 17.9413C22.7341 21.3708 25.9645 29.2195 38.3634 29.5626H38.3649C42.666 31.3668 45.217 35.8225 44.6251 40.4489C44.3574 42.544 44.1427 44.8953 44.077 47.3401C44.0376 47.4391 43.9924 47.5356 43.9416 47.6293C45.065 46.5961 45.4108 45.6578 45.4108 45.6578C45.63 37.5458 47.4809 30.4626 47.511 30.3498C44.3863 29.8515 41.8333 28.9207 39.7527 27.7802Z" fill="#31241B"/>
</g>
<g opacity="0.3">
<path opacity="0.3" d="M31.8372 47.1923C20.22 45.4391 15.6772 41.4498 13.9164 37.0564C12.756 34.1603 12.8208 30.4176 13.2131 27.2715C12.62 30.6979 12.2302 35.4419 13.6351 38.9456C15.395 43.3389 19.9387 47.3286 31.5559 49.0815C43.173 50.8343 45.4104 44.7541 45.4104 44.7541C45.4232 44.2717 45.4418 43.7932 45.4661 43.3184C44.6696 44.695 41.494 48.6494 31.8372 47.1923Z" fill="#31241B"/>
</g>
<path d="M46.334 36.1731C46.892 32.7159 47.4932 30.4146 47.5098 30.3504C47.4586 30.3423 47.4088 30.3329 47.3591 30.3245C47.0621 31.6944 46.668 33.7368 46.334 36.1731Z" fill="#31241B"/>
<path d="M23.0581 15.3304C22.9909 14.9185 22.9749 14.6794 22.9749 14.6794C22.9749 14.6794 22.9595 15.1214 22.791 15.795C22.8881 15.6388 22.9771 15.4839 23.0581 15.3304Z" fill="#31241B"/>
<path d="M35.5485 50.9098C34.2768 50.9098 32.9158 50.8005 31.4654 50.5818C25.9179 49.7449 21.7018 48.3827 18.5778 46.4185C15.9141 44.7437 14.1157 42.6685 13.0752 40.0742C10.7981 34.3929 13.0626 25.6445 13.5483 23.9205L13.551 23.9094C13.5546 23.8946 13.5588 23.8792 13.5634 23.866C13.582 23.8096 13.598 23.7529 13.6134 23.6941C13.6158 23.6851 13.6182 23.676 13.6209 23.667L13.6306 23.6338L13.6363 23.6154C13.6362 23.6141 13.6362 23.6128 13.6363 23.6115C13.7487 23.1888 13.8232 22.757 13.8591 22.3211C13.8706 22.1851 13.9278 22.0571 14.0214 21.9579C14.1151 21.8586 14.2396 21.7941 14.3747 21.7748C22.0416 20.6801 22.3612 14.9026 22.3709 14.6572C22.3768 14.5027 22.4418 14.3564 22.5525 14.2485C22.6632 14.1406 22.8111 14.0794 22.9657 14.0774H22.9735C23.1267 14.077 23.2743 14.135 23.3862 14.2395C23.4982 14.344 23.5663 14.4872 23.5765 14.64C23.5786 14.6701 23.8117 17.7487 25.9095 20.8233C28.6696 24.8696 33.2186 27.0374 39.4326 27.2689C39.5235 27.2121 39.6279 27.1805 39.7351 27.1774C39.8422 27.1743 39.9482 27.1999 40.0422 27.2514C42.2552 28.4646 44.7998 29.307 47.6058 29.7538C47.6891 29.7671 47.7687 29.7978 47.8395 29.8438C47.9102 29.8898 47.9705 29.9501 48.0165 30.0209C48.0624 30.0917 48.093 30.1714 48.1063 30.2547C48.1195 30.3381 48.1151 30.4233 48.0933 30.5048C48.0746 30.5745 46.2319 37.5691 46.013 45.6738C46.0114 45.7393 45.9989 45.8041 45.9762 45.8656C45.9506 45.9355 45.3226 47.5904 43.1669 48.9848C41.1861 50.2668 38.6334 50.9098 35.5485 50.9098ZM14.7169 24.2187C14.7154 24.225 14.7135 24.2317 14.7117 24.238C14.2508 25.8727 12.0586 34.2958 14.195 39.6256C16.24 44.7317 21.9476 47.9275 31.6454 49.3894C37.3948 50.2574 40.6838 49.1265 42.4307 48.0252C44.0358 47.013 44.6644 45.839 44.8106 45.5264C45.0063 38.7518 46.3106 32.7555 46.7703 30.8353C44.211 30.3667 41.8636 29.5756 39.7787 28.4782C39.7465 28.4826 39.7139 28.4843 39.6813 28.4833C31.2194 28.2491 26.962 24.531 24.8805 21.4528C24.0222 20.1789 23.3576 18.7847 22.9084 17.3157C22.7455 17.689 22.5567 18.0505 22.3434 18.3975C21.3183 20.0668 19.2169 22.1716 15.0111 22.8958C14.9638 23.2403 14.8951 23.5815 14.8055 23.9175C14.8001 23.9392 14.7937 23.9609 14.7868 23.9826L14.7805 24.0037C14.76 24.0767 14.7395 24.1478 14.7169 24.2187ZM13.6348 23.6214L13.6306 23.6395C13.6318 23.6335 13.6333 23.6272 13.6348 23.6214Z" fill="#31241B"/>
<path d="M14.1369 24.6912C14.0797 24.691 14.0229 24.6833 13.9677 24.6682C13.887 24.6461 13.8114 24.6082 13.7453 24.5568C13.6792 24.5054 13.6238 24.4415 13.5824 24.3687C13.541 24.2959 13.5144 24.2156 13.504 24.1325C13.4936 24.0494 13.4996 23.9651 13.5218 23.8844C13.549 23.7855 13.5719 23.7095 13.5879 23.6579C13.6124 23.5779 13.6524 23.5035 13.7057 23.4389C13.759 23.3744 13.8245 23.3209 13.8984 23.2817C13.9724 23.2424 14.0533 23.2181 14.1366 23.2102C14.22 23.2022 14.3041 23.2107 14.3841 23.2353C14.4641 23.2598 14.5386 23.2998 14.6031 23.3531C14.6677 23.4064 14.7211 23.4719 14.7604 23.5458C14.7996 23.6198 14.8239 23.7007 14.8319 23.784C14.8398 23.8674 14.8313 23.9515 14.8068 24.0315C14.7935 24.0749 14.7742 24.1388 14.7513 24.222C14.7144 24.3567 14.6343 24.4756 14.5233 24.5603C14.4123 24.6451 14.2765 24.691 14.1369 24.6912Z" fill="#31241B"/>
<path d="M47.5104 30.9872C47.4267 30.9873 47.3439 30.9709 47.2665 30.9389C47.1892 30.907 47.119 30.8601 47.0598 30.801C47.0006 30.7418 46.9536 30.6716 46.9216 30.5943C46.8895 30.517 46.873 30.4342 46.873 30.3505C46.8731 30.2244 46.9106 30.1011 46.9807 29.9963C47.0508 29.8914 47.1504 29.8098 47.267 29.7616C47.3835 29.7134 47.5117 29.7008 47.6354 29.7254C47.7591 29.7501 47.8727 29.8109 47.9618 29.9001C48.0509 29.9893 48.1116 30.103 48.1362 30.2267C48.1607 30.3504 48.148 30.4786 48.0997 30.5951C48.0514 30.7116 47.9696 30.8111 47.8647 30.8812C47.7598 30.9512 47.6365 30.9885 47.5104 30.9885V30.9872Z" fill="#31241B"/>
<path d="M16.9038 49.5277L13.3384 50.7409C13.3384 50.7409 10.1399 49.339 10.4525 46.2444L11.0805 42.0799L8.86063 40.0138C8.69732 39.8643 8.5974 39.6581 8.58138 39.4373C8.56535 39.2165 8.63444 38.9979 8.77446 38.8265C8.91449 38.655 9.11482 38.5437 9.33436 38.5152C9.55389 38.4868 9.77598 38.5435 9.95504 38.6737L12.7695 40.7238C12.836 40.7722 12.9156 40.7993 12.9979 40.8015C13.0801 40.8037 13.1611 40.781 13.2301 40.7362C13.2992 40.6915 13.353 40.6269 13.3846 40.551C13.4162 40.475 13.4241 40.3913 13.4071 40.3108L12.7526 37.2452C12.7068 37.0297 12.7447 36.8048 12.8587 36.6162C12.9728 36.4277 13.1543 36.2896 13.3664 36.2301L13.3797 36.2276C13.5817 36.1709 13.7974 36.1893 13.9867 36.2796C14.1761 36.3699 14.3263 36.5258 14.4093 36.7185L16.58 41.7694C16.8741 41.7145 17.1781 41.7673 17.4363 41.9181C17.6946 42.069 17.8899 42.3079 17.9865 42.591C18.7613 44.9019 18.4182 47.6259 16.9038 49.5277Z" fill="#FCE4D8"/>
<g opacity="0.3">
<path opacity="0.3" d="M11.4402 45.998C11.4434 45.935 11.4484 45.8713 11.4553 45.8068L12.083 41.6423L9.86308 39.5762C9.72248 39.4481 9.62822 39.2772 9.595 39.0899C9.56179 38.9027 9.59149 38.7097 9.67946 38.5411C9.4919 38.4884 9.29203 38.5004 9.11216 38.5753C8.93229 38.6502 8.78294 38.7836 8.68824 38.9538C8.59355 39.1241 8.55905 39.3214 8.59033 39.5137C8.62161 39.706 8.71684 39.8821 8.86061 40.0136L11.0805 42.0801L10.4528 46.2446C10.1398 49.3391 13.3384 50.741 13.3384 50.741L16.9041 49.5278C16.9373 49.4859 16.9671 49.4416 16.9994 49.3988C16.9994 49.3988 11.2952 48.5823 11.4402 45.998Z" fill="#31241B"/>
</g>
<path d="M13.3382 51.2687C13.2656 51.2686 13.1937 51.2535 13.1272 51.2244C12.9822 51.1608 9.58071 49.6286 9.92803 46.1916C9.92803 46.1832 9.93015 46.1744 9.93135 46.166L10.5178 42.2767L8.50137 40.4002C8.23968 40.1592 8.08004 39.8272 8.05517 39.4723C8.0303 39.1174 8.14206 38.7664 8.36758 38.4912C8.5931 38.216 8.91529 38.0374 9.26818 37.9921C9.62107 37.9467 9.97794 38.038 10.2657 38.2473L12.8254 40.1105L12.2378 37.3555C12.1648 37.0089 12.2261 36.6476 12.4092 36.3445C12.5924 36.0414 12.8838 35.8191 13.2246 35.7226C13.2369 35.719 13.2496 35.7159 13.2622 35.7135C13.5847 35.6298 13.9264 35.6641 14.2258 35.8101C14.5252 35.9562 14.7626 36.2044 14.8951 36.5101L16.9209 41.2242C17.2712 41.2466 17.6071 41.3725 17.8859 41.586C18.1646 41.7995 18.3738 42.0908 18.4868 42.4232C19.3418 44.973 18.8824 47.8911 17.3167 49.8568C17.2538 49.9357 17.1695 49.9949 17.074 50.0275L13.5086 51.2404C13.4537 51.2592 13.3962 51.2688 13.3382 51.2687ZM10.9763 46.3101C10.7532 48.5903 12.763 49.8439 13.3762 50.171L16.5838 49.0796C17.8573 47.3885 18.2118 44.9262 17.4862 42.7585C17.4303 42.5961 17.3179 42.4593 17.1695 42.3729C17.0211 42.2866 16.8466 42.2565 16.6778 42.2882C16.56 42.3103 16.4381 42.2917 16.3323 42.2353C16.2265 42.1789 16.143 42.0881 16.0957 41.9779L13.9249 36.927C13.8922 36.8521 13.8336 36.7915 13.7599 36.7564C13.6861 36.7212 13.6021 36.7138 13.5233 36.7356L13.4947 36.7431C13.4156 36.7695 13.349 36.824 13.3074 36.8962C13.2659 36.9685 13.2523 37.0535 13.2692 37.1351L13.9225 40.1988C13.9616 40.3836 13.9438 40.5759 13.8714 40.7504C13.799 40.9248 13.6755 41.0733 13.5171 41.1762C13.3587 41.279 13.1728 41.3315 12.984 41.3266C12.7952 41.3217 12.6123 41.2597 12.4594 41.1488L9.64403 39.0987C9.59346 39.062 9.53371 39.0399 9.4714 39.0351C9.40909 39.0302 9.34665 39.0427 9.29099 39.0711C9.23534 39.0996 9.18864 39.1428 9.15607 39.1962C9.1235 39.2495 9.10633 39.3108 9.10646 39.3733C9.10649 39.4202 9.11627 39.4666 9.13516 39.5095C9.15405 39.5525 9.18165 39.591 9.21621 39.6227L11.4394 41.6921C11.5023 41.7505 11.5499 41.8233 11.5782 41.9043C11.6065 41.9853 11.6145 42.0719 11.6016 42.1567L10.9763 46.3101Z" fill="#31241B"/>
<path d="M14.9247 46.5758C14.6835 45.5977 14.8895 44.4728 15.5645 43.5859L16.2398 44.3872C15.9509 44.5784 15.6121 44.6803 15.2657 44.6803C14.9193 44.6803 14.5805 44.5784 14.2916 44.3872C14.0074 44.1954 13.7824 43.9279 13.6422 43.6149C13.502 43.302 13.4521 42.9561 13.4981 42.6163C13.5097 42.5358 13.5399 42.4592 13.5861 42.3924C13.6323 42.3256 13.6934 42.2705 13.7646 42.2312H13.7679C14.6158 41.7655 15.5313 41.4355 16.4813 41.2532C16.5494 41.2404 16.6194 41.2412 16.6872 41.2554C16.755 41.2697 16.8193 41.2971 16.8765 41.3362C16.9337 41.3753 16.9827 41.4253 17.0205 41.4834C17.0584 41.5414 17.0845 41.6063 17.0973 41.6744C17.1101 41.7425 17.1093 41.8124 17.0951 41.8802C17.0808 41.9481 17.0534 42.0124 17.0143 42.0696C16.9751 42.1268 16.9252 42.1757 16.8671 42.2136C16.8091 42.2515 16.7442 42.2776 16.6761 42.2903C15.8341 42.4522 15.0227 42.745 14.2714 43.158L14.5409 42.7712C14.5225 42.9124 14.5445 43.0559 14.6042 43.1852C14.6616 43.316 14.7546 43.4281 14.8726 43.5087C14.9889 43.5854 15.1252 43.6263 15.2645 43.6263C15.4038 43.6263 15.5401 43.5854 15.6564 43.5087L15.6977 43.4803C15.8083 43.406 15.9431 43.3768 16.0745 43.3985C16.2059 43.4202 16.3241 43.4912 16.4049 43.5971C16.4857 43.703 16.5231 43.8358 16.5093 43.9683C16.4955 44.1008 16.4317 44.223 16.3309 44.31C15.7149 44.7973 15.2928 45.6366 15.2983 46.5278V46.5305C15.2987 46.5773 15.282 46.6226 15.2512 46.6578C15.2205 46.693 15.1778 46.7157 15.1314 46.7215C15.085 46.7273 15.0381 46.7159 14.9996 46.6893C14.9611 46.6628 14.9337 46.623 14.9226 46.5776L14.9247 46.5758Z" fill="#31241B"/>
<path d="M23.1395 56.7704C22.8962 55.9371 22.5064 55.1345 22.2067 54.2981C21.6697 52.794 21.1566 51.2567 20.8832 49.6853L12.2324 53.0557C12.2324 53.0557 13.1068 58.0496 13.512 59.1832C13.9871 61.3651 15.9893 63.0037 18.388 63.0037C20.9109 63.0037 23.0373 61.1294 23.3361 58.7183C23.4208 58.0342 23.3216 57.3942 23.1395 56.7704Z" fill="#81AA71"/>
<g opacity="0.3">
<path opacity="0.3" d="M22.0012 61.1955C19.6025 61.1955 17.5994 59.5569 17.1251 57.375C16.8179 56.5167 16.2426 53.4478 15.9812 52.0063L13.2871 53.0561C13.2871 53.0561 14.1614 58.0501 14.5666 59.1837C15.0418 61.3656 17.044 63.0042 19.4427 63.0042C20.2285 63.0043 21.0033 62.8204 21.7053 62.4673C22.4073 62.1143 23.0169 61.6018 23.4854 60.9709C23.0047 61.1197 22.5044 61.1954 22.0012 61.1955Z" fill="#31241B"/>
</g>
<path d="M18.3874 63.5316C15.8093 63.5316 13.5505 61.7658 13.003 59.3282C12.5828 58.1099 11.7476 53.3505 11.712 53.1476C11.691 53.0275 11.7121 52.9039 11.7719 52.7976C11.8317 52.6914 11.9265 52.6091 12.0401 52.5648L20.6911 49.1935C20.7639 49.1653 20.8421 49.1535 20.9201 49.1591C20.998 49.1647 21.0737 49.1875 21.1418 49.2258C21.2099 49.2642 21.2686 49.3172 21.3137 49.381C21.3588 49.4448 21.3891 49.5179 21.4026 49.5948C21.6791 51.1858 22.2188 52.7659 22.703 54.1217C22.8178 54.4437 22.9514 54.7709 23.0804 55.0865C23.2824 55.5819 23.4914 56.0941 23.6454 56.6211C23.8761 57.411 23.9439 58.0984 23.8592 58.7822C23.5236 61.4902 21.1714 63.5316 18.3874 63.5316ZM12.8267 53.3903C13.149 55.1963 13.723 58.2091 14.0082 59.0053C14.016 59.0269 14.0222 59.0489 14.0269 59.0713C14.4565 61.0443 16.2905 62.4764 18.3874 62.4764C20.6398 62.4764 22.542 60.833 22.8118 58.6535C22.8784 58.1168 22.8214 57.5651 22.6309 56.9181C22.4922 56.4432 22.3026 55.9783 22.1018 55.4863C21.9685 55.1592 21.8304 54.8209 21.7077 54.4769C21.2718 53.2562 20.7918 51.8566 20.4834 50.4067L12.8267 53.3903Z" fill="#31241B"/>
<path d="M13.6352 54.5361C13.6125 54.5165 13.6165 54.4625 13.64 54.3853C13.6544 54.3411 13.6712 54.2977 13.6903 54.2554C13.7057 54.2035 13.7235 54.1456 13.7452 54.0844C13.8463 53.7613 13.8955 53.4241 13.8908 53.0856C13.8791 52.2788 13.6846 51.6104 13.8004 51.5649C13.8559 51.5407 13.978 51.6855 14.0958 51.955C14.2462 52.3124 14.3256 52.6957 14.3295 53.0835C14.3355 53.5445 14.1974 53.969 14.0232 54.2222C13.9783 54.2852 13.937 54.3407 13.8978 54.3865C13.8596 54.4227 13.8194 54.4565 13.7772 54.4878C13.706 54.5397 13.6569 54.556 13.6352 54.5361Z" fill="#31241B"/>
<path d="M18.3382 52.4404C18.3382 52.4706 18.2598 52.4911 18.1085 52.5031C18.0168 52.5019 17.9252 52.4936 17.8347 52.4784C17.7823 52.4667 17.7274 52.4483 17.6683 52.432C17.6058 52.4148 17.5452 52.3914 17.4874 52.362C17.2372 52.2514 16.9686 52.0572 16.7274 51.7943C16.4641 51.5074 16.2489 51.1798 16.0903 50.8241C16.0682 50.7715 16.0675 50.7123 16.0885 50.6591C16.1094 50.606 16.1503 50.5632 16.2024 50.5397C16.2545 50.5163 16.3137 50.5142 16.3673 50.5338C16.4209 50.5534 16.4648 50.5932 16.4895 50.6447L16.4913 50.649L16.4937 50.6547C16.5178 50.7123 16.5362 50.7614 16.554 50.8151C16.8371 51.621 16.866 52.4377 16.668 52.9858C16.6485 53.0513 16.6231 53.1149 16.592 53.1758C16.5676 53.2314 16.5401 53.2857 16.5097 53.3383C16.4437 53.4323 16.3936 53.5152 16.3363 53.5713C16.2209 53.6835 16.1491 53.7314 16.1253 53.7115C16.0668 53.6639 16.2836 53.4031 16.3665 52.9065C16.4666 52.4187 16.3966 51.6988 16.1391 50.9622C16.1229 50.9158 16.1045 50.8663 16.0885 50.8274L16.4919 50.6577C16.6312 50.9717 16.8103 51.2666 17.0246 51.535C17.1943 51.7532 17.3979 51.9427 17.6276 52.0964C18.0214 52.3593 18.3425 52.3663 18.3382 52.4404Z" fill="#31241B"/>
<path d="M10.7982 50.6899C13.8903 48.8502 17.0881 47.5419 20.3917 46.7651C20.7444 46.6827 21.1129 46.8784 21.2208 47.2239C21.2718 47.3876 21.288 47.599 21.2362 47.8706C21.2145 47.9872 21.2227 48.1074 21.26 48.22C21.2974 48.3325 21.3626 48.4338 21.4496 48.5143C21.6652 48.7154 21.7587 49.0872 20.8828 49.6859C20.8406 49.7145 20.7954 49.7384 20.7481 49.7574L12.2321 53.1736C12.145 53.21 12.0514 53.2281 11.957 53.2266C11.8626 53.225 11.7696 53.204 11.6837 53.1648C11.501 53.0777 11.3159 52.9019 11.3119 52.5468C11.3089 52.2721 11.1654 52.0158 10.9173 51.8986C10.6876 51.7897 10.4608 51.6025 10.4524 51.2865C10.4455 51.0408 10.5878 50.815 10.7982 50.6899Z" fill="white"/>
<g opacity="0.3">
<path opacity="0.3" d="M15.2528 50.7061C15.0701 50.619 14.8847 50.4429 14.8808 50.0878C14.8778 49.8134 14.7346 49.5571 14.4864 49.4395C14.3285 49.3651 14.1738 49.2517 14.0885 49.0868C13.3886 49.4444 12.6939 49.8279 12.0043 50.2373C11.7932 50.3624 11.6515 50.5882 11.6584 50.8327C11.6669 51.1487 11.8936 51.3359 12.1233 51.4445C12.3715 51.562 12.5153 51.8183 12.518 52.093C12.5219 52.4478 12.707 52.6239 12.8897 52.711C13.0016 52.7624 13.1257 52.781 13.2476 52.7647L20.7481 49.757C20.7956 49.7382 20.8408 49.7142 20.8829 49.6856C21.7572 49.0862 21.6653 48.7151 21.4497 48.514C21.4337 48.4992 21.4196 48.4838 21.4057 48.4675L15.801 50.7149C15.7139 50.7513 15.6203 50.7693 15.526 50.7678C15.4317 50.7663 15.3387 50.7453 15.2528 50.7061Z" fill="#31241B"/>
</g>
<path d="M11.9617 53.7527C11.7869 53.7532 11.6142 53.7147 11.4561 53.6399C11.0341 53.4385 10.7892 53.0418 10.7838 52.5512C10.7838 52.4909 10.7585 52.4059 10.691 52.374C10.2086 52.146 9.93722 51.7643 9.92426 51.3C9.9125 50.8722 10.1437 50.4649 10.5272 50.2364C13.6709 48.3671 16.949 47.0252 20.2709 46.2512C20.8971 46.1041 21.535 46.4623 21.7232 47.0653C21.8067 47.3327 21.8166 47.6363 21.7533 47.9679C21.7485 47.9968 21.7509 48.0265 21.7605 48.0542C21.77 48.0819 21.7863 48.1067 21.8079 48.1265C22.0304 48.3343 22.1413 48.6047 22.1199 48.8887C22.088 49.3108 21.7883 49.7027 21.1799 50.1197C21.1061 50.17 21.027 50.2122 20.9441 50.2454L12.4272 53.6607C12.2793 53.7206 12.1213 53.7518 11.9617 53.7527ZM20.5543 47.2739C20.5401 47.2739 20.5259 47.2755 20.5121 47.2787C17.2961 48.0282 14.1204 49.3289 11.0687 51.1433C11.0166 51.1734 10.9783 51.2277 10.9807 51.2705C10.9825 51.3308 11.0711 51.3851 11.1441 51.4212C11.5683 51.622 11.8348 52.0511 11.8405 52.5407C11.8405 52.6546 11.8728 52.6697 11.9123 52.6884C11.9528 52.7033 11.9976 52.7015 12.0368 52.6836L20.5528 49.2686C20.5644 49.2641 20.5755 49.2583 20.5859 49.2514C20.8721 49.0554 20.9921 48.9198 21.0406 48.8516C20.9045 48.7107 20.8042 48.5392 20.7482 48.3515C20.6923 48.1637 20.6822 47.9653 20.7189 47.7729C20.749 47.6152 20.749 47.4801 20.7189 47.3809C20.706 47.3479 20.6831 47.3198 20.6533 47.3006C20.6235 47.2814 20.5885 47.2721 20.5531 47.2739H20.5543Z" fill="#31241B"/>
<path d="M10.573 46.1811L10.4825 46.151L9.69563 45.9013C9.25606 45.7614 8.95517 45.3403 8.99587 44.8796L8.99858 44.8494C9.06461 44.2356 9.67332 43.8301 10.2688 43.9965L10.5829 44.0848L11.1624 44.2461C11.3372 44.2952 11.4961 44.3894 11.6231 44.5193C11.7795 44.6749 11.8778 44.8794 11.9017 45.0988L11.9041 45.1226C11.971 45.8471 11.2661 46.4003 10.573 46.1811Z" fill="#FCE4D8"/>
<path d="M10.8836 46.7571C10.7242 46.757 10.5656 46.7325 10.4136 46.6844L9.53626 46.4058C8.85669 46.1896 8.40897 45.5288 8.47048 44.8344L8.47319 44.8043C8.49641 44.5825 8.56777 44.3685 8.6823 44.1771C8.79683 43.9858 8.95176 43.8217 9.13627 43.6965C9.32078 43.5713 9.5304 43.4878 9.75051 43.452C9.97062 43.4162 10.1959 43.4289 10.4106 43.4892L11.3036 43.7388C11.5689 43.8129 11.8099 43.9559 12.0022 44.1531C12.24 44.3937 12.3895 44.7077 12.4264 45.044L12.4288 45.0654C12.4534 45.3189 12.4146 45.5746 12.3158 45.8094C12.217 46.0442 12.0614 46.2507 11.8629 46.4103C11.5858 46.6346 11.2401 46.757 10.8836 46.7571ZM10.7329 45.6783C10.8122 45.7037 10.8965 45.7087 10.9782 45.6929C11.06 45.6771 11.1364 45.6409 11.2005 45.5879C11.2628 45.539 11.3118 45.4752 11.343 45.4024C11.3742 45.3295 11.3866 45.2501 11.379 45.1712L11.3772 45.1567C11.3662 45.0558 11.3207 44.9618 11.2484 44.8905C11.1855 44.8251 11.1061 44.7779 11.0187 44.7536L10.1257 44.5043C10.0584 44.4858 9.98788 44.482 9.91902 44.4934C9.85015 44.5047 9.78457 44.5309 9.7268 44.57C9.67025 44.6075 9.62268 44.657 9.5875 44.715C9.55232 44.773 9.53039 44.8381 9.52329 44.9056V44.9255C9.5049 45.1323 9.64389 45.331 9.85734 45.3985L10.7329 45.6783Z" fill="#31241B"/>
<path d="M12.5711 43.6642L12.5669 43.6878C12.5357 43.8527 12.4646 44.0076 12.3596 44.1386C12.2546 44.2696 12.119 44.3728 11.9648 44.4392C11.8106 44.5056 11.6424 44.533 11.4751 44.5192C11.3077 44.5053 11.1464 44.4506 11.0052 44.3598L10.5804 44.0863L10.2318 43.8608C9.84351 43.6112 9.66412 43.1255 9.82391 42.6922L9.83416 42.6636C9.92599 42.4312 10.1014 42.2415 10.3259 42.1317C10.5504 42.022 10.8079 42.0002 11.0477 42.0706C11.1305 42.0938 11.2099 42.1279 11.2837 42.1722L12.08 42.6473C12.4336 42.8574 12.6368 43.2587 12.5711 43.6642Z" fill="#FCE4D8"/>
<path d="M11.5536 45.0505C11.258 45.05 10.9688 44.964 10.7209 44.803L9.94603 44.3031C9.34817 43.919 9.08828 43.1641 9.33008 42.5092L9.33972 42.4824C9.47627 42.1232 9.74351 41.829 10.0879 41.6586C10.4323 41.4883 10.8283 41.4544 11.1966 41.5637C11.3226 41.5992 11.4432 41.6513 11.5554 41.7187L12.3513 42.1941C12.8919 42.5158 13.1901 43.1399 13.093 43.7468C13.0932 43.7482 13.0932 43.7497 13.093 43.7511L13.0891 43.7749C13.0293 44.1185 12.8545 44.4316 12.5934 44.6628C12.3322 44.894 12.0002 45.0296 11.6519 45.0472C11.6187 45.0493 11.5861 45.0505 11.5536 45.0505ZM10.7697 42.5593C10.6747 42.5583 10.5816 42.586 10.5026 42.6387C10.4236 42.6915 10.3623 42.7669 10.3268 42.855L10.3205 42.8728C10.2481 43.0688 10.3313 43.2967 10.518 43.4155L11.2916 43.9148C11.3793 43.9721 11.4831 43.9995 11.5877 43.9929C11.7797 43.9823 12.0028 43.8533 12.0483 43.5952L12.051 43.5783C12.0812 43.3944 11.9832 43.2023 11.8099 43.0995L11.0133 42.6241C10.9805 42.6042 10.9453 42.5888 10.9084 42.5782C10.8633 42.5661 10.8167 42.5603 10.77 42.5608L10.7697 42.5593Z" fill="#31241B"/>
<path d="M46.1382 59.9458L46.3101 54.8349L39.0945 51.8501C39.0945 51.8501 35.3771 54.5102 35.4283 59.322C35.4232 59.4341 35.4259 59.5464 35.4364 59.6582V59.6753C35.6152 61.4541 37.7344 63.0101 40.4533 63.2601C43.4079 63.5314 45.9477 62.1596 46.1283 60.1951C46.1359 60.1122 46.1392 60.029 46.1382 59.9458Z" fill="#81AA71"/>
<path d="M41.185 63.8226C40.9293 63.8226 40.67 63.8106 40.4068 63.7867C37.4522 63.5154 35.153 61.8294 34.9197 59.7702C34.9147 59.7432 34.9119 59.7158 34.9112 59.6882C34.9006 59.5639 34.8978 59.4391 34.9028 59.3144C34.8567 54.2945 38.6286 51.5374 38.7893 51.4222C38.8622 51.3701 38.9471 51.3374 39.0361 51.3272C39.1251 51.317 39.2152 51.3295 39.298 51.3637L46.5136 54.3485C46.6129 54.3894 46.6973 54.4597 46.7556 54.55C46.8138 54.6402 46.8431 54.7461 46.8395 54.8535L46.6679 59.953C46.6694 60.0507 46.6659 60.1484 46.6574 60.2457C46.4653 62.3133 44.083 63.8226 41.185 63.8226ZM35.9629 59.6168C35.963 59.6191 35.963 59.6214 35.9629 59.6237C36.1163 61.149 38.1104 62.5159 40.503 62.736C43.1161 62.9772 45.4532 61.7915 45.6043 60.148C45.6099 60.083 45.612 60.0176 45.6106 59.9523C45.6106 59.9445 45.6106 59.9364 45.6106 59.9282L45.7701 55.183L39.1801 52.4578C38.4128 53.1076 35.9152 55.5177 35.9556 59.3177C35.9556 59.3277 35.9556 59.3376 35.9556 59.3479C35.9517 59.4354 35.9538 59.5232 35.9619 59.6105C35.9626 59.6123 35.9626 59.6144 35.9629 59.6168Z" fill="#31241B"/>
<path d="M41.8658 52.0153L45.3053 53.5499C45.3053 53.5499 48.619 52.447 48.5915 49.3368L48.3479 45.1322L50.7478 43.278C50.9249 43.1445 51.0439 42.9481 51.0805 42.7294C51.1171 42.5107 51.0684 42.2863 50.9445 42.1024C50.8205 41.9185 50.6308 41.7891 50.4143 41.741C50.1978 41.6928 49.9711 41.7295 49.7809 41.8435L46.7913 43.626C46.7206 43.668 46.6389 43.6876 46.5568 43.6823C46.4748 43.6769 46.3963 43.6468 46.3316 43.596C46.267 43.5451 46.2193 43.4759 46.1948 43.3974C46.1703 43.3189 46.1701 43.2348 46.1944 43.1562L47.1257 40.1648C47.1912 39.9544 47.174 39.727 47.0777 39.5287C46.9815 39.3305 46.8133 39.1764 46.6074 39.0978L46.5944 39.0939C46.3985 39.0189 46.182 39.0175 45.9851 39.0901C45.7883 39.1627 45.6244 39.3043 45.5241 39.4886L42.9012 44.3191C42.6135 44.2377 42.3062 44.2625 42.0354 44.389C41.7645 44.5155 41.5482 44.7352 41.426 45.008C40.4401 47.2387 40.5323 49.9835 41.8658 52.0153Z" fill="#FCE4D8"/>
<path d="M46.0928 39.8951L45.1615 42.8862C45.1366 42.9649 45.1363 43.0493 45.1605 43.1281C45.1848 43.207 45.2326 43.2766 45.2974 43.3276C45.3623 43.3787 45.4412 43.4087 45.5235 43.4138C45.6059 43.4188 45.6879 43.3986 45.7585 43.3559L46.2155 43.0846L47.1242 40.1658C47.1897 39.9554 47.1726 39.728 47.0763 39.5297C46.98 39.3315 46.8118 39.1774 46.606 39.0988L46.593 39.0949C46.3846 39.0156 46.1536 39.0202 45.9484 39.1076C46.0342 39.2175 46.0921 39.3465 46.1173 39.4836C46.1424 39.6207 46.134 39.7619 46.0928 39.8951Z" fill="#FCE4D8"/>
<g opacity="0.6">
<path opacity="0.6" d="M50.9912 42.1886C50.89 41.9944 50.719 41.8458 50.5127 41.7725C50.3064 41.6992 50.08 41.7066 49.879 41.7933C49.9094 41.8326 49.9365 41.8745 49.9598 41.9184C50.0539 42.0998 50.081 42.3086 50.0362 42.508C49.9914 42.7074 49.8776 42.8846 49.715 43.0083L47.3275 45.0744L47.5587 49.0671C47.5822 51.6798 45.2484 52.8759 44.501 53.1915L45.3048 53.55C45.3048 53.55 48.6182 52.4471 48.591 49.3369L48.3474 45.1323L50.7473 43.2782C50.9099 43.1545 51.0237 42.9774 51.0685 42.778C51.1133 42.5787 51.0862 42.3699 50.9921 42.1886H50.9912Z" fill="white"/>
</g>
<g opacity="0.3">
<path opacity="0.3" d="M42.3742 45.4819C42.4963 45.2091 42.7126 44.9893 42.9835 44.8628C43.2544 44.7363 43.5618 44.7115 43.8494 44.793L46.4724 39.9622C46.5338 39.8494 46.6196 39.7517 46.7235 39.6762C46.8275 39.6007 46.947 39.5494 47.0733 39.5259C46.9769 39.329 46.8093 39.1759 46.6044 39.0978L46.5915 39.0939C46.3956 39.0189 46.1791 39.0175 45.9823 39.09C45.7854 39.1626 45.6216 39.3041 45.5212 39.4883L42.8982 44.3191C42.6105 44.2377 42.3032 44.2625 42.0324 44.389C41.7615 44.5155 41.5452 44.7352 41.423 45.008C40.4395 47.239 40.5318 49.9826 41.8653 52.0153L45.9264 54.1037C42.7809 51.1349 41.4013 47.6882 42.3742 45.4819Z" fill="#31241B"/>
</g>
<path d="M45.3048 54.078C45.2306 54.0779 45.1572 54.0623 45.0895 54.0321L41.6501 52.4972C41.5578 52.4562 41.4793 52.3896 41.4239 52.3052C40.0449 50.2041 39.8562 47.2564 40.94 44.7953C41.0835 44.475 41.3185 44.2043 41.6156 44.0174C41.9127 43.8305 42.2585 43.7358 42.6094 43.7452L45.0581 39.2367C45.2187 38.9434 45.479 38.7174 45.7919 38.5996C46.1048 38.4818 46.4496 38.4801 46.7637 38.5948L46.7938 38.6051C47.1243 38.7325 47.394 38.9805 47.5487 39.2991C47.7034 39.6176 47.7314 39.983 47.6271 40.3215L46.7905 43.0114L49.5103 41.3906C49.8163 41.2091 50.1801 41.1515 50.5273 41.2296C50.8744 41.3077 51.1785 41.5155 51.3774 41.8105C51.5762 42.1056 51.6547 42.4655 51.5968 42.8165C51.539 43.1676 51.349 43.4832 51.066 43.6988L48.8904 45.3799L49.1177 49.3065C49.1177 49.3153 49.1177 49.3237 49.1177 49.3325C49.1479 52.7867 45.6204 54.0008 45.4697 54.0508C45.4165 54.0686 45.3608 54.0778 45.3048 54.078ZM42.2247 51.5982L45.3207 52.9796C45.968 52.7122 48.0761 51.6639 48.0628 49.3545L47.8198 45.1637C47.8149 45.0781 47.8309 44.9925 47.8665 44.9145C47.902 44.8364 47.9561 44.7682 48.0239 44.7157L50.4238 42.8618C50.4885 42.8137 50.5341 42.744 50.5522 42.6654C50.5704 42.5868 50.56 42.5042 50.523 42.4325C50.5016 42.3917 50.4721 42.3557 50.4364 42.3267C50.4006 42.2976 50.3594 42.2761 50.3151 42.2635C50.2708 42.2509 50.2244 42.2475 50.1787 42.2533C50.133 42.2592 50.089 42.2743 50.0493 42.2977L47.0591 44.0802C46.89 44.1822 46.6927 44.2275 46.4959 44.2095C46.3576 44.1963 46.224 44.1526 46.1046 44.0815C45.9853 44.0103 45.8833 43.9135 45.8059 43.7981C45.7286 43.6827 45.6778 43.5516 45.6574 43.4141C45.6369 43.2767 45.6473 43.1365 45.6876 43.0035L46.6196 40.0103C46.6443 39.9299 46.6383 39.8433 46.6029 39.767C46.5675 39.6907 46.5051 39.6303 46.4278 39.5973L46.4031 39.5888C46.3266 39.5598 46.2421 39.5594 46.1653 39.5877C46.0885 39.616 46.0246 39.6711 45.9852 39.7429L43.3622 44.5734C43.3049 44.6787 43.2135 44.7614 43.103 44.8078C42.9925 44.8543 42.8695 44.8618 42.7541 44.8291C42.5891 44.7817 42.4124 44.7955 42.2567 44.8679C42.1009 44.9402 41.9765 45.0664 41.9063 45.2231C40.9832 47.3131 41.1116 49.7968 42.2247 51.5982Z" fill="#31241B"/>
<path d="M43.043 43.8119C43.9727 44.0804 44.8546 44.493 45.6566 45.0345C45.7243 45.0802 45.7804 45.1409 45.8208 45.2118C45.8612 45.2828 45.8846 45.3621 45.8894 45.4436C45.9038 45.7856 45.8224 46.1248 45.6545 46.4231C45.4865 46.7214 45.2387 46.9669 44.9388 47.1319C44.634 47.2961 44.2876 47.367 43.9428 47.3358C43.598 47.3046 43.27 47.1727 42.9996 46.9565L42.9969 46.9544L43.7428 46.2181C44.3099 47.1829 44.3711 48.3177 44.0159 49.2346C44.0074 49.2562 43.9914 49.2742 43.9709 49.2851C43.9503 49.2961 43.9265 49.2993 43.9038 49.2943C43.881 49.2892 43.8608 49.2762 43.8468 49.2576C43.8329 49.2389 43.826 49.2159 43.8275 49.1926C43.8905 48.2707 43.5046 47.3909 42.9112 46.8684C42.8119 46.7817 42.7494 46.6602 42.7368 46.5289C42.7241 46.3976 42.7622 46.2664 42.8432 46.1623C42.9242 46.0581 43.0419 45.9889 43.1723 45.9689C43.3027 45.9488 43.4358 45.9794 43.5444 46.0544L43.6562 46.1316C43.7651 46.2184 43.8971 46.2713 44.0358 46.2839C44.1745 46.2964 44.3138 46.268 44.4365 46.2021C44.5611 46.1326 44.6637 46.0297 44.7329 45.9049C44.8039 45.7817 44.8388 45.6409 44.8336 45.4988L45.0666 45.9085C44.3564 45.4279 43.5752 45.0617 42.7515 44.8231C42.6168 44.7848 42.503 44.6946 42.4349 44.5723C42.3667 44.4501 42.35 44.3058 42.3883 44.1711C42.4266 44.0365 42.5168 43.9226 42.6391 43.8545C42.7614 43.7864 42.9057 43.7697 43.0403 43.808L43.043 43.8119Z" fill="#31241B"/>
<path d="M44.6611 57.3022C44.6367 57.32 44.5903 57.2995 44.5249 57.2419C44.4856 57.2068 44.4485 57.1695 44.4136 57.1301C44.3789 57.0809 44.3428 57.0218 44.3039 56.9549C44.1531 56.6866 44.0551 56.2515 44.1031 55.7929C44.1424 55.4072 44.2566 55.0327 44.4392 54.6907C44.5812 54.4329 44.716 54.2987 44.7691 54.3289C44.88 54.385 44.6253 55.0326 44.5393 55.8364C44.5038 56.173 44.5218 56.5132 44.5927 56.8442C44.609 56.9073 44.6228 56.9663 44.6319 57.0197C44.6472 57.0636 44.6599 57.1083 44.6702 57.1536C44.6868 57.2308 44.6856 57.2847 44.6611 57.3022Z" fill="#31241B"/>
<path d="M40.17 54.7845C40.1727 54.71 40.4929 54.7338 40.9065 54.5062C41.1494 54.3742 41.3696 54.2041 41.5587 54.0024C41.7965 53.7546 42.0017 53.4775 42.1695 53.1778L42.5557 53.3837C42.5361 53.4211 42.5132 53.4684 42.4927 53.5131C42.1689 54.2231 42.0332 54.9337 42.0881 55.4288C42.1261 55.9307 42.3181 56.2102 42.2554 56.2524C42.231 56.2699 42.165 56.2156 42.0591 56.0935C42.0073 56.0332 41.9651 55.9452 41.9084 55.8454C41.8828 55.7903 41.8604 55.7337 41.8415 55.676C41.8157 55.6126 41.7961 55.5469 41.783 55.4797C41.6358 54.9162 41.7396 54.1055 42.0953 53.3292C42.1191 53.2776 42.1417 53.2303 42.171 53.1748L42.1737 53.1706C42.2017 53.1206 42.248 53.0836 42.3029 53.0675C42.3578 53.0513 42.4168 53.0573 42.4674 53.0842C42.5179 53.111 42.5559 53.1566 42.5733 53.2111C42.5906 53.2656 42.5859 53.3248 42.5602 53.3759C42.5592 53.3775 42.5583 53.3792 42.5575 53.381C42.3668 53.7205 42.1224 54.027 41.8339 54.2885C41.5695 54.5297 41.2843 54.697 41.025 54.7842C40.9645 54.808 40.9018 54.8258 40.8378 54.8372C40.7775 54.849 40.7211 54.8613 40.6677 54.8674C40.5763 54.8744 40.4845 54.8744 40.3931 54.8674C40.2432 54.842 40.1676 54.8134 40.17 54.7845Z" fill="#31241B"/>
<path d="M47.8388 53.7318C44.929 51.6165 41.8644 50.0207 38.645 48.9443C38.3013 48.8304 37.9163 48.9914 37.7773 49.3254C37.7119 49.4837 37.676 49.6927 37.7029 49.9679C37.7138 50.086 37.6947 50.205 37.6472 50.3137C37.5998 50.4224 37.5256 50.5173 37.4315 50.5896C37.1982 50.7705 37.0713 51.1323 37.8883 51.8082C37.9278 51.8405 37.9707 51.8685 38.0161 51.8917L46.1836 56.0725C46.2669 56.1167 46.3585 56.1432 46.4525 56.1504C46.5466 56.1575 46.6411 56.1452 46.7302 56.1141C46.9201 56.0439 47.1206 55.8859 47.1571 55.5326C47.1854 55.2594 47.3515 55.0173 47.6093 54.9232C47.8481 54.8358 48.0917 54.6703 48.1285 54.3564C48.1577 54.1134 48.0365 53.8756 47.8388 53.7318Z" fill="white"/>
<g opacity="0.3">
<path opacity="0.3" d="M37.7295 60.2886V60.2715C37.719 60.1597 37.7162 60.0474 37.7214 59.9353C37.6813 56.1597 39.9606 53.7098 40.9443 52.8291L40.3085 52.5053C40.263 52.4822 40.2201 52.4542 40.1807 52.4218C39.3636 51.7446 39.4905 51.3838 39.7239 51.2032C39.8179 51.1309 39.8921 51.0359 39.9396 50.9272C39.987 50.8185 40.0062 50.6996 39.9952 50.5815C39.9684 50.3062 40.0043 50.0991 40.0697 49.9393C40.1098 49.8455 40.1705 49.7619 40.2473 49.6949C40.3242 49.6278 40.4151 49.5789 40.5135 49.5519C39.8969 49.3025 39.2738 49.0732 38.6442 48.8642C38.3005 48.7499 37.9155 48.9109 37.7766 49.2453C37.7111 49.4036 37.6753 49.6125 37.7021 49.8874C37.7131 50.0056 37.6939 50.1245 37.6465 50.2332C37.599 50.342 37.5248 50.4369 37.4307 50.5091C37.1974 50.69 37.0705 51.0518 37.8875 51.7278C37.9269 51.7602 37.9698 51.7882 38.0153 51.8113L38.6503 52.1366C37.6665 53.0169 35.3872 55.4669 35.4273 59.2428C35.4222 59.3548 35.4249 59.467 35.4352 59.5786V59.5958C35.6058 61.2932 37.5456 62.7877 40.0857 63.1374C38.7459 62.4654 37.8435 61.4232 37.7295 60.2886Z" fill="#31241B"/>
</g>
<path d="M46.5103 56.6801C46.3131 56.6796 46.1189 56.6324 45.9435 56.5423L37.776 52.3612C37.6959 52.3207 37.6205 52.2712 37.5514 52.2138C36.9834 51.7431 36.7217 51.3262 36.7286 50.9026C36.7335 50.618 36.8685 50.3599 37.1088 50.1724C37.1323 50.1547 37.151 50.1313 37.1631 50.1045C37.1752 50.0777 37.1804 50.0482 37.1782 50.0189C37.1456 49.6827 37.1836 49.3812 37.2906 49.1232C37.5333 48.5392 38.2017 48.241 38.812 48.4439C42.0488 49.519 45.19 51.1543 48.1495 53.3052C48.5113 53.5678 48.7039 53.9947 48.653 54.4207C48.5975 54.8823 48.2912 55.2371 47.791 55.4201C47.7211 55.4458 47.6888 55.5266 47.6825 55.5881C47.6321 56.0759 47.3508 56.4485 46.9134 56.6107C46.7841 56.6573 46.6477 56.6808 46.5103 56.6801ZM37.8089 50.9623C37.8511 51.0358 37.9596 51.1809 38.2253 51.4019C38.2345 51.4097 38.2446 51.4165 38.2554 51.4221L46.4228 55.6029C46.4606 55.6242 46.5051 55.63 46.5471 55.6191C46.5872 55.6041 46.6197 55.5923 46.6315 55.4783C46.6815 54.9914 46.9866 54.5886 47.4271 54.4276C47.5384 54.3869 47.5978 54.342 47.6038 54.2935C47.6089 54.2513 47.5767 54.1943 47.5275 54.1587C44.6561 52.0721 41.6113 50.4862 38.4776 49.4452C38.3923 49.4171 38.2943 49.4548 38.2635 49.5281C38.2244 49.623 38.2114 49.7578 38.2271 49.9173C38.2462 50.1122 38.2182 50.3089 38.1455 50.4908C38.0727 50.6727 37.9573 50.8344 37.8089 50.9623Z" fill="#31241B"/>
<path d="M48.4772 49.2631L48.5703 49.2426L49.3768 49.0659C49.8273 48.967 50.1655 48.5751 50.167 48.1126V48.0824C50.1574 47.4653 49.5885 47.0058 48.9804 47.1177L48.6596 47.178L48.0678 47.2853C47.8896 47.3185 47.7233 47.3978 47.5854 47.5153C47.415 47.6558 47.2979 47.8504 47.2537 48.0668L47.2489 48.0903C47.1156 48.8018 47.7669 49.4178 48.4772 49.2631Z" fill="#FCE4D8"/>
<g opacity="0.6">
<path opacity="0.6" d="M48.9803 47.1168L48.6595 47.1771L48.0677 47.2844C47.9036 47.3153 47.7493 47.3854 47.6182 47.4888L47.8494 47.446C48.4575 47.335 49.0252 47.7942 49.0358 48.4108V48.4409C49.0338 48.5983 48.9935 48.7528 48.9185 48.8911C48.8435 49.0295 48.736 49.1475 48.6053 49.2351L49.3765 49.0662C49.8269 48.9673 50.1652 48.5754 50.1667 48.1129V48.0827C50.1573 47.465 49.5884 47.0055 48.9803 47.1168Z" fill="white"/>
</g>
<path d="M48.2571 49.8145C47.8516 49.8143 47.4623 49.6561 47.1717 49.3734C46.9896 49.1975 46.8539 48.9792 46.7768 48.738C46.6997 48.4968 46.6836 48.2403 46.73 47.9914L46.7363 47.9612C46.8046 47.6281 46.9839 47.328 47.2449 47.1101C47.4527 46.9338 47.7032 46.8151 47.9712 46.7661L48.8845 46.5994C49.1043 46.5591 49.3302 46.5673 49.5466 46.6232C49.7629 46.6792 49.9644 46.7817 50.1372 46.9235C50.3083 47.0634 50.4468 47.2391 50.5431 47.4381C50.6394 47.6371 50.6911 47.8547 50.6946 48.0758V48.1165C50.6925 48.8129 50.186 49.4298 49.4902 49.5829L48.5908 49.7798H48.5893C48.4801 49.8031 48.3687 49.8147 48.2571 49.8145ZM49.1621 47.6278C49.1331 47.6278 49.1042 47.6304 49.0756 47.6356L48.1621 47.8023C48.0757 47.8183 47.9949 47.8565 47.9278 47.9133C47.8477 47.9776 47.7924 48.0676 47.771 48.168L47.7659 48.1931C47.7527 48.2696 47.7586 48.3482 47.7833 48.4219C47.8079 48.4956 47.8504 48.562 47.907 48.6152C47.9661 48.6736 48.039 48.7163 48.1189 48.7393C48.1988 48.7623 48.2832 48.7648 48.3644 48.7466L49.264 48.5497C49.4808 48.5021 49.6388 48.317 49.6394 48.1102V48.08C49.6372 48.0139 49.6208 47.9491 49.5911 47.89C49.5614 47.8309 49.5193 47.779 49.4675 47.7378C49.3815 47.6669 49.2736 47.6281 49.1621 47.6278Z" fill="#31241B"/>
<path d="M46.716 46.5726L46.7178 46.5968C46.7337 46.7639 46.7904 46.9246 46.8829 47.0647C46.9755 47.2047 47.101 47.32 47.2485 47.4002C47.396 47.4804 47.561 47.5231 47.7288 47.5247C47.8967 47.5262 48.0624 47.4865 48.2114 47.409L48.6597 47.1756L49.0272 46.983C49.4366 46.7701 49.6603 46.3028 49.5397 45.8569L49.5319 45.8268C49.4618 45.5869 49.3046 45.382 49.0911 45.2522C48.8776 45.1224 48.6233 45.0771 48.3781 45.1252C48.2933 45.1407 48.211 45.1675 48.1333 45.2048L47.2981 45.6058C46.9279 45.7821 46.6888 46.1632 46.716 46.5726Z" fill="#FCE4D8"/>
<g opacity="0.6">
<path opacity="0.6" d="M49.5405 45.8569L49.5326 45.8268C49.4625 45.5869 49.3053 45.382 49.0918 45.2522C48.8783 45.1224 48.624 45.0771 48.3788 45.1252C48.294 45.1407 48.2117 45.1675 48.134 45.2048L47.619 45.4514C47.8024 45.4835 47.9731 45.5665 48.1117 45.6909C48.2503 45.8152 48.3512 45.9759 48.4029 46.1548L48.4105 46.1849C48.5311 46.6308 48.3067 47.0981 47.8979 47.311L47.5361 47.5012C47.553 47.5046 47.5693 47.5103 47.5865 47.513C47.8014 47.5465 48.0213 47.51 48.2139 47.409L48.6622 47.1756L49.0297 46.983C49.4364 46.7704 49.6598 46.3031 49.5405 45.8569Z" fill="white"/>
</g>
<path d="M47.742 48.0533C47.6613 48.0532 47.5806 48.047 47.5008 48.0346C47.1569 47.9849 46.84 47.8199 46.602 47.5666C46.364 47.3134 46.2191 46.9869 46.1908 46.6405L46.1887 46.6103V46.6067C46.148 45.9935 46.502 45.4008 47.07 45.1294L47.9057 44.7296C48.0265 44.6714 48.1546 44.63 48.2865 44.6063C48.6602 44.5329 49.0478 44.6028 49.3725 44.8019C49.6971 45.0011 49.9349 45.315 50.0388 45.6814L50.0499 45.7218C50.2308 46.3948 49.9019 47.1226 49.2697 47.4512L48.4556 47.8775C48.2354 47.9927 47.9906 48.053 47.742 48.0533ZM47.243 46.5365L47.2445 46.5585C47.2657 46.8151 47.4761 46.9637 47.6621 46.9914C47.7669 47.0083 47.8744 46.9908 47.9684 46.9414L48.7825 46.516C48.9808 46.4129 49.084 46.1934 49.0312 45.9935L49.0231 45.9633C48.9594 45.7429 48.7191 45.5979 48.4804 45.6447C48.4395 45.6518 48.3999 45.6645 48.3625 45.6824L47.5267 46.0827C47.344 46.1684 47.2304 46.3511 47.243 46.5365Z" fill="#31241B"/>
<path d="M14.5072 22.8972C13.9563 22.8675 13.4089 22.7925 12.8704 22.6729C12.3432 22.5617 11.8257 22.4092 11.3225 22.2167C11.3041 22.2093 11.2889 22.1955 11.2798 22.1778C11.2707 22.1602 11.2682 22.1399 11.2727 22.1205C11.2773 22.1012 11.2886 22.0841 11.3046 22.0724C11.3207 22.0607 11.3404 22.0551 11.3602 22.0566C11.8774 22.1003 12.3973 22.103 12.915 22.0648C13.4204 22.0331 13.9224 21.9599 14.4158 21.8459C14.49 21.8282 14.5672 21.8266 14.6421 21.8412C14.717 21.8558 14.7879 21.8864 14.8499 21.9307C14.912 21.9751 14.9639 22.0323 15.002 22.0984C15.0401 22.1645 15.0636 22.238 15.0709 22.314C15.0782 22.3899 15.0691 22.4666 15.0443 22.5387C15.0194 22.6109 14.9794 22.6768 14.9269 22.7322C14.8744 22.7876 14.8106 22.831 14.7398 22.8596C14.6691 22.8883 14.593 22.9014 14.5168 22.8981L14.5072 22.8972Z" fill="#31241B"/>
<path d="M10.1149 28.5744C10.5615 28.324 10.9789 28.0245 11.3591 27.6817C11.7383 27.3471 12.0818 26.9741 12.3842 26.5688L12.4982 26.4202L12.6022 26.264C12.6697 26.1591 12.7421 26.0584 12.8051 25.9514C12.9257 25.7337 13.0544 25.5236 13.15 25.2959C13.368 24.8552 13.5058 24.3833 13.6279 23.9169L13.6345 23.8907C13.6732 23.7583 13.7621 23.6462 13.8821 23.5783C14.0022 23.5103 14.144 23.4919 14.2774 23.5268C14.4109 23.5617 14.5254 23.6473 14.5968 23.7654C14.6681 23.8834 14.6907 24.0246 14.6596 24.159C14.6529 24.184 14.6445 24.2084 14.6346 24.2323C14.4157 24.7448 14.1784 25.248 13.8639 25.7011C13.7195 25.9351 13.5435 26.1465 13.377 26.3614C13.2908 26.4669 13.1961 26.5652 13.1057 26.6665L12.9688 26.8173L12.8229 26.9587C12.4412 27.3357 12.0216 27.6724 11.5708 27.9632C11.1284 28.2555 10.6547 28.4974 10.1586 28.6844C10.1452 28.6872 10.1312 28.6854 10.119 28.6792C10.1068 28.673 10.0971 28.6629 10.0914 28.6504C10.0857 28.638 10.0844 28.624 10.0878 28.6107C10.0911 28.5974 10.0989 28.5857 10.1098 28.5774L10.1149 28.5744Z" fill="#31241B"/>
<path d="M51.372 30.285C50.7509 30.5218 50.1092 30.7004 49.4551 30.8187C48.7819 30.9327 48.0985 30.9753 47.4164 30.9459H47.4076C47.2473 30.9386 47.0964 30.8681 46.9878 30.75C46.8791 30.6319 46.8215 30.4756 46.8276 30.3152C46.8336 30.1549 46.9028 30.0034 47.02 29.8937C47.1373 29.7841 47.293 29.7253 47.4535 29.73C47.5052 29.7322 47.5564 29.7407 47.606 29.7553C48.1964 29.9371 48.8044 30.0556 49.4198 30.109C50.0421 30.1614 50.681 30.1415 51.3219 30.0758C51.3492 30.0711 51.3772 30.0771 51.4003 30.0924C51.4233 30.1077 51.4396 30.1312 51.4459 30.1582C51.4522 30.1851 51.4479 30.2135 51.434 30.2374C51.4201 30.2613 51.3976 30.279 51.3711 30.2869L51.372 30.285Z" fill="#31241B"/>
<path d="M31.153 17.563C31.3791 18.0813 31.6399 18.5881 31.9113 19.0804C32.056 19.3234 32.1868 19.5716 32.3406 19.8076C32.4943 20.0437 32.63 20.2879 32.7943 20.5158C33.0991 20.9853 33.4359 21.4318 33.7733 21.8741L34.2967 22.5238C34.4845 22.7291 34.6666 22.9389 34.8502 23.1467C35.6094 23.9553 36.4038 24.7304 37.2799 25.4079C37.702 25.7678 38.1642 26.0736 38.6107 26.4028C38.8284 26.5758 39.0756 26.7043 39.3042 26.8611C39.5387 27.01 39.7709 27.1625 40.003 27.3187L40.0359 27.3404C40.1474 27.4154 40.2259 27.5304 40.2553 27.6615C40.2846 27.7927 40.2625 27.9301 40.1935 28.0455C40.1245 28.1608 40.0138 28.2453 39.8844 28.2815C39.7549 28.3177 39.6166 28.3029 39.4977 28.2401C39.2393 28.1023 38.9807 27.963 38.7244 27.818L38.34 27.6021C38.2764 27.5647 38.2109 27.531 38.1491 27.4912L37.9658 27.3685C37.4816 27.0344 36.98 26.7224 36.5347 26.3344C36.3082 26.1459 36.0725 25.9683 35.8539 25.7709L35.2141 25.1603C34.9958 24.9623 34.8014 24.7401 34.6045 24.5212C34.4076 24.3023 34.2032 24.09 34.0265 23.854C33.8441 23.623 33.659 23.3945 33.4817 23.1605L32.9843 22.433C32.8154 22.1918 32.6783 21.9314 32.5266 21.6811C32.375 21.4309 32.2447 21.1686 32.1109 20.9075C31.592 19.8595 31.1735 18.7597 30.9875 17.6028C30.9841 17.5824 30.9883 17.5615 30.9992 17.5439C31.0102 17.5264 31.0272 17.5135 31.0471 17.5076C31.0669 17.5018 31.0882 17.5034 31.1069 17.5121C31.1257 17.5209 31.1406 17.5362 31.1488 17.5552L31.153 17.563Z" fill="#31241B"/>
<path d="M18.6576 33.3373C18.5965 32.9524 18.6447 32.558 18.7969 32.1992C18.953 31.8281 19.1899 31.4964 19.4903 31.2284C19.7913 30.9549 20.1393 30.7381 20.5175 30.5883C20.898 30.4338 21.3007 30.3408 21.7105 30.3128C22.5305 30.2552 23.4003 30.4433 24.1432 30.9414C24.5284 31.1968 24.8402 31.5484 25.0477 31.9613C25.2563 32.3816 25.3426 32.8842 25.2307 33.3373C25.2017 33.4525 25.1377 33.5558 25.0474 33.633C24.9571 33.7101 24.8451 33.7573 24.7268 33.768C24.6085 33.7787 24.4898 33.7524 24.3872 33.6927C24.2845 33.633 24.2029 33.5428 24.1538 33.4347L24.1107 33.3373C24.0139 33.1098 23.8926 32.8936 23.7489 32.6924C23.6033 32.493 23.4354 32.3109 23.2484 32.1498C22.8537 31.8051 22.3008 31.5857 21.7126 31.5211C21.4146 31.4953 21.1144 31.5086 20.8199 31.5606C20.5205 31.6161 20.2317 31.7178 19.9636 31.8621C19.4303 32.1561 18.9747 32.6557 18.8481 33.3361C18.8442 33.358 18.8327 33.3777 18.8156 33.3919C18.7986 33.4062 18.7771 33.414 18.7549 33.414C18.7328 33.414 18.7113 33.4062 18.6942 33.3919C18.6772 33.3777 18.6657 33.358 18.6618 33.3361L18.6576 33.3373Z" fill="#31241B"/>
<path d="M19.1741 26.7108C19.1481 26.4785 19.1726 26.2433 19.2459 26.0213C19.3218 25.797 19.4338 25.5866 19.5775 25.3984C19.8648 25.0234 20.239 24.7285 20.6403 24.4985C21.0421 24.2687 21.4723 24.0924 21.9198 23.9742C22.365 23.8507 22.8222 23.7754 23.2835 23.7496C23.7357 23.7221 24.1994 23.7194 24.6727 23.7839C25.1461 23.8484 25.6306 23.9669 26.097 24.1891C26.5574 24.4089 26.9583 24.7358 27.2664 25.1425C27.5744 25.5491 27.7805 26.0236 27.8674 26.5263C27.8861 26.6409 27.8656 26.7584 27.8091 26.8599C27.7527 26.9614 27.6637 27.0408 27.5565 27.0854C27.4493 27.13 27.3302 27.1371 27.2185 27.1055C27.1068 27.074 27.0089 27.0057 26.9409 26.9116L26.9291 26.895C26.694 26.5685 26.4814 26.27 26.2462 26.0207C26.0186 25.7729 25.756 25.5596 25.4669 25.3876C24.8805 25.0294 24.0933 24.8865 23.2898 24.834C22.5017 24.7918 21.6919 24.869 20.9439 25.1394C20.5737 25.2769 20.2176 25.4599 19.9221 25.715C19.6267 25.97 19.3987 26.3047 19.3415 26.7123V26.715C19.3387 26.7355 19.3285 26.7542 19.3128 26.7677C19.2972 26.7812 19.2771 26.7884 19.2564 26.7881C19.2358 26.7878 19.216 26.7799 19.2007 26.7659C19.1855 26.7519 19.1759 26.7329 19.1738 26.7123L19.1741 26.7108Z" fill="#31241B"/>
<path d="M35.9814 35.5912C36.0232 35.2036 36.1729 34.8356 36.4135 34.529C36.6613 34.2117 36.9767 33.9535 37.3367 33.7732C37.6987 33.588 38.0912 33.4698 38.4953 33.4243C38.903 33.3745 39.316 33.3899 39.7187 33.4702C40.5255 33.629 41.3167 34.0385 41.9028 34.7132C42.2077 35.0604 42.4168 35.4812 42.5094 35.934C42.5998 36.394 42.5525 36.9017 42.3261 37.31C42.268 37.4135 42.1791 37.4965 42.0718 37.5473C41.9645 37.5982 41.8441 37.6144 41.7271 37.5939C41.6102 37.5733 41.5025 37.5168 41.419 37.4324C41.3356 37.3479 41.2804 37.2396 41.2612 37.1224L41.2449 37.0172C41.2108 36.7722 41.1502 36.5316 41.064 36.2997C40.9754 36.0693 40.8608 35.8498 40.7224 35.6454C40.4315 35.2098 39.9554 34.8534 39.4046 34.6369C39.1237 34.5341 38.8306 34.4685 38.5327 34.4416C38.2295 34.4173 37.9244 34.4402 37.6282 34.5094C37.0367 34.6535 36.4665 35.0165 36.1645 35.64C36.1555 35.6611 36.1391 35.6783 36.1185 35.6882C36.0978 35.6982 36.0742 35.7003 36.0521 35.6942C36.03 35.6881 36.0108 35.6741 35.9982 35.655C35.9856 35.6358 35.9804 35.6127 35.9836 35.5899L35.9814 35.5912Z" fill="#31241B"/>
<path d="M33.1591 40.3169C33.0593 40.6869 32.8362 41.017 32.57 41.2772C32.3024 41.5323 31.9933 41.7399 31.6558 41.891C30.9908 42.1925 30.2611 42.2935 29.5502 42.2311C28.8399 42.1615 28.1254 41.932 27.535 41.4686C27.2429 41.2377 26.9809 40.9477 26.8094 40.5976C26.6378 40.2476 26.5682 39.8373 26.6652 39.4761C26.678 39.4286 26.7055 39.3863 26.7437 39.3554C26.7819 39.3244 26.829 39.3064 26.8781 39.3038C26.9272 39.3012 26.9759 39.3142 27.0172 39.341C27.0584 39.3678 27.0902 39.4069 27.1078 39.4529L27.1166 39.4761C27.2062 39.7137 27.3538 39.9252 27.5459 40.0914C27.7317 40.2525 27.9408 40.3847 28.1661 40.4834C28.6213 40.6926 29.1408 40.7924 29.6597 40.8283C30.1807 40.8612 30.7038 40.814 31.2105 40.6884C31.7104 40.5584 32.1768 40.3567 32.5561 40.0043L32.589 39.9741C32.6441 39.9229 32.7144 39.8911 32.7892 39.8834C32.8641 39.8757 32.9394 39.8925 33.0038 39.9314C33.0682 39.9703 33.1182 40.0291 33.1462 40.0989C33.1742 40.1688 33.1787 40.2458 33.1591 40.3184V40.3169Z" fill="#31241B"/>
<g opacity="0.1">
<path opacity="0.1" d="M47.8285 23.7419C48.6776 22.5071 47.1134 19.9574 44.335 18.0471C41.5565 16.1368 38.6158 15.5892 37.7668 16.8241C36.9178 18.059 38.4819 20.6087 41.2604 22.519C44.0388 24.4293 46.9795 24.9768 47.8285 23.7419Z" fill="#725440"/>
</g>
</g>
</svg>
