<svg width="68" height="112" viewBox="0 0 68 112" fill="none" xmlns="http://www.w3.org/2000/svg">
<g opacity="0.3">
<path opacity="0.3" d="M33.7423 112C48.9723 112 61.3186 110.243 61.3186 108.076C61.3186 105.909 48.9723 104.152 33.7423 104.152C18.5123 104.152 6.16602 105.909 6.16602 108.076C6.16602 110.243 18.5123 112 33.7423 112Z" fill="#31241B"/>
</g>
<path d="M63.3573 59.0815C70.0833 60.9532 65.4535 45.7154 57.9658 42.3173L59.511 53.0618L63.3573 59.0815Z" fill="#FFC35C"/>
<g opacity="0.3">
<path opacity="0.3" d="M63.3582 59.0815C70.0842 60.9532 65.4545 45.7154 57.9668 42.3173L59.5119 53.0618L63.3582 59.0815Z" fill="#31241B"/>
</g>
<path d="M59.2687 83.7915C59.2241 84.7671 58.8242 85.6926 58.1444 86.3937C57.4646 87.0948 56.5518 87.523 55.5781 87.5977L19.5959 90.4054C17.9824 90.5304 16.3609 90.3035 14.8436 89.7406C14.8436 89.7406 14.8393 89.7384 14.8349 89.7384C14.7085 89.6904 14.582 89.6425 14.4578 89.5901L9.76436 87.65C9.14873 87.3951 8.62524 86.9589 8.26349 86.3994C7.90175 85.8398 7.71888 85.1834 7.73919 84.5174C8.60245 57.6496 5.54399 32.613 1.09908 12.346C0.974948 11.778 1.00399 11.1872 1.18326 10.6341C1.36252 10.0809 1.68556 9.58541 2.11929 9.19818L6.13693 5.61436L6.14129 5.61217L6.55984 5.23722C7.68126 4.23745 9.09932 3.63255 10.5971 3.51507L11.1726 3.47147L26.6781 2.2616L31.6745 1.86921L45.9009 0.759619L47.1151 0.665883C48.0569 0.593005 48.9941 0.855083 49.7615 1.40588C50.5288 1.95668 51.077 2.76081 51.3093 3.67639C57.5396 28.1903 60.4023 57.5737 59.2687 83.7915Z" fill="#AE896F"/>
<path d="M41.8446 41.7343C42.3176 46.1072 42.7057 50.3233 43.0763 54.9404L39.4183 56.6712C39.3006 53.9376 39.3595 55.4788 39.1633 52.7365C38.3567 41.3484 36.9048 29.9669 34.8535 19.1653L38.603 18.8688L38.6379 19.0454L50.0172 17.9489L50.4227 17.9162L50.4968 17.9097L50.5251 18.0884H52.28L53.4811 19.113L51.0788 21.4935L39.8936 22.2783C39.8083 22.2842 39.7252 22.3079 39.6496 22.3479C39.574 22.3878 39.5076 22.4431 39.4546 22.5103C39.4017 22.5774 39.3633 22.6548 39.3421 22.7376C39.3208 22.8204 39.3171 22.9068 39.3311 22.9911C39.8761 26.2465 40.3731 29.6007 40.8222 33.0537L37.7441 37.1738L41.3105 36.9733C41.3171 37.0212 41.3214 37.0692 41.3279 37.1172L51.6805 36.195L53.2653 36.1078L53.3939 36.1013L54.4752 36.0424L56.6181 37.2915L53.7035 39.853L42.5858 40.8318C42.4776 40.8417 42.3725 40.873 42.2765 40.9239C42.1805 40.9747 42.0955 41.0442 42.0266 41.1281C41.9576 41.2121 41.906 41.3089 41.8748 41.413C41.8436 41.517 41.8333 41.6262 41.8446 41.7343Z" fill="#C8AE9D"/>
<g opacity="0.2">
<path opacity="0.2" d="M6.14453 5.61258C6.27407 5.49465 6.42116 5.39757 6.58052 5.32483L6.14453 5.61258Z" fill="white"/>
</g>
<path d="M34.4897 19.8869L31.3506 23.1437L19.1123 24.1726C18.8688 24.1929 18.6322 24.2636 18.4174 24.3801C18.2027 24.4966 18.0144 24.6564 17.8646 24.8494C17.7148 25.0425 17.6067 25.2645 17.5472 25.5015C17.4877 25.7385 17.478 25.9852 17.5188 26.2261C17.9839 29.0493 18.4082 31.8949 18.7919 34.7628L15.0707 39.0224C13.6712 27.7107 11.6417 16.6714 9.02793 6.48457C8.74453 5.3837 7.53903 4.88013 6.58203 5.32484L8.6181 3.99071C8.92765 3.71386 10.5604 3.56998 11.1904 3.54382L11.1752 3.46971L22.8379 2.56067L23.6009 2.51489C23.6009 2.51489 23.6052 2.51489 23.6074 2.51489C23.6096 2.51489 23.6118 2.51489 23.6139 2.51489L26.6964 2.32524L28.6431 2.20752L29.8115 3.08604L27.6991 5.96138L14.7067 6.8508C14.57 6.86002 14.437 6.89899 14.317 6.965C14.197 7.031 14.0928 7.12244 14.0118 7.23291C13.9308 7.34338 13.875 7.47021 13.8482 7.60454C13.8213 7.73886 13.8242 7.87742 13.8565 8.01053C14.5715 10.984 15.2386 14.0185 15.8577 17.114L12.2957 20.9071L17.0763 20.5517L16.9673 20.2422L30.6094 19.1326L30.6726 19.4749L34.3414 19.1108C34.3938 19.368 34.4417 19.6275 34.4897 19.8869Z" fill="#C8AE9D"/>
<g opacity="0.2">
<path opacity="0.2" d="M34.7967 19.5665L34.4915 19.8869C34.4436 19.6253 34.3956 19.3681 34.3477 19.1108L34.7967 19.5665Z" fill="white"/>
</g>
<g opacity="0.2">
<path opacity="0.2" d="M23.5573 2.51494H23.6009L22.8379 2.56072L26.679 2.25989L26.6964 2.32529L23.5573 2.51494Z" fill="white"/>
</g>
<path d="M19.8192 43.3801C21.3212 57.8789 21.7702 72.6045 21.1054 86.5539C21.0487 87.7442 18.2583 88.5159 17.1575 88.0602L17.0616 88.1235C17.8071 72.4279 17.1052 55.5529 15.0996 39.2404L19.2982 38.7565C19.3047 38.8088 19.3113 38.8633 19.3178 38.9156L32.7724 37.7166L33.5201 37.649H37.117C37.1258 37.7253 37.1345 37.8016 37.1432 37.8801L33.943 41.2438L20.7762 42.2356C20.6373 42.2456 20.5019 42.2835 20.378 42.3469C20.2541 42.4103 20.1442 42.498 20.0549 42.6048C19.9656 42.7116 19.8987 42.8353 19.8582 42.9685C19.8177 43.1017 19.8044 43.2417 19.8192 43.3801Z" fill="#C8AE9D"/>
<g opacity="0.2">
<path opacity="0.2" d="M37.3616 37.649L37.1414 37.8801C37.1327 37.8016 37.124 37.7253 37.1152 37.649H37.3616Z" fill="white"/>
</g>
<g opacity="0.3">
<path opacity="0.3" d="M43.6847 0.95628C43.6367 0.95192 43.5909 0.949739 43.543 0.949739L45.9627 0.790604L46.7518 0.738285C47.0265 0.717066 47.3027 0.724371 47.5759 0.760085L44.1054 1.00206H44.1032C44.0576 0.993338 44.0118 0.986798 43.9659 0.982438C43.8723 0.969358 43.7785 0.960639 43.6847 0.95628Z" fill="#31241B"/>
</g>
<g opacity="0.3">
<path opacity="0.3" d="M48.8798 1.16124L47.5762 0.760132C48.0307 0.817148 48.4718 0.95288 48.8798 1.16124Z" fill="#31241B"/>
</g>
<g opacity="0.3">
<path opacity="0.3" d="M58.9064 83.8638C58.8192 85.8803 57.23 87.5131 54.3546 87.7006L32.1523 89.4314L51.6062 87.8902C52.5796 87.8154 53.4921 87.3871 54.1715 86.686C54.851 85.9848 55.2505 85.0594 55.2946 84.084C55.9116 69.8446 55.3491 54.6722 53.7055 39.8508L56.62 37.2894L54.475 36.0402L53.3937 36.0991L53.2651 36.1056L53.2259 35.7917L41.8596 36.5285L41.8378 36.9406L41.3103 36.9711L37.7439 37.1716L40.822 33.0515L40.8743 32.9818L51.6846 32.1578C51.8201 32.1475 51.9521 32.1096 52.0723 32.0464C52.1925 31.9831 52.2985 31.8959 52.3837 31.79C52.4689 31.6842 52.5315 31.562 52.5676 31.4311C52.6037 31.3001 52.6126 31.1631 52.5937 31.0286C52.1403 27.8176 51.6352 24.6386 51.0786 21.4913L53.4809 19.1108L52.2798 18.0862H50.5249L50.4966 17.9075L50.4225 17.914C50.4216 17.9132 50.421 17.9121 50.4206 17.911C50.4202 17.9099 50.4201 17.9087 50.4203 17.9075L50.017 17.9467L38.6377 19.0432L38.6028 18.8666L34.8533 19.1631L34.7966 19.1675L34.8446 19.1108L37.9401 15.4441L37.9336 15.4114L48.6349 14.5504C48.7731 14.539 48.9074 14.4984 49.0287 14.4312C49.1501 14.3641 49.2558 14.2719 49.3389 14.1608C49.422 14.0497 49.4805 13.9222 49.5106 13.7868C49.5406 13.6514 49.5416 13.5112 49.5134 13.3754C48.8638 10.2864 48.1662 7.24972 47.4163 4.28718L49.6791 1.69958C50.3021 2.23604 50.7444 2.95163 50.9456 3.74873C57.1781 28.2622 60.0399 57.6457 58.9064 83.8638Z" fill="#31241B"/>
</g>
<g opacity="0.3">
<path opacity="0.3" d="M34.8448 19.1108C34.8448 19.1283 34.8514 19.1457 34.8536 19.1632L34.7969 19.1675L34.8448 19.1108Z" fill="#31241B"/>
</g>
<g opacity="0.3">
<path opacity="0.3" d="M40.8735 32.9818L40.8212 33.0516L40.8125 32.9862L40.8735 32.9818Z" fill="#31241B"/>
</g>
<g opacity="0.3">
<path opacity="0.3" d="M18.6113 90.5057C18.6941 90.5035 18.7464 90.5035 18.7726 90.5035C18.7355 90.5057 18.6549 90.5057 18.5742 90.5079L18.6113 90.5057Z" fill="#31241B"/>
</g>
<g opacity="0.3">
<path opacity="0.3" d="M32.15 89.4315L18.6099 90.5058C18.5489 90.5058 18.4704 90.5058 18.3701 90.508L32.15 89.4315Z" fill="#31241B"/>
</g>
<g opacity="0.3">
<path opacity="0.3" d="M18.6113 90.5057C18.6941 90.5035 18.7464 90.5035 18.7726 90.5035C18.7355 90.5057 18.6549 90.5057 18.5742 90.5079L18.6113 90.5057Z" fill="#31241B"/>
</g>
<g opacity="0.3">
<path opacity="0.3" d="M32.15 89.4315L18.6099 90.5058C18.5489 90.5058 18.4704 90.5058 18.3701 90.508L32.15 89.4315Z" fill="#31241B"/>
</g>
<path d="M35.7649 6.05473C35.7649 6.05473 35.7649 6.06127 35.7649 6.06345C36.5517 9.04793 37.274 12.1638 37.9318 15.411L37.9383 15.4437L34.8428 19.1104C33.9185 14.2491 32.8721 9.5034 31.7102 4.9277C31.4947 4.07543 31.0045 3.31787 30.3153 2.77213C29.6262 2.22639 28.7764 1.92286 27.8975 1.90848L32.8634 1.76024L32.8939 1.77332L45.8994 0.759644L45.9605 0.790163L43.5407 0.9493C43.5887 0.9493 43.6345 0.951479 43.6824 0.955839C43.7763 0.960198 43.8701 0.96892 43.9636 0.981999C44.0096 0.986359 44.0554 0.992897 44.101 1.00162H44.1032L47.5736 0.759644L48.8772 1.16075C49.165 1.30707 49.4339 1.48804 49.6777 1.69964L47.4149 4.28723L36.4585 5.09381C36.3462 5.10275 36.2371 5.136 36.1388 5.19128C36.0406 5.24655 35.9555 5.32251 35.8896 5.41391C35.8236 5.50531 35.7783 5.60996 35.7567 5.7206C35.7352 5.83125 35.738 5.94526 35.7649 6.05473Z" fill="#C8AE9D"/>
<g opacity="0.2">
<path opacity="0.2" d="M49.8795 1.47068L49.679 1.69958C49.4352 1.48816 49.1665 1.30734 48.8789 1.16113L49.8795 1.47068Z" fill="white"/>
</g>
<g opacity="0.2">
<path opacity="0.2" d="M53.3941 36.0991L51.6807 36.1929L53.2589 36.0512L53.3897 36.0403L53.3941 36.0991Z" fill="white"/>
</g>
<path d="M17.0582 88.1759C17.0457 88.4368 16.9739 88.6914 16.8483 88.9204C16.7227 89.1494 16.5466 89.3468 16.3333 89.4977C16.1201 89.6485 15.8753 89.7488 15.6175 89.791C15.3598 89.8332 15.0958 89.8161 14.8456 89.7411C14.8456 89.7411 14.8412 89.7389 14.8369 89.7389C14.7104 89.6909 14.584 89.643 14.4597 89.5906L9.76631 87.6505C9.15068 87.3956 8.6272 86.9594 8.26545 86.3999C7.90371 85.8403 7.72083 85.1839 7.74115 84.5179C8.6044 57.6501 5.54594 32.6134 1.10104 12.3465C0.976899 11.7785 1.00595 11.1877 1.18522 10.6345C1.36448 10.0814 1.68752 9.58589 2.12125 9.19866L6.13889 5.61484L6.14325 5.61266C7.12858 4.73414 8.69814 5.20719 9.02731 6.48463C15.4298 31.4363 18.3296 61.5125 17.0582 88.1759Z" fill="#C8AE9D"/>
<g opacity="0.2">
<path opacity="0.2" d="M27.8991 1.90891L27.5176 1.91981C27.6445 1.90967 27.7718 1.90604 27.8991 1.90891Z" fill="white"/>
</g>
<path d="M59.2697 83.7915C59.2251 84.7671 58.8252 85.6926 58.1454 86.3937C57.4656 87.0948 56.5528 87.523 55.5791 87.5977L19.5969 90.4055C17.8447 90.54 16.0854 90.2607 14.4609 89.5902L9.76752 87.65C9.15189 87.3951 8.62841 86.9589 8.26666 86.3994C7.90492 85.8398 7.72205 85.1834 7.74236 84.5174C7.95163 78.0125 7.92983 71.6165 7.7162 65.3688C7.65516 63.5923 7.57886 61.8287 7.4873 60.0781C8.7368 60.1723 9.95649 60.5061 11.0798 61.0612C14.389 68.8654 18.4611 71.2394 24.5236 59.4263C24.5236 59.4263 24.892 58.7854 25.7443 58.1619C26.8714 57.3292 28.8464 56.5248 31.9288 57.2681C34.3137 57.8414 37.3634 59.3456 41.2001 62.4804C47.4195 67.564 50.5259 66.9318 52.0759 65.0048C52.6448 64.3028 53.0023 63.4286 53.2291 62.5937C53.4774 61.6675 53.6107 60.7142 53.6258 59.7554C53.6258 59.7554 55.8755 57.1831 59.37 63.3611C59.3743 63.4875 59.3787 63.6118 59.3809 63.7382C59.4332 65.4496 59.4695 67.155 59.4899 68.8545C59.5527 73.9081 59.4807 78.9045 59.2697 83.7915Z" fill="#A7C49C"/>
<g opacity="0.55">
<path opacity="0.55" d="M7.48625 60.0781C7.51895 60.7234 7.55165 61.3708 7.57999 62.0205C7.32275 56.3875 6.91946 50.8962 6.37012 45.5466C6.82137 47.683 7.60396 49.3157 8.61328 50.5561C8.899 53.7825 9.13516 57.0618 9.32176 60.3942C8.72112 60.2318 8.10661 60.126 7.48625 60.0781Z" fill="white"/>
</g>
<g opacity="0.55">
<path opacity="0.55" d="M10.311 87.8746L9.76598 87.65C9.15034 87.3952 8.62686 86.959 8.26512 86.3994C7.90337 85.8399 7.7205 85.1835 7.74081 84.5175C7.96535 77.5024 7.92393 70.6138 7.66016 63.9017C7.67992 64.39 7.69809 64.8791 7.71465 65.3688H7.73253C8.78588 65.4783 9.59246 66.3642 9.62646 67.4228C9.81743 73.4146 9.82789 79.5433 9.62865 85.7692C9.60445 86.529 9.84572 87.2734 10.311 87.8746Z" fill="white"/>
</g>
<g opacity="0.55">
<path opacity="0.55" d="M50.492 2.08288C50.0103 1.93602 49.5053 1.88056 49.0031 1.91938L47.7889 2.01312L33.5626 3.12271L28.5661 3.5151L13.0624 4.72497L12.4869 4.76857C10.9891 4.88605 9.57105 5.49095 8.44963 6.49072L8.03108 6.86567L8.02672 6.86786L4.00908 10.4517C3.57535 10.8389 3.25231 11.3344 3.07305 11.8876C2.89378 12.4407 2.86473 13.0315 2.98887 13.5995C4.9312 22.4545 6.60758 32.2184 7.80873 42.6473C7.2136 42.4794 6.58795 42.1241 5.94051 41.542V41.5682C4.73936 31.074 3.05426 21.2511 1.10104 12.3461C0.976899 11.778 1.00595 11.1872 1.18522 10.6341C1.36448 10.081 1.68751 9.58544 2.12125 9.19821L6.13889 5.61439L6.14325 5.61221L6.56179 5.23726C7.68322 4.23748 9.10128 3.63258 10.5991 3.5151L11.1746 3.4715L26.6783 2.26163L31.6747 1.86924L45.9011 0.75965L47.1153 0.665914C47.7503 0.61642 48.3879 0.719161 48.9752 0.965606C49.5625 1.21205 50.0825 1.59508 50.492 2.08288Z" fill="white"/>
</g>
<path d="M18.7371 91.0921C17.1837 91.0919 15.6455 90.7873 14.2094 90.1953L9.51637 88.2534C8.77934 87.9459 8.15282 87.4223 7.71944 86.7515C7.28606 86.0807 7.06618 85.2943 7.08878 84.4961C8.05537 54.3531 4.01855 28.6995 0.461754 12.4864C0.312929 11.8051 0.347816 11.0964 0.562853 10.433C0.77789 9.7696 1.16535 9.17523 1.68557 8.71076L6.12655 4.7498C7.35611 3.65724 8.90831 2.99525 10.5479 2.86415L47.0633 0.0149588C48.1596 -0.0731794 49.2516 0.230206 50.1453 0.871201C51.0391 1.5122 51.6766 2.44929 51.9446 3.51595C58.1636 27.9836 61.0712 57.2533 59.9232 83.8199C59.8221 86.162 57.977 88.0664 55.6318 88.2495L19.6483 91.0568C19.344 91.0804 19.0401 91.0921 18.7371 91.0921ZM47.4308 1.30854C47.3436 1.30854 47.2564 1.31203 47.1662 1.319L10.6504 4.16819C9.29591 4.27636 8.01367 4.82327 6.99809 5.72598L2.55711 9.6865C2.20986 9.99649 1.95122 10.3932 1.80766 10.836C1.66409 11.2788 1.64077 11.7517 1.74007 12.2065C5.31256 28.4916 9.36682 54.2603 8.39588 84.5371C8.38093 85.0698 8.52779 85.5945 8.8171 86.042C9.10641 86.4896 9.52457 86.8389 10.0164 87.044L14.7112 88.9863C16.2404 89.6176 17.8968 89.8801 19.5463 89.7528L55.5302 86.945C56.3445 86.8827 57.1078 86.5246 57.6763 85.9383C58.2448 85.3521 58.5792 84.5781 58.6166 83.7623C59.7602 57.3178 56.8665 28.1859 50.6781 3.83684C50.4958 3.11392 50.0773 2.47258 49.489 2.01455C48.9007 1.55653 48.1764 1.30805 47.4308 1.30854Z" fill="#31241B"/>
<path d="M12.2982 21.8811C12.1451 21.8822 11.9965 21.8295 11.8782 21.7322C11.7599 21.6349 11.6795 21.4992 11.6511 21.3488C11.6226 21.1983 11.6478 21.0426 11.7223 20.9089C11.7969 20.7751 11.916 20.6717 12.0589 20.6167C12.7519 20.345 13.4811 20.1769 14.2231 20.118L50.7403 17.2688C51.8361 17.1825 52.9271 17.4867 53.8201 18.1276C54.7131 18.7686 55.3505 19.7048 55.6194 20.7706C55.6405 20.8539 55.645 20.9405 55.6327 21.0255C55.6204 21.1105 55.5914 21.1922 55.5475 21.266C55.5036 21.3398 55.4455 21.4042 55.3767 21.4556C55.3079 21.507 55.2296 21.5443 55.1464 21.5654C55.0631 21.5866 54.9765 21.5911 54.8915 21.5788C54.8065 21.5664 54.7248 21.5375 54.651 21.4935C54.5772 21.4496 54.5127 21.3916 54.4614 21.3227C54.41 21.2539 54.3727 21.1756 54.3515 21.0924C54.1578 20.3259 53.6992 19.6526 53.057 19.1915C52.4147 18.7304 51.6301 18.5113 50.8418 18.5728L14.326 21.422C13.7132 21.4709 13.1108 21.6099 12.5385 21.8345C12.4621 21.8651 12.3806 21.8809 12.2982 21.8811Z" fill="#31241B"/>
<path d="M15.1007 39.9228C14.9467 39.9224 14.7978 39.8677 14.6802 39.7683C14.5625 39.6689 14.4837 39.5312 14.4577 39.3794C14.4316 39.2276 14.46 39.0715 14.5377 38.9386C14.6155 38.8056 14.7377 38.7044 14.8827 38.6527C15.5091 38.4294 16.1622 38.2897 16.8251 38.2372L53.3396 35.388C54.4358 35.3013 55.5273 35.6053 56.421 36.246C57.3147 36.8867 57.9529 37.823 58.2226 38.889C58.2644 39.0567 58.2381 39.2342 58.1495 39.3825C58.0608 39.5309 57.9171 39.6381 57.7496 39.6808C57.5821 39.7235 57.4046 39.6982 57.2557 39.6103C57.1069 39.5225 56.9988 39.3793 56.9552 39.2121C56.7612 38.4452 56.3022 37.7716 55.6594 37.3105C55.0167 36.8493 54.2316 36.6303 53.4429 36.6921L16.9293 39.5413C16.3812 39.5845 15.8413 39.7 15.3235 39.8848C15.252 39.9103 15.1766 39.9231 15.1007 39.9228Z" fill="#31241B"/>
<path d="M39.634 61.9097C39.4652 61.9098 39.303 61.8448 39.1811 61.7281C39.0592 61.6114 38.9872 61.4521 38.98 61.2836C38.8627 58.5665 38.7049 55.8076 38.51 53.0835C37.3254 36.359 34.7552 19.8668 31.0772 5.38981C30.8846 4.62313 30.4265 3.94953 29.7843 3.48858C29.1421 3.02763 28.3573 2.80917 27.5693 2.87197C27.3964 2.8855 27.2251 2.82978 27.0933 2.71707C26.9614 2.60436 26.8798 2.44389 26.8663 2.27096C26.8527 2.09804 26.9084 1.92682 27.0212 1.79497C27.1339 1.66313 27.2943 1.58146 27.4673 1.56793C28.5631 1.47982 29.6547 1.7831 30.548 2.42386C31.4413 3.06463 32.0786 4.00137 32.3464 5.06761C36.0432 19.6183 38.6247 36.1902 39.8158 52.9906C40.0115 55.7265 40.1702 58.4976 40.2879 61.2269C40.2954 61.4002 40.2337 61.5693 40.1165 61.6971C39.9992 61.8249 39.836 61.9009 39.6627 61.9084L39.634 61.9097Z" fill="#31241B"/>
<g opacity="0.3">
<path opacity="0.3" d="M26.6964 2.32532L23.614 2.51497C23.614 2.51497 23.6096 2.51497 23.6074 2.51497L26.6964 2.32532Z" fill="#31241B"/>
</g>
<g opacity="0.3">
<path opacity="0.3" d="M29.811 3.08604L28.6426 2.20752C28.6426 2.20752 29.1767 2.41897 29.811 3.08604Z" fill="#31241B"/>
</g>
<g opacity="0.3">
<path opacity="0.3" d="M17.0785 20.5519L12.2979 20.9072L15.8599 17.1141L28.933 16.1615C29.0671 16.1517 29.1975 16.1134 29.3156 16.0491C29.4336 15.9848 29.5366 15.8959 29.6175 15.7886C29.6984 15.6812 29.7555 15.5578 29.7848 15.4266C29.8141 15.2954 29.8151 15.1595 29.7875 15.0279C29.1423 11.9434 28.4461 8.92057 27.6992 5.95933L29.8115 3.08398C30.4263 3.72707 31.1326 4.79742 31.5446 6.51086C32.5931 10.4784 33.5218 14.69 34.3458 19.1109L30.677 19.475C30.6552 19.3595 30.6334 19.2461 30.6116 19.1327L16.9695 20.2423L17.0785 20.5519Z" fill="#31241B"/>
</g>
<g opacity="0.3">
<path opacity="0.3" d="M33.5211 37.6492L33.4579 37.1696C33.4797 37.3287 33.5015 37.4878 33.519 37.6492L20.666 38.3598L20.7815 38.5844L19.2992 38.7588L15.1006 39.2427C15.0919 39.1686 15.0832 39.0966 15.0723 39.0247L18.7934 34.7651L31.1254 33.7274C31.3658 33.7071 31.5996 33.6377 31.8122 33.5236C32.0248 33.4095 32.2119 33.2531 32.3618 33.064C32.5117 32.8749 32.6213 32.6571 32.6838 32.424C32.7464 32.191 32.7605 31.9476 32.7254 31.7088C32.3113 28.8269 31.8535 25.9727 31.3521 23.146L34.4912 19.8892C35.518 25.5069 36.3812 31.4516 37.118 37.6513L33.5211 37.6492Z" fill="#31241B"/>
</g>
<g opacity="0.3">
<path opacity="0.3" d="M38.8506 55.3873L35.2952 57.2773C35.1774 54.5436 35.2385 56.0827 35.0423 53.3403C34.7545 49.2987 34.3876 45.2665 33.9414 41.2438L37.1416 37.8801C37.8064 43.524 38.3689 49.3772 38.8506 55.3873Z" fill="#31241B"/>
</g>
<g opacity="0.3">
<path opacity="0.3" d="M15.0986 39.2405L14.8545 39.2688L15.0725 39.0225C15.0812 39.0944 15.0899 39.1663 15.0986 39.2405Z" fill="#31241B"/>
</g>
<g opacity="0.3">
<path opacity="0.3" d="M33.521 37.6491C33.5014 37.49 33.4818 37.3309 33.46 37.1696L33.521 37.6491Z" fill="#31241B"/>
</g>
<path d="M15.3404 90.4674C15.029 90.4678 14.7207 90.4066 14.4331 90.2874C14.3531 90.2549 14.2804 90.207 14.2191 90.1463C14.1578 90.0857 14.1091 90.0135 14.0758 89.9339C14.0425 89.8544 14.0252 89.769 14.0251 89.6828C14.0249 89.5965 14.0418 89.5111 14.0747 89.4314C14.1077 89.3517 14.1561 89.2793 14.2172 89.2184C14.2783 89.1575 14.3508 89.1092 14.4306 89.0765C14.5104 89.0437 14.5958 89.027 14.6821 89.0274C14.7684 89.0278 14.8537 89.0453 14.9331 89.0788C15.0911 89.1443 15.2625 89.1708 15.4328 89.156C15.6032 89.1413 15.7675 89.0858 15.9119 88.9943C16.0562 88.9027 16.1765 88.7777 16.2624 88.6299C16.3483 88.482 16.3974 88.3157 16.4055 88.1449C17.6899 61.1969 14.7701 31.4921 8.39419 6.64772C8.34886 6.46317 8.25579 6.29379 8.12432 6.15658C7.99285 6.01937 7.8276 5.91916 7.64516 5.86599C7.46233 5.80951 7.26798 5.8014 7.08107 5.84243C6.89417 5.88346 6.72109 5.97225 6.57873 6.10012C6.44928 6.21575 6.2792 6.27522 6.1059 6.26545C5.9326 6.25568 5.77028 6.17746 5.65465 6.04801C5.53902 5.91856 5.47955 5.74848 5.48932 5.57518C5.49909 5.40189 5.5773 5.23957 5.70675 5.12394C6.01615 4.8476 6.39142 4.65549 6.7965 4.56605C7.20158 4.4766 7.62285 4.49285 8.01984 4.61321C8.41683 4.73357 8.7762 4.95401 9.06341 5.25334C9.35061 5.55268 9.55601 5.92084 9.65986 6.32247C16.0667 31.2881 19.0014 61.1341 17.7108 88.2073C17.6818 88.8167 17.4192 89.3914 16.9775 89.8123C16.5359 90.2332 15.9491 90.4678 15.3391 90.4674H15.3404Z" fill="#31241B"/>
<path d="M60.385 64.059V64.0612C60.1147 64.3054 59.9425 64.4296 59.9425 64.4296C56.1232 56.8979 53.625 59.7536 53.625 59.7536C53.625 59.7536 53.6664 64.7849 50.6712 66.106C48.8574 66.9039 45.9276 66.3436 41.1993 62.4786C28.6646 52.2328 24.5227 59.4266 24.5227 59.4266C18.4625 71.2419 14.3882 68.8658 11.079 61.0616C6.46189 58.7727 1.86439 61.0616 1.86439 61.0616L4.90323 53.8678L0.652344 51.7968C2.1783 47.5459 6.38996 45.7388 6.38996 45.7388C6.38996 45.7388 7.67612 54.2209 16.7708 54.2253C25.8656 54.2297 28.2853 50.0747 39.3921 53.0983C46.6949 55.0864 53.4528 53.192 57.2241 51.6595H57.2262C59.1926 50.8616 60.3479 50.1619 60.3479 50.1619L63.6505 56.1567C63.8249 60.466 61.4056 63.1325 60.385 64.059Z" fill="#FFC35C"/>
<g opacity="0.55">
<path opacity="0.55" d="M19.3083 66.6707C15.9512 69.1842 13.3353 66.3873 11.079 61.0617C6.46189 58.7728 1.86439 61.0617 1.86439 61.0617L4.90323 53.8679L0.652344 51.797C2.1783 47.5461 6.38995 45.7389 6.38995 45.7389C6.38995 45.7389 6.41612 45.9067 6.48369 46.1967C5.34576 47.0861 4.03605 48.4202 3.2238 50.2666C3.15499 50.4263 3.15044 50.6064 3.21112 50.7693C3.27179 50.9322 3.393 51.0655 3.54949 51.1412L6.12182 52.3938C6.42275 52.5404 6.65603 52.7968 6.77363 53.1102C6.89123 53.4236 6.88421 53.7701 6.754 54.0785L4.19737 60.1309C4.19737 60.1309 7.02432 58.7231 10.4712 59.2192C11.2751 59.3377 12.0385 59.6483 12.6967 60.1247C13.3549 60.6011 13.8885 61.2293 14.2521 61.9559C15.7419 64.9163 17.393 66.7235 19.3083 66.6707Z" fill="white"/>
</g>
<g opacity="0.55">
<path opacity="0.55" d="M51.624 65.4848C49.9455 66.9977 46.8652 67.1089 41.1995 62.4765C35.0216 57.4256 30.8819 56.6124 28.2725 57.0877C30.3717 55.6729 35.015 54.5829 43.5321 61.5456C47.2118 64.554 49.8016 65.5611 51.624 65.4848Z" fill="white"/>
</g>
<path d="M16.8912 68.2573C16.8476 68.2573 16.804 68.2573 16.7604 68.2573C14.4823 68.174 12.513 66.0407 10.5724 61.5478C6.38691 59.609 2.19662 61.6294 2.15346 61.6503C2.03389 61.7094 1.89911 61.7305 1.76719 61.7108C1.63528 61.6911 1.51253 61.6316 1.41542 61.5402C1.31831 61.4488 1.25146 61.3298 1.22386 61.1993C1.19626 61.0689 1.20921 60.933 1.26099 60.8101L4.05829 54.187L0.36721 52.3855C0.22242 52.3149 0.108802 52.1933 0.0481379 52.044C-0.0125266 51.8948 -0.0159705 51.7284 0.0384729 51.5768C1.64204 47.1092 5.95136 45.2166 6.13403 45.1381C6.22594 45.0988 6.32563 45.0811 6.42544 45.0864C6.52525 45.0916 6.62252 45.1197 6.7098 45.1684C6.79707 45.2171 6.87202 45.2852 6.92889 45.3673C6.98576 45.4495 7.02303 45.5437 7.03784 45.6425C7.08798 45.9647 8.36455 53.5679 16.7726 53.5732H16.7913C20.1921 53.5732 22.6406 52.9772 25.0076 52.4003C28.8879 51.4543 32.5576 50.5605 39.5652 52.4679C50.2783 55.3838 59.9167 49.6623 60.0131 49.6044C60.1615 49.5146 60.3395 49.4874 60.5079 49.5289C60.6764 49.5703 60.8214 49.677 60.9112 49.8254C61.001 49.9738 61.0282 50.1518 60.9867 50.3202C60.9453 50.4887 60.8386 50.6337 60.6902 50.7235C60.2782 50.9729 50.4702 56.7916 39.2217 53.7319C32.5401 51.9129 29.1939 52.7291 25.3171 53.673C22.8756 54.2677 20.3503 54.8829 16.7913 54.8829H16.7717C9.01636 54.8781 6.59357 48.9739 5.95005 46.7094C4.82302 47.3608 2.61866 48.8998 1.48552 51.4787L5.19143 53.2837C5.34189 53.357 5.45853 53.4851 5.51733 53.6418C5.57613 53.7985 5.57262 53.9718 5.50752 54.126L3.05988 59.9203C4.87272 59.3783 8.09729 58.8565 11.3707 60.4797C11.5106 60.5491 11.621 60.6663 11.682 60.8101C13.3823 64.8212 15.1102 66.8887 16.811 66.951C18.8531 67.0208 21.2419 64.394 23.9429 59.132C23.9472 59.1224 23.9525 59.1133 23.9577 59.1041C24.0074 59.0169 25.2042 56.9917 28.1432 56.452C31.7824 55.7841 36.3136 57.6427 41.6152 61.976C45.5243 65.1709 48.5911 66.3795 50.4889 65.4739C52.9741 64.2858 52.9741 59.8061 52.9741 59.7625C52.9731 59.6023 53.0306 59.4472 53.1358 59.3265C53.4288 58.9916 54.2062 58.4597 55.2643 58.5927C56.8775 58.795 58.5155 60.4116 60.1439 63.4025C61.1654 62.4211 63.1553 60.0053 63.0022 56.1865C62.9952 56.013 63.0574 55.8439 63.1751 55.7163C63.2928 55.5887 63.4564 55.5131 63.6298 55.5061C63.8033 55.4991 63.9724 55.5613 64.1 55.679C64.2276 55.7967 64.3032 55.9603 64.3102 56.1337C64.5395 61.8696 60.5005 64.84 60.3283 64.9638C60.2517 65.0188 60.1641 65.0567 60.0714 65.0746C59.9788 65.0926 59.8834 65.0904 59.7917 65.068C59.7001 65.0456 59.6144 65.0037 59.5404 64.9451C59.4665 64.8864 59.4061 64.8125 59.3635 64.7284C57.3536 60.7639 55.8481 59.9979 55.13 59.8941C54.8339 59.8475 54.5309 59.9094 54.2768 60.0685C54.2332 61.2457 53.87 65.3052 51.0583 66.6519C48.6381 67.8121 45.1829 66.5796 40.7895 62.9896C34.5984 57.9322 30.6479 57.3384 28.4209 57.7325C26.1538 58.1336 25.1946 59.5924 25.0987 59.7494C22.154 65.4704 19.4688 68.2568 16.8912 68.2573Z" fill="#31241B"/>
<path d="M64.3988 59.8911C63.9868 59.8865 63.5773 59.8261 63.1815 59.7115C63.0168 59.6631 62.8776 59.5519 62.7941 59.4019C62.7106 59.2518 62.6895 59.075 62.7353 58.9095C62.7811 58.744 62.8901 58.6032 63.0389 58.5174C63.1876 58.4316 63.3641 58.4078 63.5303 58.451C65.0898 58.887 65.545 58.1811 65.7517 57.6139C66.3185 56.0539 65.6928 52.9924 64.1948 49.9928C62.4992 46.5987 60.1292 44.0198 57.6933 42.9128C57.6151 42.8773 57.5446 42.8267 57.486 42.764C57.4273 42.7013 57.3815 42.6276 57.3513 42.5472C57.3211 42.4668 57.3071 42.3813 57.3099 42.2954C57.3128 42.2096 57.3325 42.1251 57.368 42.0469C57.4035 41.9687 57.4541 41.8983 57.5168 41.8396C57.5796 41.7809 57.6532 41.7352 57.7336 41.705C57.814 41.6748 57.8996 41.6607 57.9854 41.6636C58.0713 41.6664 58.1557 41.6862 58.2339 41.7217C60.9371 42.949 63.5373 45.7507 65.3645 49.4082C67.0649 52.8111 67.684 56.1263 66.9807 58.0608C66.5495 59.2576 65.634 59.8906 64.3988 59.8911Z" fill="#31241B"/>
<g opacity="0.3">
<path opacity="0.3" d="M33.521 37.6491C33.5014 37.49 33.4818 37.3309 33.46 37.1696L33.521 37.6491Z" fill="#31241B"/>
</g>
<g opacity="0.2">
<path opacity="0.2" d="M33.5192 37.649L32.7715 37.7166L32.778 37.649H33.5192Z" fill="white"/>
</g>
<g opacity="0.3">
<path opacity="0.3" d="M5.93945 41.5442C10.2937 45.4476 13.6565 39.2709 14.2708 33.0537L16.772 54.2279C11.3693 53.8177 6.14393 51.3539 5.93945 41.5442Z" fill="#31241B"/>
</g>
<g opacity="0.3">
<path opacity="0.3" d="M6.36891 45.5465C6.12039 44.3781 5.97215 43.057 5.93945 41.5681C6.09001 42.8828 6.23317 44.2089 6.36891 45.5465Z" fill="#31241B"/>
</g>
<g opacity="0.3">
<path opacity="0.3" d="M60.3846 64.059C60.6898 63.2393 59.942 64.4296 59.942 64.4296C56.1228 56.8979 53.6246 59.7536 53.6246 59.7536C53.6246 59.7536 53.666 64.7849 50.6707 66.106L50.0059 65.9054C50.8255 64.2333 51.2346 62.0788 51.2332 59.4419C51.231 56.8587 53.6049 55.5808 55.9462 56.6707C56.731 57.037 57.4534 57.7886 58.6711 58.1121C62.922 59.24 59.3229 52.4007 57.228 51.6595C59.1943 50.8616 60.3497 50.1619 60.3497 50.1619L63.6523 56.1567C63.8245 60.466 61.4052 63.1325 60.3846 64.059Z" fill="#31241B"/>
</g>
<g opacity="0.3">
<path opacity="0.3" d="M59.2697 83.7914C59.2251 84.767 58.8252 85.6925 58.1454 86.3936C57.4656 87.0947 56.5528 87.523 55.5791 87.5976L19.5969 90.4054C18.8691 90.4622 18.1374 90.4468 17.4126 90.3596C17.2164 90.3008 17.1074 90.2659 17.1074 90.2659C32.3718 89.0678 44.7055 85.9439 49.0331 77.5599C50.2918 75.1218 49.1151 72.1462 46.5624 71.1408C45.0974 70.564 43.3291 69.4923 41.1936 67.7471C28.6589 57.5013 24.517 64.6951 24.517 64.6951C18.4546 76.5083 14.3825 74.1343 11.0733 66.3301C10.0213 65.8102 8.88399 65.4845 7.7162 65.3687C7.65516 63.5922 7.57886 61.8287 7.4873 60.078C8.7368 60.1722 9.95649 60.506 11.0798 61.0612C14.389 68.8654 18.4611 71.2393 24.5236 59.4262C24.5236 59.4262 24.892 58.7853 25.7443 58.1618C27.6801 57.6953 29.5854 57.2811 31.9288 57.2681C34.3137 57.8414 37.3634 59.3456 41.2001 62.4803C47.4173 67.5618 50.5238 66.9318 52.0759 65.009V65.0069C52.6448 64.3049 53.0023 63.4308 53.2291 62.5959C53.4761 61.6694 53.6086 60.7162 53.6236 59.7576C53.6236 59.7576 55.8733 57.1852 59.3678 63.3632C59.3722 63.4896 59.3765 63.6139 59.3787 63.7403C59.3918 64.1676 59.4041 64.5949 59.4158 65.0221C59.4486 66.3039 59.4726 67.5828 59.4877 68.8588C59.5526 73.908 59.4807 78.9044 59.2697 83.7914Z" fill="#31241B"/>
</g>
</svg>
