<svg width="36" height="48" viewBox="0 0 36 48" fill="none" xmlns="http://www.w3.org/2000/svg">
<path d="M17.4027 47.9999C16.0693 47.9999 14.9883 46.9188 14.9883 45.5854V24.1709H19.8171V45.5854C19.8175 46.9188 18.7365 47.9999 17.4027 47.9999Z" fill="#FFF9F2"/>
<path d="M17.4027 24.1709H14.9883V45.5854C14.9883 46.9188 16.0693 47.9999 17.4027 47.9999V39.0054C17.8022 38.7981 18.1919 38.5707 18.568 38.3195C18.9525 38.6758 19.3722 38.9896 19.8171 39.2603V24.1709H17.4027Z" fill="#FFF9F2"/>
<path d="M35.1709 24C35.1709 21.2498 33.9895 18.7753 32.1068 17.0563C32.6997 16.1759 33.0458 15.1154 33.0458 13.9739C33.0458 10.9219 30.5717 8.44775 27.5197 8.44775C27.4735 8.44775 27.4281 8.44995 27.3823 8.45105C26.588 3.65662 22.4227 0 17.4027 0C12.5662 0 8.52283 3.39441 7.5238 7.93103C4.23486 8.8363 1.81824 11.8462 1.81824 15.4226C1.81824 17.417 2.57007 19.2349 3.80457 20.6107C1.96912 22.5582 0.84375 25.1825 0.84375 28.0697C0.84375 34.0774 5.71399 38.9476 11.7213 38.9476C14.4045 38.9476 16.8604 37.9753 18.757 36.3651C19.905 37.9307 21.757 38.9476 23.8473 38.9476C27.3318 38.9476 30.1567 36.1227 30.1567 32.6378C30.1567 32.5312 30.1538 32.425 30.1487 32.3199C33.1348 30.7449 35.1709 27.6105 35.1709 24Z" fill="#FAB292"/>
<path d="M17.4023 15.937C16.485 15.937 15.7412 15.1932 15.7412 14.2759V13.3171C15.7412 13.1586 15.8698 13.03 16.0287 13.03H18.7764C18.9349 13.03 19.0635 13.1586 19.0635 13.3171V14.2759C19.0635 15.1932 18.3197 15.937 17.4023 15.937Z" fill="#4A2616"/>
<g style="mix-blend-mode:multiply" opacity="0.25">
<path d="M28.9747 8.64258C30.2762 9.65369 31.1149 11.2324 31.1149 13.0082C31.1149 16.0602 28.6404 18.5343 25.5884 18.5343C25.0848 18.5343 24.5974 18.4658 24.1338 18.3395C25.0691 19.0664 26.2435 19.5004 27.5201 19.5004C30.5721 19.5004 33.0463 17.0259 33.0463 13.9739C33.0463 11.4254 31.321 9.28125 28.9747 8.64258Z" fill="#FAB292"/>
</g>
<path d="M34.4246 27.6716C32.7407 29.3947 30.4006 30.4735 27.8082 30.5021C22.697 30.5588 18.4402 26.4664 18.3051 21.3571C18.3021 21.2421 18.301 21.1274 18.3021 21.0132C18.3135 19.8003 16.9167 19.114 15.9646 19.8658C14.6429 20.7891 13.0217 21.3131 11.2753 21.2589C7.19751 21.1326 3.88074 17.8169 3.7533 13.7391C3.6991 11.993 4.22241 10.3726 5.14453 9.05054C3.13403 10.455 1.81787 12.7841 1.81787 15.4226C1.81787 17.4166 2.5697 19.2349 3.80457 20.6107C1.96838 22.5586 0.843018 25.184 0.84375 28.0719C0.844849 34.0364 5.71729 38.926 11.6818 38.9473C14.3804 38.9568 16.8508 37.9834 18.7566 36.3651C19.905 37.9303 21.7566 38.9473 23.8469 38.9473C27.3314 38.9473 30.1564 36.1227 30.1564 32.6378C30.1564 32.5313 30.1538 32.4251 30.1483 32.3196C32.0566 31.3136 33.5757 29.6693 34.4246 27.6716Z" fill="#FAB292"/>
<path d="M23.5537 13.8129C23.1652 13.8129 22.8506 13.4979 22.8506 13.1097V12.0129C22.8506 11.6244 23.1652 11.3098 23.5537 11.3098C23.9423 11.3098 24.2568 11.6244 24.2568 12.0129V13.1097C24.2568 13.4979 23.9419 13.8129 23.5537 13.8129Z" fill="#4A2616"/>
<path d="M11.252 13.8126C10.8634 13.8126 10.5488 13.4977 10.5488 13.1095V12.0127C10.5488 11.6241 10.8634 11.3096 11.252 11.3096C11.6401 11.3096 11.9551 11.6241 11.9551 12.0127V13.1095C11.9551 13.4977 11.6401 13.8126 11.252 13.8126Z" fill="#4A2616"/>
<path d="M24.1027 15.8857H23.0059C22.6177 15.8857 22.3027 15.5708 22.3027 15.1826C22.3027 14.7941 22.6177 14.4795 23.0059 14.4795H24.1027C24.4912 14.4795 24.8058 14.7941 24.8058 15.1826C24.8058 15.5708 24.4912 15.8857 24.1027 15.8857Z" fill="#FAB292"/>
<path d="M11.8005 15.8857H10.7041C10.3156 15.8857 10.001 15.5708 10.001 15.1826C10.001 14.7941 10.3156 14.4795 10.7041 14.4795H11.8005C12.1891 14.4795 12.5037 14.7941 12.5037 15.1826C12.5037 15.5708 12.1891 15.8857 11.8005 15.8857Z" fill="#FAB292"/>
</svg>
