<svg width="74" height="117" viewBox="0 0 74 117" fill="none" xmlns="http://www.w3.org/2000/svg">
<g opacity="0.2">
<path opacity="0.2" d="M37.1789 116.34C50.5411 116.34 61.3733 114.789 61.3733 112.875C61.3733 110.962 50.5411 109.411 37.1789 109.411C23.8166 109.411 12.9844 110.962 12.9844 112.875C12.9844 114.789 23.8166 116.34 37.1789 116.34Z" fill="#31241B"/>
</g>
<path d="M66.3958 70.9925C65.4396 72.5963 64.5367 74.2471 63.6871 75.9448C60.5178 82.2634 58.0629 89.2111 56.2256 96.704C55.591 99.2934 53.7552 101.421 51.2973 102.457C40.4667 107.011 29.6445 106.339 18.8327 100.899C17.632 100.295 16.5935 99.4114 15.8039 98.3233C15.0143 97.2353 14.4965 95.9741 14.2938 94.6451C13.1225 86.9808 11.2778 79.8092 8.65479 73.2051C7.99138 71.5278 7.2754 69.8883 6.50684 68.2864L66.3958 70.9925Z" fill="#944C2C"/>
<g opacity="0.6">
<path opacity="0.6" d="M17.431 96.4183C16.826 96.1449 16.2209 95.8557 15.6159 95.5506C15.1561 95.319 14.7186 95.0454 14.309 94.7335C14.3027 94.7036 14.2987 94.674 14.2943 94.6441C13.1229 86.9798 11.2783 79.8083 8.65527 73.2041C9.53072 72.9885 10.4461 72.9949 11.3185 73.2226C13.8672 79.7292 15.6684 86.7841 16.8201 94.3143C16.9306 95.0394 17.136 95.7468 17.431 96.4183Z" fill="white"/>
</g>
<g opacity="0.3">
<path opacity="0.3" d="M66.396 70.9926C65.4398 72.5964 64.5369 74.2472 63.6873 75.9449C60.518 82.2635 58.0631 89.2112 56.2258 96.7041C55.5912 99.2935 53.7554 101.421 51.2975 102.457C40.4669 107.011 29.6448 106.339 18.833 100.9C17.6462 100.302 16.6177 99.4319 15.8314 98.3607C15.045 97.2896 14.5232 96.0477 14.3084 94.7364C14.718 95.0484 15.1555 95.3219 15.6153 95.5535C26.4274 100.993 37.2492 101.665 48.0802 97.1108C50.5377 96.0765 52.3735 93.9474 53.0081 91.3581C54 87.3153 55.1765 83.4359 56.5376 79.72C57.0754 78.2591 56.6148 76.6412 55.4497 75.6087L55.4287 75.5899C54.4642 74.7219 53.0935 74.4493 51.8871 74.925C50.2171 75.5851 48.4666 77.1819 46.3755 78.6997C44.0303 80.3989 41.1776 81.3028 38.2861 81.1554C34.6447 80.9707 31.0831 79.2937 29.3286 75.9198C23.4805 79.1201 17.7573 78.4899 13.8615 74.6942C11.9252 72.8613 9.90908 72.9052 8.65577 73.2056C7.99236 71.5283 7.27637 69.8887 6.50781 68.2869L66.396 70.9926Z" fill="#31241B"/>
</g>
<path d="M36.8783 106.194C30.7864 106.194 24.6444 104.648 18.503 101.558C17.1975 100.899 16.0682 99.9386 15.2091 98.7555C14.3499 97.5725 13.7859 96.2012 13.564 94.7561C12.0692 84.9767 9.47129 76.1781 5.84397 68.6039C5.75932 68.4272 5.74836 68.224 5.81347 68.0392C5.87859 67.8544 6.01446 67.703 6.19119 67.6184C6.36792 67.5337 6.57104 67.5228 6.75585 67.5879C6.94067 67.653 7.09206 67.7889 7.1767 67.9656C10.8679 75.6705 13.5086 84.6088 15.0257 94.5322C15.212 95.7442 15.6852 96.894 16.4057 97.8861C17.1263 98.8782 18.0735 99.6838 19.1683 100.236C29.8911 105.631 40.6057 106.148 51.0141 101.772C53.2544 100.829 54.9355 98.8681 55.5106 96.5243C57.9186 86.7117 61.3683 77.9939 65.7632 70.6122C65.8634 70.4439 66.0265 70.3222 66.2164 70.2741C66.4064 70.2259 66.6077 70.2552 66.776 70.3555C66.9444 70.4558 67.066 70.6188 67.1141 70.8088C67.1623 70.9987 67.133 71.2 67.0327 71.3683C62.711 78.6237 59.3186 87.2063 56.9457 96.8767C56.2597 99.6722 54.2562 102.011 51.5867 103.134C46.7357 105.174 41.8329 106.194 36.8783 106.194Z" fill="#31241B"/>
<path d="M65.2301 71.683C65.2301 71.683 64.3388 71.5282 62.9381 71.058C62.3209 70.8508 61.6383 70.9051 61.0831 71.2427C59.3736 72.2914 57.2445 72.441 55.6366 70.9985C54.6717 70.1305 53.301 69.8579 52.0946 70.3337C50.4227 70.996 48.6741 72.5921 46.5808 74.1095C44.2356 75.8086 41.3829 76.7125 38.4913 76.5655C34.8504 76.3808 31.2884 74.7034 29.5338 71.3299C23.6858 74.5302 17.9626 73.9 14.0667 70.1043C11.808 67.9648 9.43949 68.3829 8.29921 68.7786C7.63801 69.0076 6.92511 69.0789 6.24249 68.9186C6.0578 68.8753 5.88087 68.8229 5.7043 68.763C-0.368329 66.6993 -1.89203 55.1255 7.77875 52.6373C7.36874 46.1628 12.0765 40.6239 18.5543 40.9165C17.0805 33.3885 24.9158 23.3631 38.4592 25.186C52.1115 24.5917 59.0109 35.2827 56.8644 42.6474C58.1853 42.7014 59.483 43.0124 60.6849 43.5631C64.7056 45.4181 67.0911 49.8223 66.626 54.5973C66.6046 54.8275 66.5757 55.0591 66.5392 55.2921C67.849 55.7579 68.9284 56.3818 69.7957 57.1124C75.769 62.1349 71.8144 72.2485 65.2301 71.683Z" fill="#FFC35C"/>
<path d="M39.0994 76.6744C38.8955 76.6744 38.6931 76.6692 38.4884 76.6589C34.481 76.4557 31.1281 74.5135 29.4977 71.4572C23.7893 74.546 18.0033 74.068 14.0043 70.1718C11.8021 68.0866 9.50564 68.4597 8.3299 68.8671C7.61182 69.1161 6.88341 69.1652 6.22184 69.0101C6.04232 68.9676 5.86354 68.9159 5.67516 68.852C2.68095 67.8343 0.609829 64.4028 0.750933 60.6927C0.90201 56.7063 3.49137 53.6745 7.68237 52.5685C7.49251 49.2522 8.64277 46.0722 10.8391 43.8338C12.8478 41.7885 15.545 40.7214 18.4421 40.8211C17.7935 37.275 19.1439 33.3227 22.0694 30.2162C25.9634 26.0835 31.9419 24.217 38.4718 25.0958C45.0364 24.8095 50.8239 27.2064 54.329 31.6737C56.9627 35.0299 57.9511 39.0909 56.9852 42.5624C58.2784 42.6292 59.5471 42.9408 60.7241 43.4806C64.7758 45.3497 67.1845 49.8214 66.7184 54.6075C66.6988 54.8147 66.6733 55.0249 66.6423 55.2321C67.8808 55.6813 68.962 56.2904 69.8559 57.0421C73.3577 59.9861 73.2587 64.2724 72.1091 67.0483C70.8163 70.1677 68.1135 72.0231 65.2217 71.7738H65.2135C65.2047 71.7738 64.2993 71.6124 62.9082 71.1458C62.2976 70.9412 61.6501 71.0058 61.1304 71.3235C59.1989 72.5081 57.0694 72.4106 55.5742 71.069C54.6175 70.2083 53.2973 69.9609 52.1278 70.4215C50.9403 70.8917 49.732 71.8251 48.3328 72.9033C47.7887 73.323 47.2247 73.757 46.6336 74.1862C44.4048 75.8015 41.7501 76.6744 39.0994 76.6744ZM29.5741 71.2049L29.6177 71.2888C31.2005 74.334 34.5205 76.2729 38.498 76.4745C41.3053 76.6186 44.1588 75.7517 46.5276 74.0366C47.1186 73.6089 47.6786 73.176 48.2212 72.7571C49.6315 71.6692 50.8494 70.7295 52.0628 70.2497C53.2984 69.7625 54.6921 70.024 55.7009 70.9316C57.1333 72.217 59.1782 72.3064 61.0373 71.1658C61.6043 70.8197 62.3083 70.7484 62.9703 70.9708C64.3001 71.4177 65.1807 71.5799 65.2449 71.5917C68.0522 71.8307 70.683 70.0211 71.9418 66.9792C73.067 64.2609 73.1652 60.0648 69.7399 57.1847C68.846 56.4315 67.76 55.8246 66.5119 55.3806L66.438 55.3551L66.4499 55.2813C66.4868 55.053 66.5145 54.8214 66.5359 54.592C66.9947 49.8839 64.6284 45.4868 60.6483 43.6506C59.4573 43.1047 58.1712 42.7966 56.8622 42.7434L56.7447 42.7378L56.7772 42.627C57.7797 39.1881 56.8108 35.1374 54.1853 31.7916C50.7172 27.3719 44.9877 25.0016 38.4648 25.2838C31.9784 24.4124 26.058 26.2579 22.2053 30.3469C19.2872 33.4423 17.9575 37.3892 18.6467 40.9042L18.6693 41.0198L18.5518 41.0143C15.6592 40.8832 12.9704 41.9326 10.9725 43.9693C8.79311 46.1856 7.66428 49.3475 7.87298 52.6387L7.87778 52.7152L7.8039 52.7344C3.65279 53.8019 1.08559 56.7821 0.936731 60.7056C0.798952 64.3359 2.81725 67.691 5.73574 68.6843C5.92043 68.746 6.09219 68.7951 6.2658 68.8372C6.89375 68.985 7.58597 68.9369 8.2708 68.6998C9.48459 68.2783 11.8597 67.8931 14.1321 70.0454C18.0901 73.9018 23.8314 74.3543 29.4914 71.2574L29.5741 71.2049Z" fill="#31241B"/>
<g opacity="0.6">
<path opacity="0.6" d="M53.054 30.367C49.9142 28.0066 45.5965 26.5029 40.2394 26.7359C26.6964 24.913 18.8611 34.9362 20.3345 42.4664C13.8567 42.1739 9.14891 47.7116 9.55929 54.1873C1.72545 56.2015 1.2375 64.1794 4.56193 68.2345C-0.52039 65.2096 -1.25361 54.9618 7.77924 52.6373C7.36923 46.1628 12.077 40.6239 18.5548 40.9165C17.081 33.3885 24.9163 23.3631 38.4597 25.186C44.9146 24.906 49.8603 27.1482 53.054 30.367Z" fill="white"/>
</g>
<path d="M39.099 77.3213C38.8845 77.3213 38.6701 77.3157 38.4559 77.3046C34.4666 77.1019 31.0812 75.2538 29.2483 72.318C23.4619 75.2199 17.639 74.6122 13.5577 70.6399C11.6055 68.793 9.57911 69.1195 8.54411 69.4789C7.70931 69.7689 6.85603 69.8247 6.07553 69.64C2.65247 68.8296 0.139571 65.2547 0.100047 61.139C0.0671719 57.7496 1.88268 53.6602 7.01893 52.0892C6.96131 48.7799 8.16882 45.635 10.3803 43.3843C12.338 41.3897 14.9108 40.2694 17.6985 40.1774C17.321 36.6372 18.7416 32.8108 21.6014 29.776C25.6276 25.5033 31.7812 23.5644 38.4958 24.4499C45.2625 24.1724 51.2169 26.6595 54.8413 31.2775C57.4155 34.5583 58.4856 38.4967 57.7904 41.9896C60.5582 42.332 63.0186 43.6799 64.7895 45.843C66.7878 48.2838 67.7076 51.5248 67.3511 54.8152C72.9225 57.0795 74.0288 61.9812 73.2472 65.5831C72.4493 69.258 69.4211 72.7882 65.1692 72.4233C65.1478 72.4233 65.1267 72.4185 65.1056 72.4151C65.0669 72.4081 64.1423 72.2449 62.7047 71.7613C62.2769 71.6173 61.827 71.6601 61.4706 71.8784C59.2853 73.2178 56.861 73.093 55.1453 71.5526C54.3696 70.8564 53.3054 70.6547 52.3675 71.0263C51.266 71.4618 50.0918 72.3675 48.7324 73.4162C48.1839 73.8391 47.6169 74.2768 47.0159 74.7123C44.6744 76.4052 41.8863 77.3213 39.099 77.3213ZM29.5361 70.593C29.6712 70.593 29.8038 70.6301 29.9193 70.7002C30.0349 70.7704 30.129 70.8709 30.1913 70.9908C31.6689 73.8299 34.7857 75.6387 38.5309 75.8297C41.193 75.9649 43.9002 75.1423 46.1483 73.5129C46.7311 73.0904 47.2893 72.6597 47.8293 72.2434C49.2171 71.1722 50.528 70.1615 51.8231 69.6492C53.2865 69.0704 54.9373 69.3773 56.1319 70.4504C57.3597 71.5534 59.067 71.6151 60.6978 70.6155C61.4281 70.1678 62.3312 70.074 63.1749 70.3569C64.3588 70.7548 65.1695 70.9191 65.3291 70.9498C68.7097 71.2169 71.1436 68.2991 71.8022 65.2654C72.4822 62.133 71.4476 57.8242 66.2939 55.9899C66.1319 55.9322 65.995 55.8198 65.907 55.6721C65.8189 55.5243 65.7852 55.3505 65.8115 55.1805C66.288 52.1025 65.4983 49.0388 63.6451 46.7749C61.9563 44.7123 59.5372 43.5088 56.8337 43.3866C56.722 43.3815 56.6129 43.3511 56.5147 43.2977C56.4165 43.2443 56.3316 43.1693 56.2666 43.0784C56.2015 42.9874 56.1579 42.8829 56.1392 42.7727C56.1204 42.6625 56.1269 42.5494 56.1581 42.4421C57.1019 39.2026 56.1747 35.3688 53.6777 32.1865C50.3396 27.9328 44.8081 25.6522 38.4932 25.9252C38.4496 25.9269 38.406 25.9249 38.3628 25.9193C32.1021 25.0763 26.3841 26.8501 22.6755 30.7859C19.9015 33.7302 18.6327 37.4646 19.2809 40.7758C19.3025 40.8856 19.2988 40.9988 19.2702 41.107C19.2415 41.2152 19.1887 41.3154 19.1157 41.4002C19.0426 41.485 18.9513 41.552 18.8486 41.5964C18.7458 41.6407 18.6344 41.6611 18.5226 41.656C15.818 41.5323 13.301 42.5141 11.4334 44.416C9.38334 46.5038 8.32063 49.4839 8.51788 52.5923C8.52876 52.764 8.47936 52.9341 8.37821 53.0733C8.27706 53.2125 8.13049 53.312 7.96381 53.3547C3.92758 54.3923 1.53953 57.2964 1.57647 61.1232C1.60971 64.568 3.645 67.5445 6.41536 68.2001C6.92105 68.3202 7.48952 68.2788 8.05874 68.0812C9.14731 67.7029 11.9616 67.0909 14.5768 69.5691L14.5842 69.5761C18.3261 73.2215 23.7818 73.6356 29.1807 70.6842C29.2893 70.6244 29.4113 70.5931 29.5353 70.593H29.5361Z" fill="#31241B"/>
<path d="M28.8479 71.6009L27.9374 68.0079C27.9195 67.9415 27.9267 67.8708 27.9577 67.8093C27.9887 67.7479 28.0413 67.7001 28.1054 67.675C28.1695 67.65 28.2405 67.6495 28.305 67.6736C28.3694 67.6978 28.4227 67.7449 28.4545 67.8059L30.2246 71.0623C30.2725 71.1483 30.3029 71.243 30.3141 71.3408C30.3252 71.4386 30.3168 71.5377 30.2894 71.6322C30.262 71.7268 30.2161 71.815 30.1544 71.8917C30.0927 71.9684 30.0164 72.0321 29.9299 72.0791C29.8434 72.1261 29.7484 72.1556 29.6505 72.1657C29.5526 72.1758 29.4536 72.1663 29.3594 72.1379C29.2651 72.1095 29.1774 72.0627 29.1013 72.0002C29.0253 71.9377 28.9624 71.8608 28.9162 71.7738C28.8866 71.7191 28.8637 71.6611 28.8479 71.6009Z" fill="#31241B"/>
<path d="M9.23955 65.0904L14.5804 69.5729C14.7309 69.6991 14.825 69.88 14.842 70.0757C14.8591 70.2713 14.7978 70.4658 14.6715 70.6162C14.5452 70.7666 14.3643 70.8607 14.1687 70.8778C13.973 70.8949 13.7786 70.8335 13.6282 70.7072C13.6034 70.6859 13.5798 70.6632 13.5576 70.6393L8.85613 65.4901C8.80805 65.4382 8.78162 65.3699 8.78224 65.2991C8.78285 65.2284 8.81048 65.1606 8.85945 65.1095C8.90842 65.0585 8.97505 65.0281 9.04571 65.0245C9.11636 65.021 9.1857 65.0445 9.23955 65.0904Z" fill="#31241B"/>
<path d="M52.2901 67.6282L55.9275 70.2811C56.0833 70.3984 56.1868 70.5723 56.2155 70.7653C56.2443 70.9583 56.1959 71.1548 56.0809 71.3124C55.9659 71.47 55.7936 71.5761 55.6011 71.6077C55.4085 71.6393 55.2113 71.5938 55.052 71.4812C55.0111 71.4511 54.9733 71.4171 54.939 71.3796L51.9193 68.0401C51.8741 67.9889 51.8493 67.9229 51.8496 67.8547C51.8499 67.7864 51.8752 67.7206 51.9208 67.6698C51.9664 67.619 52.029 67.5867 52.0968 67.579C52.1646 67.5714 52.2329 67.5889 52.2887 67.6282H52.2901Z" fill="#31241B"/>
<path d="M64.1659 69.2084L61.3095 71.9611C61.2392 72.029 61.1561 72.0824 61.0652 72.1182C60.9742 72.154 60.8771 72.1716 60.7793 72.1699C60.6816 72.1681 60.5851 72.1472 60.4954 72.1082C60.4058 72.0692 60.3247 72.0129 60.2568 71.9426C60.1889 71.8723 60.1355 71.7892 60.0996 71.6983C60.0638 71.6073 60.0463 71.5102 60.048 71.4124C60.0497 71.3146 60.0706 71.2182 60.1096 71.1285C60.1486 71.0389 60.2049 70.9578 60.2752 70.8899C60.3172 70.8498 60.3636 70.8147 60.4134 70.785L63.8287 68.767C63.8875 68.7321 63.9572 68.7201 64.0243 68.7332C64.0915 68.7463 64.1515 68.7836 64.1929 68.8381C64.2343 68.8926 64.2543 68.9604 64.249 69.0286C64.2436 69.0968 64.2134 69.1607 64.1641 69.2081L64.1659 69.2084Z" fill="#31241B"/>
<path d="M19.0704 40.389C20.3795 41.7653 21.9146 42.934 23.6729 43.6606C24.5538 44.027 25.4782 44.2784 26.4233 44.4086C27.3808 44.5367 28.3501 44.5519 29.3111 44.4537C29.3821 44.4474 29.4527 44.4686 29.5085 44.5129C29.5642 44.5573 29.6008 44.6213 29.6105 44.6919C29.6203 44.7624 29.6026 44.8341 29.561 44.8919C29.5194 44.9497 29.4572 44.9894 29.3872 45.0026C28.3849 45.184 27.3646 45.2468 26.3476 45.1899C25.3187 45.1285 24.3019 44.9351 23.3223 44.6144C22.3389 44.2894 21.3968 43.8508 20.515 43.3075C19.635 42.7646 18.8066 42.1422 18.0402 41.448C17.8943 41.317 17.8065 41.1334 17.796 40.9376C17.7855 40.7418 17.8532 40.5498 17.9842 40.404C18.1153 40.2581 18.2989 40.1702 18.4947 40.1598C18.6905 40.1493 18.8824 40.217 19.0283 40.348C19.042 40.3606 19.0575 40.3753 19.0704 40.389Z" fill="#31241B"/>
<path d="M8.35468 52.176C9.65823 53.8012 11.3404 55.0911 13.287 55.6744C14.2677 55.9611 15.2868 56.0939 16.3082 56.0681C16.8209 56.0581 17.3325 56.0152 17.8397 55.9396L18.028 55.9152L18.2408 55.8735C18.3778 55.8432 18.5393 55.8254 18.6896 55.8029C19.0009 55.7665 19.3146 55.7541 19.6278 55.766C20.2729 55.7828 20.9086 55.9244 21.4999 56.183C22.081 56.4437 22.6082 56.8106 23.0546 57.2649L23.3375 57.5516C23.4237 57.638 23.5125 57.7216 23.6039 57.8024C23.7857 57.9639 23.9782 58.113 24.1801 58.2486C24.5824 58.5195 25.0217 58.731 25.4844 58.8765C25.9404 59.0225 26.4186 59.0865 26.8969 59.0657C27.3853 59.0382 27.8652 58.9257 28.3149 58.7332C28.7861 58.53 29.2312 58.2711 29.6406 57.9619C30.0607 57.6362 30.4583 57.2825 30.8308 56.9033L30.836 56.8981C30.8856 56.8486 30.952 56.8197 31.0221 56.8171C31.0921 56.8146 31.1605 56.8387 31.2135 56.8846C31.2665 56.9304 31.3002 56.9946 31.3078 57.0643C31.3154 57.134 31.2964 57.2039 31.2545 57.2601C30.5866 58.1577 29.7888 59.0165 28.7335 59.5935C27.6484 60.2024 26.3739 60.3808 25.1634 60.0933L24.9377 60.0423L24.719 59.9751C24.5713 59.9304 24.4261 59.8853 24.2831 59.8273C23.9977 59.7139 23.7208 59.5801 23.4546 59.4269C23.1894 59.2746 22.9347 59.1047 22.6922 58.9183C22.5711 58.8257 22.4531 58.7292 22.3384 58.6287C22.2231 58.5304 22.1071 58.4148 22.0266 58.3468C21.3181 57.7041 20.4889 57.3159 19.5617 57.2627C19.3268 57.2501 19.0912 57.2564 18.8573 57.2815C18.7365 57.2993 18.6242 57.307 18.4927 57.3344L18.3014 57.3713L18.082 57.4012C17.5042 57.4885 16.9213 57.5379 16.337 57.549C15.161 57.5778 13.9876 57.4238 12.8589 57.0924C11.726 56.7541 10.6611 56.2018 9.71179 55.5155C8.76248 54.8292 7.92768 54.0011 7.2048 53.1072C7.14272 53.0318 7.09617 52.945 7.06787 52.8515C7.03957 52.7581 7.03006 52.66 7.03989 52.5629C7.04973 52.4658 7.07871 52.3716 7.12517 52.2857C7.17163 52.1999 7.23464 52.1241 7.31057 52.0627C7.38649 52.0014 7.47382 51.9557 7.56751 51.9283C7.66119 51.9009 7.75939 51.8923 7.8564 51.9031C7.95342 51.9138 8.04734 51.9437 8.13274 51.991C8.21814 52.0383 8.29332 52.102 8.35394 52.1785L8.35468 52.176Z" fill="#31241B"/>
<path d="M41.3835 58.1566C42.7339 58.318 44.0622 58.4805 45.3853 58.5536C46.7085 58.6268 48.0205 58.619 49.3145 58.4831C50.6071 58.3511 51.8827 58.0867 53.1213 57.6941C54.3643 57.3014 55.5673 56.7706 56.7737 56.1589H56.7756C56.8354 56.1287 56.9041 56.121 56.9692 56.1372C57.0343 56.1533 57.0914 56.1923 57.1302 56.247C57.1689 56.3017 57.1868 56.3685 57.1805 56.4352C57.1742 56.5019 57.1442 56.5642 57.0958 56.6107C56.0878 57.5774 54.8818 58.352 53.579 58.9145C52.2762 59.4771 50.8714 59.8177 49.4607 59.9488C48.0563 60.0774 46.6413 60.0264 45.2498 59.797C43.8769 59.5819 42.5328 59.2116 41.2435 58.6933C41.1809 58.6678 41.1296 58.6204 41.0992 58.56C41.0688 58.4996 41.0613 58.4303 41.0781 58.3648C41.0949 58.2993 41.1349 58.2421 41.1906 58.2038C41.2464 58.1655 41.3141 58.1487 41.3813 58.1566H41.3835Z" fill="#31241B"/>
<path d="M67.193 55.643C67.0929 55.8014 67.012 55.9108 66.9182 56.0334C66.8243 56.1561 66.7335 56.2665 66.6385 56.3792C66.5436 56.4918 66.4424 56.5982 66.3449 56.7072L66.0368 57.0178C65.6193 57.4214 65.1623 57.7822 64.6727 58.0946C64.4341 58.2575 64.174 58.3875 63.9228 58.5264C63.6576 58.642 63.4039 58.7753 63.1287 58.8629C62.5946 59.0723 62.029 59.1791 61.4727 59.2629C61.4034 59.2738 61.3325 59.2579 61.2745 59.2184C61.2164 59.179 61.1756 59.1189 61.1601 59.0505C61.1447 58.982 61.1558 58.9102 61.1913 58.8497C61.2268 58.7891 61.2839 58.7443 61.3512 58.7244L61.3715 58.7181C61.8717 58.5666 62.3626 58.4008 62.8121 58.1452C63.0433 58.0344 63.2524 57.8814 63.4689 57.7496C63.6728 57.5941 63.8822 57.4511 64.0702 57.2779C64.4547 56.9476 64.805 56.5796 65.116 56.1793L65.3409 55.8764C65.41 55.7715 65.4827 55.6696 65.5485 55.5639C65.6142 55.4583 65.6796 55.353 65.7384 55.2463C65.7971 55.1395 65.8588 55.0246 65.892 54.9456C65.9305 54.8561 65.9861 54.7751 66.0559 54.7072C66.1256 54.6393 66.2081 54.5858 66.2985 54.5497C66.3889 54.5136 66.4856 54.4957 66.583 54.497C66.6803 54.4983 66.7764 54.5187 66.8659 54.5572C66.9553 54.5956 67.0363 54.6513 67.1043 54.7211C67.1722 54.7908 67.2257 54.8732 67.2618 54.9637C67.2979 55.0541 67.3158 55.1508 67.3145 55.2481C67.3132 55.3455 67.2927 55.4416 67.2543 55.5311C67.2395 55.5656 67.2221 55.5989 67.2022 55.6308L67.193 55.643Z" fill="#31241B"/>
<path d="M39.183 94.4943C38.5736 95.3339 37.7011 96.0287 36.5187 96.4631C35.7271 96.7546 34.8713 96.8713 34.0438 96.7084C32.73 96.4476 31.7167 95.625 31.0422 94.5187C29.9182 92.6766 29.7284 90.0425 30.6393 87.8909C33.7199 89.6 37.7159 89.2554 39.3733 86.738C40.5804 88.8461 40.8482 92.2075 39.183 94.4943Z" fill="#31241B"/>
<path d="M39.1818 94.494C38.5723 95.3336 37.6999 96.0284 36.5175 96.4628C35.7259 96.7543 34.87 96.871 34.0426 96.7081C32.7287 96.4473 31.7155 95.6247 31.041 94.5184C31.6538 93.6792 32.5245 92.9862 33.7072 92.5515C34.4988 92.26 35.3524 92.1433 36.1821 92.3084C37.4956 92.5673 38.5073 93.3892 39.1818 94.494Z" fill="#E05656"/>
<path d="M34.8149 97.5196C34.5078 97.5202 34.2014 97.4907 33.9 97.4317C32.3427 97.1232 31.0328 96.1019 30.2124 94.5531C29.1331 92.5167 29.0337 89.7881 29.9587 87.6028C29.9991 87.5074 30.0591 87.4216 30.1348 87.3509C30.2106 87.2801 30.3003 87.2262 30.3983 87.1924C30.4962 87.1587 30.6002 87.1459 30.7034 87.1549C30.8066 87.164 30.9068 87.1946 30.9974 87.2449C33.8394 88.8214 37.3925 88.4033 38.7566 86.3318C38.826 86.2263 38.9213 86.1405 39.0333 86.0823C39.1454 86.0242 39.2704 85.9957 39.3966 85.9996C39.5228 86.0036 39.6458 86.0397 39.754 86.1047C39.8622 86.1697 39.952 86.2614 40.0147 86.3709C41.1845 88.4132 41.4283 91.1389 40.6356 93.3153C39.9685 95.1463 38.6329 96.475 36.773 97.1569C36.1467 97.3917 35.4839 97.5145 34.8149 97.5196ZM34.187 95.9822C34.8231 96.1082 35.5411 96.0347 36.2633 95.7698C37.7223 95.2339 38.7263 94.2376 39.2471 92.8085C39.83 91.2083 39.6638 89.4412 39.1806 88.09C37.2599 89.842 33.979 90.2014 31.0587 88.9222C30.5955 90.5601 30.7562 92.4247 31.5175 93.8612C31.9478 94.6739 32.7601 95.7 34.187 95.9822Z" fill="#31241B"/>
<path d="M28.2641 27.6764C29.2484 29.0359 30.4687 30.2076 31.8671 31.1357C39.9307 36.4858 47.2899 30.0431 48.7142 23.2583C50.4396 15.7351 43.3212 8.12989 36.7769 12.2315C29.4148 12.879 22.5975 19.8456 28.2641 27.6764Z" fill="#E05656"/>
<path d="M37.9014 33.2127C36.135 33.2127 34.068 32.7073 31.8155 31.2128C30.4068 30.2798 29.1782 29.1001 28.1885 27.7307C25.3598 23.8208 25.8743 20.5732 26.8041 18.5375C28.3728 15.1022 32.3666 12.5343 36.746 12.142C39.3545 10.5167 42.2974 10.6128 44.824 12.4095C48.1004 14.7395 49.7367 19.2094 48.8037 23.2792C47.936 27.4111 45.0615 31.0307 41.4803 32.4986C40.3453 32.9677 39.1295 33.2102 37.9014 33.2127ZM40.5949 11.175C39.3165 11.175 38.034 11.5525 36.8272 12.3101L36.8084 12.3219H36.7862C32.4619 12.702 28.5187 15.2301 26.974 18.6125C26.0646 20.6034 25.5633 23.7838 28.3407 27.6206C29.3175 28.9716 30.53 30.1353 31.92 31.0558C35.8934 33.6925 39.2759 33.2012 41.4131 32.325C44.9392 30.8793 47.7705 27.3122 48.626 23.2382C49.5436 19.2375 47.9371 14.8463 44.7198 12.5587C43.4207 11.6378 42.01 11.175 40.5949 11.175Z" fill="#31241B"/>
<g opacity="0.3">
<path opacity="0.3" d="M28.2639 27.6762C29.2476 29.036 30.4677 30.2078 31.8661 31.1358C39.9297 36.4855 47.2897 30.0421 48.7144 23.2587C48.8518 22.656 48.9355 22.0423 48.9644 21.4248C46.0212 26.1898 40.1473 29.2165 33.8408 25.0336C32.443 24.1051 31.2226 22.9337 30.2375 21.5751C28.9779 19.8338 28.3356 18.1336 28.1797 16.5382C25.7935 19.4087 25.1807 23.4146 28.2639 27.6762Z" fill="#31241B"/>
</g>
<g opacity="0.6">
<path opacity="0.6" d="M26.4336 20.6616C27.9444 16.9981 32.0988 14.4158 36.4438 14.0342C42.9871 9.93404 50.1065 17.5381 48.3815 25.0606C48.3675 25.1274 48.352 25.1954 48.3379 25.2623C48.5524 24.6808 48.7239 24.0844 48.851 23.4778C50.5753 15.9539 43.458 8.34977 36.9133 12.4517C31.9666 12.8861 27.2643 16.1744 26.4336 20.6616Z" fill="white"/>
</g>
<path d="M37.8965 33.862C36.0226 33.862 33.8333 33.3279 31.4586 31.7514C29.9854 30.7755 28.7004 29.5419 27.6654 28.1096C25.3161 24.862 24.8016 21.3673 26.2167 18.269C27.8604 14.6693 31.993 11.9706 36.5368 11.5126C39.3441 9.82674 42.492 9.9575 45.1992 11.882C48.6828 14.3594 50.4244 19.1052 49.4341 23.4229C48.5266 27.7469 45.4998 31.5493 41.7262 33.0963C40.5117 33.5985 39.2108 33.8586 37.8965 33.862ZM40.593 11.8269C39.4313 11.8269 38.2659 12.1697 37.1684 12.8579C37.0694 12.9201 36.957 12.9581 36.8404 12.9687C32.7403 13.3288 29.0095 15.7058 27.5594 18.8836C26.3578 21.5147 26.808 24.4059 28.8614 27.2446C29.7928 28.5331 30.949 29.643 32.2745 30.521C35.2325 32.4839 38.3065 32.902 41.1648 31.7303C44.4467 30.385 47.1898 26.9199 47.9898 23.1075C48.8542 19.342 47.353 15.2282 44.3426 13.0858C43.1628 12.248 41.8806 11.8269 40.5941 11.8269H40.593Z" fill="#31241B"/>
<path d="M42.5879 2.91008C41.4716 3.72272 40.4414 4.62955 39.5907 5.66677C38.74 6.704 38.07 7.87013 37.6832 9.1578C37.2869 10.441 37.1483 11.8247 37.2074 13.2262C37.2665 14.6276 37.5089 16.0471 37.8509 17.45V17.456C37.8825 17.597 37.8592 17.7448 37.7859 17.8693C37.7125 17.9939 37.5946 18.0859 37.4559 18.1267C37.3173 18.1675 37.1683 18.1541 37.0391 18.0892C36.91 18.0242 36.8104 17.9126 36.7605 17.7769C36.2725 16.3589 35.874 14.8921 35.6668 13.3639C35.4595 11.8358 35.4606 10.2441 35.7898 8.6728C36.1071 7.09924 36.7908 5.59142 37.6887 4.26571C38.5867 2.94 39.6867 1.77719 40.8595 0.745505C41.1357 0.502599 41.497 0.379347 41.8641 0.402865C42.2311 0.426383 42.5738 0.594744 42.8167 0.87091C43.0596 1.14708 43.1829 1.50843 43.1593 1.87547C43.1358 2.24251 42.9675 2.58517 42.6913 2.82808C42.6595 2.85578 42.627 2.88201 42.5934 2.90676L42.5879 2.91008Z" fill="#31241B"/>
<g opacity="0.6">
<path opacity="0.6" d="M33.166 17.2576C34.1785 20.0135 37.9222 20.3345 39.8548 17.1416C37.511 18.143 35.2493 18.4555 33.166 17.2576Z" fill="white"/>
</g>
<path d="M40.7612 16.3328C40.3412 16.9663 39.7725 17.4875 39.1049 17.8509C38.4203 18.2254 37.6595 18.439 36.8801 18.4756C36.1195 18.512 35.3585 18.4095 34.6346 18.173C33.9347 17.9483 33.2742 17.6156 32.6769 17.1872C32.6238 17.1477 32.5858 17.0914 32.5691 17.0274C32.5523 16.9635 32.5579 16.8957 32.5848 16.8353C32.6117 16.775 32.6584 16.7256 32.7172 16.6953C32.776 16.6651 32.8434 16.6557 32.9082 16.6689H32.9144C33.5978 16.8119 34.2501 16.9696 34.8987 17.0597C35.5474 17.1498 36.1801 17.1979 36.7985 17.1539C37.4153 17.1097 38.0232 16.9817 38.6055 16.7734C39.1965 16.5644 39.769 16.2637 40.3686 15.9209L40.3722 15.9187C40.4292 15.8866 40.4954 15.8746 40.56 15.8845C40.6247 15.8944 40.6842 15.9257 40.7289 15.9734C40.7737 16.021 40.8012 16.0823 40.8071 16.1475C40.8129 16.2127 40.7968 16.2779 40.7612 16.3328Z" fill="#31241B"/>
<g opacity="0.25">
<path opacity="0.25" d="M42.2086 16.987C42.5492 17.4579 42.9603 17.6024 43.4789 17.2271C43.9975 16.8518 44.2206 16.249 43.8801 15.778C43.5395 15.307 42.8429 15.2298 42.3239 15.6051C41.8049 15.9804 41.8699 16.516 42.2086 16.987Z" fill="white"/>
</g>
<g opacity="0.25">
<path opacity="0.25" d="M43.1598 20.5549C43.4771 21.786 43.8528 22.7534 44.74 22.5248C45.6273 22.2962 46.0894 21.1127 45.7721 19.8815C45.4548 18.6504 44.4792 17.8381 43.5905 18.0667C42.7018 18.2954 42.8421 19.3241 43.1598 20.5549Z" fill="white"/>
</g>
<g opacity="0.3">
<path opacity="0.3" d="M33.0225 17.0291C33.7956 14.2118 40.4803 13.4151 40.235 16.5046C37.9559 17.7653 35.556 17.9777 33.0225 17.0291Z" fill="#31241B"/>
</g>
<path d="M28.8379 35.0148C30.0731 29.2983 39.7243 27.851 43.1895 35.1699L28.8379 35.0148Z" fill="#FFC35C"/>
<path d="M43.1058 35.2094C41.1725 31.1255 37.4912 30.0155 34.6887 30.3376C31.7337 30.6786 29.4708 32.5218 28.9264 35.034L28.7461 34.997C29.3057 32.4062 31.6295 30.5061 34.6662 30.1563C37.5311 29.8238 41.2958 30.9601 43.2728 35.1322L43.1058 35.2094Z" fill="#31241B"/>
<g opacity="0.6">
<path opacity="0.6" d="M42.8862 34.5797C39.564 30.7012 33.9102 31.0336 31.2426 33.9465C30.622 34.624 29.7569 35.0255 28.8379 35.0152C30.0376 29.4567 39.1931 27.9349 42.8862 34.5797Z" fill="white"/>
</g>
<path d="M28.5664 34.9562C28.6211 34.1365 28.9007 33.3161 29.3469 32.5921L29.5183 32.3217C29.5793 32.2346 29.6461 32.1518 29.71 32.0665C29.7739 31.9812 29.8404 31.8962 29.9117 31.8168L30.1304 31.583C30.426 31.2731 30.752 30.9937 31.1037 30.7493C31.8017 30.2541 32.5868 29.8949 33.4179 29.6906C34.2431 29.4823 35.0952 29.4236 35.9367 29.4553C36.7807 29.4955 37.6165 29.6398 38.4252 29.8849C39.2341 30.1317 40.0135 30.4988 40.7006 30.9993C41.3862 31.4925 41.9769 32.1057 42.4441 32.8093C42.9051 33.503 43.2526 34.2595 43.4392 35.0507C43.4539 35.1131 43.447 35.1785 43.4198 35.2365C43.3925 35.2944 43.3464 35.3414 43.2889 35.3698C43.2315 35.3982 43.1662 35.4062 43.1036 35.3927C43.041 35.3792 42.9848 35.3448 42.9442 35.2953L42.9383 35.2879C42.4474 34.6876 41.9798 34.1188 41.4641 33.6116C40.9631 33.1093 40.4111 32.6605 39.817 32.2726C39.2308 31.8925 38.6117 31.5638 37.9505 31.3274C37.2871 31.089 36.5894 30.9603 35.8846 30.9462C35.1798 30.9233 34.4772 31.0259 33.8024 31.1977C33.127 31.3667 32.4754 31.6196 31.8628 31.9505C30.6457 32.6202 29.6465 33.6792 29.1079 35.0725V35.0755C29.0837 35.1379 29.038 35.1896 28.9789 35.2211C28.9199 35.2527 28.8515 35.2621 28.7862 35.2476C28.7208 35.233 28.6628 35.1956 28.6227 35.142C28.5826 35.0884 28.563 35.0222 28.5675 34.9554L28.5664 34.9562Z" fill="#31241B"/>
<path d="M51.2686 45.9718L64.962 29.4342C65.0702 29.3036 65.149 29.1512 65.1932 28.9874C65.2374 28.8236 65.2458 28.6522 65.218 28.4849C65.1902 28.3175 65.1268 28.1581 65.032 28.0174C64.9372 27.8767 64.8133 27.758 64.6687 27.6693L55.4079 21.9912C55.2487 21.8936 55.0715 21.829 54.8869 21.8012C54.7022 21.7734 54.5139 21.7829 54.333 21.8292C54.1521 21.8755 53.9823 21.9576 53.8337 22.0707C53.6851 22.1838 53.5607 22.3256 53.4679 22.4876L43.7783 39.4083C43.7783 39.4083 48.8388 40.4795 48.1906 45.564C48.1895 45.564 50.5927 45.4321 51.2686 45.9718Z" fill="#FFC35C"/>
<g opacity="0.6">
<path opacity="0.6" d="M64.9617 29.435L64.4719 30.026L54.8403 24.12L45.6427 40.1829C44.6616 39.5948 43.7773 39.4072 43.7773 39.4072L53.4673 22.4873C53.5602 22.3251 53.6847 22.1832 53.8334 22.0701C53.9821 21.9569 54.152 21.8747 54.3331 21.8284C54.5141 21.7821 54.7026 21.7727 54.8874 21.8006C55.0722 21.8285 55.2495 21.8932 55.4088 21.9908L64.6692 27.6704C64.8137 27.7592 64.9374 27.878 65.032 28.0187C65.1267 28.1594 65.19 28.3187 65.2177 28.486C65.2455 28.6533 65.237 28.8246 65.1928 28.9883C65.1486 29.152 65.0698 29.3043 64.9617 29.435Z" fill="white"/>
</g>
<path d="M66.0814 38.5303L55.127 48.3717L52.6684 48.4012L52.1664 47.5299L51.2695 45.9715L62.1988 32.7712L63.8481 34.5099L66.1438 36.9294C66.2467 37.0376 66.3268 37.1654 66.3795 37.3051C66.4322 37.4449 66.4564 37.5938 66.4505 37.743C66.4447 37.8922 66.409 38.0388 66.3456 38.174C66.2822 38.3092 66.1924 38.4304 66.0814 38.5303Z" fill="#FFC35C"/>
<g opacity="0.3">
<path opacity="0.3" d="M63.8472 34.5099L52.2978 47.0689C52.1441 46.9474 52.4455 47.589 52.1644 47.528L51.2676 45.9696L62.1968 32.7694L63.8472 34.5099Z" fill="#31241B"/>
</g>
<path d="M51.2684 46.7107C51.1282 46.7107 50.9909 46.6708 50.8725 46.5956C50.7541 46.5204 50.6596 46.4131 50.5999 46.2862C50.5402 46.1593 50.5179 46.018 50.5356 45.8789C50.5532 45.7398 50.6101 45.6086 50.6996 45.5006L64.3929 28.9634C64.4338 28.9142 64.4636 28.8568 64.4802 28.795C64.4969 28.7333 64.5001 28.6687 64.4896 28.6056C64.4791 28.5425 64.4551 28.4824 64.4193 28.4295C64.3835 28.3765 64.3367 28.3318 64.2821 28.2985L55.0221 22.6211C54.9471 22.5751 54.8636 22.5447 54.7766 22.5315C54.6896 22.5184 54.6008 22.5229 54.5155 22.5447C54.4303 22.5665 54.3503 22.6052 54.2802 22.6585C54.2102 22.7118 54.1516 22.7786 54.1079 22.8549L44.4183 39.7756C44.3701 39.8598 44.3058 39.9338 44.229 39.9932C44.1523 40.0526 44.0645 40.0963 43.9709 40.1218C43.8772 40.1473 43.7794 40.1541 43.6831 40.1418C43.5868 40.1295 43.4939 40.0983 43.4097 40.0501C43.3254 40.0018 43.2515 39.9374 43.1922 39.8606C43.1329 39.7838 43.0892 39.696 43.0638 39.6023C43.0384 39.5086 43.0317 39.4109 43.0441 39.3146C43.0566 39.2183 43.0878 39.1254 43.1361 39.0412L52.8258 22.1206C52.9676 21.8724 53.1579 21.6552 53.3853 21.4819C53.6127 21.3086 53.8725 21.1827 54.1495 21.1118C54.4265 21.0409 54.7148 21.0263 54.9975 21.0689C55.2802 21.1116 55.5515 21.2106 55.7952 21.36L65.056 27.0382C65.2908 27.1822 65.4919 27.375 65.6457 27.6035C65.7996 27.832 65.9025 28.0909 65.9476 28.3627C65.9927 28.6344 65.979 28.9127 65.9072 29.1786C65.8355 29.4446 65.7074 29.692 65.5317 29.9042L51.8384 46.4414C51.7692 46.5257 51.6823 46.5935 51.5837 46.6401C51.4851 46.6867 51.3775 46.7108 51.2684 46.7107Z" fill="#31241B"/>
<path d="M55.1267 49.1097C54.9772 49.1097 54.8312 49.0644 54.708 48.9797C54.5848 48.895 54.4902 48.7749 54.4366 48.6353C54.3831 48.4957 54.3732 48.3432 54.4083 48.1978C54.4433 48.0525 54.5216 47.9212 54.6328 47.8213L65.5865 37.982C65.6241 37.9482 65.6546 37.9071 65.6761 37.8613C65.6976 37.8155 65.7097 37.7658 65.7117 37.7153C65.7137 37.6647 65.7055 37.6142 65.6877 37.5668C65.6699 37.5195 65.6427 37.4761 65.6079 37.4394L61.6622 33.2824C61.5315 33.1396 61.4621 32.9512 61.4689 32.7578C61.4757 32.5643 61.5581 32.3813 61.6985 32.248C61.8388 32.1147 62.0259 32.0418 62.2194 32.045C62.413 32.0482 62.5975 32.1273 62.7334 32.2651L66.6791 36.4221C66.85 36.6021 66.9831 36.8144 67.0705 37.0467C67.1579 37.2789 67.1978 37.5264 67.1879 37.7743C67.178 38.0223 67.1185 38.2657 67.0129 38.4903C66.9073 38.7148 66.7578 38.9159 66.5731 39.0817L55.6198 48.9228C55.4841 49.0438 55.3085 49.1104 55.1267 49.1097Z" fill="#31241B"/>
<path d="M40.0965 39.7842C41.0125 39.1474 42.1923 38.8781 43.3448 38.9779C43.9256 39.0331 44.4959 39.169 45.0392 39.3816C45.5904 39.5915 46.1085 39.8796 46.5776 40.2371C47.5364 40.9578 48.2585 41.9481 48.6514 43.0813C49.0466 44.2083 49.0758 45.4269 48.8394 46.5391L47.8646 45.7235C48.3872 45.5462 48.9302 45.394 49.5176 45.3238C50.1049 45.2537 50.7535 45.2725 51.3936 45.5344C51.4723 45.5684 51.5525 45.5983 51.6289 45.6382L51.8532 45.773C52.0072 45.8569 52.1298 45.9828 52.2643 46.0925C52.3849 46.2127 52.498 46.3401 52.603 46.4741C52.6917 46.6111 52.7947 46.7474 52.8645 46.8896C53.1667 47.4589 53.3041 48.0421 53.3868 48.6051L52.4264 48.0033C52.833 47.8194 53.2731 47.7209 53.7193 47.7137C54.1825 47.7078 54.6889 47.7787 55.1536 48.0092C55.603 48.2342 55.969 48.5964 56.1986 49.0435C56.2538 49.1435 56.3007 49.2479 56.3385 49.3556C56.3787 49.4584 56.4112 49.564 56.4361 49.6715C56.4885 49.8765 56.5242 50.0856 56.5428 50.2965C56.5499 50.3616 56.5339 50.4272 56.4976 50.4818C56.4613 50.5364 56.4069 50.5765 56.3441 50.5952C56.2812 50.6138 56.2138 50.6098 56.1536 50.5838C56.0934 50.5579 56.0442 50.5116 56.0146 50.4531L56.0072 50.4387C55.8399 50.1062 55.6463 49.8048 55.4232 49.5817C55.2001 49.3586 54.956 49.2264 54.6989 49.1754C54.4418 49.1244 54.1551 49.1458 53.8519 49.209C53.5482 49.2666 53.2309 49.3567 52.8845 49.4096L52.8693 49.414C52.7757 49.4417 52.6776 49.4506 52.5805 49.4404C52.4835 49.4301 52.3894 49.4009 52.3036 49.3543C52.2179 49.3077 52.1421 49.2446 52.0808 49.1687C52.0194 49.0928 51.9735 49.0056 51.9459 48.912C51.936 48.8777 51.9283 48.8428 51.923 48.8075C51.8583 48.3583 51.7457 47.9313 51.5647 47.5933C51.3859 47.2491 51.1428 47.0304 50.8311 46.9022C50.5193 46.774 50.1152 46.7408 49.686 46.7914C49.2568 46.842 48.8047 46.965 48.3562 47.1168C48.1784 47.1869 47.98 47.1834 47.8046 47.1072C47.6293 47.031 47.4915 46.8883 47.4213 46.7105C47.3799 46.606 47.3637 46.4933 47.374 46.3814L47.3818 46.3023C47.4701 45.3741 47.3921 44.4624 47.0904 43.635C46.7866 42.8054 46.2648 42.073 45.5799 41.5148C45.232 41.2343 44.851 40.9973 44.4456 40.8093C44.0325 40.6224 43.5984 40.486 43.1527 40.4029C42.2529 40.2208 41.3158 40.2079 40.2948 40.301H40.2882C40.2254 40.3067 40.1625 40.2914 40.1092 40.2576C40.056 40.2238 40.0154 40.1733 39.9938 40.1141C39.9722 40.0548 39.9709 39.9901 39.9899 39.93C40.0089 39.8698 40.0473 39.8177 40.0991 39.7816L40.0965 39.7842Z" fill="#31241B"/>
<g opacity="0.3">
<path opacity="0.3" d="M65.2305 71.6829C65.2305 71.6829 64.3392 71.5282 62.9385 71.0579C62.3213 70.8507 61.6387 70.905 61.0835 71.2426C59.374 72.2913 57.2449 72.4409 55.637 70.9985C54.6721 70.1304 53.3014 69.8578 52.095 70.3336C50.4231 70.9959 48.6745 72.592 46.5812 74.1094C44.236 75.8086 41.3833 76.7124 38.4918 76.5654C34.8508 76.3807 31.2888 74.7034 29.5343 71.3298C23.6862 74.5301 17.963 73.9 14.0672 70.1042C11.8084 67.9648 9.43991 68.3829 8.29963 68.7785C7.63844 69.0075 6.92553 69.0788 6.24292 68.9185C6.05823 68.8753 5.88129 68.8228 5.70473 68.763C5.76752 68.1114 5.69993 67.4391 5.65745 66.7809C5.59502 65.826 5.60056 64.8095 6.09221 63.9884C7.10801 62.2984 9.62756 62.3051 11.4187 63.1329C13.4832 64.0859 15.1022 65.7747 16.976 67.0631C18.8499 68.3515 21.2923 69.2424 23.3815 68.3415C24.6167 67.8092 25.5948 66.6981 26.9157 66.434C28.8365 66.0514 30.5726 67.5791 31.8477 69.064C33.1228 70.5489 34.5778 72.0254 36.4978 72.4117C40.3213 73.1834 44.4816 72.0715 47.4116 69.4936C48.6919 68.3681 49.7435 66.9885 51.0973 65.9535C52.451 64.9185 54.2673 64.2477 55.8656 64.8394C57.4861 65.4378 58.7837 67.247 60.481 66.9135C61.919 66.6291 62.7978 64.8568 64.2639 64.8195C65.095 64.798 65.8201 65.3614 66.6305 65.5494C68.4327 65.9694 70.2105 64.3485 70.6102 62.54C71.0099 60.7315 70.4085 58.8647 69.7204 57.147C69.7451 57.1334 69.7717 57.1216 69.7961 57.1101C75.7694 62.1348 71.8148 72.2485 65.2305 71.6829Z" fill="#31241B"/>
</g>
<g opacity="0.3">
<path opacity="0.3" d="M56.0203 49.4582C56.0063 49.4322 55.9959 49.4043 55.9893 49.3755L56.0203 49.4582Z" fill="#31241B"/>
<path opacity="0.3" d="M55.9394 49.5029C55.9205 49.4681 55.9067 49.4308 55.8984 49.392L56.0754 49.3411L56.1068 49.4238L55.9394 49.5029Z" fill="#31241B"/>
</g>
<g opacity="0.3">
<path opacity="0.3" d="M66.6277 54.5986C65.7479 56.0211 64.3339 57.7383 62.2288 58.7889C58.1168 60.84 56.5115 56.9589 56.5115 56.9589C56.5115 56.9589 50.3428 60.9139 43.2138 59.1276C36.0847 57.3413 30.2318 58.0992 30.2318 58.0992C28.4522 59.716 25.2784 60.1977 22.8908 58.21C20.5031 56.2224 17.5347 56.6258 17.5347 56.6258C11.4274 56.7251 8.67438 53.9865 8.5957 53.9071C10.3263 54.7637 12.3941 54.1361 14.1896 53.4269C15.9852 52.7177 17.9388 51.9158 19.7865 52.4728C21.6962 53.049 23.1135 54.9913 25.1056 55.0703C26.6836 55.1324 28.1205 53.9732 29.6962 54.0427C31.4914 54.1217 32.8859 55.7489 34.6633 56.0196C36.6702 56.3247 38.4971 54.845 40.4951 54.4878C44.0811 53.8476 47.6275 56.8659 51.1773 56.0521C53.2957 55.5671 55.0388 53.7675 57.2118 53.7161C58.0245 53.6955 58.8235 53.9293 59.6353 53.9271C61.124 53.9204 62.6506 52.9449 62.9786 51.4936C63.3066 50.0423 62.0666 48.3594 60.5861 48.509C59.1858 48.649 57.8453 50.2059 56.6315 49.4967C56.0136 49.1362 55.9667 49.2688 55.9899 49.377L55.54 48.2013L60.6873 43.5659C64.7073 45.4195 67.0928 49.8236 66.6277 54.5986Z" fill="#31241B"/>
</g>
<g opacity="0.25">
<path opacity="0.25" d="M15.2069 60.4171C14.9617 60.9712 15.0961 61.6265 15.3632 62.1713C15.9483 63.3729 17.1192 64.2221 18.3921 64.6277C19.665 65.0333 21.0362 65.034 22.3619 64.8648C23.1328 64.7669 23.928 64.5996 24.5412 64.1239C25.1544 63.6481 25.5312 62.7845 25.2294 62.0682C24.9867 61.4924 24.3743 61.147 23.7607 61.0277C23.1472 60.9084 22.5155 60.9738 21.8905 60.9837C20.5557 61.0031 19.2294 60.7686 17.9821 60.2926C17.1174 59.9602 15.7795 59.121 15.2069 60.4171Z" fill="white"/>
</g>
<g opacity="0.25">
<path opacity="0.25" d="M30.7393 49.0736C30.4996 49.5087 30.6422 50.0266 30.9126 50.4592C31.5088 51.4122 32.6856 52.0933 33.9637 52.4254C35.2417 52.7574 36.6103 52.7704 37.9338 52.6503C38.7036 52.5805 39.497 52.456 40.1065 52.0866C40.716 51.7173 41.0835 51.0398 40.7751 50.4721C40.5268 50.0155 39.9115 49.737 39.2975 49.6373C38.6836 49.5375 38.0524 49.5826 37.4277 49.5845C36.1007 49.5881 34.7807 49.3914 33.5123 49.0012C32.6446 48.733 31.2993 48.0571 30.7393 49.0736Z" fill="white"/>
</g>
<g opacity="0.25">
<path opacity="0.25" d="M29.3675 62.2723C29.0993 63.0418 29.5267 63.9848 30.2821 64.2906C31.0375 64.5965 32.0001 64.2168 32.3429 63.478C33.294 61.4235 30.1059 60.1517 29.3675 62.2723Z" fill="white"/>
</g>
<g opacity="0.3">
<path opacity="0.3" d="M20.0039 41.7269C20.0039 41.7269 20.0663 38.1011 23.1533 37.9784C26.2402 37.8558 24.7663 43.1088 29.4774 41.8636C34.1885 40.6184 36.3919 40.5708 38.0526 42.196C39.7134 43.8213 46.0778 44.5479 45.6172 40.5497C45.6172 40.5497 49.3442 42.4073 48.1079 46.4206C48.1079 46.4206 38.1742 49.2412 28.3929 44.8445C28.3929 44.846 22.8049 44.7123 20.0039 41.7269Z" fill="#31241B"/>
</g>
<g opacity="0.3">
<path opacity="0.3" d="M43.8463 39.1407C41.2458 39.3431 39.2316 36.3286 36.6289 36.497C37.1045 36.1733 37.5084 35.7553 37.8156 35.2689C38.1228 34.7825 38.3268 34.2382 38.4148 33.6697C38.5028 33.1012 38.473 32.5207 38.3273 31.9642C38.1815 31.4077 37.9229 30.8871 37.5675 30.4347C39.0081 30.8913 40.5251 31.4993 41.7607 32.3699C44.0923 30.9482 46.5099 29.4426 47.9438 27.1184C48.2496 27.8553 49.5894 27.5325 49.8457 28.2879C49.9274 28.5291 49.8579 28.7928 49.7829 29.0362C49.3368 30.4804 48.6939 31.8563 47.8721 33.1249C46.569 35.138 44.5292 36.8431 43.8463 39.1407Z" fill="#31241B"/>
</g>
<g opacity="0.3">
<path opacity="0.3" d="M60.2359 34.2314C59.0889 35.5391 57.8846 36.7937 56.623 37.9954C55.2766 39.2776 53.727 40.5578 51.8728 40.6953C50.7118 40.7813 49.5741 40.4034 48.4375 40.1467C47.3009 39.89 46.0517 39.7666 45.0244 40.3148C45.98 40.6609 46.6907 41.5238 47.1739 42.418C47.657 43.3123 47.8705 44.3322 47.93 45.3469C47.9521 45.7266 47.9965 46.1806 48.3337 46.356C48.5498 46.4668 48.8109 46.4196 49.0492 46.3671L51.0247 45.9342C52.4774 43.3282 54.509 41.0543 56.8335 39.1837C57.6576 38.5189 58.5327 37.9086 59.2408 37.123C59.9489 36.3373 60.2559 35.2886 60.2359 34.2314Z" fill="#31241B"/>
</g>
<path d="M23.1927 47.9187L26.0288 50.9084C26.1703 51.0607 26.2456 51.2628 26.2384 51.4705C26.2311 51.6782 26.1418 51.8746 25.99 52.0166C25.8377 52.158 25.6355 52.2333 25.4278 52.226C25.2201 52.2187 25.0238 52.1293 24.8818 51.9774L22.0439 48.9899C21.9024 48.8376 21.8271 48.6354 21.8345 48.4277C21.8418 48.22 21.9312 48.0236 22.083 47.8817C22.2351 47.7395 22.4374 47.6636 22.6455 47.6705C22.8536 47.6774 23.0504 47.7667 23.1927 47.9187Z" fill="white"/>
<path d="M26.0775 63.6138L30.0092 64.8494C30.2072 64.9137 30.3716 65.0539 30.4662 65.2394C30.5608 65.4248 30.5779 65.6402 30.5138 65.8382C30.482 65.9363 30.4312 66.0271 30.3643 66.1056C30.2974 66.184 30.2157 66.2485 30.1239 66.2953C30.0321 66.3422 29.9319 66.3705 29.8292 66.3786C29.7264 66.3868 29.623 66.3746 29.525 66.3428L25.5936 65.1072C25.4956 65.0754 25.4047 65.0246 25.3263 64.9577C25.2479 64.8908 25.1834 64.8091 25.1365 64.7173C25.0897 64.6255 25.0614 64.5253 25.0532 64.4226C25.0451 64.3198 25.0573 64.2164 25.0891 64.1184C25.1208 64.0203 25.1715 63.9294 25.2384 63.851C25.3052 63.7725 25.3869 63.708 25.4787 63.6612C25.5705 63.6143 25.6706 63.586 25.7734 63.5779C25.8762 63.5698 25.9795 63.582 26.0775 63.6138Z" fill="white"/>
<path d="M58.429 64.9173L61.6478 62.3434C61.7288 62.2797 61.8217 62.2327 61.9209 62.2049C62.0202 62.1771 62.124 62.1691 62.2263 62.1814C62.3287 62.1937 62.4276 62.2261 62.5175 62.2766C62.6073 62.3272 62.6863 62.3949 62.75 62.476C62.8785 62.6397 62.9367 62.8478 62.9118 63.0544C62.887 63.261 62.781 63.4493 62.6174 63.5779L59.3986 66.1517C59.3175 66.2154 59.2247 66.2625 59.1254 66.2903C59.0261 66.3181 58.9224 66.3261 58.82 66.3137C58.7177 66.3014 58.6187 66.2691 58.5289 66.2185C58.439 66.168 58.36 66.1002 58.2964 66.0191C58.1679 65.8554 58.1097 65.6474 58.1345 65.4407C58.1594 65.2341 58.2653 65.0458 58.429 64.9173Z" fill="white"/>
<path d="M42.7982 55.1755L38.6782 55.2656C38.575 55.267 38.4726 55.2479 38.3768 55.2097C38.281 55.1714 38.1936 55.1146 38.1198 55.0426C38.0459 54.9705 37.987 54.8847 37.9464 54.7898C37.9057 54.695 37.8841 54.5931 37.8829 54.4899C37.8816 54.3868 37.9006 54.2844 37.9389 54.1886C37.9771 54.0928 38.0339 54.0054 38.1059 53.9316C38.178 53.8577 38.2639 53.7988 38.3587 53.7581C38.4535 53.7175 38.5554 53.6959 38.6586 53.6947L42.7779 53.6068C42.8811 53.6054 42.9835 53.6245 43.0793 53.6627C43.1751 53.701 43.2624 53.7578 43.3363 53.8298C43.4101 53.9019 43.4691 53.9877 43.5097 54.0826C43.5504 54.1774 43.5719 54.2793 43.5732 54.3825C43.5754 54.5903 43.495 54.7906 43.3497 54.9392C43.2044 55.0879 43.0061 55.1729 42.7982 55.1755Z" fill="#E05656"/>
<path d="M29.9102 36.6576L25.7901 36.7477C25.6869 36.7491 25.5845 36.7301 25.4887 36.6918C25.3929 36.6536 25.3056 36.5968 25.2318 36.5247C25.1579 36.4527 25.099 36.3668 25.0584 36.2719C25.0178 36.1771 24.9963 36.0752 24.9952 35.972C24.9938 35.8688 25.0128 35.7664 25.0511 35.6706C25.0893 35.5748 25.1461 35.4874 25.2181 35.4136C25.2902 35.3397 25.3761 35.2807 25.4709 35.2401C25.5658 35.1995 25.6677 35.1779 25.7709 35.1767L29.891 35.087C29.9941 35.0856 30.0966 35.1046 30.1924 35.1429C30.2882 35.1811 30.3756 35.2379 30.4494 35.3099C30.5233 35.382 30.5822 35.4679 30.6229 35.5627C30.6635 35.6576 30.685 35.7595 30.6862 35.8627C30.6876 35.9659 30.6685 36.0683 30.6302 36.1641C30.5919 36.2599 30.5351 36.3472 30.463 36.421C30.3909 36.4949 30.305 36.5538 30.2101 36.5944C30.1153 36.6349 30.0133 36.6564 29.9102 36.6576Z" fill="#E05656"/>
<path d="M59.0302 55.0105L55.3116 53.2345C55.219 53.1893 55.1362 53.1263 55.0679 53.049C54.9996 52.9718 54.9472 52.8819 54.9137 52.7844C54.8802 52.6869 54.8662 52.5838 54.8726 52.4809C54.8789 52.378 54.9055 52.2774 54.9507 52.1848C54.9959 52.0921 55.059 52.0093 55.1362 51.9411C55.2134 51.8728 55.3034 51.8204 55.4009 51.7869C55.4983 51.7534 55.6015 51.7394 55.7043 51.7458C55.8072 51.7521 55.9079 51.7786 56.0005 51.8239L59.7194 53.6002C59.8121 53.6455 59.8949 53.7085 59.9631 53.7857C60.0314 53.863 60.0838 53.9529 60.1173 54.0504C60.1508 54.1479 60.1648 54.251 60.1584 54.3539C60.1521 54.4568 60.1255 54.5574 60.0803 54.65C59.9888 54.837 59.8268 54.9801 59.6299 55.0477C59.4329 55.1153 59.2172 55.1019 59.0302 55.0105Z" fill="#E05656"/>
<path d="M42.2513 65.2795L38.5944 67.1833C38.5026 67.2301 38.4024 67.2584 38.2997 67.2665C38.1969 67.2747 38.0936 67.2625 37.9955 67.2306C37.8975 67.1988 37.8067 67.148 37.7283 67.081C37.6499 67.0141 37.5855 66.9323 37.5387 66.8405C37.4442 66.655 37.4272 66.4396 37.4915 66.2417C37.5558 66.0437 37.6961 65.8793 37.8815 65.7848L41.5384 63.881C41.7238 63.7865 41.9392 63.7695 42.1372 63.8338C42.3352 63.8981 42.4995 64.0383 42.5941 64.2238C42.6409 64.3156 42.6692 64.4158 42.6773 64.5185C42.6855 64.6213 42.6733 64.7246 42.6414 64.8227C42.6096 64.9207 42.5587 65.0115 42.4918 65.0899C42.4249 65.1683 42.3431 65.2327 42.2513 65.2795Z" fill="#FFC35C"/>
<path d="M37.4055 41.1064L33.7486 43.0102C33.6568 43.057 33.5567 43.0853 33.4539 43.0934C33.3511 43.1016 33.2478 43.0894 33.1497 43.0575C33.0517 43.0257 32.9609 42.9749 32.8825 42.9079C32.8041 42.841 32.7397 42.7592 32.6929 42.6674C32.5984 42.4819 32.5815 42.2664 32.6459 42.0685C32.7102 41.8705 32.8506 41.7062 33.0361 41.6117L36.6911 39.7079C36.8766 39.6134 37.092 39.5964 37.2899 39.6607C37.4879 39.725 37.6523 39.8653 37.7468 40.0507C37.8414 40.236 37.8586 40.4512 37.7946 40.6492C37.7306 40.8471 37.5907 41.0116 37.4055 41.1064Z" fill="#FFC35C"/>
<path d="M11.3547 61.5564L7.69786 63.4602C7.51241 63.5547 7.29701 63.5717 7.09903 63.5074C6.90106 63.4431 6.73673 63.3028 6.64217 63.1174C6.54767 62.9318 6.53073 62.7163 6.59508 62.5183C6.65943 62.3203 6.7998 62.1559 6.98533 62.0613L10.6404 60.1575C10.8259 60.063 11.0413 60.0461 11.2393 60.1105C11.4373 60.1748 11.6016 60.3152 11.696 60.5007C11.7907 60.686 11.8079 60.9012 11.7439 61.0992C11.6799 61.2971 11.5399 61.4616 11.3547 61.5564Z" fill="#FFC35C"/>
<path d="M25.3856 78.9833C24.5604 78.7927 23.7433 78.9792 23.0536 79.4472C22.1693 80.0442 21.4941 81.101 21.2766 82.4082C20.9951 84.097 21.554 85.7408 22.6015 86.6816C22.991 87.0399 23.4657 87.2926 23.9804 87.4155C25.8621 87.8525 27.7016 86.3192 28.0894 83.9906C28.4773 81.662 27.2668 79.4206 25.3856 78.9833Z" fill="white"/>
<path d="M24.6194 87.6268C24.3936 87.6267 24.1686 87.601 23.9486 87.5499C23.4106 87.4224 22.9145 87.1584 22.508 86.7835C21.3977 85.7862 20.8602 84.0593 21.1391 82.3845C21.3556 81.0861 22.0256 79.9736 22.9753 79.3316C23.7181 78.8274 24.5858 78.6552 25.4162 78.8473C27.3647 79.3002 28.625 81.6177 28.2253 84.0128C28.0078 85.32 27.3322 86.4377 26.3714 87.0786C25.8548 87.4312 25.2449 87.622 24.6194 87.6268ZM24.7472 79.0486C24.1692 79.0531 23.606 79.2317 23.1312 79.5613C22.2447 80.1612 21.6167 81.2066 21.4128 82.43C21.1491 84.0135 21.6518 85.6414 22.6938 86.5774C23.0655 86.9205 23.5193 87.1622 24.0114 87.2792C24.7587 87.4524 25.5418 87.2995 26.2177 86.8481C27.115 86.249 27.747 85.1988 27.9538 83.9669C28.3299 81.7137 27.1641 79.5377 25.3556 79.1173C25.1564 79.0718 24.9527 79.049 24.7483 79.0494L24.7472 79.0486Z" fill="#1F3443"/>
<path d="M25.386 78.9833C24.5608 78.7927 23.7438 78.9792 23.0541 79.4472C22.9459 79.5798 22.8471 79.7199 22.7586 79.8665C22.5562 80.1989 22.4103 80.6957 22.6552 80.985C22.8657 81.2336 23.2152 81.149 23.5074 81.2166C23.9876 81.3274 24.337 81.9553 24.2299 82.5205C24.1228 83.0856 23.5801 83.4787 23.1055 83.3361C22.773 83.2364 22.4454 82.9224 22.1333 83.0819C21.9035 83.1998 21.8101 83.5252 21.7794 83.8181C21.6741 84.8155 22.001 85.8361 22.5481 86.6084C22.5654 86.6332 22.585 86.6579 22.6016 86.6823C22.991 87.0408 23.4658 87.2934 23.9805 87.4163C25.8622 87.8533 27.7017 86.3199 28.0895 83.9914C28.4774 81.6628 27.2673 79.4206 25.386 78.9833Z" fill="#C8AE9D"/>
<path d="M28.3085 83.9034C28.4679 81.8459 27.3274 80.0795 25.761 79.9582C24.1947 79.8368 22.7957 81.4064 22.6363 83.464C22.4769 85.5215 23.6174 87.2878 25.1838 87.4092C26.7501 87.5305 28.1491 85.9609 28.3085 83.9034Z" fill="#31241B"/>
<path d="M23.5625 81.0988C23.2703 81.0312 22.9209 81.1158 22.7103 80.8672C22.4651 80.578 22.6114 80.0808 22.8138 79.7487C22.9023 79.6022 23.001 79.4621 23.1093 79.3295C22.2254 79.9264 21.5501 80.9828 21.3322 82.2904C21.0507 83.9789 21.61 85.623 22.6575 86.5638C22.6391 86.5402 22.6206 86.5154 22.604 86.4899C22.0584 85.7175 21.7296 84.6984 21.8349 83.6996C21.8659 83.4071 21.9594 83.0813 22.1892 82.9634C22.5013 82.8039 22.8308 83.1178 23.161 83.2176C23.6357 83.3601 24.1786 82.9668 24.2858 82.402C24.3929 81.8372 24.0434 81.2092 23.5625 81.0988Z" fill="#FFF9F2"/>
<path d="M24.7426 78.9095C24.9592 78.9096 25.1751 78.9344 25.3861 78.9834C27.2673 79.4207 28.4782 81.6625 28.0896 83.9907C27.7468 86.0519 26.2659 87.4899 24.6255 87.4899C24.4085 87.4899 24.1923 87.4651 23.9809 87.416C23.4662 87.2932 22.9914 87.0405 22.602 86.682C21.5549 85.7412 20.9956 84.0964 21.2771 82.4087C21.4946 81.1014 22.1702 80.0446 23.0542 79.4477C23.5635 79.102 24.1424 78.9099 24.7426 78.9099V78.9095ZM24.7426 78.0189C23.9773 78.0189 23.2204 78.2579 22.5537 78.7104C21.4344 79.4662 20.648 80.7612 20.3979 82.262C20.0729 84.2138 20.6894 86.1612 22.0066 87.3447C22.5071 87.8049 23.1178 88.1282 23.7796 88.2837C24.0571 88.3485 24.341 88.3814 24.6259 88.3815C26.7314 88.3815 28.5598 86.5967 28.9691 84.1374C29.1907 82.8176 28.9779 81.4741 28.3736 80.3549C27.7398 79.1814 26.7484 78.3861 25.5878 78.1161C25.3108 78.0517 25.0273 78.0191 24.743 78.0189H24.7426Z" fill="#31241B"/>
<path d="M48.5119 80.9203C47.9733 81.1361 47.4477 81.3828 46.9376 81.6591C46.4465 81.9282 45.9783 82.2371 45.5376 82.5826C45.316 82.7473 45.1217 82.9361 44.9185 83.1148L44.6382 83.4066C44.5931 83.4561 44.5421 83.5008 44.4993 83.5525L44.3722 83.7084C44.0139 84.1096 43.7443 84.5761 43.4816 85.0471L42.4023 84.0579C42.4511 84.0309 42.4817 84.0161 42.5131 83.9995C42.5445 83.9829 42.5796 83.967 42.6114 83.953C42.6757 83.9249 42.7399 83.8964 42.8027 83.8724C42.9294 83.8204 43.0561 83.7779 43.1828 83.7343C43.4357 83.6532 43.6934 83.5878 43.9544 83.5385C44.4728 83.4389 45.0021 83.4089 45.5284 83.4495C46.0507 83.4923 46.5689 83.5902 47.0502 83.7801C47.5389 83.9448 47.9826 84.2112 48.3881 84.5C48.4377 84.5351 48.4737 84.5862 48.4899 84.6448C48.5062 84.7033 48.5017 84.7656 48.4773 84.8213C48.4529 84.8769 48.41 84.9224 48.356 84.9501C48.3019 84.9777 48.2399 84.9859 48.1805 84.9732L48.1495 84.9665C47.9201 84.9178 47.7063 84.8465 47.4846 84.8048C47.263 84.763 47.0465 84.7176 46.8257 84.7006C46.3956 84.6508 45.9615 84.6467 45.5306 84.6884C45.1077 84.7236 44.6897 84.8034 44.2836 84.9266C44.1824 84.9551 44.0834 84.992 43.9836 85.0234L43.6911 85.1342C43.5958 85.1749 43.5001 85.214 43.41 85.2591C43.3634 85.2805 43.3206 85.3034 43.2777 85.3263C43.2556 85.3374 43.2345 85.3481 43.2164 85.3588L43.1721 85.3836L43.1547 85.3935C43.0129 85.4737 42.8492 85.5064 42.6875 85.4868C42.5258 85.4673 42.3746 85.3965 42.2559 85.2849C42.1373 85.1733 42.0575 85.0266 42.0281 84.8664C41.9988 84.7062 42.0214 84.5408 42.0928 84.3944C42.3883 83.7904 42.7207 83.1913 43.1813 82.6897C43.3904 82.4211 43.6538 82.205 43.8972 81.9731C44.1646 81.7688 44.4243 81.5542 44.7154 81.3894C45.2772 81.0434 45.8861 80.7804 46.5231 80.6086C47.1562 80.4424 47.7905 80.353 48.4565 80.3999C48.5163 80.4041 48.5729 80.4284 48.6172 80.4689C48.6614 80.5094 48.6906 80.5637 48.7001 80.6229C48.7095 80.6821 48.6987 80.7428 48.6693 80.7951C48.6399 80.8473 48.5936 80.8881 48.5381 80.9107L48.5119 80.9203Z" fill="#31241B"/>
</svg>
