<svg width="90" height="107" viewBox="0 0 90 107" fill="none" xmlns="http://www.w3.org/2000/svg">
<path d="M64.9933 15.3421C44.0202 -0.106107 18.0373 -0.381062 6.95447 14.7267C5.89813 16.165 5.00089 17.7141 4.27856 19.3467C-2.45911 34.5204 5.91553 56.0895 24.8658 70.0454C31.6312 75.0242 38.9172 78.4304 46.0551 80.2479C49.5842 81.145 53.0793 81.6577 56.4553 81.781C67.4248 82.1816 77.1629 78.4856 82.9015 70.6608C83.6753 69.6063 84.3639 68.4916 84.9606 67.3272C92.7882 52.1082 84.4834 29.6968 64.9933 15.3421ZM40.3376 48.955C36.6035 46.2032 35.0556 41.8819 36.6764 39.0224C36.7647 38.8617 36.864 38.7074 36.9737 38.5604C39.0538 35.7221 43.9356 35.7732 47.8774 38.6744C51.8192 41.5755 53.325 46.2314 51.2418 49.0693C50.6916 49.8193 49.9472 50.3656 49.0757 50.7123C46.6478 51.6825 43.2364 51.0896 40.3376 48.955Z" fill="#FFC35C"/>
<g opacity="0.3">
<path opacity="0.3" d="M59.5893 76.3997C56.2133 76.2763 52.7183 75.765 49.1892 74.8666C42.0513 73.0491 34.7653 69.6446 27.9999 64.664C9.0496 50.7081 0.674955 29.1395 7.41263 13.9653C7.43635 13.9115 7.46142 13.859 7.48559 13.8057C7.42427 13.8833 7.36563 13.964 7.30654 14.0429C6.57705 15.1595 5.93932 16.3336 5.39965 17.5537C-1.33802 32.727 7.03663 54.2964 25.9869 68.2524C32.7523 73.2312 40.0383 76.6374 47.1762 78.4549C50.7053 79.352 54.2004 79.8647 57.5764 79.988C68.3073 80.38 77.8574 76.8482 83.6398 69.3697C83.5405 69.5217 83.4384 69.6725 83.3364 69.8227C83.937 68.9526 84.481 68.0445 84.9648 67.1041C85.1555 66.7327 85.3341 66.3559 85.5056 65.9765C79.7061 73.3231 70.2276 76.7881 59.5893 76.3997Z" fill="#80622E"/>
</g>
<g opacity="0.3">
<path opacity="0.3" d="M53.9047 49.231C56.7408 45.315 54.881 39.116 49.7505 35.385C44.6201 31.654 38.1619 31.8039 35.3258 35.7199C32.4896 39.6358 34.3495 45.8349 39.4799 49.5658C44.6103 53.2968 51.0685 53.1469 53.9047 49.231Z" fill="#80622E"/>
</g>
<path d="M58.0624 82.8747C57.9022 82.8747 57.7433 82.8747 57.5826 82.872C46.4009 82.7536 34.5593 78.5023 24.2393 70.9013C13.9193 63.3003 6.33426 53.2445 2.8844 42.5867C-0.60709 31.8042 0.536592 21.6869 6.10283 14.098C11.6691 6.50909 20.9582 2.38879 32.276 2.51617C43.4577 2.63459 55.2992 6.88587 65.6193 14.4869C75.9393 22.0878 83.5243 32.1433 86.9742 42.8015C90.4657 53.584 89.322 63.7036 83.7557 71.2897C78.2683 78.771 69.1564 82.8742 58.0624 82.8747ZM31.7975 4.63464C21.3929 4.63464 12.8866 8.43154 7.80873 15.3548C-2.90879 29.966 5.0245 54.1173 25.4927 69.1928C45.9608 84.2683 71.3328 84.6451 82.0499 70.0343C92.7669 55.4235 84.8341 31.2717 64.3655 16.1962C54.3999 8.85631 42.9953 4.75126 32.2536 4.63778C32.1014 4.63553 31.9488 4.63464 31.7975 4.63464ZM46.5625 52.2097C44.3418 52.2097 41.8857 51.4108 39.7106 49.8086C37.6278 48.2746 36.0929 46.2333 35.3897 44.0606C34.6462 41.7636 34.9049 39.5873 36.1193 37.9321C38.5432 34.6273 44.0992 34.5775 48.5034 37.8209C52.9076 41.0643 54.519 46.3925 52.0947 49.6978C50.8677 51.3704 48.8386 52.2097 46.5625 52.2097ZM41.6323 37.5119C40.0329 37.5119 38.648 38.0663 37.8275 39.1881C37.0276 40.2785 36.8781 41.7761 37.4054 43.4044C37.9734 45.1581 39.2379 46.8249 40.9667 48.0983C44.4304 50.6497 48.6582 50.8026 50.3915 48.4401C52.1247 46.0777 50.716 42.0803 47.2522 39.5289C45.4309 38.1905 43.4004 37.5119 41.6323 37.5119Z" fill="#31241B"/>
<path d="M65.4551 14.2705C55.3441 6.82466 44.0988 2.81829 33.8374 2.26792L33.8428 2.26344C7.35359 -1.24102 1.24841 19.622 6.18797 18.6352C7.0116 18.4706 7.71796 18.4352 8.32718 18.4868C8.26541 18.7783 8.20319 19.0699 8.14813 19.3722C5.67052 33.2366 20.576 35.8673 14.9265 44.7619C9.27704 53.6565 16.4731 58.0836 22.2264 54.253L22.2667 54.2266C24.8294 52.5495 28.3249 53.5668 29.6351 56.3387C30.2837 57.7108 30.7989 59.3619 30.7389 61.0866C30.5599 66.3533 29.585 70.7123 36.7309 70.5571C38.8383 70.5122 39.7707 67.9811 39.2246 65.9263C37.9896 61.2785 44.0397 60.1724 46.3893 63.2768C46.9488 64.0164 47.3548 64.7951 47.5106 65.5348C47.755 67.7604 47.4211 70.3198 46.456 72.7343C44.1033 78.6335 40.8772 91.4228 50.3835 92.4598C59.8897 93.4969 51.1037 71.7565 58.3065 71.9906C65.5092 72.2248 66.268 75.814 72.9703 70.8931C79.6726 65.9721 83.2008 62.6789 86.054 64.1766C88.9071 65.6743 88.9389 54.3445 88.9389 54.3445C88.8239 40.7008 80.3055 25.2082 65.4551 14.2705ZM65.6843 45.7245C61.4076 51.5555 51.379 51.4483 43.2846 45.4867C36.4856 40.4792 33.2161 32.9343 34.8773 27.1921C34.9941 26.8812 37.2148 21.1713 41.4363 25.9877C45.7743 30.9378 46.5952 31.7972 51.8866 30.2206C57.178 28.644 53.9591 38.363 59.3024 39.1977C64.6458 40.0325 67.4412 40.8013 65.6843 45.7245Z" fill="#E05656"/>
<g opacity="0.3">
<path opacity="0.3" d="M22.9758 28.8593C23.0436 29.2685 23.2537 29.6403 23.569 29.909C23.8843 30.1777 24.2844 30.3257 24.6983 30.3269C24.7955 30.3269 24.8925 30.3188 24.9884 30.3027C25.2153 30.2651 25.4326 30.1831 25.6278 30.0612C25.8231 29.9394 25.9924 29.7802 26.1262 29.5927C26.26 29.4053 26.3556 29.1932 26.4075 28.9687C26.4594 28.7442 26.4667 28.5116 26.4288 28.2843L25.7167 23.9738C25.6791 23.7464 25.5973 23.5287 25.4757 23.333C25.3541 23.1374 25.1952 22.9677 25.0081 22.8336C24.8211 22.6996 24.6094 22.6038 24.3854 22.5517C24.1613 22.4997 23.9292 22.4924 23.7023 22.5304C23.2443 22.6068 22.8352 22.8623 22.5651 23.2408C22.295 23.6193 22.1859 24.0898 22.2619 24.5488L22.9758 28.8593Z" fill="#31241B"/>
<path opacity="0.3" d="M43.6119 20.6538H43.6508C43.9969 20.6463 44.3331 20.5362 44.6167 20.3372C44.9003 20.1383 45.1186 19.8596 45.2441 19.5362C45.3696 19.2129 45.3965 18.8596 45.3215 18.5209C45.2465 18.1823 45.0729 17.8735 44.8227 17.6337L41.6732 14.6128C41.3378 14.2913 40.8888 14.1165 40.4248 14.1266C39.9607 14.1368 39.5198 14.3312 39.1987 14.6671C38.8783 15.0034 38.7041 15.4533 38.7143 15.9181C38.7244 16.3829 38.9181 16.8247 39.2529 17.1466L42.4028 20.1676C42.7276 20.4807 43.1612 20.655 43.6119 20.6538Z" fill="#31241B"/>
<path opacity="0.3" d="M64.7171 37.1617C64.7928 36.9441 64.8247 36.7137 64.811 36.4837C64.7972 36.2537 64.7381 36.0288 64.637 35.8219L62.7292 31.8931C62.5218 31.4821 62.1615 31.1693 61.726 31.0223C61.2905 30.8753 60.8147 30.9058 60.4015 31.1073C59.9882 31.3088 59.6706 31.6651 59.5173 32.0992C59.364 32.5333 59.3872 33.0104 59.5819 33.4275L61.4897 37.3563C61.6411 37.6682 61.8814 37.928 62.1802 38.103C62.479 38.278 62.8228 38.3603 63.1683 38.3395C63.5138 38.3187 63.8453 38.1956 64.121 37.986C64.3967 37.7763 64.6041 37.4895 64.7171 37.1617Z" fill="#31241B"/>
<path opacity="0.3" d="M33.8925 45.3712C33.4304 45.3299 32.9709 45.474 32.6146 45.7717C32.2583 46.0694 32.0344 46.4966 31.9919 46.9595L31.598 51.3103C31.5561 51.7735 31.6995 52.2344 31.9966 52.5916C32.2938 52.9488 32.7204 53.1732 33.1826 53.2153C33.2367 53.2202 33.2905 53.2225 33.3442 53.2225C33.7804 53.2216 34.2005 53.0575 34.5223 52.7623C34.8441 52.4672 35.0443 52.0623 35.0836 51.627L35.4776 47.2761C35.5195 46.8129 35.376 46.352 35.0788 45.9947C34.7815 45.6375 34.3548 45.4132 33.8925 45.3712Z" fill="#31241B"/>
<path opacity="0.3" d="M24.0022 39.0922L20.311 41.417C19.9181 41.6645 19.6393 42.0582 19.5361 42.5116C19.4328 42.965 19.5135 43.4409 19.7604 43.8347C20.0074 44.2284 20.4003 44.5078 20.8528 44.6112C21.3052 44.7147 21.7802 44.6338 22.1732 44.3864L25.8647 42.0616C26.0631 41.9408 26.2355 41.7818 26.3719 41.5936C26.5083 41.4055 26.606 41.192 26.6593 40.9657C26.7126 40.7394 26.7205 40.5047 26.6825 40.2753C26.6444 40.0459 26.5612 39.8263 26.4377 39.6295C26.3142 39.4326 26.1529 39.2623 25.9631 39.1284C25.7733 38.9946 25.5588 38.9 25.3322 38.85C25.1055 38.8 24.8712 38.7956 24.6429 38.8372C24.4145 38.8788 24.1967 38.9655 24.0022 39.0922Z" fill="#31241B"/>
<path opacity="0.3" d="M59.348 63.2957C59.1008 62.9023 58.7079 62.6233 58.2555 62.5198C57.8032 62.4164 57.3284 62.497 56.9353 62.744L53.2437 65.0693C52.8584 65.3202 52.587 65.713 52.4882 66.1628C52.3894 66.6125 52.4711 67.0832 52.7157 67.4731C52.9602 67.863 53.3481 68.1408 53.7953 68.2466C54.2426 68.3525 54.7135 68.2777 55.1063 68.0386L58.7979 65.7134C59.1903 65.4655 59.4686 65.0717 59.5717 64.6185C59.6749 64.1653 59.5944 63.6896 59.348 63.2957Z" fill="#31241B"/>
<path opacity="0.3" d="M66.805 51.5882C66.6349 51.1555 66.3002 50.8082 65.8746 50.6227C65.449 50.4372 64.9673 50.4287 64.5355 50.5991C64.1037 50.7695 63.7571 51.1049 63.572 51.5314C63.3869 51.9578 63.3784 52.4405 63.5485 52.8732L65.146 56.9384C65.3161 57.3711 65.6507 57.7184 66.0764 57.9039C66.2871 57.9957 66.5138 58.0451 66.7436 58.0491C66.9734 58.0531 67.2017 58.0118 67.4155 57.9274C67.6293 57.843 67.8245 57.7173 67.9898 57.5573C68.1551 57.3974 68.2874 57.2064 68.379 56.9952C68.4707 56.784 68.5199 56.5568 68.524 56.3266C68.528 56.0964 68.4867 55.8676 68.4025 55.6533L66.805 51.5882Z" fill="#31241B"/>
<path opacity="0.3" d="M53.7009 22.921L57.8897 24.132C58.1105 24.1959 58.3417 24.2156 58.57 24.19C58.7984 24.1644 59.0195 24.094 59.2207 23.9828C59.4219 23.8715 59.5992 23.7217 59.7426 23.5418C59.8861 23.3619 59.9927 23.1554 60.0565 22.9342C60.1202 22.713 60.1399 22.4813 60.1144 22.2525C60.0888 22.0237 60.0185 21.8021 59.9075 21.6005C59.7965 21.3989 59.647 21.2212 59.4674 21.0775C59.2879 20.9338 59.0818 20.8269 58.8611 20.763L54.6722 19.552C54.2264 19.4237 53.748 19.4778 53.3419 19.7023C52.9358 19.9269 52.6351 20.3037 52.5057 20.75C52.3776 21.1967 52.4314 21.6761 52.6554 22.083C52.8795 22.49 53.2554 22.7913 53.7009 22.921Z" fill="#31241B"/>
<path opacity="0.3" d="M74.6295 42.1516L70.4411 40.9406C70.2194 40.8734 69.9866 40.8511 69.7561 40.8748C69.5257 40.8985 69.3023 40.9677 69.0988 41.0786C68.8953 41.1895 68.7158 41.3397 68.5706 41.5206C68.4255 41.7015 68.3177 41.9095 68.2534 42.1325C68.1891 42.3554 68.1696 42.589 68.196 42.8196C68.2224 43.0502 68.2943 43.2732 68.4074 43.4758C68.5205 43.6783 68.6726 43.8564 68.8549 43.9996C69.0372 44.1428 69.246 44.2483 69.4693 44.31L73.6582 45.5211C74.1017 45.6424 74.575 45.584 74.9758 45.3585C75.3767 45.1329 75.6729 44.7585 75.8005 44.3159C75.9281 43.8734 75.8768 43.3983 75.6577 42.9933C75.4386 42.5883 75.0693 42.286 74.6295 42.1516Z" fill="#31241B"/>
<path opacity="0.3" d="M82.401 58.3589C82.0861 58.018 81.649 57.8162 81.1857 57.7979C80.7225 57.7795 80.2709 57.9461 79.9301 58.2611L76.7296 61.2273C76.4756 61.4628 76.297 61.7684 76.2162 62.1056C76.1355 62.4427 76.1564 62.7963 76.2761 63.1216C76.3959 63.4469 76.6092 63.7294 76.8891 63.9332C77.169 64.1371 77.5029 64.2533 77.8487 64.267C77.8719 64.267 77.8952 64.267 77.9185 64.267C78.3587 64.2679 78.7828 64.1013 79.1052 63.801L82.3061 60.8344C82.6456 60.5183 82.8462 60.0803 82.864 59.6163C82.8818 59.1523 82.7153 58.7001 82.401 58.3589Z" fill="#31241B"/>
<path opacity="0.3" d="M68.615 34.4052C68.9164 34.6326 69.2834 34.7555 69.6607 34.7555C69.745 34.7555 69.8292 34.7495 69.9127 34.7375L74.2287 34.1181C74.6824 34.0457 75.0896 33.7974 75.3622 33.4268C75.6348 33.0563 75.7511 32.5931 75.686 32.1374C75.6208 31.6816 75.3794 31.2699 75.0139 30.9909C74.6484 30.712 74.1881 30.5882 73.7323 30.6464L69.4163 31.2658C69.0736 31.315 68.7531 31.4649 68.4954 31.6966C68.2377 31.9283 68.0544 32.2313 67.9686 32.5674C67.8829 32.9035 67.8985 33.2576 68.0135 33.5848C68.1286 33.912 68.3379 34.1976 68.615 34.4056V34.4052Z" fill="#31241B"/>
<path opacity="0.3" d="M43.2071 52.5331L40.0737 55.5707C39.8248 55.8117 39.6529 56.1213 39.5797 56.4603C39.5064 56.7993 39.5352 57.1524 39.6622 57.475C39.7893 57.7976 40.009 58.0752 40.2936 58.2727C40.5781 58.4702 40.9147 58.5787 41.2608 58.5844H41.2908C41.745 58.5855 42.1815 58.4084 42.507 58.091L45.6404 55.0539C45.9684 54.7293 46.1554 54.2882 46.1607 53.8262C46.166 53.3643 45.9892 52.9189 45.6687 52.5868C45.3482 52.2548 44.9099 52.0628 44.449 52.0527C43.9881 52.0425 43.5418 52.215 43.2071 52.5327V52.5331Z" fill="#31241B"/>
<path opacity="0.3" d="M28.0873 11.8017C27.9587 11.6056 27.7921 11.4373 27.5974 11.3068C27.4028 11.1764 27.1839 11.0864 26.9539 11.0423C26.7239 10.9981 26.4874 11.0007 26.2584 11.0499C26.0294 11.099 25.8125 11.1937 25.6207 11.3284C25.4289 11.463 25.2661 11.6349 25.1418 11.8338C25.0175 12.0327 24.9343 12.2546 24.8971 12.4863C24.86 12.718 24.8697 12.9548 24.9255 13.1827C24.9814 13.4106 25.0824 13.6249 25.2224 13.813L27.7233 17.3919C27.8522 17.5874 28.0189 17.755 28.2135 17.8849C28.4082 18.0147 28.6268 18.1042 28.8565 18.1479C29.0862 18.1917 29.3223 18.1888 29.5509 18.1396C29.7795 18.0904 29.996 17.9957 30.1874 17.8613C30.3789 17.7268 30.5416 17.5553 30.6658 17.3567C30.79 17.1582 30.8732 16.9368 30.9106 16.7055C30.9479 16.4742 30.9386 16.2378 30.8833 16.0101C30.8279 15.7825 30.7275 15.5683 30.5881 15.3802L28.0873 11.8017Z" fill="#31241B"/>
</g>
<g style="mix-blend-mode:multiply" opacity="0.2">
<path d="M22.1931 7.87456C22.1331 8.47605 21.8565 9.02776 21.4872 9.5059C18.4921 13.3853 22.2204 22.188 17.305 22.615C12.3475 23.0451 12.6904 11.8594 15.9684 8.22442C20.1076 3.63359 22.4688 5.10885 22.1931 7.87456Z" fill="#E05656"/>
</g>
<g style="mix-blend-mode:multiply" opacity="0.2">
<path d="M77.5986 45.3806C77.5986 45.3806 77.8922 51.7261 71.223 55.2109C64.5538 58.6956 77.3403 60.8791 81.0793 54.0357C84.8183 47.1923 78.394 41.4985 77.5986 45.3806Z" fill="#E05656"/>
</g>
<g opacity="0.5">
<path opacity="0.5" d="M89.3881 54.1218C89.2699 40.4763 80.7529 24.9832 65.9011 14.0451C64.0789 12.7012 62.1896 11.4513 60.2404 10.3002C59.8883 10.0909 59.5351 9.8868 59.1809 9.68794C59.1809 9.63905 59.1809 9.59061 59.1809 9.54172C58.1066 8.97925 57.0244 8.45445 55.9342 7.96734C52.6404 6.33208 49.2049 5.0007 45.6702 3.98967C41.813 2.89074 37.9849 2.24394 34.2834 2.04479L34.2888 2.03896C25.9034 0.929715 19.5619 2.26323 14.9639 4.57232C19.0198 3.54382 23.924 3.18992 29.774 3.96365L29.7682 3.96634C34.3985 4.21394 39.2163 5.12986 44.0511 6.71232C44.3734 6.81728 44.6958 6.92537 45.0184 7.03661C44.4911 9.47399 46.3429 12.2249 49.5963 13.5405C52.5086 14.7165 55.6657 14.3864 57.5372 12.9053C58.0582 13.2181 58.5772 13.5382 59.094 13.8657C60.4611 14.7328 61.8102 15.6564 63.1415 16.6363C78.8169 28.1836 87.8102 44.5356 87.9333 58.9392C87.9333 58.9392 87.9248 61.3106 87.6513 63.8018C89.3652 62.1593 89.3881 54.1218 89.3881 54.1218Z" fill="white"/>
</g>
<path d="M51.0168 93.5581C50.7669 93.5578 50.5172 93.5437 50.2688 93.516C47.5383 93.2182 45.524 92.021 44.2885 89.9577C41.0334 84.5303 44.3722 75.1029 45.4729 72.343C46.3355 70.1815 46.6869 67.828 46.4644 65.7077C46.34 65.1695 46.0231 64.5505 45.5459 63.9198C44.5164 62.5612 42.5061 62.2948 41.2724 62.8994C40.255 63.3973 39.9009 64.3504 40.2474 65.6557C40.6668 67.2332 40.3673 69.0135 39.4864 70.1905C38.8149 71.0875 37.8432 71.5957 36.7559 71.6195C34.0737 71.676 32.2053 71.1234 31.0428 69.9263C29.3418 68.1725 29.4761 65.4319 29.6185 62.5307C29.6422 62.0485 29.6664 61.5547 29.6834 61.0505C29.7281 59.7278 29.3906 58.2951 28.6807 56.7925C28.4314 56.2687 28.073 55.8045 27.6296 55.4311C27.1863 55.0577 26.6682 54.7838 26.1104 54.6278C25.5634 54.4708 24.9892 54.4329 24.4264 54.5169C23.8636 54.6008 23.3253 54.8046 22.8477 55.1145L22.819 55.1334C19.6015 57.2742 15.781 57.2177 13.524 54.9988C11.0751 52.5919 11.2662 48.5519 14.0357 44.1921C16.4233 40.4328 14.6624 38.1592 11.999 34.718C9.27204 31.1956 5.88977 26.8268 7.04331 19.5712C6.83337 19.5963 6.61717 19.6304 6.39559 19.6748C5.44439 19.8645 4.60508 19.5496 4.08763 18.8113C3.07286 17.3585 3.56257 14.53 5.33472 11.6055C6.52809 9.63596 9.36336 5.95388 14.9265 3.42231C20.2769 0.988524 26.6883 0.243943 33.9828 1.20921L34.0025 1.2119C44.8297 1.81698 56.2182 6.14586 66.083 13.4122C80.7119 24.1862 89.8762 39.8668 90.0002 54.3341C90.0002 54.4368 89.9912 56.5978 89.7419 58.9406C89.2562 63.509 88.3126 64.6281 87.544 65.0923C86.9379 65.4588 86.2356 65.4664 85.5655 65.1148C83.7329 64.1517 80.98 66.22 76.4201 69.645C75.5297 70.3134 74.6094 71.005 73.6 71.7469C68.733 75.3209 66.5673 74.7382 63.5696 73.9317C62.1623 73.5527 60.5665 73.1244 58.2769 73.049C57.6627 73.0297 57.3744 73.2437 57.2106 73.4078C56.0799 74.5319 56.1681 78.1875 56.246 81.4125C56.3516 85.7818 56.4604 90.3004 54.165 92.4144C53.3364 93.1755 52.2813 93.5581 51.0168 93.5581ZM42.7232 60.4692C44.3561 60.4692 46.0947 61.1344 47.2326 62.6379C47.9215 63.5485 48.3633 64.4496 48.5463 65.3175C48.5535 65.3516 48.5589 65.386 48.5625 65.4207C48.8342 67.8944 48.4353 70.6323 47.4389 73.1302C45.4541 78.1063 43.913 85.213 46.1032 88.8651C46.9935 90.3502 48.4309 91.1818 50.4976 91.4074C51.4783 91.5137 52.2079 91.3334 52.7285 90.8543C54.3172 89.3912 54.2155 85.1807 54.1256 81.4655C54.0289 77.4573 53.9376 73.6711 55.716 71.9039C56.3991 71.2248 57.2827 70.8974 58.3413 70.9323C60.8753 71.0149 62.6717 71.498 64.1157 71.8864C66.8122 72.6121 68.2974 73.0118 72.3462 70.0397C73.3476 69.3046 74.2634 68.6165 75.1488 67.9509C80.3583 64.0378 83.51 61.6713 86.5185 63.2241C87.2289 62.5374 87.8703 58.4126 87.8829 54.343C87.7647 40.5432 78.9303 25.5108 64.8301 15.1248C55.2612 8.07683 44.2348 3.887 33.7832 3.32812C33.7209 3.32459 33.6591 3.31574 33.5983 3.30165C18.1104 1.2895 9.2895 7.81847 6.43946 14.0348C5.42111 16.256 5.67447 17.4702 5.83651 17.6155C5.83651 17.611 5.88709 17.6155 5.98378 17.5976C6.84904 17.4249 7.66819 17.3697 8.41797 17.4325C8.56766 17.4451 8.71297 17.4894 8.84423 17.5626C8.97549 17.6358 9.0897 17.7361 9.17925 17.857C9.26881 17.9778 9.33167 18.1164 9.36364 18.2635C9.39562 18.4105 9.39598 18.5627 9.3647 18.71L9.35843 18.74C9.30113 19.0091 9.24339 19.281 9.19326 19.5622C8.02092 26.1212 11.0236 29.9998 13.6727 33.4221C16.4175 36.9656 19.0102 40.3162 15.8213 45.335C13.6279 48.7887 13.3235 51.8352 15.0057 53.4886C16.5178 54.9746 19.3087 54.9239 21.6427 53.3733L21.6914 53.341C22.422 52.8658 23.2456 52.5529 24.1069 52.4233C24.9681 52.2938 25.8471 52.3505 26.6847 52.5897C27.5335 52.8279 28.3215 53.2456 28.9957 53.8146C29.6699 54.3836 30.2147 55.0907 30.5934 55.8883C31.4497 57.6999 31.8548 59.4622 31.7988 61.1259C31.7814 61.639 31.7541 62.1436 31.7322 62.6366C31.6077 65.169 31.4998 67.3561 32.5598 68.4483C33.2903 69.2005 34.6484 69.5441 36.7098 69.5002C37.1525 69.4907 37.507 69.2997 37.7939 68.9171C38.2935 68.2514 38.4582 67.1606 38.2035 66.2029C37.6005 63.9324 38.421 61.9368 40.3449 60.9949C41.0392 60.6522 41.8669 60.4692 42.7232 60.4692ZM56.0808 51.0682C51.7545 51.0682 46.9358 49.4929 42.6565 46.3415C35.6565 41.1859 32.0392 33.1898 33.8597 26.8968C33.8673 26.8707 33.8758 26.8447 33.8857 26.8192C34.0925 26.2674 35.2442 23.4941 37.6207 23.059C39.1426 22.7805 40.6909 23.5309 42.2312 25.2878C46.4483 30.0998 46.8892 30.6022 51.5866 29.204C52.7223 28.8654 53.6945 28.9269 54.4761 29.3862C55.8534 30.1962 56.2558 31.9931 56.6453 33.7312C57.2191 36.2959 57.6958 37.8726 59.4653 38.1493C63.0127 38.7033 65.6108 39.2424 66.737 41.1406C67.4644 42.367 67.4465 43.9369 66.681 46.0813C66.6462 46.1774 66.5978 46.268 66.5374 46.3505C64.2303 49.4961 60.4008 51.0682 56.0808 51.0682ZM35.8825 27.5283C34.3324 32.9781 37.6283 40.0045 43.9116 44.6321C51.4635 50.194 60.7625 50.4421 64.7401 45.2192C65.2222 43.8158 65.28 42.8352 64.9192 42.2248C64.2683 41.1272 61.9174 40.6791 59.1412 40.2454C55.8176 39.7264 55.1018 36.5296 54.5795 34.1959C54.2894 32.8996 53.9895 31.5593 53.4049 31.2158C53.1497 31.0659 52.7411 31.0731 52.19 31.2373C46.1945 33.0234 45.0186 31.6809 40.6413 26.6873C39.9434 25.8911 38.9184 24.9756 38.0003 25.1456C36.9416 25.3381 36.1265 26.8967 35.8825 27.5283Z" fill="#31241B"/>
<g opacity="0.3">
<path opacity="0.3" d="M60.2413 39.3487L59.957 39.3038L60.2413 39.3487Z" fill="#31241B"/>
<path opacity="0.3" d="M66.1633 42.6559L66.1602 42.6394L66.1633 42.6559Z" fill="#31241B"/>
<path opacity="0.3" d="M61.1204 39.5042L60.9297 39.4692L61.1204 39.5042Z" fill="#31241B"/>
<path opacity="0.3" d="M60.6887 39.4258L60.4648 39.3872L60.6887 39.4258Z" fill="#31241B"/>
<path opacity="0.3" d="M59.7807 39.2729C59.6231 39.2472 59.4635 39.222 59.3018 39.1971C59.4638 39.2223 59.6234 39.2475 59.7807 39.2729Z" fill="#31241B"/>
<path opacity="0.3" d="M63.98 40.2683L63.9131 40.2411L63.98 40.2683Z" fill="#31241B"/>
<path opacity="0.3" d="M40.6272 25.1688C40.5299 25.0829 40.4341 25.0028 40.3398 24.9283C40.4329 25.0028 40.5287 25.0829 40.6272 25.1688Z" fill="#31241B"/>
<path opacity="0.3" d="M41.4351 25.9875C41.3169 25.8529 41.201 25.7291 41.0859 25.6107C41.201 25.7291 41.3169 25.8529 41.4351 25.9875Z" fill="#31241B"/>
<path opacity="0.3" d="M66.1924 43.5523C66.1924 43.5412 66.1924 43.53 66.1947 43.5189C66.1938 43.53 66.1928 43.5412 66.1924 43.5523Z" fill="#31241B"/>
<path opacity="0.3" d="M66.1957 42.938C66.1957 42.9299 66.1957 42.9219 66.1934 42.9138C66.1943 42.9214 66.1948 42.9299 66.1957 42.938Z" fill="#31241B"/>
<path opacity="0.3" d="M64.2544 40.388L64.2051 40.3649L64.2544 40.388Z" fill="#31241B"/>
<path opacity="0.3" d="M62.6881 39.8483L62.5654 39.8164L62.6881 39.8483Z" fill="#31241B"/>
<path opacity="0.3" d="M63.037 39.9445C63.0007 39.9342 62.9644 39.9234 62.9277 39.9136C62.9631 39.9234 63.0007 39.9342 63.037 39.9445Z" fill="#31241B"/>
<path opacity="0.3" d="M63.6857 40.1546L63.6025 40.1248L63.6857 40.1546Z" fill="#31241B"/>
<path opacity="0.3" d="M63.3697 40.0462L63.2734 40.0157L63.3697 40.0462Z" fill="#31241B"/>
<path opacity="0.3" d="M61.9376 39.6689C61.8871 39.6576 61.8351 39.6469 61.7832 39.6361C61.8351 39.6464 61.8871 39.6576 61.9376 39.6689Z" fill="#31241B"/>
<path opacity="0.3" d="M64.5068 40.5129L64.4775 40.4973L64.5068 40.5129Z" fill="#31241B"/>
<path opacity="0.3" d="M61.5374 39.5856L61.3633 39.551L61.5374 39.5856Z" fill="#31241B"/>
<path opacity="0.3" d="M62.3209 39.7563L62.1826 39.7245L62.3209 39.7563Z" fill="#31241B"/>
<path opacity="0.3" d="M40.2862 24.8867C40.1846 24.8087 40.0848 24.7378 39.9863 24.6719C40.0853 24.7383 40.1846 24.8087 40.2862 24.8867Z" fill="#31241B"/>
<path opacity="0.3" d="M66.1006 44.2343C66.1006 44.2242 66.1049 44.2137 66.1068 44.2036C66.1049 44.2137 66.1025 44.2228 66.1006 44.2343Z" fill="#31241B"/>
<path opacity="0.3" d="M40.6875 25.2239C40.7945 25.3208 40.9037 25.4257 41.0138 25.5379C40.9037 25.4275 40.7949 25.3208 40.6875 25.2239Z" fill="#31241B"/>
<path opacity="0.3" d="M38.8919 24.1568C38.8323 24.1407 38.7726 24.1268 38.7129 24.1151C38.7714 24.1268 38.8311 24.1407 38.8919 24.1568Z" fill="#31241B"/>
<path opacity="0.3" d="M38.5829 24.0927C38.5247 24.0846 38.467 24.0779 38.4102 24.0739C38.467 24.0779 38.5234 24.0846 38.5829 24.0927Z" fill="#31241B"/>
<path opacity="0.3" d="M38.3003 24.0675C38.2332 24.0675 38.166 24.0675 38.1016 24.0675C38.166 24.0657 38.2332 24.0657 38.3003 24.0675Z" fill="#31241B"/>
<path opacity="0.3" d="M66.0215 44.5977C66.0215 44.5902 66.0252 44.5832 66.0266 44.5762C66.0252 44.5832 66.0234 44.5902 66.0215 44.5977Z" fill="#31241B"/>
<path opacity="0.3" d="M39.9024 24.6202C39.8062 24.5587 39.7113 24.5013 39.6182 24.451C39.7113 24.499 39.8062 24.5565 39.9024 24.6202Z" fill="#31241B"/>
<path opacity="0.3" d="M39.5555 24.4169C39.479 24.3774 39.4029 24.342 39.3281 24.3097C39.4029 24.342 39.479 24.3774 39.5555 24.4169Z" fill="#31241B"/>
<path opacity="0.3" d="M39.2403 24.2716C39.1564 24.2384 39.074 24.2094 38.9932 24.1846C39.074 24.2091 39.1564 24.2381 39.2403 24.2716Z" fill="#31241B"/>
<path opacity="0.3" d="M66.1572 43.8849C66.1572 43.8738 66.1605 43.8627 66.1618 43.8516C66.1605 43.8632 66.1586 43.8738 66.1572 43.8849Z" fill="#31241B"/>
<g style="mix-blend-mode:multiply" opacity="0.5">
<path d="M34.0535 57.6205C34.1116 55.8963 33.5978 54.2448 32.9492 52.8731C31.639 50.1007 28.1434 49.0834 25.5808 50.761L25.5409 50.7874C19.7871 54.6157 12.5911 50.1904 18.2406 41.2963C23.8901 32.4021 8.98457 29.7688 11.4626 15.9088C11.5163 15.6056 11.5786 15.3145 11.6417 15.0229C11.0325 14.9718 10.3261 15.0072 9.50248 15.1714C7.28763 15.6128 7.29568 11.6607 10.3646 7.4834C4.15872 12.5739 3.35343 19.2042 6.18825 18.6391C7.01189 18.4754 7.71824 18.4395 8.32746 18.4911C8.26569 18.7826 8.20347 19.0742 8.14841 19.3765C5.6708 33.2409 20.5763 35.8716 14.9268 44.7662C9.27732 53.6608 16.4734 58.0879 22.2267 54.2573L22.267 54.2309C24.8297 52.5538 28.3252 53.5711 29.6354 56.3431C30.2835 57.7152 30.7992 59.3662 30.7392 61.0909C30.5602 66.3577 29.5852 70.7161 36.7312 70.5614C38.4514 70.5242 39.3874 68.8323 39.3771 67.0942C32.9621 66.9627 33.8807 62.7168 34.0535 57.6205Z" fill="#E05656"/>
</g>
<path opacity="0.3" d="M38.3004 24.0676C38.3371 24.0676 38.3738 24.0712 38.411 24.0739C38.4678 24.0779 38.5256 24.0846 38.5838 24.0927C38.6259 24.099 38.6688 24.1066 38.7118 24.1151C38.7715 24.1268 38.8312 24.1407 38.8908 24.1568C38.924 24.1658 38.9571 24.1743 38.9907 24.1847C39.0715 24.2092 39.1539 24.2382 39.2378 24.2717C39.2669 24.2833 39.2968 24.2968 39.3273 24.3098C39.402 24.3421 39.4781 24.3775 39.5547 24.417L39.6182 24.4488C39.7113 24.4991 39.8062 24.5565 39.9025 24.6179L39.9853 24.6718C40.0838 24.7377 40.1836 24.8063 40.2852 24.8866C40.3027 24.9001 40.3201 24.9149 40.3371 24.9283C40.4317 25.0028 40.5275 25.0829 40.6245 25.1688C40.6455 25.1871 40.6666 25.2051 40.6876 25.2239C40.7951 25.3208 40.9038 25.4258 41.0139 25.5379L41.0856 25.6119C41.2006 25.7303 41.3165 25.8541 41.4347 25.9887C45.7727 30.9388 46.5936 31.7982 51.885 30.2216C57.1764 28.645 53.9575 38.364 59.3008 39.1987C59.4629 39.2238 59.6225 39.2491 59.7798 39.2745L59.9562 39.3032L60.2404 39.3481L60.4642 39.3866L60.688 39.4252L60.9289 39.4701L61.1195 39.505C61.2019 39.5203 61.2825 39.536 61.363 39.5499L61.5372 39.5844C61.62 39.601 61.701 39.6181 61.782 39.6351C61.834 39.6459 61.8859 39.6567 61.9365 39.6679C62.0197 39.6863 62.1012 39.7047 62.1822 39.7235L62.3205 39.7553C62.4029 39.7751 62.4839 39.7953 62.5645 39.8154L62.6871 39.8473C62.7689 39.8682 62.8492 39.89 62.9279 39.9128C62.9647 39.9226 63.0009 39.9334 63.0372 39.9437C63.1172 39.967 63.1959 39.9908 63.2735 40.015L63.3698 40.0455C63.4485 40.0713 63.5258 40.0974 63.6016 40.124L63.684 40.1536C63.7614 40.1819 63.838 40.2106 63.9123 40.2402L63.9785 40.2671C64.0551 40.2985 64.1307 40.3308 64.2023 40.364L64.2511 40.3869C64.3281 40.4223 64.4033 40.4586 64.4749 40.4963L64.5027 40.5111C64.5806 40.5524 64.6567 40.5946 64.7296 40.6381C65.4458 41.0655 65.9159 41.6222 66.1065 42.3847C66.1267 42.4663 66.1433 42.5507 66.1571 42.6368L66.1598 42.6511C66.1726 42.7354 66.1825 42.822 66.1894 42.9108C66.1894 42.9185 66.1894 42.9261 66.1916 42.9337C66.1979 43.0234 66.2005 43.1131 66.201 43.2028V43.2315C66.201 43.3233 66.1976 43.4178 66.1907 43.515C66.1907 43.5258 66.1907 43.5365 66.1885 43.5473C66.1813 43.6448 66.1712 43.7448 66.158 43.8474C66.158 43.8581 66.1549 43.8689 66.1535 43.8797C66.1397 43.9837 66.1227 44.09 66.1025 44.1995C66.1025 44.2089 66.0985 44.2188 66.0967 44.2282C66.0757 44.3403 66.0519 44.4525 66.0233 44.5722C66.0233 44.579 66.0202 44.5857 66.0184 44.5929C65.9893 44.714 65.957 44.8382 65.9203 44.966C67.125 44.289 68.1727 43.3637 68.9942 42.251C70.7516 37.3278 67.9557 36.559 62.6119 35.7243C57.2682 34.8896 60.4875 25.171 55.1961 26.7476C49.9047 28.3242 49.0838 27.4653 44.7458 22.5147C40.5247 17.6978 38.3036 23.4082 38.1872 23.7191C38.1541 23.833 38.1263 23.9492 38.0977 24.0644C38.1661 24.0658 38.2333 24.0658 38.3004 24.0676Z" fill="#31241B"/>
<path opacity="0.3" d="M66.1934 43.5191C66.1996 43.4222 66.2031 43.3277 66.2037 43.2356C66.2031 43.3274 66.1996 43.4219 66.1934 43.5191Z" fill="#31241B"/>
<path opacity="0.3" d="M66.1936 42.9133C66.187 42.8236 66.1772 42.737 66.1641 42.6536C66.1772 42.7379 66.187 42.8245 66.1936 42.9133Z" fill="#31241B"/>
<path opacity="0.3" d="M66.1611 43.8515C66.174 43.7489 66.1841 43.6489 66.1916 43.5514C66.1844 43.6489 66.1743 43.7489 66.1611 43.8515Z" fill="#31241B"/>
<path opacity="0.3" d="M66.1609 42.6395C66.1471 42.5534 66.1305 42.4691 66.1104 42.3875C66.1305 42.4691 66.1475 42.5534 66.1609 42.6395Z" fill="#31241B"/>
<path opacity="0.3" d="M64.2043 40.3641C64.1309 40.3309 64.0552 40.2986 63.9805 40.2672C64.0552 40.2995 64.1309 40.3318 64.2043 40.3641Z" fill="#31241B"/>
<path opacity="0.3" d="M64.7328 40.6391C64.6598 40.5943 64.5837 40.5535 64.5059 40.5122C64.5837 40.5535 64.6598 40.5956 64.7328 40.6391Z" fill="#31241B"/>
<path opacity="0.3" d="M64.4777 40.4988C64.4052 40.4612 64.33 40.4248 64.2539 40.3894C64.33 40.4235 64.4052 40.4598 64.4777 40.4988Z" fill="#31241B"/>
<path opacity="0.3" d="M65.9238 44.97C65.9605 44.8422 65.9928 44.7179 66.0219 44.5968C65.9928 44.7179 65.9628 44.8422 65.9238 44.97Z" fill="#31241B"/>
<path opacity="0.3" d="M66.1055 44.2036C66.1256 44.0942 66.1426 43.9879 66.1565 43.8838C66.1413 43.9879 66.1256 44.0942 66.1055 44.2036Z" fill="#31241B"/>
<path opacity="0.3" d="M66.0264 44.5765C66.0546 44.4589 66.0787 44.3446 66.0998 44.2324C66.0787 44.3446 66.0546 44.4589 66.0264 44.5765Z" fill="#31241B"/>
<path opacity="0.3" d="M39.3298 24.31C39.3002 24.297 39.2702 24.2835 39.2402 24.2719C39.2689 24.2835 39.2989 24.297 39.3298 24.31Z" fill="#31241B"/>
<path opacity="0.3" d="M38.711 24.1152C38.6663 24.1067 38.6251 24.0991 38.583 24.0928C38.6251 24.0991 38.6681 24.1067 38.711 24.1152Z" fill="#31241B"/>
<path opacity="0.3" d="M38.9924 24.1847C38.9588 24.1744 38.9257 24.1658 38.8926 24.1569C38.9266 24.1658 38.9588 24.1744 38.9924 24.1847Z" fill="#31241B"/>
<path opacity="0.3" d="M39.987 24.6725L39.9033 24.6182L39.987 24.6725Z" fill="#31241B"/>
<path opacity="0.3" d="M39.6199 24.449L39.5557 24.4169L39.6199 24.449Z" fill="#31241B"/>
<path opacity="0.3" d="M63.9129 40.241C63.8385 40.2114 63.762 40.1827 63.6846 40.1544C63.762 40.1845 63.8385 40.2114 63.9129 40.241Z" fill="#31241B"/>
<path opacity="0.3" d="M40.3376 24.9288C40.3204 24.9153 40.3028 24.9003 40.2852 24.8867C40.3028 24.9003 40.3204 24.9153 40.3376 24.9288Z" fill="#31241B"/>
<path opacity="0.3" d="M64.7324 40.6388C65.4486 41.0667 65.9186 41.6224 66.1093 42.3854C65.9177 41.6229 65.4473 41.0663 64.7324 40.6388Z" fill="#31241B"/>
<path opacity="0.3" d="M41.0146 25.5366L41.087 25.6114L41.0146 25.5366Z" fill="#31241B"/>
<path opacity="0.3" d="M38.4094 24.0739C38.3722 24.0712 38.3355 24.0685 38.2988 24.0676C38.3351 24.0685 38.3722 24.0712 38.4094 24.0739Z" fill="#31241B"/>
<path opacity="0.3" d="M66.1953 42.9363C66.2013 43.0242 66.2044 43.1139 66.2047 43.2054C66.2043 43.1143 66.2016 43.0242 66.1953 42.9363Z" fill="#31241B"/>
<path opacity="0.3" d="M62.1833 39.7243C62.1022 39.7055 62.0208 39.6871 61.9375 39.6687C62.0208 39.6871 62.1022 39.7055 62.1833 39.7243Z" fill="#31241B"/>
<path opacity="0.3" d="M62.5653 39.8162C62.4847 39.796 62.4037 39.7758 62.3213 39.7561C62.4037 39.7758 62.4847 39.796 62.5653 39.8162Z" fill="#31241B"/>
<path opacity="0.3" d="M40.6887 25.2245C40.6675 25.2055 40.6462 25.1874 40.625 25.1688C40.6462 25.1874 40.6675 25.2037 40.6887 25.2245Z" fill="#31241B"/>
<path opacity="0.3" d="M63.2744 40.016C63.1971 39.9918 63.1184 39.968 63.0381 39.9447C63.1184 39.968 63.1971 39.9918 63.2744 40.016Z" fill="#31241B"/>
<path opacity="0.3" d="M63.602 40.1249C63.5265 40.098 63.4492 40.0718 63.3701 40.0464C63.4489 40.0721 63.5262 40.0983 63.602 40.1249Z" fill="#31241B"/>
<path opacity="0.3" d="M62.9283 39.9156C62.8495 39.8932 62.7693 39.8713 62.6875 39.8501C62.769 39.8707 62.8495 39.8914 62.9283 39.9156Z" fill="#31241B"/>
<path opacity="0.3" d="M61.782 39.6364C61.7009 39.6193 61.6199 39.6023 61.5371 39.5857C61.6204 39.6018 61.7009 39.6193 61.782 39.6364Z" fill="#31241B"/>
<path opacity="0.3" d="M60.465 39.387L60.2412 39.3484L60.465 39.387Z" fill="#31241B"/>
<path opacity="0.3" d="M59.9566 39.3018L59.7803 39.2731L59.9566 39.3018Z" fill="#31241B"/>
<path opacity="0.3" d="M60.9293 39.4693L60.6885 39.4244L60.9293 39.4693Z" fill="#31241B"/>
<path opacity="0.3" d="M61.3636 39.5508C61.283 39.5351 61.2025 39.5194 61.1201 39.506C61.2025 39.5194 61.283 39.5351 61.3636 39.5508Z" fill="#31241B"/>
<g style="mix-blend-mode:multiply" opacity="0.5">
<path d="M76.2851 67.4267C69.8192 72.1745 69.9047 69.0414 62.3581 68.562L62.2126 68.5534C48.0045 67.629 52.3953 78.6828 52.5439 85.8743C52.6921 93.0909 46.248 90.7222 46.248 90.7222C46.248 90.7222 49.5864 93.4435 53.0752 91.9278C56.564 90.4122 55.1791 81.1628 55.8469 76.0181C56.5148 70.8733 58.6455 72.009 58.6455 72.009C65.5318 72.3427 66.3765 75.7377 72.9696 70.8957C79.6723 65.9748 83.2001 62.6816 86.0532 64.1793C87.3751 64.8731 88.0908 62.8139 88.4794 60.4034C85.7703 59.897 82.3106 63.0027 76.2851 67.4267Z" fill="#E05656"/>
</g>
</g>
<path d="M24.2291 21.8768C23.8942 21.9323 23.5951 22.1188 23.3975 22.3953C23.1999 22.6718 23.12 23.0156 23.1753 23.3511L23.8875 27.6612C23.943 27.9966 24.1291 28.2963 24.4051 28.4942C24.681 28.6921 25.0241 28.7721 25.3589 28.7166C25.6937 28.661 25.9927 28.4745 26.1902 28.198C26.3878 27.9215 26.4676 27.5777 26.4121 27.2422L25.7004 22.9322C25.673 22.7661 25.6132 22.607 25.5244 22.464C25.4356 22.3211 25.3196 22.1971 25.1829 22.0991C25.0463 22.001 24.8917 21.931 24.7281 21.8928C24.5644 21.8547 24.3948 21.8492 24.2291 21.8768Z" fill="#A38DBF"/>
<path d="M25.149 29.2055C24.7347 29.2046 24.3342 29.0568 24.0183 28.7883C23.7025 28.5197 23.4917 28.1478 23.4234 27.7383L22.7112 23.4279C22.6368 22.9696 22.7467 22.5004 23.017 22.1233C23.2873 21.7461 23.6957 21.4917 24.1529 21.4159C24.61 21.3401 25.0785 21.449 25.4557 21.7188C25.8328 21.9886 26.0877 22.3972 26.1647 22.8551L26.8764 27.1656C26.9177 27.4167 26.9039 27.6738 26.8362 27.9191C26.7684 28.1644 26.6481 28.392 26.4838 28.5861C26.3194 28.7802 26.1149 28.9361 25.8844 29.0431C25.654 29.15 25.403 29.2055 25.149 29.2055ZM24.4382 22.333C24.3932 22.3329 24.3483 22.3365 24.3039 22.3437C24.0923 22.3791 23.9033 22.4972 23.7784 22.672C23.6536 22.8468 23.603 23.0641 23.6378 23.2763L24.35 27.5867C24.3673 27.6918 24.4052 27.7923 24.4613 27.8827C24.5175 27.9731 24.5909 28.0515 24.6773 28.1134C24.7637 28.1754 24.8614 28.2197 24.9649 28.2438C25.0683 28.2679 25.1756 28.2714 25.2804 28.2539C25.3852 28.2365 25.4855 28.1986 25.5757 28.1423C25.6659 28.0861 25.7441 28.0126 25.806 27.926C25.8678 27.8394 25.912 27.7415 25.9361 27.6378C25.9601 27.5341 25.9636 27.4267 25.9462 27.3217L25.2345 23.0112C25.2029 22.8222 25.1057 22.6504 24.9599 22.5263C24.8142 22.4022 24.6294 22.3337 24.4382 22.333Z" fill="#31241B"/>
<path d="M39.9863 13.8715C39.8701 13.9931 39.7789 14.1365 39.7179 14.2934C39.657 14.4503 39.6275 14.6178 39.6312 14.7861C39.6348 14.9545 39.6716 15.1205 39.7393 15.2746C39.807 15.4288 39.9043 15.568 40.0257 15.6845L43.1752 18.7054C43.4212 18.9359 43.748 19.06 44.0847 19.0506C44.4214 19.0413 44.7408 18.8994 44.9737 18.6556C45.2067 18.4118 45.3343 18.0858 45.3289 17.7484C45.3236 17.4109 45.1857 17.0892 44.9451 16.8529L41.7952 13.832C41.6739 13.7155 41.5308 13.6241 41.3742 13.5631C41.2177 13.502 41.0506 13.4725 40.8826 13.4761C40.7146 13.4798 40.549 13.5166 40.3952 13.5844C40.2414 13.6523 40.1025 13.7498 39.9863 13.8715Z" fill="#A38DBF"/>
<path d="M44.0606 19.5319C43.6102 19.5325 43.1771 19.3584 42.852 19.0461L39.7021 16.0252C39.3673 15.7033 39.1737 15.2616 39.1635 14.7968C39.1534 14.3321 39.3276 13.8823 39.6479 13.5461C39.8064 13.3791 39.9964 13.2453 40.2068 13.1525C40.4173 13.0596 40.644 13.0096 40.874 13.0051C41.3376 12.9973 41.7858 13.1718 42.1224 13.4914L45.2719 16.5123C45.5243 16.7542 45.6986 17.0662 45.7724 17.4083C45.8463 17.7503 45.8163 18.1067 45.6863 18.4315C45.5563 18.7563 45.3322 19.0347 45.043 19.2308C44.7537 19.4269 44.4125 19.5317 44.0633 19.5319H44.0606ZM40.327 14.1978C40.1788 14.3532 40.0983 14.5612 40.103 14.776C40.1077 14.9909 40.1972 15.1951 40.352 15.3438L43.5015 18.3652C43.6567 18.5136 43.8644 18.5943 44.0789 18.5895C44.2934 18.5847 44.4972 18.4948 44.6457 18.3396C44.7191 18.2627 44.7767 18.1721 44.8152 18.0729C44.8537 17.9737 44.8723 17.8678 44.87 17.7614C44.8677 17.655 44.8445 17.5501 44.8017 17.4527C44.7589 17.3552 44.6973 17.2672 44.6206 17.1936L41.4706 14.1727C41.3939 14.0991 41.3034 14.0413 41.2044 14.0028C41.1054 13.9642 40.9998 13.9455 40.8936 13.9479C40.7874 13.9502 40.6827 13.9735 40.5855 14.0164C40.4882 14.0593 40.4004 14.1209 40.327 14.1978Z" fill="#31241B"/>
<path d="M61.0436 30.3858C60.7385 30.5347 60.505 30.7988 60.3943 31.1202C60.2836 31.4416 60.3047 31.7939 60.4532 32.0997L62.3605 36.0284C62.5134 36.3267 62.7767 36.553 63.0941 36.6591C63.4115 36.7651 63.7577 36.7424 64.0586 36.5958C64.3594 36.4492 64.591 36.1903 64.7038 35.8747C64.8165 35.559 64.8014 35.2117 64.6617 34.9071L62.754 30.9783C62.6805 30.8268 62.578 30.6913 62.4523 30.5796C62.3266 30.4678 62.1801 30.382 62.0213 30.327C61.8625 30.2719 61.6944 30.2488 61.5266 30.2589C61.3588 30.269 61.1947 30.3121 61.0436 30.3858Z" fill="#A38DBF"/>
<path d="M63.5141 37.2209C63.1854 37.2211 62.8633 37.1287 62.5845 36.9543C62.3057 36.7798 62.0815 36.5302 61.9376 36.2341L60.0298 32.3053C59.8268 31.8871 59.7979 31.4052 59.9495 30.9656C60.101 30.5261 60.4207 30.1649 60.838 29.9614C61.2554 29.758 61.7363 29.7291 62.1749 29.8809C62.6136 30.0328 62.9741 30.3531 63.1771 30.7713L65.0849 34.6996C65.2147 34.9667 65.2746 35.2624 65.259 35.5591C65.2435 35.8558 65.1529 36.1436 64.9959 36.3956C64.8388 36.6475 64.6205 36.8554 64.3613 36.9996C64.1021 37.1438 63.8106 37.2196 63.5141 37.22V37.2209ZM61.6032 30.7278C61.4807 30.7281 61.3598 30.7562 61.2496 30.8099C61.1541 30.8564 61.0686 30.9213 60.9982 31.001C60.9277 31.0806 60.8736 31.1734 60.8389 31.274C60.8043 31.3746 60.7897 31.481 60.7961 31.5872C60.8025 31.6935 60.8298 31.7974 60.8763 31.8931L62.7836 35.8219C62.829 35.9194 62.8933 36.007 62.9728 36.0794C63.0523 36.1518 63.1453 36.2077 63.2466 36.2437C63.3478 36.2797 63.4552 36.2951 63.5625 36.2891C63.6697 36.2831 63.7747 36.2557 63.8713 36.2086C63.9679 36.1615 64.0542 36.0956 64.1251 36.0147C64.196 35.9339 64.2502 35.8397 64.2844 35.7376C64.3186 35.6356 64.3322 35.5277 64.3244 35.4204C64.3165 35.313 64.2875 35.2083 64.2388 35.1123L62.3311 31.1839C62.2645 31.0472 62.1611 30.9319 62.0324 30.8512C61.9037 30.7705 61.755 30.7276 61.6032 30.7273V30.7278Z" fill="#31241B"/>
<path d="M34.298 44.7199C33.9604 44.6898 33.6246 44.7951 33.3644 45.0129C33.1043 45.2306 32.941 45.5429 32.9104 45.8812L32.5169 50.232C32.5018 50.3997 32.5197 50.5687 32.5697 50.7294C32.6198 50.8902 32.7009 51.0394 32.8085 51.1688C32.9161 51.2981 33.048 51.4049 33.1968 51.4831C33.3456 51.5613 33.5083 51.6093 33.6756 51.6245C34.0136 51.6552 34.3498 51.5501 34.6104 51.3324C34.871 51.1147 35.0346 50.8021 35.0653 50.4635L35.4592 46.1126C35.4744 45.9448 35.4564 45.7755 35.4062 45.6146C35.3561 45.4537 35.2747 45.3043 35.1669 45.1749C35.059 45.0456 34.9268 44.9388 34.7777 44.8607C34.6286 44.7826 34.4656 44.7348 34.298 44.7199Z" fill="#A38DBF"/>
<path d="M33.7892 52.1014C33.7368 52.1014 33.6836 52.0991 33.6298 52.0942C33.1676 52.0521 32.741 51.8278 32.4439 51.4705C32.1467 51.1133 32.0033 50.6524 32.0452 50.1892L32.4391 45.8384C32.4811 45.3752 32.7049 44.9477 33.0613 44.6499C33.2379 44.5024 33.4416 44.3912 33.661 44.3227C33.8804 44.2541 34.1111 44.2295 34.34 44.2503C34.5689 44.2711 34.7914 44.3369 34.9949 44.4439C35.1984 44.5508 35.3789 44.6969 35.5261 44.8738C35.6732 45.0507 35.7842 45.2548 35.8526 45.4747C35.921 45.6945 35.9456 45.9257 35.9248 46.1551L35.5309 50.5059C35.491 50.9414 35.2903 51.3463 34.9682 51.6414C34.6461 51.9365 34.2256 52.1005 33.7892 52.1014ZM34.1804 45.1858C33.9785 45.1856 33.7838 45.2612 33.6347 45.3977C33.4855 45.5342 33.3928 45.7216 33.3747 45.9232L32.9808 50.274C32.9673 50.485 33.0366 50.6928 33.1738 50.8533C33.311 51.0138 33.5054 51.1143 33.7155 51.1334C33.9255 51.1524 34.1347 51.0886 34.2985 50.9554C34.4623 50.8222 34.5677 50.6302 34.5922 50.4202L34.9857 46.0694C34.9953 45.9634 34.984 45.8565 34.9523 45.7548C34.9207 45.6532 34.8694 45.5588 34.8014 45.477C34.7333 45.3953 34.6498 45.3277 34.5557 45.2783C34.4616 45.2289 34.3587 45.1985 34.2529 45.1889C34.2291 45.1866 34.2052 45.1856 34.1813 45.1858H34.1804Z" fill="#31241B"/>
<path d="M26.4644 38.7733C26.2838 38.4854 25.9965 38.2811 25.6656 38.2054C25.3347 38.1297 24.9873 38.1888 24.6999 38.3696L21.0088 40.6948C20.7215 40.8758 20.5177 41.1637 20.4422 41.4952C20.3667 41.8267 20.4258 42.1747 20.6063 42.4625C20.7869 42.7504 21.0742 42.9546 21.4051 43.0303C21.7359 43.1059 22.0831 43.0467 22.3704 42.8658L26.062 40.5437C26.2046 40.454 26.3281 40.3371 26.4254 40.1995C26.5228 40.062 26.5922 39.9065 26.6296 39.7421C26.667 39.5777 26.6716 39.4075 26.6433 39.2412C26.6149 39.075 26.5542 38.916 26.4644 38.7733Z" fill="#FFC35C"/>
<path d="M21.6934 43.5336C21.3137 43.5341 20.9441 43.4108 20.6405 43.1823C20.3368 42.9539 20.1156 42.6326 20.0102 42.2671C19.9048 41.9015 19.9209 41.5116 20.0561 41.156C20.1913 40.8005 20.4382 40.4986 20.7596 40.2961L24.4508 37.9713C24.8438 37.7243 25.3186 37.6437 25.7709 37.7471C26.2232 37.8504 26.6161 38.1293 26.8635 38.5225C27.1099 38.9164 27.1904 39.3921 27.0872 39.8453C26.9841 40.2985 26.7058 40.6923 26.3133 40.9402L22.6222 43.2654C22.3441 43.4409 22.0221 43.5339 21.6934 43.5336ZM25.3805 38.6445C25.2286 38.6444 25.0798 38.6873 24.9512 38.7683L21.2601 41.0931C21.0783 41.2076 20.9494 41.3897 20.9016 41.5994C20.8539 41.8091 20.8912 42.0292 21.0054 42.2113C21.1196 42.3935 21.3013 42.5227 21.5106 42.5705C21.7199 42.6184 21.9396 42.581 22.1213 42.4666L25.8125 40.1413C25.9939 40.0266 26.1227 39.8445 26.1704 39.6349C26.2181 39.4253 26.181 39.2053 26.0672 39.0231C25.9938 38.9069 25.8923 38.8114 25.772 38.7453C25.6518 38.6792 25.5167 38.6449 25.3796 38.6454L25.3805 38.6445Z" fill="#31241B"/>
<path d="M59.3977 62.4252C59.3083 62.2826 59.1918 62.159 59.0548 62.0615C58.9177 61.9641 58.7629 61.8946 58.5991 61.8571C58.4353 61.8196 58.2657 61.8149 58.1 61.8431C57.9343 61.8713 57.7758 61.9319 57.6336 62.0215L53.942 64.3467C53.6611 64.5306 53.4636 64.8177 53.3919 65.1462C53.3202 65.4746 53.3801 65.8181 53.5586 66.1028C53.7372 66.3874 54.0202 66.5904 54.3467 66.668C54.6732 66.7456 55.017 66.6916 55.3041 66.5177L58.9953 64.1924C59.2825 64.0115 59.4862 63.7237 59.5617 63.3923C59.6371 63.0609 59.5781 62.713 59.3977 62.4252Z" fill="#A38DBF"/>
<path d="M54.6263 67.1869C54.2464 67.1876 53.8766 67.0643 53.5727 66.8358C53.2689 66.6074 53.0475 66.286 52.9419 65.9203C52.8364 65.5547 52.8525 65.1645 52.9877 64.8088C53.1229 64.453 53.37 64.1511 53.6916 63.9484L57.3832 61.6236C57.5777 61.501 57.7944 61.418 58.021 61.3794C58.2475 61.3407 58.4795 61.3472 58.7035 61.3984C58.9276 61.4496 59.1394 61.5445 59.3268 61.6777C59.5142 61.811 59.6736 61.9799 59.7959 62.1749C60.0423 62.5688 60.1228 63.0445 60.0196 63.4977C59.9165 63.9509 59.6382 64.3446 59.2458 64.5925L55.5542 66.9178C55.2765 67.0936 54.9547 67.1869 54.6263 67.1869ZM58.3125 62.2978C58.1607 62.2981 58.012 62.3413 57.8836 62.4225L54.1912 64.7459C54.1012 64.8026 54.0232 64.8764 53.9618 64.9632C53.9003 65.0501 53.8564 65.1482 53.8328 65.252C53.8091 65.3558 53.8061 65.4632 53.8239 65.5682C53.8417 65.6731 53.8799 65.7736 53.9365 65.8637C53.993 65.9539 54.0667 66.032 54.1533 66.0936C54.24 66.1552 54.3379 66.1991 54.4415 66.2228C54.545 66.2465 54.6523 66.2495 54.757 66.2317C54.8618 66.2139 54.962 66.1756 55.0519 66.1189L58.7435 63.7941C58.892 63.7003 59.006 63.5606 59.0684 63.3961C59.1308 63.2317 59.1381 63.0514 59.0893 62.8824C59.0405 62.7134 58.9383 62.5648 58.7979 62.4592C58.6575 62.3535 58.4867 62.2964 58.3111 62.2965L58.3125 62.2978Z" fill="#31241B"/>
<path d="M65.1583 49.9183C65.0019 49.98 64.8593 50.0719 64.7384 50.1889C64.6175 50.3058 64.5208 50.4455 64.4538 50.5999C64.3868 50.7543 64.3508 50.9204 64.3479 51.0888C64.3449 51.2571 64.3751 51.4244 64.4367 51.5811L66.0343 55.6462C66.159 55.9626 66.4039 56.2164 66.7153 56.3518C67.0267 56.4871 67.379 56.493 67.6948 56.3681C68.0105 56.2432 68.2638 55.9977 68.3989 55.6857C68.534 55.3737 68.5399 55.0206 68.4152 54.7042L66.8145 50.64C66.6899 50.3246 66.4456 50.0716 66.1352 49.9363C65.8248 49.801 65.4735 49.7946 65.1583 49.9183Z" fill="#FFC35C"/>
<path d="M67.2233 56.9286C66.8717 56.9285 66.5282 56.8225 66.2375 56.6244C65.9468 56.4263 65.7223 56.1452 65.593 55.8175L63.9954 51.7524C63.8258 51.3199 63.8342 50.8377 64.0188 50.4114C64.2034 49.9851 64.5491 49.6496 64.9802 49.4783C65.4117 49.3076 65.8933 49.3156 66.3189 49.5007C66.7445 49.6858 67.0793 50.0327 67.2497 50.4651L68.8472 54.5298C68.9518 54.7955 68.99 55.0829 68.9585 55.3668C68.927 55.6507 68.8267 55.9226 68.6664 56.1589C68.5061 56.3951 68.2906 56.5885 68.0387 56.7223C67.7868 56.856 67.5061 56.9261 67.221 56.9263L67.2233 56.9286ZM65.3271 50.3556C65.2283 50.3946 65.138 50.4528 65.0616 50.5267C64.9852 50.6007 64.9241 50.689 64.8817 50.7866C64.8393 50.8843 64.8166 50.9893 64.8147 51.0958C64.8129 51.2022 64.832 51.308 64.871 51.407L66.4686 55.4722C66.5475 55.672 66.7022 55.8323 66.8989 55.918C67.0956 56.0036 67.3181 56.0077 67.5178 55.9292C67.7174 55.8503 67.8775 55.6953 67.9631 55.4982C68.0488 55.301 68.0528 55.0779 67.9744 54.8778L66.3763 50.8127C66.3374 50.7136 66.2794 50.6232 66.2056 50.5467C66.1318 50.4701 66.0437 50.4088 65.9462 50.3664C65.8488 50.3239 65.744 50.3011 65.6377 50.2993C65.5315 50.2974 65.426 50.3166 65.3271 50.3556Z" fill="#31241B"/>
<path d="M53.4054 19.7594C53.3115 20.0861 53.3511 20.4368 53.5153 20.7343C53.6795 21.0319 53.9549 21.2518 54.2809 21.3459L58.4698 22.5569C58.7941 22.6456 59.1402 22.6029 59.4333 22.4379C59.7264 22.273 59.943 21.9991 60.0362 21.6755C60.1295 21.3519 60.0919 21.0045 59.9317 20.7084C59.7714 20.4123 59.5013 20.1913 59.1798 20.0931L54.9913 18.882C54.8297 18.8351 54.6604 18.8206 54.4932 18.8394C54.326 18.8581 54.1641 18.9097 54.0168 18.9911C53.8695 19.0726 53.7396 19.1824 53.6347 19.3143C53.5298 19.4461 53.4519 19.5973 53.4054 19.7594Z" fill="#FFC35C"/>
<path d="M58.8222 23.0815C58.6582 23.0814 58.495 23.0581 58.3374 23.0125L54.1485 21.8014C53.703 21.6719 53.327 21.3706 53.1028 20.9636C52.8787 20.5566 52.8248 20.0772 52.9529 19.6305C53.0824 19.1841 53.3832 18.8073 53.7893 18.5826C54.1955 18.358 54.6739 18.3038 55.1199 18.432L59.3088 19.643C59.7141 19.7601 60.0635 20.02 60.2928 20.3748C60.522 20.7296 60.6157 21.1554 60.5565 21.5739C60.4972 21.9924 60.2891 22.3754 59.9705 22.6523C59.6518 22.9293 59.244 23.0815 58.8222 23.0811V23.0815ZM53.8571 19.8906C53.7978 20.0972 53.8227 20.3189 53.9263 20.5071C54.03 20.6953 54.2039 20.8346 54.4099 20.8945L58.5984 22.1055C58.8021 22.1572 59.0178 22.1274 59.2 22.0226C59.3822 21.9178 59.5166 21.746 59.5747 21.5437C59.6328 21.3414 59.6102 21.1244 59.5115 20.9385C59.4129 20.7526 59.2459 20.6125 59.046 20.5477L54.8571 19.3367C54.651 19.2772 54.4297 19.3021 54.2419 19.406C54.054 19.5098 53.915 19.6841 53.8553 19.8906H53.8571Z" fill="#31241B"/>
<path d="M69.1733 41.1465C69.0791 41.4732 69.1183 41.824 69.2823 42.1218C69.4462 42.4196 69.7215 42.6399 70.0475 42.7343L74.2364 43.9454C74.5607 44.034 74.9068 43.9913 75.1999 43.8264C75.493 43.6614 75.7096 43.3876 75.8028 43.0639C75.8961 42.7403 75.8585 42.3929 75.6983 42.0968C75.538 41.8007 75.2679 41.5797 74.9464 41.4815L70.7579 40.2705C70.4319 40.1761 70.0817 40.2154 69.7846 40.3796C69.4874 40.5439 69.2675 40.8197 69.1733 41.1465Z" fill="#A38DBF"/>
<path d="M74.5898 44.4682C74.4258 44.4682 74.2626 44.4451 74.105 44.3996L69.9161 43.1885C69.4706 43.059 69.0946 42.7577 68.8704 42.3507C68.6463 41.9437 68.5924 41.4643 68.7205 41.0176C68.8501 40.5712 69.1509 40.1945 69.557 39.9699C69.9631 39.7453 70.4415 39.691 70.8875 39.8191L75.0764 41.0301C75.4814 41.1475 75.8305 41.4075 76.0595 41.7623C76.2886 42.117 76.3821 42.5427 76.3229 42.9611C76.2637 43.3794 76.0558 43.7622 75.7373 44.0392C75.4189 44.3162 75.0114 44.4687 74.5898 44.4686V44.4682ZM69.6247 41.2773C69.5655 41.4838 69.5904 41.7055 69.694 41.8937C69.7977 42.0819 69.9715 42.2212 70.1775 42.2811L74.366 43.4922C74.5696 43.5438 74.7854 43.5141 74.9676 43.4093C75.1498 43.3044 75.2842 43.1327 75.3423 42.9304C75.4004 42.7281 75.3778 42.511 75.2791 42.3252C75.1804 42.1393 75.0135 41.9992 74.8136 41.9344L70.6247 40.7233C70.4185 40.664 70.1973 40.689 70.0095 40.7928C69.8217 40.8966 69.6827 41.0709 69.6229 41.2773H69.6247Z" fill="#31241B"/>
<path d="M77.4228 62.2648C77.6532 62.5145 77.9732 62.6623 78.3124 62.6756C78.6515 62.6888 78.982 62.5666 79.2312 62.3357L82.4322 59.3695C82.6815 59.1386 82.829 58.8179 82.8424 58.478C82.8557 58.1381 82.7338 57.8068 82.5034 57.5569C82.2729 57.3071 81.9529 57.1593 81.6137 57.1459C81.2744 57.1325 80.9438 57.2547 80.6945 57.4856L77.4935 60.4518C77.37 60.5662 77.2701 60.7038 77.1997 60.8568C77.1292 61.0098 77.0896 61.1752 77.083 61.3436C77.0764 61.512 77.1031 61.6801 77.1614 61.8381C77.2197 61.9962 77.3085 62.1412 77.4228 62.2648Z" fill="#FFC35C"/>
<path d="M78.3622 63.147C78.0103 63.1473 77.6664 63.0412 77.3755 62.8426C77.0846 62.6439 76.8603 62.362 76.7319 62.0336C76.6035 61.7052 76.5769 61.3456 76.6557 61.0019C76.7344 60.6581 76.9148 60.3461 77.1733 60.1068L80.3766 57.1397C80.5447 56.9802 80.7428 56.8558 80.9593 56.7737C81.1758 56.6915 81.4064 56.6531 81.6378 56.6609C81.8692 56.6686 82.0967 56.7223 82.3073 56.8188C82.5178 56.9153 82.7072 57.0527 82.8643 57.223C83.0215 57.3933 83.1434 57.5932 83.223 57.811C83.3025 58.0289 83.3382 58.2604 83.3278 58.4921C83.3175 58.7239 83.2613 58.9513 83.1627 59.1611C83.064 59.371 82.9248 59.5592 82.753 59.7147L79.552 62.6809C79.2286 62.9816 78.8034 63.1481 78.3622 63.147ZM81.5619 57.6173C81.3585 57.6169 81.1625 57.6939 81.0135 57.8327L77.8126 60.7989C77.6594 60.9459 77.5701 61.1473 77.5637 61.3598C77.5572 61.5722 77.6343 61.7787 77.7783 61.9347C77.9222 62.0908 78.1216 62.184 78.3334 62.1943C78.5453 62.2046 78.7527 62.1311 78.911 61.9897L82.112 59.0235C82.2295 58.9146 82.3122 58.7733 82.3495 58.6173C82.3868 58.4613 82.3772 58.2978 82.3217 58.1473C82.2663 57.9968 82.1676 57.8662 82.0381 57.772C81.9086 57.6777 81.754 57.6241 81.5941 57.6178L81.5619 57.6173Z" fill="#31241B"/>
<path d="M68.8449 32.0621C68.893 32.3987 69.0726 32.7025 69.3442 32.9064C69.6157 33.1104 69.957 33.198 70.293 33.1498L74.609 32.5304C74.9428 32.4796 75.2431 32.2988 75.4444 32.0273C75.6457 31.7557 75.7318 31.4155 75.6839 31.0806C75.6361 30.7457 75.4581 30.4434 75.1887 30.2394C74.9194 30.0355 74.5806 29.9464 74.246 29.9916L69.93 30.6111C69.5941 30.6594 69.2911 30.8394 69.0876 31.1115C68.8842 31.3836 68.7969 31.7255 68.8449 32.0621Z" fill="#FFC35C"/>
<path d="M70.1076 33.6362C69.6871 33.6345 69.2813 33.4813 68.9643 33.2046C68.6472 32.9279 68.44 32.5462 68.3806 32.1291C68.3155 31.6688 68.4352 31.2015 68.7135 30.8295C68.9917 30.4575 69.4058 30.2113 69.8649 30.1447L74.181 29.5253C74.6367 29.4671 75.0971 29.5909 75.4626 29.8698C75.8281 30.1488 76.0695 30.5606 76.1346 31.0163C76.1998 31.472 76.0835 31.9352 75.8109 32.3057C75.5382 32.6763 75.1311 32.9246 74.6774 32.997L70.3614 33.6164C70.2774 33.6291 70.1925 33.6357 70.1076 33.6362ZM74.429 30.4515C74.39 30.4515 74.3511 30.4543 74.3126 30.4601L69.9966 31.0795C69.7843 31.1101 69.5928 31.2239 69.4641 31.3959C69.3355 31.5679 69.2802 31.784 69.3103 31.9968C69.3253 32.1022 69.3609 32.2037 69.4151 32.2953C69.4692 32.387 69.5409 32.467 69.6259 32.5309C69.711 32.5948 69.8078 32.6412 69.9108 32.6675C70.0138 32.6939 70.121 32.6996 70.2262 32.6844L74.5422 32.0649C74.7462 32.0376 74.9322 31.9334 75.0623 31.7735C75.1923 31.6136 75.2567 31.41 75.2423 31.2043C75.2278 30.9985 75.1357 30.806 74.9846 30.6659C74.8335 30.5258 74.6348 30.4487 74.429 30.4502V30.4515Z" fill="#31241B"/>
<path d="M40.8166 56.6014C41.0525 56.8459 41.3757 56.9864 41.715 56.9921C42.0543 56.9978 42.3819 56.8683 42.6259 56.6319L45.7593 53.5944C45.8801 53.4774 45.9767 53.3376 46.0436 53.1832C46.1104 53.0288 46.1463 52.8626 46.1491 52.6943C46.1519 52.526 46.1216 52.3587 46.0599 52.2021C45.9982 52.0455 45.9063 51.9026 45.7895 51.7816C45.6727 51.6606 45.5333 51.5638 45.3792 51.4968C45.225 51.4298 45.0592 51.3939 44.8913 51.391C44.7233 51.3882 44.5564 51.4186 44.4001 51.4804C44.2438 51.5423 44.1012 51.6343 43.9805 51.7514L40.8471 54.7884C40.6032 55.0248 40.4629 55.3486 40.4572 55.6886C40.4515 56.0286 40.5808 56.357 40.8166 56.6014Z" fill="#FFC35C"/>
<path d="M41.7371 57.4633H41.7071C41.4772 57.4602 41.2502 57.4113 41.0393 57.3196C40.8284 57.2279 40.6377 57.0952 40.4784 56.9291C40.1563 56.5945 39.9797 56.1455 39.9876 55.6807C39.9954 55.2159 40.1868 54.7731 40.52 54.4496L43.6534 51.412C43.817 51.2496 44.0118 51.1222 44.226 51.0374C44.4402 50.9526 44.6694 50.9122 44.8996 50.9186C45.2457 50.9244 45.5823 51.0329 45.8668 51.2303C46.1514 51.4278 46.3711 51.7054 46.4981 52.028C46.6252 52.3506 46.654 52.7038 46.5807 53.0427C46.5075 53.3817 46.3356 53.6913 46.0867 53.9324L42.9533 56.9695C42.6279 57.287 42.1913 57.4643 41.7371 57.4633ZM41.1552 56.2733C41.3046 56.4276 41.5089 56.5162 41.7234 56.5197C41.9378 56.5233 42.145 56.4414 42.2993 56.2922L45.4327 53.2551C45.5477 53.1436 45.6271 53.0004 45.661 52.8436C45.6948 52.6869 45.6814 52.5236 45.6226 52.3744C45.5639 52.2253 45.4623 52.0969 45.3307 52.0056C45.1991 51.9143 45.0435 51.8642 44.8835 51.8615C44.7771 51.8578 44.671 51.8761 44.572 51.9153C44.4729 51.9545 44.383 52.0138 44.3078 52.0893L41.1744 55.1268C41.0204 55.2765 40.9319 55.4812 40.9283 55.6961C40.9247 55.911 41.0063 56.1186 41.1552 56.2733Z" fill="#31241B"/>
<path d="M30.336 16.3151C30.4737 16.2186 30.5909 16.0957 30.6812 15.9537C30.7714 15.8117 30.8329 15.6532 30.862 15.4874C30.8911 15.3216 30.8873 15.1516 30.8508 14.9872C30.8143 14.8229 30.7459 14.6673 30.6494 14.5295L28.1489 10.951C28.0525 10.8131 27.93 10.6956 27.7883 10.6051C27.6466 10.5146 27.4885 10.453 27.323 10.4238C27.1575 10.3945 26.9879 10.3982 26.8239 10.4347C26.6598 10.4711 26.5046 10.5396 26.3669 10.6362C26.2293 10.7327 26.112 10.8555 26.0217 10.9975C25.9314 11.1395 25.8699 11.298 25.8407 11.4638C25.8115 11.6296 25.8153 11.7995 25.8516 11.9639C25.888 12.1283 25.9563 12.2839 26.0527 12.4218L28.5531 16.0003C28.6494 16.1384 28.772 16.2561 28.9138 16.3467C29.0556 16.4373 29.2138 16.499 29.3794 16.5282C29.545 16.5575 29.7147 16.5537 29.8789 16.5171C30.043 16.4806 30.1984 16.4119 30.336 16.3151Z" fill="#FFC35C"/>
<path d="M29.6057 17.0192C29.3237 17.0195 29.0459 16.9517 28.7957 16.8215C28.5455 16.6914 28.3303 16.5027 28.1683 16.2715L25.6679 12.6922C25.421 12.3111 25.3314 11.8488 25.4179 11.4028C25.5044 10.9568 25.7602 10.5618 26.1315 10.3011C26.5029 10.0403 26.9607 9.93417 27.4086 10.0049C27.8564 10.0757 28.2595 10.3179 28.5327 10.6804L31.0331 14.2598C31.2165 14.5223 31.3246 14.8302 31.3456 15.15C31.3667 15.4697 31.2999 15.7892 31.1526 16.0736C31.0052 16.358 30.7829 16.5965 30.5098 16.7632C30.2367 16.9299 29.9232 17.0185 29.6034 17.0192H29.6057ZM27.0989 10.8742C26.9509 10.8744 26.8057 10.9153 26.6793 10.9925C26.5528 11.0696 26.4499 11.18 26.3817 11.3117C26.3136 11.4434 26.2827 11.5913 26.2926 11.7393C26.3025 11.8873 26.3527 12.0298 26.4378 12.1512L28.9387 15.7301C28.9996 15.8173 29.0771 15.8916 29.1667 15.9488C29.2564 16.006 29.3563 16.0449 29.4609 16.0633C29.5656 16.0818 29.6728 16.0794 29.7765 16.0563C29.8802 16.0332 29.9784 15.9899 30.0654 15.9288C30.2411 15.8055 30.3607 15.6173 30.3979 15.4056C30.4352 15.1939 30.3871 14.976 30.2641 14.7999L27.7632 11.2209C27.6882 11.1141 27.5887 11.0269 27.473 10.9667C27.3573 10.9065 27.2289 10.8751 27.0985 10.8751L27.0989 10.8742Z" fill="#31241B"/>
<g opacity="0.3">
<path opacity="0.3" d="M45.5519 106.1C68.4821 106.1 87.0706 103.925 87.0706 101.242C87.0706 98.5595 68.4821 96.3846 45.5519 96.3846C22.6218 96.3846 4.0332 98.5595 4.0332 101.242C4.0332 103.925 22.6218 106.1 45.5519 106.1Z" fill="#31241B"/>
</g>
</svg>
