<svg width="32" height="32" viewBox="0 0 32 32" fill="none" xmlns="http://www.w3.org/2000/svg">
<path fill-rule="evenodd" clip-rule="evenodd" d="M15.982 13.578L14.568 12.164C12.876 10.473 11.364 10 10.232 10C9.06204 10 8.05704 10.503 7.39604 11.164C5.80404 12.756 5.50904 14.186 5.72004 15.452C5.95504 16.859 6.87204 18.38 8.29904 19.864C9.73104 21.365 11.407 22.567 13.018 23.48C13.807 23.931 14.471 24.249 15.08 24.481C15.424 24.615 15.73 24.68 15.889 24.714L15.982 24.734L16.074 24.714C16.233 24.68 16.54 24.615 16.884 24.481C17.492 24.249 18.157 23.931 18.946 23.48C20.557 22.567 22.233 21.365 23.665 19.864C25.092 18.38 26.009 16.859 26.243 15.452C26.454 14.186 26.16 12.756 24.568 11.164C23.8126 10.418 22.7937 9.9998 21.732 10C20.6 10 19.088 10.473 17.396 12.164L15.982 13.578ZM15.982 10.75C19.982 6.75 23.982 7.75 25.982 9.75C33.982 17.75 18.982 26.75 15.982 26.75C12.982 26.75 -2.01796 17.75 5.98204 9.75C7.98204 7.75 11.982 6.75 15.982 10.75Z" fill="#FAB292"/>
</svg>
