<svg width="92" height="120" viewBox="0 0 92 120" fill="none" xmlns="http://www.w3.org/2000/svg">
<path d="M87.5168 53.1032C84.4168 47.9182 78.408 44.8131 72.0642 45.7195L68.0801 46.2886L70.3955 72.1287L71.2518 81.686L77.0836 80.8528C85.5139 79.6483 91.3932 71.8088 90.1873 63.3767L89.537 58.826C89.2502 56.8032 88.5635 54.8578 87.5168 53.1032ZM71.9523 74.7658L71.654 72.5354L69.0353 52.9753L73.0191 52.4062C77.7639 51.728 82.1749 55.0364 82.8531 59.7826L83.5048 64.332C84.183 69.0782 80.8747 73.4896 76.1301 74.1674L71.9523 74.7658Z" fill="#FFF9F2"/>
<path d="M67.8958 89.3796C69.2741 99.0265 50.0831 104.785 37.5307 102.765C37.5276 102.765 37.5255 102.765 37.5224 102.765C31.9812 101.872 27.7364 99.4639 27.1279 95.2049L67.8958 89.3796Z" fill="#FFF9F2"/>
<path d="M67.9163 89.5372L29.3047 95.054C29.9132 99.313 34.1586 101.722 39.6991 102.614C39.7026 102.614 39.7043 102.614 39.7078 102.614C41.9337 102.973 44.368 103.087 46.8584 102.976C43.6173 103.282 40.4024 103.227 37.5307 102.765C37.5276 102.765 37.5255 102.765 37.5224 102.765C31.9812 101.872 27.7364 99.4636 27.1279 95.2045L67.8958 89.3796C67.9031 89.4326 67.9104 89.4842 67.9163 89.5372Z" fill="white"/>
<g opacity="0.3">
<path opacity="0.3" d="M67.8953 89.3795C69.2736 99.0264 50.0826 104.785 37.5303 102.765C43.1674 103.303 47.1318 102.028 49.4233 98.9403L57.1694 90.9119L67.8953 89.3795Z" fill="#31241B"/>
</g>
<g opacity="0.3">
<path opacity="0.3" d="M89.5385 58.8259L90.1888 63.3767C91.3932 71.8104 85.514 79.6483 77.0851 80.8527L71.2532 81.686L70.397 72.1286C70.8152 72.2513 71.2407 72.3886 71.6554 72.5339L71.9537 74.7643L75.7441 74.2228L75.9183 74.3078C87.3492 72.8354 90.2351 63.6938 87.4394 53.1572L87.5182 53.1035C88.5648 54.858 89.2516 56.8033 89.5385 58.8259Z" fill="#31241B"/>
</g>
<path d="M67.1334 39.6614L71.6318 71.1469C74.1731 88.9341 61.7818 97.1881 48.4826 99.0881C47.0678 99.292 45.6432 99.4199 44.2148 99.4715C32.288 99.8897 20.7069 94.6402 18.4364 78.7491L13.9362 47.2619C13.6142 45.0082 25.2625 41.4768 39.9516 39.3799C46.027 38.5117 51.6714 38.0249 56.2245 37.9123C59.5576 37.8283 62.307 37.9444 64.2119 38.2608C65.9976 38.5536 67.0421 39.0216 67.1334 39.6614Z" fill="#FFF9F2"/>
<path d="M49.4538 98.9375C49.1301 98.9923 48.8074 99.0421 48.4826 99.0881C47.0678 99.292 45.6432 99.4199 44.2148 99.4714C32.288 99.8897 20.7069 94.6402 18.4364 78.7491L13.9362 47.2619C13.6142 45.0082 25.2625 41.4768 39.9516 39.3798C40.2768 39.3334 40.6001 39.2883 40.9215 39.2446C26.7158 41.3573 15.6104 44.7771 15.9248 46.9779L20.4236 78.4637C22.6941 94.3554 34.2752 99.6028 46.2016 99.1857H46.2034C47.2869 99.1473 48.3724 99.0634 49.4538 98.9375Z" fill="white"/>
<g opacity="0.3">
<path opacity="0.3" d="M67.1337 39.6615L67.2965 40.8C67.2003 41.1834 67.1323 41.4273 67.1323 41.4273C65.1981 40.0229 63.6504 41.925 63.6504 41.925L62.423 42.7903L59.6765 42.4927C59.6765 42.4927 56.5898 41.021 56.4831 40.8673C56.3765 40.7136 56.0036 38.9909 56.1162 38.2985C56.1383 38.1663 56.1748 38.0369 56.2249 37.9127C59.558 37.8287 62.3073 37.9447 64.2122 38.2612C65.9979 38.5536 67.0424 39.0216 67.1337 39.6615Z" fill="#31241B"/>
</g>
<path d="M42.8746 100.207C38.526 100.207 33.5783 99.4398 29.0774 96.9194C22.7566 93.3783 18.9398 87.298 17.7322 78.8482L13.2337 47.3624C13.0943 46.3778 13.7565 44.8117 21.1099 42.584C26.0586 41.0855 32.715 39.6977 39.8524 38.6777C46.9897 37.6576 53.7702 37.1254 58.9388 37.1791C66.6205 37.2589 67.696 38.5766 67.8364 39.5611L72.3352 71.0469C73.5425 79.4967 71.5807 86.4027 66.5044 91.5737C61.1622 97.0107 53.8099 99.0429 48.5823 99.7883C46.692 100.062 44.7846 100.202 42.8746 100.207ZM58.2226 38.594C53.2167 38.594 46.782 39.1203 40.0517 40.0821C33.174 41.0649 26.7194 42.3972 21.8773 43.8345C16.0608 45.5606 14.68 46.8316 14.6385 47.1731L19.1363 78.6467C22.2436 100.395 42.3065 99.253 48.3816 98.3856C54.4567 97.5182 74.0363 92.9953 70.9297 71.2466L66.434 39.7681C66.2866 39.4475 64.595 38.6223 58.5516 38.594H58.2226Z" fill="#31241B"/>
<path d="M42.919 103.873C34.77 103.873 27.2984 101.417 26.4251 95.3044C26.411 95.2117 26.4154 95.1172 26.438 95.0263C26.4606 94.9354 26.501 94.8499 26.5569 94.7747C26.6128 94.6995 26.683 94.6361 26.7635 94.5882C26.844 94.5403 26.9332 94.5088 27.026 94.4955C27.1187 94.4823 27.2132 94.4876 27.3039 94.511C27.3946 94.5345 27.4797 94.5757 27.5544 94.6323C27.6291 94.6889 27.6918 94.7597 27.739 94.8406C27.7862 94.9216 27.8168 95.0111 27.8292 95.104C28.3579 98.8019 31.9196 100.589 34.8142 101.437C38.6565 102.563 43.6589 102.771 48.9007 102.022C54.1425 101.272 58.8874 99.6728 62.2605 97.516C64.8025 95.8912 67.7212 93.1778 67.1929 89.4798C67.1793 89.3874 67.1841 89.2933 67.207 89.2028C67.2299 89.1122 67.2704 89.0271 67.3263 88.9523C67.3821 88.8774 67.4522 88.8144 67.5325 88.7667C67.6128 88.7191 67.7017 88.6877 67.7942 88.6745C67.8866 88.6613 67.9807 88.6665 68.0712 88.6897C68.1616 88.713 68.2466 88.7539 68.3212 88.81C68.3958 88.8662 68.4585 88.9366 68.5059 89.0171C68.5532 89.0976 68.5842 89.1866 68.597 89.2791C69.6903 96.9291 59.2571 101.975 49.1014 103.426C47.0537 103.72 44.9878 103.87 42.919 103.873Z" fill="#31241B"/>
<path d="M71.2512 82.3944C71.0717 82.3946 70.8988 82.3266 70.7674 82.2042C70.636 82.0819 70.5559 81.9143 70.5433 81.7352C70.5306 81.5561 70.5864 81.3789 70.6993 81.2393C70.8121 81.0997 70.9738 81.0081 71.1515 80.983L76.9834 80.1497C85.0268 78.9997 90.636 71.5208 89.4866 63.4763L88.837 58.9256C87.6869 50.8811 80.207 45.2712 72.165 46.4206L68.1806 46.99C67.9963 47.0125 67.8106 46.9618 67.6633 46.849C67.516 46.7361 67.4187 46.57 67.3924 46.3863C67.3661 46.2025 67.4128 46.0158 67.5226 45.8661C67.6323 45.7165 67.7963 45.6158 67.9795 45.5856L71.9636 45.0165C80.7828 43.7566 88.9802 49.9063 90.2404 58.7252L90.8907 63.2759C92.1506 72.093 86.0019 80.294 77.1841 81.5538L71.3523 82.3871C71.3188 82.3919 71.285 82.3944 71.2512 82.3944Z" fill="#31241B"/>
<path d="M71.9518 75.4725C71.7723 75.4725 71.5995 75.4045 71.4682 75.2821C71.3369 75.1597 71.2568 74.9921 71.2442 74.8131C71.2316 74.634 71.2874 74.4568 71.4003 74.3173C71.5132 74.1777 71.6748 74.0861 71.8525 74.061L76.0286 73.4644C78.1236 73.1625 80.0132 72.042 81.283 70.3486C82.5528 68.6551 83.099 66.5272 82.8017 64.4316L82.1514 59.8808C81.8501 57.7858 80.7299 55.8959 79.0367 54.6257C77.3436 53.3556 75.2157 52.809 73.12 53.1059L69.1359 53.6754C68.9497 53.702 68.7605 53.6536 68.61 53.5407C68.4595 53.4278 68.3599 53.2598 68.3333 53.0735C68.3067 52.8873 68.3552 52.6981 68.468 52.5476C68.5809 52.3971 68.7489 52.2975 68.9352 52.2709L72.9193 51.7018C75.3874 51.3515 77.8936 51.9949 79.8878 53.4907C81.882 54.9865 83.2011 57.2126 83.5556 59.6801L84.2059 64.2308C84.5571 66.6992 83.9144 69.206 82.4188 71.2008C80.9233 73.1957 78.6972 74.5154 76.2293 74.8703L72.0532 75.4669C72.0196 75.4712 71.9857 75.473 71.9518 75.4725Z" fill="#31241B"/>
<path d="M61.791 42.881C62.0036 42.1945 61.5181 41.464 60.9082 41.0849C60.0216 40.5335 58.8935 40.4823 58.0711 39.7752C57.8674 39.605 57.7054 39.3904 57.5974 39.1479C56.945 37.6183 59.1375 36.4888 58.56 34.9359C58.4304 34.5874 58.1746 34.2978 57.8602 34.0995C57.1329 33.6381 56.2522 33.6705 55.4486 33.8695C54.6306 34.0719 53.8594 34.4393 53.0366 34.6198C52.822 34.663 52.6013 34.6672 52.3852 34.632C51.3868 34.4853 50.6117 33.7126 50.3385 32.7407C49.99 31.5038 49.1229 30.4102 47.9732 29.8286C46.5224 29.0967 44.6802 29.2061 43.3284 30.1074C42.5188 30.6479 41.7601 31.4847 40.7892 31.4073C40.1051 31.3526 39.552 30.8434 38.91 30.6002C38.1033 30.2945 37.1403 30.4454 36.466 30.9835C35.7916 31.5216 35.5275 32.6155 35.3428 33.4579C34.9904 35.0662 33.1956 36.0347 31.5507 35.9619C29.9058 35.889 28.4076 35.0209 27.0589 34.0754C25.7102 33.1299 24.4054 32.0691 22.8559 31.5118C20.9224 30.8166 18.6924 30.9968 16.8965 31.9931C15.1007 32.9895 13.7659 34.786 13.3317 36.7944C12.8574 38.99 13.4362 41.3075 14.4818 43.2944C15.5273 45.2812 17.0206 46.9927 18.4979 48.6843C33.7146 50.0571 48.1809 48.271 61.791 42.881Z" fill="#725440"/>
<g opacity="0.55">
<path opacity="0.55" d="M50.2271 32.4039C49.8465 31.962 49.3833 31.5985 48.8635 31.334C47.4144 30.6021 45.5719 30.7119 44.2193 31.6128C43.4101 32.1529 42.6511 32.9904 41.6805 32.9123C40.9964 32.858 40.4433 32.3484 39.8014 32.1052C38.9935 31.7996 38.031 31.9508 37.357 32.4885C36.683 33.0263 36.4181 34.1209 36.2341 34.9629C35.8821 36.5706 34.0859 37.539 32.442 37.4662C30.7981 37.3934 29.2992 36.5252 27.9498 35.5801C26.6004 34.635 25.2956 33.5731 23.7465 33.0165C21.8123 32.3195 19.584 32.5018 17.7871 33.4978C15.9903 34.4938 14.6548 36.2911 14.2223 38.3009C13.7539 40.4679 14.3105 42.7544 15.334 44.722C15.028 44.2599 14.7416 43.7849 14.4823 43.2932C13.434 41.3067 12.8562 38.9902 13.3301 36.7932C13.7637 34.7848 15.0984 32.9893 16.8957 31.9919C18.6929 30.9945 20.9216 30.8164 22.8551 31.511C24.4045 32.0686 25.7093 33.1305 27.0584 34.0742C28.4074 35.018 29.9049 35.8864 31.5506 35.9607C33.1962 36.0349 34.9906 35.065 35.3426 33.457C35.5266 32.614 35.7915 31.5211 36.4655 30.9827C37.1395 30.4442 38.1035 30.294 38.9102 30.5993C39.5518 30.8433 40.1049 31.3517 40.7894 31.4061C41.7589 31.4824 42.519 30.6467 43.3279 30.1065C44.68 29.2032 46.5229 29.092 47.972 29.8253C49.0161 30.355 49.8285 31.3075 50.2271 32.4039Z" fill="white"/>
</g>
<g opacity="0.55">
<path opacity="0.55" d="M58.6572 35.5473C57.9491 35.1465 57.1102 35.1835 56.3411 35.3731C55.5245 35.5759 54.7536 35.9432 53.9305 36.1234C53.716 36.1667 53.4954 36.1707 53.2795 36.1352C52.281 35.9885 51.5059 35.2166 51.232 34.2446C51.2149 34.1843 51.1972 34.1261 51.1763 34.0683C51.5185 34.3667 51.9387 34.5612 52.3877 34.629C52.6037 34.6639 52.8243 34.6593 53.0387 34.6154C53.8618 34.4352 54.6327 34.0683 55.4493 33.8651C56.2546 33.6671 57.1346 33.6347 57.8616 34.0954C58.1752 34.2958 58.4317 34.5834 58.5614 34.9339C58.6362 35.1294 58.6688 35.3384 58.6572 35.5473Z" fill="white"/>
</g>
<g opacity="0.55">
<path opacity="0.55" d="M61.8403 42.6178L61.7992 42.5914C60.9123 42.04 59.7856 41.9898 58.9624 41.282C58.7587 41.1119 58.5967 40.8973 58.4888 40.6547C58.3981 40.4473 58.3572 40.2215 58.3693 39.9954C59.1534 40.5007 60.1247 40.5986 60.9078 41.0851C61.4403 41.4141 61.8776 42.0153 61.8403 42.6178Z" fill="white"/>
</g>
<path d="M25.57 50.2459C25.3609 50.2459 25.1563 50.2459 24.9535 50.2428C18.3668 50.1748 17.3676 49.0701 17.231 48.1169C17.2025 47.9325 17.2478 47.7443 17.3571 47.5931C17.4664 47.4419 17.6309 47.3398 17.8149 47.309C17.999 47.2783 18.1877 47.3213 18.3403 47.4287C18.4928 47.5362 18.5969 47.6994 18.6299 47.8831C18.7181 47.9841 19.6304 48.824 25.4975 48.8286H25.5605C29.844 48.8286 35.366 48.3755 41.1194 47.5544C57.0708 45.2756 63.1647 42.3893 63.3689 41.0054C63.3813 40.9122 63.4121 40.8224 63.4595 40.7413C63.5068 40.6601 63.5699 40.5892 63.6449 40.5326C63.72 40.476 63.8055 40.4349 63.8966 40.4117C63.9877 40.3884 64.0824 40.3835 64.1754 40.3972C64.2684 40.411 64.3577 40.443 64.4382 40.4916C64.5187 40.5401 64.5887 40.6042 64.6442 40.68C64.6997 40.7559 64.7396 40.842 64.7615 40.9334C64.7835 41.0248 64.787 41.1196 64.772 41.2124C64.6238 42.2189 63.7003 43.776 57.4245 45.6701C53.3575 46.8972 47.7887 48.0347 41.3198 48.9589C35.4793 49.7922 29.9186 50.2459 25.57 50.2459Z" fill="#31241B"/>
<path d="M18.4978 49.3928C18.3965 49.3928 18.2963 49.371 18.204 49.3289C18.1118 49.2868 18.0297 49.2254 17.9632 49.1488C16.4797 47.4499 14.9452 45.6927 13.8537 43.623C12.972 41.9501 12.045 39.3813 12.6371 36.6424C13.1138 34.4364 14.5772 32.4656 16.5511 31.371C18.525 30.2764 20.9719 30.0784 23.0956 30.8423C24.4621 31.3337 25.6268 32.1726 26.7549 32.9839C26.9919 33.1546 27.2289 33.3254 27.4672 33.4923C28.6546 34.3242 30.072 35.184 31.5834 35.2509C32.8412 35.3091 34.3714 34.5786 34.6502 33.3038C34.8792 32.2583 35.1928 31.0894 36.024 30.4266C36.8918 29.7344 38.1238 29.5414 39.1606 29.9348C39.4509 30.0449 39.7056 30.1882 39.9524 30.3272C40.2852 30.5144 40.5723 30.6757 40.8449 30.698C41.3133 30.7371 41.805 30.3593 42.325 29.961C42.5205 29.8111 42.7226 29.6564 42.9338 29.5156C44.5041 28.4669 46.6077 28.3401 48.2927 29.1922C49.5958 29.8515 50.6158 31.1051 51.0204 32.5455C51.2295 33.2839 51.8039 33.8262 52.4876 33.9269C52.6189 33.9493 52.7531 33.948 52.8839 33.9231C53.2784 33.8367 53.6691 33.6993 54.0824 33.554C54.4657 33.4195 54.8609 33.2804 55.2771 33.1776C56.4505 32.887 57.4468 32.9943 58.2393 33.4969C58.6969 33.7872 59.0468 34.2096 59.2239 34.6863C59.6278 35.7719 59.098 36.6686 58.6722 37.3889C58.2815 38.0511 58.0689 38.4453 58.2491 38.8673C58.3145 39.01 58.4115 39.1359 58.5328 39.2357C58.8938 39.5462 59.3768 39.7093 59.8888 39.8818C60.3502 40.0376 60.8273 40.1986 61.2828 40.4809C62.0882 40.9817 62.803 42.0115 62.4677 43.0894C62.4091 43.2652 62.284 43.4111 62.1191 43.4958C61.9543 43.5806 61.7629 43.5974 61.5858 43.5427C61.4087 43.4881 61.26 43.3663 61.1716 43.2034C61.0832 43.0405 61.0621 42.8495 61.1127 42.6712C61.2141 42.3439 60.8977 41.9142 60.5328 41.6874C60.2192 41.4919 59.8379 41.3636 59.4354 41.2277C58.8461 41.0291 58.1783 40.8039 57.6078 40.3132C57.3217 40.0722 57.0951 39.7683 56.9457 39.4252C56.4756 38.3229 57.0175 37.406 57.4528 36.6693C57.8319 36.0273 58.056 35.6123 57.896 35.1822C57.8139 34.9798 57.6684 34.8095 57.4813 34.6968C57.0283 34.4096 56.4027 34.3622 55.62 34.5574C55.269 34.6441 54.923 34.7665 54.5546 34.8951C54.1193 35.0484 53.6687 35.2066 53.1892 35.3133C52.8909 35.375 52.5839 35.3822 52.2831 35.3345C51.0466 35.1526 50.0157 34.2103 49.6568 32.9333C49.3577 31.869 48.6088 30.9469 47.6543 30.4625C46.4369 29.8466 44.8572 29.9421 43.7231 30.6994C43.5489 30.8148 43.3746 30.9493 43.1892 31.0912C42.5121 31.6094 41.7478 32.1966 40.7337 32.1164C40.1503 32.0697 39.676 31.8028 39.2581 31.5672C39.049 31.4491 38.85 31.3375 38.6598 31.2654C38.0893 31.0493 37.3856 31.1609 36.9092 31.5397C36.4018 31.9443 36.1645 33.0288 36.038 33.6115C35.595 35.6328 33.3914 36.7561 31.5214 36.6724C29.6513 36.5888 28.0088 35.6074 26.6542 34.6584C26.4102 34.4877 26.1691 34.3134 25.9269 34.1392C24.8319 33.3501 23.7975 32.6057 22.6185 32.1813C20.8739 31.554 18.8638 31.716 17.2418 32.6155C15.6199 33.515 14.419 35.1338 14.0262 36.9463C13.6334 38.7589 14.0203 40.8956 15.1114 42.9657C16.1256 44.8887 17.6043 46.5824 19.0345 48.2201C19.1242 48.3226 19.1824 48.4487 19.2022 48.5835C19.2221 48.7182 19.2027 48.8558 19.1463 48.9798C19.09 49.1038 18.9992 49.209 18.8847 49.2827C18.7701 49.3564 18.6368 49.3956 18.5006 49.3956L18.4978 49.3928Z" fill="#31241B"/>
<path d="M65.597 25.3282C66.2842 25.2721 66.9983 25.3365 67.6138 25.6467C68.2292 25.9569 68.7321 26.5413 68.8199 27.2251C68.9708 28.3967 67.879 29.4151 66.7289 29.6921C65.5789 29.9692 64.3803 29.727 63.2017 29.6465C62.1729 29.5768 61.2299 29.7162 60.2935 30.1452C60.88 27.8803 63.9939 25.4596 65.597 25.3282Z" fill="#31241B"/>
<g opacity="0.55">
<path opacity="0.55" d="M68.8367 27.3408C68.6331 27.1121 68.3881 26.924 68.1146 26.7864C67.4988 26.4769 66.7847 26.4131 66.0974 26.4692C64.8205 26.5738 62.5842 28.1312 61.4327 29.9055C61.0472 29.9918 60.6719 30.1185 60.313 30.2836C60.8992 28.0183 64.0134 25.5983 65.6161 25.4659C66.303 25.4098 67.0175 25.4753 67.6333 25.7848C68.2439 26.0914 68.7422 26.6679 68.8367 27.3408Z" fill="white"/>
</g>
<path d="M60.2952 30.8545C60.1869 30.8545 60.08 30.8297 59.9828 30.782C59.8855 30.7343 59.8005 30.6649 59.7342 30.5793C59.668 30.4936 59.6222 30.3939 59.6004 30.2878C59.5786 30.1817 59.5815 30.072 59.6087 29.9672C60.259 27.458 63.5558 24.7843 65.5416 24.6215C66.4654 24.5462 67.2694 24.678 67.9354 25.0132C68.8042 25.4509 69.4138 26.2636 69.526 27.1346C69.7302 28.7213 68.3495 30.0317 66.8972 30.3816C65.9009 30.6217 64.9167 30.523 63.9646 30.4272C63.6858 30.3993 63.4202 30.3725 63.1547 30.3544C62.1984 30.2878 61.3836 30.4262 60.5911 30.79C60.4982 30.8325 60.3973 30.8545 60.2952 30.8545ZM62.7124 28.9199C62.8899 28.9199 63.07 28.9263 63.2526 28.9391C63.5398 28.959 63.8276 28.9879 64.1057 29.0158C64.977 29.1036 65.8026 29.1862 66.5644 29.0025C67.3939 28.8025 68.2167 28.0769 68.1187 27.3154C68.0668 26.9115 67.7441 26.5052 67.297 26.28C66.8673 26.0636 66.3156 25.981 65.6573 26.0361C64.64 26.1194 62.6797 27.4754 61.6216 29.0064C61.9817 28.9484 62.3459 28.9195 62.7107 28.9199H62.7124Z" fill="#31241B"/>
<path d="M5.32567 25.5049C3.66854 25.4446 1.88072 26.1169 1.0701 27.5635C0.620885 28.3651 0.540032 29.4392 1.10496 30.1648C1.6995 30.929 2.82028 31.0873 3.76229 30.8618C4.70429 30.6363 5.53965 30.1094 6.42241 29.7096C7.30517 29.3099 8.31896 29.0363 9.23378 29.3535C9.63421 29.4929 9.99595 29.7368 10.4096 29.8295C10.8233 29.9222 11.3398 29.7905 11.49 29.3946C12.4309 26.9003 6.6444 25.5534 5.32567 25.5049Z" fill="#31241B"/>
<g opacity="0.55">
<path opacity="0.55" d="M11.5916 28.8516C10.1976 27.5168 6.91089 26.8045 5.95704 26.7683C4.30131 26.7073 2.51174 27.3788 1.70217 28.8244C1.43417 29.304 1.29826 29.88 1.35158 30.4202C1.26079 30.3431 1.17822 30.2568 1.10519 30.1627C0.540265 29.4385 0.621815 28.3651 1.07034 27.5618C1.88165 26.1152 3.66982 25.4436 5.3273 25.5056C6.54741 25.5492 11.5878 26.7045 11.5916 28.8516Z" fill="white"/>
</g>
<path d="M2.97243 31.6671C1.97641 31.6671 1.07902 31.2865 0.544766 30.6C-0.253653 29.5736 -0.0773123 28.1605 0.452063 27.2167C1.31879 25.6694 3.24636 24.718 5.35201 24.7964C6.32782 24.8312 10.6099 25.6621 11.9091 27.6172C12.3304 28.2511 12.4148 28.953 12.153 29.6468C11.8593 30.4236 10.9556 30.678 10.2568 30.5237C9.93482 30.454 9.65637 30.3201 9.41102 30.2034C9.27794 30.1367 9.14136 30.0773 9.00188 30.0253C8.40942 29.82 7.66154 29.9288 6.71535 30.3574C6.46583 30.4703 6.22118 30.5941 5.96154 30.7247C5.32622 31.0454 4.66894 31.3768 3.92663 31.5535C3.61404 31.6282 3.29383 31.6663 2.97243 31.6671ZM5.1098 26.2102C3.60357 26.2102 2.27473 26.8658 1.6896 27.9102C1.39929 28.4285 1.26756 29.2189 1.6645 29.7291C2.07434 30.256 2.93096 30.3316 3.598 30.1734C4.1786 30.034 4.73411 29.7552 5.32239 29.4583C5.58342 29.3266 5.85316 29.1906 6.12952 29.0652C7.42212 28.4797 8.51328 28.3549 9.46573 28.685C9.65483 28.7534 9.83984 28.8326 10.0199 28.9223C10.2147 29.015 10.398 29.1021 10.5625 29.1384C10.6535 29.1595 10.7488 29.1525 10.8357 29.1182C10.9242 28.8637 10.8911 28.6484 10.728 28.4023C9.86791 27.1087 6.28181 26.2496 5.30043 26.2137C5.23666 26.2113 5.17288 26.2102 5.1098 26.2102Z" fill="#31241B"/>
<path d="M36.1637 33.025C36.1477 33.1295 36.1331 33.202 36.1153 33.285C36.0975 33.3679 36.0805 33.4439 36.0613 33.5216C36.0264 33.6781 35.9811 33.829 35.9386 33.9809C35.8483 34.282 35.7522 34.5786 35.641 34.8686C35.4242 35.4463 35.17 36.0093 34.8799 36.5539C34.5868 37.0927 34.2766 37.62 33.9208 38.1145C33.7528 38.3679 33.5601 38.6024 33.3771 38.8464C33.1942 39.0903 32.9868 39.3099 32.7934 39.5409C32.7525 39.59 32.6944 39.6217 32.631 39.6295C32.5676 39.6372 32.5037 39.6205 32.4521 39.5827C32.4006 39.545 32.3655 39.489 32.3538 39.4261C32.3422 39.3633 32.3549 39.2984 32.3895 39.2447L32.3992 39.2294C32.5564 38.983 32.723 38.7443 32.8711 38.4937C33.0192 38.2431 33.1691 37.9953 33.2966 37.735C33.5723 37.2258 33.7978 36.693 34.0055 36.1587C34.2067 35.6241 34.3731 35.0769 34.5035 34.5208C34.57 34.2454 34.6216 33.968 34.6669 33.6924C34.6868 33.553 34.7084 33.4163 34.7216 33.2808C34.7293 33.2128 34.7366 33.1449 34.7408 33.079C34.745 33.0131 34.7509 32.9396 34.7506 32.8985C34.7482 32.8036 34.7649 32.7093 34.7995 32.621C34.8341 32.5327 34.886 32.4521 34.9522 32.3842C35.0183 32.3162 35.0974 32.2621 35.1847 32.2251C35.2721 32.188 35.3659 32.1688 35.4608 32.1686C35.5556 32.1683 35.6496 32.187 35.7371 32.2236C35.8247 32.2601 35.904 32.3138 35.9705 32.3814C36.0371 32.449 36.0894 32.5293 36.1245 32.6174C36.1596 32.7055 36.1767 32.7998 36.1749 32.8946C36.175 32.9296 36.1726 32.9645 36.1679 32.9992L36.1637 33.025Z" fill="#31241B"/>
<g opacity="0.3">
<path opacity="0.3" d="M65.3376 38.5194L65.3725 38.7634C64.9965 38.5702 64.6085 38.4014 64.2109 38.2581C64.6253 38.3278 64.9996 38.4041 65.3317 38.4919C65.3348 38.5008 65.3368 38.51 65.3376 38.5194Z" fill="#31241B"/>
</g>
<g opacity="0.3">
<path opacity="0.3" d="M55.2067 48.3276C59.0053 47.2981 62.6716 45.7469 64.9299 44.0992C65.0432 44.0166 65.176 43.9646 65.3154 43.9485C65.4547 43.9324 65.5959 43.9526 65.7251 44.0072C65.8543 44.0618 65.9672 44.1489 66.0528 44.26C66.1383 44.3712 66.1937 44.5026 66.2134 44.6415L69.8378 70.0034C72.2512 86.8953 61.1995 95.188 48.6914 97.6048C54.9993 94.3108 59.2263 88.358 57.4336 74.734L53.9353 50.2517C53.8758 49.8311 53.9723 49.4032 54.2065 49.0488C54.4407 48.6944 54.7964 48.4378 55.2067 48.3276Z" fill="#31241B"/>
</g>
<path d="M38.3628 81.3424C35.7362 81.3253 33.1858 81.1186 30.7195 80.7053C30.1907 80.6152 29.7043 80.3594 29.3305 79.9747C28.9567 79.5901 28.7149 79.0966 28.64 78.5655L25.9387 59.6589C25.7004 57.9889 27.1278 56.5638 28.7992 56.7918C30.9805 57.0894 33.2601 57.1999 35.6198 57.1629C36.8901 57.143 37.9736 58.0805 38.153 59.3383L40.8836 78.4484C41.1024 79.9797 39.9098 81.3525 38.3628 81.3424Z" fill="white"/>
<path d="M40.7033 91.77C37.3995 92.2701 34.2825 92.1415 31.468 90.9914C31.1285 90.8543 30.8308 90.6306 30.6046 90.3427C30.3784 90.0548 30.2315 89.7126 30.1785 89.3503L29.7603 86.4229C29.5617 85.032 30.7661 83.8541 32.1542 84.0712C34.6425 84.4608 37.2259 84.5856 39.8798 84.5131C40.3914 84.4984 40.8905 84.6725 41.2821 85.0021C41.6736 85.3318 41.9302 85.794 42.0029 86.3006L42.4479 89.4138C42.5259 89.9571 42.3865 90.5093 42.0599 90.9504C41.7332 91.3916 41.2458 91.6861 40.7033 91.77Z" fill="white"/>
<g opacity="0.2">
<path opacity="0.2" d="M21.0603 38.7403C19.98 40.2517 18.6905 41.1826 17.6189 40.4162C16.5472 39.6499 16.557 37.8025 17.6391 36.2917C18.7212 34.7809 20.4658 34.1756 21.5367 34.9419C22.6077 35.7083 22.1421 37.2285 21.0603 38.7403Z" fill="white"/>
</g>
<g opacity="0.3">
<path opacity="0.3" d="M59.4065 43.8307C58.9953 44.2276 58.2958 44.1443 57.8233 43.8237C57.3507 43.5031 57.0391 43.0009 56.6955 42.5444C56.3519 42.0878 55.926 41.6414 55.3677 41.5194C54.7164 41.3772 54.0608 41.7094 53.3959 41.7578C52.2619 41.8404 51.2258 41.0894 50.4977 40.2157C49.7697 39.342 49.2327 38.3129 48.4349 37.5022C47.2633 36.3117 45.5487 35.6782 43.8842 35.8207C42.2198 35.9632 40.6383 36.8795 39.6865 38.2519C39.0045 39.235 38.6497 40.4042 38.0879 41.4605C37.5261 42.5168 36.6503 43.5247 35.4741 43.7342C34.4635 43.9133 33.3831 43.4784 32.4216 43.8286C31.62 44.121 31.0949 44.8961 30.7568 45.6802C30.4188 46.4643 30.2072 47.3098 29.751 48.0315C29.2948 48.7533 28.4999 49.3524 27.6523 49.2492C38.7581 48.8868 49.3832 47.1934 59.4065 43.8307Z" fill="#725440"/>
</g>
<path d="M28.2391 25.4178C25.2301 25.6687 22.4605 21.9289 22.0528 17.0635C21.6653 12.4322 23.5552 8.4506 26.3348 7.85954C26.4765 7.82937 26.6199 7.80807 26.7642 7.79576C26.822 7.78844 26.8802 7.78113 26.9384 7.77555C38.4383 6.41848 40.6552 24.3779 28.2391 25.4178Z" fill="#A3785B"/>
<g opacity="0.3">
<path opacity="0.3" d="M28.2389 25.4179C27.2046 25.5043 26.2009 25.1196 25.3115 24.379C34.5845 22.8128 34.603 11.086 28.0995 7.70244C38.5727 7.6411 40.226 24.4124 28.2389 25.4179Z" fill="#31241B"/>
</g>
<g opacity="0.6">
<path opacity="0.6" d="M26.3344 7.85962L26.4096 9.03059C24.3367 10.3727 23.0469 13.812 23.3742 17.71C23.6599 21.1149 25.1017 23.9692 26.9735 25.2889C24.488 24.5811 22.4015 21.2365 22.0523 17.0643C21.6648 12.4323 23.5547 8.45068 26.3344 7.85962Z" fill="white"/>
</g>
<path d="M27.9445 26.1393C24.64 26.1393 21.776 22.2754 21.3459 17.1228C21.1368 14.6397 21.5456 12.2438 22.4943 10.3782C23.4962 8.40711 24.9847 7.24171 26.6871 7.09046C30.2575 6.61859 33.325 7.83765 35.3265 10.525C37.468 13.3998 37.9211 17.5142 36.4574 20.7633C35.0442 23.8998 32.1467 25.8023 28.2986 26.1246C28.1797 26.1344 28.0616 26.1393 27.9445 26.1393ZM28.1442 8.41094C27.7141 8.41159 27.2845 8.44082 26.8582 8.49841C26.8467 8.50016 26.8349 8.50155 26.8234 8.50225C25.6217 8.60296 24.533 9.49722 23.759 11.0205C22.9281 12.655 22.5741 14.7798 22.7595 17.004C23.1271 21.3951 25.6022 24.9247 28.1801 24.7108C31.4908 24.432 33.9718 22.824 35.1637 20.1802C36.4232 17.3859 36.0315 13.8462 34.1879 11.3722C32.7479 9.43763 30.6325 8.41094 28.1442 8.41094Z" fill="#31241B"/>
<path d="M28.238 26.1263C28.055 26.1262 27.8792 26.0553 27.7472 25.9286C27.6153 25.8019 27.5374 25.629 27.5299 25.4462C27.5224 25.2634 27.5858 25.0848 27.7069 24.9477C27.828 24.8105 27.9974 24.7255 28.1798 24.7103C30.75 24.495 32.6106 20.6022 32.2429 16.2093C31.8753 11.8165 29.3852 8.28577 26.8227 8.50254C26.6352 8.51825 26.4492 8.45886 26.3056 8.33742C26.1619 8.21599 26.0724 8.04247 26.0567 7.85502C26.041 7.66757 26.1004 7.48157 26.2218 7.33791C26.3432 7.19426 26.5168 7.10472 26.7042 7.08901C30.1544 6.79836 33.2093 10.7542 33.6565 16.0912C34.1036 21.4282 31.7495 25.835 28.2982 26.1239C28.278 26.1256 28.2578 26.1263 28.238 26.1263Z" fill="#31241B"/>
<path d="M26.5724 7.95187C26.4005 8.68128 26.2758 9.40408 26.2653 10.1213C26.2496 10.8319 26.3316 11.5412 26.5093 12.2294C26.8466 13.6098 27.5447 14.9177 28.1643 16.3389C28.4748 17.0492 28.7644 17.7929 28.9704 18.5784C29.1764 19.3639 29.282 20.1916 29.2492 21.0148C29.218 21.8306 29.0609 22.6366 28.7836 23.4045C28.5067 24.1471 28.1416 24.8537 27.6959 25.5091C27.6615 25.5595 27.61 25.5958 27.5509 25.6113C27.4918 25.6267 27.4291 25.6202 27.3744 25.593C27.3197 25.5658 27.2766 25.5198 27.2532 25.4634C27.2298 25.4069 27.2276 25.344 27.2471 25.286L27.2495 25.2787C27.4907 24.5625 27.7207 23.8593 27.8573 23.1455L27.95 22.613L28.0037 22.0798C28.0179 21.9024 28.0183 21.725 28.027 21.549C28.0357 21.373 28.0172 21.1967 28.0162 21.0214C27.9751 20.3174 27.8487 19.621 27.6398 18.9475C27.4356 18.2641 27.1592 17.5883 26.8637 16.9018C26.5682 16.2152 26.2489 15.5161 25.9691 14.7815C25.6893 14.0468 25.4463 13.2739 25.3212 12.4671C25.0581 10.858 25.3331 9.20715 26.1036 7.7703C26.1322 7.71574 26.1798 7.67352 26.2374 7.65158C26.2949 7.62964 26.3585 7.62948 26.4162 7.65115C26.4739 7.67281 26.5217 7.7148 26.5505 7.76922C26.5794 7.82364 26.5874 7.88673 26.5731 7.94664L26.5724 7.95187Z" fill="#31241B"/>
<path d="M44.3544 15.0199C42.0633 13.053 42.7826 8.45552 45.962 4.74954C48.9884 1.2227 53.1509 -0.226026 55.5229 1.33875C55.6443 1.4185 55.7607 1.50568 55.8714 1.59978C55.917 1.63463 55.963 1.67227 56.0083 1.71025C65.0453 8.94761 53.8103 23.1331 44.3544 15.0199Z" fill="#A3785B"/>
<g opacity="0.3">
<path opacity="0.3" d="M44.3539 15.0199C43.5659 14.3442 43.1341 13.3589 43.0376 12.2047C50.6621 17.711 59.0276 9.49161 56.8732 2.48462C64.2687 9.9018 53.484 22.8518 44.3539 15.0199Z" fill="#31241B"/>
</g>
<g opacity="0.6">
<path opacity="0.6" d="M55.5229 1.33875L54.7419 2.21419C52.3306 1.67993 48.9759 3.17571 46.4294 6.14495C44.2049 8.73851 43.1842 11.7691 43.5581 14.0288C42.3174 11.7614 43.235 7.92754 45.9628 4.74955C48.9885 1.2227 53.1503 -0.226027 55.5229 1.33875Z" fill="white"/>
</g>
<path d="M50.3689 18.1665C48.1283 18.1665 45.9024 17.2827 43.8923 15.5583C41.2646 13.3025 41.9372 8.35165 45.4236 4.28811C47.0462 2.39679 49.0383 1.00592 51.0345 0.371641C53.1419 -0.298181 55.0179 -0.0570176 56.3192 1.05018C59.1616 3.26142 60.4465 6.30211 59.9373 9.61428C59.3926 13.1572 56.7813 16.3686 53.4388 17.6061C52.457 17.9742 51.4174 18.164 50.3689 18.1665ZM44.8162 14.4818C47.3386 16.6453 50.2253 17.2827 52.9453 16.2756C55.8194 15.2116 58.0655 12.4476 58.5343 9.39856C58.9626 6.61298 57.862 4.04242 55.4354 2.16016C55.426 2.15319 55.4169 2.14552 55.4082 2.1382C54.493 1.35268 53.0924 1.20526 51.4635 1.72313C49.7161 2.27865 47.9534 3.51757 46.5001 5.2113C43.6306 8.55692 42.8593 12.8017 44.8162 14.4815V14.4818Z" fill="#31241B"/>
<path d="M46.9576 16.6192C45.7637 16.6192 44.7133 16.2617 43.8929 15.5577C43.8217 15.4972 43.7631 15.4233 43.7205 15.3401C43.6779 15.2569 43.6522 15.1661 43.6448 15.0729C43.6374 14.9798 43.6485 14.8861 43.6775 14.7972C43.7064 14.7084 43.7527 14.6261 43.8135 14.5552C43.8744 14.4843 43.9486 14.426 44.032 14.3839C44.1155 14.3418 44.2064 14.3166 44.2996 14.3097C44.3928 14.3028 44.4864 14.3144 44.5751 14.3438C44.6638 14.3733 44.7458 14.4199 44.8164 14.4812C45.7309 15.2664 47.1315 15.4134 48.7601 14.8959C50.5075 14.3404 52.2699 13.1015 53.7231 11.4077C55.1764 9.71401 56.1327 7.7833 56.4163 5.97109C56.6805 4.28329 56.3223 2.92134 55.4074 2.13756C55.2658 2.01476 55.1786 1.8409 55.1648 1.65397C55.151 1.46705 55.2118 1.28227 55.3338 1.14001C55.4559 0.997753 55.6293 0.909592 55.8161 0.894794C56.0029 0.879996 56.1881 0.939765 56.331 1.06104C57.633 2.17625 58.1609 4.00031 57.8177 6.19204C57.4939 8.26006 56.4237 10.4406 54.7996 12.3316C53.1756 14.2226 51.185 15.6135 49.1888 16.2477C48.4081 16.4962 47.6581 16.6192 46.9576 16.6192Z" fill="#31241B"/>
<path d="M55.6244 1.57326C54.9842 1.96288 54.382 2.38143 53.8638 2.87735C53.3464 3.36458 52.8987 3.9208 52.5332 4.5303C51.7867 5.7396 51.3452 7.15487 50.7681 8.59349C50.4802 9.3135 50.1537 10.0419 49.7389 10.7399C49.3242 11.438 48.8084 12.0945 48.1992 12.6487C47.5962 13.1988 46.912 13.6527 46.1706 13.9942C45.4473 14.3186 44.6876 14.5546 43.9078 14.6972C43.8476 14.7081 43.7855 14.697 43.733 14.6657C43.6804 14.6344 43.641 14.5852 43.622 14.5271C43.6029 14.4689 43.6056 14.4059 43.6294 14.3496C43.6532 14.2933 43.6967 14.2475 43.7517 14.2208L43.759 14.2176C44.4379 13.8862 45.1004 13.5555 45.7043 13.153L46.149 12.8452L46.5672 12.5093C46.7035 12.3946 46.83 12.2705 46.9614 12.1531C47.0928 12.0357 47.2053 11.8987 47.3297 11.7753C47.8025 11.2522 48.2101 10.6736 48.5436 10.0523C48.8868 9.42711 49.174 8.75624 49.4556 8.06342C49.7372 7.3706 50.0115 6.65303 50.338 5.93755C50.6646 5.22208 51.0455 4.50869 51.5316 3.85142C52.4931 2.53467 53.862 1.57175 55.4262 1.11184C55.485 1.09454 55.5481 1.09919 55.6037 1.12493C55.6594 1.15066 55.7038 1.19572 55.7287 1.25174C55.7536 1.30775 55.7573 1.37091 55.7392 1.42947C55.7211 1.48803 55.6823 1.53801 55.63 1.57012L55.6244 1.57326Z" fill="#31241B"/>
<g opacity="0.2">
<path opacity="0.2" d="M44.5427 120C57.11 120 67.2979 118.42 67.2979 116.472C67.2979 114.523 57.11 112.943 44.5427 112.943C31.9754 112.943 21.7876 114.523 21.7876 116.472C21.7876 118.42 31.9754 120 44.5427 120Z" fill="#31241B"/>
</g>
</svg>
