<svg width="48" height="48" viewBox="0 0 48 48" fill="none" xmlns="http://www.w3.org/2000/svg">
<path d="M1.21651 46.7835C0.101093 45.668 -0.154091 43.9546 0.588001 42.5625L12.4145 20.3765L27.6235 35.5855L5.43752 47.4121C4.04551 48.1541 2.33193 47.8989 1.21651 46.7835Z" fill="#94C5E9"/>
<path d="M17.5008 25.4628L12.4144 20.3765L0.58793 42.5625C-0.154069 43.9546 0.101115 45.668 1.21653 46.7835C2.33195 47.8989 4.04544 48.1541 5.43746 47.4121L5.94466 47.1417L17.5008 25.4628Z" fill="#94C5E9"/>
<path d="M10.389 18.3508L15.2041 23.1659L10.1517 28.2183C8.82203 29.5479 6.66622 29.5479 5.33659 28.2183C4.00695 26.8887 4.00695 24.7329 5.33659 23.4032L10.389 18.3508Z" fill="#F0F7FC"/>
<path d="M15.2039 23.1658L20.019 27.9809L14.9666 33.0332C13.637 34.3629 11.4812 34.3629 10.1515 33.0332C8.82189 31.7036 8.82189 29.5478 10.1515 28.2182L15.2039 23.1658Z" fill="#66ACDF"/>
<path d="M20.0193 27.981L24.8344 32.796L19.782 37.8484C18.4524 39.1781 16.2966 39.1781 14.967 37.8484C13.6373 36.5188 13.6373 34.363 14.967 33.0334L20.0193 27.981Z" fill="#F0F7FC"/>
<path d="M24.8343 32.7958L29.6494 37.6109L24.597 42.6633C23.2673 43.9929 21.1115 43.9929 19.7819 42.6633C18.4523 41.3336 18.4523 39.1778 19.7819 37.8482L24.8343 32.7958Z" fill="#66ACDF"/>
<path d="M45.0242 30.1859C48.3039 26.9062 48.7116 21.8419 46.2474 18.1184C48.8768 13.5378 48.2355 7.59173 44.3218 3.67803C40.4081 -0.235668 34.4623 -0.876934 29.8815 1.75256C26.158 -0.711683 21.0938 -0.304002 17.814 2.97578C16.5787 4.21112 15.7512 5.69958 15.3306 7.27417C13.756 7.6946 12.2676 8.52225 11.0322 9.75759C7.28678 13.5031 7.28678 19.5757 11.0322 23.3212C11.554 23.8429 12.1209 24.2917 12.7204 24.6681C13.0058 27.2879 14.1517 29.8316 16.16 31.8399C18.1684 33.8483 20.7121 34.9943 23.3318 35.2796C23.7082 35.879 24.1571 36.446 24.6788 36.9677C28.4242 40.7132 34.4968 40.7132 38.2424 36.9677C39.4777 35.7324 40.3053 34.2439 40.7258 32.6694C42.3004 32.2488 43.7889 31.4212 45.0242 30.1859Z" fill="#FFE1AE"/>
<g style="mix-blend-mode:multiply" opacity="0.35">
<path d="M30.813 33.9809C28.8046 31.9726 27.6586 29.4289 27.3733 26.8091C26.7739 26.4327 26.2069 25.9839 25.6852 25.4622C21.9397 21.7167 21.9397 15.6441 25.6852 11.8986C26.9205 10.6633 28.409 9.8357 29.9836 9.41517C30.404 7.84058 31.2316 6.35202 32.467 5.11678C35.7425 1.84128 40.7976 1.43071 44.5197 3.88425C44.4539 3.81535 44.3896 3.74562 44.3219 3.67794C40.4082 -0.235668 34.4623 -0.876934 29.8815 1.75256C26.158 -0.711683 21.0938 -0.304002 17.814 2.97579C16.5787 4.21112 15.7511 5.69959 15.3306 7.27417C13.756 7.69461 12.2675 8.52226 11.0322 9.75759C7.28678 13.5031 7.28678 19.5757 11.0322 23.3212C11.554 23.8429 12.1209 24.2917 12.7204 24.6681C13.0058 27.2879 14.1517 29.8316 16.16 31.8399C18.1684 33.8483 20.7121 34.9943 23.3318 35.2796C23.7082 35.879 24.1571 36.446 24.6788 36.9677C28.2758 40.5647 34.0187 40.7066 37.7858 37.3949C35.2367 37.0743 32.7704 35.9384 30.813 33.9809Z" fill="#FFE1AE"/>
</g>
<path d="M30.5634 10.617C31.4398 9.74055 31.2581 8.13793 30.1576 7.03741C29.0571 5.93689 27.4545 5.75521 26.5781 6.63162C25.7017 7.50803 25.8834 9.11065 26.9839 10.2112C28.0844 11.3117 29.687 11.4934 30.5634 10.617Z" fill="#FAB292"/>
<path d="M41.3637 21.4203C42.2401 20.5439 42.0585 18.9413 40.9579 17.8408C39.8574 16.7402 38.2548 16.5586 37.3784 17.435C36.502 18.3114 36.6837 19.914 37.7842 21.0145C38.8847 22.115 40.4873 22.2967 41.3637 21.4203Z" fill="#FAB292"/>
<path d="M36.8025 14.4113C37.7956 13.4182 37.1694 12.6055 36.282 11.7181C35.3945 10.8307 34.5818 10.2046 33.5888 11.1976C32.5958 12.1906 32.5101 13.7151 33.3975 14.6025C34.285 15.4898 35.8094 15.4043 36.8025 14.4113Z" fill="#80622E"/>
<path d="M30.8028 7.759C30.6242 7.759 30.4454 7.69085 30.309 7.55456C30.0363 7.28177 30.0363 6.83974 30.309 6.56705L31.1228 5.75327C31.3956 5.48068 31.8376 5.48068 32.1103 5.75327C32.383 6.02605 32.383 6.46809 32.1103 6.74078L31.2965 7.55456C31.1602 7.69076 30.9815 7.759 30.8028 7.759Z" fill="#80622E"/>
<path d="M40.939 17.8953C40.7604 17.8953 40.5816 17.8272 40.4452 17.6909C40.1726 17.4181 40.1726 16.9761 40.4452 16.7034L41.259 15.8896C41.5318 15.617 41.9738 15.617 42.2465 15.8896C42.5192 16.1624 42.5192 16.6044 42.2465 16.8771L41.4327 17.6909C41.2964 17.8271 41.1177 17.8953 40.939 17.8953Z" fill="#80622E"/>
</svg>
