<svg width="24" height="24" viewBox="0 0 24 24" fill="none" xmlns="http://www.w3.org/2000/svg">
<path d="M11.9998 22C12.3798 22 12.7498 21.83 13.0098 21.55C13.6698 20.82 19.4498 14.24 19.4498 9.45C19.4498 5.34 16.1098 2 11.9998 2C7.8898 2 4.5498 5.34 4.5498 9.45C4.5498 14.24 10.3298 20.82 10.9898 21.55C11.2498 21.83 11.6198 22 11.9998 22ZM11.9998 6.33C13.7198 6.33 15.1198 7.73 15.1198 9.45C15.1198 11.17 13.7198 12.57 11.9998 12.57C10.2798 12.57 8.87981 11.17 8.87981 9.45C8.87981 7.73 10.2798 6.33 11.9998 6.33Z" fill="#666461"/>
</svg>
