<svg width="20" height="20" viewBox="0 0 20 20" fill="none" xmlns="http://www.w3.org/2000/svg">
<path d="M19.7803 10.5301L16.5003 13.8001C16.3584 13.9382 16.1682 14.0154 15.9703 14.0154C15.7723 14.0154 15.5822 13.9382 15.4403 13.8001C15.2998 13.6595 15.2209 13.4689 15.2209 13.2701C15.2209 13.0714 15.2998 12.8807 15.4403 12.7401L17.4403 10.7401H9.28027C9.08136 10.7401 8.8906 10.6611 8.74994 10.5204C8.60929 10.3798 8.53027 10.189 8.53027 9.99011C8.53027 9.7912 8.60929 9.60044 8.74994 9.45978C8.8906 9.31913 9.08136 9.24011 9.28027 9.24011H17.4303L15.4303 7.24011C15.2898 7.09949 15.2109 6.90886 15.2109 6.71011C15.2109 6.51136 15.2898 6.32074 15.4303 6.18011C15.4992 6.10936 15.5816 6.05312 15.6727 6.01472C15.7637 5.97633 15.8615 5.95654 15.9603 5.95654C16.0591 5.95654 16.1569 5.97633 16.2479 6.01472C16.3389 6.05312 16.4213 6.10936 16.4903 6.18011L19.7703 9.44011C19.8445 9.51307 19.9031 9.60031 19.9426 9.69656C19.9821 9.79281 20.0018 9.89607 20.0003 10.0001C19.9923 10.1973 19.9143 10.3852 19.7803 10.5301Z" fill="#666461"/>
<path d="M7.53 10.0001C7.53 9.53594 7.71438 9.09082 8.04256 8.76263C8.37075 8.43444 8.81587 8.25007 9.28 8.25007H15L14.74 8.00007C14.574 7.83925 14.4424 7.64645 14.353 7.43333C14.2636 7.2202 14.2184 6.99117 14.22 6.76007C14.2188 6.52993 14.2632 6.30182 14.3508 6.08897C14.4383 5.87613 14.5672 5.68276 14.73 5.52007C14.8096 5.42905 14.9003 5.34842 15 5.28007V3.60007C14.9609 2.61063 14.5321 1.6768 13.8071 1.00236C13.082 0.327916 12.1197 -0.0323863 11.13 7.19621e-05H3.88C2.88933 -0.0324375 1.92589 0.327554 1.19927 1.00173C0.472658 1.67591 0.0416457 2.60974 0 3.60007L0 16.4001C0.0416457 17.3904 0.472658 18.3242 1.19927 18.9984C1.92589 19.6726 2.88933 20.0326 3.88 20.0001H11.13C12.1197 20.0325 13.082 19.6722 13.8071 18.9978C14.5321 18.3233 14.9609 17.3895 15 16.4001V14.7201C14.9014 14.6579 14.8108 14.5841 14.73 14.5001C14.5672 14.3374 14.4383 14.144 14.3508 13.9312C14.2632 13.7183 14.2188 13.4902 14.22 13.2601C14.2157 13.0256 14.2596 12.7928 14.349 12.576C14.4385 12.3593 14.5716 12.1632 14.74 12.0001L15 11.7401H9.28C8.8176 11.7401 8.37399 11.5571 8.04609 11.231C7.71818 10.905 7.53264 10.4625 7.53 10.0001Z" fill="#666461"/>
</svg>
