<svg width="20" height="18" viewBox="0 0 20 18" fill="none" xmlns="http://www.w3.org/2000/svg">
<path d="M1.5 6.71997H0V14.43C0 16.26 1.49 17.75 3.31 17.75H16.69C18.51 17.75 20 16.26 20 14.43V6.71997H18.5H1.5ZM3.70999 8.84998H7.29001C7.71001 8.84998 8.04001 9.18998 8.04001 9.59998C8.04001 10.02 7.71001 10.35 7.29001 10.35H3.70999C3.28999 10.35 2.95999 10.02 2.95999 9.59998C2.95999 9.18998 3.28999 8.84998 3.70999 8.84998Z" fill="#666461"/>
<path d="M16.69 0.25H3.31C1.49 0.25 0 1.73 0 3.56V5.22H1.5H18.5H20V3.56C20 1.73 18.51 0.25 16.69 0.25Z" fill="#666461"/>
</svg>
