<svg width="245" height="286" viewBox="0 0 245 286" fill="none" xmlns="http://www.w3.org/2000/svg">
<path d="M44.8031 51.4051C57.8494 34.9667 80.7891 27.1245 90.6282 25.2581C94.7595 20.9963 114.637 25.7655 124.059 28.6828L139.008 36.4018L152.979 49.4481L161.731 63.3642L170.319 87.7716L182.496 134.684C185.141 142.838 191.585 163.299 196.194 179.911C200.804 196.523 195.578 220.101 192.389 229.813C189.816 238.021 177.68 257.134 149.717 267.919C114.764 281.4 61.9264 273.736 38.1713 258.08C14.4161 242.425 12.4592 230.031 7.51247 215.245C3.55509 203.416 4.88509 185.746 6.04476 178.389L12.4592 147.132L24.6357 100.437C25.9222 90.9426 31.7568 67.8434 44.8031 51.4051Z" fill="#A7C49C"/>
<path d="M44.8031 51.4051C57.8494 34.9667 80.7891 27.1245 90.6282 25.2581C94.7595 20.9963 114.637 25.7655 124.059 28.6828L139.008 36.4018L152.979 49.4481L161.731 63.3642L170.319 87.7716L182.496 134.684C185.141 142.838 191.585 163.299 196.194 179.911C200.804 196.523 195.578 220.101 192.389 229.813C189.816 238.021 177.68 257.134 149.717 267.919C114.764 281.4 61.9264 273.736 38.1713 258.08C14.4161 242.425 12.4592 230.031 7.51247 215.245C3.55509 203.416 4.88509 185.746 6.04476 178.389L12.4592 147.132L24.6357 100.437C25.9222 90.9426 31.7568 67.8434 44.8031 51.4051Z" stroke="#415539"/>
<path d="M99.3606 278.711C96.4773 278.711 83.9899 278.47 68.6615 274.673C45.7773 269.002 27.6049 257.989 16.1089 242.818C-1.70796 219.315 -4.28678 186.008 8.44858 143.827L8.49098 143.697C8.54534 143.545 13.9922 128.29 18.6138 104.962C21.2687 91.5584 26.1448 76.7454 31.9928 64.3221C39.4552 48.4686 52.2145 35.6626 67.9103 28.2643C69.8172 27.3663 71.7546 26.5248 73.6724 25.7583C91.3817 18.6796 110.8 19.0286 128.348 26.7422C146.115 34.5515 159.689 48.8502 166.571 67.0063C173.104 84.2427 179.272 105.985 184.903 131.632C186.148 137.312 187.803 142.894 189.855 148.335C196.761 166.6 210.411 212.579 188.057 244.927C172.57 267.341 142.938 278.705 99.977 278.705C99.9161 278.706 99.7085 278.711 99.3606 278.711ZM13.4497 145.407C1.2579 185.845 3.5497 217.547 20.2718 239.629C33.8356 257.542 54.6803 265.784 69.777 269.543C86.3154 273.663 99.7835 273.457 99.9226 273.457C141.105 273.457 169.285 262.854 183.737 241.942C204.68 211.635 191.558 167.677 184.944 150.183C182.803 144.507 181.075 138.684 179.775 132.759C174.198 107.361 168.104 85.8637 161.661 68.8665C155.283 52.0368 142.701 38.7818 126.234 31.5411C109.985 24.3982 92.0079 24.0743 75.6152 30.6246C73.7985 31.3508 71.9579 32.1521 70.1456 33.0066C55.5479 39.8853 43.6833 51.7987 36.7384 66.553C31.0654 78.6056 26.3339 92.9717 23.7584 105.979C19.1628 129.181 13.903 144.138 13.4497 145.407Z" fill="#415539"/>
<g opacity="0.3">
<path opacity="0.3" d="M109.494 285.858C165.403 285.858 210.726 279.19 210.726 270.964C210.726 262.739 165.403 256.071 109.494 256.071C53.5856 256.071 8.2627 262.739 8.2627 270.964C8.2627 279.19 53.5856 285.858 109.494 285.858Z" fill="#415539"/>
</g>
<path d="M98.0654 23.3587C98.0654 23.3587 185.281 12.4346 216.807 114.767C249.783 221.805 213.266 276.107 99.9756 276.107L98.0654 23.3587Z" fill="#A7C49C"/>
<g opacity="0.3">
<path opacity="0.3" d="M111.453 147.033L110.517 23.1533C102.824 22.763 98.0664 23.3588 98.0664 23.3588L99.9788 276.106C187.593 276.106 229.277 243.619 228.425 179.389C228.142 179.86 227.855 180.327 227.564 180.791C194.16 233.809 111.927 209.694 111.453 147.033Z" fill="#415539"/>
</g>
<g opacity="0.7">
<path opacity="0.7" d="M98.5904 31.2256C98.5904 31.2256 185.807 20.3015 217.332 122.634C223.223 141.759 226.879 159.194 228.299 174.939C227.544 157.191 223.713 137.134 216.808 114.767C185.28 12.4346 98.0664 23.3587 98.0664 23.3587L99.9788 276.106C100.135 276.106 100.288 276.106 100.444 276.106L98.5904 31.2256Z" fill="#FFF9F2"/>
</g>
<path d="M99.9778 278.728H97.3686L95.4258 21.0461L97.7393 20.7558C98.6569 20.6417 120.504 18.0596 146.568 28.2455C161.88 34.225 175.436 43.4031 186.862 55.5133C201.087 70.5937 212.004 90.2719 219.313 113.995C227.748 141.37 231.677 165.598 230.992 186.004C230.294 206.832 224.778 224.382 214.594 238.178C204.607 251.704 189.871 261.969 170.796 268.684C151.866 275.349 128.038 278.728 99.9778 278.728ZM100.708 25.7776L102.581 273.473C155.599 273.067 191.855 260.149 210.377 235.063C229.455 209.223 230.776 169.008 214.304 115.539C201.507 74.0021 178.152 46.3059 144.889 33.2194C124.772 25.3057 106.904 25.4275 100.706 25.7776H100.708Z" fill="#415539"/>
<g opacity="0.3">
<path opacity="0.3" d="M181.107 130.401C181.894 132.481 182.781 134.968 183.697 137.766C183.204 135.926 182.752 134.078 182.34 132.221C176.165 104.108 170.094 84.1479 164.969 70.2395C168.491 81.8507 172.253 96.0516 176.046 113.339C177.316 119.142 179.007 124.845 181.107 130.401Z" fill="#415539"/>
</g>
<g opacity="0.3">
<path opacity="0.3" d="M187.402 149.283C186.895 147.941 186.411 146.591 185.952 145.232C196.521 183.271 203.007 257.224 93.6796 257.224C93.6796 257.224 28.2209 258.502 4.93652 211.06C18.1861 277.704 99.9777 276.106 99.9777 276.106C226.456 276.106 197.934 177.123 187.402 149.283Z" fill="#415539"/>
</g>
<g opacity="0.7">
<path opacity="0.7" d="M10.4369 153.003C10.4369 153.003 15.9446 137.714 20.6641 113.886C20.9011 112.685 21.1548 111.479 21.4251 110.267C21.4403 110.204 21.4567 110.141 21.4664 110.073C21.6346 109.312 21.8129 108.548 22.0013 107.78C22.5895 105.316 23.2451 102.835 23.9583 100.359C24.0902 99.9076 24.2214 99.4564 24.3519 99.0056C24.478 98.5913 24.5976 98.1717 24.7237 97.752C24.8498 97.3324 24.9813 96.9181 25.1118 96.5039C25.2694 95.9951 25.4271 95.4918 25.5836 94.9884C25.6924 94.6622 25.8011 94.3361 25.9098 94.0099C26.0461 93.5953 26.1823 93.1811 26.3186 92.7673C26.5969 91.9388 26.8741 91.1147 27.1633 90.2972C27.3047 89.8884 27.4514 89.4785 27.5982 89.0697C27.745 88.6609 27.8874 88.2511 28.0331 87.8477C28.1788 87.4444 28.3277 87.0345 28.4788 86.6311C29.0507 85.0997 29.6399 83.5856 30.2466 82.0889C30.4097 81.6844 30.5728 81.2811 30.7402 80.8766C30.9076 80.4722 31.0761 80.0743 31.2436 79.6807C31.411 79.2872 31.5795 78.8882 31.7524 78.4946C32.4337 76.916 33.1295 75.3708 33.8398 73.8588C41.025 58.5903 53.2407 46.2442 68.5038 39.0524C70.2813 38.2142 72.1589 37.3901 74.1158 36.6084C74.6304 36.404 75.1479 36.2047 75.6684 36.0105C76.6229 35.6539 77.5793 35.3234 78.5374 35.0189C78.8256 34.92 79.1191 34.8308 79.4137 34.7417C79.654 34.6623 79.9008 34.5895 80.1421 34.5243C80.3313 34.4666 80.515 34.4155 80.7031 34.3623C81.0706 34.2536 81.4435 34.1524 81.8099 34.0524C81.9099 34.0263 82.0143 34.0002 82.1143 33.9785C82.5021 33.869 82.8902 33.7694 83.2787 33.6795C83.457 33.6328 83.6298 33.5904 83.8081 33.5545C84.0756 33.486 84.343 33.4229 84.6105 33.3708C84.978 33.2874 85.3454 33.2088 85.7129 33.1348C85.7542 33.124 85.8064 33.1131 85.8542 33.1033C86.3152 33.0087 86.7827 32.9196 87.2437 32.8359H87.2545C89.6588 32.3974 92.0855 32.0925 94.5235 31.9226C94.6496 31.9226 94.7703 31.9074 94.891 31.902C95.7727 31.8389 96.6587 31.7932 97.535 31.7758C111.805 31.4606 125.821 35.5789 137.653 43.5632C149.484 51.5475 158.548 63.0048 163.595 76.3561C168.893 90.3341 175.296 110.929 181.816 140.609C183.086 146.414 184.777 152.119 186.877 157.678C190.913 168.351 197.594 189.48 197.172 211.48C199.854 186.616 191.953 161.312 187.402 149.286C185.302 143.727 183.61 138.022 182.34 132.217C175.817 102.537 169.417 81.9388 164.119 67.9641C159.073 54.6123 150.011 43.154 138.181 35.1685C126.35 27.183 112.334 23.0633 98.0645 23.3773C97.1882 23.399 96.3021 23.4404 95.4215 23.5034C95.3008 23.5034 95.1802 23.5197 95.054 23.5241C92.6157 23.6945 90.1887 23.9993 87.784 24.4373H87.7742C87.3122 24.521 86.8457 24.6102 86.3837 24.7048C86.3369 24.7156 86.2848 24.7254 86.2424 24.7363C85.8749 24.8088 85.5078 24.8874 85.141 24.9722C84.8736 25.0244 84.6061 25.0874 84.3387 25.1559C84.1604 25.1929 83.9864 25.2342 83.8081 25.2821C83.4197 25.3712 83.0315 25.4709 82.6438 25.581C82.5448 25.6017 82.4394 25.6278 82.3404 25.6539C81.973 25.7539 81.6001 25.8528 81.2337 25.9637C81.0445 26.0159 80.8608 26.0724 80.6716 26.1257C80.4313 26.1942 80.1845 26.2681 79.9432 26.3432C79.6496 26.4323 79.3561 26.5214 79.0669 26.6215C78.1066 26.9244 77.1502 27.2546 76.1978 27.6119C75.6792 27.8065 75.1595 28.0055 74.6453 28.2099C72.6884 28.9916 70.8119 29.8156 69.0332 30.6539C53.7712 37.85 41.5556 50.1918 34.3692 65.4603C33.656 66.9708 32.9602 68.516 32.2818 70.0961C32.1089 70.4896 31.9415 70.8832 31.773 71.2822C31.6045 71.6812 31.4382 72.0791 31.2696 72.4781C31.1011 72.8771 30.9435 73.2859 30.7771 73.6903C30.1734 75.1856 29.5841 76.6997 29.0094 78.2326C28.8572 78.6359 28.7104 79.0458 28.5636 79.4492C28.4169 79.8525 28.2646 80.2624 28.1233 80.6712C27.982 81.0799 27.8287 81.4898 27.6884 81.8986C27.4003 82.7173 27.122 83.5403 26.8437 84.3687C26.7082 84.7826 26.5719 85.1971 26.4349 85.6125C26.3262 85.9321 26.2251 86.2648 26.1153 86.5909C25.9576 87.0943 25.8 87.5977 25.6434 88.1065C25.5119 88.5207 25.3803 88.9403 25.2553 89.3546C25.1303 89.7688 25.0085 90.1939 24.8824 90.6081C24.7519 91.0589 24.6207 91.5101 24.4888 91.9616C23.7756 94.4372 23.1201 96.9182 22.5319 99.3828C22.3427 100.15 22.1644 100.914 21.997 101.676C21.9861 101.743 21.9709 101.806 21.9546 101.869C21.6813 103.081 21.4277 104.287 21.1936 105.488C16.473 129.316 10.9653 144.606 10.9653 144.606C5.95549 161.202 3.55497 175.699 3.1875 188.373C4.17684 177.791 6.49909 166.049 10.4369 153.003Z" fill="#FFF9F2"/>
</g>
<g opacity="0.3">
<path opacity="0.3" d="M84.476 139.243C118.848 131.785 145.621 164.617 145.945 187.316C146 191.23 146.889 197.421 146.014 201.606C149.678 193.404 148.215 182.832 148.103 174.953C147.766 151.35 121.803 116.959 86.0622 124.714C50.423 132.447 42.0506 174.867 45.2382 185.147C47.8192 169.152 58.7737 144.821 84.476 139.243Z" fill="#415539"/>
</g>
<path d="M44.7625 185.237C44.3496 181.785 44.2768 178.301 44.545 174.835C44.7955 171.343 45.3717 167.882 46.266 164.497C47.1582 161.096 48.3459 157.78 49.8157 154.587C51.2755 151.377 53.0003 148.295 54.9723 145.372C58.9144 139.524 63.8677 134.296 69.7178 130.23C75.5506 126.16 82.3075 123.3 89.396 122.169C96.5191 121.024 103.812 121.583 110.678 123.8C117.521 126.01 123.778 129.811 129.051 134.598C134.346 139.382 138.676 145.153 141.98 151.42C145.289 157.692 147.624 164.432 148.906 171.407C149.542 174.882 149.941 178.397 150.101 181.927C150.233 185.454 150.135 188.987 149.807 192.502C149.138 199.552 147.448 206.467 144.792 213.031C142.114 219.581 138.412 225.743 133.733 231.105C129.053 236.467 123.358 240.99 116.908 244.127C110.459 247.263 103.285 248.951 96.1083 248.853C94.3177 248.744 92.5206 248.758 90.7474 248.451L89.4156 248.269C88.9701 248.221 88.5277 248.149 88.0903 248.052L85.4669 247.462C82.0107 246.548 78.6111 245.35 75.4647 243.666C69.0742 240.466 63.5306 235.765 59.0938 230.294C58.5502 229.602 58.0392 228.88 57.5196 228.169C56.9999 227.458 56.4824 226.748 56.0388 225.987L54.6559 223.749C54.42 223.379 54.2265 222.988 54.0275 222.594L53.4306 221.424C51.789 218.337 50.6039 215.033 49.6592 211.712C49.6369 211.637 49.6435 211.555 49.6775 211.484C49.7115 211.413 49.7705 211.357 49.8434 211.327C49.9162 211.297 49.9976 211.295 50.072 211.321C50.1464 211.347 50.2084 211.4 50.2463 211.469V211.478C53.5611 217.48 57.2586 223.117 61.752 228.026C62.9283 229.199 64.0025 230.465 65.256 231.547C65.867 232.104 66.4595 232.68 67.0814 233.221L68.9981 234.784C69.3243 235.038 69.6254 235.317 69.9636 235.552L70.9714 236.264C71.6476 236.731 72.301 237.233 72.9946 237.678C74.408 238.504 75.7811 239.417 77.276 240.097C80.1799 241.625 83.2958 242.684 86.4497 243.496L88.8415 244.013C89.2397 244.1 89.6427 244.163 90.0483 244.202L91.2616 244.355C92.8728 244.629 94.5101 244.594 96.1355 244.681C102.659 244.714 109.149 243.146 114.988 240.233C120.828 237.319 126.035 233.127 130.324 228.15C134.613 223.172 138.073 217.443 140.556 211.316C143.029 205.16 144.596 198.678 145.206 192.072C145.507 188.769 145.592 185.449 145.461 182.134C145.303 178.823 144.921 175.527 144.318 172.268C143.139 165.749 140.984 159.445 137.926 153.568C134.876 147.717 130.881 142.352 126.031 137.928C121.181 133.504 115.503 130.016 109.313 127.986C103.108 125.927 96.5056 125.361 90.0407 126.332C83.5926 127.293 77.3967 129.831 71.9716 133.534C66.5465 137.237 61.8607 142.058 58.0947 147.518C54.2895 152.971 51.5715 159.121 49.5059 165.457C47.3902 171.81 46.1758 178.44 45.2658 185.251C45.2564 185.318 45.2212 185.378 45.1679 185.418C45.1146 185.459 45.0475 185.477 44.981 185.469C44.924 185.46 44.8717 185.432 44.8321 185.39C44.7925 185.348 44.768 185.294 44.7625 185.237Z" fill="#415539"/>
<path d="M66.4825 98.2649C72.0378 98.2649 76.5412 92.6415 76.5412 85.7046C76.5412 78.7677 72.0378 73.1443 66.4825 73.1443C60.9273 73.1443 56.4238 78.7677 56.4238 85.7046C56.4238 92.6415 60.9273 98.2649 66.4825 98.2649Z" fill="#415539"/>
<path d="M54.1766 74.048C55.8954 73.8795 57.6186 73.7316 59.2233 73.4815C60.7748 73.2599 62.3016 72.8908 63.783 72.3791C64.4825 72.1346 65.1616 71.8351 65.8138 71.4833C66.4644 71.1408 67.0852 70.7444 67.6697 70.2983C68.871 69.4187 69.918 68.2761 71.0335 66.9758L71.0813 66.9203C71.2626 66.7084 71.5089 66.5623 71.7819 66.5049C72.0548 66.4474 72.3391 66.4819 72.5905 66.6029C72.8418 66.7238 73.0461 66.9245 73.1715 67.1736C73.297 67.4228 73.3365 67.7064 73.2839 67.9804C72.8884 69.998 71.9351 71.8643 70.5323 73.3674C69.0903 74.9081 67.2804 76.057 65.2724 76.7061C63.3535 77.3411 61.324 77.5728 59.3114 77.3867C57.3468 77.2063 55.4834 76.7344 53.7254 75.744C53.5581 75.65 53.4252 75.5052 53.3458 75.3306C53.2663 75.156 53.2445 74.9606 53.2835 74.7728C53.3225 74.585 53.4203 74.4144 53.5626 74.2859C53.705 74.1573 53.8846 74.0774 54.0755 74.0578L54.1766 74.048Z" fill="#415539"/>
<path d="M68.7679 92.8877C70.6407 92.8877 72.1589 90.9923 72.1589 88.6542C72.1589 86.3161 70.6407 84.4207 68.7679 84.4207C66.8951 84.4207 65.377 86.3161 65.377 88.6542C65.377 90.9923 66.8951 92.8877 68.7679 92.8877Z" fill="#FFF9F2"/>
<path d="M121.705 98.2649C127.26 98.2649 131.764 92.6415 131.764 85.7046C131.764 78.7677 127.26 73.1443 121.705 73.1443C116.15 73.1443 111.646 78.7677 111.646 85.7046C111.646 92.6415 116.15 98.2649 121.705 98.2649Z" fill="#415539"/>
<path d="M134.463 75.744C132.705 76.7333 130.842 77.2062 128.877 77.3867C126.865 77.5727 124.835 77.341 122.916 76.7061C120.908 76.057 119.098 74.9081 117.656 73.3674C116.253 71.8647 115.299 69.9982 114.905 67.9803C114.853 67.7068 114.893 67.424 115.019 67.1756C115.144 66.9272 115.348 66.727 115.599 66.6062C115.85 66.4854 116.133 66.4506 116.406 66.5072C116.678 66.5637 116.924 66.7086 117.106 66.9192L117.155 66.9758C118.271 68.2804 119.318 69.4187 120.519 70.2982C121.103 70.7443 121.724 71.1407 122.375 71.4833C123.027 71.8351 123.706 72.1346 124.406 72.3791C125.887 72.8908 127.414 73.2599 128.965 73.4815C130.57 73.7316 132.292 73.8794 134.012 74.048L134.108 74.0577C134.299 74.0765 134.479 74.1557 134.622 74.2838C134.766 74.412 134.864 74.5825 134.904 74.7705C134.943 74.9585 134.922 75.1543 134.843 75.3293C134.764 75.5044 134.631 75.6496 134.463 75.744Z" fill="#415539"/>
<path d="M79.7756 106.845C80.2246 105.376 80.8986 104.112 81.7206 102.869C82.5657 101.617 83.5708 100.481 84.7103 99.4892C85.9174 98.4388 87.2865 97.5907 88.7645 96.9778C90.3333 96.3264 92.0163 95.9943 93.715 96.0008C95.4137 96.0074 97.0941 96.3524 98.6579 97.0159C99.046 97.1648 99.3939 97.3714 99.7592 97.5497L100.303 97.8291C100.475 97.9302 100.638 98.0465 100.804 98.1552C101.13 98.3727 101.468 98.5901 101.783 98.8184L102.676 99.5588C104.912 101.499 106.63 103.965 107.677 106.734C107.756 106.941 107.767 107.168 107.708 107.382C107.65 107.596 107.525 107.785 107.351 107.924C107.178 108.062 106.965 108.141 106.744 108.151C106.522 108.16 106.304 108.099 106.119 107.976L106.093 107.957C103.81 106.409 101.768 104.851 99.6788 103.753C97.6033 102.632 95.604 101.955 93.6558 101.938C91.7108 101.894 89.6766 102.491 87.6044 103.593C85.5388 104.669 83.4612 106.228 81.3966 107.85L81.3259 107.906C81.1607 108.036 80.9584 108.109 80.7485 108.116C80.5386 108.123 80.332 108.063 80.1587 107.944C79.9855 107.825 79.8546 107.654 79.7851 107.456C79.7156 107.258 79.7111 107.043 79.7723 106.842L79.7756 106.845Z" fill="#415539"/>
<path d="M119.42 92.8877C121.293 92.8877 122.811 90.9923 122.811 88.6542C122.811 86.3161 121.293 84.4207 119.42 84.4207C117.547 84.4207 116.029 86.3161 116.029 88.6542C116.029 90.9923 117.547 92.8877 119.42 92.8877Z" fill="#FFF9F2"/>
<path d="M99.3605 278.711C96.4773 278.711 83.9898 278.47 68.6615 274.673C45.7773 269.002 27.6049 257.989 16.1089 242.818C-1.70796 219.315 -4.28678 186.008 8.44858 143.827L8.49098 143.697C8.54534 143.545 13.9922 128.29 18.6138 104.962C21.2687 91.5584 26.1448 76.7454 31.9928 64.3221C39.4552 48.4686 52.2145 35.6626 67.9103 28.2643C69.8172 27.3663 71.7546 26.5248 73.6724 25.7583C91.3817 18.6796 110.8 19.0286 128.348 26.7422C146.115 34.5515 159.689 48.8502 166.571 67.0063C173.104 84.2427 179.272 105.985 184.903 131.632C186.148 137.312 187.803 142.894 189.855 148.335C196.761 166.6 210.411 212.579 188.057 244.927C172.57 267.341 142.938 278.705 99.977 278.705C99.9161 278.706 99.7085 278.711 99.3605 278.711ZM13.4497 145.407C1.2579 185.845 3.54969 217.547 20.2718 239.629C33.8356 257.542 54.6803 265.784 69.777 269.543C86.3153 273.663 99.7835 273.457 99.9226 273.457C141.105 273.457 169.285 262.854 183.737 241.942C204.68 211.635 191.558 167.677 184.944 150.183C182.803 144.507 181.075 138.684 179.775 132.759C174.198 107.361 168.104 85.8637 161.661 68.8665C155.283 52.0368 142.701 38.7818 126.234 31.5411C109.985 24.3982 92.0079 24.0743 75.6152 30.6246C73.7985 31.3508 71.9579 32.1521 70.1456 33.0066C55.5479 39.8853 43.6833 51.7987 36.7384 66.553C31.0654 78.6056 26.3339 92.9717 23.7584 105.979C19.1628 129.181 13.903 144.138 13.4497 145.407Z" fill="#415539"/>
<path d="M137.065 129.772C137.065 129.772 113.125 151.857 124.59 163.826C136.054 175.795 157.464 144.776 157.464 144.776C157.464 144.776 159.571 124.124 137.065 129.772Z" fill="#F2F7F1"/>
<g opacity="0.3">
<path opacity="0.3" d="M121.481 152.249C121.481 152.249 116.463 163.264 121.481 168.209C126.5 173.155 138.245 175.796 149.709 164.332C155.259 158.781 159.427 153.113 162.249 148.741C165.706 143.385 159.385 136.988 154.065 140.498C153.058 141.17 152.109 141.924 151.227 142.753C141.786 151.519 129.163 169.671 121.481 152.249Z" fill="#415539"/>
</g>
<path d="M130.819 169.195C127.727 169.195 124.935 167.978 122.696 165.64C120.033 162.859 118.745 159.443 118.867 155.482C119.261 142.771 134.632 128.448 135.284 127.844C135.795 127.372 136.473 127.123 137.168 127.151C137.863 127.179 138.518 127.482 138.99 127.993C139.462 128.504 139.711 129.182 139.683 129.877C139.655 130.572 139.352 131.228 138.841 131.699C138.65 131.875 124.426 145.154 124.107 155.649C124.029 158.182 124.806 160.263 126.481 162.012C127.88 163.474 129.428 164.078 131.36 163.928C139.763 163.258 151.493 148.8 155.304 143.286C155.699 142.713 156.305 142.321 156.989 142.196C157.673 142.071 158.379 142.222 158.952 142.617C159.524 143.013 159.916 143.619 160.041 144.303C160.166 144.987 160.015 145.693 159.62 146.266C158.075 148.504 144.167 168.165 131.781 169.156C131.458 169.182 131.137 169.195 130.819 169.195Z" fill="#415539"/>
<path d="M55.8049 129.772C55.8049 129.772 79.7448 151.857 68.2804 163.826C56.816 175.795 35.4059 144.776 35.4059 144.776C35.4059 144.776 33.2989 124.124 55.8049 129.772Z" fill="#F2F7F1"/>
<g opacity="0.3">
<path opacity="0.3" d="M54.9043 163.965C54.9043 163.965 64.2476 170.923 69.9194 167.205C75.5913 163.487 80.4652 152.974 72.0036 139.86C67.9081 133.511 63.4148 128.444 59.8803 124.896C55.5446 120.556 48.2409 125.205 50.4631 130.923C50.8916 132.006 51.4083 133.052 52.008 134.051C58.3387 144.713 72.8538 160.275 54.9043 163.965Z" fill="#415539"/>
</g>
<path d="M62.0537 169.196C61.7341 169.196 61.4123 169.183 61.0883 169.156C48.7019 168.165 34.7935 148.5 33.2486 146.266C32.8534 145.693 32.7018 144.987 32.8271 144.303C32.9524 143.619 33.3443 143.013 33.9167 142.618C34.489 142.222 35.1949 142.071 35.8791 142.196C36.5632 142.321 37.1696 142.713 37.5647 143.286C41.3699 148.8 53.105 163.258 61.5079 163.928C63.4366 164.083 64.987 163.474 66.3873 162.013C68.0626 160.263 68.8389 158.182 68.7617 155.649C68.441 145.138 54.1705 131.832 54.027 131.698C53.5159 131.227 53.2131 130.571 53.1853 129.876C53.1575 129.181 53.4069 128.504 53.8786 127.993C54.3503 127.482 55.0057 127.179 55.7007 127.151C56.3956 127.123 57.0732 127.373 57.5843 127.844C58.2366 128.448 73.6106 142.771 74.0009 155.482C74.1237 159.442 72.8354 162.859 70.1729 165.64C67.9365 167.978 65.1446 169.195 62.0537 169.196Z" fill="#415539"/>
<g opacity="0.1">
<path opacity="0.1" d="M242.151 3.43128C243.476 2.92169 244.335 1.94704 244.068 1.25433C243.802 0.561619 242.512 0.413169 241.186 0.922759C239.861 1.43235 239.002 2.40701 239.268 3.09972C239.535 3.79243 240.825 3.94087 242.151 3.43128Z" fill="#FFF9F2"/>
</g>
<g opacity="0.1">
<path opacity="0.1" d="M222.413 5.67209C223.209 4.72244 223.452 3.61548 222.956 3.19959C222.46 2.7837 221.413 3.21639 220.617 4.16603C219.82 5.11567 219.577 6.22264 220.073 6.63853C220.569 7.05441 221.616 6.62173 222.413 5.67209Z" fill="#FFF9F2"/>
</g>
</svg>
