<svg width="62" height="118" viewBox="0 0 62 118" fill="none" xmlns="http://www.w3.org/2000/svg">
<g opacity="0.3">
<path opacity="0.3" d="M31.2763 118C46.2742 118 58.4325 114.817 58.4325 110.891C58.4325 106.964 46.2742 103.781 31.2763 103.781C16.2784 103.781 4.12012 106.964 4.12012 110.891C4.12012 114.817 16.2784 118 31.2763 118Z" fill="#31241B"/>
</g>
<path d="M60.5484 36.747L60.5349 36.9102L59.8031 45.2375C59.8031 45.9415 59.0146 46.6118 57.5883 47.2225C57.2925 47.3494 57.0336 47.5491 56.8358 47.803C56.638 48.057 56.5077 48.3568 56.457 48.6747L47.1136 107.209C46.0803 114.524 16.3036 114.913 15.2026 107.209L5.62794 47.591C3.69749 46.9192 2.56542 46.1618 2.46041 45.359L2.45455 45.2858L1.72057 36.9069L1.70703 36.7459C1.70703 33.8308 14.8792 31.4694 31.1284 31.4694C47.3777 31.4694 60.5484 33.8319 60.5484 36.747Z" fill="#944C2C"/>
<path d="M53.2883 49.2075L45.1775 101.51C44.998 102.635 44.4954 103.683 43.7311 104.528C42.9667 105.372 41.9734 105.976 40.8721 106.267C35.6522 107.631 26.57 107.6 21.3652 106.24C19.1197 105.655 17.444 103.779 17.074 101.488L8.97245 49.2082L8.74376 47.8328C8.68394 47.4726 8.52508 47.1362 8.28495 46.8612C8.04482 46.5862 7.73291 46.3834 7.3841 46.2756L7.08041 46.1815C6.8934 46.1235 6.72716 46.0127 6.60173 45.8623C6.47631 45.7119 6.39705 45.5285 6.37351 45.3341L5.36328 36.9391H56.4905L55.4763 45.366C55.4538 45.5526 55.3798 45.7293 55.2627 45.8764C55.1455 46.0234 54.9898 46.135 54.8129 46.1987C54.4845 46.317 54.1935 46.5205 53.9696 46.7883C53.7458 47.056 53.5971 47.3785 53.5389 47.7227L53.2883 49.2075Z" fill="#E05656"/>
<g opacity="0.6">
<path opacity="0.6" d="M56.4887 36.9391L55.4751 45.3656C55.4527 45.5522 55.3789 45.7289 55.262 45.876C55.1451 46.0231 54.9896 46.1348 54.8129 46.1987C54.4838 46.3168 54.1921 46.5205 53.968 46.7889C53.7428 47.0557 53.5939 47.3785 53.537 47.723L53.2864 49.2067L45.1764 101.509C44.8057 103.806 43.1219 105.68 40.8709 106.265C35.6511 107.631 26.5682 107.6 21.3637 106.24C20.8477 106.105 20.3529 105.9 19.8936 105.628C25.1525 106.887 33.905 106.883 38.9931 105.555C40.0944 105.265 41.0876 104.661 41.852 103.816C42.6163 102.972 43.1189 101.923 43.2986 100.799L51.4104 48.4965L51.6607 47.0106C51.7196 46.6667 51.8684 46.3445 52.0922 46.0767C52.316 45.809 52.6067 45.6053 52.9347 45.4863C53.1118 45.4235 53.2676 45.3123 53.3847 45.1653C53.5018 45.0184 53.5753 44.8416 53.597 44.655L54.5271 36.9395L56.4887 36.9391Z" fill="#FFF9F2"/>
</g>
<path d="M31.2165 107.85C27.5576 107.85 23.8884 107.501 21.2189 106.803C18.7604 106.161 16.9079 104.111 16.4989 101.58L8.39689 49.2975L8.16894 47.9283C8.12784 47.6742 8.01643 47.4368 7.84733 47.2428C7.67823 47.0488 7.45819 46.906 7.21213 46.8306L6.90844 46.7369C6.61395 46.6456 6.35216 46.471 6.15461 46.2342C5.95707 45.9975 5.83219 45.7086 5.79503 45.4025L4.78736 37.0086C4.77754 36.9268 4.78517 36.8438 4.80975 36.7652C4.83432 36.6865 4.87529 36.614 4.92996 36.5524C4.98462 36.4907 5.05173 36.4414 5.12686 36.4075C5.202 36.3737 5.28345 36.3562 5.36584 36.3562H56.4913C56.5737 36.3562 56.6551 36.3737 56.7303 36.4075C56.8054 36.4414 56.8725 36.4907 56.9272 36.5524C56.9818 36.614 57.0228 36.6865 57.0474 36.7652C57.0719 36.8438 57.0796 36.9268 57.0697 37.0086L56.0555 45.4358C56.0209 45.7301 55.9048 46.0088 55.7202 46.2405C55.5356 46.4722 55.2899 46.6477 55.0109 46.7472C54.7798 46.8304 54.5749 46.9736 54.4174 47.162C54.2598 47.3505 54.1551 47.5774 54.1141 47.8196L53.8642 49.3007L45.7542 101.599C45.3447 104.133 43.4856 106.185 41.0202 106.83C38.4155 107.51 34.8224 107.85 31.2165 107.85ZM6.02079 37.5216L6.95272 45.2642C6.96272 45.347 6.99644 45.425 7.0498 45.489C7.10316 45.553 7.1739 45.6003 7.25348 45.625L7.55717 45.7187C8.00994 45.8572 8.41493 46.1196 8.72633 46.4763C9.03774 46.8329 9.24314 47.2696 9.31931 47.7369L9.54799 49.1127L17.6507 101.399C17.9847 103.47 19.5014 105.151 21.5134 105.677C26.6582 107.021 35.6369 107.033 40.7257 105.703C41.7179 105.441 42.6126 104.897 43.3012 104.136C43.9897 103.375 44.4424 102.431 44.6042 101.418L52.7142 49.1189C52.714 49.1163 52.714 49.1138 52.7142 49.1112L52.9648 47.6264C53.0404 47.1803 53.2331 46.7623 53.5232 46.4152C53.8133 46.068 54.1905 45.8042 54.6161 45.6506C54.6914 45.6237 54.7578 45.5763 54.8076 45.5137C54.8575 45.4512 54.8888 45.3759 54.8982 45.2964L55.8341 37.5216H6.02079Z" fill="#31241B"/>
<g opacity="0.35">
<path opacity="0.35" d="M35.6267 92.1915H38.8099C38.995 92.1914 39.1781 92.2303 39.3472 92.3055C39.5164 92.3807 39.6678 92.4906 39.7918 92.6282C39.9157 92.7657 40.0093 92.9277 40.0666 93.1037C40.1239 93.2798 40.1435 93.4659 40.1242 93.65L39.586 98.8113C39.5537 99.1215 39.4127 99.4104 39.1879 99.6266C38.9631 99.8428 38.669 99.9725 38.3577 99.9927L35.402 100.185C35.2152 100.197 35.028 100.169 34.8527 100.104C34.6774 100.038 34.5181 99.9357 34.3853 99.8038C34.2525 99.6719 34.1492 99.5133 34.0823 99.3384C34.0154 99.1636 33.9865 98.9765 33.9973 98.7897L34.3084 93.4363C34.3279 93.0998 34.4752 92.7835 34.7203 92.5521C34.9654 92.3207 35.2896 92.1917 35.6267 92.1915Z" fill="#FFF9F2"/>
</g>
<g opacity="0.35">
<path opacity="0.35" d="M44.5391 51.327L40.7989 87.1871C40.7649 87.512 40.6118 87.8128 40.3691 88.0315C40.1264 88.2503 39.8114 88.3713 39.4847 88.3715H36.005C35.8252 88.3712 35.6472 88.3343 35.4822 88.2629C35.3171 88.1914 35.1683 88.0871 35.045 87.9561C34.9217 87.8252 34.8264 87.6705 34.765 87.5014C34.7036 87.3324 34.6773 87.1526 34.6878 86.973L36.7481 51.5546C36.7666 51.2373 36.8988 50.9372 37.1206 50.7095C37.3424 50.4818 37.6389 50.3417 37.9556 50.315L43.1147 49.873C43.3084 49.8568 43.5033 49.8836 43.6855 49.9514C43.8677 50.0192 44.0327 50.1263 44.1687 50.2652C44.3047 50.404 44.4085 50.5712 44.4725 50.7547C44.5365 50.9383 44.5593 51.1337 44.5391 51.327Z" fill="#FFF9F2"/>
</g>
<g opacity="0.3">
<path opacity="0.3" d="M28.9815 112.804C22.0661 112.523 15.6996 110.693 15.2013 107.209L5.79783 48.6733C5.74669 48.3552 5.61586 48.0551 5.41754 47.8011C5.21921 47.5471 4.95984 47.3475 4.66357 47.2207C3.32184 46.6459 2.54505 46.0184 2.45943 45.3602L2.45358 45.287L1.71959 36.908L1.70605 36.7471C1.70605 35.0145 6.35289 33.4785 13.5328 32.5173L19.8949 37.8191L20.4452 41.5399L17.9846 49.1274L18.4237 49.9799L20.7852 51.2971C20.7852 51.2971 19.7888 52.2719 18.3092 52.2254L24.1894 104.683C24.1894 104.683 25.189 111.602 28.9815 112.804Z" fill="#31241B"/>
</g>
<path d="M30.2899 51.1679C23.8772 51.1679 17.6121 50.6663 12.0454 49.6627C11.8987 49.6299 11.7704 49.5417 11.6872 49.4166C11.604 49.2914 11.5724 49.139 11.599 48.9911C11.6256 48.8432 11.7084 48.7113 11.8299 48.6229C11.9515 48.5346 12.1025 48.4967 12.2514 48.517C23.3708 50.5225 37.3267 50.4994 49.583 48.4548C49.6585 48.4423 49.7357 48.4446 49.8102 48.4619C49.8848 48.4791 49.9552 48.5109 50.0174 48.5554C50.0797 48.5998 50.1326 48.6561 50.1731 48.721C50.2136 48.7859 50.2409 48.8581 50.2535 48.9336C50.2661 49.0091 50.2637 49.0863 50.2465 49.1608C50.2292 49.2353 50.1975 49.3058 50.153 49.368C50.1085 49.4303 50.0523 49.4832 49.9874 49.5237C49.9225 49.5642 49.8502 49.5915 49.7747 49.6041C43.522 50.6458 36.8284 51.1679 30.2899 51.1679Z" fill="#31241B"/>
<path d="M30.88 113.5C30.2422 113.5 29.6042 113.487 28.9661 113.463H28.9565C22.3822 113.195 15.1456 111.437 14.5539 107.306L5.15268 48.7768C5.11946 48.5674 5.03343 48.3699 4.90271 48.2029C4.77198 48.036 4.60087 47.9051 4.40553 47.8226C2.77584 47.1248 1.9266 46.3466 1.80769 45.4443C1.80769 45.4341 1.8055 45.4238 1.80476 45.4136L1.79891 45.3404L1.05103 36.8012C1.05103 36.7829 1.04883 36.7646 1.04883 36.7456C1.04883 34.6091 5.22 32.9674 13.4442 31.8664C18.5769 31.1778 24.6913 30.8141 31.1259 30.8141C39.0226 30.8141 46.4521 31.3662 52.0455 32.3695C54.7959 32.8624 56.9645 33.4408 58.491 34.0892C60.3157 34.8631 61.203 35.7324 61.203 36.7467C61.203 36.765 61.203 36.7833 61.2008 36.8012L61.1873 36.9644L60.4555 45.2701C60.4372 46.2456 59.5825 47.0817 57.8441 47.8252C57.6497 47.9081 57.4795 48.039 57.3496 48.2057C57.2197 48.3725 57.1342 48.5695 57.1014 48.7783L47.7612 107.312C47.4608 109.443 45.1751 111.16 41.1528 112.268C38.2608 113.065 34.6001 113.5 30.88 113.5ZM29.0027 112.151H29.0118C38.1909 112.521 46.021 110.265 46.4649 107.119L55.8098 48.573C55.8767 48.1453 56.0515 47.7417 56.3176 47.4001C56.5837 47.0586 56.9324 46.7905 57.3308 46.621C58.6703 46.048 59.1474 45.5314 59.1474 45.239C59.1474 45.2196 59.1474 45.2024 59.15 45.1816L59.8928 36.7295C59.8562 36.1514 58.1332 34.7957 51.8157 33.6626C46.2962 32.6746 38.9491 32.128 31.1274 32.128C24.7499 32.128 18.6962 32.4877 13.6198 33.169C4.79777 34.3501 2.40592 36.0006 2.36202 36.7284L2.37263 36.8546L3.11136 45.2881C3.15966 45.5808 3.6602 46.0788 4.9218 46.6195C5.32084 46.7887 5.67025 47.0566 5.93712 47.3982C6.20399 47.7397 6.37953 48.1435 6.44721 48.5716L15.8506 107.107C16.2392 109.821 21.5238 111.843 29.0027 112.149V112.151Z" fill="#31241B"/>
<path d="M57.4417 37.5994C57.4417 38.9532 54.2548 40.1764 49.1531 41.0366C49.058 41.468 49.0093 41.9107 48.8736 42.33C48.6793 42.9341 48.2014 43.532 47.5684 43.54C46.9431 43.5496 46.3819 42.9824 45.7701 43.1068C45.3877 43.1844 45.1042 43.5225 44.9527 43.8818C44.836 44.1555 44.776 44.4467 44.7061 44.7361H44.7057C44.6845 44.8254 44.6592 44.9169 44.6325 45.0062C44.2205 46.3461 42.8031 47.4123 41.4357 47.1112C40.3077 46.8627 39.521 45.8236 39.0801 44.7555C38.7307 43.9089 38.5287 42.9993 38.1987 42.1456C35.9495 42.2583 33.5785 42.3183 31.1296 42.3183C28.339 42.3183 25.6493 42.2408 23.1265 42.0951L23.0295 42.0893C22.9684 42.9692 23.0537 43.8531 23.282 44.705C23.6237 45.9615 24.2783 47.1909 24.1363 48.4862C24.0922 48.8748 23.9721 49.251 23.7829 49.5934C23.3325 50.4302 22.5088 51.0749 21.571 51.2498C20.2465 51.4945 18.8016 50.7876 18.184 49.5912C17.5744 48.4086 17.7665 46.9714 18.1726 45.7054C18.5788 44.4394 19.1862 43.2254 19.3823 41.9107C19.3863 41.8815 19.39 41.8522 19.394 41.8233C18.0577 41.7047 16.7877 41.565 15.5953 41.4076C14.7818 41.3008 14.0057 41.1861 13.2671 41.0637C13.2625 41.2094 13.2488 41.3547 13.2261 41.4987C13.1164 42.2038 12.6982 42.8891 12.0454 43.1749C11.3927 43.4606 10.513 43.2294 10.1987 42.5895C9.98104 42.1504 10.0549 41.6612 10.1483 41.1625C10.1929 40.9334 10.2412 40.7022 10.2664 40.475C9.55404 40.3099 8.90129 40.1332 8.31476 39.9528C7.11098 39.5778 6.18637 39.1702 5.59216 38.7388C5.58858 38.7374 5.58524 38.7354 5.58228 38.7329L5.57862 38.7293C5.07954 38.3682 4.81537 37.9873 4.81537 37.599C4.72541 37.2021 4.65604 36.8008 4.60754 36.3967C4.21128 33.0448 5.68143 31.0426 9.42781 30.6932C9.97921 29.0174 10.928 28.0811 12.5833 28.4612C12.9078 24.9929 14.1738 22.1679 18.1609 21.1983C19.1854 20.9476 20.3903 20.8214 21.806 20.839C22.2586 18.7168 24.5736 17.2733 26.9526 18.4607C31.3628 16.1433 35.3763 16.4508 38.993 19.3831C41.7116 18.5909 43.848 19.9502 44.3819 22.2005C48.2464 20.9985 51.3247 23.4628 51.4956 27.5198C52.9522 27.2245 54.4084 28.5838 53.9229 30.2347C57.7446 30.0393 58.1215 35.137 57.4417 37.5994Z" fill="#FFF9F2"/>
<path d="M21.0458 51.3886C19.8515 51.3886 18.6495 50.6956 18.101 49.6323C17.5753 48.6122 17.5694 47.2811 18.0839 45.6767C18.2185 45.2559 18.3766 44.8351 18.5313 44.429C18.8394 43.6145 19.1581 42.7726 19.2887 41.9043C18.0056 41.7891 16.759 41.6518 15.5819 41.4967C14.8084 41.395 14.0587 41.2852 13.3499 41.1674C13.3437 41.2822 13.3315 41.3967 13.3133 41.5102C13.1882 42.3079 12.7151 42.9767 12.0788 43.2552C11.3511 43.5706 10.4323 43.2757 10.1133 42.6251C9.88786 42.1703 9.95335 41.6844 10.0551 41.1425L10.0737 41.0481C10.1063 40.8813 10.1403 40.7097 10.1626 40.5425C9.50404 40.3884 8.87397 40.2186 8.28488 40.0368C7.05512 39.6544 6.13014 39.2413 5.5352 38.8096L5.51325 38.7931C4.99441 38.4188 4.72512 38.0171 4.72073 37.6062C4.63135 37.2093 4.56222 36.8081 4.51363 36.4042C4.31092 34.6893 4.60218 33.3307 5.37933 32.3713C6.181 31.3801 7.5187 30.7859 9.35658 30.6048C9.97128 28.7849 11.0013 28.0436 12.4989 28.3458C12.9127 24.186 14.6543 21.9511 18.1362 21.1048L18.1486 21.1022C19.1801 20.8516 20.3846 20.7283 21.7318 20.7422C21.8562 20.213 22.0966 19.718 22.4356 19.293C22.7745 18.868 23.2036 18.5235 23.6919 18.2845C24.7029 17.7975 25.858 17.8224 26.9483 18.3529C31.339 16.062 35.3957 16.3731 39.0103 19.2768C40.3499 18.8974 41.5957 19.01 42.6162 19.6039C43.5192 20.1293 44.1658 21.0056 44.4457 22.0781C46.217 21.553 47.9111 21.7711 49.2257 22.6968C50.6143 23.6748 51.469 25.3868 51.5802 27.4051C51.9382 27.3548 52.303 27.3927 52.6431 27.5154C52.9831 27.638 53.2881 27.8418 53.5315 28.1091C54.0372 28.6601 54.2201 29.3915 54.0416 30.1321C55.1235 30.1068 56.0046 30.5068 56.6541 31.3165C57.9921 32.9853 57.9713 35.9955 57.5322 37.6098C57.5088 39.4323 52.3523 40.5838 49.2286 41.114C49.2016 41.2428 49.1778 41.3727 49.1555 41.5026C49.1042 41.7847 49.0512 42.0763 48.9608 42.3558C48.7588 42.9833 48.2502 43.6207 47.5704 43.6291C47.2627 43.6291 46.9788 43.5117 46.7021 43.3935C46.3886 43.2592 46.0926 43.1319 45.7892 43.1941C45.4859 43.2563 45.2016 43.5259 45.0377 43.9149C44.9407 44.1425 44.8848 44.3796 44.8255 44.6306L44.7764 44.8252C44.7589 44.8937 44.7399 44.9624 44.7186 45.0301C44.3162 46.3397 42.8943 47.5241 41.415 47.1984C40.4179 46.9789 39.5358 46.1007 38.9942 44.7879C38.8054 44.3309 38.6576 43.8501 38.5149 43.3851C38.3978 43.0056 38.2775 42.6134 38.1355 42.238C35.867 42.3503 33.5103 42.4074 31.1283 42.4074C28.3804 42.4074 25.686 42.332 23.12 42.1839H23.1138C23.0647 43.0241 23.1512 43.8668 23.3699 44.6796C23.4658 45.0309 23.5894 45.3876 23.7073 45.7326C24.0139 46.6232 24.3293 47.5442 24.2272 48.494C24.1816 48.8947 24.0573 49.2824 23.8613 49.6349C23.3827 50.5247 22.5316 51.1614 21.5862 51.3374C21.408 51.3711 21.2271 51.3882 21.0458 51.3886ZM13.1791 40.9566L13.2811 40.9738C14.0159 41.0957 14.7985 41.2109 15.6068 41.3171C16.8105 41.4759 18.0871 41.6156 19.4014 41.7323L19.4969 41.7408L19.4724 41.9237C19.3396 42.815 19.0161 43.6694 18.704 44.4956C18.5511 44.898 18.3927 45.3181 18.2595 45.7341C17.7604 47.291 17.7622 48.5749 18.2653 49.55C18.861 50.7048 20.2752 51.3974 21.554 51.1599C22.446 50.9938 23.2488 50.3916 23.7021 49.55C23.8861 49.2182 24.0027 48.8534 24.0453 48.4765C24.1449 47.5669 23.8346 46.666 23.5331 45.7945C23.4131 45.4465 23.2894 45.0868 23.1921 44.7294C22.9604 43.8677 22.8738 42.9734 22.936 42.0832L22.9422 41.9929L23.1299 42.0038C25.6911 42.1502 28.383 42.227 31.1276 42.227C33.5296 42.227 35.9065 42.1689 38.1918 42.0543L38.2581 42.051L38.2818 42.1129C38.4363 42.5132 38.5647 42.9303 38.6887 43.3339C38.8307 43.7952 38.9771 44.2716 39.1626 44.721C39.681 45.9767 40.5164 46.8157 41.4534 47.0221C42.8332 47.3246 44.1647 46.2105 44.543 44.9793C44.5694 44.8922 44.5942 44.8029 44.6162 44.7151L44.6477 44.5911C44.7062 44.3437 44.7666 44.0876 44.8698 43.8461C45.0571 43.4015 45.3871 43.0916 45.753 43.0174C46.1127 42.9442 46.4482 43.0905 46.7746 43.2277C47.0453 43.3434 47.2996 43.4517 47.5682 43.4473C48.1584 43.44 48.6059 42.8662 48.7877 42.3009C48.8744 42.0327 48.9264 41.747 48.9765 41.4711C49.004 41.3189 49.0318 41.1663 49.0651 41.0156L49.0782 40.9556L49.1393 40.9453C54.3581 40.065 57.3514 38.8451 57.3514 37.5981L57.3547 37.574C57.7887 36.0006 57.815 33.0559 56.5132 31.4332C55.878 30.641 55.0075 30.2671 53.9278 30.3212L53.799 30.3278L53.8356 30.2045C54.0467 29.4856 53.8875 28.7677 53.3965 28.2349C52.9135 27.7084 52.192 27.4666 51.5118 27.6049L51.4068 27.6261L51.4024 27.5192C51.3179 25.5127 50.4877 23.8106 49.1203 22.8486C47.8298 21.9401 46.1566 21.7389 44.4073 22.2833L44.314 22.3126L44.2913 22.2171C44.0381 21.1505 43.4109 20.2779 42.5255 19.7656C41.5376 19.1912 40.3243 19.0876 39.0169 19.4692L38.9708 19.4824L38.9342 19.4524C35.3609 16.5619 31.3438 16.2552 26.9941 18.5399L26.9524 18.5618L26.9106 18.541C25.8583 18.0159 24.7435 17.9848 23.7717 18.4528C23.2971 18.6852 22.8815 19.0224 22.5564 19.4389C22.2312 19.8554 22.0049 20.3403 21.8946 20.8571L21.8789 20.9302H21.8039C20.4387 20.9142 19.2196 21.0334 18.1815 21.287L18.1691 21.2896C14.7535 22.1234 13.058 24.3382 12.6716 28.4695L12.6621 28.5734L12.5603 28.5503C11.0997 28.2155 10.1026 28.9268 9.51172 30.723L9.49306 30.7801L9.43342 30.7856C7.61603 30.955 6.29991 31.5291 5.52203 32.4906C4.77707 33.4123 4.49753 34.7226 4.69548 36.3874C4.74391 36.7884 4.81278 37.1866 4.90184 37.5806L4.90403 37.6003C4.90403 37.9527 5.14809 38.308 5.62924 38.6563L5.63838 38.6647C6.23186 39.0902 7.13561 39.492 8.3394 39.8667C8.94788 40.0544 9.60246 40.2293 10.2845 40.3873L10.3635 40.4056L10.3547 40.4865C10.3324 40.6866 10.2922 40.889 10.2534 41.0876L10.2351 41.1813C10.1396 41.6895 10.077 42.144 10.2775 42.5486C10.5563 43.1161 11.3639 43.3701 12.0064 43.0916C12.5856 42.8384 13.0173 42.223 13.133 41.4857C13.1549 41.3452 13.1682 41.2035 13.1728 41.0613L13.1791 40.9566Z" fill="#31241B"/>
<path d="M21.029 51.885C19.6492 51.885 18.2998 51.099 17.6602 49.8601C17.0719 48.7189 17.0554 47.2623 17.6116 45.5265C17.7502 45.0936 17.9116 44.667 18.0675 44.2547C18.3137 43.6041 18.5493 42.9817 18.6983 42.3484C16.9365 42.18 15.2856 41.9762 13.7756 41.7402C13.5926 42.6356 13.0266 43.3846 12.2776 43.712C11.3007 44.135 10.1075 43.7384 9.6695 42.8467C9.34971 42.2009 9.47814 41.5353 9.59157 40.9477C9.5934 40.9378 9.59523 40.928 9.59742 40.9181C6.04826 40.0334 4.29198 38.9686 4.22795 37.6712C3.7179 35.3448 3.93121 33.5153 4.86314 32.2347C5.69262 31.0942 7.08191 30.3939 8.99772 30.1491C9.75512 28.1997 10.9809 27.7364 12.0657 27.7946C12.3676 25.4628 13.0976 23.7899 14.3412 22.5624C15.8886 21.0358 18.1882 20.277 21.3609 20.2481C21.5372 19.7265 21.8152 19.2451 22.1787 18.8316C22.5422 18.4181 22.984 18.0808 23.4787 17.839C24.5577 17.3198 25.7757 17.3092 26.9385 17.8025C31.3567 15.5738 35.4543 15.8874 39.1268 18.7347C40.4905 18.4054 41.8091 18.5591 42.8684 19.1738C43.7491 19.6861 44.4128 20.491 44.778 21.4789C46.5262 21.0787 48.1892 21.3597 49.5123 22.2912C50.9114 23.2766 51.8126 24.9311 52.0369 26.8898C52.7492 26.9305 53.4175 27.2475 53.8997 27.7734C54.3759 28.2845 54.6301 28.9636 54.6066 29.6618C55.5879 29.7715 56.421 30.2296 57.0438 31.0061C58.5542 32.8897 58.4525 36.0649 58.0281 37.6818C57.9768 38.5819 57.1269 39.3554 55.4335 40.0429C54.0391 40.6085 52.0962 41.1124 49.6524 41.543C49.6495 41.5588 49.6465 41.5745 49.644 41.5902C49.5898 41.8884 49.5342 42.1965 49.4329 42.5079C49.1961 43.2448 48.5675 44.1112 47.5774 44.1233C47.1702 44.1233 46.8175 43.9799 46.5087 43.8478C46.2679 43.745 46.041 43.6484 45.8885 43.6787C45.7465 43.7076 45.5921 43.8756 45.4948 44.1068C45.4172 44.2898 45.3671 44.4947 45.3144 44.7135C45.2778 44.8631 45.2412 45.0175 45.1925 45.1752C44.7257 46.6952 43.0535 48.0658 41.3093 47.6812C39.7246 47.3318 38.8926 45.8368 38.5377 44.9762C38.3401 44.498 38.189 44.0062 38.0426 43.5302C37.9599 43.2613 37.8802 43.0022 37.7942 42.7494C35.631 42.8504 33.391 42.902 31.1291 42.902C28.5507 42.902 26.0198 42.8357 23.5965 42.7055C23.6014 43.3283 23.6857 43.948 23.8475 44.5496C23.9386 44.8844 24.0535 45.2177 24.1749 45.5708C24.4995 46.5126 24.8336 47.4869 24.7187 48.5469C24.5419 50.1503 23.2631 51.5275 21.6781 51.8231C21.4641 51.8635 21.2468 51.8842 21.029 51.885ZM13.2644 40.4775C13.2965 40.4775 13.3286 40.4802 13.3603 40.4856C15.1798 40.7878 17.2263 41.0418 19.4432 41.2393C19.5222 41.2462 19.5989 41.2691 19.6688 41.3065C19.7386 41.344 19.8002 41.3952 19.8496 41.4571C19.8991 41.5191 19.9355 41.5904 19.9566 41.6668C19.9777 41.7432 19.983 41.8231 19.9723 41.9016L19.9606 41.989C19.819 42.9404 19.4849 43.8185 19.1644 44.6696C19.0137 45.0684 18.8578 45.4804 18.7283 45.8843C18.2705 47.3113 18.2621 48.4683 18.7027 49.3237C19.2025 50.2919 20.3894 50.8726 21.4619 50.6742C22.5343 50.4759 23.4315 49.5067 23.5511 48.4229C23.6382 47.6245 23.3594 46.813 23.0641 45.9564C22.9415 45.6011 22.8149 45.2334 22.7132 44.8587C22.4675 43.9436 22.3757 42.9939 22.4417 42.0487C22.4521 41.8944 22.523 41.7505 22.6391 41.6484C22.7551 41.5463 22.9069 41.4942 23.0612 41.5035C25.6433 41.655 28.3567 41.7315 31.1269 41.7315C33.5209 41.7315 35.8894 41.6736 38.1663 41.5595C38.2896 41.5531 38.4118 41.5859 38.5154 41.6531C38.6189 41.7203 38.6986 41.8186 38.743 41.9338C38.9036 42.3505 39.0357 42.7754 39.1612 43.1881C39.3075 43.659 39.4429 44.1028 39.6193 44.5316C39.8351 45.0541 40.4557 46.2952 41.5585 46.5386C42.6543 46.7786 43.7612 45.8331 44.0685 44.8335C44.1051 44.7102 44.138 44.5792 44.1713 44.4409C44.2332 44.1848 44.2972 43.9199 44.4121 43.6513C44.6657 43.0494 45.1183 42.6403 45.6521 42.532C46.1625 42.4281 46.6082 42.6191 46.9668 42.7721C47.1863 42.8668 47.3919 42.9605 47.558 42.955C47.8873 42.9513 48.1866 42.5481 48.314 42.1522C48.3912 41.9144 48.4376 41.6572 48.487 41.3839C48.5159 41.2254 48.5448 41.0674 48.5792 40.9104C48.6043 40.7962 48.663 40.6921 48.7478 40.6116C48.8326 40.531 48.9395 40.4777 49.0549 40.4585C55.2242 39.4183 56.8543 38.1336 56.8543 37.5994C56.8543 37.5468 56.8615 37.4943 56.8755 37.4436C57.346 35.7389 57.1931 33.0752 56.1258 31.7441C55.5879 31.0737 54.8766 30.7697 53.9513 30.8169C53.8577 30.8218 53.7644 30.8042 53.679 30.7655C53.5937 30.7269 53.5189 30.6683 53.4609 30.5947C53.4029 30.5212 53.3634 30.4348 53.3457 30.3428C53.328 30.2508 53.3327 30.1559 53.3593 30.0661C53.5206 29.5172 53.4013 28.9728 53.0325 28.5707C52.6637 28.1686 52.1207 27.9882 51.6107 28.091C51.5276 28.108 51.4419 28.1067 51.3594 28.0873C51.2769 28.0679 51.1996 28.0308 51.1329 27.9787C51.0661 27.9265 51.0115 27.8604 50.9728 27.7851C50.934 27.7097 50.9121 27.6268 50.9085 27.5421C50.8295 25.6637 50.0933 24.1393 48.8357 23.2557C47.674 22.4376 46.1534 22.2609 44.5548 22.7585C44.478 22.7825 44.3971 22.7904 44.3172 22.7817C44.2372 22.7731 44.1599 22.7481 44.09 22.7082C44.0201 22.6683 43.9592 22.6145 43.9111 22.5501C43.8629 22.4856 43.8286 22.412 43.8102 22.3337C43.5885 21.4006 43.044 20.6407 42.2767 20.1943C41.4092 19.6894 40.3298 19.6034 39.1557 19.9455C39.0648 19.972 38.9689 19.9761 38.8761 19.9574C38.7833 19.9388 38.6965 19.8979 38.6229 19.8383C35.1693 17.0447 31.4408 16.7648 27.2239 18.9792C27.1416 19.0223 27.0502 19.0453 26.9573 19.0463C26.8644 19.0472 26.7725 19.0261 26.6894 18.9847C25.7768 18.5295 24.8167 18.4995 23.9861 18.8998C23.5795 19.0991 23.2235 19.3883 22.945 19.7454C22.6664 20.1025 22.4727 20.5182 22.3784 20.9612C22.3497 21.0935 22.2763 21.2119 22.1705 21.2965C22.0648 21.381 21.9331 21.4266 21.7977 21.4255C14.7829 21.3366 13.4982 24.9622 13.1627 28.5162C13.155 28.5993 13.1296 28.6799 13.0882 28.7524C13.0468 28.825 12.9904 28.8878 12.9227 28.9368C12.855 28.9857 12.7777 29.0196 12.6958 29.0362C12.6139 29.0527 12.5295 29.0516 12.4481 29.0328C11.5923 28.837 10.63 28.9033 9.98014 30.878C9.9446 30.9865 9.8781 31.0822 9.78884 31.1534C9.69958 31.2246 9.59146 31.2681 9.47777 31.2786C7.72149 31.4429 6.48551 31.9973 5.8097 32.9252C5.07792 33.9317 4.93376 35.4615 5.38307 37.471C5.39227 37.5131 5.39693 37.556 5.39697 37.5991C5.39697 38.0228 6.44965 38.9851 10.3951 39.9042C10.5348 39.9366 10.6578 40.0192 10.7407 40.1362C10.8236 40.2533 10.8606 40.3968 10.8447 40.5394C10.821 40.7564 10.7804 40.9664 10.7412 41.1698C10.6516 41.6338 10.5744 42.0344 10.7196 42.3275C10.8821 42.6594 11.4108 42.8079 11.8078 42.6367C12.2256 42.4537 12.5538 41.9711 12.6424 41.4076C12.6613 41.2865 12.6726 41.1643 12.6764 41.0418C12.6822 40.8904 12.7464 40.7472 12.8556 40.6421C12.9647 40.5371 13.1104 40.4785 13.2618 40.4786L13.2644 40.4775Z" fill="#31241B"/>
<path d="M24.4382 38.5647C23.8761 39.6674 23.5925 40.891 23.612 42.1285C23.6148 42.2067 23.6019 42.2846 23.5742 42.3577C23.5464 42.4309 23.5044 42.4977 23.4505 42.5544C23.3967 42.6111 23.332 42.6565 23.2604 42.688C23.1888 42.7194 23.1116 42.7362 23.0334 42.7374C22.9552 42.7387 22.8775 42.7243 22.8049 42.6952C22.7323 42.666 22.6663 42.6227 22.6106 42.5678C22.555 42.5128 22.5108 42.4473 22.4808 42.3751C22.4508 42.3029 22.4354 42.2254 22.4357 42.1472C22.435 42.1185 22.4366 42.0899 22.4404 42.0615V42.0517C22.6241 40.6842 23.1391 39.3823 23.9406 38.2592C23.9845 38.2013 24.0483 38.1618 24.1196 38.1484C24.1909 38.1349 24.2647 38.1485 24.3266 38.1864C24.3886 38.2242 24.4342 38.2838 24.4547 38.3534C24.4752 38.4231 24.469 38.4979 24.4375 38.5632L24.4382 38.5647Z" fill="#31241B"/>
<path d="M18.3249 38.089C18.6392 38.2783 18.9152 38.5248 19.1387 38.8157C19.3611 39.1055 19.5394 39.4267 19.6677 39.7688C19.9239 40.4487 20.0161 41.1761 19.9718 41.9013V41.9093C19.9621 42.0651 19.8909 42.2106 19.7739 42.3138C19.6569 42.4171 19.5037 42.4697 19.3479 42.46C19.1922 42.4503 19.0467 42.3791 18.9434 42.2621C18.8401 42.1451 18.7876 41.9919 18.7973 41.8361C18.7994 41.8059 18.8035 41.7758 18.8097 41.7461C18.9377 41.1807 18.9444 40.5946 18.8295 40.0264C18.7098 39.4648 18.4409 38.9353 17.9941 38.5683L17.9912 38.5658C17.9377 38.518 17.9037 38.4522 17.8955 38.3809C17.8873 38.3097 17.9056 38.2379 17.9468 38.1792C17.9881 38.1205 18.0495 38.079 18.1193 38.0626C18.1891 38.0462 18.2626 38.056 18.3256 38.0901L18.3249 38.089Z" fill="#31241B"/>
<path d="M35.2549 39.2657C35.6535 39.2407 36.0527 39.3056 36.4228 39.4556C36.7857 39.6073 37.1213 39.8174 37.4162 40.0776C37.7083 40.3326 37.9671 40.6233 38.1864 40.943C38.4166 41.265 38.5637 41.6016 38.7444 41.9397C38.7832 42.008 38.808 42.0833 38.8173 42.1613C38.8265 42.2393 38.8201 42.3184 38.7983 42.3939C38.7766 42.4694 38.74 42.5397 38.6906 42.6008C38.6413 42.662 38.5802 42.7126 38.511 42.7497C38.4418 42.7869 38.3658 42.8099 38.2876 42.8172C38.2094 42.8246 38.1306 42.8163 38.0556 42.7927C37.9807 42.7692 37.9112 42.7309 37.8513 42.6801C37.7914 42.6293 37.7422 42.567 37.7068 42.4969C37.6952 42.4751 37.6849 42.4526 37.676 42.4296L37.6471 42.3535C37.5374 42.0608 37.4499 41.7406 37.309 41.4732C37.1724 41.1966 37.0014 40.9385 36.8001 40.7048C36.6029 40.4736 36.3697 40.2759 36.1093 40.1194C35.8508 39.9686 35.5619 39.8775 35.2637 39.8526H35.2542C35.1827 39.8446 35.1166 39.8105 35.0686 39.7568C35.0207 39.7032 34.9941 39.6337 34.9941 39.5617C34.9941 39.4898 35.0207 39.4203 35.0686 39.3667C35.1166 39.313 35.1827 39.2789 35.2542 39.2709L35.2549 39.2657Z" fill="#31241B"/>
<path d="M48.5794 40.9126C48.6684 40.5963 48.7987 40.2932 48.9669 40.011C49.2205 39.5976 49.5663 39.2484 49.9772 38.9907C50.3881 38.733 50.8531 38.5738 51.3357 38.5255C51.4076 38.5209 51.4786 38.543 51.5352 38.5875C51.5918 38.6321 51.63 38.6959 51.6425 38.7668C51.655 38.8377 51.6409 38.9108 51.6029 38.972C51.565 39.0331 51.5058 39.0782 51.4367 39.0985L51.4283 39.1007C50.9557 39.2301 50.5355 39.504 50.2263 39.884C50.0786 40.0626 49.9611 40.264 49.8783 40.4805C49.798 40.6996 49.7466 40.9282 49.7254 41.1606C49.7167 41.2375 49.6929 41.3119 49.6554 41.3796C49.6179 41.4473 49.5675 41.507 49.507 41.5552C49.4464 41.6033 49.377 41.6392 49.3026 41.6605C49.2283 41.6819 49.1504 41.6884 49.0736 41.6797C48.9967 41.6709 48.9223 41.6472 48.8546 41.6097C48.7869 41.5722 48.7272 41.5218 48.679 41.4612C48.6308 41.4007 48.5951 41.3313 48.5737 41.2569C48.5523 41.1825 48.5458 41.1047 48.5545 41.0278C48.5584 40.9948 48.565 40.9621 48.5743 40.9301L48.5794 40.9126Z" fill="#31241B"/>
<path d="M12.6787 41.0335C12.7461 40.7042 12.7841 40.3306 12.8752 39.9358C12.9209 39.7294 12.9884 39.5283 13.0765 39.3361C13.169 39.135 13.2972 38.9523 13.4548 38.7968C13.5053 38.7473 13.5721 38.7177 13.6427 38.7136C13.7134 38.7095 13.7831 38.7311 13.839 38.7745C13.8949 38.8178 13.9333 38.8799 13.9469 38.9494C13.9606 39.0188 13.9486 39.0908 13.9133 39.1521L13.9052 39.166C13.7614 39.4188 13.7336 39.7086 13.7475 40.031C13.7614 40.3533 13.8207 40.702 13.85 41.0957V41.1096C13.8578 41.2642 13.8048 41.4158 13.7024 41.5319C13.6 41.648 13.4563 41.7194 13.3019 41.731C13.1475 41.7426 12.9947 41.6933 12.8762 41.5937C12.7576 41.4942 12.6827 41.3522 12.6674 41.1982C12.6637 41.143 12.6675 41.0876 12.6787 41.0335Z" fill="#31241B"/>
<path d="M9.72333 38.121C10.0754 38.4039 10.3581 38.7636 10.5499 39.1725C10.6499 39.3828 10.7257 39.6038 10.776 39.8311C10.8014 39.9476 10.8205 40.0653 10.8331 40.1839L10.8452 40.369L10.8484 40.5402C10.8499 40.624 10.8336 40.7071 10.8006 40.7841C10.7675 40.861 10.7185 40.9301 10.6568 40.9867C10.595 41.0433 10.522 41.0861 10.4424 41.1124C10.3628 41.1386 10.2786 41.1476 10.1953 41.1388C10.112 41.1301 10.0315 41.1037 9.95919 41.0615C9.88685 41.0192 9.8243 40.9621 9.7757 40.8939C9.72709 40.8257 9.69354 40.7479 9.67726 40.6658C9.66097 40.5836 9.66233 40.4989 9.68125 40.4173V40.4107L9.71016 40.2892L9.73211 40.1795C9.74406 40.1019 9.75188 40.0237 9.75553 39.9453C9.76197 39.7827 9.74969 39.6199 9.71894 39.4601C9.6554 39.124 9.51572 38.807 9.3106 38.5333L9.30475 38.5256C9.26106 38.4688 9.23976 38.3979 9.24489 38.3264C9.25002 38.2548 9.28121 38.1877 9.33256 38.1376C9.38391 38.0876 9.45184 38.0582 9.52346 38.0549C9.59509 38.0516 9.66542 38.0747 9.72113 38.1199L9.72333 38.121Z" fill="#31241B"/>
<path d="M30.7917 17.834C30.8855 19.2473 31.2325 20.6322 31.8162 21.9228C35.1824 29.3636 43.3348 28.0552 47.3948 23.8423C52.001 19.2357 50.3197 10.6058 43.8017 10.6058C38.2482 7.76789 30.2509 9.69248 30.7917 17.834Z" fill="#E06B38"/>
<path d="M39.5904 27.3476C39.0841 27.3485 38.5786 27.306 38.0796 27.2206C36.118 26.8822 33.4247 25.6945 31.7346 21.9605C31.145 20.6605 30.7947 19.2647 30.7006 17.8402C30.4302 13.7693 32.2575 11.6738 33.8382 10.6321C36.5033 8.87586 40.5142 8.83012 43.827 10.5136C46.4249 10.5213 48.4896 11.9128 49.4925 14.3342C50.7933 17.4743 49.9587 21.4102 47.4629 23.906C45.3652 26.0816 42.4048 27.3476 39.5904 27.3476ZM30.8821 17.8278C30.975 19.2304 31.32 20.6049 31.9004 21.8852C33.5575 25.5463 36.1919 26.7095 38.11 27.0406C41.2753 27.5861 44.8943 26.3062 47.3305 23.7787C49.7764 21.3327 50.5949 17.4784 49.3216 14.4049C48.3458 12.0489 46.3341 10.6973 43.8033 10.6973H43.7813L43.7615 10.687C40.5051 9.02258 36.5556 9.0621 33.9384 10.7858C32.3984 11.7997 30.6183 13.845 30.8828 17.8278H30.8821Z" fill="#31241B"/>
<g opacity="0.3">
<path opacity="0.3" d="M30.7917 17.834C30.8855 19.2472 31.2325 20.632 31.8162 21.9225C35.1824 29.3629 43.336 28.0545 47.3956 23.8427C47.7642 23.4734 48.0992 23.072 48.3966 22.6433C44.1559 24.7314 38.5988 24.2623 35.9643 18.4439C35.3806 17.1534 35.0328 15.7687 34.9377 14.3554C34.8176 12.5457 35.1206 11.0419 35.724 9.83118C32.731 10.8143 30.4972 13.4041 30.7917 17.834Z" fill="#31241B"/>
</g>
<g opacity="0.55">
<path opacity="0.55" d="M32.627 11.997C35.3496 10.0545 39.4783 10.0706 42.7563 11.7457C49.2743 11.7457 50.956 20.3764 46.3501 24.9822C46.3102 25.0239 46.2685 25.0653 46.2283 25.107C46.6426 24.7875 47.0328 24.438 47.3958 24.0613C52.0017 19.4539 50.3204 10.8247 43.802 10.8247C40.0692 8.91733 35.2325 9.16101 32.627 11.997Z" fill="#FFF9F2"/>
</g>
<path d="M39.5844 27.8161C39.053 27.817 38.5225 27.7724 37.9986 27.6829C35.9251 27.3247 33.0811 26.0752 31.3061 22.1539C30.6936 20.8031 30.3296 19.353 30.2315 17.873C30.009 14.5207 31.1978 11.8113 33.579 10.243C36.3532 8.4154 40.4999 8.34039 43.9378 10.048C46.682 10.0952 48.8587 11.587 49.9235 14.1574C51.2945 17.4676 50.4181 21.6139 47.7918 24.2399C45.6158 26.4982 42.5269 27.8161 39.5844 27.8161ZM31.3518 17.7965C31.4409 19.143 31.772 20.4624 32.3291 21.6914C33.5732 24.4415 35.601 26.1308 38.1911 26.5779C41.1607 27.0902 44.6985 25.8348 46.9938 23.4529C49.3153 21.1313 50.0918 17.4888 48.8894 14.5843C47.9897 12.412 46.1361 11.1658 43.8035 11.1658C43.7145 11.1661 43.6267 11.1451 43.5474 11.1047C40.4344 9.51454 36.6763 9.54345 34.1956 11.1779C32.1367 12.5343 31.1524 14.8233 31.35 17.7973L31.3518 17.7965Z" fill="#31241B"/>
<path d="M52.0866 6.09945C50.8989 6.22056 49.7295 6.45071 48.6347 6.85978C47.54 7.26884 46.5239 7.85647 45.6747 8.65265C44.8199 9.44078 44.1226 10.4064 43.5649 11.4605C43.0073 12.5146 42.5803 13.654 42.232 14.8205V14.8249C42.1975 14.9475 42.1157 15.0515 42.0045 15.1138C41.8934 15.1762 41.7621 15.1918 41.6394 15.1573C41.5168 15.1228 41.4128 15.041 41.3505 14.9299C41.2881 14.8187 41.2725 14.6874 41.307 14.5647C41.6297 13.3423 42.0388 12.129 42.6034 10.9698C43.1679 9.8107 43.9048 8.7101 44.8485 7.78219C45.7852 6.84661 46.9359 6.12946 48.151 5.63221C49.3662 5.13496 50.6479 4.84078 51.9241 4.66881C52.0201 4.65101 52.1188 4.65291 52.214 4.67439C52.3093 4.69587 52.3992 4.73649 52.4783 4.79378C52.5574 4.85106 52.624 4.92383 52.6741 5.00765C52.7243 5.09147 52.7568 5.1846 52.7699 5.28138C52.7829 5.37817 52.7761 5.47659 52.7499 5.57068C52.7238 5.66477 52.6788 5.75256 52.6176 5.82873C52.5565 5.90489 52.4805 5.96783 52.3943 6.01374C52.3081 6.05965 52.2135 6.08757 52.1162 6.09579L52.0964 6.09835L52.0866 6.09945Z" fill="#31241B"/>
<g opacity="0.55">
<path opacity="0.55" d="M38.9687 12.5809C38.4564 15.0053 40.9903 16.9131 43.8036 15.4967C41.6789 15.1619 39.9211 14.3712 38.9687 12.5809Z" fill="#FFF9F2"/>
</g>
<path d="M44.8167 15.325C44.2319 15.5898 43.5913 15.7076 42.9506 15.6682C42.2932 15.6291 41.6534 15.4406 41.0798 15.1172C40.5195 14.8023 40.0213 14.3879 39.6097 13.8944C39.2102 13.42 38.8872 12.8862 38.6525 12.3122C38.6315 12.2602 38.6291 12.2026 38.6455 12.1489C38.6619 12.0953 38.6963 12.0489 38.7428 12.0175C38.7893 11.9862 38.8451 11.9717 38.901 11.9765C38.9569 11.9813 39.0094 12.0052 39.0498 12.044L39.0535 12.0477C39.4779 12.4564 39.8738 12.8618 40.2975 13.2186C40.7018 13.5721 41.1435 13.8803 41.6147 14.1377C42.0758 14.3829 42.5682 14.5638 43.0783 14.6755C43.5946 14.7912 44.1394 14.8332 44.7215 14.8585H44.7248C44.7801 14.8606 44.8331 14.8814 44.8752 14.9173C44.9173 14.9532 44.9461 15.0023 44.957 15.0565C44.9678 15.1108 44.9601 15.1672 44.9351 15.2165C44.91 15.2659 44.8691 15.3054 44.8189 15.3287L44.8167 15.325Z" fill="#31241B"/>
<g opacity="0.2">
<path opacity="0.2" d="M45.5562 16.4411C45.5884 16.9303 45.8178 17.2178 46.3568 17.182C46.8957 17.1461 47.3256 16.8161 47.2931 16.3258C47.2605 15.8355 46.7973 15.4685 46.258 15.5044C45.7186 15.5402 45.5236 15.9526 45.5562 16.4411Z" fill="#FFF9F2"/>
</g>
<g opacity="0.2">
<path opacity="0.2" d="M44.6356 19.4192C44.3107 20.4437 44.1457 21.3021 44.8829 21.5362C45.6202 21.7704 46.4808 21.1312 46.8057 20.1092C47.1306 19.0873 46.7962 18.0679 46.0593 17.8338C45.3224 17.5996 44.9616 18.3965 44.6356 19.4192Z" fill="#FFF9F2"/>
</g>
<g opacity="0.3">
<path opacity="0.3" d="M38.9688 12.3533C40.7847 10.6852 45.9207 13.1122 44.3616 15.2117C42.1667 15.0913 40.3555 14.1674 38.9688 12.3533Z" fill="#31241B"/>
</g>
<path d="M28.4414 25.2562C31.0392 21.524 36.6627 22.3755 38.1968 26.5185C40.7731 25.0941 43.848 27.0362 43.3607 29.4314" fill="#FFF9F2"/>
<path d="M43.4488 29.4496L43.2695 29.413C43.4682 28.4364 43.0547 27.4628 42.1641 26.8085C41.0409 25.9838 39.5001 25.9015 38.2392 26.5982L38.1463 26.6497L38.1097 26.5499C37.7615 25.6087 37.1612 24.7813 36.3745 24.1582C35.5879 23.5351 34.645 23.1403 33.6491 23.0168C31.6136 22.7577 29.6945 23.6139 28.5153 25.308L28.3652 25.2037C29.584 23.4526 31.5683 22.5671 33.6707 22.835C34.6825 22.9602 35.6416 23.3566 36.4467 23.9821C37.2518 24.6076 37.8729 25.4391 38.2443 26.3885C39.5495 25.7116 41.1195 25.8144 42.2732 26.6615C43.2223 27.3589 43.6621 28.4009 43.4488 29.4496Z" fill="#31241B"/>
<path d="M28.2021 25.0896C28.7406 24.1366 29.5516 23.3663 30.531 22.8774C31.5348 22.3781 32.664 22.1871 33.7761 22.3286C34.3303 22.4014 34.8713 22.5528 35.3828 22.7783C35.895 23.0005 36.3757 23.2894 36.8123 23.6374C37.6895 24.337 38.3586 25.2632 38.7471 26.3157L37.9129 26.0058C38.5334 25.6589 39.2262 25.4615 39.9363 25.4292C40.6533 25.3986 41.3654 25.5611 41.9981 25.8997C42.6267 26.236 43.169 26.7581 43.4953 27.4087C43.8217 28.0592 43.8905 28.843 43.6461 29.4906C43.6214 29.5555 43.5746 29.6096 43.5139 29.6434C43.4532 29.6772 43.3826 29.6885 43.3144 29.6754C43.2463 29.6623 43.1849 29.6256 43.1411 29.5717C43.0973 29.5178 43.0738 29.4502 43.0749 29.3808V29.3735C43.0902 28.8506 42.9327 28.3372 42.6267 27.9129C42.3362 27.5023 41.9191 27.1836 41.4558 26.9681C40.9893 26.7522 40.4808 26.6419 39.9667 26.645C39.4469 26.6506 38.9365 26.7835 38.48 27.0322L38.4724 27.0362C38.4045 27.0727 38.33 27.0954 38.2533 27.103C38.1766 27.1107 38.0991 27.1031 38.0254 27.0807C37.9516 27.0584 37.8829 27.0217 37.8234 26.9727C37.7639 26.9237 37.7146 26.8635 37.6784 26.7954C37.666 26.7717 37.655 26.7472 37.6454 26.7222C37.333 25.8704 36.7926 25.1207 36.0831 24.5551C35.3765 23.9927 34.5054 23.6531 33.6144 23.5346C32.7235 23.416 31.7988 23.4885 30.9434 23.8127C30.0879 24.1368 29.3119 24.6908 28.68 25.4226V25.4252C28.6322 25.4791 28.5663 25.5136 28.4947 25.522C28.4231 25.5304 28.351 25.5121 28.2921 25.4706C28.2332 25.429 28.1917 25.3673 28.1755 25.2971C28.1593 25.2268 28.1695 25.1531 28.2043 25.09L28.2021 25.0896Z" fill="#31241B"/>
<path d="M21.7109 32.5038C21.7555 31.8826 21.9813 31.2882 22.3604 30.794C22.7618 30.2773 23.3313 29.9173 23.9703 29.7765C24.6191 29.6301 25.3267 29.756 25.9048 30.0743C26.4902 30.3901 26.9432 30.872 27.2901 31.3915L26.4119 31.2514C26.7218 31.0218 27.0801 30.8662 27.4595 30.7966C27.8406 30.725 28.2339 30.7586 28.5974 30.8936C28.9633 31.03 29.3094 31.3132 29.4649 31.6949C29.6263 32.0728 29.5978 32.4687 29.5037 32.7969C29.4817 32.8651 29.4354 32.9228 29.3737 32.9592C29.312 32.9955 29.2391 33.008 29.1688 32.9942C29.0985 32.9804 29.0357 32.9413 28.9923 32.8843C28.9489 32.8273 28.9279 32.7564 28.9333 32.685V32.6703C28.9607 32.4179 28.9205 32.1848 28.8118 32.0249C28.7031 31.865 28.5301 31.7688 28.3292 31.7296C28.1182 31.6941 27.9015 31.7157 27.7017 31.7922C27.5001 31.8678 27.3184 31.9881 27.1701 32.1442C27.122 32.1944 27.0646 32.2346 27.001 32.2626C26.9374 32.2906 26.8689 32.3057 26.7994 32.3072C26.73 32.3087 26.6609 32.2965 26.5962 32.2713C26.5314 32.2461 26.4723 32.2084 26.4222 32.1603C26.4067 32.1456 26.3922 32.1299 26.3786 32.1134L26.2901 32.0037C26.0526 31.5858 25.757 31.2071 25.3808 30.9609C25.0106 30.7121 24.5667 30.5873 24.1222 30.6447C23.6606 30.7051 23.2346 30.9251 22.9184 31.2668C22.5913 31.614 22.3747 32.0765 22.2898 32.5734V32.5759C22.2734 32.6465 22.2314 32.7085 22.1719 32.7499C22.1125 32.7913 22.0398 32.8091 21.9679 32.8C21.896 32.7909 21.8301 32.7555 21.7828 32.7006C21.7355 32.6457 21.7103 32.5752 21.712 32.5027L21.7109 32.5038Z" fill="#31241B"/>
<path d="M43.1881 37.0646C42.8976 36.5143 42.7745 35.8911 42.8339 35.2717C42.9005 34.6211 43.1928 34.0143 43.6601 33.5568C44.1325 33.088 44.7999 32.8209 45.4588 32.7851C46.1226 32.7426 46.7621 32.9117 47.3307 33.1671L46.5101 33.5139C46.6514 33.1551 46.8731 32.8334 47.158 32.5736C47.4433 32.311 47.7947 32.131 48.1745 32.0529C48.5558 31.9761 49.001 32.0321 49.3347 32.2725C49.6717 32.5074 49.8572 32.8579 49.9513 33.1872C49.9685 33.2566 49.9597 33.3299 49.9266 33.3933C49.8935 33.4567 49.8383 33.5057 49.7715 33.5312C49.7047 33.5567 49.6308 33.5568 49.5639 33.5316C49.497 33.5064 49.4417 33.4575 49.4083 33.3943L49.4021 33.3811C49.2923 33.1524 49.1342 32.9757 48.9571 32.8978C48.78 32.8198 48.5821 32.829 48.3915 32.9029C48.1936 32.9845 48.0212 33.1176 47.892 33.2882C47.7613 33.4593 47.6709 33.6576 47.6275 33.8685C47.6133 33.9365 47.5859 34.001 47.5468 34.0584C47.5077 34.1158 47.4577 34.165 47.3996 34.203C47.3415 34.2411 47.2764 34.2673 47.2082 34.2802C47.1399 34.2931 47.0698 34.2925 47.0018 34.2783C46.9808 34.2738 46.96 34.2682 46.9396 34.2615L46.8068 34.2154C46.3842 33.9867 45.9327 33.8217 45.4834 33.8129C45.0373 33.7979 44.595 33.927 44.2481 34.211C43.8887 34.5072 43.6443 34.9199 43.5573 35.3774C43.4636 35.8454 43.5247 36.3522 43.7157 36.8187V36.8212C43.7399 36.8899 43.7377 36.9652 43.7094 37.0323C43.6812 37.0994 43.6289 37.1535 43.5628 37.1842C43.4967 37.2148 43.4216 37.2197 43.3521 37.1979C43.2827 37.1762 43.2238 37.1293 43.187 37.0664L43.1881 37.0646Z" fill="#31241B"/>
<g opacity="0.3">
<path opacity="0.3" d="M23.7793 49.5935C23.3289 50.4303 22.5053 51.075 21.5675 51.2499C20.243 51.4946 18.798 50.7877 18.1804 49.5913C17.5708 48.4087 17.7629 46.9715 18.1691 45.7055C18.5844 44.4121 19.21 43.1731 19.3904 41.8234C18.0542 41.7048 16.7842 41.565 15.5917 41.4077L13.2742 40.695L13.5464 39.1725C13.5464 39.1725 12.546 38.4637 12.1926 39.4015C11.8391 40.3393 12.2255 42.5456 10.5903 42.0894C10.5903 42.0894 10.2486 41.3576 10.2815 41.3418C10.2914 41.3378 10.2329 41.2657 10.1458 41.1629C9.92625 40.9105 9.51645 40.4754 9.51645 40.4754C9.51645 40.4754 8.98444 40.2464 8.3123 39.9533C7.21462 39.4736 5.73934 38.8267 5.58969 38.7393C5.58611 38.7378 5.58278 38.7359 5.57981 38.7334L5.57615 38.7297C5.52749 38.6566 5.14513 37.7418 4.60507 36.3972C4.44408 35.0262 4.59337 33.8806 5.08476 32.9812C5.25447 32.9244 5.41386 32.8405 5.55676 32.7328C8.14728 30.8879 9.57097 34.5447 11.0272 34.2863C12.4835 34.028 13.3247 32.3105 11.9654 31.2128C10.6061 30.1152 11.4253 28.424 11.4253 28.424C11.7652 28.3508 12.1498 28.3622 12.5808 28.4606C12.9053 24.9923 14.1713 22.1672 18.1585 21.1976C15.8921 23.7164 15.5716 26.0234 20.2499 27.7811C20.9433 28.0007 21.8361 28.7519 20.2499 29.8843C18.4402 31.8202 21.4574 32.698 22.1745 31.7738C21.2074 33.1276 20.854 34.2574 21.4969 35.0207C22.0153 35.6365 22.0483 36.5278 21.6542 37.2307C21.3706 37.7338 21.184 38.433 21.221 39.4019C21.3512 42.7344 19.8928 45.1288 19.8928 46.5214C19.8928 47.914 20.9938 49.9198 23.3904 49.5646C23.5205 49.5444 23.6536 49.5543 23.7793 49.5935Z" fill="#31241B"/>
</g>
<g opacity="0.3">
<path opacity="0.3" d="M44.7061 44.7363C44.6848 44.8256 44.6596 44.917 44.6329 45.0063C44.2209 46.3462 42.8034 47.4124 41.4361 47.1113C40.308 46.8629 39.5214 45.8237 39.0805 44.7557C38.731 43.909 38.5291 42.9994 38.199 42.1458C35.9499 42.2585 33.5789 42.3185 31.13 42.3185C28.3393 42.3185 25.6497 42.2409 23.1268 42.0953C23.1241 42.0935 23.1215 42.0916 23.1191 42.0894L23.8337 39.0639C25.1509 35.5253 28.444 35.2088 29.9646 36.9391C31.0583 35.7818 32.8138 36.4865 32.6195 37.7177C32.6195 37.7177 34.9722 36.2501 37.7995 37.713C39.1035 38.3877 40.1116 39.519 40.7116 40.8597C41.0775 41.6745 41.4968 42.7012 41.6498 43.4147C41.9388 44.7732 43.9103 45.3481 44.7061 44.7363Z" fill="#31241B"/>
</g>
<g opacity="0.3">
<path opacity="0.3" d="M27.9862 17.7921C27.9862 17.7921 25.8746 22.2022 29.8921 23.8103L32.0322 22.6669L30.3126 17.1851L27.9862 17.7921Z" fill="#31241B"/>
</g>
<g opacity="0.3">
<path opacity="0.3" d="M42.6295 27.0917C42.5465 29.9823 39.4134 29.6896 38.0215 28.2992C31.6451 29.6896 29.7889 24.9783 31.3216 23.0881C31.3216 23.0881 27.3129 24.9977 28.2847 27.6519C29.2591 32.0536 35.4562 32.2801 37.4397 30.1766C40.0606 34.351 44.9731 31.4082 42.6295 27.0917Z" fill="#31241B"/>
</g>
<g opacity="0.3">
<path opacity="0.3" d="M50.5411 39.1057C50.5411 39.1057 51.9143 37.5122 54.189 38.1949C56.4638 38.8777 56.3009 38.4877 57.1019 38.0248C57.9028 37.562 57.1988 38.0248 57.1988 38.0248C57.1988 38.0248 57.2523 38.9827 54.6047 39.7328C51.9571 40.4829 49.334 40.8649 49.334 40.8649C49.334 40.8649 49.3805 39.9044 50.5411 39.1057Z" fill="#31241B"/>
</g>
<g opacity="0.3">
<path opacity="0.3" d="M33.4102 42.3009C33.4102 42.3009 35.4006 43.5757 35.7885 46.4885C36.1763 49.4014 40.9025 50.3728 42.9098 46.9433C39.8766 47.236 38.6355 45.2086 38.1968 42.1458L33.4102 42.3009Z" fill="#31241B"/>
</g>
<path d="M23.1825 25.0076L21.3706 26.0116L19.3004 27.1612L9.03676 6.53918L2.71743 5.58786C2.05838 5.49091 1.46467 5.13658 1.06646 4.60257C0.668257 4.06855 0.498057 3.39841 0.593179 2.7391C0.688301 2.07978 1.04098 1.48509 1.5739 1.08541C2.10681 0.685723 2.77647 0.513668 3.43605 0.606964L4.50043 0.753321V0.751491L9.69903 1.47376C10.4178 1.57347 11.1008 1.84951 11.687 2.27725C12.2732 2.705 12.7444 3.27115 13.0587 3.92524L23.1825 25.0076Z" fill="#FFF9F2"/>
<path d="M19.299 27.7486C19.1898 27.7487 19.0828 27.7183 18.99 27.6608C18.8973 27.6034 18.8224 27.5211 18.7739 27.4233L8.64746 7.0742L2.62817 6.16971C1.82031 6.04459 1.09447 5.60573 0.60833 4.9485C0.122192 4.29127 -0.084965 3.46876 0.0318662 2.65966C0.148697 1.85057 0.580078 1.12026 1.23229 0.627398C1.88449 0.134541 2.70484 -0.0810457 3.51509 0.0274764L9.77953 0.895739C10.5949 1.00768 11.3697 1.32037 12.0343 1.80573C12.6989 2.2911 13.2326 2.93394 13.5874 3.67652L23.7105 24.7545C23.7779 24.8947 23.7868 25.056 23.7352 25.2027C23.6837 25.3495 23.576 25.4698 23.4357 25.5371C23.2955 25.6045 23.1343 25.6134 22.9875 25.5618C22.8407 25.5103 22.7204 25.4026 22.6531 25.2624L12.5303 4.18255C12.259 3.61489 11.8509 3.12351 11.3427 2.75253C10.8346 2.38154 10.2422 2.14258 9.61891 2.05708L3.35483 1.18882C2.85074 1.12117 2.34032 1.25519 1.93449 1.56176C1.52866 1.86832 1.26021 2.32266 1.18747 2.82604C1.11473 3.32942 1.24359 3.84116 1.54603 4.25007C1.84848 4.65898 2.30008 4.93201 2.8027 5.00984L9.12349 5.96116C9.21696 5.97491 9.30571 6.01107 9.38217 6.06657C9.45863 6.12206 9.52052 6.19524 9.56256 6.27985L19.8251 26.9008C19.8595 26.9697 19.88 27.0447 19.8853 27.1216C19.8907 27.1984 19.8808 27.2755 19.8563 27.3485C19.8318 27.4215 19.7931 27.489 19.7425 27.547C19.6919 27.6051 19.6303 27.6526 19.5613 27.6868C19.4799 27.7277 19.39 27.7489 19.299 27.7486Z" fill="#31241B"/>
<path d="M10.5802 7.42256C9.97715 7.42217 9.37968 7.30732 8.8195 7.08411C8.7445 7.0541 8.67653 7.0089 8.61986 6.95134C8.56319 6.89379 8.51904 6.82513 8.49019 6.74968C7.9805 5.42003 8.10381 3.96488 8.8195 2.85732C9.38151 1.98906 10.2512 1.46034 11.2055 1.40692C11.3607 1.39824 11.5131 1.45159 11.629 1.55523C11.745 1.65888 11.815 1.80434 11.8237 1.9596C11.8323 2.11487 11.779 2.26722 11.6753 2.38316C11.5717 2.49909 11.4262 2.56909 11.271 2.57778C10.6855 2.61071 10.1652 2.93599 9.80411 3.49471C9.34053 4.21076 9.23076 5.18184 9.49969 6.08266C10.346 6.3483 11.2871 6.29159 12.0126 5.92094C12.5293 5.65713 12.878 5.25831 12.994 4.79765C13.0322 4.6468 13.1287 4.5173 13.2624 4.43763C13.396 4.35797 13.5559 4.33466 13.7067 4.37285C13.8576 4.41103 13.9871 4.50758 14.0667 4.64125C14.1464 4.77491 14.1697 4.93476 14.1315 5.08561C13.9317 5.87923 13.3686 6.54698 12.5465 6.96702C11.936 7.27154 11.2623 7.42762 10.5802 7.42256Z" fill="#31241B"/>
<path d="M9.03659 7.12577C8.92097 7.12616 8.80781 7.09229 8.7114 7.02845C8.615 6.9646 8.53966 6.87364 8.49489 6.76703C8.45012 6.66042 8.43791 6.54294 8.45983 6.42941C8.48174 6.31588 8.53678 6.21137 8.61801 6.12908L12.0607 2.61651C12.1695 2.5054 12.318 2.44207 12.4736 2.44046C12.6291 2.43885 12.7789 2.49908 12.89 2.60791C13.0011 2.71674 13.0644 2.86526 13.066 3.02078C13.0677 3.17631 13.0074 3.3261 12.8986 3.43721L9.45554 6.94978C9.40096 7.00556 9.33579 7.04986 9.26384 7.08008C9.19189 7.11031 9.11463 7.12584 9.03659 7.12577Z" fill="#31241B"/>
<g opacity="0.3">
<path opacity="0.3" d="M21.37 26.0118L19.2998 27.1614L9.03612 6.53935L2.71679 5.58803C2.3676 5.53754 2.03302 5.41386 1.73495 5.22509C1.43689 5.03631 1.18206 4.7867 0.987169 4.49259C0.792275 4.19849 0.66171 3.86654 0.604022 3.51847C0.546335 3.1704 0.562828 2.81407 0.652421 2.47282L0.959405 2.38135L8.76828 3.42634C8.76828 3.42634 10.4539 3.70222 11.1199 4.41425C11.1199 4.41425 12.0192 5.28434 12.0734 6.54081L21.37 26.0118Z" fill="#31241B"/>
</g>
<path d="M24.6129 24.524C23.9543 25.9997 22.5544 27.1219 20.8076 28.0758C20.1669 28.4256 19.4794 28.7538 18.7648 29.0684C17.92 26.8756 18.887 24.7008 20.7147 23.9898C21.7816 23.5724 23.1449 23.6539 24.6129 24.524Z" fill="#FFF9F2"/>
<path d="M18.4929 29.1727C18.1219 28.3601 17.9602 27.4165 18.1201 26.4871C18.2798 25.5289 18.7732 24.6581 19.513 24.0287C19.887 23.7118 20.3264 23.4509 20.8072 23.3294C21.288 23.208 21.7815 23.1911 22.2535 23.2409C23.2049 23.3411 24.0512 23.7575 24.7614 24.2745C24.819 24.3168 24.859 24.3787 24.8739 24.4486C24.8888 24.5184 24.8775 24.5913 24.8421 24.6533C24.8067 24.7154 24.7497 24.7622 24.682 24.7849C24.6142 24.8077 24.5405 24.8047 24.4749 24.7765L24.4665 24.7729C24.1011 24.6119 23.7229 24.4818 23.3359 24.3839C22.9657 24.2942 22.5853 24.2538 22.2045 24.2636C21.8441 24.2753 21.4878 24.3446 21.1493 24.4688C20.82 24.5852 20.4965 24.7187 20.2064 24.9222C19.6231 25.3221 19.1848 25.9547 18.9795 26.6766C18.7743 27.3985 18.7999 28.2042 19.0333 28.9649V28.9671C19.0546 29.0374 19.0484 29.1132 19.016 29.1791C18.9836 29.2451 18.9273 29.2962 18.8587 29.3223C18.79 29.3484 18.714 29.3475 18.6459 29.3197C18.5779 29.292 18.523 29.2394 18.4922 29.1727H18.4929Z" fill="#31241B"/>
<g opacity="0.3">
<path opacity="0.3" d="M20.8086 28.0757C20.1679 28.4255 19.4804 28.7537 18.7658 29.0683C17.921 26.8755 18.888 24.7007 20.7156 23.9897C19.8357 25.7512 20.0823 27.0193 20.8086 28.0757Z" fill="#31241B"/>
</g>
<path d="M30.9922 77.63C31.4115 77.9077 31.8882 78.0869 32.3866 78.1543C33.0105 78.2456 33.6473 78.1405 34.2088 77.8535C34.7218 77.5814 35.1516 77.1755 35.4528 76.679C36.2578 75.3863 36.3229 73.476 35.5538 71.6897C34.4217 73.1269 31.6991 73.6399 29.5637 72.4445C28.7452 74.1269 29.3512 76.5495 30.9922 77.63Z" fill="#31241B"/>
<path d="M30.9922 77.447C31.4115 77.7247 31.8882 77.904 32.3866 77.9713C33.0105 78.0627 33.6473 77.9575 34.2088 77.6706C34.7218 77.3984 35.1516 76.9926 35.4528 76.496C34.2896 75.3453 31.9764 75.4203 30.9922 77.447Z" fill="#E06B38"/>
<path d="M32.8222 78.7328C32.6516 78.7323 32.4812 78.7201 32.3122 78.6962C31.7325 78.6179 31.178 78.4095 30.6902 78.0866C28.8509 76.8748 28.1088 74.1804 29.07 72.2027C29.1027 72.1355 29.1488 72.0756 29.2054 72.0268C29.2621 71.9781 29.3281 71.9413 29.3994 71.919C29.4707 71.8966 29.5459 71.889 29.6202 71.8967C29.6946 71.9044 29.7666 71.9273 29.8318 71.9638C31.7974 73.0644 34.1973 72.5225 35.1223 71.3484C35.1811 71.2737 35.2584 71.2155 35.3464 71.1797C35.4345 71.1438 35.5304 71.1315 35.6247 71.1438C35.719 71.1562 35.8085 71.1928 35.8843 71.2502C35.9602 71.3075 36.0199 71.3836 36.0575 71.4709C36.8859 73.3941 36.8324 75.5001 35.9184 76.9674C35.5669 77.5474 35.0645 78.021 34.4647 78.3376C33.957 78.5995 33.3936 78.7351 32.8222 78.7328ZM29.8644 73.1994C29.4754 74.6187 30.0685 76.3644 31.2946 77.1715C31.6455 77.4041 32.0444 77.5542 32.4615 77.6106C32.9719 77.6855 33.493 77.6005 33.9532 77.3673C34.379 77.141 34.7352 76.8034 34.9839 76.3904C35.5961 75.4079 35.7106 74.0373 35.3224 72.6758C33.9251 73.7431 31.7103 73.9711 29.8644 73.1994Z" fill="#31241B"/>
<path d="M16.0936 35.0569C16.8388 35.0569 17.443 34.4527 17.443 33.7074C17.443 32.9622 16.8388 32.358 16.0936 32.358C15.3483 32.358 14.7441 32.9622 14.7441 33.7074C14.7441 34.4527 15.3483 35.0569 16.0936 35.0569Z" fill="#E06B38"/>
<path d="M16.0932 35.4226C15.754 35.4226 15.4223 35.3219 15.1402 35.1334C14.8581 34.945 14.6383 34.677 14.5085 34.3636C14.3787 34.0501 14.3447 33.7052 14.4109 33.3725C14.4771 33.0397 14.6405 32.7341 14.8805 32.4942C15.1204 32.2543 15.4261 32.091 15.7588 32.0249C16.0916 31.9587 16.4365 31.9927 16.7499 32.1226C17.0633 32.2525 17.3312 32.4724 17.5196 32.7545C17.7081 33.0367 17.8086 33.3683 17.8085 33.7076C17.8081 34.1624 17.6272 34.5983 17.3056 34.9199C16.984 35.2414 16.548 35.4222 16.0932 35.4226ZM16.0932 32.7241C15.8987 32.7241 15.7086 32.7818 15.5468 32.8899C15.3851 32.9979 15.259 33.1515 15.1846 33.3312C15.1101 33.511 15.0907 33.7087 15.1286 33.8995C15.1666 34.0903 15.2602 34.2655 15.3978 34.4031C15.5353 34.5406 15.7106 34.6343 15.9014 34.6722C16.0921 34.7102 16.2899 34.6907 16.4696 34.6163C16.6493 34.5418 16.8029 34.4158 16.911 34.254C17.0191 34.0923 17.0768 33.9021 17.0768 33.7076C17.0766 33.4468 16.9729 33.1968 16.7885 33.0124C16.6041 32.828 16.354 32.7243 16.0932 32.7241Z" fill="#31241B"/>
<path d="M16.0932 35.4226C15.754 35.4226 15.4223 35.3219 15.1402 35.1334C14.8581 34.945 14.6383 34.677 14.5085 34.3636C14.3787 34.0501 14.3447 33.7052 14.4109 33.3725C14.4771 33.0397 14.6405 32.7341 14.8805 32.4942C15.1204 32.2543 15.4261 32.091 15.7588 32.0249C16.0916 31.9587 16.4365 31.9927 16.7499 32.1226C17.0633 32.2525 17.3312 32.4724 17.5196 32.7545C17.7081 33.0367 17.8086 33.3683 17.8085 33.7076C17.8081 34.1624 17.6272 34.5983 17.3056 34.9199C16.984 35.2414 16.548 35.4222 16.0932 35.4226ZM16.0932 32.7241C15.8987 32.7241 15.7086 32.7818 15.5468 32.8899C15.3851 32.9979 15.259 33.1515 15.1846 33.3312C15.1101 33.511 15.0907 33.7087 15.1286 33.8995C15.1666 34.0903 15.2602 34.2655 15.3978 34.4031C15.5353 34.5406 15.7106 34.6343 15.9014 34.6722C16.0921 34.7102 16.2899 34.6907 16.4696 34.6163C16.6493 34.5418 16.8029 34.4158 16.911 34.254C17.0191 34.0923 17.0768 33.9021 17.0768 33.7076C17.0766 33.4468 16.9729 33.1968 16.7885 33.0124C16.6041 32.828 16.354 32.7243 16.0932 32.7241Z" fill="#31241B"/>
<path d="M38.8504 38.9464C39.5956 38.9464 40.1998 38.3422 40.1998 37.597C40.1998 36.8517 39.5956 36.2476 38.8504 36.2476C38.1051 36.2476 37.501 36.8517 37.501 37.597C37.501 38.3422 38.1051 38.9464 38.8504 38.9464Z" fill="#E06B38"/>
<path d="M38.852 39.312C38.5128 39.312 38.1811 39.2113 37.899 39.0228C37.6169 38.8344 37.3971 38.5664 37.2673 38.253C37.1374 37.9395 37.1035 37.5946 37.1697 37.2619C37.2359 36.9291 37.3993 36.6235 37.6393 36.3836C37.8792 36.1437 38.1849 35.9804 38.5176 35.9143C38.8504 35.8481 39.1953 35.8821 39.5087 36.012C39.8221 36.1419 40.09 36.3618 40.2784 36.6439C40.4669 36.9261 40.5674 37.2577 40.5673 37.597C40.5668 38.0518 40.386 38.4877 40.0644 38.8093C39.7428 39.1308 39.3068 39.3116 38.852 39.312ZM38.852 36.6135C38.6575 36.6135 38.4673 36.6712 38.3056 36.7793C38.1439 36.8873 38.0178 37.0409 37.9434 37.2206C37.8689 37.4004 37.8495 37.5981 37.8874 37.7889C37.9254 37.9797 38.019 38.1549 38.1566 38.2925C38.2941 38.43 38.4694 38.5237 38.6601 38.5616C38.8509 38.5996 39.0487 38.5801 39.2284 38.5057C39.4081 38.4312 39.5617 38.3052 39.6698 38.1434C39.7779 37.9817 39.8355 37.7915 39.8355 37.597C39.8353 37.3362 39.7317 37.0862 39.5473 36.9018C39.3629 36.7174 39.1128 36.6137 38.852 36.6135Z" fill="#31241B"/>
<path d="M38.852 39.312C38.5128 39.312 38.1811 39.2113 37.899 39.0228C37.6169 38.8344 37.3971 38.5664 37.2673 38.253C37.1374 37.9395 37.1035 37.5946 37.1697 37.2619C37.2359 36.9291 37.3993 36.6235 37.6393 36.3836C37.8792 36.1437 38.1849 35.9804 38.5176 35.9143C38.8504 35.8481 39.1953 35.8821 39.5087 36.012C39.8221 36.1419 40.09 36.3618 40.2784 36.6439C40.4669 36.9261 40.5674 37.2577 40.5673 37.597C40.5668 38.0518 40.386 38.4877 40.0644 38.8093C39.7428 39.1308 39.3068 39.3116 38.852 39.312ZM38.852 36.6135C38.6575 36.6135 38.4673 36.6712 38.3056 36.7793C38.1439 36.8873 38.0178 37.0409 37.9434 37.2206C37.8689 37.4004 37.8495 37.5981 37.8874 37.7889C37.9254 37.9797 38.019 38.1549 38.1566 38.2925C38.2941 38.43 38.4694 38.5237 38.6601 38.5616C38.8509 38.5996 39.0487 38.5801 39.2284 38.5057C39.4081 38.4312 39.5617 38.3052 39.6698 38.1434C39.7779 37.9817 39.8355 37.7915 39.8355 37.597C39.8353 37.3362 39.7317 37.0862 39.5473 36.9018C39.3629 36.7174 39.1128 36.6137 38.852 36.6135Z" fill="#31241B"/>
<path d="M28.1326 37.5969C28.8779 37.5969 29.482 36.9927 29.482 36.2475C29.482 35.5022 28.8779 34.8981 28.1326 34.8981C27.3874 34.8981 26.7832 35.5022 26.7832 36.2475C26.7832 36.9927 27.3874 37.5969 28.1326 37.5969Z" fill="#E05656"/>
<path d="M28.1303 37.9628C27.7911 37.9628 27.4595 37.8622 27.1774 37.6738C26.8953 37.4853 26.6754 37.2174 26.5456 36.904C26.4158 36.5905 26.3818 36.2456 26.448 35.9129C26.5142 35.5802 26.6776 35.2745 26.9174 35.0346C27.1573 34.7947 27.463 34.6314 27.7957 34.5652C28.1284 34.499 28.4733 34.533 28.7868 34.6628C29.1002 34.7926 29.3681 35.0125 29.5566 35.2946C29.745 35.5766 29.8457 35.9083 29.8457 36.2475C29.8452 36.7023 29.6643 37.1383 29.3427 37.4599C29.0211 37.7815 28.5851 37.9624 28.1303 37.9628ZM28.1303 35.2644C27.9358 35.2644 27.7456 35.3221 27.5839 35.4302C27.4221 35.5382 27.2961 35.6919 27.2217 35.8716C27.1472 36.0513 27.1278 36.2491 27.1658 36.4399C27.2037 36.6307 27.2974 36.8059 27.435 36.9435C27.5726 37.081 27.7479 37.1747 27.9387 37.2126C28.1295 37.2505 28.3273 37.2309 28.507 37.1564C28.6867 37.0819 28.8403 36.9558 28.9483 36.794C29.0563 36.6323 29.1139 36.4421 29.1139 36.2475C29.1136 35.9868 29.0098 35.7369 28.8255 35.5525C28.6411 35.3682 28.3911 35.2646 28.1303 35.2644Z" fill="#31241B"/>
<path d="M28.1303 37.9628C27.7911 37.9628 27.4595 37.8622 27.1774 37.6738C26.8953 37.4853 26.6754 37.2174 26.5456 36.904C26.4158 36.5905 26.3818 36.2456 26.448 35.9129C26.5142 35.5802 26.6776 35.2745 26.9174 35.0346C27.1573 34.7947 27.463 34.6314 27.7957 34.5652C28.1284 34.499 28.4733 34.533 28.7868 34.6628C29.1002 34.7926 29.3681 35.0125 29.5566 35.2946C29.745 35.5766 29.8457 35.9083 29.8457 36.2475C29.8452 36.7023 29.6643 37.1383 29.3427 37.4599C29.0211 37.7815 28.5851 37.9624 28.1303 37.9628ZM28.1303 35.2644C27.9358 35.2644 27.7456 35.3221 27.5839 35.4302C27.4221 35.5382 27.2961 35.6919 27.2217 35.8716C27.1472 36.0513 27.1278 36.2491 27.1658 36.4399C27.2037 36.6307 27.2974 36.8059 27.435 36.9435C27.5726 37.081 27.7479 37.1747 27.9387 37.2126C28.1295 37.2505 28.3273 37.2309 28.507 37.1564C28.6867 37.0819 28.8403 36.9558 28.9483 36.794C29.0563 36.6323 29.1139 36.4421 29.1139 36.2475C29.1136 35.9868 29.0098 35.7369 28.8255 35.5525C28.6411 35.3682 28.3911 35.2646 28.1303 35.2644Z" fill="#31241B"/>
<path d="M53.41 36.0342C54.1552 36.0342 54.7594 35.43 54.7594 34.6847C54.7594 33.9395 54.1552 33.3353 53.41 33.3353C52.6647 33.3353 52.0605 33.9395 52.0605 34.6847C52.0605 35.43 52.6647 36.0342 53.41 36.0342Z" fill="#E05656"/>
<path d="M53.4087 36.4001C53.0694 36.4001 52.7378 36.2995 52.4557 36.111C52.1736 35.9225 51.9538 35.6546 51.8239 35.3412C51.6941 35.0278 51.6601 34.6829 51.7263 34.3501C51.7925 34.0174 51.9559 33.7118 52.1958 33.4719C52.4357 33.232 52.7413 33.0686 53.074 33.0024C53.4068 32.9363 53.7517 32.9702 54.0651 33.1001C54.3785 33.2299 54.6464 33.4497 54.8349 33.7318C55.0234 34.0139 55.124 34.3455 55.124 34.6848C55.1235 35.1396 54.9426 35.5756 54.621 35.8972C54.2995 36.2187 53.8634 36.3996 53.4087 36.4001ZM53.4087 33.7016C53.2141 33.7016 53.024 33.7593 52.8622 33.8674C52.7005 33.9755 52.5744 34.1291 52.5 34.3089C52.4255 34.4886 52.4061 34.6864 52.4441 34.8772C52.482 35.068 52.5758 35.2432 52.7133 35.3807C52.8509 35.5183 53.0262 35.6119 53.217 35.6498C53.4078 35.6877 53.6056 35.6682 53.7853 35.5937C53.965 35.5192 54.1186 35.3931 54.2266 35.2313C54.3346 35.0695 54.3923 34.8793 54.3922 34.6848C54.3919 34.4241 54.2882 34.1741 54.1038 33.9898C53.9194 33.8055 53.6694 33.7018 53.4087 33.7016Z" fill="#31241B"/>
<path d="M53.4087 36.4001C53.0694 36.4001 52.7378 36.2995 52.4557 36.111C52.1736 35.9225 51.9538 35.6546 51.8239 35.3412C51.6941 35.0278 51.6601 34.6829 51.7263 34.3501C51.7925 34.0174 51.9559 33.7118 52.1958 33.4719C52.4357 33.232 52.7413 33.0686 53.074 33.0024C53.4068 32.9363 53.7517 32.9702 54.0651 33.1001C54.3785 33.2299 54.6464 33.4497 54.8349 33.7318C55.0234 34.0139 55.124 34.3455 55.124 34.6848C55.1235 35.1396 54.9426 35.5756 54.621 35.8972C54.2995 36.2187 53.8634 36.3996 53.4087 36.4001ZM53.4087 33.7016C53.2141 33.7016 53.024 33.7593 52.8622 33.8674C52.7005 33.9755 52.5744 34.1291 52.5 34.3089C52.4255 34.4886 52.4061 34.6864 52.4441 34.8772C52.482 35.068 52.5758 35.2432 52.7133 35.3807C52.8509 35.5183 53.0262 35.6119 53.217 35.6498C53.4078 35.6877 53.6056 35.6682 53.7853 35.5937C53.965 35.5192 54.1186 35.3931 54.2266 35.2313C54.3346 35.0695 54.3923 34.8793 54.3922 34.6848C54.3919 34.4241 54.2882 34.1741 54.1038 33.9898C53.9194 33.8055 53.6694 33.7018 53.4087 33.7016Z" fill="#31241B"/>
<path d="M27.4334 27.5053C28.1787 27.5053 28.7828 26.9012 28.7828 26.1559C28.7828 25.4107 28.1787 24.8065 27.4334 24.8065C26.6881 24.8065 26.084 25.4107 26.084 26.1559C26.084 26.9012 26.6881 27.5053 27.4334 27.5053Z" fill="#944C2C"/>
<path d="M27.4325 27.871C27.0932 27.8711 26.7615 27.7706 26.4794 27.5821C26.1973 27.3937 25.9774 27.1258 25.8475 26.8124C25.7176 26.499 25.6836 26.1541 25.7497 25.8213C25.8159 25.4886 25.9792 25.1829 26.2191 24.943C26.4589 24.703 26.7646 24.5396 27.0973 24.4734C27.4301 24.4072 27.775 24.4412 28.0884 24.571C28.4019 24.7008 28.6698 24.9206 28.8583 25.2027C29.0468 25.4848 29.1474 25.8165 29.1474 26.1557C29.1469 26.6105 28.9661 27.0464 28.6446 27.368C28.3231 27.6895 27.8872 27.8705 27.4325 27.871ZM27.4325 25.1726C27.2379 25.1725 27.0477 25.2301 26.8859 25.3382C26.7241 25.4462 26.598 25.5998 26.5235 25.7796C26.449 25.9593 26.4295 26.1571 26.4675 26.3479C26.5054 26.5387 26.5991 26.714 26.7366 26.8516C26.8742 26.9891 27.0495 27.0828 27.2403 27.1207C27.4311 27.1587 27.6289 27.1392 27.8086 27.0647C27.9884 26.9902 28.142 26.8641 28.25 26.7023C28.3581 26.5405 28.4157 26.3503 28.4156 26.1557C28.4152 25.8951 28.3115 25.6453 28.1272 25.4611C27.9429 25.2769 27.6931 25.1732 27.4325 25.1729V25.1726Z" fill="#31241B"/>
<path d="M27.4325 27.871C27.0932 27.8711 26.7615 27.7706 26.4794 27.5821C26.1973 27.3937 25.9774 27.1258 25.8475 26.8124C25.7176 26.499 25.6836 26.1541 25.7497 25.8213C25.8159 25.4886 25.9792 25.1829 26.2191 24.943C26.4589 24.703 26.7646 24.5396 27.0973 24.4734C27.4301 24.4072 27.775 24.4412 28.0884 24.571C28.4019 24.7008 28.6698 24.9206 28.8583 25.2027C29.0468 25.4848 29.1474 25.8165 29.1474 26.1557C29.1469 26.6105 28.9661 27.0464 28.6446 27.368C28.3231 27.6895 27.8872 27.8705 27.4325 27.871ZM27.4325 25.1726C27.2379 25.1725 27.0477 25.2301 26.8859 25.3382C26.7241 25.4462 26.598 25.5998 26.5235 25.7796C26.449 25.9593 26.4295 26.1571 26.4675 26.3479C26.5054 26.5387 26.5991 26.714 26.7366 26.8516C26.8742 26.9891 27.0495 27.0828 27.2403 27.1207C27.4311 27.1587 27.6289 27.1392 27.8086 27.0647C27.9884 26.9902 28.142 26.8641 28.25 26.7023C28.3581 26.5405 28.4157 26.3503 28.4156 26.1557C28.4152 25.8951 28.3115 25.6453 28.1272 25.4611C27.9429 25.2769 27.6931 25.1732 27.4325 25.1729V25.1726Z" fill="#31241B"/>
<path d="M36.7283 31.7669C37.4736 31.7669 38.0777 31.1628 38.0777 30.4175C38.0777 29.6723 37.4736 29.0681 36.7283 29.0681C35.9831 29.0681 35.3789 29.6723 35.3789 30.4175C35.3789 31.1628 35.9831 31.7669 36.7283 31.7669Z" fill="#944C2C"/>
<path d="M36.7293 32.1326C36.3901 32.1327 36.0584 32.0322 35.7763 31.8437C35.4941 31.6553 35.2742 31.3874 35.1443 31.074C35.0145 30.7606 34.9804 30.4157 35.0466 30.0829C35.1127 29.7502 35.2761 29.4445 35.5159 29.2046C35.7558 28.9646 36.0615 28.8012 36.3942 28.735C36.727 28.6688 37.0719 28.7027 37.3853 28.8326C37.6988 28.9624 37.9667 29.1822 38.1552 29.4643C38.3437 29.7464 38.4443 30.0781 38.4443 30.4173C38.4438 30.872 38.263 31.308 37.9415 31.6296C37.62 31.9511 37.1841 32.1321 36.7293 32.1326ZM36.7293 29.4342C36.5348 29.4341 36.3446 29.4917 36.1828 29.5998C36.021 29.7078 35.8949 29.8614 35.8204 30.0411C35.7459 30.2209 35.7264 30.4187 35.7643 30.6095C35.8023 30.8003 35.896 30.9756 36.0335 31.1131C36.1711 31.2507 36.3464 31.3444 36.5372 31.3823C36.728 31.4203 36.9258 31.4008 37.1055 31.3263C37.2853 31.2518 37.4389 31.1257 37.5469 30.9639C37.6549 30.8021 37.7126 30.6119 37.7125 30.4173C37.7122 30.1567 37.6085 29.9068 37.4242 29.7225C37.2399 29.5381 36.99 29.4345 36.7293 29.4342Z" fill="#31241B"/>
<path d="M36.7293 32.1326C36.3901 32.1327 36.0584 32.0322 35.7763 31.8437C35.4941 31.6553 35.2742 31.3874 35.1443 31.074C35.0145 30.7606 34.9804 30.4157 35.0466 30.0829C35.1127 29.7502 35.2761 29.4445 35.5159 29.2046C35.7558 28.9646 36.0615 28.8012 36.3942 28.735C36.727 28.6688 37.0719 28.7027 37.3853 28.8326C37.6988 28.9624 37.9667 29.1822 38.1552 29.4643C38.3437 29.7464 38.4443 30.0781 38.4443 30.4173C38.4438 30.872 38.263 31.308 37.9415 31.6296C37.62 31.9511 37.1841 32.1321 36.7293 32.1326ZM36.7293 29.4342C36.5348 29.4341 36.3446 29.4917 36.1828 29.5998C36.021 29.7078 35.8949 29.8614 35.8204 30.0411C35.7459 30.2209 35.7264 30.4187 35.7643 30.6095C35.8023 30.8003 35.896 30.9756 36.0335 31.1131C36.1711 31.2507 36.3464 31.3444 36.5372 31.3823C36.728 31.4203 36.9258 31.4008 37.1055 31.3263C37.2853 31.2518 37.4389 31.1257 37.5469 30.9639C37.6549 30.8021 37.7126 30.6119 37.7125 30.4173C37.7122 30.1567 37.6085 29.9068 37.4242 29.7225C37.2399 29.5381 36.99 29.4345 36.7293 29.4342Z" fill="#31241B"/>
<path d="M23.5921 61.7349C22.6726 61.5223 21.7626 61.7301 20.9942 62.2523C20.0089 62.9175 19.2562 64.0953 19.0133 65.5522C18.6997 67.4348 19.3228 69.2668 20.4904 70.3154C20.9243 70.715 21.4534 70.9967 22.0271 71.1336C24.1244 71.6209 26.1753 69.9119 26.6074 67.3166C27.0395 64.7213 25.6894 62.2223 23.5921 61.7349Z" fill="#FFF9F2"/>
<path d="M22.7396 71.3703C22.4879 71.3702 22.2369 71.3414 21.9917 71.2843C21.3922 71.1421 20.8393 70.848 20.3862 70.4303C19.1484 69.3187 18.5494 67.3934 18.8604 65.5273C19.1015 64.0799 19.8483 62.8395 20.9094 62.1245C21.7371 61.5625 22.7023 61.3708 23.6298 61.5849C25.8021 62.0894 27.2068 64.6723 26.7611 67.3422C26.5189 68.7992 25.7656 70.045 24.695 70.7603C24.0905 71.1625 23.4162 71.3703 22.7396 71.3703ZM22.882 61.8084C22.2577 61.8084 21.6379 62.0034 21.081 62.3803C20.0909 63.0484 19.3928 64.2138 19.1656 65.5775C18.8729 67.3429 19.4319 69.1574 20.5926 70.2005C21.007 70.5832 21.5131 70.8526 22.062 70.9828C22.8944 71.1756 23.7678 71.0055 24.5212 70.502C25.5211 69.8343 26.2258 68.6638 26.4542 67.2906C26.8735 64.7784 25.5742 62.3536 23.5581 61.8853C23.3364 61.834 23.1095 61.8082 22.882 61.8084Z" fill="#31241B"/>
<path d="M23.5915 61.7349C22.672 61.5223 21.762 61.7301 20.9936 62.2523C20.8732 62.4 20.7631 62.5561 20.6643 62.7191C20.4389 63.0894 20.2761 63.6438 20.5491 63.9661C20.784 64.2431 21.1733 64.149 21.5004 64.2241C22.0364 64.347 22.425 65.0469 22.3054 65.6777C22.1857 66.3085 21.5809 66.7454 21.0518 66.5866C20.6834 66.4769 20.316 66.1256 19.968 66.3034C19.7119 66.4348 19.608 66.7981 19.5736 67.1241C19.4561 68.2372 19.8224 69.3733 20.4305 70.2342C20.4495 70.2617 20.47 70.2891 20.4902 70.3154C20.9241 70.715 21.4532 70.9967 22.0269 71.1336C24.1242 71.6209 26.175 69.9119 26.6072 67.3166C27.0393 64.7213 25.6888 62.2223 23.5915 61.7349Z" fill="#A38DBF"/>
<path d="M26.8495 67.2178C27.0272 64.9245 25.7558 62.9557 24.0098 62.8204C22.2639 62.6851 20.7045 64.4346 20.5268 66.728C20.3491 69.0214 21.6205 70.9901 23.3664 71.1254C25.1124 71.2607 26.6718 69.5112 26.8495 67.2178Z" fill="#31241B"/>
<path d="M21.5586 64.0926C21.233 64.0173 20.8437 64.1117 20.6073 63.8347C20.3343 63.5123 20.4975 62.9565 20.7225 62.5877C20.8213 62.4246 20.9314 62.2686 21.0519 62.1208C20.0665 62.786 19.3139 63.9638 19.0709 65.4208C18.7573 67.3033 19.3805 69.1354 20.548 70.184C20.5279 70.1577 20.5074 70.1302 20.4884 70.1028C19.8803 69.2418 19.514 68.1058 19.6315 66.9927C19.6658 66.6667 19.7701 66.3034 20.0259 66.172C20.3738 65.9942 20.7412 66.344 21.1097 66.4552C21.6387 66.614 22.2439 66.1757 22.3628 65.5463C22.4818 64.917 22.095 64.2156 21.5586 64.0926Z" fill="#FFF9F2"/>
<path d="M22.8751 61.6527C23.1165 61.653 23.3571 61.6806 23.5922 61.735C25.6895 62.2224 27.0393 64.7211 26.6061 67.3167C26.2237 69.6138 24.5732 71.2168 22.7448 71.2168C22.5029 71.2166 22.2618 71.1887 22.0262 71.1337C21.4525 70.9967 20.9234 70.7151 20.4895 70.3156C19.3219 69.2669 18.6988 67.4349 19.0124 65.5524C19.2553 64.0954 20.008 62.9179 20.9933 62.2524C21.5612 61.8667 22.2062 61.6527 22.8751 61.6527ZM22.8751 60.6597C22.0222 60.6597 21.1784 60.926 20.4357 61.4306C19.188 62.2722 18.3117 63.716 18.0329 65.3892C17.6703 67.5648 18.3574 69.7356 19.8257 71.0547C20.3836 71.5673 21.0641 71.9277 21.8016 72.1011C22.1108 72.1734 22.4273 72.2103 22.7448 72.2109C25.0939 72.2109 27.1297 70.2215 27.586 67.4806C27.8315 66.0094 27.5958 64.5118 26.9219 63.2645C26.2157 61.9564 25.1129 61.0691 23.8173 60.7691C23.5084 60.6968 23.1923 60.66 22.8751 60.6593V60.6597Z" fill="#31241B"/>
<path d="M41.047 61.7349C41.9669 61.5223 42.8765 61.7301 43.6449 62.2523C44.6302 62.9175 45.3829 64.0953 45.6258 65.5522C45.9394 67.4348 45.3163 69.2668 44.1487 70.3154C43.7148 70.715 43.1857 70.9967 42.612 71.1336C40.5147 71.6209 38.4638 69.9119 38.0317 67.3166C37.5996 64.7213 38.949 62.2223 41.047 61.7349Z" fill="#FFF9F2"/>
<path d="M41.9003 71.3704C41.2234 71.3704 40.5494 71.1626 39.9468 70.7601C38.8762 70.0448 38.1228 68.7989 37.8802 67.342C37.4349 64.6709 38.8396 62.0892 41.0119 61.5846C41.9383 61.3702 42.9043 61.5623 43.7327 62.1247C44.7938 62.8397 45.5384 64.08 45.7795 65.5275C46.0905 67.3936 45.4912 69.3192 44.253 70.4305C43.8001 70.8482 43.2473 71.1422 42.6478 71.2841C42.4028 71.3413 42.1519 71.3703 41.9003 71.3704ZM41.0818 61.8858C39.0657 62.3541 37.7664 64.7789 38.1854 67.2911C38.4141 68.6643 39.1188 69.8348 40.1188 70.5025C40.8721 71.006 41.7455 71.1762 42.5779 70.9833C43.1263 70.8529 43.6318 70.5835 44.0459 70.201C45.208 69.1575 45.7685 67.3431 45.4729 65.5776C45.2456 64.214 44.5475 63.0486 43.5578 62.3808C42.8015 61.8686 41.9215 61.6907 41.0803 61.8861L41.0818 61.8858Z" fill="#31241B"/>
<path d="M41.047 61.7349C41.9669 61.5223 42.8765 61.7301 43.6449 62.2523C43.7655 62.4 43.8755 62.556 43.9742 62.7191C44.1999 63.0894 44.3628 63.6438 44.0898 63.9661C43.8549 64.2431 43.4656 64.149 43.1385 64.2241C42.6025 64.347 42.2139 65.0469 42.3335 65.6777C42.4532 66.3085 43.058 66.7454 43.5871 66.5866C43.9555 66.4769 44.3225 66.1256 44.6708 66.3034C44.927 66.4348 45.0309 66.7981 45.0653 67.1241C45.1827 68.2372 44.8165 69.3733 44.2084 70.2342C44.189 70.2617 44.1688 70.2891 44.1487 70.3154C43.7148 70.715 43.1857 70.9967 42.612 71.1336C40.5147 71.6209 38.4638 69.9119 38.0317 67.3166C37.5996 64.7213 38.949 62.2223 41.047 61.7349Z" fill="#A38DBF"/>
<path d="M41.2784 71.1168C43.0244 70.9815 44.2957 69.0127 44.118 66.7193C43.9404 64.426 42.3809 62.6765 40.635 62.8117C38.889 62.947 37.6177 64.9158 37.7953 67.2092C37.973 69.5025 39.5324 71.252 41.2784 71.1168Z" fill="#31241B"/>
<path d="M43.0782 64.0926C43.4042 64.0173 43.7935 64.1117 44.0295 63.8347C44.3025 63.5123 44.1393 62.9565 43.9143 62.5877C43.8155 62.4246 43.7054 62.2686 43.585 62.1208C44.5703 62.786 45.323 63.9638 45.5659 65.4208C45.8795 67.3033 45.2564 69.1354 44.0888 70.184C44.1089 70.1577 44.1294 70.1302 44.1485 70.1028C44.7566 69.2418 45.1228 68.1058 45.0054 66.9927C44.971 66.6667 44.8667 66.3034 44.6109 66.172C44.263 65.9942 43.8956 66.344 43.5272 66.4552C42.9981 66.614 42.3929 66.1757 42.2736 65.5463C42.1543 64.917 42.5422 64.2156 43.0782 64.0926Z" fill="#FFF9F2"/>
<path d="M41.7636 61.6526C42.4324 61.6526 43.0775 61.8666 43.6453 62.2523C44.6307 62.9175 45.3833 64.0953 45.6263 65.5523C45.9399 67.4348 45.3167 69.2668 44.1492 70.3154C43.7152 70.7149 43.1861 70.9965 42.6124 71.1336C42.3768 71.1886 42.1357 71.2165 41.8938 71.2166C40.0644 71.2166 38.4149 69.6137 38.0322 67.3166C37.5993 64.721 38.9491 62.2223 41.0464 61.7349C41.2816 61.6805 41.5222 61.6528 41.7636 61.6526ZM41.7636 60.6595C41.4468 60.6597 41.1311 60.696 40.8225 60.7675C39.5258 61.0686 38.423 61.9552 37.7164 63.2632C37.0428 64.5106 36.8072 66.0074 37.0527 67.4798C37.509 70.2203 39.5448 72.2097 41.8938 72.2097C42.2114 72.2091 42.5279 72.1722 42.8371 72.0999C43.5756 71.9265 44.257 71.5657 44.8155 71.0524C46.2816 69.7351 46.9687 67.5647 46.6061 65.3891C46.3273 63.7158 45.451 62.2728 44.2015 61.429C43.4606 60.9259 42.6168 60.6606 41.7639 60.6606L41.7636 60.6595Z" fill="#31241B"/>
</svg>
