<svg width="40" height="44" viewBox="0 0 40 44" fill="none" xmlns="http://www.w3.org/2000/svg">
<path d="M6.51781 17.0708C6.51781 17.0708 6.35881 32.1316 14.416 37.5335L19.7535 40.7668L25.0729 37.5335C33.13 32.1316 32.9711 17.0708 32.9711 17.0708L19.7445 10.5662L6.51781 17.0708Z" fill="#A38DBF"/>
<path d="M11.0424 1.65856C10.7982 1.22723 10.3598 0.94119 9.86664 0.89117L1.11179 0.00461943C0.620619 -0.0451351 0.182213 0.312708 0.132458 0.803879L0.00461942 2.06598C-0.0451351 2.55715 0.312708 2.99556 0.803879 3.04531L8.77239 3.85218L12.208 9.91949L14.8674 8.41357L11.0424 1.65856Z" fill="#F6F4F9"/>
<path d="M39.485 2.06596L39.3571 0.803864C39.3074 0.312693 38.869 -0.0450611 38.3778 0.00460488L29.6229 0.891156C29.1297 0.941087 28.6914 1.22713 28.4471 1.65854L24.6221 8.41356L27.2815 9.91947L30.7171 3.85217L38.6856 3.0453C39.1769 2.99554 39.5347 2.55713 39.485 2.06596Z" fill="#F6F4F9"/>
<path d="M29.8182 4.48983C29.1338 3.94899 28.3635 3.53042 27.5472 3.24756L24.6221 8.41335L27.2815 9.91926L30.1822 4.79668C30.0643 4.69079 29.943 4.58845 29.8182 4.48983Z" fill="#F6F4F9"/>
<path d="M14.8668 8.41335L11.9417 3.24756C11.1254 3.53033 10.3551 3.9489 9.67068 4.48974C9.54594 4.58836 9.42465 4.69079 9.30664 4.79659L12.2075 9.91926L14.8668 8.41335Z" fill="#F6F4F9"/>
<path d="M32.9719 17.0709C34.8716 14.2418 33.438 10.333 30.1333 9.50096C30.082 9.48804 30.0304 9.47591 29.9784 9.46449L29.9768 9.46414L29.9765 9.46272C29.3375 6.55004 26.3352 4.81501 23.4925 5.71555L23.4881 5.71077C22.4827 4.6113 21.114 4.06152 19.7451 4.06152C18.3763 4.06152 17.0076 4.6113 16.0021 5.71077L15.9978 5.71555C13.1551 4.81501 10.1528 6.55004 9.51377 9.46272L9.51341 9.46414L9.51191 9.46449C9.45994 9.47591 9.40824 9.48804 9.35698 9.50096C6.05238 10.333 4.6187 14.2418 6.5184 17.0709H32.9719Z" fill="#FAB292"/>
<path d="M16.3579 37.5336C8.71435 28.2712 11.2954 17.0708 11.2954 17.0708L8.68434 16.0054L6.51781 17.0708C6.51781 17.0708 6.35881 32.1316 14.416 37.5336L17.5873 39.4546C17.3067 38.8346 16.9029 38.1942 16.3579 37.5336Z" fill="#A38DBF"/>
<path d="M14.9713 24.3669C14.9737 23.1398 13.7266 22.1426 12.1857 22.1395C10.6448 22.1364 9.39362 23.1287 9.39116 24.3558C9.38871 25.5829 10.6359 26.5801 12.1768 26.5832C13.7177 26.5863 14.9688 25.594 14.9713 24.3669Z" fill="#FF97C0"/>
<path d="M30.0914 24.4001C30.0938 23.173 28.8467 22.1758 27.3058 22.1727C25.7649 22.1696 24.5137 23.1619 24.5113 24.389C24.5088 25.6161 25.756 26.6133 27.2969 26.6164C28.8378 26.6195 30.0889 25.6272 30.0914 24.4001Z" fill="#FF97C0"/>
<path d="M13.8359 20.9126C13.4692 20.9126 13.1719 21.2099 13.1719 21.5766V22.7104C13.1719 23.0772 13.4692 23.3744 13.8359 23.3744C14.2026 23.3744 14.4998 23.0772 14.4998 22.7104V21.5766C14.4998 21.2099 14.2026 20.9126 13.8359 20.9126Z" fill="#423E4F"/>
<path d="M25.6376 20.9126C25.2709 20.9126 24.9736 21.2099 24.9736 21.5766V22.7104C24.9736 23.0772 25.2709 23.3744 25.6376 23.3744C26.0043 23.3744 26.3016 23.0772 26.3016 22.7104V21.5766C26.3016 21.2099 26.0043 20.9126 25.6376 20.9126Z" fill="#423E4F"/>
<path d="M22.4848 22.7227C22.1181 22.7227 21.8209 23.0199 21.8209 23.3866C21.8209 23.7736 21.506 24.0885 21.119 24.0885C20.732 24.0885 20.4171 23.7736 20.4171 23.3866C20.4171 23.0199 20.1198 22.7227 19.7531 22.7227C19.3864 22.7227 19.0891 23.0199 19.0891 23.3866C19.0891 23.7736 18.7742 24.0885 18.3873 24.0885C18.0003 24.0885 17.6854 23.7736 17.6854 23.3866C17.6854 23.0199 17.3881 22.7227 17.0214 22.7227C16.6547 22.7227 16.3574 23.0199 16.3574 23.3866C16.3574 24.5059 17.268 25.4165 18.3873 25.4165C18.9128 25.4165 19.3923 25.2157 19.7531 24.8869C20.114 25.2157 20.5935 25.4165 21.119 25.4165C22.2383 25.4165 23.1488 24.5059 23.1488 23.3866C23.1488 23.0199 22.8516 22.7227 22.4848 22.7227Z" fill="#423E4F"/>
<path d="M28.0322 40.0098C26.7642 38.3309 25.073 37.5334 25.073 37.5334H14.4162C14.4162 37.5334 12.7597 38.3146 11.4963 39.9583C10.2266 41.6102 11.3908 43.9999 13.4742 43.9999H26.0159C28.07 43.9999 29.2701 41.6489 28.0322 40.0098Z" fill="#F6F4F9"/>
<g style="mix-blend-mode:multiply" opacity="0.15">
<path d="M11.3341 6.56177C10.443 7.26019 9.77645 8.26059 9.51281 9.4624L9.51245 9.46382L9.51095 9.46417C9.45898 9.47559 9.40728 9.48772 9.35602 9.50065C6.05133 10.3326 4.61774 14.2414 6.51745 17.0706H11.2949C9.04244 13.6213 10.4697 8.78434 11.3341 6.56177Z" fill="#FAB292"/>
</g>
<path d="M16.358 37.5334H14.4162C14.4162 37.5334 12.7597 38.3146 11.4963 39.9583C10.2266 41.6102 11.3908 43.9999 13.4743 43.9999H15.1175C13.9114 40.4962 16.358 37.5334 16.358 37.5334Z" fill="#F6F4F9"/>
</svg>
