<svg width="84" height="105" viewBox="0 0 84 105" fill="none" xmlns="http://www.w3.org/2000/svg">
<g id="Group 36233">
<g id="Group" opacity="0.3">
<path id="Vector" opacity="0.3" d="M43.1906 105C63.2356 105 79.4852 103.379 79.4852 101.378C79.4852 99.3783 63.2356 97.7568 43.1906 97.7568C23.1456 97.7568 6.896 99.3783 6.896 101.378C6.896 103.379 23.1456 105 43.1906 105Z" fill="#31241B"/>
</g>
<path id="Vector_2" d="M54.2097 95.7258L53.6057 99.8354H46.622C45.6613 99.8354 45.0014 98.958 45.1664 98.0806C45.193 97.9399 45.2397 97.8037 45.3051 97.6763C45.8453 96.6149 46.8169 95.7824 48.2131 95.6886L48.1726 95.6777L47.0154 89.7744C47.0154 89.7744 49.1717 88.8161 51.379 89.4841C52.2394 89.7424 53.1063 90.2487 53.8559 91.1536L54.2097 95.7258Z" fill="#FFE1AE"/>
<path id="Vector_3" d="M53.6978 99.9422H46.622C46.3886 99.9421 46.1582 99.8905 45.9471 99.7912C45.7359 99.6918 45.5493 99.5472 45.4005 99.3675C45.2516 99.1878 45.1442 98.9775 45.086 98.7516C45.0277 98.5257 45.0199 98.2897 45.0633 98.0604C45.0916 97.9091 45.1417 97.7627 45.212 97.6257C45.8125 96.4459 46.8156 95.7294 48.0472 95.5948L46.8937 89.7105L46.9713 89.6757C47.0611 89.6353 49.1899 88.7089 51.4097 89.381C52.3963 89.6769 53.247 90.2503 53.9376 91.0844L53.959 91.1107L54.3172 95.7294L54.3152 95.7411L53.6978 99.9422ZM48.264 95.5895L48.8939 95.7484L48.2219 95.7937C46.9948 95.8746 45.9932 96.5619 45.4021 97.7232C45.2781 97.9639 45.2278 98.2358 45.2574 98.505C45.287 98.7741 45.3953 99.0286 45.5687 99.2366C45.6962 99.3922 45.8571 99.5172 46.0394 99.6024C46.2217 99.6875 46.4208 99.7307 46.622 99.7287H53.5134L54.1021 95.7237L53.7516 91.1952C53.0921 90.408 52.2834 89.8666 51.3482 89.5855C49.4377 89.0073 47.5398 89.6802 47.1363 89.8391L48.264 95.5895Z" fill="#31241B"/>
<path id="Vector_4" d="M65.7343 88.61L65.0191 98.403C64.9855 98.8609 64.78 99.2893 64.4438 99.602C64.1076 99.9148 63.6656 100.089 63.2064 100.089H54.5132C53.4179 100.089 52.5789 99.0968 52.7799 98.0209C52.8421 97.6894 52.9483 97.3676 53.0957 97.0642C53.8962 95.4182 55.8969 94.4106 58.5186 95.2581L58.0334 90.7663C58.0334 90.7663 57.8627 85.1299 63.2707 87.3032C63.99 87.5895 64.8076 88.0165 65.7343 88.61Z" fill="#FFE1AE"/>
<path id="Vector_5" d="M63.2064 100.196H54.5132C54.238 100.196 53.966 100.136 53.7169 100.019C53.4677 99.9019 53.2474 99.7313 53.0718 99.5193C52.8979 99.3112 52.7721 99.0672 52.7035 98.8048C52.6349 98.5424 52.625 98.2681 52.6747 98.0015C52.7381 97.6605 52.8469 97.3295 52.9982 97.0173C53.7486 95.4748 55.7003 94.3046 58.3932 95.1081L57.9262 90.7776C57.9226 90.6669 57.8672 88.2493 59.396 87.1823C60.3316 86.5293 61.6481 86.5354 63.3091 87.2041C64.0563 87.5021 64.8905 87.9449 65.7885 88.5198L65.8423 88.5542L65.8374 88.6177L65.1221 98.4107C65.0857 98.8946 64.8683 99.347 64.5133 99.6779C64.1583 100.009 63.6917 100.194 63.2064 100.196ZM56.6695 95.0515C54.8771 95.0515 53.7074 96.0538 53.1923 97.1111C53.0492 97.4061 52.946 97.7189 52.8854 98.0411C52.8415 98.2768 52.8503 98.5193 52.9112 98.7512C52.972 98.9832 53.0833 99.1988 53.2372 99.3827C53.3925 99.5707 53.5876 99.7221 53.8084 99.8259C54.0291 99.9297 54.2701 99.9834 54.514 99.9831H63.2072C63.6392 99.9816 64.0548 99.8173 64.371 99.523C64.6872 99.2287 64.8809 98.8261 64.9135 98.3953L65.6239 88.6654C64.7574 88.1143 63.954 87.6893 63.2339 87.4023C61.6441 86.7634 60.3955 86.7481 59.5229 87.3566C58.0888 88.3573 58.1425 90.7388 58.1429 90.7631L58.6447 95.4105L58.4882 95.3596C57.8239 95.1453 57.2174 95.0515 56.6695 95.0515Z" fill="#31241B"/>
<path id="Vector_6" d="M58.8092 94.6782C59.0558 94.6907 59.2944 94.7752 59.5196 94.8908C59.7456 95.0124 59.9542 95.1641 60.1394 95.3417C60.5139 95.6943 60.8163 96.1168 60.976 96.6089C60.9802 96.6217 60.9817 96.6353 60.9807 96.6487C60.9796 96.6622 60.9759 96.6753 60.9697 96.6873C60.9635 96.6993 60.9551 96.71 60.9448 96.7188C60.9345 96.7275 60.9226 96.7341 60.9097 96.7382C60.8902 96.7443 60.8693 96.7443 60.8499 96.7382H60.8466C60.6016 96.6679 60.3833 96.5899 60.1673 96.5231C59.9514 96.4564 59.7484 96.3917 59.5467 96.3359C59.3449 96.2801 59.1472 96.232 58.9588 96.1645C58.7704 96.097 58.5824 96.025 58.3996 95.892L58.3842 95.8806C58.3135 95.8293 58.2535 95.7645 58.2078 95.6899C58.1622 95.6153 58.1316 95.5325 58.118 95.4461C58.1044 95.3597 58.1079 95.2715 58.1284 95.1865C58.1489 95.1015 58.186 95.0214 58.2375 94.9507C58.3031 94.8619 58.3896 94.7906 58.4893 94.743C58.589 94.6955 58.6988 94.6732 58.8092 94.6782Z" fill="#31241B"/>
<path id="Vector_7" d="M63.2064 100.837H54.5157C54.146 100.838 53.7808 100.756 53.4463 100.599C53.1117 100.442 52.8161 100.213 52.5805 99.9277C52.3465 99.6471 52.1774 99.3183 52.0853 98.9648C51.9933 98.6112 51.9805 98.2416 52.048 97.8826C52.1623 97.2667 52.4053 96.6818 52.761 96.1663C53.1168 95.6507 53.5773 95.2159 54.1125 94.8905C55.364 94.1336 56.9696 93.9985 58.6346 94.5092C58.8241 94.5674 58.9827 94.6985 59.0756 94.8736C59.1684 95.0487 59.1879 95.2535 59.1297 95.443C59.0715 95.6325 58.9405 95.7911 58.7653 95.884C58.5902 95.9768 58.3854 95.9963 58.1959 95.9381C56.5911 95.4453 55.5099 95.7918 54.886 96.1694C54.5292 96.384 54.2224 96.6724 53.9863 97.0153C53.7501 97.3582 53.5901 97.7477 53.517 98.1575C53.4893 98.3007 53.4941 98.4483 53.5311 98.5893C53.568 98.7304 53.6362 98.8614 53.7304 98.9727C53.826 99.0883 53.946 99.1813 54.0817 99.2452C54.2175 99.309 54.3657 99.342 54.5157 99.3418H63.2064C63.4767 99.341 63.7367 99.2383 63.9346 99.0542C64.1325 98.8702 64.2538 98.6183 64.2743 98.3488L64.9883 88.5554C64.9954 88.4575 65.0218 88.362 65.0659 88.2743C65.1099 88.1866 65.1708 88.1084 65.2451 88.0443C65.3193 87.9801 65.4055 87.9312 65.4987 87.9003C65.5919 87.8695 65.6902 87.8573 65.7881 87.8644C65.886 87.8716 65.9815 87.8979 66.0692 87.942C66.1569 87.986 66.2351 88.0469 66.2992 88.1212C66.3634 88.1954 66.4123 88.2816 66.4432 88.3748C66.474 88.468 66.4862 88.5663 66.4791 88.6642L65.765 98.4575C65.7158 99.1032 65.4252 99.7066 64.951 100.148C64.4768 100.589 63.8539 100.835 63.2064 100.837Z" fill="#31241B"/>
<path id="Vector_8" d="M58.5182 96.0068C58.3341 96.0066 58.1566 95.9384 58.0196 95.8154C57.8827 95.6923 57.796 95.5231 57.7762 95.3401L57.291 90.8487C57.2696 90.6517 57.3273 90.4542 57.4514 90.2997C57.5756 90.1452 57.7561 90.0463 57.9531 90.0249C58.1502 90.0035 58.3477 90.0612 58.5022 90.1853C58.6567 90.3095 58.7555 90.4899 58.7769 90.687L59.2621 95.1783C59.2833 95.3754 59.2254 95.5727 59.1012 95.7271C58.9769 95.8815 58.7964 95.9802 58.5994 96.0016C58.5725 96.0047 58.5453 96.0065 58.5182 96.0068Z" fill="#31241B"/>
<path id="Vector_9" d="M54.2089 96.4738C54.0208 96.4735 53.8398 96.4024 53.7019 96.2745C53.564 96.1466 53.4793 95.9715 53.4649 95.784L53.1111 91.2094C53.1036 91.1115 53.1154 91.0131 53.1459 90.9198C53.1763 90.8265 53.2249 90.7401 53.2888 90.6656C53.3526 90.5911 53.4305 90.5299 53.5181 90.4854C53.6056 90.441 53.701 90.4143 53.7989 90.4068C53.8967 90.3992 53.9951 90.411 54.0884 90.4415C54.1817 90.472 54.2681 90.5206 54.3426 90.5844C54.4171 90.6483 54.4784 90.7262 54.5228 90.8137C54.5672 90.9012 54.5939 90.9967 54.6015 91.0945L54.9549 95.6687C54.9625 95.7666 54.9507 95.865 54.9203 95.9583C54.8899 96.0516 54.8414 96.138 54.7775 96.2125C54.7137 96.2871 54.6358 96.3483 54.5483 96.3927C54.4608 96.4371 54.3653 96.4638 54.2675 96.4714C54.2477 96.473 54.2283 96.4738 54.2089 96.4738Z" fill="#31241B"/>
<path id="Vector_10" d="M48.4819 95.0364C48.7334 94.9693 48.989 94.9862 49.2312 95.0364C49.4715 95.0916 49.7029 95.1803 49.9185 95.3C50.132 95.4149 50.3338 95.5503 50.521 95.7043C50.7099 95.8594 50.8786 96.0374 51.0232 96.2344C51.034 96.2495 51.0406 96.2671 51.0424 96.2856C51.0441 96.304 51.0409 96.3226 51.0331 96.3394C51.0253 96.3562 51.0131 96.3706 50.9979 96.3812C50.9826 96.3917 50.9648 96.398 50.9464 96.3994C50.7001 96.4176 50.4729 96.4148 50.2521 96.4172H49.6141C49.4119 96.4172 49.2146 96.4261 49.0286 96.414C48.8422 96.4091 48.6575 96.3763 48.4807 96.3169L48.4197 96.2943C48.2884 96.2451 48.1763 96.1554 48.0993 96.0383C48.0223 95.9211 47.9846 95.7826 47.9915 95.6426C47.9985 95.5026 48.0497 95.3685 48.1378 95.2595C48.226 95.1505 48.3465 95.0724 48.4819 95.0364Z" fill="#31241B"/>
<path id="Vector_11" d="M53.6051 100.583H46.6219C46.2399 100.583 45.8643 100.485 45.5313 100.297C45.1983 100.11 44.9189 99.8406 44.7201 99.5144C44.5212 99.1883 44.4094 98.8165 44.3955 98.4347C44.3816 98.0529 44.466 97.674 44.6407 97.3342C45.3798 95.8859 46.6959 95.0117 48.2518 94.9357C48.4497 94.9261 48.6434 94.9954 48.7902 95.1286C48.937 95.2617 49.0249 95.4478 49.0345 95.6457C49.0442 95.8437 48.9748 96.0373 48.8417 96.1842C48.7085 96.331 48.5225 96.4188 48.3245 96.4285C47.0161 96.4924 46.3227 97.3257 45.9717 98.0139C45.9124 98.127 45.8836 98.2537 45.8883 98.3813C45.893 98.509 45.9309 98.6332 45.9984 98.7417C46.063 98.8489 46.1545 98.9375 46.2637 98.9986C46.373 99.0597 46.4963 99.0913 46.6215 99.0902H53.6047C53.8031 99.0902 53.9934 99.169 54.1337 99.3093C54.2739 99.4496 54.3528 99.6399 54.3528 99.8382C54.3528 100.037 54.2739 100.227 54.1337 100.367C53.9934 100.507 53.8031 100.586 53.6047 100.586L53.6051 100.583Z" fill="#31241B"/>
<path id="Vector_12" d="M48.1712 96.4246C47.9982 96.4243 47.8307 96.364 47.6971 96.254C47.5636 96.144 47.4724 95.9911 47.439 95.8213L46.2806 89.9181C46.2424 89.7236 46.2831 89.5219 46.3937 89.3575C46.5042 89.193 46.6756 89.0792 46.8701 89.0411C47.0645 89.0029 47.2662 89.0436 47.4307 89.1542C47.5951 89.2647 47.709 89.4361 47.7471 89.6306L48.9055 95.5339C48.9244 95.6301 48.9241 95.7292 48.9047 95.8254C48.8853 95.9216 48.8471 96.013 48.7924 96.0944C48.7376 96.1759 48.6674 96.2457 48.5856 96.3C48.5039 96.3543 48.4123 96.392 48.316 96.4108C48.2683 96.4202 48.2198 96.4248 48.1712 96.4246Z" fill="#31241B"/>
<g id="Group_2" opacity="0.3">
<path id="Vector_13" opacity="0.3" d="M54.2097 95.7237V95.7262C53.4594 96.2819 52.9488 97.1025 52.7816 98.0212C52.717 98.3713 52.7611 98.7329 52.908 99.0573C53.0549 99.3817 53.2975 99.6533 53.6032 99.8358H46.622C45.6613 99.8358 45.0014 98.9584 45.1664 98.081C45.4697 97.891 45.726 97.7575 45.726 97.7575C47.9462 98.5662 49.6925 97.9221 51.1146 96.2736L51.3834 93.2593C49.6476 92.9132 48.9797 90.7678 48.9797 90.7678L49.3213 90.5843L49.7843 90.3364L50.7729 89.8071C51.7081 91.9076 52.9785 91.9804 53.8539 91.154L54.2097 95.7237Z" fill="#31241B"/>
</g>
<path id="Vector_14" d="M40.6867 99.0947H33.6137C33.1576 99.0947 32.7188 98.9202 32.3873 98.6069C32.0559 98.2937 31.8568 97.8655 31.831 97.4102L31.5479 92.4228L31.3555 89.0433L37.8309 89.0369L37.7714 90.9922L37.6687 94.3272C40.0406 93.6119 41.9429 95.2025 42.2333 97.3597C42.3582 98.2811 41.6175 99.0947 40.6867 99.0947Z" fill="#A7C49C"/>
<g id="Group_3" opacity="0.55">
<path id="Vector_15" opacity="0.55" d="M31.5347 89.0458L38.0101 89.0393V89.0417L32.8435 89.0458L33.0335 92.4256L33.3166 97.4127C33.343 97.8681 33.5425 98.2963 33.8743 98.6094C34.2061 98.9226 34.6451 99.097 35.1013 99.0971H33.7929C33.3368 99.0971 32.898 98.9226 32.5665 98.6094C32.2351 98.2962 32.036 97.868 32.0102 97.4127L31.7271 92.4256L31.5347 89.0458Z" fill="white"/>
</g>
<path id="Vector_16" d="M26.9014 100.091H19.828C19.372 100.09 18.9334 99.9158 18.6019 99.6026C18.2705 99.2894 18.0713 98.8613 18.0453 98.4061L17.7316 92.8784L17.5698 90.0388L24.0452 90.0327L23.9555 92.9597L23.8831 95.323C26.2549 94.6078 28.1573 96.1984 28.4476 98.3555C28.573 99.2782 27.8322 100.091 26.9014 100.091Z" fill="#A7C49C"/>
<g id="Group_4" opacity="0.55">
<path id="Vector_17" opacity="0.55" d="M27.736 99.8504C27.4863 100.009 27.197 100.093 26.9014 100.093H19.828C19.372 100.093 18.9334 99.9182 18.6019 99.6051C18.2705 99.2919 18.0713 98.8638 18.0453 98.4085L17.7316 92.8809L17.5698 90.0413H19.1306L19.2777 92.6395L19.5915 98.1672C19.6173 98.6227 19.8163 99.0511 20.1477 99.3646C20.4792 99.6782 20.918 99.8531 21.3742 99.8536L27.736 99.8504Z" fill="white"/>
</g>
<path id="Vector_18" d="M37.784 94.9613C37.4892 95.1198 37.2794 95.159 37.0792 95.2087C36.8791 95.2585 36.6866 95.286 36.482 95.3434C36.2655 95.4037 36.0534 95.479 35.8472 95.5686C35.6224 95.6559 35.4025 95.7728 35.1485 95.8783H35.1441C35.1319 95.8834 35.1188 95.8861 35.1055 95.8861C35.0923 95.8862 35.0792 95.8836 35.0669 95.8786C35.0547 95.8735 35.0436 95.8661 35.0342 95.8568C35.0248 95.8474 35.0174 95.8363 35.0123 95.8241C35.0036 95.8037 35.002 95.7809 35.0078 95.7594C35.1566 95.209 35.4663 94.7155 35.8974 94.3422C36.1219 94.1442 36.3798 93.9875 36.6591 93.8797C36.9312 93.7778 37.2106 93.7264 37.3902 93.7406L37.5292 93.7515C37.6678 93.7625 37.7991 93.818 37.9035 93.9098C38.0078 94.0016 38.0797 94.1247 38.1082 94.2607C38.1367 94.3967 38.1205 94.5383 38.0618 94.6643C38.0031 94.7903 37.9052 94.894 37.7828 94.9597L37.784 94.9613Z" fill="#31241B"/>
<path id="Vector_19" d="M40.6863 99.8415H33.6129C32.9659 99.8411 32.3436 99.5933 31.8734 99.149C31.4032 98.7047 31.1207 98.0974 31.0838 97.4515L30.6099 89.0846C30.6037 88.9862 30.6169 88.8876 30.649 88.7944C30.681 88.7012 30.7311 88.6153 30.7965 88.5415C30.8619 88.4678 30.9412 88.4077 31.0299 88.3647C31.1186 88.3218 31.215 88.2968 31.3134 88.2912C31.4117 88.2857 31.5103 88.2996 31.6033 88.3323C31.6962 88.3649 31.7818 88.4157 31.8551 88.4816C31.9284 88.5475 31.988 88.6272 32.0303 88.7162C32.0727 88.8052 32.097 88.9017 32.1019 89.0001L32.5758 97.367C32.5909 97.6318 32.7068 97.8808 32.8996 98.0631C33.0924 98.2453 33.3476 98.3469 33.6129 98.3471H40.6863C40.804 98.3469 40.9202 98.3216 41.0273 98.2727C41.1343 98.2239 41.2297 98.1528 41.307 98.064C41.3801 97.9825 41.4346 97.886 41.4668 97.7813C41.499 97.6766 41.5081 97.5661 41.4934 97.4575C41.3721 96.5603 40.9139 95.7844 40.2355 95.3287C39.6019 94.9034 38.8357 94.7905 38.0193 95.0024C37.9243 95.0271 37.8254 95.0328 37.7282 95.0192C37.631 95.0057 37.5374 94.9731 37.4528 94.9234C37.3682 94.8736 37.2942 94.8077 37.2351 94.7294C37.1759 94.6511 37.1328 94.5619 37.1081 94.4669C37.0835 94.3719 37.0778 94.273 37.0913 94.1758C37.1049 94.0786 37.1375 93.985 37.1872 93.9004C37.2369 93.8158 37.3028 93.7418 37.3812 93.6826C37.4595 93.6235 37.5487 93.5804 37.6437 93.5557C38.868 93.2379 40.0842 93.4271 41.0688 94.0878C42.1019 94.7817 42.7961 95.9372 42.9744 97.2578C43.0169 97.5774 42.9905 97.9025 42.8969 98.2111C42.8034 98.5196 42.645 98.8047 42.4322 99.047C42.2147 99.2962 41.9463 99.4961 41.6452 99.6331C41.3441 99.7701 41.0171 99.8412 40.6863 99.8415Z" fill="#31241B"/>
<path id="Vector_20" d="M37.6697 95.0736H37.6458C37.448 95.0675 37.2607 94.9832 37.125 94.8392C36.9892 94.6952 36.9161 94.5032 36.9217 94.3054L37.0834 89.0159C37.0917 88.8194 37.1772 88.6341 37.3213 88.5002C37.4653 88.3663 37.6564 88.2946 37.853 88.3006C38.0496 88.3067 38.2359 88.3901 38.3714 88.5326C38.507 88.6751 38.5808 88.8654 38.577 89.062L38.4153 94.3515C38.4088 94.545 38.3274 94.7285 38.1884 94.8632C38.0493 94.9979 37.8633 95.0733 37.6697 95.0736Z" fill="#31241B"/>
<path id="Vector_21" d="M79.3252 25.2053C81.8871 25.8995 81.8871 28.3546 78.8983 29.1018C82.3654 30.5979 82.0407 33.0538 78.3112 34.2256C81.3437 35.5473 81.727 38.816 78.204 39.5628C80.7513 41.3709 80.9264 44.2599 77.777 44.9537C77.777 44.9537 82.6343 47.4089 76.8697 50.1842C78.9557 51.5783 79.2719 53.2927 77.0315 55.4684C79.2371 57.2071 79.3653 58.8713 76.7112 60.432C79.5274 61.3822 79.487 64.3286 76.6045 65.3427C78.7438 67.089 78.3661 68.7949 75.9106 70.4664C77.8409 72.5285 77.3626 74.0363 75.4303 75.2169C77.1321 77.8342 76.4359 79.4483 73.8825 80.2872C76.2483 83.6137 73.4151 86.5577 71.2673 85.0378C71.801 88.1697 69.2775 89.314 66.5701 87.1363C65.7865 90.0378 61.8241 90.4583 60.3082 88.7738C58.6909 91.1521 56.8346 91.6219 54.6847 89.7624C54.0552 91.7715 51.9413 92.8475 50.6285 89.4507C49.3581 91.4428 46.8152 91.0199 46.892 88.9873C45.7194 90.079 43.3909 90.0487 43.0508 88.6307C42.9356 88.1592 43.0424 87.5333 43.4863 86.7457C43.0084 73.4063 43.8579 59.3517 45.7773 44.7188C47.3829 32.4724 49.7397 19.8183 52.6914 6.84448C52.7403 6.76725 52.7896 6.69042 52.843 6.61603C53.5773 5.58255 54.7215 4.9057 55.9641 5.11514C56.6344 5.22795 57.3327 5.60034 58.0116 6.31035C59.0426 4.37197 62.6723 4.03233 63.4899 6.73773C65.3345 5.04883 69.6111 4.78197 70.0381 9.1233C71.6882 6.1939 75.3923 9.4872 73.7911 12.1121C76.0202 10.9121 77.8134 12.3171 76.4791 14.4415C80.0777 13.4978 82.1176 17.2892 80.3029 19.8515C83.2214 21.576 83.168 24.0311 79.3252 25.2053Z" fill="#FFE1AE"/>
<path id="Vector_22" d="M76.9238 13.2802C76.6754 13.0814 76.4129 12.901 76.1382 12.7404C76.2876 12.5301 76.4143 12.3046 76.5162 12.0676C76.826 12.3503 76.9836 12.7712 76.9238 13.2802Z" fill="white"/>
<path id="Vector_23" d="M77.0073 13.4859L76.8564 13.3646C76.612 13.1691 76.3538 12.9915 76.0838 12.8333L75.9839 12.7743L76.0506 12.6797C76.1957 12.4757 76.3188 12.257 76.4177 12.0271L76.4768 11.8888L76.588 11.9899C76.9345 12.3053 77.0914 12.7682 77.0295 13.2939L77.0073 13.4859ZM76.29 12.708C76.482 12.8256 76.6628 12.9477 76.8294 13.0719C76.8294 12.7545 76.7319 12.4731 76.5463 12.2551C76.4715 12.4119 76.3858 12.5632 76.29 12.708Z" fill="#31241B"/>
<g id="Group_5" opacity="0.3">
<path id="Vector_24" opacity="0.3" d="M79.3255 25.2052C81.8874 25.8994 81.8874 28.3546 78.8986 29.1018C82.3657 30.5978 82.041 33.0537 78.3115 34.2255C81.344 35.5472 81.7273 38.8159 78.2043 39.5627C80.7516 41.3709 80.9267 44.2598 77.7773 44.9537C77.7773 44.9537 82.6346 47.4088 76.87 50.1841C78.956 51.5783 79.2722 53.2926 77.0317 55.4684C79.2374 57.207 79.3656 58.8712 76.7115 60.432C79.5277 61.3821 79.4873 64.3285 76.6048 65.3426C78.7441 67.0889 78.3664 68.7948 75.9109 70.4663C77.8412 72.5284 77.3629 74.0362 75.4306 75.2168C77.1324 77.8341 76.4362 79.4482 73.8828 80.2872C76.2485 83.6136 73.4154 86.5576 71.2676 85.0377C71.8013 88.1697 69.2778 89.3139 66.5704 87.1362C65.7868 90.0377 61.8243 90.4582 60.3085 88.7737C58.6912 91.152 56.8349 91.6219 54.685 89.7623C54.5079 90.326 54.2156 90.8136 53.8569 91.152C52.9816 91.9785 51.7111 91.9057 50.7759 89.8052C50.7246 89.692 50.6757 89.5743 50.6288 89.4506C50.4114 89.7995 50.1251 90.1002 49.7873 90.3345L49.3244 90.5823C48.1243 91.0712 46.8369 90.4412 46.8923 88.9872C45.7197 90.0789 43.3912 90.0486 43.0511 88.6306C43.0447 88.6031 43.0386 88.5732 43.0321 88.5433C42.9788 88.2445 43.0107 87.8878 43.1534 87.4738C43.1749 87.4095 43.2003 87.3456 43.2258 87.2793C43.3018 87.0963 43.3887 86.9181 43.4862 86.7456C47.688 84.4005 50.0768 80.5221 49.1695 74.2561C45.8325 55.1053 47.3569 36.6078 53.491 18.7233C54.6094 15.4632 54.6608 11.9042 53.493 8.65905C53.2705 8.03556 53.003 7.42908 52.6925 6.84441C52.7414 6.76718 52.7907 6.69035 52.8441 6.61596C53.5784 5.58248 54.7226 4.90563 55.9651 5.11507C56.7738 6.13763 57.4127 7.32678 57.891 8.65905C59.0587 11.9042 59.0078 15.4632 57.889 18.7233C56.0949 23.9366 54.6863 29.2747 53.6746 34.6945C53.6743 34.6996 53.6734 34.7046 53.6722 34.7095C53.6317 35.13 51.9153 47.0708 56.5761 48.3626L50.9352 47.5875C50.8285 47.9247 50.7472 48.1277 50.6769 48.2409L52.037 48.0315C51.5184 56.6357 52.0287 65.3778 53.5679 74.2578C54.14 78.2073 53.4013 81.207 51.7273 83.4721C53.3734 84.2622 54.8358 83.5873 56.1426 81.666C57.6585 83.3504 61.621 82.9299 62.4046 80.0284C65.1116 82.2061 67.635 81.0619 67.1013 77.9299C69.2491 79.4498 72.0823 76.5058 69.7165 73.1794C72.2699 72.3404 72.9662 70.7263 71.2643 68.1091C73.1966 66.9284 73.675 65.419 71.7451 63.3585C74.2002 61.687 74.5778 59.9811 72.4389 58.2348C75.321 57.2203 75.3614 54.2744 72.5457 53.3242C75.1993 51.7635 75.0711 50.1004 72.8659 48.3606C75.1075 46.1849 74.7913 44.4705 72.7042 43.0763C78.4683 40.301 73.6115 37.8455 73.6115 37.8455C76.7604 37.1516 76.5854 34.2631 74.0385 32.4549C77.561 31.7077 77.1789 28.4391 74.1452 27.1177C77.8748 25.9451 78.1995 23.4884 74.7323 21.994C77.7211 21.2468 77.7211 18.7913 75.1593 18.0974C77.9326 17.2483 78.7332 15.7341 77.8643 14.308C80.5628 14.515 81.8672 17.6429 80.3024 19.8526C83.2217 21.5759 83.1683 24.031 79.3255 25.2052Z" fill="#31241B"/>
</g>
<g id="Group_6" opacity="0.3">
<path id="Vector_25" opacity="0.3" d="M49.7852 90.3348C49.6405 90.4342 49.4852 90.5173 49.3223 90.5827L49.7852 90.3348Z" fill="#31241B"/>
<path id="Vector_26" opacity="0.3" d="M49.3613 90.6817L49.272 90.4885L49.7353 90.2406L49.8453 90.4234C49.6941 90.5272 49.5317 90.6138 49.3613 90.6817Z" fill="#31241B"/>
</g>
<g id="Group_7" opacity="0.3">
<path id="Vector_27" opacity="0.3" d="M53.3657 36.4226C53.3592 36.463 53.3531 36.4974 53.3467 36.5334C53.3531 36.4824 53.3616 36.4461 53.3657 36.4226Z" fill="#31241B"/>
<path id="Vector_28" opacity="0.3" d="M53.4514 36.5524L53.2407 36.52C53.246 36.4796 53.2525 36.4452 53.2573 36.4206L53.2601 36.4048L53.4708 36.4404L53.4514 36.5524Z" fill="#31241B"/>
</g>
<path id="Vector_29" d="M77.8651 14.3064C77.399 14.2711 76.9302 14.3167 76.4795 14.441C76.7443 14.0225 76.8838 13.6295 76.9243 13.2814C77.3355 13.6081 77.6517 13.9542 77.8651 14.3064Z" fill="white"/>
<path id="Vector_30" d="M76.2437 14.6145L76.3892 14.3848C76.6346 13.9971 76.7786 13.6222 76.8174 13.2713L76.8384 13.0792L76.9896 13.2005C77.4089 13.5329 77.7344 13.8879 77.956 14.2518L78.0648 14.4313L77.8557 14.4135C77.4018 14.3795 76.9453 14.4239 76.5065 14.5449L76.2437 14.6145ZM77.0002 13.4823C76.9401 13.7616 76.8384 14.0302 76.6985 14.2793C77.0143 14.212 77.3368 14.1814 77.6596 14.1883C77.4697 13.9267 77.2482 13.6896 77.0002 13.4823Z" fill="#31241B"/>
<path id="Vector_31" d="M53.4898 18.7237C47.3557 36.6102 45.8314 55.1056 49.1687 74.2565C51.4577 90.0659 32.7637 90.6805 16.9563 89.7732L16.2903 89.7348C10.5965 89.2718 6.72339 87.6702 5.40203 81.9425C1.52043 61.2204 0.598139 39.6698 6.7897 19.2808C10.0029 8.69539 19.1554 5.67016 29.6572 2.86489C29.6608 2.86403 29.6644 2.86336 29.6681 2.86287C31.0238 2.49897 32.405 2.14114 33.7972 1.77117C44.7494 -1.00862 51.1115 2.03358 53.4923 8.65657C54.6596 11.9054 54.6082 15.4635 53.4898 18.7237Z" fill="#81AA71"/>
<g id="Group_8" opacity="0.3">
<path id="Vector_32" opacity="0.3" d="M17.5708 90.04L24.0462 90.0339L23.9564 92.9609C21.8943 92.9973 19.8039 92.9609 17.7297 92.88L17.5708 90.04Z" fill="#31241B"/>
</g>
<g id="Group_9" opacity="0.3">
<path id="Vector_33" opacity="0.3" d="M37.8323 89.037L37.7729 90.9923C35.8895 91.6522 33.7866 92.1136 31.5494 92.4229L31.3569 89.0435L37.8323 89.037Z" fill="#31241B"/>
</g>
<g id="Group_10" opacity="0.55">
<path id="Vector_34" opacity="0.55" d="M48.8275 2.65992C45.5565 1.37697 41.1905 1.29165 35.6463 2.69833C34.2541 3.06789 32.8729 3.42613 31.5172 3.79003C31.5135 3.79052 31.5099 3.7912 31.5063 3.79206C21.0045 6.5953 11.852 9.62053 8.63879 20.2056C2.44723 40.5945 3.36749 62.1451 7.25112 82.8672C7.90209 85.6939 9.17655 87.517 10.9851 88.6896C8.18391 87.6331 6.25443 85.6539 5.40008 81.9413C1.51847 61.2192 0.596186 39.6686 6.78775 19.2797C10.001 8.6942 19.1535 5.66897 29.6552 2.86371C29.6588 2.86285 29.6625 2.86217 29.6662 2.86168C31.0219 2.49778 32.4031 2.13995 33.7952 1.76998C40.4603 0.0831028 45.4243 0.54647 48.8275 2.65992Z" fill="white"/>
</g>
<g id="Group_11" opacity="0.75">
<path id="Vector_35" opacity="0.75" d="M54.348 11.8617C49.3096 17.0707 42.7671 17.0727 38.9429 15.7765C38.4314 15.6034 37.9677 15.32 37.5423 14.9872C30.4099 9.41224 12.4421 15.3483 5.93231 22.283L4.96191 26.2163C14.0093 15.2096 31.5161 11.5253 36.69 15.8331C38.2859 17.1621 40.2708 17.9501 42.3337 18.1932C47.0975 18.7544 52.8751 17.953 54.3489 14.9039" fill="white"/>
<path id="Vector_36" opacity="0.75" d="M49.8939 31.6154C45.0766 36.1843 34.5801 35.9692 32.1606 34.4053C22.5302 27.6743 9.24499 37.6804 2.62767 42.2999L2.39355 46.7164C6.28163 39.5763 23.4132 30.0599 30.1126 34.8217C32.1699 36.2834 34.5045 37.3152 37.0057 37.6521C41.7854 38.295 47.33 37.6419 49.1689 35.2742" fill="white"/>
<path id="Vector_37" opacity="0.75" d="M47.5867 60.2637C40.88 61.3219 37.461 58.9169 34.0646 55.9495C31.5294 53.7345 28.3323 54.6152 28.3323 54.6152L9.88582 60.2726C4.65536 61.7686 2.5415 59.1093 2.5415 59.1093L3.01821 65.3466C3.01821 65.3466 3.83699 63.2263 9.17419 62.0873L26.5169 56.3894C30.0346 55.2342 33.9392 56.2956 36.2908 59.1546C36.3616 59.2407 36.4319 59.3285 36.5019 59.4187C39.8643 63.7422 47.5867 62.87 47.5867 62.87" fill="white"/>
<path id="Vector_38" opacity="0.75" d="M48.9182 72.7576C46.9042 76.2211 41.0034 76.0565 35.4353 73.825C34.4608 73.434 33.541 72.9237 32.6426 72.3803C27.2682 69.1279 20.2889 74.0045 13.6753 77.0302C9.56184 79.3106 6.41585 78.6669 4.2373 75.0991C4.68571 78.7805 5.35124 81.9772 6.30345 84.5326C6.48499 81.0318 9.88544 80.4815 15.1697 77.7062C21.9241 74.4093 28.8766 70.2446 33.9769 74.1614C35.0613 74.9943 36.2233 75.7246 37.4845 76.2534C41.6612 78.0058 45.6629 78.4085 49.3565 76.4419" fill="white"/>
</g>
<path id="Vector_39" d="M25.1621 90.7869C22.2104 90.7869 19.1961 90.6587 16.2453 90.4808C11.1349 90.0656 6.20891 88.7652 4.67406 82.1111C4.67163 82.1011 4.66961 82.091 4.66799 82.0808C0.114389 57.7884 0.574922 37.1763 6.07507 19.0621C9.62553 7.36151 20.3113 4.55099 31.6213 1.5755C32.2787 1.40244 32.9391 1.2279 33.6025 1.05188C39.0521 -0.330937 43.5981 -0.349942 47.1222 0.992446C50.5097 2.28308 52.8888 4.77782 54.1936 8.40752C55.3884 11.732 55.3884 15.4834 54.1936 18.9671C48.076 36.8067 46.6326 55.3656 49.9024 74.1279L49.9061 74.1493C50.5457 78.5679 49.6275 82.1592 47.1768 84.8238C42.8181 89.5666 34.2753 90.7869 25.1621 90.7869ZM6.13411 81.7892C7.38754 87.1956 10.9724 88.5529 16.3508 88.99C27.3564 89.6531 40.6962 89.6648 46.0799 83.8121C48.2394 81.4637 49.0076 78.3779 48.4311 74.375C45.1196 55.3648 46.5841 36.5605 52.7829 18.4831C53.8681 15.3184 53.8706 11.92 52.7898 8.91375C50.3791 2.20666 43.875 -0.0115142 33.9814 2.49899C33.3239 2.67407 32.6612 2.84834 32.0026 3.02139C20.6335 6.01346 10.8155 8.59554 7.50521 19.4988C2.07743 37.3712 1.62862 57.7455 6.13411 81.7892Z" fill="#31241B"/>
<path id="Vector_40" d="M29.6573 2.867C29.6609 2.86615 29.6645 2.86548 29.6681 2.86499C29.6642 2.86734 29.6598 2.86884 29.6553 2.8694L29.6573 2.867Z" fill="#31241B"/>
<path id="Vector_41" d="M29.6548 2.97611H29.4058L29.6091 2.76263L29.6678 2.75818H30.1016L29.6941 2.97167L29.6548 2.97611Z" fill="#31241B"/>
<g id="Group_12" opacity="0.3">
<path id="Vector_42" opacity="0.3" d="M47.0341 74.2565C43.6971 55.1056 45.2215 36.6082 51.3552 18.7237C52.474 15.4635 52.5254 11.9046 51.3577 8.65941C49.6716 3.96914 45.9865 1.07856 40.0909 0.774902C38.1905 0.865877 36.0965 1.18975 33.7974 1.7732C33.164 1.94141 32.5334 2.10759 31.9056 2.27175C32.2695 2.27175 32.6172 2.28347 32.9439 2.31622H32.9297C39.9825 1.73318 41.3164 6.41576 38.0458 15.3418C31.6901 35.6398 29.8176 56.5256 31.7693 77.9202C32.7801 87.4697 25.9065 89.6005 16.9565 89.7732C19.2807 89.9066 21.6666 90.0065 24.0393 90.0308C37.0107 89.8892 48.8864 87.0427 47.0341 74.2565Z" fill="#31241B"/>
</g>
<path id="Vector_43" d="M52.7526 92.3908C52.1809 92.3908 51.2477 92.1434 50.4394 90.784C49.5669 91.4948 48.5391 91.625 47.7555 91.3796C47.4549 91.2902 47.1768 91.138 46.9394 90.9331C46.7021 90.7282 46.511 90.4752 46.3787 90.1909C45.2543 90.6704 43.9026 90.6134 43.0575 89.9483C42.5929 89.5844 41.6424 88.504 42.8343 86.3788C42.8816 86.2917 42.9456 86.2149 43.0228 86.1528C43.1 86.0907 43.1888 86.0446 43.2839 86.0171C43.3791 85.9896 43.4788 85.9814 43.5772 85.9928C43.6756 86.0042 43.7708 86.035 43.8571 86.0836C43.9435 86.1321 44.0194 86.1973 44.0803 86.2754C44.1412 86.3535 44.186 86.4429 44.2121 86.5385C44.2381 86.6341 44.2449 86.7339 44.232 86.8321C44.2192 86.9303 44.1869 87.025 44.1371 87.1106C43.8775 87.5732 43.512 88.4045 43.9814 88.7733C44.4804 89.1655 45.6861 89.0886 46.3824 88.4397C46.4906 88.3387 46.6264 88.2722 46.7726 88.2485C46.9187 88.2249 47.0685 88.2452 47.2031 88.3068C47.3377 88.3684 47.4509 88.4687 47.5285 88.5948C47.606 88.7208 47.6443 88.8671 47.6386 89.0151C47.62 89.5003 47.8198 89.833 48.2015 89.9523C48.6903 90.1047 49.4618 89.8872 49.9979 89.047C50.0723 88.9305 50.1776 88.8369 50.3019 88.7767C50.4263 88.7164 50.565 88.6918 50.7025 88.7056C50.84 88.7193 50.9711 88.771 51.081 88.8547C51.191 88.9385 51.2755 89.0511 51.3253 89.18C51.7458 90.2693 52.2852 90.9122 52.768 90.8948C53.2229 90.8802 53.7291 90.3089 53.9717 89.5366C54.0088 89.4184 54.0748 89.3113 54.1637 89.2249C54.2525 89.1385 54.3615 89.0755 54.4807 89.0417C54.6 89.0079 54.7257 89.0043 54.8467 89.0312C54.9677 89.0581 55.0801 89.1146 55.1738 89.1958C56.0007 89.9115 56.7644 90.2285 57.4425 90.1403C58.1934 90.0421 58.949 89.4408 59.6886 88.3528C59.7522 88.2592 59.8363 88.1813 59.9345 88.125C60.0326 88.0686 60.1423 88.0353 60.2552 88.0275C60.3681 88.0197 60.4813 88.0377 60.5863 88.08C60.6913 88.1223 60.7852 88.188 60.8611 88.2719C61.4353 88.9099 62.5998 89.1723 63.6915 88.9115C64.2131 88.787 65.4665 88.3455 65.8458 86.94C65.8782 86.8201 65.9399 86.7102 66.0255 86.6202C66.111 86.5302 66.2177 86.4629 66.3357 86.4245C66.4538 86.386 66.5796 86.3776 66.7018 86.4C66.8239 86.4224 66.9386 86.4749 67.0353 86.5527C68.1379 87.4394 69.2474 87.7406 69.9336 87.3379C70.4912 87.0104 70.7075 86.2171 70.5275 85.1609C70.5027 85.0153 70.5217 84.8656 70.5819 84.7307C70.6421 84.5959 70.741 84.4819 70.866 84.4032C70.991 84.3245 71.1366 84.2846 71.2842 84.2885C71.4319 84.2925 71.5751 84.3402 71.6957 84.4255C72.3936 84.9196 73.068 84.6681 73.4662 84.2702C74.1435 83.5913 74.3457 82.2299 73.2706 80.7181C73.2028 80.6227 73.1583 80.5126 73.1409 80.3969C73.1234 80.2811 73.1334 80.1629 73.1699 80.0517C73.2065 79.9405 73.2687 79.8394 73.3515 79.7566C73.4343 79.6738 73.5354 79.6117 73.6466 79.5751C74.6979 79.2298 75.3339 78.7664 75.5344 78.1975C75.7536 77.5748 75.5069 76.708 74.8009 75.6219C74.7465 75.5382 74.7094 75.4444 74.6918 75.3461C74.6742 75.2478 74.6765 75.147 74.6986 75.0496C74.7206 74.9522 74.762 74.8602 74.8202 74.779C74.8784 74.6979 74.9523 74.6292 75.0375 74.5771C75.8575 74.0761 76.3091 73.5574 76.3799 73.0358C76.4563 72.4697 76.1142 71.7771 75.3626 70.9737C75.2887 70.895 75.2327 70.8012 75.1986 70.6988C75.1645 70.5963 75.1529 70.4877 75.1648 70.3804C75.1767 70.2731 75.2117 70.1697 75.2674 70.0772C75.3231 69.9847 75.3982 69.9054 75.4875 69.8448C76.6144 69.0766 77.2262 68.3302 77.2532 67.682C77.2771 67.1394 76.8986 66.5458 76.1292 65.9175C76.0264 65.8336 75.9478 65.7238 75.9014 65.5995C75.8551 65.4751 75.8427 65.3406 75.8656 65.2099C75.8884 65.0792 75.9457 64.9569 76.0314 64.8557C76.1172 64.7544 76.2284 64.6778 76.3536 64.6337C77.4016 64.265 78.0518 63.5675 78.0449 62.8142C78.0405 62.0957 77.4514 61.4686 76.468 61.1371C76.3323 61.0913 76.2126 61.0074 76.1232 60.8955C76.0338 60.7837 75.9784 60.6484 75.9636 60.506C75.9489 60.3635 75.9754 60.2198 76.04 60.092C76.1047 59.9641 76.2047 59.8576 76.3281 59.785C77.0377 59.3677 77.8937 58.7244 77.941 58.0298C77.9883 57.3351 77.2189 56.5681 76.5663 56.0522C76.4827 55.9862 76.4142 55.9032 76.3654 55.8086C76.3165 55.714 76.2884 55.6101 76.2829 55.5038C76.2775 55.3975 76.2947 55.2913 76.3336 55.1922C76.3725 55.0931 76.4321 55.0035 76.5084 54.9293C77.4425 54.0224 77.8832 53.2218 77.8242 52.5498C77.7704 51.9623 77.3094 51.3744 76.4535 50.8027C76.3442 50.7293 76.2562 50.6285 76.1984 50.5102C76.1407 50.392 76.1151 50.2606 76.1244 50.1293C76.1337 49.998 76.1774 49.8715 76.2512 49.7626C76.3251 49.6536 76.4264 49.5661 76.5448 49.5088C78.0813 48.7685 78.9337 47.9962 78.9421 47.3347C78.9514 46.5665 77.8306 45.8189 77.4376 45.6175C77.3005 45.5475 77.1883 45.437 77.1164 45.3009C77.0445 45.1648 77.0164 45.0098 77.0359 44.8571C77.0553 44.7044 77.1214 44.5614 77.2252 44.4477C77.3289 44.334 77.4652 44.2551 77.6155 44.2218C78.6045 44.0038 79.2211 43.5299 79.3513 42.8875C79.5236 42.0408 78.9029 40.9737 77.7704 40.1695C77.6521 40.0854 77.5609 39.9686 77.5079 39.8335C77.4549 39.6984 77.4423 39.5508 77.4718 39.4087C77.5012 39.2666 77.5714 39.1361 77.6738 39.0332C77.7761 38.9303 77.9062 38.8594 78.0482 38.8292C79.1916 38.5866 79.8899 38.0314 79.9631 37.3056C80.0375 36.5673 79.4629 35.5395 78.0118 34.9079C77.8721 34.8472 77.7543 34.7453 77.6741 34.6157C77.594 34.4862 77.5554 34.3353 77.5634 34.1831C77.5715 34.031 77.6258 33.885 77.7192 33.7647C77.8125 33.6443 77.9404 33.5554 78.0858 33.5097C79.8717 32.9489 80.5372 32.1754 80.5647 31.6405C80.5967 31.0223 79.8624 30.3288 78.6013 29.785C78.4577 29.7232 78.3372 29.6179 78.2566 29.4839C78.1761 29.35 78.1395 29.1942 78.1522 29.0384C78.1648 28.8826 78.226 28.7347 78.3271 28.6155C78.4282 28.4963 78.5641 28.4118 78.7157 28.3739C79.9065 28.0763 80.4438 27.492 80.4479 27.0449C80.4527 26.5823 79.9348 26.142 79.1289 25.924C78.9726 25.8815 78.8342 25.7893 78.7348 25.6614C78.6353 25.5334 78.5802 25.3766 78.5776 25.2146C78.575 25.0526 78.6251 24.8941 78.7204 24.763C78.8157 24.6319 78.951 24.5353 79.1059 24.4878C80.61 24.0281 81.5226 23.348 81.6091 22.6218C81.69 21.9587 81.0576 21.1622 79.9222 20.4906C79.8333 20.438 79.7563 20.3675 79.696 20.2837C79.6357 20.1998 79.5934 20.1044 79.5718 20.0034C79.5503 19.9023 79.5498 19.798 79.5706 19.6968C79.5914 19.5956 79.6329 19.4998 79.6926 19.4155C80.3901 18.4309 80.4062 17.1164 79.733 16.144C79.0675 15.1825 77.9499 14.8247 76.6678 15.1615C76.5229 15.1995 76.3699 15.193 76.2287 15.143C76.0875 15.093 75.9646 15.0017 75.8759 14.881C75.7873 14.7602 75.737 14.6156 75.7315 14.4659C75.726 14.3162 75.7657 14.1683 75.8453 14.0415C76.2169 13.4491 76.2901 12.9146 76.041 12.6465C75.7714 12.3578 75.0626 12.2721 74.1455 12.7678C74.001 12.8454 73.8349 12.8732 73.673 12.8471C73.511 12.821 73.3622 12.7423 73.2494 12.6232C73.1365 12.5042 73.066 12.3513 73.0487 12.1882C73.0313 12.0251 73.0681 11.8608 73.1533 11.7206C73.6838 10.8509 73.336 10.0345 73.1618 9.724C72.8254 9.12397 72.252 8.72044 71.7349 8.72004C71.3285 8.72004 70.9768 8.978 70.6897 9.48827C70.6116 9.6266 70.4915 9.73645 70.3467 9.8019C70.202 9.86736 70.0402 9.885 69.8847 9.85229C69.7293 9.81958 69.5883 9.73821 69.4822 9.61998C69.3761 9.50174 69.3105 9.35279 69.2947 9.19473C69.1601 7.82323 68.5754 6.90216 67.6038 6.53057C66.3767 6.06074 64.8054 6.54675 63.9959 7.2883C63.9028 7.37375 63.7895 7.43416 63.6666 7.46387C63.5437 7.49357 63.4154 7.49161 63.2935 7.45816C63.1716 7.4247 63.0601 7.36085 62.9696 7.27259C62.8792 7.18432 62.8126 7.07454 62.7761 6.95351C62.4393 5.83957 61.5485 5.5905 61.0475 5.54157C60.0699 5.44615 59.0663 5.91639 58.6713 6.66158C58.6156 6.76599 58.536 6.85571 58.4389 6.92334C58.3418 6.99097 58.23 7.03459 58.1128 7.05062C57.9956 7.06665 57.8762 7.05462 57.7645 7.01552C57.6528 6.97643 57.552 6.91138 57.4704 6.82574C56.7709 6.09389 56.0476 5.75951 55.3153 5.83552C54.5705 5.91194 53.8274 6.43636 53.3272 7.23897C53.2222 7.40738 53.0545 7.52717 52.8612 7.57199C52.6678 7.6168 52.4646 7.58297 52.2961 7.47793C52.1277 7.37289 52.0079 7.20525 51.9631 7.01189C51.9183 6.81853 51.9521 6.61529 52.0572 6.44688C52.8109 5.23711 53.9426 4.47211 55.1617 4.34717C55.8575 4.27601 56.851 4.38761 57.9063 5.20679C58.7109 4.38761 59.9502 3.93152 61.1931 4.05282C62.3066 4.16199 63.2253 4.72239 63.7873 5.60142C64.987 4.90151 66.6544 4.56592 68.1379 5.1336C69.2393 5.55492 70.0363 6.40523 70.4629 7.58629C70.8445 7.34878 71.2854 7.22364 71.7349 7.22522H71.7377C72.7942 7.22522 73.8653 7.91986 74.467 8.99256C74.8055 9.58717 74.9639 10.2673 74.9231 10.9503C75.8061 10.829 76.6031 11.0595 77.134 11.6268C77.6103 12.1363 77.7809 12.8091 77.6422 13.5437C78.9963 13.5595 80.1847 14.1705 80.963 15.2945C81.8457 16.5686 81.9573 18.2223 81.3047 19.6104C82.5985 20.5472 83.2305 21.6624 83.0946 22.8002C83.0211 23.4188 82.6442 24.4466 81.0972 25.2848C81.6451 25.7631 81.9508 26.3797 81.9439 27.0606C81.9374 27.7597 81.5594 28.585 80.6052 29.1951C81.9019 30.1332 82.0891 31.1306 82.0608 31.7181C82.0078 32.7484 81.2626 33.6691 79.9671 34.352C81.0079 35.1958 81.5683 36.3203 81.4535 37.4568C81.3503 38.477 80.7042 39.3168 79.6623 39.8457C80.61 40.8731 81.0443 42.0808 80.8199 43.1863C80.6529 44.0075 80.1349 44.6847 79.3445 45.1485C79.9105 45.6741 80.4491 46.4181 80.4402 47.3477C80.4297 48.42 79.6829 49.4122 78.2164 50.3054C78.8778 50.9523 79.2462 51.6587 79.3153 52.416C79.4027 53.3767 78.9983 54.3819 78.1116 55.4121C79.0647 56.3182 79.4993 57.2134 79.4366 58.1329C79.3821 58.9286 78.9624 59.6544 78.1593 60.3308C79.0287 60.9507 79.5369 61.8317 79.543 62.8065C79.5499 63.8954 78.9365 64.8836 77.8905 65.5479C78.4941 66.2563 78.7824 66.9938 78.7497 67.7491C78.7064 68.7422 78.131 69.677 76.9957 70.5924C77.6859 71.5106 77.9778 72.3978 77.8638 73.2372C77.7542 74.0458 77.273 74.7841 76.4308 75.4347C77.1004 76.6712 77.2743 77.7657 76.9468 78.6948C76.6589 79.5124 75.999 80.1691 74.9797 80.6538C75.959 82.5752 75.5126 84.3389 74.5276 85.3267C73.8403 86.0141 72.9459 86.3 72.077 86.1617C72.0022 87.2704 71.5246 88.1393 70.6937 88.6281C69.6465 89.2435 68.2742 89.1064 66.9035 88.2812C66.3221 89.3114 65.3068 90.0643 64.0424 90.3667C62.7336 90.6797 61.4054 90.4755 60.4354 89.8508C59.575 90.8968 58.6365 91.492 57.6374 91.6226C56.7717 91.7358 55.8822 91.5013 54.985 90.9215C54.4593 91.811 53.6689 92.3617 52.8173 92.3892L52.7526 92.3908Z" fill="#31241B"/>
<path id="Vector_44" d="M57.6842 48.5122L55.711 53.5664L42.4048 50.7178L37.6264 49.6957C35.6771 51.5152 33.1383 50.9224 31.4971 49.9383C31.1171 49.7198 30.7524 49.4758 30.4054 49.208C26.7126 46.3154 30.1296 43.5037 33.5361 45.2456C33.8514 45.408 34.1513 45.5987 34.4322 45.8153C32.8148 41.9385 38.0809 41.776 38.3918 45.8695L42.7012 46.461L57.6842 48.5122Z" fill="#FFE1AE"/>
<path id="Vector_45" d="M57.6509 48.7584C55.9798 49.001 54.3665 48.8235 52.754 48.642C51.1419 48.4536 49.5452 48.1568 47.938 47.9332L38.2926 46.6094C38.1265 46.5867 37.9728 46.5087 37.8563 46.3881C37.7399 46.2674 37.6674 46.1111 37.6505 45.9443V45.9257C37.6262 45.6402 37.5703 45.3583 37.4839 45.0851C37.3964 44.8298 37.2704 44.5895 37.1103 44.3722C36.8006 43.9525 36.334 43.6671 35.8743 43.6121C35.6706 43.5814 35.4623 43.6108 35.2751 43.6966C35.1133 43.773 35.0183 43.8923 34.9459 44.0561C34.8735 44.2198 34.8582 44.4571 34.8917 44.7147C34.9379 44.994 35.0161 45.2671 35.1246 45.5286L35.1271 45.5343C35.1868 45.6862 35.1953 45.8535 35.1513 46.0107C35.1073 46.1679 35.0132 46.3065 34.8833 46.4054C34.7534 46.5043 34.5948 46.5581 34.4315 46.5586C34.2683 46.5592 34.1093 46.5065 33.9788 46.4085C33.456 46.0159 32.8745 45.7065 32.264 45.5638C31.6575 45.4102 31.0207 45.4239 30.491 45.6107C30.2456 45.6936 30.0232 45.8329 29.8416 46.0175C29.6917 46.1715 29.5963 46.3703 29.5699 46.5835C29.5169 46.9956 29.7672 47.5426 30.2039 48.0036C30.6313 48.4742 31.1836 48.8822 31.7901 49.2408C32.0761 49.4183 32.3758 49.5724 32.6865 49.7018C32.9902 49.8304 33.305 49.9313 33.627 50.003C34.2449 50.1522 34.8886 50.1599 35.51 50.0256C36.1112 49.8736 36.6643 49.5722 37.118 49.1494L37.1204 49.147C37.2087 49.0662 37.3149 49.0076 37.4302 48.976C37.5456 48.9443 37.6668 48.9406 37.7839 48.9651L46.824 50.9002L49.0847 51.3854C49.8375 51.5492 50.592 51.7065 51.3522 51.8375C52.1134 51.9621 52.8664 52.1325 53.6071 52.3477C53.981 52.4556 54.3475 52.5874 54.7045 52.7423C55.0764 52.8989 55.4309 53.0939 55.7622 53.3242C55.8046 53.3552 55.8371 53.3978 55.8558 53.4468C55.8745 53.4959 55.8785 53.5493 55.8675 53.6006C55.8565 53.652 55.8308 53.699 55.7936 53.736C55.7564 53.7731 55.7093 53.7986 55.6579 53.8094C55.2614 53.8834 54.8583 53.9161 54.455 53.9068C54.0658 53.9023 53.6772 53.8726 53.2918 53.8179C52.5285 53.7112 51.7723 53.5583 51.0275 53.3602C50.2807 53.1689 49.5278 53.0036 48.7741 52.8446L46.5135 52.3594L37.471 50.4239L38.1369 50.2399C37.4934 50.8396 36.7077 51.2655 35.8541 51.4776C35.0119 51.6642 34.1384 51.6577 33.2991 51.4586C32.4819 51.2783 31.7052 50.939 31.0182 50.5181C30.3434 50.1162 29.6734 49.6379 29.0948 49.0031C28.7856 48.6747 28.5315 48.2986 28.3423 47.8891C28.1458 47.4605 28.0221 46.9442 28.0856 46.4081C28.1501 45.8751 28.3853 45.3772 28.756 44.9888C29.0965 44.6353 29.5153 44.3668 29.9787 44.2048C30.4074 44.0523 30.858 43.9704 31.313 43.9622C31.7518 43.9509 32.1902 43.9998 32.6157 44.1074C33.4604 44.3096 34.2242 44.7183 34.8905 45.2205L33.7447 46.1C33.5849 45.7166 33.4722 45.3153 33.4091 44.9047C33.3549 44.4729 33.3613 43.9861 33.5558 43.5013C33.7434 43.021 34.1352 42.575 34.6091 42.3542C35.0565 42.1386 35.5571 42.0585 36.0494 42.1237C36.9826 42.239 37.7815 42.7707 38.3023 43.4677C38.5583 43.8121 38.7593 44.194 38.8983 44.5999C39.0254 44.9919 39.1068 45.3973 39.1409 45.808L38.4948 45.1287L48.1397 46.4477C49.7478 46.6652 51.3659 46.8079 52.9691 47.0598C54.5711 47.3186 56.173 47.5798 57.7168 48.2648C57.7683 48.2875 57.811 48.3263 57.8385 48.3754C57.8659 48.4246 57.8767 48.4813 57.869 48.537C57.8614 48.5928 57.8358 48.6446 57.7962 48.6845C57.7565 48.7245 57.705 48.7504 57.6493 48.7584H57.6509Z" fill="#31241B"/>
<path id="Vector_46" d="M35.7289 23.8535C35.294 23.8544 34.8623 23.7813 34.452 23.6372C32.8387 23.0691 31.876 21.5404 31.876 19.5478C31.876 19.3213 31.9659 19.1041 32.1261 18.944C32.2862 18.7838 32.5034 18.6938 32.7299 18.6938C32.9564 18.6938 33.1736 18.7838 33.3338 18.944C33.4939 19.1041 33.5839 19.3213 33.5839 19.5478C33.5839 20.8012 34.1071 21.7049 35.0193 22.0264C35.9844 22.3664 37.1347 21.9702 37.8819 21.0406C38.0239 20.8641 38.2302 20.7512 38.4554 20.7268C38.6806 20.7024 38.9063 20.7684 39.0828 20.9104C39.2593 21.0524 39.3722 21.2587 39.3966 21.4839C39.421 21.7091 39.355 21.9348 39.213 22.1113C38.3142 23.2289 37.0155 23.8535 35.7289 23.8535Z" fill="#31241B"/>
<path id="Vector_47" d="M47.3921 25.3859C47.0055 25.3869 46.6214 25.3236 46.2555 25.1987C44.9467 24.7478 43.8105 23.4147 44.2233 21.4533C44.2464 21.3436 44.2909 21.2394 44.3542 21.1469C44.4176 21.0543 44.4985 20.9751 44.5925 20.9139C44.6864 20.8526 44.7915 20.8104 44.9017 20.7898C45.012 20.7691 45.1252 20.7704 45.235 20.7935C45.3447 20.8165 45.4488 20.861 45.5414 20.9244C45.634 20.9877 45.7131 21.0687 45.7744 21.1626C45.8357 21.2566 45.8779 21.3616 45.8985 21.4719C45.9192 21.5821 45.9179 21.6953 45.8948 21.8051C45.6284 23.0707 46.5296 23.4867 46.8119 23.5842C47.5853 23.8506 48.6795 23.602 49.256 22.427C49.3559 22.2236 49.5324 22.0683 49.7468 21.9951C49.9611 21.922 50.1958 21.9369 50.3991 22.0368C50.6024 22.1366 50.7578 22.3131 50.8309 22.5275C50.9041 22.7419 50.8891 22.9765 50.7893 23.1798C50.0356 24.7155 48.6673 25.3855 47.3921 25.3859Z" fill="#31241B"/>
<path id="Vector_48" d="M41.8331 31.074C41.5694 31.0738 41.3062 31.0489 41.0471 30.9996C39.4799 30.7024 38.3554 29.599 38.112 28.12C38.0936 28.0221 38.0949 27.9214 38.1159 27.8241C38.1369 27.7267 38.1772 27.6344 38.2343 27.5528C38.2915 27.4712 38.3643 27.4018 38.4487 27.3488C38.533 27.2957 38.6271 27.2601 38.7254 27.2439C38.8237 27.2278 38.9243 27.2314 39.0211 27.2546C39.118 27.2779 39.2093 27.3203 39.2896 27.3793C39.3698 27.4383 39.4375 27.5127 39.4886 27.5983C39.5397 27.6838 39.5731 27.7787 39.587 27.8774C39.7953 29.1458 40.9703 29.464 41.3257 29.5311C42.0571 29.6698 43.0958 29.5214 43.6166 28.6476C43.6661 28.5619 43.7322 28.4868 43.811 28.4269C43.8897 28.3669 43.9796 28.3231 44.0755 28.2982C44.1713 28.2733 44.2711 28.2676 44.3691 28.2816C44.4671 28.2956 44.5614 28.3289 44.6464 28.3796C44.7314 28.4303 44.8056 28.4974 44.8644 28.577C44.9233 28.6566 44.9658 28.7471 44.9894 28.8433C45.013 28.9394 45.0172 29.0393 45.0019 29.1371C44.9865 29.2349 44.9519 29.3287 44.9 29.413C44.2725 30.4663 43.1185 31.074 41.8331 31.074Z" fill="#31241B"/>
<path id="Vector_49" d="M70.3052 35.2173C69.3619 35.2173 68.4303 34.8692 67.7523 34.2275C66.8397 33.3647 66.5049 32.0939 66.8332 30.7414C66.8868 30.5213 67.0257 30.3315 67.2192 30.2137C67.4128 30.096 67.6452 30.06 67.8653 30.1136C68.0854 30.1672 68.2751 30.3061 68.3929 30.4997C68.5106 30.6932 68.5466 30.9256 68.493 31.1457C68.3078 31.9079 68.4574 32.5447 68.9256 32.9874C69.4201 33.4552 70.2106 33.6311 70.8931 33.4249C71.3872 33.2749 72.0281 32.8706 72.2751 31.7938C72.2994 31.6837 72.3452 31.5795 72.4099 31.4871C72.4747 31.3948 72.5571 31.3162 72.6524 31.2559C72.7476 31.1956 72.8539 31.1547 72.9651 31.1357C73.0762 31.1167 73.19 31.1199 73.3 31.1451C73.4099 31.1703 73.5137 31.217 73.6055 31.2826C73.6972 31.3481 73.7751 31.4312 73.8346 31.527C73.8941 31.6228 73.934 31.7294 73.952 31.8407C73.9701 31.9521 73.9659 32.0658 73.9398 32.1755C73.6094 33.6174 72.6791 34.6682 71.3876 35.0592C71.0365 35.1648 70.6718 35.2181 70.3052 35.2173Z" fill="#31241B"/>
<path id="Vector_50" d="M57.0911 32.2729C56.1482 32.2729 55.2166 31.9243 54.5382 31.283C53.626 30.4202 53.2908 29.1494 53.6195 27.7969C53.642 27.6839 53.6872 27.5767 53.7522 27.4816C53.8173 27.3865 53.9009 27.3056 53.998 27.2437C54.0952 27.1818 54.2038 27.1402 54.3175 27.1213C54.4311 27.1025 54.5474 27.1069 54.6593 27.1342C54.7713 27.1615 54.8765 27.2111 54.9687 27.2802C55.0609 27.3492 55.1382 27.4362 55.196 27.5359C55.2537 27.6355 55.2907 27.7459 55.3046 27.8602C55.3186 27.9746 55.3093 28.0906 55.2773 28.2012C55.0925 28.9638 55.2421 29.6006 55.7103 30.0434C56.2048 30.5112 56.9957 30.6871 57.6774 30.4804C58.1715 30.3308 58.8128 29.9265 59.0594 28.8498C59.0837 28.7396 59.1295 28.6354 59.1942 28.5431C59.259 28.4507 59.3414 28.3721 59.4367 28.3118C59.5319 28.2515 59.6382 28.2107 59.7494 28.1916C59.8605 28.1726 59.9743 28.1758 60.0843 28.201C60.1942 28.2262 60.298 28.2729 60.3898 28.3385C60.4815 28.404 60.5594 28.4871 60.6189 28.5829C60.6784 28.6787 60.7183 28.7853 60.7363 28.8967C60.7544 29.008 60.7502 29.1218 60.7241 29.2315C60.3937 30.6733 59.4633 31.7242 58.1723 32.1152C57.8216 32.2205 57.4573 32.2736 57.0911 32.2729Z" fill="#31241B"/>
<path id="Vector_51" d="M62.5482 38.724C62.2928 38.7238 62.038 38.7005 61.7868 38.6545C60.6045 38.4386 59.6135 37.7326 59.1356 36.7666C59.0469 36.5695 59.038 36.3456 59.111 36.1421C59.1839 35.9386 59.3328 35.7713 59.5265 35.6753C59.7203 35.5794 59.9436 35.5622 60.1497 35.6275C60.3558 35.6928 60.5285 35.8355 60.6316 36.0255C60.8766 36.5208 61.4201 36.8891 62.0872 37.0109C62.8482 37.1499 63.6006 36.9369 64.1493 36.4254C64.2296 36.3506 64.3238 36.2924 64.4266 36.2541C64.5294 36.2157 64.6387 36.198 64.7484 36.2019C64.858 36.2058 64.9658 36.2312 65.0656 36.2768C65.1654 36.3224 65.2552 36.3871 65.33 36.4674C65.4047 36.5477 65.463 36.6419 65.5013 36.7447C65.5396 36.8475 65.5574 36.9568 65.5535 37.0665C65.5496 37.1761 65.5241 37.2839 65.4785 37.3837C65.433 37.4835 65.3682 37.5733 65.2879 37.6481C64.5449 38.3424 63.5651 38.7272 62.5482 38.724Z" fill="#31241B"/>
<path id="Vector_52" d="M24.0603 95.9311C23.9463 96.0181 23.7773 96.0755 23.5977 96.1333C23.4182 96.1911 23.2156 96.2316 23.0102 96.2789C22.595 96.369 22.168 96.4677 21.6832 96.534C21.6697 96.5359 21.6559 96.5351 21.6427 96.5316C21.6294 96.5282 21.617 96.5221 21.6061 96.5139C21.5952 96.5056 21.5861 96.4953 21.5792 96.4835C21.5723 96.4717 21.5678 96.4586 21.566 96.4451C21.5632 96.4255 21.566 96.4057 21.574 96.3876C21.6803 96.1652 21.8138 95.9569 21.9715 95.7674C22.1248 95.5823 22.2934 95.4102 22.4753 95.2531C22.6574 95.0905 22.8601 94.9525 23.0782 94.8427C23.3038 94.7368 23.5528 94.6502 23.8711 94.6656C24.0012 94.6717 24.1264 94.7177 24.2296 94.7973C24.3328 94.8769 24.4091 94.9862 24.4481 95.1106C24.4871 95.235 24.4869 95.3683 24.4476 95.4926C24.4084 95.6168 24.3319 95.726 24.2285 95.8054L24.0603 95.9311Z" fill="#31241B"/>
<path id="Vector_53" d="M26.902 100.837H19.829C19.1819 100.837 18.5595 100.589 18.0892 100.144C17.6189 99.7 17.3364 99.0926 17.2995 98.4465L16.8256 90.0797C16.8158 89.8826 16.8843 89.6897 17.0162 89.543C17.1481 89.3963 17.3327 89.3076 17.5297 89.2965C17.7266 89.2853 17.92 89.3525 18.0677 89.4834C18.2153 89.6143 18.3051 89.7983 18.3176 89.9952L18.7915 98.362C18.8067 98.627 18.9226 98.8761 19.1155 99.0583C19.3084 99.2405 19.5637 99.3421 19.829 99.3421H26.902C27.0197 99.3421 27.136 99.3168 27.2431 99.2679C27.3501 99.2191 27.4455 99.1479 27.5227 99.0591C27.5959 98.9776 27.6505 98.8811 27.6827 98.7764C27.7148 98.6717 27.7239 98.5612 27.7091 98.4526C27.5902 97.5712 27.143 96.8029 26.4823 96.3448C25.8702 95.9207 25.1274 95.7925 24.3333 95.9732C24.2361 95.9997 24.1346 96.0062 24.0348 95.9925C23.9351 95.9787 23.8391 95.9449 23.7527 95.8931C23.6664 95.8413 23.5914 95.7726 23.5322 95.6911C23.4731 95.6096 23.431 95.517 23.4086 95.4188C23.3861 95.3206 23.3837 95.2189 23.4016 95.1198C23.4195 95.0207 23.4572 94.9262 23.5125 94.842C23.5678 94.7579 23.6395 94.6857 23.7234 94.63C23.8072 94.5742 23.9015 94.536 24.0005 94.5176C25.197 94.2439 26.3804 94.4574 27.3335 95.1181C28.3386 95.8143 29.0151 96.9574 29.1902 98.2541C29.2326 98.5737 29.2062 98.8988 29.1127 99.2074C29.0192 99.516 28.8607 99.801 28.6479 100.043C28.4304 100.292 28.162 100.492 27.8609 100.629C27.5598 100.766 27.2328 100.837 26.902 100.837Z" fill="#31241B"/>
<path id="Vector_54" d="M23.8842 96.0686H23.8612C23.6633 96.0626 23.476 95.9783 23.3402 95.8343C23.2044 95.6903 23.1314 95.4983 23.137 95.3004L23.2988 90.0109C23.3071 89.8144 23.3925 89.6291 23.5366 89.4952C23.6807 89.3613 23.8717 89.2896 24.0683 89.2956C24.2649 89.3017 24.4512 89.3851 24.5868 89.5276C24.7223 89.6701 24.7962 89.8604 24.7924 90.057L24.6306 95.3465C24.6241 95.5402 24.5427 95.7237 24.4034 95.8584C24.2641 95.9932 24.078 96.0685 23.8842 96.0686Z" fill="#31241B"/>
<g id="Group_13" opacity="0.25">
<path id="Vector_55" opacity="0.25" d="M19.9604 11.3208C14.5132 14.4047 12.3007 19.5041 12.0872 25.8485C12.0237 27.7351 14.3232 28.6958 15.6357 27.3393C19.0701 23.7893 21.5608 19.2551 22.8284 13.444C23.1882 11.7943 21.4318 10.4903 19.9604 11.3208Z" fill="white"/>
</g>
<g id="Group_14" opacity="0.25">
<path id="Vector_56" opacity="0.25" d="M14.8189 35.5691C14.5031 38.1329 14.0822 40.191 12.409 39.9848C10.7359 39.7786 9.63573 37.5333 9.95151 34.971C10.2673 32.4088 11.8798 30.4959 13.5529 30.7017C15.226 30.9075 15.1347 33.0052 14.8189 35.5691Z" fill="white"/>
</g>
<g id="Group_15" opacity="0.3">
<path id="Vector_57" opacity="0.3" d="M42.4057 50.7175L37.6272 49.6954C35.678 51.5149 33.1391 50.9221 31.498 49.938C31.118 49.7195 30.7532 49.4755 30.4062 49.2078C33.2152 49.7382 34.5305 48.8075 33.4582 45.5473L33.539 45.2457C33.8543 45.4081 34.1542 45.5988 34.435 45.8154C32.8177 41.9386 38.0837 41.7761 38.3947 45.8696L42.7041 46.4611C40.2744 47.9628 40.3678 49.3743 42.4057 50.7175Z" fill="#31241B"/>
<path id="Vector_58" opacity="0.3" d="M34.6397 50.9738C33.4906 50.9738 32.3572 50.5788 31.4426 50.0297C31.0596 49.8086 30.6917 49.5621 30.3416 49.2918L29.9951 49.0213L30.4273 49.1021C31.8829 49.3771 32.8635 49.2372 33.3462 48.6865C33.8448 48.118 33.8484 47.0728 33.358 45.5796L33.3483 45.5497L33.4696 45.0891L33.588 45.1498C33.8027 45.2602 34.0104 45.3838 34.2099 45.5197C33.7797 44.2408 34.1723 43.5531 34.4626 43.2466C34.9373 42.746 35.716 42.6077 36.4976 42.8827C37.6192 43.2813 38.3612 44.3581 38.4942 45.7724L43.0122 46.3951L42.7595 46.5516C41.5922 47.2729 40.9954 47.989 40.9853 48.6792C40.976 49.3193 41.4733 49.9731 42.4644 50.6281L42.9374 50.9402L37.6585 49.8109C36.7418 50.6467 35.6841 50.9738 34.6397 50.9738ZM30.8289 49.3872C31.0516 49.5429 31.2934 49.6965 31.551 49.8473C33.2452 50.8634 35.7108 51.3365 37.5541 49.6185L37.5946 49.5805L41.9242 50.5068C41.1503 49.9063 40.7629 49.2938 40.7718 48.6776C40.7819 47.9627 41.3302 47.2402 42.4021 46.5285L38.2929 45.9637L38.2864 45.8776C38.1825 44.5073 37.4858 43.4641 36.424 43.0877C35.7342 42.8426 35.0242 42.9631 34.615 43.395C34.1331 43.9036 34.1035 44.7491 34.5313 45.7753L34.6862 46.1456L34.368 45.9006C34.1274 45.7153 33.8727 45.5492 33.6062 45.4037L33.569 45.5448C34.0825 47.1217 34.0615 48.1948 33.5055 48.8288C33.0163 49.3872 32.1377 49.5708 30.8289 49.3872Z" fill="#31241B"/>
</g>
<g id="Group_16" opacity="0.3">
<path id="Vector_59" opacity="0.3" d="M58.4712 52.9703C58.1667 53.1994 57.8159 53.3592 57.4433 53.4386C57.0706 53.518 56.6851 53.5151 56.3137 53.43L51.2595 52.3044L49.144 51.8341C51.3951 51.0524 52.1513 49.689 51.4128 47.7439L52.608 47.8652L52.4604 48.0965L53.1005 48.1652L53.1704 48.3734C53.189 48.3375 53.1684 48.2606 53.1247 48.1676L57.3512 48.6306L57.1349 48.3217L57.8821 48.3981C60.4981 49.8266 59.9325 51.8633 58.4712 52.9703Z" fill="#31241B"/>
</g>
<g id="Group_17" opacity="0.3">
<path id="Vector_60" opacity="0.3" d="M65.7343 88.6099L65.0191 98.4028C64.9855 98.8608 64.78 99.2891 64.4438 99.6019C64.1076 99.9147 63.6656 100.089 63.2064 100.089H54.5132C53.4179 100.089 52.5789 99.0967 52.7799 98.0207C52.8421 97.6892 52.9483 97.3675 53.0957 97.0641C53.5356 96.8336 53.8538 96.6735 53.8538 96.6735C60.0174 98.4712 62.6048 96.0819 61.7104 89.609C63.0293 89.9846 64.6988 89.6749 65.7343 88.6099Z" fill="#31241B"/>
</g>
<path id="Vector_61" d="M61.3434 64.7078C61.7752 65.2409 61.982 65.9213 61.92 66.6045C61.8875 66.9806 61.7716 67.3447 61.5808 67.6703C61.3856 68.004 61.1176 68.2893 60.7968 68.5049C60.1785 68.92 59.4232 69.0786 58.6902 68.9472C57.9931 68.8227 57.3628 68.4305 57.0118 67.8757C56.9871 67.8369 56.9749 67.7915 56.9768 67.7455C56.9787 67.6995 56.9946 67.6552 57.0224 67.6186C57.0503 67.5819 57.0887 67.5547 57.1324 67.5405C57.1762 67.5264 57.2233 67.5259 57.2673 67.5393L57.2791 67.5426C57.8265 67.7108 58.3174 67.7642 58.7723 67.7112C59.2271 67.6582 59.6299 67.509 59.9448 67.2826C60.2598 67.0562 60.4858 66.7549 60.6508 66.3526C60.735 66.1309 60.7973 65.9015 60.8368 65.6677C60.8792 65.4134 60.9003 65.142 60.9354 64.8408L60.9375 64.8259C60.9428 64.7813 60.9611 64.7392 60.9902 64.705C61.0192 64.6708 61.0577 64.6458 61.1009 64.6334C61.144 64.6209 61.1899 64.6214 61.2327 64.6349C61.2756 64.6483 61.3135 64.6741 61.3418 64.709L61.3434 64.7078Z" fill="#31241B"/>
<g id="Group_18" opacity="0.6">
<path id="Vector_62" opacity="0.6" d="M64.017 77.6133C64.1094 78.293 63.9332 78.982 63.5257 79.5339C63.3028 79.8385 63.0148 80.0896 62.6827 80.269C62.3426 80.4529 61.9654 80.5576 61.5792 80.5754C60.8354 80.6095 60.1075 80.3531 59.5491 79.8606C59.0178 79.3928 58.6826 78.7284 58.6705 78.0738C58.6694 78.0278 58.6825 77.9825 58.708 77.9442C58.7334 77.9058 58.77 77.8762 58.8129 77.8593C58.8557 77.8423 58.9027 77.839 58.9475 77.8496C58.9923 77.8602 59.0328 77.8842 59.0635 77.9186L59.0716 77.9279C59.4524 78.3553 59.8438 78.6557 60.2607 78.8465C60.6776 79.0374 61.0985 79.1194 61.4866 79.0891C61.8748 79.0588 62.2229 78.9189 62.5735 78.6593C62.7607 78.5136 62.9329 78.3497 63.0878 78.1701C63.256 77.9752 63.4153 77.7532 63.6013 77.5146L63.6106 77.5029C63.6383 77.4675 63.6758 77.4411 63.7184 77.4269C63.761 77.4127 63.8069 77.4114 63.8503 77.4231C63.8937 77.4348 63.9326 77.4591 63.9622 77.4929C63.9919 77.5266 64.0109 77.5684 64.017 77.6129V77.6133Z" fill="#31241B"/>
</g>
<g id="Group_19" opacity="0.6">
<path id="Vector_63" opacity="0.6" d="M68.7061 15.9237C69.3107 16.248 69.765 16.7953 69.9725 17.4492C70.0887 17.8131 70.122 18.1983 70.0701 18.5767C70.0182 18.9551 69.8823 19.3172 69.6725 19.6363C69.2633 20.2583 68.6284 20.697 67.9019 20.8598C67.2109 21.0151 66.4778 20.8974 65.9392 20.5218C65.9014 20.4955 65.8725 20.4583 65.8564 20.4152C65.8404 20.372 65.8379 20.325 65.8494 20.2804C65.8609 20.2358 65.8858 20.1958 65.9207 20.1658C65.9557 20.1358 65.999 20.1172 66.0448 20.1126H66.0565C66.6262 20.0556 67.0997 19.9149 67.4988 19.6897C67.8715 19.4891 68.1869 19.1969 68.4154 18.8406C68.6175 18.5058 68.7097 18.1447 68.7057 17.7084C68.6976 17.4714 68.6662 17.2357 68.6119 17.0049C68.5525 16.7542 68.4667 16.495 68.3826 16.2043L68.3786 16.1897C68.3662 16.1466 68.3668 16.1007 68.3803 16.0579C68.3938 16.015 68.4197 15.9771 68.4546 15.9489C68.4896 15.9207 68.5321 15.9034 68.5768 15.8992C68.6215 15.895 68.6665 15.9041 68.7061 15.9253V15.9237Z" fill="#31241B"/>
</g>
<path id="Vector_64" d="M77.8649 68.3553C75.6317 69.1688 73.3728 69.8997 71.0883 70.548C50.3771 76.4319 27.6354 75.6741 3.63412 70.8064C-1.97884 64.3694 2.31478 57.4775 2.31478 57.4775C16.8004 59.4377 30.9723 60.6184 44.6214 60.4922C51.6306 59.3459 65.7232 56.7881 73.1059 55.4409C76.001 54.9116 77.8649 54.5675 77.8649 54.5675C80.9031 60.2189 80.6666 64.7345 77.8649 68.3553Z" fill="#FAB292"/>
<g id="Group_20" opacity="0.55">
<path id="Vector_65" opacity="0.55" d="M2.31451 58.7588C16.8002 60.7186 30.9721 61.8993 44.6212 61.7731C51.6303 60.6268 65.7229 58.069 73.1057 56.7218C76.0007 56.1925 77.8647 55.8484 77.8647 55.8484C79.1864 58.3072 79.8863 60.5508 80.0283 62.6008C80.1973 60.1618 79.5156 57.4253 77.8647 54.3556C77.8647 54.3556 76.0007 54.6997 73.1057 55.229C65.7229 56.5762 51.6303 59.134 44.6212 60.2803C30.9721 60.4064 16.8002 59.2258 2.31451 57.2656C2.31451 57.2656 0.514421 60.1566 0.76996 63.9423C0.972127 60.9143 2.31451 58.7588 2.31451 58.7588Z" fill="white"/>
</g>
<g id="Group_21" opacity="0.55">
<path id="Vector_66" opacity="0.55" d="M78.2241 55.2637C72.4939 56.315 54.9292 59.523 46.8292 60.8468C33.1805 60.9725 19.0086 59.7919 4.52253 57.8341C4.52253 57.8341 0.229316 64.7235 5.84187 71.163C8.42556 71.6856 10.9933 72.1603 13.5452 72.587C10.2677 72.0786 6.96416 71.4856 3.63461 70.8079C-1.97835 64.371 2.31527 57.4791 2.31527 57.4791C16.8009 59.4393 30.9728 60.6199 44.6219 60.4938C54.3785 58.8967 77.8654 54.5691 77.8654 54.5691C77.9912 54.8024 78.1109 55.0333 78.2241 55.2637Z" fill="white"/>
</g>
<path id="Vector_67" d="M39.4049 75.4599C28.2991 75.4599 16.3672 74.1518 3.48471 71.5378C3.32354 71.5047 3.17775 71.4194 3.06986 71.2952C-0.0156083 67.7549 -0.231523 64.0779 0.13076 61.6167C0.520942 58.9659 1.63407 57.1565 1.68138 57.0805C1.75791 56.9587 1.86777 56.8614 1.99792 56.8002C2.12807 56.739 2.27305 56.7164 2.41565 56.7352C18.2122 58.8709 31.9975 59.8534 44.5573 59.7418C54.2298 58.1613 77.4952 53.8753 77.7297 53.8349C77.8853 53.8062 78.0459 53.8277 78.1885 53.8961C78.3312 53.9645 78.4484 54.0765 78.5234 54.2158C81.5769 59.8975 81.5559 64.8093 78.4563 68.8146C78.37 68.9264 78.2538 69.0114 78.1211 69.0597C66.4031 73.3282 53.5764 75.4599 39.4049 75.4599ZM4.03379 70.1259C32.8697 75.941 56.8745 75.1566 77.403 67.729C79.9329 64.3285 79.9503 60.2893 77.4588 55.4025C73.88 56.0603 53.5715 59.7851 44.7421 61.2289C44.7045 61.235 44.6665 61.2382 44.6285 61.2386C32.114 61.3555 18.4018 60.3895 2.72092 58.287C1.94864 59.7899 -0.223437 65.0503 4.03379 70.1259Z" fill="#31241B"/>
<g id="Group_22" opacity="0.3">
<path id="Vector_68" opacity="0.3" d="M31.3555 74.4906C36.5224 73.2958 35.9083 60.6822 31.5338 60.4796H44.1162L48.1806 59.8942L60.1303 61.4201C60.1303 61.4201 64.508 65.9939 67.7621 62.7597C67.7621 62.7597 64.373 68.4919 58.87 65.7877L54.525 65.3462C54.525 65.3462 54.7417 72.8603 51.4565 74.1635L40.3996 74.4906H31.3555Z" fill="#31241B"/>
</g>
<g id="Group_23" opacity="0.3">
<path id="Vector_69" opacity="0.3" d="M77.8655 68.3552C75.6322 69.1687 73.3734 69.8996 71.0889 70.5479C76.4135 67.2982 73.1065 55.4407 73.1065 55.4407C76.0015 54.9115 77.8655 54.5674 77.8655 54.5674C80.9037 60.2188 80.6671 64.7344 77.8655 68.3552Z" fill="#31241B"/>
</g>
<path id="Vector_70" d="M60.3402 63.4984L52.2891 62.1354H52.285L41.9976 60.3927L42.2131 54.0851L46.6393 55.0296L61.7792 58.2643C64.4074 54.6164 70.3219 55.7788 65.3705 60.6438C71.3777 64.2715 63.9731 69.6952 60.3402 63.4984Z" fill="#A7C49C"/>
<g id="Group_24" opacity="0.55">
<path id="Vector_71" opacity="0.55" d="M67.2889 57.8903C66.2963 57.2001 64.0947 57.6372 62.629 59.3374C62.5271 59.4587 62.3947 59.5507 62.2454 59.6037C62.0962 59.6567 61.9354 59.6689 61.7799 59.639L47.143 56.6381L46.2842 56.4614C46.3246 56.0519 46.4153 55.649 46.5543 55.2617L46.6558 55.2831L61.8219 58.3921C63.8003 55.5985 67.7046 55.5775 67.2889 57.8903Z" fill="white"/>
</g>
<path id="Vector_72" d="M42.225 53.9436C43.9572 53.7964 45.5951 54.1093 47.2388 54.4053C48.8759 54.7223 50.4936 55.1331 52.128 55.4643L61.9262 57.4738L61.1664 57.7738C61.7587 56.935 62.5523 56.2586 63.4744 55.8067C63.945 55.5758 64.4477 55.417 64.9655 55.3357C65.4948 55.2605 66.0641 55.2548 66.6637 55.4659C66.9875 55.5815 67.2793 55.7722 67.5153 56.0222C67.7638 56.2943 67.9287 56.6322 67.9904 56.9955C68.0424 57.3133 68.031 57.6383 67.9568 57.9517C67.8943 58.2241 67.8021 58.4887 67.6819 58.741C67.4616 59.1957 67.1903 59.6238 66.8732 60.0171C66.5759 60.3914 66.2567 60.7478 65.9173 61.0845L65.7706 59.9119C66.3055 60.2326 66.8255 60.6078 67.2888 61.0845C67.7449 61.5636 68.1578 62.1592 68.3401 62.8898C68.4331 63.2597 68.4558 63.6437 68.4072 64.022C68.3564 64.401 68.2338 64.7668 68.0462 65.0999C67.6782 65.7598 67.102 66.2454 66.4725 66.5535C65.2029 67.1806 63.6899 67.0889 62.4902 66.4953C61.8979 66.2042 61.3594 65.8144 60.898 65.3425C60.453 64.8882 60.0643 64.382 59.7403 63.8348L60.2538 64.1878L50.5555 62.5017L48.1295 62.08C47.3208 61.9384 46.5122 61.7969 45.7003 61.687C44.8884 61.577 44.0765 61.4472 43.2787 61.2458C42.8761 61.1496 42.4801 61.028 42.0928 60.8819C41.6909 60.7356 41.305 60.5485 40.9413 60.3235C40.8962 60.295 40.8607 60.2538 40.8391 60.2051C40.8175 60.1563 40.8108 60.1023 40.8199 60.0498C40.829 59.9972 40.8534 59.9486 40.8901 59.91C40.9268 59.8713 40.9742 59.8444 41.0262 59.8327C41.4447 59.7437 41.8712 59.6979 42.299 59.696C42.7128 59.6893 43.1266 59.7089 43.5379 59.7546C44.3567 59.8355 45.1633 59.9839 45.9639 60.1566C46.7645 60.3292 47.5752 60.4667 48.3834 60.6066L50.8094 61.0279L60.5082 62.714C60.6139 62.7329 60.7144 62.7742 60.803 62.8351C60.8915 62.896 60.9661 62.975 61.0217 63.0669C61.5574 63.9617 62.2719 64.7336 63.1384 65.1485C63.9915 65.571 65.0072 65.609 65.8126 65.2103C66.2117 65.0166 66.5477 64.7178 66.7394 64.3701C66.9333 64.0299 66.9865 63.6274 66.8877 63.2485C66.7931 62.8579 66.5429 62.4665 66.2097 62.1164C65.8765 61.7662 65.456 61.4617 65.0064 61.1925C64.9219 61.1421 64.8482 61.0755 64.7895 60.9966C64.7307 60.9177 64.6881 60.828 64.6641 60.7326C64.6401 60.6372 64.6351 60.538 64.6494 60.4407C64.6637 60.3434 64.6971 60.2499 64.7476 60.1654C64.7793 60.1133 64.8168 60.065 64.8596 60.0215C65.454 59.4235 66.0099 58.7681 66.3278 58.1017C66.4838 57.7758 66.559 57.4402 66.5182 57.2474C66.5061 57.1658 66.4703 57.0895 66.4151 57.0282C66.3398 56.9532 66.2482 56.8966 66.1474 56.8628C65.8975 56.7707 65.5409 56.7533 65.1891 56.8079C64.8204 56.8672 64.4626 56.9812 64.1274 57.1459C63.4329 57.4883 62.8352 57.9992 62.3887 58.6318C62.3048 58.7501 62.1883 58.8415 62.0535 58.8948C61.9186 58.9482 61.7711 58.9612 61.629 58.9322L51.8283 56.9231C50.1956 56.5847 48.5468 56.3263 46.9169 55.9733C45.2915 55.5997 43.6624 55.2431 42.128 54.4263C42.0784 54.4001 42.0387 54.3585 42.0148 54.3077C41.9908 54.257 41.984 54.1999 41.9952 54.1449C42.0065 54.09 42.0352 54.0402 42.0771 54.0029C42.1191 53.9657 42.1719 53.943 42.2278 53.9383L42.225 53.9436Z" fill="#31241B"/>
<g id="Group_25" opacity="0.3">
<path id="Vector_73" opacity="0.3" d="M52.3138 62.1548L42.0122 60.4971L42.1739 54.1895L46.6079 55.0976C45.2845 58.6598 47.8755 60.7554 52.3138 62.1548Z" fill="#31241B"/>
</g>
</g>
</svg>
