<svg width="46" height="48" viewBox="0 0 46 48" fill="none" xmlns="http://www.w3.org/2000/svg">
<path d="M43.4989 4.79344L43.4985 4.79306C40.7992 2.12582 36.4232 2.16668 33.7131 4.85033C33.2721 5.29131 28.2926 10.2708 24.252 14.3114L27.5206 17.5801C31.0149 14.0857 35.0346 10.0661 36.9817 8.11897L37.0106 8.09009C37.8943 7.20639 39.3301 7.19277 40.23 8.06237C41.1504 8.95071 41.1422 10.4541 40.2296 11.3667L39.196 12.4004C38.2843 13.3121 38.2934 14.7965 39.2241 15.6963C40.1354 16.5777 41.5955 16.5381 42.4916 15.6421L43.4983 14.6354L43.5272 14.6065C46.231 11.9025 46.2271 7.49091 43.4989 4.79344Z" fill="#FF8997"/>
<path d="M38.206 45.5564H29.2036V41.0317H38.206C39.8788 41.0317 41.2397 39.6707 41.2397 37.9979C41.2397 36.325 39.8788 34.9641 38.206 34.9641H29.2036V30.4396H38.206C42.3737 30.4396 45.7643 33.8303 45.7643 37.9979C45.7643 42.1657 42.3736 45.5564 38.206 45.5564Z" fill="#FFEDDE"/>
<path d="M27.5206 17.5799C29.7911 15.3093 32.2829 12.8176 34.2843 10.8161C34.2809 10.814 34.2776 10.8118 34.2742 10.8097C33.6717 10.4245 33.3027 9.75598 33.3343 9.04149C33.383 7.93758 33.2081 6.89781 32.8091 5.92902C32.7921 5.88778 32.7732 5.84828 32.7557 5.80762C31.0321 7.53118 27.3638 11.1994 24.252 14.3113L27.5206 17.5799Z" fill="#FF6F7F"/>
<path d="M20.0248 0.863872C18.9304 -0.031613 17.4353 -0.253746 16.1362 0.30487C13.234 1.55287 9.07047 3.9661 8.04248 7.82087L8.69999 10.4475L19.0438 15.0424L29.5595 12.0769C33.4917 3.72204 23.2998 3.54347 20.0248 0.863872Z" fill="#F9E3C6"/>
<path d="M11.3371 11.2212C11.3371 5.99427 15.2741 1.6876 20.3442 1.10291C20.2318 1.02535 20.125 0.945868 20.0248 0.863872C18.9304 -0.0316131 17.4353 -0.253746 16.1362 0.30487C13.234 1.55287 9.07047 3.9661 8.04248 7.82088L8.69999 10.4476L11.3457 11.6228C11.3406 11.4895 11.3371 11.3558 11.3371 11.2212Z" fill="#F9D8B0"/>
<path d="M3.80479 20.9128C-1.19155 11.8821 8.04695 7.82373 8.04695 7.82373C10.8797 11.7356 39.9875 7.19365 34.9097 20.9128L19.3573 24.3701L3.80479 20.9128Z" fill="#FFEDDE"/>
<path d="M39.1341 40.886C38.8414 40.9802 38.5296 41.0317 38.206 41.0317H29.2036V45.5563H37.1691C38.124 44.1762 38.8052 42.5931 39.1341 40.886Z" fill="#F9E3C6"/>
<path d="M29.2036 30.4396V34.9641H38.206C38.6134 34.9641 39.0022 35.0454 39.3575 35.1918V30.5272C38.9819 30.4695 38.5974 30.4396 38.206 30.4396H29.2036Z" fill="#F9E3C6"/>
<path d="M2.03125 24.3701V38.5453C2.03125 43.7669 6.26423 47.9999 11.4859 47.9999H27.0054C32.2271 47.9999 36.4601 43.7669 36.4601 38.5453V24.3701H2.03125Z" fill="#FFEDDE"/>
<path d="M6.59299 28.3228C6.59299 26.9722 6.7197 25.6512 6.95941 24.3701H2.03125V38.5453C2.03125 43.7669 6.26423 47.9999 11.4859 47.9999H15.0233C9.35941 44.1407 6.59299 36.54 6.59299 28.3228Z" fill="#F9E3C6"/>
<path d="M10.7085 40.2569C12.4482 40.2569 13.8585 39.1338 13.8585 37.7485C13.8585 36.3631 12.4482 35.24 10.7085 35.24C8.96887 35.24 7.55859 36.3631 7.55859 37.7485C7.55859 39.1338 8.96887 40.2569 10.7085 40.2569Z" fill="#FF8997"/>
<path d="M27.7823 40.2569C29.5219 40.2569 30.9322 39.1338 30.9322 37.7485C30.9322 36.3631 29.5219 35.24 27.7823 35.24C26.0426 35.24 24.6323 36.3631 24.6323 37.7485C24.6323 39.1338 26.0426 40.2569 27.7823 40.2569Z" fill="#FF8997"/>
<path d="M12.5442 36.058C12.144 36.058 11.8198 35.7337 11.8198 35.3337V34.046C11.8198 33.646 12.144 33.3217 12.5442 33.3217C12.9443 33.3217 13.2685 33.646 13.2685 34.046V35.3337C13.2685 35.7337 12.9443 36.058 12.5442 36.058Z" fill="#423E4F"/>
<path d="M25.947 36.058C25.5469 36.058 25.2227 35.7337 25.2227 35.3337V34.046C25.2227 33.646 25.5469 33.3217 25.947 33.3217C26.3471 33.3217 26.6713 33.646 26.6713 34.046V35.3337C26.6713 35.7337 26.347 36.058 25.947 36.058Z" fill="#423E4F"/>
<path d="M19.2455 36.8245C18.359 36.8245 17.5161 36.4406 16.9327 35.7713C16.6698 35.4696 16.7013 35.0122 17.0029 34.7493C17.3043 34.4865 17.7619 34.5179 18.0249 34.8195C18.333 35.1732 18.7779 35.3759 19.2456 35.3759C19.7132 35.3759 20.1581 35.1731 20.4662 34.8195C20.729 34.5178 21.1865 34.4864 21.4882 34.7492C21.7898 35.012 21.8213 35.4696 21.5585 35.7712C20.975 36.4406 20.1321 36.8245 19.2455 36.8245Z" fill="#423E4F"/>
<path d="M7.00737 17.1069C7.00737 13.7473 8.82219 10.812 11.5246 9.22635C9.79475 8.91788 8.53342 8.49544 8.04695 7.82373C8.04695 7.82373 -1.19155 11.8821 3.80479 20.9128L8.38498 21.9309C7.51219 20.5311 7.00737 18.8781 7.00737 17.1069Z" fill="#F9E3C6"/>
<path d="M7.2331 16.0657C6.57269 15.4052 6.57269 14.3345 7.2331 13.6741L8.45763 12.4495C9.11804 11.7891 10.1888 11.7891 10.8492 12.4495C11.5096 13.1099 11.5096 14.1807 10.8492 14.8411L9.6247 16.0657C8.96429 16.726 7.89351 16.7261 7.2331 16.0657Z" fill="#F67561"/>
<path d="M21.1271 10.3923C20.4667 9.73191 20.4667 8.66113 21.1271 8.00072L22.3517 6.77619C23.0121 6.11578 24.0829 6.11578 24.7433 6.77619C25.4037 7.4366 25.4037 8.50738 24.7433 9.16779L23.5187 10.3923C22.8583 11.0526 21.7877 11.0527 21.1271 10.3923Z" fill="#F67561"/>
<path d="M11.0065 1.62641C11.6669 0.966001 12.7377 0.966001 13.3981 1.62641L14.6226 2.85094C15.283 3.51135 15.283 4.58213 14.6226 5.24254C13.9622 5.90295 12.8914 5.90295 12.231 5.24254L11.0065 4.01801C10.3462 3.3576 10.3461 2.28692 11.0065 1.62641Z" fill="#FB8978"/>
<path d="M29.1129 17.905C28.4525 18.5654 27.3817 18.5654 26.7213 17.905L25.4968 16.6805C24.8364 16.0201 24.8364 14.9493 25.4968 14.2889C26.1572 13.6285 27.228 13.6285 27.8884 14.2889L29.1129 15.5134C29.7732 16.1738 29.7733 17.2446 29.1129 17.905Z" fill="#FB8978"/>
<path d="M34.798 20.9128H3.69319C1.78372 20.9128 0.23584 22.4607 0.23584 24.3702C0.23584 26.2797 1.78372 27.8275 3.69319 27.8275H34.798C36.7074 27.8275 38.2553 26.2797 38.2553 24.3702C38.2554 22.4608 36.7074 20.9128 34.798 20.9128Z" fill="#FF8997"/>
<path d="M7.91352 20.9128H3.69319C1.78372 20.9128 0.23584 22.4607 0.23584 24.3702C0.23584 26.2797 1.78372 27.8275 3.69319 27.8275H6.59907C6.65432 25.4012 7.11404 23.0748 7.91352 20.9128Z" fill="#FF6F7F"/>
</svg>
