<svg width="89" height="111" viewBox="0 0 89 111" fill="none" xmlns="http://www.w3.org/2000/svg">
<g id="Group 36244">
<path id="Vector" d="M29 68.8671C29 68.8671 27.9397 76.274 27.5822 76.4851C27.2248 76.6963 26.5017 81.0513 26.5017 81.0513L22.6306 80.5646L13.0406 79.3558C12.7053 79.1104 12.3862 78.8677 12.0834 78.6276C6.89831 74.5343 6.29933 71.4485 7.56467 69.7389C8.74276 68.145 11.5407 67.7501 13.7496 68.849C15.0857 69.5852 16.4372 70.1797 17.8115 70.6107C18.3854 70.7917 18.9684 70.9441 19.558 71.0674C20.0517 71.1692 20.5629 71.1547 21.0497 71.025C21.5366 70.8953 21.9852 70.6542 22.3589 70.3214L24.9076 68.0513L29 68.8671Z" fill="#FFF9F2"/>
<path id="Vector_2" d="M83.9907 58.7721C83.9766 58.9361 83.943 59.098 83.8906 59.2544C79.843 71.5746 72.9101 75.0246 63.8867 72.0434L55 60.0801L58.5807 51.8398L58.8971 51.1129L57.6644 9.94355L57.6387 9.05133C68.8767 13.2536 73.2391 24.5333 71.5697 42.0225C70.9634 51.4073 72.6726 58.0438 81.3502 56.4142C81.7338 56.3408 82.1306 56.3686 82.4995 56.4949C82.8684 56.6213 83.1961 56.8414 83.4487 57.1327C83.4483 57.134 83.4483 57.1354 83.4487 57.1367C83.6476 57.3594 83.7981 57.6191 83.8913 57.9002C83.9844 58.1813 84.0183 58.4779 83.9907 58.7721Z" fill="#E06B38"/>
<path id="Vector_3" d="M84 59.9978C83.9859 60.1621 83.9523 60.3243 83.8998 60.481C79.851 72.8262 71.5363 75.9905 62.5104 73.0032L55 61.3084L58.5819 53.0513C58.86 53.0918 59.0805 53.1577 59.226 53.2422C60.4745 53.9807 60.5534 56.1591 60.9928 56.8572C60.6428 69.4348 77.3422 77.3259 83.4579 58.3554C83.4574 58.3567 83.4574 58.3581 83.4579 58.3594C83.4813 58.4202 83.7036 59.0204 84 59.9978Z" fill="#66ACDF"/>
<g id="Group" opacity="0.3">
<path id="Vector_4" opacity="0.3" d="M84 60.0195C83.9859 60.1836 83.9523 60.3455 83.8998 60.502C79.851 72.8281 72.1123 75.9875 63.0861 73.0048L55 61.3281L56.4238 58.0513L60.4622 68.1009C65.3972 71.2556 70.1885 71.8271 74.8021 69.2132C74.8043 69.2132 74.8062 69.211 74.8084 69.2114C77.2834 68.358 79.6745 66.3418 81.5805 62.836C82.0966 62.1437 82.6099 61.4029 83.1205 60.6136C83.2117 60.4753 83.2854 60.3267 83.3402 60.1711C83.3212 59.6461 83.2948 59.2221 83.2754 58.9283C83.3376 58.7465 83.3976 58.5647 83.4579 58.3797C83.4574 58.381 83.4574 58.3824 83.4579 58.3837C83.4813 58.4444 83.7036 59.0436 84 60.0195Z" fill="#31241B"/>
</g>
<path id="Vector_5" d="M83 57.1453C76.8139 69.1875 61.7024 62.4455 66.8512 40.2872L58.0249 9.94378L58 9.05133C68.8853 13.2548 73.1108 24.5375 71.4938 42.0314C70.9065 51.4187 72.5621 58.0571 80.9673 56.427C81.3389 56.3535 81.7231 56.3813 82.0805 56.5076C82.4378 56.6339 82.7553 56.854 83 57.1453Z" fill="#66ACDF"/>
<path id="Vector_6" d="M83 57.1453C76.8139 69.1875 61.7024 62.4455 66.8512 40.2872L58.0249 9.94378L58 9.05133C68.8853 13.2548 73.1108 24.5375 71.4938 42.0314C70.9065 51.4187 72.5621 58.0571 80.9673 56.427C81.3389 56.3535 81.7231 56.3813 82.0805 56.5076C82.4378 56.6339 82.7553 56.854 83 57.1453Z" fill="#E05656"/>
<g id="Group_2" opacity="0.3">
<path id="Vector_7" opacity="0.3" d="M83 57.1453C76.8139 69.1875 61.7024 62.4455 66.8512 40.2872L58.0249 9.94378L58 9.05133C58.6249 9.29368 59.2274 9.55796 59.8074 9.84418L67.2186 35.3273C67.7118 37.022 67.7925 38.807 67.4926 40.5468C64.2539 59.3279 76.3787 65.6144 82.8486 56.9865C82.8991 57.0352 82.9524 57.0905 83 57.1453Z" fill="#31241B"/>
</g>
<g id="Group_3" opacity="0.6">
<path id="Vector_8" opacity="0.6" d="M83 58.4816C82.7208 59.0228 82.4096 59.5469 82.0679 60.0513C81.8085 59.7976 81.4907 59.6106 81.1422 59.5067C80.7937 59.4028 80.425 59.3851 80.068 59.4551C71.2353 61.1432 69.4942 54.2617 70.1126 44.5306C70.1584 44.0339 70.202 43.5405 70.2376 43.0513C70.4494 43.109 70.6669 43.167 70.8848 43.2228C70.3426 52.7361 72.156 59.4035 80.8656 57.738C81.2557 57.662 81.6591 57.6909 82.0343 57.8216C82.4095 57.9523 82.7428 58.1801 83 58.4816Z" fill="#FFF9F2"/>
</g>
<path id="Vector_9" opacity="0.5" d="M16 105.744C13.6429 106.639 10.9553 105.487 8.82769 103.493C5.28876 100.173 3.29468 94.5211 6.93104 92.0513L12.6861 100.737L16 105.744Z" fill="#FAB292"/>
<g id="Group_4" opacity="0.6">
<path id="Vector_10" opacity="0.6" d="M13 105.051C7.45611 103.925 2.01336 95.209 6.90197 92.0513L7.52684 92.9484C4.12728 96.1576 8.22574 103.115 13 105.051Z" fill="#FFF9F2"/>
</g>
<path id="Vector_11" d="M54 91.3313L52.4934 92.2251L49.4117 94.0513L42.3337 90.2609L41.9664 90.0643L39.8721 88.9419L39.463 88.7239L23 79.9061C23.5819 74.7226 25.0729 70.9179 25.8406 69.2342C25.8907 69.1219 25.9391 69.0162 25.9831 68.9253C26.1857 68.4984 26.3104 68.2738 26.3104 68.2738L28.4229 67.9392L52.9068 64.0513L52.965 65.4967L53.1334 69.7022L53.5065 79.0148L53.6883 83.5411L53.7887 86.0267L53.7985 86.2651L54 91.3313Z" fill="#FFF9F2"/>
<path id="Vector_12" opacity="0.5" d="M13.0061 79.0303L12.1713 79.0513C1.97957 70.6882 9.20664 66.2979 13.8679 68.7091C15.227 69.4878 16.6019 70.1165 18 70.5724C18 70.5724 18.0681 75.9184 13.0061 79.0303Z" fill="#FAB292"/>
<g id="Group_5" opacity="0.3">
<path id="Vector_13" opacity="0.3" d="M25 77.346C24.9536 78.0635 24.2986 79.6162 22.5091 81.0513L12.9936 79.8231C12.661 79.5737 12.3444 79.3271 12.0439 79.0831C6.8991 74.924 6.30477 71.7885 7.56028 70.0513C8.10817 70.4854 8.6259 70.9567 9.10984 71.4618C14.7806 77.3405 21.1144 76.0082 21.8439 76.0611L25 77.346Z" fill="#31241B"/>
</g>
<path id="Vector_14" d="M5.01538 82.1664C4.7454 79.71 8.05079 78.3 13.2783 79.4682L43 82.5607L38.3209 88.0061L26.7522 88.0467C26.7522 88.0467 13.8854 88.4311 5.01538 82.1664Z" fill="#A38DBF"/>
<path id="Vector_15" d="M4.58972 82.0513C4.44809 82.0512 4.31151 81.9998 4.20609 81.9071C4.10067 81.8144 4.03383 81.6868 4.01834 81.5488C3.91783 80.6579 4.23187 79.8643 4.92601 79.2536C6.3348 78.0147 9.18439 77.7123 12.549 78.4443C12.6981 78.4767 12.8279 78.5658 12.9099 78.6921C12.9919 78.8183 13.0194 78.9713 12.9863 79.1174C12.9533 79.2636 12.8623 79.3908 12.7336 79.4712C12.6048 79.5516 12.4487 79.5786 12.2997 79.5462C8.76394 78.776 6.56954 79.3242 5.69491 80.0937C5.28281 80.4558 5.10371 80.9038 5.16249 81.425C5.17095 81.5039 5.16245 81.5836 5.13755 81.659C5.11266 81.7344 5.07191 81.8038 5.01793 81.8629C4.96396 81.9219 4.89796 81.9691 4.82421 82.0016C4.75045 82.0341 4.67057 82.051 4.58972 82.0513Z" fill="#31241B"/>
<path id="Vector_16" d="M22.6674 81.0513C22.6423 81.0513 22.6171 81.0499 22.5921 81.0473C22.5051 81.0384 22.4209 81.0139 22.3443 80.9752C22.2676 80.9365 22.2001 80.8844 22.1455 80.8219C22.0909 80.7593 22.0503 80.6876 22.0261 80.6107C22.0018 80.5339 21.9944 80.4534 22.0042 80.3739C22.8974 73.1298 25.6332 68.5573 25.7492 68.3663C25.8347 68.2248 25.9781 68.1201 26.148 68.0753C26.318 68.0304 26.5004 68.0491 26.6553 68.1271C26.8101 68.2052 26.9247 68.3363 26.9738 68.4916C27.0229 68.6469 27.0025 68.8136 26.917 68.9551C26.89 69 24.1924 73.5221 23.3307 80.5097C23.3125 80.6587 23.2348 80.7964 23.1124 80.8964C22.99 80.9964 22.8316 81.0515 22.6674 81.0513Z" fill="#31241B"/>
<path id="Vector_17" d="M69.2954 75.0513C67.4965 75.0513 65.5744 74.7021 63.5291 74.0038C63.5185 74.0001 63.508 73.9964 63.4978 73.992L59.2423 72.2741C59.0897 72.2125 58.9676 72.0921 58.9028 71.9394C58.838 71.7868 58.8358 71.6143 58.8968 71.4601C58.9578 71.3058 59.0769 71.1823 59.2279 71.1168C59.3789 71.0513 59.5495 71.0491 59.7021 71.1107L63.9419 72.8216C67.8962 74.1714 71.3471 74.1189 74.1987 72.665C77.8049 70.8265 80.6601 66.6594 82.6845 60.2792C82.7703 60.0124 82.7852 59.7275 82.7277 59.453C82.6703 59.1786 82.5425 58.9242 82.3572 58.7154C82.1803 58.5105 81.9533 58.3562 81.6988 58.2679C81.4444 58.1796 81.1715 58.1605 80.9074 58.2124C77.7893 58.8187 75.3393 58.3525 73.6254 56.8269C71.122 54.5987 70.1654 50.204 70.6154 42.9968C70.6154 42.9905 70.6154 42.9843 70.6154 42.978C72.2452 25.2963 67.7984 14.2894 57.3979 10.2624C57.322 10.233 57.2525 10.1887 57.1934 10.1322C57.1344 10.0756 57.0869 10.0078 57.0538 9.93274C57.0206 9.85764 57.0024 9.77668 57.0002 9.69447C56.998 9.61227 57.0119 9.53043 57.041 9.45363C57.07 9.37683 57.1138 9.30657 57.1698 9.24687C57.2257 9.18717 57.2927 9.1392 57.367 9.10568C57.4413 9.07217 57.5214 9.05378 57.6027 9.05156C57.684 9.04934 57.765 9.06333 57.8409 9.09273C63.4156 11.2511 67.4157 15.2847 69.7301 21.0796C71.9655 26.6785 72.6787 34.082 71.8498 43.0836C71.4275 49.8672 72.2499 53.935 74.4427 55.8856C75.8739 57.1589 77.9118 57.5174 80.6724 56.9806C81.1477 56.8869 81.6389 56.9209 82.0971 57.0793C82.5552 57.2378 82.9642 57.515 83.2832 57.8833C83.6118 58.2544 83.8382 58.7063 83.9397 59.1937C84.0412 59.6811 84.0142 60.1869 83.8615 60.6605C81.7316 67.3724 78.6673 71.7869 74.7537 73.7821C73.0999 74.6289 71.2744 75.0513 69.2954 75.0513Z" fill="#31241B"/>
<path id="Vector_18" d="M71.2576 69.0513C70.7338 69.0507 70.211 69.0068 69.6946 68.9203C64.0852 67.9863 59.8305 62.2242 60.0052 55.8016C60.0053 55.7332 60.0192 55.6655 60.0461 55.6025C60.073 55.5395 60.1123 55.4825 60.1618 55.4348C60.2113 55.3871 60.2699 55.3497 60.3342 55.3248C60.3984 55.3 60.4671 55.2881 60.5361 55.29C60.6051 55.2918 60.673 55.3073 60.7358 55.3356C60.7986 55.3639 60.8551 55.4044 60.9019 55.4547C60.9487 55.505 60.9849 55.564 61.0083 55.6284C61.0317 55.6927 61.0419 55.7611 61.0382 55.8294C60.8755 61.7525 64.7531 67.0588 69.8657 67.9098C70.318 67.9857 70.7759 68.0241 71.2346 68.0246C74.8971 68.0246 78.1505 65.5156 80.4374 60.9961C77.9583 63.4502 74.8363 64.3163 71.8225 63.2134C69.0078 62.1816 66.7994 59.5831 65.6008 55.8962C64.2468 51.7274 64.273 46.3851 65.6762 40.4468C65.7074 40.3145 65.7903 40.2 65.9068 40.1283C66.0232 40.0567 66.1635 40.0339 66.2969 40.0648C66.4304 40.0958 66.5459 40.178 66.6182 40.2935C66.6904 40.4089 66.7135 40.548 66.6822 40.6803C65.322 46.4377 65.2881 51.5907 66.5843 55.5822C67.6825 58.9631 69.6699 61.3321 72.181 62.2523C75.8176 63.5851 79.6818 61.549 82.024 57.0648C82.0832 56.9505 82.1836 56.8624 82.3053 56.8181C82.4269 56.7737 82.5609 56.7764 82.6807 56.8254C82.8005 56.8745 82.8973 56.9664 82.9519 57.083C83.0065 57.1995 83.0149 57.3321 82.9755 57.4546C80.6278 64.8382 76.3189 69.051 71.2576 69.0513Z" fill="#31241B"/>
<path id="Vector_19" d="M35.0982 81.9691C31.2627 81.5416 28.7646 79.6989 29.0176 77.0983C29.1017 76.2303 29.4772 75.4487 30.0839 74.8109C31.2951 73.5376 33.4199 72.8298 35.9746 73.1135C38.9608 73.4451 41.0894 74.9738 41.7688 76.8609C41.9637 77.3955 42.037 77.9723 41.9825 78.5434C41.7307 81.1428 38.9337 82.3966 35.0982 81.9691Z" fill="#FFC35C"/>
<path id="Vector_20" d="M39.9896 78.3631C39.7389 78.2921 39.4742 78.2855 39.2202 78.3439C38.9662 78.4023 38.7312 78.5238 38.5371 78.6972C38.0266 79.1622 37.3395 79.1264 36.5626 78.837C36.2137 78.7056 35.829 78.7027 35.4781 78.8288C34.6704 79.1217 34.0748 78.8592 33.6041 78.2737C33.3431 77.9493 32.9098 77.8259 32.5017 77.9114C31.8914 78.0358 31.4925 77.8398 31.3529 77.2468C31.2631 76.8533 30.9888 76.5171 30.599 76.4198C30.0167 76.2746 29.8296 75.7424 30.1682 74.6972C31.3888 73.5062 33.5298 72.8441 36.1042 73.1095C39.1133 73.4196 41.2583 74.8496 41.9429 76.6148L42 76.9195C41.7957 78.3881 41.0239 78.6525 39.9896 78.3631Z" fill="#E05656"/>
<g id="Group_6" opacity="0.6">
<path id="Vector_21" opacity="0.6" d="M42 77.7822C41.2242 75.9675 39.1499 74.5248 36.2952 74.2011C33.7337 73.9099 31.6023 74.6363 30.3889 75.9431C29.7816 76.5978 29.4041 77.3999 29.3198 78.2908C29.295 78.5437 29.2966 78.7988 29.3244 79.0513C29.0598 78.4821 28.9535 77.84 29.0187 77.2049C29.103 76.314 29.4795 75.5118 30.0878 74.8572C31.3022 73.5504 33.4326 72.824 35.9941 73.1152C38.9881 73.4554 41.1224 75.0244 41.8035 76.9612C41.8973 77.2257 41.9632 77.5012 42 77.7822Z" fill="#FFF9F2"/>
</g>
<path id="Vector_22" d="M36.0304 82.0513C35.535 82.0504 35.04 82.0222 34.5473 81.9668C32.5484 81.7452 30.8825 81.154 29.7284 80.2562C28.4702 79.2778 27.8794 77.9947 28.0204 76.5464C28.3092 73.5768 31.5361 71.6732 35.5268 72.1148C39.4943 72.5542 42.2682 75.1225 41.9794 78.0922C41.8384 79.5408 41.0131 80.667 39.5932 81.3489C38.6244 81.813 37.4111 82.0513 36.0304 82.0513ZM34.3802 73.0887C31.4411 73.0887 29.1962 74.521 28.9903 76.6538C28.8857 77.7286 29.3276 78.6583 30.3039 79.4175C31.319 80.2071 32.8221 80.7314 34.6497 80.9339C36.4773 81.1364 38.0493 80.9526 39.1952 80.4009C40.2967 79.8721 40.9085 79.0588 41.0131 77.9841C41.2444 75.6045 38.8436 73.5246 35.4282 73.1466C35.0801 73.1076 34.7303 73.0879 34.3802 73.0876V73.0887Z" fill="#31241B"/>
<g id="Group_7" opacity="0.3">
<path id="Vector_23" opacity="0.3" d="M35.0368 80.9711C31.8089 80.6217 29.5196 79.3122 29 77.4125C30.0812 78.2303 31.6763 78.7828 33.6088 78.9915C37.4774 79.4088 40.2986 78.1848 40.5537 75.646C40.6066 75.1056 40.5382 74.5597 40.3539 74.0513C41.0194 74.6113 41.5038 75.2716 41.7668 75.9831C41.9634 76.505 42.0373 77.0681 41.9824 77.6256C41.7265 80.1644 38.9054 81.3884 35.0368 80.9711Z" fill="#31241B"/>
</g>
<path id="Vector_24" d="M36.9456 74.3331C37.2981 74.4874 37.6481 74.7294 37.8677 75.1403C37.9795 75.3563 38.0221 75.6059 37.9891 75.8507C37.9541 76.1035 37.8386 76.3353 37.6624 76.5066C37.3224 76.8377 36.9101 76.9438 36.5289 77.0113C35.7626 77.1096 34.9856 77.0264 34.2523 76.7674C34.0634 76.6976 33.8816 76.6071 33.7099 76.4973C33.5242 76.3833 33.3604 76.2322 33.2273 76.0521C33.0802 75.8562 33 75.6119 33 75.36C33 75.1081 33.0802 74.8639 33.2273 74.668C33.5114 74.3003 33.9001 74.1336 34.273 74.0541C34.3073 74.0469 34.3428 74.0538 34.3725 74.0734C34.4022 74.0931 34.424 74.1241 34.4335 74.1602C34.443 74.1963 34.4396 74.235 34.4238 74.2685C34.4081 74.3021 34.3813 74.328 34.3486 74.3412H34.3458C34.0255 74.4697 33.716 74.6568 33.5619 74.9277C33.4852 75.0491 33.4489 75.1949 33.4587 75.3413C33.4689 75.4818 33.5226 75.6144 33.6114 75.7179C33.8016 75.9421 34.1043 76.1099 34.4239 76.2145C35.0835 76.4251 35.7741 76.4996 36.4594 76.4341C36.7894 76.3955 37.1179 76.2963 37.3339 76.1092C37.4363 76.0231 37.5083 75.9019 37.5381 75.7658C37.5693 75.6214 37.5551 75.4699 37.4976 75.3351C37.3869 75.038 37.1157 74.7923 36.8234 74.602H36.8209C36.7905 74.5828 36.7681 74.5519 36.7582 74.5155C36.7482 74.4792 36.7515 74.4401 36.7673 74.4062C36.7831 74.3723 36.8103 74.3462 36.8433 74.3331C36.8764 74.3201 36.9128 74.321 36.9452 74.3358L36.9456 74.3331Z" fill="#31241B"/>
<path id="Vector_25" d="M37.1289 79.0513C36.7814 79.0513 36.3933 78.9731 35.9614 78.8159C35.6777 78.7121 35.3651 78.7097 35.0797 78.8091C34.1763 79.1267 33.402 78.9056 32.7782 78.1519C32.5996 77.9376 32.2916 77.8408 31.9744 77.9043C31.1513 78.069 30.5785 77.7379 30.401 76.996C30.3298 76.6981 30.1266 76.4744 29.8702 76.4123C29.5407 76.3323 29.2999 76.1622 29.153 75.9058C28.9372 75.5286 28.9498 74.9952 29.1899 74.2758C29.2035 74.2353 29.2253 74.1977 29.2539 74.1652C29.2825 74.1328 29.3174 74.1061 29.3567 74.0867C29.3959 74.0674 29.4388 74.0557 29.4827 74.0523C29.5266 74.049 29.5708 74.054 29.6127 74.0672C29.6546 74.0804 29.6934 74.1014 29.7269 74.1292C29.7604 74.1569 29.788 74.1907 29.808 74.2287C29.828 74.2667 29.84 74.3082 29.8435 74.3507C29.847 74.3932 29.8417 74.436 29.8281 74.4766C29.5946 75.1731 29.6721 75.4739 29.7392 75.5911C29.7735 75.6507 29.841 75.7357 30.0321 75.7822C30.5342 75.9036 30.9256 76.3126 31.054 76.8495C31.1347 77.1889 31.2937 77.3764 31.8379 77.2685C32.4034 77.1556 32.9641 77.34 33.3009 77.7457C33.7436 78.2815 34.2206 78.4201 34.8503 78.1987C35.2858 78.0465 35.7631 78.0498 36.1964 78.208C37.2119 78.5762 37.6446 78.3412 37.8818 78.1326C38.1238 77.9229 38.4165 77.7756 38.7329 77.7044C39.0492 77.6333 39.379 77.6405 39.6916 77.7254C40.1834 77.8593 40.5438 77.8472 40.7935 77.6897C41.0691 77.515 41.251 77.1321 41.334 76.5512C41.3484 76.4679 41.3959 76.3932 41.4662 76.3432C41.5366 76.2932 41.6243 76.2717 41.7108 76.2833C41.7973 76.295 41.8756 76.3388 41.9293 76.4055C41.9829 76.4722 42.0075 76.5565 41.998 76.6405C41.8873 77.4264 41.6117 77.9472 41.1606 78.233C40.7389 78.5002 40.1992 78.5387 39.5098 78.3512C39.3066 78.2957 39.0923 78.2907 38.8867 78.3366C38.681 78.3824 38.4906 78.4778 38.333 78.6138C38.0017 78.9056 37.603 79.0513 37.1289 79.0513Z" fill="#31241B"/>
<g id="Group_8" opacity="0.3">
<path id="Vector_26" opacity="0.3" d="M39 76.1321C37.6338 74.6689 34.9215 74.8006 34.0033 75.8748C33.8568 77.111 38.5871 77.6357 39 76.1321Z" fill="#31241B"/>
</g>
<path id="Vector_27" d="M24.1912 82.825C20.3758 83.543 17.484 82.5383 17.0517 80.0145C16.9084 79.1732 17.066 78.3281 17.4861 77.5498V77.5479C18.3235 75.9957 20.1924 74.7081 22.7335 74.2285C25.7037 73.6664 28.1575 74.4859 29.3047 76.0647C29.632 76.5109 29.853 77.0323 29.9494 77.5858C30.382 80.1093 28.0071 82.107 24.1912 82.825Z" fill="#FFC35C"/>
<path id="Vector_28" d="M27.4349 78.0725C27.1748 78.0736 26.9192 78.1385 26.692 78.2611C26.4648 78.3837 26.2733 78.5601 26.1355 78.7738C25.7752 79.3432 25.1075 79.4969 24.2827 79.4331C23.9116 79.4042 23.5421 79.5046 23.2407 79.7162C22.5484 80.2065 21.9044 80.1215 21.2905 79.7023C20.9502 79.4699 20.5004 79.4712 20.1332 79.6604C19.5813 79.9407 19.1454 79.863 18.8481 79.3481C18.6533 79.0066 18.2962 78.7661 17.894 78.7804C17.2951 78.8012 16.9681 78.3557 17.0025 77.2907V77.289C17.8399 75.8518 19.7088 74.6595 22.25 74.2154C25.2203 73.6949 27.6742 74.4537 28.8214 75.9156L28.9607 76.1842C29.1728 77.6107 28.5066 78.0642 27.4349 78.0725Z" fill="#E05656"/>
<g id="Group_9" opacity="0.6">
<path id="Vector_29" opacity="0.6" d="M30 76.5563C28.7646 75.2259 26.3452 74.5604 23.4471 75.0554C20.8444 75.4991 18.9334 76.6901 18.076 78.1258V78.1275C17.6464 78.8468 17.4836 79.6291 17.6314 80.4073C17.6725 80.6286 17.7403 80.8446 17.8334 81.0513C17.4245 80.6399 17.153 80.1236 17.0529 79.5671C16.9063 78.7889 17.0676 78.0073 17.4976 77.2873V77.2856C18.3546 75.8499 20.2674 74.6589 22.8683 74.2152C25.9083 73.6953 28.4197 74.4533 29.5938 75.9137C29.7547 76.1125 29.891 76.3281 30 76.5563Z" fill="#FFF9F2"/>
</g>
<path id="Vector_30" d="M21.4253 83.0513C18.4639 83.0513 16.4394 81.8029 16.0606 79.6008C15.5628 76.7139 18.1794 73.9753 22.147 73.2301C26.0926 72.4895 29.4425 74.1085 29.9404 76.995C30.1832 78.404 29.6814 79.7075 28.4891 80.7655C27.3958 81.7351 25.7673 82.4451 23.7801 82.8182C23.0033 82.9684 22.2153 83.0465 21.4253 83.0513ZM24.038 74.0696C23.4619 74.0713 22.8871 74.1263 22.3202 74.2339C18.9015 74.8761 16.6241 77.1054 17.0234 79.4197C17.3917 81.5555 19.9758 82.4952 23.6069 81.8148C25.4244 81.4739 26.8932 80.8418 27.8556 79.9889C28.7803 79.1686 29.1581 78.2225 28.9776 77.1773C28.648 75.2653 26.6397 74.0699 24.038 74.0699V74.0696Z" fill="#31241B"/>
<g id="Group_10" opacity="0.3">
<path id="Vector_31" opacity="0.3" d="M23.9768 81.8365C20.6763 82.4048 18.0419 81.8365 17 80.2416C18.2996 80.6924 20.0354 80.7595 22.0126 80.4192C25.9682 79.7383 28.4303 77.8452 27.9818 75.4543C27.8853 74.9457 27.6667 74.4654 27.3431 74.0513C28.16 74.381 28.8205 74.8516 29.2795 75.4295C29.6189 75.8524 29.848 76.3466 29.9478 76.8712C30.3949 79.2624 27.9327 81.1559 23.9768 81.8365Z" fill="#31241B"/>
</g>
<path id="Vector_32" d="M24.5887 75.0513C24.9689 75.0921 25.3705 75.2142 25.6895 75.5293C25.8534 75.6952 25.9593 75.9115 25.9911 76.1448C26.0223 76.3859 25.9706 76.6306 25.8448 76.8371C25.6026 77.2371 25.2321 77.4515 24.8803 77.6221C24.1653 77.9308 23.3927 78.0762 22.6167 78.0479C22.4161 78.0383 22.2171 78.0075 22.0227 77.9559C21.8137 77.9046 21.6161 77.8132 21.4406 77.6865C21.2475 77.5491 21.1063 77.3484 21.0407 77.1178C20.9752 76.8871 20.9891 76.6405 21.0802 76.4191C21.2604 76.0018 21.5916 75.7378 21.9315 75.5591C21.9627 75.5429 21.9987 75.5393 22.0324 75.5488C22.0661 75.5584 22.0951 75.5805 22.1136 75.6108C22.1321 75.6411 22.1388 75.6773 22.1324 75.7124C22.126 75.7475 22.1069 75.7788 22.0789 75.8003L22.0764 75.8021C21.8003 76.011 21.5498 76.2709 21.4712 76.5625C21.4285 76.6955 21.4311 76.8393 21.4788 76.9706C21.5253 77.0962 21.6117 77.2022 21.7243 77.2717C21.9661 77.4228 22.301 77.4901 22.6383 77.4945C23.3304 77.4991 24.0172 77.3705 24.6626 77.1155C24.9715 76.9857 25.2634 76.8015 25.4234 76.5687C25.5 76.4607 25.5381 76.3294 25.5316 76.1963C25.5243 76.0552 25.4713 75.9206 25.3809 75.8135C25.1967 75.5731 24.8709 75.4256 24.5386 75.3333H24.5357C24.5019 75.3238 24.4729 75.3017 24.4544 75.2714C24.4359 75.2411 24.4291 75.2048 24.4356 75.1697C24.442 75.1346 24.4611 75.1032 24.4891 75.0817C24.5171 75.0603 24.552 75.0504 24.5869 75.0539L24.5887 75.0513Z" fill="#31241B"/>
<path id="Vector_33" d="M22.769 81.0513C22.3662 81.0513 21.9594 80.8999 21.5487 80.5971C21.3154 80.4251 20.9931 80.4159 20.7075 80.5744C19.966 80.9839 19.322 80.8057 18.9411 80.0889C18.7876 79.8005 18.5289 79.6262 18.2651 79.6377C17.9291 79.6489 17.6472 79.544 17.4334 79.3208C17.1187 78.9919 16.9778 78.4339 17.0028 77.6199C17.0076 77.5276 17.0461 77.4409 17.1104 77.3776C17.1747 77.3144 17.2598 77.2796 17.348 77.2806C17.4367 77.2836 17.5206 77.3234 17.5814 77.3912C17.6421 77.459 17.6746 77.5493 17.6719 77.6423C17.6472 78.4327 17.808 78.7219 17.9055 78.8241C17.9556 78.8762 18.0457 78.9444 18.2411 78.9371C18.7563 78.9159 19.2491 79.2282 19.5255 79.7469C19.7003 80.0754 19.9075 80.2246 20.3965 79.9535C20.9062 79.6721 21.4958 79.699 21.9355 80.0237C22.5125 80.4479 23.0101 80.456 23.5492 80.0438C23.9232 79.7595 24.3818 79.6244 24.8424 79.6628C25.9213 79.7499 26.2687 79.3805 26.4362 79.0948C26.6081 78.8068 26.8467 78.569 27.1297 78.4034C27.4128 78.2378 27.7312 78.1497 28.0554 78.1474C28.5647 78.1435 28.9066 78.0263 29.1009 77.7896C29.3147 77.5285 29.3794 77.0785 29.293 76.4523C29.2867 76.4067 29.289 76.3603 29.2998 76.3157C29.3106 76.271 29.3297 76.2291 29.356 76.1922C29.3823 76.1553 29.4153 76.1242 29.4531 76.1006C29.4908 76.0771 29.5326 76.0616 29.5761 76.055C29.6196 76.0484 29.6639 76.0508 29.7065 76.0621C29.7491 76.0735 29.7892 76.0935 29.8244 76.121C29.8596 76.1486 29.8893 76.1831 29.9118 76.2227C29.9342 76.2623 29.9491 76.3061 29.9554 76.3517C30.0728 77.2 29.959 77.8169 29.6087 78.2465C29.2808 78.646 28.7745 78.843 28.0605 78.8484C27.8499 78.8496 27.643 78.9065 27.4589 79.0138C27.2749 79.1211 27.1197 79.2754 27.0077 79.4623C26.6029 80.1564 25.8768 80.4506 24.7923 80.3615C24.491 80.3368 24.191 80.4249 23.9459 80.6102C23.5588 80.9043 23.1665 81.0513 22.769 81.0513Z" fill="#31241B"/>
<g id="Group_11" opacity="0.3">
<path id="Vector_34" opacity="0.3" d="M25.9999 76.4723C24.2278 75.5219 21.5927 76.318 21 77.4973C21.2145 78.6252 26.0299 77.9043 25.9999 76.4723Z" fill="#31241B"/>
</g>
<path id="Vector_35" d="M38.2074 86.8155C34.3935 87.549 31.4968 86.5572 31.0547 84.0388C30.9067 83.1985 31.0626 82.3538 31.4796 81.5739C32.3115 80.0193 34.1764 78.7249 36.7162 78.2355C39.6853 77.663 42.1431 78.4695 43.2964 80.0421C43.6256 80.4866 43.8486 81.0067 43.9471 81.5593C44.3895 84.0762 42.0213 86.082 38.2074 86.8155Z" fill="#FFC35C"/>
<path id="Vector_36" d="M42.4388 82.0528C42.1787 82.0549 41.9234 82.1207 41.6967 82.2441C41.47 82.3675 41.2792 82.5445 41.1422 82.7585C40.7839 83.3289 40.1168 83.485 39.2914 83.4257C38.9208 83.3989 38.5525 83.5007 38.2523 83.7128C37.5616 84.2052 36.917 84.123 36.3012 83.7066C35.9597 83.4756 35.5101 83.4787 35.1432 83.6691C34.5926 83.9514 34.1562 83.8772 33.857 83.3629C33.6603 83.0227 33.3024 82.7834 32.8997 82.7994C32.301 82.8226 31.9721 82.3784 32.0019 81.3138C32.8338 79.8739 34.6986 78.6751 37.2384 78.2219C40.2075 77.6917 42.6652 78.4386 43.8185 79.8951L43.9593 80.1628C44.1754 81.5857 43.5108 82.0417 42.4388 82.0528Z" fill="#E05656"/>
<g id="Group_12" opacity="0.6">
<path id="Vector_37" opacity="0.6" d="M44 80.5274C42.7582 79.2061 40.334 78.5522 37.4355 79.0562C34.8349 79.508 32.9255 80.7022 32.0736 82.1365C31.6466 82.855 31.4867 83.635 31.6386 84.4102C31.6806 84.6306 31.7492 84.8457 31.8433 85.0513C31.4325 84.6429 31.1586 84.1294 31.056 83.5753C30.9045 82.8001 31.0641 82.0208 31.4911 81.3012C32.3429 79.8669 34.2524 78.6727 36.853 78.2212C39.8931 77.693 42.4097 78.4371 43.5906 79.888C43.7525 80.0857 43.8899 80.3003 44 80.5274Z" fill="#FFF9F2"/>
</g>
<path id="Vector_38" d="M36.3843 88.0513C35.3767 88.0513 34.4685 87.9059 33.6957 87.617C32.222 87.066 31.3117 86.0317 31.0634 84.6265C30.5542 81.7453 33.1614 78.9985 37.1274 78.2378C41.0711 77.4816 44.4285 79.0845 44.9377 81.9662C45.186 83.3724 44.689 84.6766 43.5003 85.7379C42.4102 86.7097 40.7841 87.4271 38.7977 87.808C38.0019 87.9649 37.1941 88.0464 36.3843 88.0513ZM39.0578 79.0677C38.4696 79.0694 37.8828 79.1269 37.3046 79.2393C33.8869 79.8945 31.6178 82.131 32.0257 84.4408C32.2102 85.4844 32.8829 86.2302 34.0261 86.6574C35.2152 87.1019 36.8037 87.1527 38.619 86.8043C40.4342 86.4559 41.9028 85.819 42.862 84.9626C43.7841 84.1402 44.1584 83.193 43.9743 82.1497C43.6406 80.2519 41.6434 79.0677 39.0585 79.0677H39.0578Z" fill="#31241B"/>
<g id="Group_13" opacity="0.3">
<path id="Vector_39" opacity="0.3" d="M38.9902 86.8287C35.6887 87.4069 33.0496 86.8496 32 85.2646C33.3008 85.7092 35.0402 85.7694 37.0174 85.423C40.9741 84.7289 43.4305 82.8311 42.9718 80.4482C42.8731 79.9413 42.6522 79.4631 42.3266 79.0513C43.1443 79.3769 43.8088 79.8438 44.2704 80.4185C44.6118 80.8391 44.8432 81.3312 44.9453 81.854C45.4032 84.2368 42.9465 86.1347 38.9902 86.8287Z" fill="#31241B"/>
</g>
<path id="Vector_40" d="M39.5831 80.0526C39.9639 80.0915 40.3661 80.2118 40.6863 80.5229C40.851 80.6879 40.9579 80.9032 40.9907 81.1359C41.0226 81.3764 40.9717 81.6208 40.8464 81.8274C40.6055 82.2273 40.2366 82.4426 39.8842 82.6146C39.17 82.9255 38.3976 83.0736 37.6212 83.0486C37.4203 83.0398 37.2209 83.0099 37.0261 82.9595C36.8168 82.9089 36.6189 82.8183 36.4429 82.6924C36.2494 82.5559 36.1078 82.3561 36.0416 82.1263C35.9753 81.8965 35.9886 81.6505 36.079 81.4294C36.2565 81.0123 36.5883 80.7478 36.9276 80.568C36.9588 80.5517 36.9949 80.5478 37.0287 80.5572C37.0626 80.5666 37.0917 80.5886 37.1103 80.6189C37.129 80.6491 37.1358 80.6853 37.1294 80.7204C37.123 80.7555 37.1039 80.7869 37.0759 80.8083H37.0733C36.7978 81.0178 36.5482 81.2779 36.4711 81.5691C36.4287 81.702 36.4319 81.8456 36.4801 81.9763C36.5268 82.1015 36.6137 82.207 36.7268 82.2757C36.9695 82.4257 37.306 82.4914 37.6421 82.4958C38.3347 82.4979 39.0214 82.3667 39.666 82.1091C39.9748 81.9785 40.2662 81.794 40.4256 81.5607C40.5025 81.453 40.5407 81.3217 40.5338 81.1887C40.5261 81.048 40.4726 80.9139 40.3816 80.8076C40.1962 80.5688 39.8698 80.4224 39.5369 80.3307H39.534C39.5005 80.3211 39.4717 80.2991 39.4532 80.269C39.4348 80.2389 39.4281 80.2029 39.4343 80.1681C39.4406 80.1332 39.4594 80.102 39.4871 80.0805C39.5149 80.059 39.5495 80.0488 39.5842 80.0519L39.5831 80.0526Z" fill="#31241B"/>
<path id="Vector_41" d="M37.7769 85.0513C37.3764 85.0513 36.9715 84.9024 36.5621 84.6046C36.3284 84.4347 36.0059 84.4274 35.7206 84.5854C34.9803 84.9957 34.3357 84.8224 33.9503 84.1098C33.7957 83.8238 33.5354 83.6516 33.2726 83.6638C32.9347 83.6799 32.6542 83.5733 32.4392 83.3521C32.123 83.0268 31.9801 82.4738 32.0022 81.6624C32.0059 81.5704 32.044 81.4836 32.1082 81.4203C32.1724 81.3571 32.2577 81.3225 32.346 81.3237C32.39 81.325 32.4333 81.3353 32.4734 81.3541C32.5135 81.3728 32.5497 81.3995 32.5799 81.4328C32.6101 81.4661 32.6337 81.5053 32.6493 81.5481C32.665 81.5909 32.6724 81.6365 32.6711 81.6823C32.6497 82.4681 32.8113 82.7561 32.9096 82.8562C32.9597 82.908 33.048 82.9732 33.2457 82.9674C33.7611 82.9467 34.2551 83.2523 34.5341 83.7678C34.7105 84.0937 34.9181 84.241 35.4066 83.9699C35.9153 83.6876 36.5051 83.7118 36.9461 84.0331C37.5247 84.455 38.0228 84.4584 38.5606 84.0462C38.9339 83.7628 39.3917 83.6269 39.8524 83.6627C40.9321 83.7459 41.2781 83.3766 41.4445 83.0917C41.6153 82.8048 41.8529 82.5675 42.1351 82.4016C42.4173 82.2357 42.735 82.1466 43.059 82.1425C43.5685 82.1364 43.9105 82.0186 44.1038 81.7824C44.3169 81.522 44.3799 81.0741 44.2908 80.4517C44.2843 80.4063 44.2865 80.3601 44.2971 80.3157C44.3078 80.2712 44.3268 80.2294 44.3529 80.1926C44.3791 80.1557 44.412 80.1246 44.4497 80.1011C44.4874 80.0775 44.5292 80.0619 44.5728 80.0551C44.6163 80.0484 44.6606 80.0506 44.7033 80.0617C44.746 80.0729 44.7861 80.0926 44.8215 80.1199C44.8568 80.1472 44.8867 80.1814 44.9093 80.2207C44.9319 80.26 44.9469 80.3036 44.9534 80.3489C45.0734 81.1926 44.9622 81.8085 44.6133 82.2349C44.2871 82.6334 43.7813 82.8313 43.0672 82.8397C42.8566 82.8417 42.65 82.8989 42.4663 83.0062C42.2827 83.1134 42.128 83.2672 42.0165 83.4533C41.6116 84.1436 40.8883 84.4393 39.8038 84.3572C39.5019 84.3328 39.2015 84.4218 38.9571 84.608C38.5702 84.9033 38.1763 85.0513 37.7769 85.0513Z" fill="#31241B"/>
<g id="Group_14" opacity="0.3">
<path id="Vector_42" opacity="0.3" d="M40.9998 80.4646C39.222 79.5235 36.588 80.3264 36 81.5039C36.2199 82.6284 41.0367 81.8912 40.9998 80.4646Z" fill="#31241B"/>
</g>
<path id="Vector_43" d="M88.9998 91.9398C88.8522 104.292 73.6879 112.615 62 102.593L63.0829 98.0147L65.6331 87.2312L66.3231 84.318C66.3231 84.318 69.9481 82.3069 77.3428 89.3299C82.0427 93.7914 85.4013 92.5828 87.2229 91.1084C87.367 90.9891 87.541 90.9096 87.7271 90.8779C87.9131 90.8463 88.1045 90.8636 88.2814 90.9283C88.4951 91.002 88.6796 91.1396 88.8086 91.3216C88.9376 91.5036 89.0045 91.7207 88.9998 91.9419V91.9398Z" fill="#E06B38"/>
<g id="Group_15" opacity="0.6">
<path id="Vector_44" opacity="0.6" d="M87 93.5615C82.5798 100.657 75.3799 98.2731 71.5508 93.7528C68.3353 89.9582 66.1118 90.6489 66.1118 90.6489L65 88.0672L65.7005 85.2073C65.7005 85.2073 65.8556 85.1235 66.1695 85.0513L65.6716 87.0898L66.7834 89.6714C66.7834 89.6714 69.007 88.9807 72.2225 92.7753C75.8635 97.0715 82.5548 99.4381 87 93.5615Z" fill="#FFF9F2"/>
</g>
<path id="Vector_45" d="M87 91.2623C82.9329 101.224 75.2219 98.6704 71.2663 93.4595C68.1926 89.4052 66.0637 90.145 66.0637 90.145L65 87.3867L65.6702 84.3311C65.6702 84.3311 69.1915 82.2216 76.3745 89.5881C80.9398 94.2677 84.2023 93 85.9718 91.4535C86.1115 91.3281 86.2805 91.2442 86.4612 91.2106C86.642 91.177 86.828 91.1948 87 91.2623Z" fill="#E05656"/>
<g id="Group_16" opacity="0.3">
<path id="Vector_46" opacity="0.3" d="M87 90.6116C82.9329 100.061 75.2219 97.6385 71.2663 92.6957C68.1926 88.8501 66.0637 89.5518 66.0637 89.5518L65 86.9355L65.4351 85.0513L66.301 87.1788C66.301 87.1788 68.4285 86.4789 71.505 90.3245C75.0201 94.7179 81.5043 97.1199 85.7564 90.9632C85.828 90.9077 85.9026 90.8503 85.9714 90.793C86.1112 90.6739 86.2802 90.5944 86.461 90.5625C86.6419 90.5306 86.8279 90.5476 87 90.6116Z" fill="#31241B"/>
</g>
<g id="Group_17" opacity="0.6">
<path id="Vector_47" opacity="0.6" d="M86.6612 94.0155C86.9157 93.5271 87.1623 92.9984 87.3938 92.4314C87.2181 92.3626 87.0282 92.3442 86.8434 92.3779C86.6587 92.4115 86.4859 92.4962 86.3429 92.6231C84.5344 94.1926 81.2 95.4784 76.5341 90.7304C70.6154 84.7051 67.1297 84.9294 66 85.2422L66.2 84.3352C66.2 84.3352 69.7989 82.1949 77.1403 89.6689C81.8062 94.4168 85.1407 93.1307 86.9491 91.5616C87.0921 91.4347 87.2649 91.35 87.4497 91.3163C87.6344 91.2826 87.8244 91.3011 88 91.3699C87.6284 92.291 87.1804 93.1762 86.6612 94.0155Z" fill="#FFF9F2"/>
</g>
<path id="Vector_48" d="M88.9998 92.0571C88.8522 104.314 73.6879 112.572 62 102.628L63.0829 98.0849L65.5354 96.9944C70.4123 102.912 86.2828 107.051 88.2814 91.0513C88.2814 91.0513 88.4851 91.205 88.8393 91.487C88.948 91.6583 89.0037 91.8561 88.9998 92.0571Z" fill="#EC9A9A"/>
<path id="Vector_49" d="M88.9998 92.0571C88.8522 104.314 73.6879 112.572 62 102.628L63.0829 98.0849L65.5354 96.9944C70.4123 102.912 86.2828 107.051 88.2814 91.0513C88.2814 91.0513 88.4851 91.205 88.8393 91.487C88.948 91.6583 89.0037 91.8561 88.9998 92.0571Z" fill="#66ACDF"/>
<g id="Group_18" opacity="0.3">
<path id="Vector_50" opacity="0.3" d="M88 97.2893C84.0355 106.568 71.8062 111.134 62 102.333L63.0951 97.4868L64.0235 97.0513L63.4242 99.704C72.2528 107.628 83.0434 104.718 88 97.2893Z" fill="#31241B"/>
</g>
<g id="Group_19" opacity="0.6">
<path id="Vector_51" opacity="0.6" d="M84 99.9001C78.6413 105.826 68.4207 102.377 64.6943 97.8807L63 98.6307L63.1207 98.1231L65.5453 97.0513C69.0828 101.319 78.4702 104.644 84 99.9001Z" fill="#FFF9F2"/>
</g>
<g id="Group_20" opacity="0.3">
<path id="Vector_52" opacity="0.3" d="M88 91.3511C85.472 106.884 70.0568 102.61 65.251 96.5492L62.7828 97.6895L62.2377 100.069C62.1578 100.002 62.0798 99.9344 62 99.8645L63.0899 95.1135L65.5585 93.9731C70.1144 99.7158 84.1957 103.856 87.8073 91.0513C87.8689 91.147 87.9324 91.2476 88 91.3511Z" fill="#31241B"/>
</g>
<path id="Vector_53" d="M72.9096 108.051C68.8199 108.051 64.7153 106.427 61.2062 103.293C61.0854 103.185 61.0117 103.033 61.0013 102.869C60.9908 102.706 61.0445 102.546 61.1506 102.423C61.2566 102.3 61.4062 102.225 61.5666 102.214C61.727 102.204 61.8849 102.258 62.0057 102.366C67.0248 106.85 73.328 108.028 78.8668 105.517C84.219 103.09 87.7215 97.7099 87.7892 91.8083C87.7916 91.7156 87.7674 91.6243 87.7196 91.5454C87.6717 91.4665 87.6023 91.4035 87.5198 91.3641C87.4395 91.3233 87.349 91.3076 87.2599 91.3192C87.1708 91.3307 87.0871 91.3689 87.0194 91.4289C85.2623 92.9109 81.5438 94.6384 76.4076 89.5576C69.5875 82.8108 66.2275 84.4537 66.1945 84.4723C66.0548 84.5531 65.8893 84.5742 65.7343 84.5308C65.5794 84.4874 65.4477 84.3832 65.3683 84.2411C65.2889 84.099 65.2682 83.9306 65.3109 83.773C65.3535 83.6153 65.4559 83.4814 65.5956 83.4006C65.7589 83.306 69.6754 81.1794 77.2514 88.674C80.6027 91.9882 83.7124 92.6138 86.2452 90.4797C86.4926 90.2708 86.7937 90.1386 87.1128 90.0985C87.4318 90.0585 87.7555 90.1123 88.0454 90.2537C88.3353 90.395 88.5793 90.618 88.7485 90.8961C88.9176 91.1742 89.0048 91.4958 88.9998 91.8228C88.9266 98.204 85.1422 104.021 79.3588 106.644C77.3305 107.57 75.1328 108.049 72.9096 108.051Z" fill="#31241B"/>
<path id="Vector_54" d="M77.5142 103.051C72.6875 103.051 67.5874 100.453 65.1124 97.3204C65.0703 97.2671 65.039 97.206 65.0202 97.1405C65.0015 97.075 64.9957 97.0063 65.0032 96.9386C65.0107 96.8708 65.0313 96.8052 65.0639 96.7454C65.0965 96.6857 65.1404 96.633 65.1931 96.5905C65.2458 96.5479 65.3064 96.5162 65.3712 96.4973C65.436 96.4783 65.5039 96.4725 65.571 96.48C65.6381 96.4876 65.703 96.5085 65.7621 96.5414C65.8212 96.5743 65.8733 96.6187 65.9155 96.672C68.7537 100.264 75.2851 103.106 80.4851 101.615C83.8477 100.65 86.1807 98.0186 87.3384 93.9348C85.3706 96.7861 83.1166 97.7169 81.3995 97.9512C78.0887 98.403 74.3815 96.6012 71.728 93.249C68.8432 89.605 66.8895 90.1096 66.8701 90.1153C66.8063 90.1364 66.7389 90.1446 66.6719 90.1393C66.6049 90.134 66.5396 90.1154 66.4798 90.0845C66.42 90.0536 66.3668 90.011 66.3234 89.9592C66.2799 89.9074 66.247 89.8475 66.2266 89.7828C66.185 89.6511 66.1966 89.5081 66.2588 89.385C66.3211 89.2619 66.429 89.1687 66.559 89.1257C66.6633 89.0907 69.1476 88.3266 72.5307 92.6006C74.9598 95.6688 78.3063 97.3242 81.262 96.9217C84.0608 96.5398 86.3953 94.3294 88.014 90.5291C88.0628 90.4143 88.1509 90.3211 88.2622 90.2666C88.3735 90.2122 88.5006 90.2001 88.62 90.2326C88.7394 90.2652 88.8432 90.3402 88.9123 90.4438C88.9814 90.5474 89.0112 90.6728 88.9962 90.7969C88.0274 98.8896 83.9855 101.69 80.7657 102.614C79.7201 102.914 78.6238 103.051 77.5142 103.051Z" fill="#31241B"/>
<path id="Vector_55" d="M12.6009 80.0513C12.4703 80.0515 12.3432 80.0079 12.2388 79.9272C4.755 74.1742 5.75179 70.5664 6.52801 69.2819C7.77537 67.2165 11.0057 66.6062 13.5816 67.9489L13.6036 67.961C15.4973 69.0514 17.3822 69.8034 19.2057 70.2001C19.6025 70.2855 20.0133 70.2731 20.4044 70.1639C20.7956 70.0548 21.1561 69.852 21.4565 69.5722L23.9878 67.2127C24.0467 67.1578 24.1155 67.1154 24.1904 67.0878C24.2652 67.0602 24.3446 67.0481 24.424 67.0521C24.5034 67.056 24.5813 67.0761 24.6532 67.111C24.7251 67.1459 24.7896 67.195 24.843 67.2556C24.8964 67.3161 24.9377 67.3869 24.9645 67.4638C24.9913 67.5408 25.0032 67.6224 24.9993 67.704C24.9954 67.7856 24.9759 67.8657 24.942 67.9396C24.908 68.0135 24.8602 68.0798 24.8013 68.1347L22.27 70.4946C21.8274 70.9062 21.2964 71.2044 20.7203 71.3649C20.1442 71.5254 19.5394 71.5436 18.9552 71.418C17.0165 70.9969 15.0199 70.2013 13.0234 69.0537C11.0211 68.0159 8.46892 68.428 7.55663 69.9384C6.30744 72.0065 8.32882 75.3677 12.9642 78.9308C13.066 79.0091 13.1412 79.1184 13.1792 79.2431C13.2172 79.3679 13.216 79.5017 13.1758 79.6258C13.1356 79.7498 13.0584 79.8576 12.9552 79.934C12.8521 80.0104 12.7281 80.0514 12.6009 80.0513Z" fill="#31241B"/>
<path id="Vector_56" d="M10.8751 74.922C6.31916 76.7975 2.47788 76.3586 1.30913 73.4437C0.918676 72.4711 0.904452 71.4131 1.23052 70.3677V70.3655C1.88115 68.2788 3.87835 66.2339 6.91214 64.9853C10.4581 63.5237 13.7086 63.8538 15.528 65.4451C16.0461 65.8944 16.4511 66.4622 16.7094 67.1015C17.8797 70.016 15.431 73.0461 10.8751 74.922Z" fill="#FFC35C"/>
<path id="Vector_57" d="M13.4586 68.6403C13.1533 68.7112 12.8696 68.8642 12.6341 69.0851C12.3986 69.306 12.2189 69.5876 12.1118 69.9036C11.834 70.7433 11.089 71.1226 10.1037 71.2615C9.66038 71.3234 9.25209 71.5534 8.95217 71.9104C8.26388 72.7355 7.48557 72.7966 6.65658 72.4134C6.19583 72.2008 5.66916 72.3229 5.28603 72.6683C4.70903 73.182 4.17739 73.1965 3.69644 72.605C3.37959 72.2111 2.89864 71.9924 2.42938 72.1187C1.73153 72.3061 1.23286 71.8111 1 70.4112V70.4089C1.61599 68.3079 3.50683 66.2489 6.37906 64.9917C9.73615 63.52 12.8136 63.8525 14.5361 65.4546L14.7689 65.7684C15.3824 67.5728 14.7158 68.3434 13.4586 68.6403Z" fill="#E05656"/>
<g id="Group_21" opacity="0.6">
<path id="Vector_58" opacity="0.6" d="M16 66.1527C14.1651 64.7601 11.0906 64.5265 7.75306 65.9063C4.75954 67.1439 2.78678 69.165 2.14447 71.2319C1.82221 72.2666 1.83662 73.3134 2.22171 74.2754C2.33029 74.5491 2.46916 74.8094 2.63563 75.0513C2.03668 74.6272 1.57397 74.0336 1.30518 73.3445C0.919716 72.3821 0.905674 71.3354 1.22757 70.301V70.2988C1.86988 68.2342 3.84153 66.2108 6.83652 64.9754C10.3371 63.5292 13.5461 63.8559 15.3422 65.4303C15.5878 65.645 15.8085 65.8873 16 66.1527Z" fill="#FFF9F2"/>
</g>
<path id="Vector_59" d="M5.42596 76.0513C5.04783 76.0524 4.67009 76.0268 4.29551 75.9746C2.36014 75.6988 0.99607 74.7073 0.350575 73.1066C-0.971786 69.8266 1.54745 65.9109 6.21133 63.9982C10.8483 62.0971 15.3424 63.1366 16.6651 66.4174C17.3102 68.0178 17.0198 69.6881 15.8244 71.2476C14.7282 72.6778 12.9143 73.9399 10.5785 74.8979C8.71802 75.6598 6.9609 76.0513 5.42596 76.0513ZM10.7556 64.2755C9.4949 64.2755 8.09467 64.5557 6.67155 65.1397C2.6528 66.7873 0.422173 70.013 1.4825 72.6425C1.96228 73.8305 2.96503 74.5406 4.46639 74.7546C6.02754 74.9779 7.9821 74.6314 10.1183 73.7553C12.2544 72.8792 13.8953 71.7515 14.8578 70.4935C15.7849 69.2839 16.0122 68.0684 15.5332 66.8808C14.8511 65.1885 13.0302 64.2755 10.7556 64.2755Z" fill="#31241B"/>
<g id="Group_22" opacity="0.3">
<path id="Vector_60" opacity="0.3" d="M10.8339 74.0041C7.00639 75.4551 3.67973 75.4126 2 73.7868C3.68613 74.008 5.79625 73.6743 8.08764 72.8053C12.6738 71.0648 15.1378 68.2539 13.9608 65.5491C13.7089 64.9741 13.3175 64.4614 12.8174 64.0513C13.8881 64.2455 14.8114 64.6411 15.5181 65.2119C16.0397 65.6287 16.4474 66.1555 16.7075 66.7487C17.8856 69.4524 15.4205 72.2637 10.8339 74.0041Z" fill="#31241B"/>
</g>
<path id="Vector_61" d="M9.96507 66.0656C10.2097 66.0408 10.4566 66.0483 10.6992 66.0878C10.956 66.1267 11.2018 66.217 11.4209 66.3529C11.6568 66.5024 11.8357 66.7229 11.93 66.9806C12.0255 67.246 12.0232 67.5352 11.9237 67.7991C11.7314 68.312 11.3371 68.6532 10.9474 68.9387C10.1483 69.4764 9.23878 69.8399 8.28134 70.0043C8.03462 70.0439 7.78432 70.0585 7.53448 70.048C7.26975 70.0414 7.00869 69.9863 6.76509 69.8854C6.51426 69.7786 6.27469 69.5843 6.1444 69.3328C6.01322 69.0891 5.96973 68.8099 6.02086 68.5395C6.07134 68.2908 6.17621 68.0554 6.32839 67.8494C6.47086 67.6537 6.64014 67.4779 6.83155 67.3266C6.8598 67.3029 6.89636 67.2907 6.93364 67.2925C6.97093 67.2942 7.00608 67.3098 7.03182 67.3361C7.05756 67.3624 7.0719 67.3972 7.07188 67.4335C7.07185 67.4697 7.05747 67.5045 7.03169 67.5308C6.8833 67.6856 6.75285 67.8558 6.64268 68.0382C6.53998 68.209 6.47597 68.399 6.45493 68.5956C6.4328 68.7735 6.47344 68.9534 6.57021 69.106C6.66388 69.2531 6.8062 69.3649 6.97387 69.4232C7.32834 69.549 7.7703 69.5413 8.19348 69.4626C9.06051 69.293 9.88599 68.9636 10.6252 68.4921C10.9782 68.2559 11.3011 67.9602 11.4438 67.6259C11.5139 67.4681 11.5262 67.2917 11.4787 67.1261C11.429 66.9528 11.3213 66.8005 11.1727 66.693C10.8666 66.452 10.4183 66.3649 9.97934 66.3474C9.94286 66.3454 9.9085 66.3302 9.88305 66.3047C9.8576 66.2793 9.84292 66.2455 9.84193 66.21C9.84094 66.1746 9.8537 66.14 9.87769 66.1133C9.90168 66.0865 9.93515 66.0695 9.97145 66.0656H9.96507Z" fill="#31241B"/>
<path id="Vector_62" d="M4.91966 73.0513C4.5287 73.0513 4.15716 72.8574 3.83525 72.4713C3.5896 72.1766 3.24827 72.0428 2.94507 72.1217C2.55519 72.224 2.20559 72.1717 1.90526 71.9684C1.46323 71.6676 1.16938 71.0606 1.00609 70.1091C0.996994 70.0555 0.998099 70.0005 1.00934 69.9473C1.02058 69.8942 1.04173 69.8438 1.07159 69.7992C1.10144 69.7545 1.13942 69.7165 1.18336 69.6871C1.22729 69.6578 1.27631 69.6379 1.32763 69.6284C1.37895 69.6189 1.43156 69.62 1.48245 69.6318C1.53334 69.6435 1.58152 69.6656 1.62423 69.6968C1.66695 69.728 1.70337 69.7677 1.73141 69.8136C1.75945 69.8596 1.77856 69.9108 1.78765 69.9644C1.94411 70.8854 2.19803 71.179 2.33543 71.2722C2.40736 71.3199 2.52497 71.3759 2.75121 71.3173C3.34538 71.1613 3.98919 71.3959 4.43159 71.9263C4.71105 72.2612 4.9862 72.3811 5.49118 71.942C6.01665 71.4857 6.70758 71.3662 7.29349 71.6289C8.06246 71.974 8.64153 71.8545 9.17096 71.2384C9.53853 70.8134 10.0391 70.5395 10.5827 70.4659C11.8548 70.2907 12.1717 69.7738 12.2994 69.4002C12.4314 69.0232 12.6522 68.6871 12.9413 68.4229C13.2305 68.1588 13.5788 67.975 13.9539 67.8887C14.5441 67.7537 14.9138 67.5305 15.0836 67.2068C15.271 66.8497 15.2408 66.3122 14.9937 65.6092C14.9574 65.5059 14.9618 65.3918 15.006 65.292C15.0502 65.1921 15.1306 65.1147 15.2294 65.0768C15.3283 65.0388 15.4375 65.0435 15.533 65.0897C15.6285 65.1359 15.7026 65.2199 15.7389 65.3232C16.073 66.2742 16.0863 67.0207 15.7795 67.6056C15.4918 68.1518 14.9523 68.5078 14.1251 68.6991C13.8808 68.7544 13.6539 68.8732 13.4653 69.0445C13.2767 69.2158 13.1325 69.4341 13.0461 69.6791C12.7364 70.5862 11.9642 71.1124 10.6855 71.2884C10.3296 71.3361 10.0015 71.515 9.76046 71.7928C9.00012 72.6769 8.06462 72.878 6.97949 72.3909C6.66874 72.2514 6.29288 72.324 5.99795 72.5788C5.63828 72.8938 5.27286 73.0513 4.91966 73.0513Z" fill="#31241B"/>
<g id="Group_23" opacity="0.3">
<path id="Vector_63" opacity="0.3" d="M10.9776 67.247C8.88308 66.4931 6.32388 68.053 6 69.6176C6.50869 70.9393 11.3694 68.9781 10.9776 67.247Z" fill="#31241B"/>
</g>
<path id="Vector_64" d="M14.69 86.7518C10.886 85.9215 8.56143 83.8692 9.06931 81.3825C9.23848 80.553 9.6914 79.8379 10.3623 79.2875C11.7003 78.1881 13.9013 77.7347 16.4349 78.2866C19.3966 78.9314 21.3818 80.6407 21.8782 82.5391C22.0214 83.0769 22.0386 83.6423 21.9285 84.1885C21.4213 86.6733 18.494 87.582 14.69 86.7518Z" fill="#FFC35C"/>
<path id="Vector_65" d="M19.813 83.6286C19.567 83.5364 19.3 83.5039 19.0369 83.5341C18.7739 83.5643 18.5233 83.6563 18.3085 83.8013C17.7428 84.1904 17.0519 84.0909 16.2978 83.739C15.9592 83.58 15.5709 83.5392 15.2028 83.6238C14.355 83.8218 13.7794 83.5141 13.3669 82.9127C13.1377 82.5794 12.7125 82.42 12.291 82.4605C11.6588 82.5178 11.2781 82.2901 11.2011 81.7174C11.1518 81.3368 10.9091 80.9902 10.5244 80.859C9.95102 80.6638 9.8189 80.1411 10.2726 79.1847C11.6322 78.1767 13.8688 77.761 16.4434 78.267C19.4531 78.8582 21.4704 80.4253 21.9748 82.1658L22 82.4598C21.6365 83.8306 20.8277 84.0047 19.813 83.6286Z" fill="#E05656"/>
<g id="Group_24" opacity="0.6">
<path id="Vector_66" opacity="0.6" d="M22 83.0513C21.3972 81.3536 19.4597 79.8539 16.6352 79.2727C14.1006 78.7505 11.899 79.1798 10.5608 80.2206C9.89002 80.7421 9.43699 81.419 9.26742 82.2044C9.21868 82.4274 9.1959 82.6551 9.19953 82.8831C8.989 82.3484 8.94389 81.7648 9.06983 81.2051C9.23904 80.4197 9.69207 79.7428 10.3632 79.2217C11.7014 78.1808 13.903 77.7516 16.4372 78.2741C19.3997 78.8846 21.3853 80.5028 21.8818 82.3001C21.9504 82.5453 21.9901 82.7973 22 83.0513Z" fill="#FFF9F2"/>
</g>
<path id="Vector_67" d="M16.7748 88.0513C15.9422 88.0513 15.0398 87.9482 14.0885 87.7414C12.1076 87.3102 10.4956 86.5564 9.42746 85.5614C8.26291 84.4763 7.79716 83.1688 8.08092 81.7797C8.36469 80.3906 9.33754 79.2727 10.8207 78.6288C12.2734 77.9979 14.1266 77.8799 16.0389 78.2948C19.9713 79.1506 22.4982 81.9419 21.917 84.7895C21.6333 86.1786 20.6942 87.181 19.2053 87.6884C18.4946 87.9303 17.676 88.0513 16.7748 88.0513ZM13.8314 79.063C12.8628 79.063 11.9641 79.2304 11.2009 79.5618C10.023 80.0732 9.2559 80.935 9.04047 81.9886C8.83008 83.0192 9.18145 83.9686 10.0835 84.8092C11.0232 85.6847 12.4777 86.3557 14.2892 86.7498C16.1008 87.1439 17.694 87.1358 18.8963 86.7264C20.0523 86.3326 20.7453 85.6104 20.9557 84.5798C21.4232 82.2978 19.2204 80.0216 15.8354 79.2853C15.1766 79.1399 14.505 79.0654 13.8314 79.063Z" fill="#31241B"/>
<g id="Group_25" opacity="0.3">
<path id="Vector_68" opacity="0.3" d="M14.665 86.7782C11.4804 86.1457 9.32866 84.7382 9 82.9717C9.99642 83.8163 11.532 84.4718 13.4383 84.85C17.255 85.6068 20.192 84.7788 20.7015 82.5114C20.8089 82.0285 20.7957 81.5287 20.663 81.0513C21.2702 81.6231 21.6857 82.2664 21.8778 82.9351C22.0214 83.4256 22.0387 83.9412 21.9282 84.4392C21.4187 86.7067 18.4817 87.5353 14.665 86.7782Z" fill="#31241B"/>
</g>
<path id="Vector_69" d="M18.0679 80.5946C18.4065 80.7758 18.7342 81.0389 18.9151 81.4454C19.0061 81.6591 19.0245 81.8968 18.9676 82.122C18.9074 82.3539 18.7688 82.5578 18.5754 82.6989C18.2021 82.9721 17.7796 83.0283 17.3879 83.0508C16.6088 83.0622 15.8366 82.9026 15.1256 82.5833C14.9427 82.4985 14.769 82.3951 14.6073 82.2746C14.4319 82.1485 14.2821 81.9901 14.166 81.8078C14.0376 81.6093 13.981 81.3726 14.0057 81.1373C14.0303 80.902 14.1348 80.6823 14.3016 80.5149C14.6225 80.2018 15.0294 80.0866 15.4118 80.0521C15.4471 80.0483 15.4826 80.0582 15.511 80.0796C15.5394 80.101 15.5585 80.1325 15.5646 80.1676C15.5707 80.2027 15.5632 80.2388 15.5437 80.2686C15.5242 80.2983 15.4941 80.3195 15.4595 80.3279H15.4563C15.122 80.4141 14.7932 80.5565 14.612 80.7932C14.5227 80.8985 14.4717 81.0309 14.4673 81.169C14.4639 81.3011 14.5051 81.4305 14.5841 81.5364C14.7531 81.7661 15.0406 81.9546 15.3514 82.0858C15.9932 82.3517 16.6793 82.4941 17.3738 82.5054C17.7091 82.5054 18.0488 82.4463 18.2839 82.2941C18.3952 82.2246 18.4793 82.1189 18.5223 81.9948C18.5674 81.8632 18.5674 81.7202 18.5223 81.5886C18.4402 81.2987 18.1917 81.041 17.9171 80.8312H17.9146C17.887 80.8097 17.8684 80.7785 17.8625 80.7439C17.8566 80.7093 17.8639 80.6738 17.8828 80.6443C17.9018 80.6148 17.931 80.5934 17.9649 80.5845C17.9987 80.5755 18.0347 80.5795 18.0658 80.5957L18.0679 80.5946Z" fill="#31241B"/>
<path id="Vector_70" d="M18.0282 85.0513C17.6184 85.0513 17.1629 84.9252 16.6542 84.6724C16.3791 84.5345 16.0635 84.4989 15.7644 84.5721C14.8178 84.8074 14.0596 84.4975 13.5119 83.6477C13.3549 83.4045 13.0537 83.2748 12.7252 83.3065C11.8763 83.3892 11.3339 82.9865 11.2357 82.1975C11.1983 81.8805 11.0154 81.6266 10.763 81.5352C10.4397 81.4177 10.2145 81.2156 10.0946 80.9341C9.91782 80.5194 9.98824 79.9675 10.3104 79.246C10.3483 79.1658 10.4163 79.1036 10.4997 79.0726C10.5831 79.0417 10.6754 79.0445 10.7568 79.0805C10.8382 79.1165 10.9021 79.1828 10.935 79.2652C10.9679 79.3475 10.967 79.4394 10.9326 79.5212C10.621 80.22 10.6663 80.5403 10.7214 80.6693C10.7495 80.735 10.8083 80.83 10.9963 80.8983C11.4901 81.0773 11.8407 81.5434 11.9115 82.1143C11.9565 82.4749 12.0988 82.6882 12.6578 82.6315C13.241 82.5748 13.7872 82.8228 14.0835 83.2811C14.4716 83.8826 14.9384 84.0772 15.5981 83.915C16.0544 83.8017 16.5363 83.8546 16.9568 84.0642C17.9425 84.5542 18.4051 84.3554 18.6677 84.1634C18.9351 83.971 19.247 83.8489 19.5744 83.8083C19.9018 83.7678 20.2342 83.8101 20.5408 83.9314C21.0225 84.122 21.3878 84.1481 21.6575 84.0094C21.955 83.8572 22.182 83.4787 22.3277 82.8847C22.3379 82.8409 22.3567 82.7996 22.383 82.7632C22.4094 82.7267 22.4428 82.6958 22.4812 82.6723C22.5197 82.6488 22.5624 82.6331 22.607 82.6262C22.6516 82.6193 22.6971 82.6213 22.741 82.632C22.7848 82.6428 22.826 82.6621 22.8623 82.6888C22.8985 82.7156 22.9291 82.7492 22.9521 82.7878C22.9752 82.8264 22.9903 82.8692 22.9967 82.9137C23.003 82.9582 23.0003 83.0035 22.9889 83.0469C22.7896 83.8509 22.4558 84.3633 21.9688 84.6131C21.514 84.8462 20.9645 84.8298 20.2891 84.562C20.0899 84.4828 19.8739 84.455 19.6611 84.4811C19.4482 84.5072 19.2455 84.5863 19.0715 84.7112C18.7706 84.9352 18.4041 85.0547 18.0282 85.0513Z" fill="#31241B"/>
<g id="Group_26" opacity="0.3">
<path id="Vector_71" opacity="0.3" d="M19 82.3646C17.7854 80.8436 15.0486 80.7047 14.0119 81.6342C13.7339 82.7937 18.4262 83.7521 19 82.3646Z" fill="#31241B"/>
</g>
<path id="Vector_72" d="M27.896 88.9715C24.0601 89.392 21.2645 88.1377 21.0173 85.5371C20.9343 84.6694 21.153 83.8222 21.6257 83.065C22.5679 81.5538 24.5143 80.3948 27.0688 80.1127C30.0547 79.7828 32.4293 80.8126 33.4534 82.5107C33.7459 82.9912 33.9275 83.5396 33.9831 84.1105C34.2307 86.7096 31.7314 88.5495 27.896 88.9715Z" fill="#FFC35C"/>
<path id="Vector_73" d="M31.3272 84.4177C31.0687 84.3994 30.8097 84.4463 30.5744 84.5541C30.3392 84.6619 30.1352 84.8271 29.9816 85.0343C29.5795 85.5868 28.9044 85.693 28.0905 85.5677C27.7242 85.5106 27.3494 85.5852 27.0336 85.778C26.3075 86.2249 25.6745 86.09 25.0972 85.6176C24.776 85.3555 24.3304 85.3233 23.9507 85.4883C23.3798 85.7323 22.9541 85.6204 22.6987 85.0754C22.5317 84.7135 22.1959 84.4418 21.7948 84.4262C21.1986 84.4025 20.9085 83.9244 21.0255 82.8432C21.9693 81.4433 23.919 80.3695 26.4777 80.1081C29.4685 79.8025 31.8471 80.7566 32.8729 82.3297L32.9903 82.613C33.0913 84.0781 32.3923 84.49 31.3272 84.4177Z" fill="#E05656"/>
<g id="Group_27" opacity="0.6">
<path id="Vector_74" opacity="0.6" d="M34 83.167C32.8892 81.6452 30.5604 80.7444 27.668 81.0533C25.0733 81.3284 23.0966 82.4581 22.1392 83.9314V83.9332C21.6594 84.6712 21.4372 85.4986 21.5212 86.3432C21.544 86.5843 21.5935 86.8219 21.6688 87.0513C21.2991 86.5786 21.0726 86.0042 21.0175 85.3999C20.9332 84.5538 21.1554 83.7279 21.6355 82.9895C22.5926 81.5162 24.5696 80.3862 27.1643 80.1111C30.1972 79.7895 32.6091 80.7936 33.6494 82.4491C33.7924 82.6739 33.91 82.9147 34 83.167Z" fill="#FFF9F2"/>
</g>
<path id="Vector_75" d="M25.9801 90.0513C24.593 90.0513 23.3743 89.8126 22.4023 89.3441C20.9831 88.6589 20.1593 87.5336 20.02 86.0848C19.7345 83.1156 22.5287 80.5492 26.5198 80.1125C30.4869 79.679 33.6945 81.5895 33.9801 84.5579C34.1193 86.0045 33.5271 87.2881 32.2667 88.2649C31.1116 89.1609 29.4443 89.7495 27.4457 89.9687C26.9588 90.0227 26.4696 90.0503 25.9801 90.0513ZM27.6399 81.0886C27.2989 81.0889 26.9582 81.1078 26.619 81.1453C23.1801 81.5218 20.7593 83.5998 20.9885 85.9797C21.0916 87.0547 21.7024 87.8686 22.8032 88.3992C23.9487 88.9504 25.5207 89.137 27.3479 88.9367C29.1751 88.7365 30.6797 88.2135 31.6959 87.4263C32.6729 86.6684 33.1159 85.7392 33.0124 84.6645C32.8068 82.5267 30.5683 81.0886 27.6399 81.0886Z" fill="#31241B"/>
<g id="Group_28" opacity="0.3">
<path id="Vector_76" opacity="0.3" d="M27.7317 88.973C24.4441 89.317 21.9004 88.5183 21 86.7651C22.2417 87.3377 23.9418 87.5405 25.9097 87.3343C29.8492 86.9226 32.4156 85.12 32.1617 82.5741C32.1066 82.0323 31.9293 81.511 31.6437 81.0513C32.4189 81.46 33.0339 82.0049 33.4386 82.6467C33.739 83.1171 33.9255 83.654 33.9826 84.2128C34.2376 86.7587 31.6708 88.5599 27.7317 88.973Z" fill="#31241B"/>
</g>
<path id="Vector_77" d="M28.689 82.0525C29.063 82.126 29.4517 82.2855 29.7451 82.6381C29.8953 82.8244 29.9843 83.0585 29.9984 83.3044C30.0117 83.5583 29.9424 83.8094 29.8024 84.0145C29.5327 84.4117 29.1508 84.6055 28.7886 84.7551C28.0571 85.0191 27.2807 85.1082 26.5137 85.0161C26.3157 84.9899 26.1207 84.9418 25.9319 84.8723C25.7285 84.8019 25.5394 84.6905 25.3749 84.544C25.1939 84.385 25.0691 84.1643 25.0214 83.9185C24.9738 83.6728 25.0061 83.4169 25.113 83.1937C25.3211 82.7727 25.6704 82.5247 26.0204 82.3659C26.0525 82.3516 26.0884 82.3508 26.121 82.3635C26.1537 82.3762 26.1807 82.4016 26.1968 82.4346C26.2128 82.4677 26.2168 82.5059 26.2079 82.542C26.199 82.578 26.1779 82.6091 26.1487 82.6293H26.1458C25.8567 82.825 25.5891 83.0756 25.4899 83.3732C25.4379 83.5086 25.4301 83.6589 25.4676 83.7996C25.5043 83.9343 25.582 84.0518 25.6883 84.1334C25.9169 84.3102 26.245 84.4075 26.5778 84.4409C26.9199 84.4763 27.2645 84.4719 27.6057 84.4279C27.9474 84.3935 28.2847 84.3202 28.612 84.2091C28.9276 84.0987 29.2307 83.9303 29.4066 83.7004C29.4904 83.5941 29.5378 83.4602 29.5409 83.3209C29.5443 83.1733 29.5017 83.0287 29.4198 82.9099C29.255 82.6443 28.943 82.4639 28.6206 82.3409H28.6177C28.5849 82.3283 28.5577 82.3028 28.5415 82.2697C28.5254 82.2365 28.5214 82.1981 28.5304 82.1619C28.5394 82.1258 28.5608 82.0946 28.5902 82.0745C28.6197 82.0545 28.655 82.0471 28.6893 82.0537L28.689 82.0525Z" fill="#31241B"/>
<path id="Vector_78" d="M26.6405 86.0513C26.1963 86.0513 25.7602 85.8852 25.3332 85.5525C25.1131 85.3815 24.7948 85.351 24.4988 85.4721C23.7329 85.7842 23.1049 85.5817 22.777 84.9105C22.6454 84.6406 22.4003 84.4672 22.1377 84.4571C21.8006 84.4446 21.5303 84.3291 21.3341 84.1137C21.0447 83.7963 20.9449 83.2871 21.0285 82.5573C21.0333 82.5161 21.0467 82.4762 21.0678 82.4399C21.0889 82.4036 21.1174 82.3716 21.1516 82.3457C21.1858 82.3198 21.225 82.3005 21.2671 82.289C21.3092 82.2774 21.3532 82.2738 21.3968 82.2784C21.4403 82.2829 21.4825 82.2956 21.5209 82.3155C21.5593 82.3355 21.5931 82.3624 21.6205 82.3948C21.6479 82.4271 21.6683 82.4642 21.6805 82.504C21.6927 82.5438 21.6965 82.5855 21.6917 82.6267C21.6103 83.3336 21.7493 83.6045 21.8384 83.702C21.8843 83.7523 21.9679 83.8195 22.1638 83.8272C22.6773 83.8463 23.1446 84.1598 23.3819 84.6458C23.5323 84.9528 23.7267 85.1012 24.2328 84.8935C24.7599 84.6774 25.3439 84.7433 25.7576 85.0669C26.3001 85.4901 26.7942 85.531 27.3598 85.1998C27.7518 84.9714 28.2172 84.8828 28.6722 84.95C29.7381 85.1054 30.11 84.7988 30.2971 84.5549C30.4882 84.3088 30.7421 84.1123 31.0351 83.9839C31.3281 83.8554 31.6507 83.7991 31.9729 83.8202C32.4798 83.8525 32.8279 83.7724 33.0366 83.574C33.2681 83.3551 33.3668 82.9562 33.3238 82.388C33.3209 82.3467 33.3266 82.3052 33.3405 82.266C33.3545 82.2267 33.3765 82.1905 33.4053 82.1593C33.4635 82.0963 33.5457 82.0577 33.634 82.0521C33.7222 82.0464 33.8092 82.0741 33.8758 82.1291C33.9424 82.1841 33.9832 82.2619 33.9892 82.3453C34.0446 83.1137 33.8872 83.6635 33.508 84.02C33.1536 84.3551 32.6361 84.4966 31.926 84.4491C31.7166 84.4357 31.507 84.4722 31.3165 84.5554C31.1259 84.6385 30.9605 84.7657 30.8355 84.925C30.3814 85.5175 29.6405 85.7294 28.5691 85.5733C28.2716 85.5301 27.9676 85.5882 27.7112 85.7371C27.3513 85.9452 26.9933 86.0513 26.6405 86.0513Z" fill="#31241B"/>
<g id="Group_29" opacity="0.3">
<path id="Vector_79" opacity="0.3" d="M31 82.6305C29.3396 81.5095 26.6824 82.16 26 83.3551C26.1147 84.5544 30.9081 84.1345 31 82.6305Z" fill="#31241B"/>
</g>
<path id="Vector_80" d="M52 88.1311C50.3867 94.3415 47.1171 99.9035 42.6133 104.985C41.2215 106.547 39.2803 107.524 37.1866 107.714C32.7103 108.128 28.0661 108.148 23.2821 107.845C20.9907 107.699 18.7681 107.009 16.8009 105.835C16.8009 105.835 16.795 105.835 16.7928 105.831C15.3861 104.992 14.1331 103.922 13.0873 102.668C8.08479 96.6722 5.2486 89.8139 5 82.0513C9.4279 86.4102 24.3458 88.6387 37.6214 87.8446C39.4119 87.7381 41.1715 87.5756 42.8729 87.357C45.9756 86.96 48.8804 86.3702 51.4071 85.5779L51.6315 86.5447L52 88.1311Z" fill="#A38DBF"/>
<g id="Group_30" opacity="0.6">
<path id="Vector_81" opacity="0.6" d="M23 108.051C20.7547 107.898 18.5778 107.204 16.6499 106.029C16.6499 106.029 16.6441 106.029 16.6419 106.025C15.2531 105.179 14.0162 104.101 12.9838 102.836C8.04531 96.7914 5.24542 89.8772 5 82.0513C5.45138 82.5066 6.01353 82.9373 6.67342 83.3439C7.13276 90.7229 9.895 97.2768 14.605 103.04C15.6377 104.305 16.8748 105.384 18.2635 106.229C18.2635 106.231 18.2693 106.231 18.2715 106.234C19.7274 107.121 21.329 107.737 23 108.051Z" fill="#FFF9F2"/>
</g>
<g id="Group_31" opacity="0.3">
<path id="Vector_82" opacity="0.3" d="M51 88.6724C49.3958 95.0258 46.1447 100.716 41.6664 105.914C40.2824 107.513 38.3522 108.512 36.2704 108.707C31.8194 109.13 27.2014 109.15 22.4446 108.84C20.1661 108.69 17.9561 107.985 16 106.784C24.9967 111.19 42.5257 100.854 36.6587 88.3852L36.7028 88.3811L41.9245 87.8823L50.6336 87.0513L51 88.6724Z" fill="#31241B"/>
</g>
<path id="Vector_83" d="M29.1019 108.051C27.0434 108.051 24.9323 107.983 22.7686 107.847C18.6761 107.588 14.8201 105.637 12.1898 102.493C6.99971 96.2911 4.2442 89.2832 4.0003 81.6676C3.99648 81.5481 4.02902 81.4302 4.09371 81.3292C4.1584 81.2281 4.25227 81.1486 4.36318 81.1009C4.47408 81.0532 4.59691 81.0395 4.71578 81.0616C4.83464 81.0837 4.94408 81.1405 5.02992 81.2247C7.74528 83.8902 15.2995 85.989 24.7461 86.6997C34.3884 87.4255 44.0661 86.6336 50.6326 84.5803C50.7083 84.5566 50.7879 84.5478 50.867 84.5546C50.9461 84.5613 51.0231 84.5834 51.0935 84.6195C51.164 84.6556 51.2265 84.7051 51.2776 84.7651C51.3287 84.8252 51.3674 84.8946 51.3913 84.9694C51.4153 85.0442 51.4242 85.1229 51.4174 85.2011C51.4105 85.2792 51.3882 85.3553 51.3517 85.425C51.3151 85.4946 51.2651 85.5564 51.2043 85.607C51.1436 85.6575 51.0734 85.6957 50.9978 85.7194C44.2906 87.8164 34.442 88.6281 24.6537 87.8907C15.8384 87.227 8.78877 85.4194 5.28003 82.973C5.78023 89.8012 8.41453 96.1063 13.1227 101.732C15.5412 104.622 19.0857 106.417 22.8475 106.654C27.7112 106.962 32.3379 106.919 36.5991 106.526C38.531 106.355 40.3225 105.457 41.6037 104.017C46.2863 98.7512 49.3007 93.3596 50.8199 87.5338C50.8668 87.3883 50.9682 87.2661 51.1034 87.1922C51.2386 87.1183 51.3972 87.0984 51.5468 87.1366C51.6963 87.1748 51.8254 87.2681 51.9075 87.3974C51.9896 87.5267 52.0185 87.6822 51.9883 87.8319C50.4209 93.8436 47.3203 99.3958 42.5096 104.806C41.0248 106.475 38.9485 107.517 36.7094 107.716C34.2821 107.939 31.7373 108.051 29.1019 108.051Z" fill="#31241B"/>
<path id="Vector_84" d="M61 75.1904C60.3813 77.3025 59.6202 79.1579 58.7313 80.7767C58.2799 81.6061 57.7693 82.4036 57.2031 83.1635C56.4486 84.1859 55.5784 85.1229 54.6087 85.9566C54.4218 86.119 54.2349 86.2734 54.0458 86.4234C53.2023 87.0812 52.2931 87.6551 51.3318 88.1367C51.3308 88.1379 51.3293 88.1387 51.3277 88.1389C50.8231 88.3914 50.3056 88.6188 49.7771 88.8199C49.7747 88.8198 49.7725 88.8206 49.7707 88.8221L49.7501 88.8279C48.1767 89.4272 46.4878 89.8119 44.6975 90.0102C44.0738 90.0807 43.4427 90.0605 42.8251 89.9502C42.0635 89.8196 41.3394 89.5327 40.701 89.1087C40.398 88.9096 40.1204 88.6762 39.8741 88.4135C38.3171 86.7463 38.882 84.4838 41.2352 83.0512C41.9877 82.5903 42.7159 82.0854 43.357 81.4861C44.2763 80.6312 45.0916 79.6766 45.7869 78.641C47.1293 76.6411 47.9521 74.4451 48.4388 72.1285C48.6182 71.2811 48.7502 70.4195 48.847 69.5438L48.8492 69.5278C48.9315 68.7701 48.9899 68.004 49.0246 67.2294C50.7834 66.6885 52.386 66.0307 53.7512 65.1953C55.4794 64.1391 56.8281 62.7981 57.6345 61.0513L61 75.1904Z" fill="#FFF9F2"/>
<path id="Vector_85" d="M57.8319 106.214V106.216L57.7181 106.283C53.3995 112.122 47.5261 110.365 44.3094 106.485C43.3925 105.379 42.683 104.101 42.3057 102.775V102.773C41.7972 100.988 41.885 99.1082 42.858 97.4275C43.8031 95.7897 45.5856 94.86 47.4458 95.0722C47.5098 95.0802 47.5756 95.0883 47.6414 95.0985C48.6783 95.2451 49.8424 95.6483 50.8356 96.5905C50.9151 96.6638 50.9552 96.7078 50.9552 96.7078H50.957C51.2567 97.0107 51.5232 97.3456 51.7521 97.7064L51.8479 97.005L52.5021 92.1891L53.2535 86.6493L53.2936 86.3462L53.6883 83.4309L54.5979 76.7382L55.3175 71.4312L56.7271 61.0513C64.3396 74.1105 72.5623 97.4012 57.8319 106.214Z" fill="#FFF9F2"/>
<path id="Vector_86" opacity="0.5" d="M51.0937 89.0397C51.0894 89.0437 51.0846 89.0471 51.0794 89.05C51.0784 89.0512 51.077 89.052 51.0754 89.0522C49.1122 90.0995 46.938 90.7302 44.5815 91.0086C43.2081 91.1699 41.8043 90.8787 40.667 90.0661C38.2069 88.3125 38.5434 85.4532 41.1903 83.7335C41.9273 83.2516 42.6406 82.7238 43.2685 82.0973C44.1689 81.2035 44.9674 80.2055 45.6484 79.1229C50.7865 78.3433 53.5458 84.0813 51.0937 89.0397Z" fill="#FAB292"/>
<path id="Vector_87" d="M60 88.795C54.2379 86.2454 51.5158 90.6808 49 95.5898C49.2201 95.6702 50.951 96.2106 51.9726 98.0513" fill="#FFF9F2"/>
<path id="Vector_88" opacity="0.5" d="M58 106.216V106.218L57.8849 106.285C53.5204 112.12 47.5844 110.365 44.3336 106.487C42.1595 103.895 41.1521 100.369 42.8666 97.4352C43.8218 95.7984 45.6233 94.8692 47.5033 95.0812C47.568 95.0893 47.6345 95.0974 47.701 95.1076C49.5609 95.4739 50.5964 96.2936 50.9292 96.5987C51.0095 96.6719 51.0501 96.7159 51.0501 96.7159H51.0519C51.3543 96.8008 51.6564 96.899 51.9526 97.0129C55.201 98.2556 58 101.25 58 106.216Z" fill="#FAB292"/>
<path id="Vector_89" d="M59.9914 75.688C59.4726 77.8517 58.7481 79.9885 57.6982 81.9899C57.6666 82.053 57.6368 82.1173 57.6034 82.1793L57.4958 82.3626L57.2823 82.729L56.8517 83.4627C56.5313 83.93 56.208 84.3992 55.847 84.8364L55.284 85.4768L55.0037 85.7983L54.6991 86.097L54.0891 86.6938C53.8824 86.889 53.6542 87.0607 53.4375 87.2446L53.1081 87.5164L52.943 87.6517L52.7675 87.7729L52.0653 88.2584C51.8368 88.4286 51.5838 88.5588 51.3383 88.7025C51.0929 88.8462 50.8478 88.9899 50.5959 89.1202L49.8255 89.4808L49.4398 89.6601L49.0426 89.8092L48.2478 90.1064C47.9801 90.1953 47.707 90.2668 47.4368 90.3477C46.8986 90.5215 46.3453 90.6223 45.7959 90.7428C45.5218 90.8096 45.2433 90.8411 44.966 90.8836L44.1339 91.0055C42.953 91.1437 41.7143 90.9736 40.6156 90.4358C40.0626 90.1648 39.5589 89.8012 39.1257 89.3604C38.689 88.9119 38.322 88.352 38.1368 87.7102C37.9516 87.0671 37.9545 86.3836 38.1451 85.7421C38.3284 85.1107 38.6668 84.5549 39.0705 84.085C39.481 83.6224 39.9675 83.2435 40.4566 82.9239C40.9011 82.6446 41.3293 82.3395 41.739 82.0102C41.9407 81.8474 42.1342 81.6771 42.3196 81.4994L42.8719 80.9319C43.0617 80.7468 43.2253 80.5385 43.399 80.339L43.657 80.0375C43.7399 79.9348 43.8166 79.8266 43.897 79.7218C45.1985 78.0487 46.097 76.0832 46.6801 74.0251C46.9704 72.989 47.1871 71.9332 47.3285 70.8658C47.4767 69.7955 47.5674 68.7135 47.6177 67.6267V67.6238C47.6251 67.4647 47.6946 67.3151 47.8111 67.2078C47.9276 67.1006 48.0815 67.0445 48.2388 67.052C48.3962 67.0594 48.5442 67.1298 48.6502 67.2476C48.7563 67.3654 48.8117 67.521 48.8043 67.6801C48.7527 68.798 48.6608 69.9181 48.5043 71.0338C48.3554 72.1554 48.1276 73.2647 47.8226 74.3535C47.2065 76.5306 46.2398 78.6514 44.8368 80.4555C44.7503 80.5687 44.6674 80.6848 44.5777 80.7954L44.3007 81.122C44.1138 81.3372 43.9365 81.5607 43.733 81.7599C43.5296 81.9591 43.3405 82.1688 43.137 82.372C42.926 82.5745 42.7064 82.7664 42.4829 82.9478C42.0379 83.3055 41.5729 83.6371 41.0903 83.9409C40.6651 84.221 40.2826 84.5215 39.9607 84.8825C39.65 85.2454 39.4088 85.6532 39.2847 86.0824C39.1578 86.5033 39.1551 86.9525 39.2768 87.3749C39.5161 88.2145 40.2725 88.9275 41.1348 89.3575C42.0057 89.7838 43.0147 89.9297 43.9989 89.8143L44.7884 89.6985C45.0507 89.6583 45.3155 89.6292 45.5727 89.5657C46.0898 89.4514 46.6133 89.3575 47.1157 89.1942C47.3687 89.118 47.6249 89.0516 47.8753 88.9685L48.6159 88.6913L48.9866 88.553L49.3454 88.3854L50.0613 88.0512C50.2949 87.9304 50.5191 87.7918 50.7488 87.6637C50.9784 87.5356 51.2113 87.4097 51.4223 87.2526L52.0721 86.8034L52.2347 86.6916L52.3872 86.5657L52.6922 86.3139C52.8928 86.143 53.1048 85.9874 53.2965 85.8038L53.8627 85.2493L54.1462 84.9725L54.4063 84.6717L54.9216 84.0665C55.0085 83.9662 55.0899 83.861 55.1652 83.7515L55.4003 83.4297L55.884 82.7951L56.3289 82.1285L56.5521 81.7947L56.664 81.6278C56.6999 81.5708 56.7308 81.5113 56.7645 81.4533C57.8697 79.6111 58.728 77.6006 59.4216 75.5255V75.5233C59.4462 75.4501 59.4978 75.3894 59.5655 75.3536C59.6333 75.3179 59.7121 75.31 59.7855 75.3315C59.8589 75.353 59.9213 75.4022 59.9597 75.469C59.9982 75.5359 60.0096 75.6151 59.9918 75.6902L59.9914 75.688Z" fill="#31241B"/>
<path id="Vector_90" d="M57.3429 61.27C59.5164 64.8746 61.3998 68.6393 62.9759 72.5298C64.539 76.4224 65.8062 80.4503 66.496 84.6074C66.8373 86.6846 67.0313 88.794 66.9959 90.9132C66.9604 93.0324 66.6918 95.1619 66.0774 97.2191C65.463 99.2762 64.4781 101.243 63.1176 102.944C61.7642 104.652 60.0407 106.06 58.1464 107.132L58.3303 106.973C57.357 108.233 56.1431 109.381 54.6446 110.122C53.1345 110.876 51.4157 111.133 49.7442 110.855C48.0875 110.588 46.5633 109.845 45.2766 108.859C43.9853 107.866 42.9184 106.622 42.143 105.205C41.3745 103.793 40.9011 102.168 41.0175 100.507C41.0744 99.6755 41.2848 98.8606 41.6386 98.1021C41.9893 97.3592 42.5045 96.6236 43.1771 96.0817C43.5123 95.807 43.8777 95.5695 44.2664 95.3735C44.6578 95.1802 45.0709 95.0326 45.4975 94.9334C46.3469 94.7204 47.2732 94.7649 48.0775 94.9594C48.9096 95.1509 49.691 95.5123 50.3702 96.0201C50.7021 96.2758 51.0048 96.5659 51.273 96.8852C51.5294 97.2027 51.7519 97.545 51.937 97.9069C51.9701 97.9726 51.9778 98.0478 51.9587 98.1187C51.9396 98.1895 51.895 98.2512 51.833 98.2924C51.7711 98.3337 51.696 98.3516 51.6216 98.343C51.5472 98.3343 51.4785 98.2997 51.4282 98.2455L51.4189 98.2356C51.1685 97.9638 50.9201 97.7014 50.6433 97.4737C50.3724 97.2479 50.0821 97.0453 49.7756 96.8684C49.1697 96.5156 48.5005 96.2948 47.81 96.1667C47.4695 96.103 47.1245 96.0641 46.7781 96.0503C46.4417 96.0424 46.1055 96.0725 45.7761 96.1401C45.1107 96.2749 44.4908 96.5716 43.9736 97.0027C43.7132 97.2162 43.4807 97.4603 43.2816 97.7295C43.229 97.7948 43.1806 97.8633 43.1368 97.9346C43.0928 98.0076 43.0417 98.0707 43.0033 98.1491L42.7597 98.6056C42.4681 99.2316 42.295 99.9041 42.2486 100.591C42.1505 101.969 42.547 103.38 43.2319 104.636C43.9265 105.904 44.8817 107.018 46.0376 107.908C47.1866 108.789 48.5315 109.437 49.9442 109.662C51.3567 109.899 52.8097 109.681 54.085 109.042C55.3642 108.409 56.4483 107.4 57.3395 106.246C57.3865 106.185 57.4446 106.133 57.5107 106.093L57.5238 106.086C59.2995 105.08 60.8917 103.776 62.1414 102.199C63.3974 100.627 64.3106 98.8052 64.8896 96.8764C65.4686 94.9477 65.7238 92.9211 65.7584 90.8924C65.7931 88.8637 65.6059 86.8189 65.2735 84.7989C64.602 80.7557 63.362 76.8007 61.8239 72.9717C60.2715 69.1404 58.4168 65.433 56.2767 61.883C56.2339 61.8146 56.2055 61.7386 56.1931 61.6594C56.1806 61.5801 56.1845 61.4993 56.2044 61.4215C56.2242 61.3437 56.2597 61.2706 56.3088 61.2064C56.3578 61.1422 56.4195 61.0881 56.4901 61.0475C56.5607 61.0068 56.639 60.9803 56.7202 60.9695C56.8014 60.9587 56.884 60.9638 56.9631 60.9846C57.0423 61.0053 57.1165 61.0413 57.1813 61.0903C57.2461 61.1394 57.3002 61.2006 57.3406 61.2704L57.3429 61.27Z" fill="#31241B"/>
<path id="Vector_91" d="M48.0617 95.1789C48.6172 94.0973 49.2303 93.03 49.9596 92.0184C50.689 91.0068 51.5436 90.0503 52.5933 89.2896C53.1207 88.9045 53.7012 88.5969 54.317 88.3763C54.9345 88.1625 55.5823 88.0479 56.2362 88.0368C56.8756 88.0271 57.5132 88.1064 58.1305 88.2723C58.7338 88.4323 59.3208 88.6476 59.884 88.9155C59.9304 88.9365 59.9668 88.9745 59.9858 89.0215C60.0047 89.0685 60.0047 89.1209 59.9858 89.168C59.9669 89.215 59.9305 89.253 59.8841 89.2741C59.8378 89.2952 59.785 89.2978 59.7368 89.2813H59.7335C59.164 89.0963 58.5891 88.9408 58.0091 88.8526C57.4292 88.7643 56.8471 88.7346 56.2812 88.7932C55.7191 88.8491 55.1696 88.9939 54.6536 89.222C54.1376 89.4471 53.6564 89.7441 53.2248 90.1039C52.3482 90.8239 51.6372 91.7515 50.9827 92.7213C50.3282 93.691 49.7296 94.7244 49.1053 95.752C49.0253 95.8826 48.8974 95.9773 48.7485 96.0164C48.5996 96.0554 48.4413 96.0358 48.3067 95.9616C48.172 95.8873 48.0716 95.7643 48.0263 95.6182C47.9811 95.4721 47.9945 95.3143 48.0639 95.1778L48.0617 95.1789Z" fill="#31241B"/>
<path id="Vector_92" d="M13.7467 106.036C10.3868 106.036 6.85061 103.013 5.11081 99.5804C3.31626 96.0401 3.71772 92.8083 6.15827 91.1468C6.22407 91.1001 6.2984 91.0671 6.37691 91.0499C6.45541 91.0326 6.53652 91.0315 6.61548 91.0464C6.69444 91.0614 6.76967 91.0921 6.83676 91.137C6.90385 91.1818 6.96146 91.2397 7.00622 91.3074C7.05098 91.375 7.08198 91.4511 7.09742 91.5311C7.11285 91.611 7.11242 91.6933 7.09613 91.7731C7.07983 91.8529 7.04802 91.9286 7.00254 91.9958C6.95706 92.063 6.89884 92.1203 6.83127 92.1643C3.98853 94.1002 5.61811 97.9012 6.18527 99.0202C7.74077 102.089 10.8361 104.819 13.6992 104.819C14.2059 104.821 14.7088 104.731 15.1836 104.551C15.3336 104.494 15.4999 104.5 15.6457 104.567C15.7916 104.634 15.9052 104.758 15.9615 104.91C16.0178 105.062 16.0122 105.231 15.9459 105.379C15.8796 105.527 15.7581 105.642 15.608 105.699C15.0126 105.924 14.3821 106.038 13.7467 106.036Z" fill="#31241B"/>
<g id="Group_32" opacity="0.3">
<path id="Vector_93" opacity="0.2" d="M49.7694 109.983C52.1261 110.11 54.6005 109.063 56.706 106.207L56.8196 106.14V106.138C71.104 97.564 63.8369 75.3524 56.4389 62.036C55.6549 63.2881 54.5701 64.3078 53.2583 65.147L53.2004 63.6821L28.8312 67.6224L26.4032 68.6219L26 68.7887C26 68.7887 26.0898 68.8413 26.2613 68.936C27.8901 69.8135 36.9366 74.3011 48.1146 72.1766L48.5098 69.5557L48.512 69.5395C48.512 69.5395 51.2936 68.7662 53.4259 69.4095C54.3963 69.7019 55.231 70.2871 55.6085 71.376C55.9061 72.2352 55.918 73.4077 55.4829 74.9941C55.3209 75.578 55.1222 76.1507 54.8879 76.7087C54.5776 77.4486 54.213 78.1637 53.7973 78.8479C50.1213 84.9546 42.6175 89.152 39.163 86.4947C39.163 86.4947 39.1887 87.8336 40.2271 88.9082C40.6904 89.3869 41.3553 89.8141 42.312 90.0457C43.8254 90.4114 46.0659 90.2877 49.3825 89.1071L49.4024 89.1012C49.4041 89.0997 49.4063 89.0989 49.4086 89.099C49.5323 89.036 51.4873 88.0487 53.5819 86.3647C53.7455 86.2325 53.9113 86.0966 54.0771 85.9544C54.9577 85.2047 55.8402 84.3341 56.5989 83.3641C57.1841 82.6166 57.6974 81.8061 58.0785 80.9444C58.0785 80.9444 59.9455 85.4057 58.9451 88.3831L61.0737 89.1958C61.0737 89.1958 62.206 97.9971 53.2862 101.725C51.7566 106.755 49.2348 109.473 42.4036 102.124C42.4036 102.124 42.4655 102.405 42.5773 102.87V102.872C42.9567 104.205 43.6657 105.489 44.584 106.6C45.9996 108.312 47.9278 109.613 50.0134 110.036C49.9311 110.02 49.8498 110.002 49.7694 109.983Z" fill="#31241B"/>
</g>
<path id="Vector_94" d="M67.0129 32.1225C66.7527 46.634 62.6206 59.0397 53.3537 65.0885C48.1756 68.4718 41.3929 69.8686 32.7845 68.5375C25.3467 67.6949 19.2073 65.7798 14.9011 62.7212C10.7524 59.7773 8.29911 55.7696 8.02309 50.6369C7.9503 49.2052 8.04977 47.7699 8.31935 46.3618C8.56109 45.1018 8.92379 43.868 9.40244 42.6774C10.8128 39.1469 12.6372 35.7955 14.8374 32.6933C16.1097 30.8935 17.1677 28.9534 18.0797 26.9461C20.017 22.6736 22.28 18.8797 25.0232 15.78C21.6841 11.8211 20.4314 6.86986 23.6446 3.33528C25.0494 1.78966 27.0602 0.88058 29.1436 1.05799C31.6381 1.26552 33.6335 2.89084 35.1814 5.78668L64.0459 18.2718C69.5468 14.4779 74.341 15.7392 76.1881 18.8396C78.351 22.4646 76.4862 28.6037 67.0129 32.1225Z" fill="#FFF9F2"/>
<path id="Vector_95" d="M63.0357 36.5142C62.9546 36.6602 62.8385 36.7839 62.6978 36.8744C62.5571 36.9648 62.3961 37.0192 62.2292 37.0326C62.1487 37.0391 62.0677 37.0363 61.9878 37.0243H61.9857C61.7912 36.9978 61.6085 36.9164 61.4591 36.7896C61.3097 36.6627 61.1999 36.4959 61.1428 36.3087C58.2114 27.1027 47.2728 27.7275 38.2409 24.6759C33.1956 23.0423 29.7804 20.7349 28.4831 17.5489C27.5157 15.1802 28.0404 12.4785 29.7068 10.532C32.656 7.08794 36.2031 5.13667 39.9089 4.3921C40.7207 4.22743 41.5432 4.1202 42.3702 4.07119C43.6498 3.99402 44.934 4.04388 46.2038 4.22003L50.1921 5.16571C55.844 7.07778 60.9017 11.2733 63.7002 16.6671C66.6581 22.3725 67.0947 29.4178 63.0357 36.5142Z" fill="#E06B38"/>
<path id="Vector_96" opacity="0.5" d="M53 65.0448C47.8623 68.4655 41.1325 69.8779 32.5912 68.532C18.107 66.859 8.58159 61.0117 8.02291 50.4323C7.95069 48.9848 8.04938 47.5336 8.31686 46.1099C9.61461 45.6709 10.4976 45.375 10.4976 45.375L15.3614 43.4382C24.8795 38.8562 49.0406 45.362 53 65.0448Z" fill="#FAB292"/>
<path id="Vector_97" d="M53.4768 66.036C53.3564 66.0359 53.2398 65.994 53.1466 65.9175C53.0534 65.8409 52.9893 65.7344 52.9652 65.6158C51.3319 57.5914 45.9311 50.9098 37.752 46.8017C30.1548 42.9846 20.8966 41.9947 15.7385 44.4486C15.6135 44.5054 15.4713 44.5106 15.3426 44.463C15.2138 44.4155 15.1088 44.319 15.0502 44.1944C14.9916 44.0697 14.984 43.9269 15.0291 43.7968C15.0742 43.6666 15.1684 43.5594 15.2914 43.4983C20.8034 40.8768 30.2317 41.8489 38.2194 45.8615C46.6898 50.1184 52.2906 57.0579 53.9894 65.4063C54.0172 65.5429 53.9898 65.6849 53.9135 65.8012C53.8371 65.9175 53.7179 65.9986 53.5821 66.0267C53.5474 66.0332 53.5121 66.0363 53.4768 66.036Z" fill="#31241B"/>
<path id="Vector_98" d="M46.3986 4.22024C45.1418 4.04405 43.8707 3.99406 42.6041 4.07102C41.5478 5.64638 41.8964 7.06853 43.4964 8.48814C44.8022 9.64996 46.9412 10.8118 49.8279 12.0582C50.5806 12.384 51.3833 12.7146 52.2358 13.0501C53.0812 13.3773 53.8967 13.7782 54.6729 14.2483C62.4407 19.0045 65.384 26.711 62.2666 37.036C62.4318 37.0226 62.5912 36.9682 62.7305 36.8778C62.8698 36.7873 62.9848 36.6636 63.0651 36.5175C70.882 22.7107 61.8628 9.10027 50.3459 5.16532L46.3986 4.22024Z" fill="#E05656"/>
<path id="Vector_99" d="M66 22.847C66.6294 21.9871 67.5326 21.3761 68.5555 21.1182C70.6734 20.5992 72.4974 22.6255 71.8771 24.7501C71.1528 27.2298 69.0657 28.0488 66.2956 28.0359" fill="#EC9A9A"/>
<g id="Group_33" opacity="0.3">
<path id="Vector_100" opacity="0.3" d="M71.9874 24.1739C71.3608 23.3157 70.2778 22.8234 69.1038 23.1122C68.0816 23.3687 67.1789 23.9786 66.5502 24.8376L66.7321 28.0295C66.5905 28.0338 66.4422 28.036 66.2956 28.036L66 22.8461C66.6287 21.9863 67.5315 21.3752 68.554 21.1174C70.481 20.6485 72.1627 22.2763 71.9874 24.1739Z" fill="#31241B"/>
</g>
<path id="Vector_101" d="M28.4866 12.036C24.4912 7.45733 29.5455 3.37387 32 8.22478L28.4866 12.036Z" fill="#EC9A9A"/>
<g id="Group_34" opacity="0.3">
<path id="Vector_102" opacity="0.3" d="M32 8.22454L31.9979 8.22632C29.7749 6.20802 26.9322 8.68264 28.5297 11.9868L28.4859 12.036C24.4919 7.45639 29.5456 3.37448 32 8.22454Z" fill="#31241B"/>
</g>
<path id="Vector_103" d="M49.9947 2.28373L48.6281 20.036L44.5804 18.4039L38 15.7528L47.8604 1.54237C48.2797 0.938521 49.0321 0.913616 49.5231 1.263C49.6857 1.37709 49.815 1.53156 49.8978 1.71079C49.9806 1.89002 50.014 2.08766 49.9947 2.28373Z" fill="#FFC35C"/>
<path id="Vector_104" d="M61.7919 37.036H61.7897C61.5964 37.0093 61.4147 36.9269 61.2662 36.7987C61.1177 36.6704 61.0085 36.5017 60.9517 36.3124C58.0372 27.0026 47.1617 27.6344 38.1819 24.5484C33.1657 22.8964 29.7701 20.563 28.4803 17.3412C27.5185 14.9457 28.0401 12.2136 29.697 10.2451C32.6292 6.76224 36.1558 4.78897 39.8402 4.03601C33.0585 6.72626 32.7888 14.1736 42.7927 17.517C56.7963 22.439 63.2775 26.1105 61.7919 37.036Z" fill="#66ACDF"/>
<g id="Group_35" opacity="0.6">
<path id="Vector_105" opacity="0.6" d="M50 2.18227C49.7923 2.15875 49.5824 2.19499 49.3934 2.28698C49.2044 2.37896 49.0436 2.52311 48.929 2.70352L39.4217 17.036L38 16.4362L47.8631 1.56507C48.5092 0.58943 49.9525 1.0612 50 2.18227Z" fill="#FFF9F2"/>
</g>
<g id="Group_36" opacity="0.6">
<path id="Vector_106" opacity="0.6" d="M46 4.21576L44.7456 6.01914C44.0336 5.9804 43.3199 5.98277 42.6083 6.02622C41.7905 6.07439 40.9772 6.17903 40.1743 6.33936C36.5078 7.06624 33.0019 8.97022 30.0855 12.3308C28.9333 13.6599 28.3331 15.3502 28.4047 17.036C27.5492 14.7689 28.0839 12.2227 29.6876 10.3744C32.6041 7.01381 36.1118 5.10983 39.7764 4.38331C40.5792 4.22263 41.3926 4.11799 42.2104 4.07017C43.4754 3.99509 44.7448 4.04385 46 4.21576Z" fill="#FFF9F2"/>
</g>
<g id="Group_37" opacity="0.6">
<path id="Vector_107" opacity="0.6" d="M66 23.036C64.0556 15.5223 57.7834 9.46762 50.5532 7.05012L50 6.92136L50.1443 5.03601C58.0124 7.66689 64.742 14.6021 66 23.036Z" fill="#FFF9F2"/>
</g>
<path id="Vector_108" d="M49.0446 21.036C49.0292 21.036 49.0134 21.036 48.9976 21.0338C48.9175 21.0275 48.8394 21.0049 48.7677 20.9671C48.6961 20.9293 48.6323 20.8771 48.5799 20.8135C48.5276 20.7499 48.4879 20.6761 48.4629 20.5964C48.438 20.5167 48.4283 20.4327 48.4345 20.3491L49.7766 1.91793C49.8057 1.51882 49.51 1.37829 49.4178 1.34493C49.3256 1.31158 49.0116 1.22726 48.7948 1.55742L39.1153 16.3107C39.07 16.3799 39.012 16.439 38.9448 16.4848C38.8775 16.5305 38.8023 16.562 38.7234 16.5774C38.6445 16.5928 38.5635 16.5918 38.485 16.5745C38.4065 16.5572 38.332 16.5239 38.2657 16.4766C38.1995 16.4292 38.1429 16.3687 38.0991 16.2984C38.0553 16.2282 38.0251 16.1497 38.0104 16.0673C37.9957 15.9849 37.9966 15.9003 38.0132 15.8183C38.0297 15.7363 38.0616 15.6585 38.107 15.5893L47.7865 0.835643C48.0055 0.501813 48.3238 0.252736 48.6921 0.127016C49.0604 0.00129471 49.4581 0.00595007 49.8236 0.14026C50.1891 0.27457 50.502 0.531035 50.7137 0.869907C50.9255 1.20878 51.0243 1.61113 50.9949 2.01462L49.6546 20.4461C49.6432 20.6068 49.5739 20.757 49.4607 20.8664C49.3475 20.9758 49.1988 21.0365 49.0446 21.036Z" fill="#31241B"/>
<g id="Group_38" opacity="0.3">
<path id="Vector_109" opacity="0.2" d="M16 62.9363C20.1196 65.2711 25.5164 66.7798 31.8619 67.5007C40.4553 68.834 47.2281 67.4349 52.3979 64.0471C61.6493 57.9902 65.7752 45.5682 66.0346 31.0372C73.0253 28.4328 75.8655 24.3951 76 21C74.2275 27.969 66.254 27.6612 66.254 27.6612C66.254 27.6612 66.078 27.6939 65.7715 27.7524C65.5165 30.6826 64.5958 33.7243 62.8571 36.773C62.7752 36.9209 62.658 37.0463 62.516 37.1379C62.374 37.2295 62.2116 37.2846 62.0432 37.2982C61.962 37.3048 61.8802 37.302 61.7996 37.2898H61.7974C61.6013 37.2629 61.4169 37.1804 61.2662 37.0519C61.1154 36.9234 61.0046 36.7544 60.9468 36.5648C60.2895 34.4934 59.2346 32.9122 57.8865 31.6731C57.8865 31.6724 57.8864 31.6716 57.8861 31.6709C57.8858 31.6702 57.8853 31.6696 57.8847 31.6691C57.6525 31.4558 57.4118 31.2531 57.1645 31.0582C57.1605 31.056 57.1586 31.0538 57.1542 31.0515C56.8408 30.8448 56.3947 30.5881 55.7624 30.2847C54.1887 29.5211 51.4635 28.4648 46.7755 27.1463C37.4325 24.5206 35.3639 23.8361 35.064 23.7353C42.977 27.2441 50.4226 30.8239 54.6697 34.8796C55.2547 35.4376 55.7159 36.1126 56.0233 36.8607C56.3307 37.6088 56.4774 38.4132 56.4539 39.2218C55.7679 62.4295 33.8614 69.2032 16 62.9363Z" fill="#31241B"/>
</g>
<path id="Vector_110" d="M47.3176 8C47.2026 8 47.0868 7.99675 46.9702 7.99026C45.7458 7.91964 44.6433 7.47648 44.0936 6.83364C44.0124 6.73862 43.9823 6.62205 44.0101 6.50958C44.0379 6.3971 44.1211 6.29792 44.2416 6.23387C44.3621 6.16981 44.51 6.14612 44.6526 6.16801C44.7953 6.1899 44.9211 6.25558 45.0023 6.35059C45.3574 6.76576 46.1804 7.07805 47.0501 7.12827C47.699 7.1654 48.9528 7.08718 50.0464 6.14118C50.1443 6.05642 50.2809 6.00581 50.4262 6.00047C50.5715 5.99513 50.7134 6.03551 50.8209 6.11272C50.9284 6.18994 50.9926 6.29766 50.9994 6.41219C51.0062 6.52673 50.955 6.63869 50.857 6.72345C49.8978 7.55287 48.6517 8 47.3176 8Z" fill="#31241B"/>
<path id="Vector_111" d="M45.9695 14C45.8738 14 45.7773 13.9979 45.6802 13.9938C43.7976 13.9129 42.0371 13.0441 41.0854 11.7258C41.0489 11.6753 41.0233 11.6185 41.0102 11.5587C40.9971 11.499 40.9966 11.4373 41.0088 11.3774C41.021 11.3174 41.0457 11.2603 41.0814 11.2093C41.1171 11.1584 41.1632 11.1145 41.217 11.0802C41.2707 11.0459 41.3312 11.0219 41.3948 11.0096C41.4585 10.9973 41.5241 10.9968 41.5879 11.0083C41.6517 11.0198 41.7125 11.0429 41.7668 11.0765C41.8211 11.11 41.8678 11.1533 41.9043 11.2038C42.6845 12.2844 44.1487 12.9973 45.7251 13.0651C47.1339 13.1253 48.3746 12.662 49.1346 11.7932C49.2196 11.7033 49.3383 11.6478 49.4659 11.6383C49.5935 11.6288 49.72 11.6661 49.819 11.7423C49.9179 11.8186 49.9816 11.9279 49.9966 12.0472C50.0116 12.1666 49.9768 12.2869 49.8995 12.3827C48.9941 13.4191 47.5735 14 45.9695 14Z" fill="#31241B"/>
<path id="Vector_112" d="M61.544 39C61.4672 39.0001 61.3906 38.9946 61.3146 38.9837L61.2983 38.9814C60.991 38.9367 60.7023 38.8034 60.4659 38.597C60.2294 38.3907 60.0548 38.1198 59.9624 37.8157C57.9179 31.2093 51.5971 29.7812 44.9049 28.2695C42.4812 27.7221 39.9739 27.1561 37.5976 26.3303C32.1436 24.515 28.8474 22.0124 27.5285 18.6847C26.495 16.0801 26.9996 13.0827 28.8463 10.8625C31.728 7.40124 35.2546 5.21855 39.3293 4.37606C40.1638 4.20211 41.0093 4.08875 41.8593 4.03683C43.1708 3.95582 44.4869 4.00853 45.7882 4.19419C45.9501 4.21708 46.0965 4.30501 46.1952 4.43865C46.294 4.57229 46.3369 4.74068 46.3146 4.90679C46.2923 5.0729 46.2066 5.22311 46.0763 5.32438C45.946 5.42565 45.7819 5.46969 45.62 5.4468C44.3994 5.27224 43.1648 5.22251 41.9346 5.29835C41.1415 5.34689 40.3528 5.45268 39.5742 5.61493C35.7759 6.40064 32.4815 8.4423 29.7836 11.6831C28.2372 13.5422 27.8107 16.0422 28.6702 18.2078C29.8277 21.1298 32.9615 23.4595 37.9854 25.1315C40.3038 25.9376 42.7767 26.4962 45.1686 27.0366C52.2175 28.6284 58.8757 30.1323 61.1356 37.4341C61.157 37.5105 61.1992 37.579 61.2572 37.6316C61.3153 37.6842 61.3868 37.7187 61.4633 37.7311L61.4832 37.734C61.5158 37.7388 61.5488 37.7398 61.5816 37.737C61.6468 37.7312 61.7095 37.7087 61.764 37.6716C61.8185 37.6344 61.863 37.5838 61.8934 37.5243C65.9001 30.3145 64.9784 24.037 63.4996 20.0402C61.2043 13.8287 55.8281 8.59707 49.4693 6.38394C49.3927 6.35713 49.322 6.3151 49.2612 6.26025C49.2004 6.2054 49.1507 6.1388 49.115 6.06426C49.0793 5.98971 49.0583 5.90868 49.0531 5.82579C49.0479 5.7429 49.0587 5.65977 49.0848 5.58116C49.1109 5.50254 49.1519 5.42997 49.2054 5.3676C49.2588 5.30523 49.3237 5.25427 49.3964 5.21763C49.469 5.181 49.548 5.15941 49.6288 5.15409C49.7096 5.14877 49.7906 5.15982 49.8673 5.18663C56.5642 7.51778 62.2306 13.0363 64.6542 19.587C66.2271 23.8381 67.211 30.5086 62.9664 38.146C62.8368 38.3847 62.6517 38.5869 62.4277 38.7346C62.2037 38.8824 61.9476 38.9711 61.6822 38.9929C61.6344 38.9981 61.5877 39 61.544 39Z" fill="#31241B"/>
<path id="Vector_113" d="M62.1511 38C62.0608 37.9997 61.9715 37.9805 61.8893 37.9436C61.807 37.9068 61.7338 37.8532 61.6744 37.7864C61.6149 37.7196 61.5707 37.6412 61.5447 37.5563C61.5186 37.4714 61.5113 37.382 61.5232 37.2942C63.0016 26.7849 56.5278 23.3793 42.4431 18.592C37.2519 16.914 34.0926 13.9217 34.002 10.5908C33.9277 7.81238 35.9448 5.36406 39.4012 4.04243C39.5576 3.98261 39.7318 3.98617 39.8855 4.05231C40.0392 4.11846 40.1599 4.24179 40.2209 4.39516C40.2819 4.54853 40.2782 4.71938 40.2108 4.87013C40.1433 5.02088 40.0176 5.13917 39.8612 5.19899C36.9238 6.3224 35.2065 8.32653 35.2693 10.5577C35.3436 13.3423 38.1792 15.9061 42.8488 17.4162C50.2191 19.9209 55.4511 22.0614 58.7853 24.9954C62.3213 28.1076 63.5526 31.953 62.7776 37.4633C62.7571 37.6119 62.6824 37.7483 62.5672 37.847C62.452 37.9458 62.3041 38.0001 62.1511 38Z" fill="#31241B"/>
<path id="Vector_114" d="M62.1497 38C62.0882 38.0002 62.027 37.9912 61.9681 37.9733C61.8904 37.95 61.818 37.9117 61.7551 37.8606C61.6923 37.8095 61.6403 37.7466 61.602 37.6755C61.5638 37.6044 61.54 37.5265 61.5322 37.4463C61.5244 37.3661 61.5326 37.2852 61.5564 37.2081C64.5099 27.5743 61.9587 20.0019 54.1787 15.3085C53.4818 14.8872 52.7106 14.5163 51.8184 14.1684C50.9136 13.8165 50.114 13.4921 49.3743 13.177C49.2236 13.1128 49.1048 12.9918 49.044 12.8407C48.9832 12.6896 48.9855 12.5207 49.0502 12.3712C49.115 12.2218 49.237 12.1039 49.3894 12.0437C49.5417 11.9834 49.712 11.9856 49.8627 12.0498C50.5889 12.3599 51.3776 12.6793 52.2698 13.0261C53.228 13.3985 54.0625 13.8021 54.8206 14.2606C63.1359 19.277 65.8749 27.3356 62.7387 37.565C62.7004 37.6905 62.6225 37.8005 62.5165 37.8788C62.4105 37.9571 62.2819 37.9996 62.1497 38Z" fill="#31241B"/>
<path id="Vector_115" d="M43.3223 10C43.1582 10.0001 42.9998 9.94183 42.8767 9.83628C40.8194 8.07385 40.4514 6.20779 41.7833 4.28896C41.8329 4.21755 41.8964 4.15634 41.9703 4.10882C42.0442 4.0613 42.127 4.0284 42.214 4.012C42.301 3.9956 42.3905 3.99602 42.4773 4.01323C42.5641 4.03045 42.6466 4.06412 42.72 4.11233C42.7934 4.16054 42.8564 4.22235 42.9052 4.29422C42.9541 4.36608 42.9879 4.44661 43.0048 4.53119C43.0217 4.61577 43.0212 4.70276 43.0035 4.78718C42.9858 4.8716 42.9512 4.9518 42.9016 5.02321C41.9604 6.37884 42.2198 7.52335 43.7688 8.85009C43.8725 8.9379 43.9461 9.05449 43.9796 9.18417C44.0132 9.31384 44.0051 9.4504 43.9565 9.57549C43.9079 9.70057 43.8211 9.80819 43.7077 9.88387C43.5943 9.95955 43.4599 9.99968 43.3223 9.99884V10Z" fill="#31241B"/>
<g id="Group_39" opacity="0.3">
<path id="Vector_116" opacity="0.3" d="M49.9952 2.03169L48.7345 20L45 18.348L49.5595 1C49.7094 1.11527 49.8287 1.27134 49.9052 1.45248C49.9817 1.63361 50.0128 1.8334 49.9952 2.03169Z" fill="#31241B"/>
</g>
<g id="Group_40" opacity="0.3">
<path id="Vector_117" opacity="0.3" d="M62.9978 37.462C62.9156 37.6125 62.798 37.7401 62.6555 37.8334C62.513 37.9266 62.35 37.9826 62.1809 37.9965C62.0994 38.0032 62.0173 38.0003 61.9364 37.9879H61.9342C61.7373 37.9606 61.5522 37.8767 61.4009 37.7459C61.2496 37.6152 61.1384 37.4431 61.0805 37.2502C58.1113 27.7587 47.0318 28.4029 37.8836 25.2567C32.7733 23.5724 29.314 21.1935 28 17.9088C39.5682 24.6676 66.6654 31.0034 63.6686 17C66.6669 22.8818 67.1091 30.1455 62.9978 37.462Z" fill="#31241B"/>
</g>
<path id="Vector_118" d="M39.4875 70C37.495 70 35.4111 69.8323 33.236 69.4968C25.6618 68.6372 19.6563 66.7089 15.3863 63.7655C10.7848 60.5937 8.30935 56.3248 8.02591 51.0769C7.87923 48.3611 8.35592 45.6043 9.44203 42.8819C10.8684 39.3203 12.7096 35.9386 14.9276 32.8063C16.0955 31.1532 17.1332 29.3135 18.0997 27.1818C20.1033 22.7654 22.2887 19.2002 24.7704 16.3036C21.1117 11.7152 20.7094 6.84351 23.7499 3.49789C25.3468 1.74128 27.533 0.839182 29.7452 1.02363C32.3989 1.24503 34.5901 2.9409 36.2589 6.06401C36.3367 6.20994 36.3532 6.38074 36.3049 6.53883C36.2565 6.69692 36.1472 6.82935 36.0009 6.907C35.8547 6.98465 35.6836 7.00115 35.5252 6.95287C35.3668 6.90458 35.2341 6.79548 35.1563 6.64955C33.68 3.88544 31.876 2.45161 29.641 2.26497C27.8469 2.11529 25.9893 2.88893 24.6754 4.33448C21.4721 7.85905 23.2931 12.6264 26.0652 15.9131C26.1619 16.0273 26.2142 16.1725 26.2124 16.322C26.2107 16.4716 26.155 16.6155 26.0556 16.7274C23.5123 19.5998 21.2825 23.1873 19.2379 27.6952C18.2383 29.8991 17.1621 31.8057 15.9484 33.5235C13.7871 36.5759 11.9928 39.8713 10.6026 43.3419C9.5843 45.8952 9.13585 48.4749 9.27336 51.0088C9.53407 55.8512 11.8295 59.7977 16.0962 62.7386C20.1975 65.5657 26.016 67.4229 33.3896 68.2584L33.4149 68.262C42.564 69.6761 50.0293 68.0202 55.6032 63.3388C62.6724 57.4011 66.5439 46.767 66.7991 32.5852C66.8011 32.4599 66.8411 32.3382 66.9136 32.2359C66.9862 32.1337 67.088 32.0557 67.2057 32.0121C72.8603 29.9122 76.4204 26.4861 76.7295 22.8463C76.9066 20.7574 75.9577 18.9005 74.191 17.8783C71.7067 16.4416 68.2046 16.9766 64.8227 19.3096C64.6865 19.4036 64.5185 19.4398 64.3556 19.4102C64.1928 19.3806 64.0484 19.2876 63.9542 19.1517C63.86 19.0158 63.8237 18.8482 63.8534 18.6856C63.8831 18.5231 63.9762 18.3789 64.1124 18.2849C67.9024 15.6709 71.904 15.1157 74.8173 16.8009C77.013 18.0712 78.1933 20.3705 77.974 22.9528C77.8083 24.9066 76.5018 29.7549 68.0392 33.031C67.7092 47.3726 63.6896 58.1776 56.4077 64.2936C51.8865 68.0922 46.2136 70 39.4875 70Z" fill="#31241B"/>
<path id="Vector_119" d="M65.8614 28H65.7949C65.664 27.9962 65.5398 27.9406 65.4487 27.8451C65.3575 27.7497 65.3067 27.6219 65.307 27.489C65.3074 27.356 65.3588 27.2285 65.4504 27.1335C65.542 27.0385 65.6665 26.9836 65.7974 26.9804C65.8211 26.9804 65.8413 26.9804 65.8628 26.9804C68.7134 26.9804 70.3125 26.0538 70.8934 24.0684C71.1379 23.233 70.9355 22.3621 70.3525 21.7383C70.079 21.443 69.7329 21.2271 69.35 21.1127C68.967 20.9984 68.5609 20.9896 68.1735 21.0875C67.2662 21.3159 66.4649 21.8564 65.906 22.6171C65.8668 22.6709 65.8176 22.7164 65.7611 22.7509C65.7046 22.7854 65.6419 22.8083 65.5767 22.8183C65.5115 22.8282 65.445 22.825 65.381 22.8088C65.317 22.7927 65.2568 22.7639 65.2037 22.7241C65.1507 22.6843 65.1059 22.6343 65.0719 22.577C65.0379 22.5196 65.0154 22.456 65.0056 22.3898C64.9958 22.3236 64.9989 22.2561 65.0148 22.1912C65.0308 22.1262 65.0591 22.065 65.0983 22.0112C65.7982 21.0587 66.8019 20.3821 67.9382 20.0966C68.4971 19.956 69.0828 19.9691 69.6351 20.1346C70.1874 20.3001 70.6862 20.612 71.0802 21.0383C71.9138 21.9297 72.2035 23.1716 71.8558 24.3604C71.1393 26.8087 69.1779 28 65.8614 28Z" fill="#31241B"/>
<path id="Vector_120" d="M27.9802 12C27.9121 12.0001 27.8447 11.9854 27.7823 11.9569C27.72 11.9284 27.6641 11.8866 27.6183 11.8344C26.1566 10.1681 25.6447 8.27609 26.2484 6.77256C26.6675 5.7295 27.5709 5.05145 28.6057 5.00302C29.8988 4.94105 31.1143 5.83562 31.9378 7.45452C31.9697 7.51342 31.9898 7.57831 31.997 7.64538C32.0042 7.71244 31.9984 7.78033 31.9799 7.84503C31.9614 7.90973 31.9305 7.96994 31.8892 8.02211C31.8478 8.07428 31.7968 8.11736 31.7391 8.1488C31.6815 8.18025 31.6183 8.19942 31.5533 8.2052C31.4884 8.21098 31.423 8.20325 31.361 8.18246C31.2989 8.16166 31.2416 8.12823 31.1922 8.08413C31.1429 8.04003 31.1026 7.98615 31.0737 7.92567C30.4338 6.66786 29.549 5.97023 28.6497 6.01297C27.9961 6.04359 27.4222 6.48339 27.1505 7.16073C26.6953 8.29282 27.1408 9.78602 28.3415 11.1546C28.405 11.2271 28.4468 11.3171 28.4619 11.4137C28.4769 11.5103 28.4646 11.6094 28.4264 11.6989C28.3881 11.7884 28.3256 11.8645 28.2464 11.9179C28.1672 11.9714 28.0748 11.9999 27.9802 12Z" fill="#31241B"/>
<path id="Vector_121" d="M33.8202 57.7423C34.2109 58.828 33.9413 59.3363 33.24 59.4665C33.113 59.4897 32.9994 59.5633 32.9229 59.6719C32.8465 59.7805 32.8132 59.9158 32.8299 60.0495C33.1562 62.539 32.0952 63.2625 31.0134 62.9203C30.1221 62.6372 29.5831 61.6906 29.6817 60.7219C29.7663 59.9049 29.9195 59.0973 30.1393 58.3083C30.1602 58.2331 30.165 58.154 30.1534 58.0766C30.1419 57.9993 30.1142 57.9255 30.0723 57.8605C30.0305 57.7955 29.9755 57.741 29.9113 57.7006C29.8471 57.6603 29.7752 57.6352 29.7007 57.6271C28.539 57.499 27.8508 56.7832 28.0275 55C29.3761 56.541 31.055 56.6367 33.0989 55.1443C33.0989 55.1435 33.1425 56.9267 33.8202 57.7423Z" fill="#E05656"/>
<path id="Vector_122" d="M29.0401 46.555C29.0626 45.7269 28.6334 45.0434 28.0813 45.0283C27.5292 45.0133 27.0634 45.6724 27.0408 46.5006C27.0183 47.3287 27.4475 48.0122 27.9996 48.0272C28.5517 48.0423 29.0175 47.3831 29.0401 46.555Z" fill="#31241B"/>
<path id="Vector_123" d="M34.0265 48.0548C34.0415 47.5027 33.6062 47.043 33.0541 47.028C32.502 47.0129 32.0423 47.4483 32.0272 48.0004C32.0122 48.5524 32.4475 49.0122 32.9996 49.0272C33.5517 49.0423 34.0114 48.6069 34.0265 48.0548Z" fill="#31241B"/>
<path id="Vector_124" d="M33.9666 52.3498C33.6738 52.856 33.4084 53.3426 33.2303 53.8508C33.0502 54.3429 32.9555 54.8706 32.9516 55.4044C32.9455 55.934 33.0232 56.476 33.1547 57.0237C33.2862 57.5714 33.469 58.1214 33.6487 58.7002V58.7044C33.663 58.752 33.6629 58.8038 33.6483 58.8513C33.6337 58.8988 33.6055 58.9393 33.5683 58.966C33.5311 58.9928 33.4871 59.0043 33.4434 58.9986C33.3998 58.9929 33.3591 58.9705 33.3281 58.9349C32.9319 58.4748 32.6096 57.9383 32.3759 57.3497C32.1393 56.7525 31.991 56.0796 32.0004 55.3852C32.006 54.6893 32.1765 54.0083 32.4937 53.4152C32.7968 52.8511 33.2118 52.3773 33.7049 52.0325C33.7426 52.0062 33.787 51.9953 33.8308 52.0018C33.8746 52.0084 33.9152 52.0318 33.9458 52.0683C33.9764 52.1048 33.9952 52.1523 33.9992 52.2027C34.0032 52.2532 33.992 52.3037 33.9676 52.3459L33.9666 52.3498Z" fill="#31241B"/>
<path id="Vector_125" d="M27.4069 54.1077C27.701 54.6169 28.1043 55.0609 28.5903 55.4106C29.0662 55.7511 29.6152 55.9799 30.1656 56.0497C30.7089 56.1166 31.2604 56.02 31.7436 55.7732C32.2301 55.5387 32.6558 55.1739 33.0625 54.7671L33.0731 54.7566C33.1678 54.6611 33.2974 54.604 33.4349 54.5971C33.5724 54.5903 33.7074 54.6342 33.8121 54.7199C33.9167 54.8055 33.9829 54.9263 33.9971 55.0574C34.0113 55.1884 33.9724 55.3196 33.8883 55.424C33.6715 55.6976 33.4234 55.9473 33.1487 56.1684C32.8624 56.3949 32.5439 56.5814 32.2029 56.7225C31.5068 57.0093 30.7331 57.0759 29.9946 56.9125C29.2694 56.7565 28.6368 56.3834 28.1317 55.922C27.629 55.4638 27.2455 54.8994 27.0119 54.2739C26.9942 54.2251 26.9963 54.1719 27.0177 54.1245C27.039 54.0772 27.0782 54.0392 27.1273 54.0181C27.1765 53.997 27.2322 53.9942 27.2834 54.0104C27.3345 54.0266 27.3775 54.0606 27.4038 54.1056L27.4069 54.1077Z" fill="#31241B"/>
<g id="Group_41" opacity="0.3">
<path id="Vector_126" opacity="0.3" d="M58 32C57.6776 31.6508 57.3434 31.3191 57 31C57.7781 31.6033 57.9704 31.9446 58 32Z" fill="#31241B"/>
</g>
<g id="Group_42" opacity="0.4">
<path id="Vector_127" opacity="0.4" d="M31.0269 61.0276C31.0419 60.4755 30.8303 60.0219 30.5543 60.0144C30.2782 60.0068 30.0423 60.4483 30.0272 61.0004C30.0122 61.5524 30.2238 62.0061 30.4998 62.0136C30.7759 62.0211 31.0118 61.5797 31.0269 61.0276Z" fill="#FFF9F2"/>
</g>
<g id="Group_43" opacity="0.4">
<path id="Vector_128" opacity="0.4" d="M30.9998 58.5134C30.9972 58.6123 30.9652 58.7081 30.9081 58.7889C30.851 58.8696 30.7712 58.9315 30.6788 58.9669C30.5865 59.0023 30.4857 59.0095 30.3893 58.9876C30.2928 58.9657 30.2051 58.9157 30.1371 58.8439C30.069 58.7721 30.0238 58.6818 30.0072 58.5843C29.9905 58.4868 30.0031 58.3866 30.0434 58.2963C30.0837 58.206 30.1498 58.1296 30.2335 58.0769C30.3172 58.0242 30.4146 57.9975 30.5135 58.0002C30.5791 58.0019 30.6438 58.0165 30.7038 58.0433C30.7638 58.07 30.8179 58.1083 30.8631 58.156C30.9082 58.2037 30.9436 58.2598 30.967 58.3211C30.9905 58.3824 31.0016 58.4478 30.9998 58.5134Z" fill="#FFF9F2"/>
</g>
<path id="Vector_129" d="M20.0121 27C20.0894 27.2931 20.1829 27.5807 20.2921 27.8612C20.3965 28.1358 20.5186 28.4017 20.6574 28.657C20.7871 28.8992 20.9401 29.1251 21.1137 29.3309C21.2637 29.5078 21.4423 29.6522 21.6403 29.7568C21.7121 29.7899 21.7773 29.8386 21.8319 29.8999C21.8865 29.9612 21.9295 30.0339 21.9583 30.1138C21.9872 30.1936 22.0013 30.2791 21.9999 30.3651C21.9985 30.451 21.9816 30.5359 21.9501 30.6145C21.9187 30.6932 21.8734 30.7642 21.8168 30.8232C21.7602 30.8823 21.6935 30.9283 21.6207 30.9586C21.5478 30.9889 21.4702 31.0028 21.3924 30.9995C21.3146 30.9963 21.2381 30.9759 21.1676 30.9396C21.1015 30.9072 21.0414 30.8618 20.9901 30.8056L20.9557 30.7668C20.7184 30.4978 20.527 30.1837 20.3909 29.8395C20.2709 29.5312 20.1812 29.2097 20.1233 28.8803C20.0667 28.5677 20.0302 28.251 20.014 27.9327C19.996 27.6221 19.9954 27.3106 20.0121 27Z" fill="#31241B"/>
<path id="Vector_130" d="M27.2791 34.1456C28.188 31.2472 27.216 28.3618 25.108 27.7008C23.0001 27.0398 20.5545 28.8536 19.6456 31.752C18.7368 34.6504 19.7088 37.5358 21.8168 38.1968C23.9247 38.8578 26.3703 37.044 27.2791 34.1456Z" fill="#31241B"/>
<path id="Vector_131" d="M27.0772 30.6655C27.1223 29.8383 26.4883 29.1312 25.6611 29.0861C24.8339 29.041 24.1267 29.675 24.0816 30.5022C24.0366 31.3294 24.6706 32.0366 25.4978 32.0816C26.325 32.1267 27.0321 31.4927 27.0772 30.6655Z" fill="#FFF9F2"/>
<path id="Vector_132" d="M25.4894 33C25.4641 33 25.4384 33 25.4124 33C24.5872 32.9579 23.9547 32.2509 24.0025 31.4243C24.0224 31.0329 24.2003 30.663 24.5003 30.3896C24.6423 30.2574 24.8125 30.1545 24.9997 30.0878C25.187 30.021 25.3871 29.9918 25.5872 30.002C25.7873 30.0122 25.9829 30.0616 26.1613 30.147C26.3396 30.2324 26.4969 30.352 26.6227 30.4978C26.8892 30.8004 27.0229 31.1864 26.9968 31.5776C26.9502 32.3758 26.2818 33 25.4894 33ZM25.5091 30.1952C25.1864 30.1965 24.8771 30.3158 24.6472 30.5278C24.385 30.7664 24.2297 31.0894 24.2127 31.4313C24.1708 32.1489 24.7136 32.7616 25.4222 32.7986C26.1309 32.8356 26.742 32.2812 26.7839 31.5621C26.807 31.2209 26.6906 30.8842 26.4584 30.6202C26.3506 30.4957 26.2163 30.3937 26.064 30.3205C25.9117 30.2473 25.7448 30.2047 25.5739 30.1952C25.5534 30.1959 25.5313 30.1952 25.5091 30.1952Z" fill="#31241B"/>
<path id="Vector_133" d="M23.0515 34.1103C23.0815 33.5589 22.6588 33.0875 22.1074 33.0574C21.5559 33.0273 21.0845 33.45 21.0544 34.0015C21.0244 34.5529 21.4471 35.0244 21.9985 35.0544C22.55 35.0845 23.0214 34.6618 23.0515 34.1103Z" fill="#FFF9F2"/>
<path id="Vector_134" d="M21.9942 36C21.9768 36 21.9594 36 21.942 36C21.8086 35.9929 21.6783 35.9599 21.5594 35.903C21.4405 35.8462 21.3355 35.7667 21.2513 35.6698C21.0755 35.4672 20.9865 35.2107 21.0017 34.9502C21.0168 34.6897 21.1349 34.4437 21.3331 34.26C21.4278 34.1718 21.5413 34.1032 21.6661 34.0586C21.791 34.0141 21.9246 33.9945 22.058 34.0013C22.1915 34.0081 22.322 34.041 22.441 34.098C22.56 34.155 22.6648 34.2347 22.7487 34.332C22.9246 34.5346 23.0135 34.7912 22.9983 35.0517C22.9831 35.3123 22.8649 35.5582 22.6665 35.7418C22.487 35.9066 22.2457 35.9992 21.9942 36ZM22.0063 34.1295C21.791 34.1308 21.5847 34.2106 21.4314 34.3519C21.2587 34.5124 21.1558 34.727 21.1425 34.9543C21.1293 35.1815 21.2066 35.4053 21.3596 35.5824C21.4312 35.6656 21.5207 35.7339 21.6223 35.7826C21.7239 35.8314 21.8354 35.8596 21.9495 35.8654C22.0635 35.8712 22.1776 35.8544 22.2843 35.8163C22.391 35.7781 22.4879 35.7193 22.5687 35.6438C22.7413 35.4834 22.8442 35.2689 22.8575 35.0417C22.8707 34.8145 22.7934 34.5907 22.6404 34.4137C22.5688 34.3305 22.4793 34.2621 22.3777 34.2131C22.2762 34.1641 22.1648 34.1355 22.0507 34.1291L22.0063 34.1295Z" fill="#31241B"/>
<path id="Vector_135" d="M22.007 25C22.1888 25.7277 22.4339 26.4382 22.7394 27.1233C22.8886 27.4562 23.0561 27.7805 23.2414 28.0947C23.4209 28.3944 23.6236 28.6796 23.8477 28.9476C23.9071 29.0174 23.9508 29.0992 23.9758 29.1873C24.0008 29.2755 24.0065 29.368 23.9925 29.4585C23.9786 29.549 23.9452 29.6355 23.8948 29.7121C23.8444 29.7886 23.7781 29.8535 23.7004 29.9022C23.6226 29.9509 23.5353 29.9824 23.4443 29.9944C23.3534 30.0065 23.2608 29.9989 23.1731 29.9721C23.0853 29.9453 23.0043 29.9 22.9356 29.8393C22.8669 29.7785 22.8121 29.7037 22.775 29.62L22.7727 29.6148C22.428 28.8446 22.2445 28.0678 22.1321 27.2972C22.0238 26.5366 21.982 25.7679 22.007 25Z" fill="#31241B"/>
<path id="Vector_136" d="M41.0051 41.8254C41.4521 40.6633 42.2186 39.669 43.206 38.9705C44.2605 38.2363 45.5206 37.9027 46.7788 38.0246C48.0415 38.1402 49.2391 38.7167 50.1478 39.5736C51.0618 40.4256 51.7214 41.536 51.9954 42.7291C52.0049 42.7767 51.9996 42.8263 51.9801 42.8704C51.9606 42.9146 51.928 42.9508 51.8873 42.9737C51.8466 42.9966 51.7999 43.0048 51.7543 42.9973C51.7087 42.9897 51.6667 42.9667 51.6346 42.9317L51.6324 42.9287C50.8857 42.0654 50.1283 41.3263 49.2859 40.7715C48.4435 40.2166 47.5432 39.8495 46.6111 39.7321C45.6593 39.6144 44.6949 39.7583 43.8113 40.1497C42.8898 40.54 42.0308 41.1902 41.1717 41.9507C41.1534 41.9656 41.1311 41.9739 41.108 41.9743C41.0849 41.9747 41.0623 41.9671 41.0437 41.9528C41.025 41.9384 41.0113 41.918 41.0046 41.8947C40.9979 41.8714 40.9986 41.8464 41.0065 41.8235L41.0051 41.8254Z" fill="#31241B"/>
<path id="Vector_137" d="M49.475 39.8198C49.7648 39.7695 50.0431 39.6634 50.2959 39.5071C50.5667 39.3371 50.8091 39.1221 51.0136 38.8707C51.4443 38.3509 51.757 37.6885 52 37C51.9373 37.732 51.8096 38.475 51.4867 39.1866C51.3214 39.5546 51.1002 39.8923 50.8317 40.1866C50.5458 40.4966 50.2079 40.7492 49.8348 40.932L49.8118 40.9434C49.7441 40.9767 49.6709 40.9957 49.5962 40.9993C49.5215 41.003 49.4469 40.9913 49.3765 40.9648C49.3061 40.9384 49.2415 40.8977 49.1862 40.8452C49.1309 40.7926 49.086 40.7292 49.0542 40.6586C49.0224 40.5879 49.0042 40.5114 49.0006 40.4334C48.9971 40.3554 49.0083 40.2774 49.0337 40.204C49.059 40.1305 49.0979 40.063 49.1483 40.0052C49.1986 39.9475 49.2593 39.9006 49.327 39.8674C49.3741 39.8448 49.4239 39.8288 49.475 39.8198Z" fill="#31241B"/>
<path id="Vector_138" d="M50.6073 40.1098C51.1775 40.1472 51.7842 40.0534 52.3636 39.8492C52.943 39.6451 53.4928 39.3446 54 39C53.6308 39.4412 53.2004 39.8636 52.6591 40.2216C52.1177 40.5796 51.4518 40.8648 50.6995 40.987L50.6745 40.991C50.6022 41.0027 50.5277 41.003 50.4552 40.9919C50.3827 40.9807 50.3137 40.9584 50.2521 40.9261C50.1906 40.8938 50.1376 40.8522 50.0963 40.8037C50.055 40.7552 50.0261 40.7007 50.0114 40.6433C49.9966 40.586 49.9962 40.5269 50.0103 40.4694C50.0243 40.4119 50.0525 40.3572 50.0932 40.3083C50.1339 40.2595 50.1863 40.2175 50.2475 40.1847C50.3087 40.152 50.3774 40.1291 50.4498 40.1174C50.5016 40.1092 50.5546 40.1066 50.6073 40.1098Z" fill="#31241B"/>
<g id="Group_44" opacity="0.3">
<path id="Vector_139" opacity="0.3" d="M15 105.756C12.6851 106.526 10.0768 105.394 8 103.47C10.1527 104.189 11.115 103.078 11.5439 102C12.2704 103.094 13.4823 104.672 15 105.756Z" fill="#31241B"/>
</g>
<g id="Group_45" opacity="0.3">
<path id="Vector_140" opacity="0.3" d="M82 60.622C73.9283 70.8311 64.4512 65.7581 62.0403 54L61 58.2136C61.6763 67.2937 74.759 75.9236 82 60.622Z" fill="#31241B"/>
</g>
</g>
</svg>
