<svg width="10" height="18" viewBox="0 0 10 18" fill="none" xmlns="http://www.w3.org/2000/svg">
<path fill-rule="evenodd" clip-rule="evenodd" d="M9.768 16.89C10.122 16.466 10.064 15.835 9.64 15.482C7.995 14.105 4.175 10.72 2.866 8.99999C4.197 7.25099 7.966 3.91499 9.64 2.51799C10.064 2.16499 10.122 1.53399 9.768 1.10999C9.415 0.684991 8.784 0.627991 8.359 0.981991C6.52 2.51399 2.56 5.97499 1.159 7.94599C0.94 8.25799 0.75 8.60999 0.75 8.99999C0.75 9.38999 0.94 9.74199 1.159 10.053C2.532 11.985 6.558 15.515 8.359 17.017L8.36 17.018C8.784 17.372 9.415 17.314 9.768 16.89Z" fill="#333230"/>
</svg>
