<svg width="40" height="40" viewBox="0 0 40 40" fill="none" xmlns="http://www.w3.org/2000/svg">
<g id="clpse">
<path id="Vector" fill-rule="evenodd" clip-rule="evenodd" d="M32.5 20.0237C32.5 30.0237 30 32.5237 20 32.5237C10 32.5237 7.5 30.0237 7.5 20.0237C7.5 10.0237 10 7.52374 20 7.52374C30 7.52374 32.5 10.0237 32.5 20.0237ZM21.7675 16.4887C22.2562 16.0012 23.0475 16.0012 23.535 16.4887C24.0237 16.9775 24.0237 17.7687 23.535 18.2562L21.7675 20.0237L23.535 21.7912C24.0225 22.28 24.0237 23.0712 23.535 23.56C23.0475 24.0475 22.255 24.0475 21.7675 23.5587L20 21.7925L18.2325 23.56C17.7438 24.0475 16.9525 24.0475 16.465 23.56C15.9762 23.0712 15.9762 22.28 16.465 21.7925L18.2325 20.0237L16.465 18.2575C15.9775 17.7687 15.9762 16.9775 16.465 16.4887C16.9525 16.0012 17.745 16.0012 18.2325 16.49L20 18.2562L21.7675 16.4887Z" fill="#807D79"/>
</g>
</svg>
