<svg width="162" height="174" viewBox="0 0 162 174" fill="none" xmlns="http://www.w3.org/2000/svg">
<rect width="162" height="174" fill="#E5E5E5"/>
<g id="iPhone 11 Pro / X - 65">
<rect width="375" height="812" transform="translate(-111 -148)" fill="#FFF9F2"/>
<g id="Account Setup Illustration">
<g id="Group 36227">
<path id="Vector" d="M129.04 110.717C128.963 109.024 128.838 108.493 128.013 106.986C127.012 105.154 124.493 104.601 122.741 103.621C118.991 101.523 115.889 97.4809 112.699 94.6008C109.458 91.6807 106.599 88.3636 104.188 84.7279C101.761 81.0541 99.9453 77.0255 97.5868 73.3112C93.4222 66.7495 86.3273 60.5967 77.9692 62.3246C73.1065 63.3303 69.6632 67.5315 65.867 70.405C61.4845 73.7239 56.8147 76.6379 52.2538 79.6984C42.9334 85.9525 34.477 93.354 27.4622 102.141C27.4622 102.147 27.4554 102.153 27.4506 102.158C24.4151 102.561 20.9352 103.637 19.8765 106.392C18.3529 110.359 19.5216 115.912 21.7963 119.364C24.445 123.386 28.9191 124.996 33.5755 124.922L34.2813 124.911C37.1943 130.555 41.8699 134.955 47.6197 137.934C50.2414 139.292 52.923 140.608 55.7714 141.422C57.0336 141.784 58.3941 142.119 59.7094 142.194C61.3707 142.29 62.982 142.995 64.709 143.291C66.5747 143.594 68.4599 143.761 70.3498 143.792C72.9937 143.844 75.6319 143.58 78.2566 143.326C82.4896 142.918 86.7352 142.734 90.9171 142.072C91.6027 141.762 92.2921 141.457 92.9748 141.138C97.0882 139.217 100.978 136.923 104.598 134.175C106.307 132.887 107.922 131.478 109.431 129.96C110.202 129.178 110.902 128.224 111.724 127.507C112.814 126.551 113.803 125.685 115.219 125.614C123.324 125.199 129.403 118.75 129.04 110.717Z" fill="#FDEFE8"/>
<path id="Vector_2" d="M30.4841 105.177C35.7566 101.328 40.4158 98.6688 46.8493 97.0913C56.3432 94.7626 66.2306 94.5949 75.9415 95.1522C83.1472 95.5659 89.9307 96.3643 97.069 97.4895C103.776 98.5502 110.889 100.993 116.728 105.08C117.076 103.619 117.596 101.113 117.715 99.6128C115.997 97.9196 114.358 96.1049 112.696 94.6036C109.454 91.6837 106.594 88.3661 104.184 84.7297C101.757 81.0569 99.9415 77.0283 97.5829 73.3131C93.4184 66.7562 86.3235 60.5995 77.9654 62.3274C73.1018 63.3331 69.6594 67.5343 65.8632 70.4078C61.4807 73.7267 56.8109 76.6407 52.25 79.7012C43.9681 85.261 36.3679 91.7282 29.8535 99.2686C30.001 101.247 30.1264 103.23 30.4841 105.177Z" fill="#FCE4D8"/>
<path id="Vector_3" d="M127.136 83.3054C126.062 79.1871 124.812 75.1094 123.045 71.2524C122.855 70.9659 122.691 70.6633 122.555 70.3479C121.288 68.432 118.45 62.769 117.025 60.9668C114.377 57.618 111.417 54.516 108.118 51.8007C105.38 49.5463 102.41 47.5947 99.3071 45.8831C90.0784 40.7929 77.2047 39.2395 66.87 40.7273C55.866 42.3106 46.0018 47.9495 37.5936 55.0184C32.3983 59.3826 28.5664 66.086 25.5859 72.5329C22.2014 79.8612 21.3799 86.0651 21.8003 94.2139C21.889 95.9399 21.8003 100.013 23.4684 101.36C24.4876 102.185 26.2647 101.81 27.7709 101.463C28.9154 101.837 29.5644 101.211 30.4303 100.291C30.6144 100.098 30.5643 99.6002 30.7629 99.4392C31.4225 98.9059 35.2814 97.1307 36.1318 96.9244C38.2389 96.4238 40.3056 95.7663 42.3146 94.9574C42.546 94.8667 42.7851 94.7905 43.0185 94.7038C43.5478 91.1361 45.3326 89.7003 46.1638 86.1924C46.4184 85.1182 47.3209 83.5523 47.0664 84.6245C47.0664 84.639 48.4925 83.3469 48.4886 83.3614C48.747 83.4211 49.3227 83.4202 49.3989 83.7654C49.9572 86.31 48.7808 90.3357 49.4066 92.8649C59.48 90.6915 70.9526 91.1553 80.7898 91.5391C84.5841 91.6876 87.2348 91.8785 90.952 92.5622C90.9298 91.3906 91.9914 90.4717 91.8641 89.3069C91.814 88.8431 92.2971 88.4497 92.7214 88.4497C93.2199 88.4497 93.5284 88.8469 93.5786 89.3069C93.7174 90.5826 94.674 91.6837 94.6923 92.971C99.2242 93.8986 103.241 95.2756 107.337 96.8936C107.543 96.7798 107.781 96.74 108.012 96.7807C109.562 97.0391 111.112 97.312 112.619 97.7652C114.065 98.203 115.954 98.8442 116.708 100.285C116.814 100.475 116.84 100.7 116.78 100.91C116.804 101.15 116.739 101.39 116.597 101.585C116.777 102.073 116.834 102.599 116.766 103.115C116.551 104.569 117.867 105.815 119.288 105.054C120.982 104.151 123.2 104.549 124.688 103.46C126.026 102.481 125.679 100.32 126.134 98.8944C127.682 94.0172 127.725 87.5886 127.099 83.3238C127.094 83.3218 127.112 83.3151 127.136 83.3054Z" fill="#725440"/>
<path id="Vector_4" d="M127.498 88.2319C127.498 88.1991 126.987 85.4298 126.982 85.397C126.841 84.4212 126.657 83.4348 126.442 82.4465C125.025 82.1753 123.649 81.7243 122.347 81.1042C118.986 79.494 115.374 77.1663 113.322 74.0952C112.035 72.1667 110.807 70.3905 109.657 68.382C109.912 69.9094 110.686 71.4155 110.683 72.9236C110.678 75.4306 110.676 78.1768 108.138 79.4226C104.935 80.9943 100.989 78.5017 98.6969 76.3881C95.5669 73.5031 93.4099 69.6818 91.3166 66.0254C89.7622 63.3111 88.8548 59.0828 86.8463 56.6346C86.9215 57.325 87.6052 59.2101 87.6688 59.8996C88.1326 64.8837 88.7295 72.2901 86.638 77.0776C82.6779 86.1251 67.6936 85.5629 59.9362 82.7107C54.3638 80.6626 54.6059 69.3077 55.2818 64.9339C55.7533 61.8801 56.5295 58.8842 57.4543 55.9365C55.8218 57.7541 54.5991 59.9439 53.4922 62.1077C52.2522 64.5366 51.0931 66.9945 49.9351 69.4629C48.8175 71.8446 47.6498 74.2244 46.1822 76.4142C44.9442 78.2626 43.4149 80.2065 41.3543 81.1785C40.04 81.7975 38.4972 82.2054 37.0981 81.6191C35.8774 81.1081 35.1455 79.9799 34.7068 78.7795C33.569 75.6572 34.001 71.9227 34.5082 68.7205C34.6772 67.6534 34.8903 66.5927 35.1474 65.5385C33.5806 68.0667 32.4167 70.8476 31.4023 73.6612C30.7042 75.5955 30.0601 77.5491 29.362 79.4824C28.7834 81.0772 28.2251 82.7608 27.2214 84.1435C26.6351 84.9535 25.8338 85.7644 24.7731 85.8204C23.9121 85.8657 23.1629 85.3816 22.6354 84.7365C22.4478 84.5048 22.2761 84.2606 22.1215 84.0056C21.6741 87.1973 21.6037 90.5008 21.7956 94.2093C21.8843 95.9353 21.7956 100.008 23.4637 101.355C24.4829 102.181 26.26 101.806 27.7662 101.458C28.9098 101.833 29.5597 101.207 30.4255 100.286C30.6097 100.093 30.5596 99.5955 30.7582 99.4345C31.4178 98.9013 35.2767 97.1261 36.1271 96.9198C38.2342 96.4191 40.3009 95.7616 42.3098 94.9527C42.5413 94.8621 42.7804 94.7859 43.0137 94.6991C43.5431 91.1314 45.3279 89.6956 46.1591 86.1877C46.4137 85.1136 47.3162 83.5476 47.0616 84.6199C47.0616 84.6343 48.4878 83.3422 48.4839 83.3567C48.7423 83.4165 49.318 83.4155 49.3941 83.7617C49.9524 86.3054 48.7761 90.3311 49.4019 92.8603C59.4753 90.6869 70.9479 91.1507 80.7851 91.5345C84.5794 91.683 87.2301 91.8739 90.9472 92.5575C90.9251 91.386 91.9867 90.467 91.8594 89.3022C91.8093 88.8384 92.2924 88.445 92.7166 88.445C93.2151 88.445 93.5237 88.8423 93.5739 89.3022C93.7127 90.5779 94.6692 91.6791 94.6875 92.9664C99.2195 93.894 103.237 95.2709 107.333 96.8889C107.538 96.7752 107.776 96.7353 108.008 96.7761C109.557 97.0345 111.108 97.3074 112.614 97.7606C114.06 98.1983 115.949 98.8396 116.703 100.28C116.809 100.471 116.835 100.695 116.775 100.905C116.8 101.145 116.734 101.385 116.592 101.58C116.772 102.069 116.83 102.594 116.761 103.11C116.546 104.564 117.862 105.81 119.283 105.049C120.978 104.147 123.195 104.544 124.683 103.455C126.022 102.477 125.928 100.37 126.13 98.8897C126.709 94.5901 128.129 92.4929 127.498 88.2319Z" fill="#725440"/>
<path id="Vector_5" opacity="0.25" d="M49.4914 118.129C53.8295 118.129 57.3462 115.474 57.3462 112.198C57.3462 108.923 53.8295 106.267 49.4914 106.267C45.1534 106.267 41.6367 108.923 41.6367 112.198C41.6367 115.474 45.1534 118.129 49.4914 118.129Z" fill="#FAB292"/>
<path id="Vector_6" opacity="0.25" d="M98.0491 119.393C102.387 119.393 105.904 116.738 105.904 113.462C105.904 110.187 102.387 107.531 98.0491 107.531C93.711 107.531 90.1943 110.187 90.1943 113.462C90.1943 116.738 93.711 119.393 98.0491 119.393Z" fill="#FAB292"/>
<path id="Vector_7" d="M74.7229 109.352C76.4845 109.352 77.9126 108.527 77.9126 107.51C77.9126 106.493 76.4845 105.668 74.7229 105.668C72.9613 105.668 71.5332 106.493 71.5332 107.51C71.5332 108.527 72.9613 109.352 74.7229 109.352Z" fill="#FF8685"/>
<path id="Vector_8" d="M66.7793 42.033C41.1305 45.7666 15.6985 71.9949 24.152 99.2801C24.1858 99.3891 24.3786 99.3766 24.3623 99.2512C22.588 85.8579 25.8559 72.4925 34.4617 61.9022C42.7542 51.6928 54.3531 45.4532 66.923 42.4949C67.8169 42.2847 67.6404 41.9077 66.7793 42.033Z" fill="#725440"/>
<path id="Vector_9" d="M122.726 114.009C122.726 113.872 122.715 113.734 122.704 113.595C122.462 110.665 119.907 107.214 116.666 108.706C116.053 108.987 116.224 109.843 116.706 110.127C115.899 113.57 115.287 117.01 114.808 120.514C114.711 121.189 115.219 121.973 116.002 121.709C119.41 120.568 122.801 117.858 122.726 114.009Z" fill="#FCE4D8"/>
<path id="Vector_10" d="M32.287 118.446C31.5782 114.484 31.3063 110.409 30.8223 106.414C30.8114 106.254 30.7428 106.103 30.6292 105.99C30.5157 105.877 30.365 105.81 30.2052 105.799C30.0099 105.684 29.7882 105.622 29.5617 105.618C29.3351 105.614 29.1114 105.668 28.9121 105.776C26.0271 107.286 24.1188 110.53 24.546 113.831C24.979 117.172 27.809 118.941 30.7365 119.994C31.7229 120.352 32.4412 119.306 32.287 118.446Z" fill="#FCE4D8"/>
<path id="Vector_11" d="M82.1952 142.556C83.063 142.293 83.9579 141.999 84.8469 142.158C85.8651 142.341 86.679 143.087 87.3906 143.842C91.9003 148.648 94.3784 154.961 96.7553 161.108C97.7533 163.688 99.405 168.656 99.8409 171.387C83.3282 174.609 64.1639 174.37 47.4082 172.813C48.6048 167.869 49.9008 161.847 51.8254 157.139C53.3566 153.392 54.964 146.983 58.2367 144.604C59.683 143.55 61.193 142.206 62.9383 142.609C66.6429 143.464 69.8288 142.732 72.7736 143.546C75.784 144.369 79.29 143.441 82.1952 142.556Z" fill="white"/>
<path id="Vector_12" d="M96.7863 161.187C95.2039 160.135 93.72 158.958 92.5368 157.465C92.3507 157.23 92.183 156.991 92.0239 156.75C91.95 156.805 91.8684 156.848 91.7818 156.879C91.3605 157.015 90.8176 156.72 90.7279 156.28C90.6084 155.712 90.5572 155.129 90.4917 154.552C90.457 154.252 90.4194 153.951 90.3827 153.651C90.3827 153.623 90.375 153.594 90.3702 153.566C90.3605 153.495 90.349 153.422 90.3384 153.351C90.3162 153.217 90.293 153.083 90.266 152.949C90.2394 152.823 90.2397 152.693 90.267 152.567C90.2942 152.441 90.3478 152.323 90.4242 152.219C90.4242 152.214 90.4242 152.208 90.4242 152.204C90.3885 151.914 90.3634 151.632 90.3355 151.345C89.8852 149.546 89.4079 147.756 89.1331 145.921C88.5844 145.205 88.0145 144.504 87.3974 143.842C87.247 143.682 87.0908 143.523 86.9307 143.369C86.4679 144.43 85.9665 145.48 85.5432 146.551C84.929 148.094 84.2038 149.964 84.7187 151.635C84.8778 152.151 84.4391 152.743 83.8924 152.719C81.3381 152.609 78.7877 152.781 76.2353 152.842C71.9493 152.946 67.6613 153.025 63.3733 153.027C60.1315 153.027 56.8058 152.97 53.6094 152.32C52.9566 154.062 52.3896 155.774 51.8342 157.134C49.9057 161.842 48.6136 167.864 47.417 172.807C64.1698 174.365 83.337 174.603 99.8497 171.382C99.41 168.682 97.7862 163.788 96.7863 161.187Z" fill="#E05656"/>
<path id="Vector_13" d="M89.3534 155.789C89.1046 155.379 88.6784 155.12 87.9832 155.054C87.5831 155.016 87.18 154.998 86.7789 154.999C85.8465 154.8 84.8841 154.69 84.1552 155.041C83.8816 155.181 83.6415 155.379 83.4513 155.62C83.4262 155.642 83.4064 155.669 83.3934 155.7C82.8534 156.405 82.5632 157.426 82.6105 158.197C82.6365 158.612 82.9595 158.992 83.3307 159.146C83.9826 159.418 84.7983 159.436 85.4907 159.522C86.1974 159.606 86.9737 159.741 87.6882 159.686C88.9928 159.59 89.6977 158.575 89.6784 157.309C89.6784 157.243 89.6716 157.183 89.6687 157.117C89.7432 156.888 89.7532 156.643 89.6976 156.408C89.6419 156.174 89.5229 155.96 89.3534 155.789Z" fill="#E05656"/>
<path id="Vector_14" d="M84.1243 160.93C84.0946 160.89 84.0524 160.86 84.0042 160.847C83.9561 160.833 83.9047 160.835 83.8582 160.854C83.5284 161.008 83.325 161.451 83.136 161.754C82.8891 162.151 82.597 162.608 82.515 163.068C82.3945 163.743 83.3828 164.182 83.7772 163.599C84.0568 163.188 84.1629 162.62 84.213 162.128C84.2497 161.755 84.3365 161.255 84.1243 160.93Z" fill="#F96291"/>
<path id="Vector_15" d="M86.9243 143.962C86.9243 143.952 86.9201 143.942 86.9127 143.934C86.9053 143.927 86.8952 143.923 86.8847 143.923C86.8742 143.923 86.8642 143.927 86.8568 143.934C86.8494 143.942 86.8452 143.952 86.8452 143.962C86.4595 145.824 86.0362 147.705 85.4952 149.525C85.1664 150.624 84.6785 151.703 84.37 152.812C84.2895 152.767 84.2027 152.735 84.1125 152.716C82.6584 152.427 81.349 152.786 79.9229 153.055C79.5642 153.124 77.7765 153.126 77.8729 153.846C78.1207 155.691 82.9612 154.587 84.1019 154.521C84.1343 154.518 84.1665 154.514 84.1983 154.507C84.4741 155.119 85.3805 155.402 85.8375 154.746C87.8538 151.853 87.6744 147.254 86.9243 143.962Z" fill="#F96291"/>
<path id="Vector_16" d="M97.581 161.269C96.3275 160.691 95.0171 160.238 93.7713 159.63C92.6229 159.072 91.8148 158.26 90.7648 157.591C90.7611 157.588 90.7568 157.586 90.7521 157.585C90.7475 157.585 90.7427 157.585 90.7384 157.587C90.734 157.589 90.7302 157.592 90.7274 157.595C90.7246 157.599 90.7228 157.604 90.7223 157.608C90.2653 160.174 95.1636 162.119 96.9224 162.85C97.9426 163.276 98.5828 161.73 97.581 161.269Z" fill="#F96291"/>
<path id="Vector_17" d="M83.3611 143.287C82.0893 144.669 80.6478 145.661 78.8176 146.139C77.2932 146.537 75.7243 146.252 74.223 146.602C74.2071 146.605 74.192 146.612 74.1793 146.622C74.1666 146.632 74.1566 146.645 74.1503 146.66C74.144 146.675 74.1415 146.691 74.143 146.707C74.1446 146.723 74.1502 146.738 74.1594 146.752C76.7156 150.275 84.0766 147.764 84.9811 143.97C85.2106 143.01 83.9137 142.693 83.3611 143.287Z" fill="#FFF9F2"/>
<path id="Vector_18" d="M91.1273 150.727C90.8747 149.736 90.7551 148.594 89.9442 147.919C89.9326 147.91 89.9192 147.904 89.9051 147.902C89.891 147.899 89.8765 147.9 89.8627 147.903C89.8488 147.907 89.8359 147.914 89.825 147.923C89.8141 147.932 89.8054 147.944 89.7995 147.957C89.3704 148.952 89.7812 150.113 89.8718 151.17C89.9943 152.6 89.9287 154.04 90.0647 155.465C90.1785 156.69 91.9469 156.417 91.9257 155.236C91.8929 153.722 91.5005 152.19 91.1273 150.727Z" fill="#FFF9F2"/>
<path id="Vector_19" d="M71.7889 163.019L71.4668 162.997C70.6385 162.942 70.1101 162.76 70.2625 162.003L70.6607 159.443C70.813 158.687 71.6085 158.119 72.4368 158.174L72.7589 158.196C73.5872 158.251 74.1358 158.909 73.9835 159.666L73.565 161.749C73.4126 162.506 72.6171 163.076 71.7889 163.019Z" fill="#FFF9F2"/>
<path id="Vector_20" d="M75.285 163.151L74.9629 163.129C74.1337 163.074 73.586 162.416 73.7383 161.659L74.1568 159.576C74.3092 158.819 75.1037 158.251 75.9329 158.307L76.255 158.328C77.0833 158.383 77.6319 159.042 77.4796 159.798L77.0602 161.882C76.9088 162.638 76.1133 163.207 75.285 163.151Z" fill="#FFF9F2"/>
<path id="Vector_21" d="M80.9317 166.204C80.4187 168.755 76.5289 169.748 72.9902 169.511C69.4514 169.273 66.4507 167.857 66.9636 165.307C67.4766 162.756 71.2362 160.933 74.774 161.169C78.3118 161.405 81.4446 163.654 80.9317 166.204Z" fill="#FFF9F2"/>
<path id="Vector_22" d="M74.1311 163.254C74.0955 163.435 73.7879 163.562 73.4465 163.543C73.1052 163.524 72.8564 163.356 72.8921 163.175C72.9278 162.994 73.2354 162.867 73.5777 162.886C73.92 162.904 74.1678 163.076 74.1311 163.254Z" fill="#400705"/>
<path id="Vector_23" d="M72.5695 163.044C72.5508 163.128 72.5028 163.204 72.4341 163.257C72.3653 163.31 72.2801 163.337 72.1935 163.333C72.1537 163.331 72.1149 163.321 72.0796 163.303C72.0443 163.285 72.0136 163.259 71.9895 163.227C71.9654 163.195 71.9487 163.159 71.9404 163.12C71.9322 163.081 71.9326 163.041 71.9418 163.002C71.9605 162.918 72.0085 162.842 72.0772 162.789C72.146 162.736 72.2312 162.709 72.3178 162.713C72.3576 162.714 72.3966 162.724 72.4319 162.743C72.4673 162.761 72.4981 162.787 72.5222 162.819C72.5463 162.85 72.5631 162.887 72.5713 162.926C72.5794 162.965 72.5788 163.005 72.5695 163.044Z" fill="#400705"/>
<path id="Vector_24" d="M75.2004 163.186C75.1816 163.271 75.1335 163.347 75.0646 163.4C74.9956 163.453 74.9102 163.479 74.8234 163.476C74.7837 163.474 74.7448 163.464 74.7095 163.446C74.6743 163.428 74.6435 163.402 74.6194 163.37C74.5953 163.339 74.5786 163.302 74.5703 163.263C74.5621 163.225 74.5625 163.184 74.5717 163.146C74.5902 163.061 74.6381 162.986 74.7069 162.933C74.7757 162.88 74.861 162.853 74.9477 162.857C74.9874 162.858 75.0262 162.868 75.0614 162.887C75.0966 162.905 75.1273 162.931 75.1515 162.962C75.1756 162.994 75.1925 163.03 75.2009 163.069C75.2094 163.108 75.2092 163.148 75.2004 163.186Z" fill="#400705"/>
<path id="Vector_25" d="M73.3453 164.312L73.2334 164.304L73.406 163.444L73.5188 163.452L73.3453 164.312Z" fill="#400705"/>
<path id="Vector_26" d="M71.7802 161.582C71.3714 161.555 71.1052 161.231 71.1766 160.859L71.3878 159.809C71.463 159.436 71.8545 159.157 72.2623 159.184C72.6702 159.211 72.9373 159.535 72.866 159.908L72.6548 160.957C72.5796 161.33 72.1881 161.61 71.7802 161.582Z" fill="#FFA2B7"/>
<path id="Vector_27" d="M75.0188 161.636C74.6109 161.608 74.3438 161.284 74.4161 160.912L74.6263 159.862C74.7015 159.489 75.093 159.21 75.5018 159.237C75.9097 159.265 76.1768 159.589 76.1045 159.961L75.8933 161.01C75.8191 161.383 75.4286 161.663 75.0188 161.636Z" fill="#FFA2B7"/>
<path id="Vector_28" d="M71.9573 163.494C71.8975 163.794 71.4983 164.014 71.0653 163.985C70.6324 163.956 70.3306 163.69 70.3904 163.39C70.4501 163.09 70.8503 162.87 71.2833 162.899C71.7162 162.928 72.0132 163.194 71.9573 163.494Z" fill="#FFA2B7"/>
<path id="Vector_29" opacity="0.25" d="M76.4736 163.797C76.4129 164.097 76.0137 164.316 75.5808 164.287C75.1478 164.258 74.847 163.991 74.9058 163.692C74.9646 163.392 75.3657 163.172 75.7987 163.202C76.2316 163.232 76.5344 163.497 76.4736 163.797Z" fill="#FAB292"/>
<path id="Vector_30" d="M0.834759 75.3795C0.560914 77.2579 15.5491 79.1863 19.2075 78.2221C19.5382 78.1343 20.11 79.3474 20.3838 79.3416C20.5564 79.3416 22.05 80.1911 22.1966 80.1978C23.3103 76.3322 25.3323 72.2178 27.0284 68.5623C26.2098 68.219 23.5784 67.41 23.5938 67.4052C24.3652 67.0195 11.2332 54.7216 10.0288 55.9953C7.58928 58.5698 1.87711 68.2017 0.834759 75.3795Z" fill="#725440"/>
<path id="Vector_31" d="M23.9158 67.5054C22.7327 69.3972 21.8369 71.5378 21.0346 73.5743C20.4126 75.1938 19.9637 76.8745 19.6953 78.5884C19.9547 78.9162 20.2218 79.3395 20.3838 79.3357C20.5458 79.3318 22.05 80.1852 22.1966 80.1919C23.3103 76.3263 25.3323 72.2118 27.0284 68.5564C26.3872 68.2903 24.638 67.7368 23.9158 67.5054Z" fill="#E05656"/>
<path id="Vector_32" d="M21.9263 71.4887C22.4711 70.1186 23.039 68.7541 23.6995 67.4389C23.6635 67.4288 23.6281 67.4165 23.5935 67.4023C24.3648 67.0166 11.2328 54.7186 10.0285 55.9924C8.97648 57.1051 7.31606 59.5273 5.68359 62.5049C6.08859 62.5417 6.49084 62.6042 6.88793 62.692C10.1143 63.4093 12.9771 65.3986 15.4485 67.5132C17.5043 69.2739 19.3836 71.2458 21.1298 73.316C21.3921 72.695 21.6891 72.0875 21.9263 71.4887Z" fill="#725440"/>
<g id="Group" style="mix-blend-mode:multiply">
<g id="Vector_33" style="mix-blend-mode:multiply" opacity="0.5">
<path d="M23.8972 67.4995C23.0091 69.4859 22.2021 71.5117 21.583 73.5935C21.6452 73.6034 21.7061 73.6206 21.7643 73.6446C22.5935 73.9985 23.3495 74.5028 24.0929 75.011C25.0311 72.8 26.0793 70.6073 27.0291 68.5592C26.3811 68.2902 24.6127 67.7271 23.8972 67.4995Z" fill="#E05656"/>
</g>
</g>
<path id="Vector_34" d="M22.4015 79.0541L21.4913 78.6386L21.0873 78.4534C20.9667 78.3985 20.717 78.1873 20.8501 78.4341C20.9831 78.681 20.9465 78.2625 20.9638 78.1449C20.9812 78.0272 21.0005 77.8864 21.0198 77.7592C21.0622 77.4863 21.1094 77.2134 21.1615 76.9424C21.3894 75.7548 21.7119 74.5872 22.1257 73.4509C22.5286 72.3519 23.0207 71.2877 23.5972 70.2689C23.7335 70.0279 23.8736 69.7897 24.0176 69.5544C24.1275 69.3751 24.3339 68.8852 24.5209 68.7695C24.4322 68.8245 24.4775 68.7647 24.6116 68.8129C24.7456 68.8611 24.9008 68.8968 25.0455 68.9383L26.1322 69.2545C27.1928 69.5621 27.646 67.9046 26.5873 67.6018C25.867 67.3935 24.9818 66.9722 24.2191 67.0696C23.4236 67.1708 23.035 67.8978 22.6484 68.5159C21.8249 69.8413 21.1335 71.2442 20.5839 72.7046C20.0423 74.126 19.6456 75.5985 19.3998 77.0996C19.2947 77.7418 19.0006 78.6897 19.3487 79.2971C19.5618 79.6674 19.9572 79.8178 20.3236 79.9856L21.5366 80.5362C22.5327 80.9913 23.4053 79.5141 22.4044 79.0561L22.4015 79.0541Z" fill="#2D1111"/>
<path id="Vector_35" d="M19.4339 77.1103C15.5923 77.3164 11.7398 77.0932 7.94779 76.445C6.15333 76.1326 4.32802 75.77 2.59045 75.2156C1.72263 74.9379 1.60596 74.5338 1.83545 73.6728C2.07073 72.7895 2.35517 71.9159 2.65023 71.051C3.85609 67.5365 5.45771 64.1706 7.4242 61.018C7.88318 60.2814 8.3608 59.5572 8.85707 58.8456C9.07949 58.5242 9.30641 58.2066 9.53782 57.8929C9.71717 57.649 10.0961 56.8882 10.3931 56.7985C10.7875 56.6789 11.8944 57.7464 12.2194 57.9903C12.9606 58.5451 13.6902 59.1178 14.4082 59.7086C17.5517 62.2684 20.4473 65.1184 23.0565 68.2209C23.7652 69.0675 24.9715 67.8497 24.2686 67.0089C21.6042 63.8426 18.6427 60.9389 15.4245 58.3374C14.7174 57.7647 14.0036 57.2054 13.2829 56.6597C12.5897 56.1351 11.8038 55.3386 10.9476 55.1024C9.99777 54.8401 9.30833 55.3849 8.76161 56.0917C8.12424 56.9123 7.51677 57.7579 6.93533 58.62C4.6358 62.0408 2.75981 65.728 1.3485 69.6008C0.987877 70.5882 0.658427 71.5865 0.360155 72.5957C0.0969164 73.4886 -0.198142 74.4442 0.179842 75.3467C0.485507 76.0795 1.12673 76.5038 1.84606 76.7699C2.87973 77.1556 4.0021 77.3793 5.0782 77.6194C9.78734 78.6656 14.6162 79.0707 19.4339 78.8238C20.5312 78.7678 20.5379 77.0544 19.4339 77.1103Z" fill="#2D1111"/>
<path id="Vector_36" d="M20.1339 74.1239C17.191 74.1846 14.2376 73.5598 11.4557 72.6448C8.61409 71.7094 5.74354 70.3942 3.51517 68.3568C2.97423 67.8621 2.16523 68.6672 2.7081 69.1648C5.03482 71.2929 7.9854 72.6804 10.9505 73.6794C13.8818 74.6668 17.03 75.3311 20.1358 75.2665C20.8696 75.2521 20.8725 74.1094 20.1358 74.1239H20.1339Z" fill="#2D1111"/>
<path id="Vector_37" d="M21.5687 71.6333C17.4163 67.5961 12.5949 64.3098 7.31916 61.9205C6.6548 61.6197 6.07336 62.6041 6.74061 62.9069C11.9302 65.2494 16.6734 68.4755 20.7588 72.4414C21.2862 72.9543 22.0952 72.1521 21.5668 71.6333H21.5687Z" fill="#2D1111"/>
<path id="Vector_38" d="M148.621 80.5603C148.765 82.455 133.676 83.3508 130.097 82.1329C129.773 82.023 129.118 83.1936 128.844 83.1695C128.672 83.1541 127.123 83.9023 126.976 83.8994C126.13 79.9663 124.395 75.7226 122.953 71.9592C123.794 71.6699 126.475 71.047 126.46 71.0384C125.715 70.6054 139.661 59.2312 140.775 60.585C143.034 63.3263 148.073 73.3265 148.621 80.5603Z" fill="#725440"/>
<path id="Vector_39" d="M126.134 71.1223C127.184 73.0903 127.932 75.2869 128.592 77.3735C129.101 79.0329 129.434 80.7413 129.585 82.4705C129.304 82.781 129.007 83.184 128.847 83.1696C128.687 83.1551 127.125 83.9024 126.979 83.8995C126.133 79.9664 124.398 75.7227 122.956 71.9593C123.615 71.7356 125.398 71.3036 126.134 71.1223Z" fill="#FF7BB1"/>
<path id="Vector_40" d="M127.846 75.2328C127.397 73.8279 126.923 72.4278 126.354 71.0673C126.391 71.0596 126.428 71.0499 126.463 71.0384C125.718 70.6054 139.664 59.2312 140.779 60.585C141.752 61.7672 143.242 64.3002 144.666 67.3781C144.26 67.3868 143.854 67.4216 143.452 67.4822C140.185 67.9769 137.193 69.7646 134.581 71.7075C132.41 73.3236 130.4 75.1615 128.516 77.1073C128.296 76.4719 128.042 75.8461 127.846 75.2328Z" fill="#725440"/>
<g id="Group_2" style="mix-blend-mode:multiply">
<g id="Vector_41" style="mix-blend-mode:multiply">
<path d="M126.153 71.1174C126.902 73.1597 127.569 75.2357 128.044 77.3561C127.982 77.3614 127.92 77.374 127.86 77.3937C127.009 77.6907 126.221 78.1419 125.444 78.598C124.659 76.3272 123.764 74.0661 122.956 71.9592C123.62 71.7336 125.428 71.2958 126.153 71.1174Z" fill="#FF5FAF"/>
</g>
</g>
<path id="Vector_42" d="M127.461 84.3413C128.144 84.0839 129.185 83.89 129.718 83.3713C130.268 82.8371 130.067 81.9336 130.007 81.25C129.735 78.1078 128.834 75.0524 127.358 72.2651C127.025 71.6326 126.683 70.8506 125.92 70.6674C125.156 70.4842 124.159 70.8814 123.406 71.0444C122.329 71.2777 122.785 72.9305 123.862 72.6971C124.151 72.6335 125.369 72.2526 125.501 72.3654C125.59 72.4435 125.751 72.8822 125.834 73.0404C125.967 73.2882 126.094 73.5389 126.22 73.7925C126.74 74.867 127.169 75.9834 127.502 77.1297C127.832 78.2379 128.072 79.3707 128.221 80.5171C128.292 81.0706 128.27 81.6549 128.366 82.2007L128.375 82.4119C128.54 82.165 128.537 82.0879 128.366 82.1824C128.27 82.1698 128.045 82.3039 127.95 82.3395L127.013 82.6915C125.991 83.0772 126.435 84.7338 127.469 84.3442L127.461 84.3413Z" fill="#2D1111"/>
<path id="Vector_43" d="M129.888 82.7232C134.237 83.2489 138.635 83.2321 142.98 82.6731C143.96 82.5458 144.937 82.3973 145.909 82.2179C146.777 82.0579 147.741 81.946 148.501 81.4465C150.274 80.2711 149.296 77.7381 148.875 76.1046C147.828 72.0653 146.289 68.1699 144.293 64.5058C143.795 63.5917 143.269 62.6936 142.714 61.8117C142.276 61.1155 141.838 60.1724 141.075 59.78C140.312 59.3876 139.555 59.7164 138.884 60.132C137.973 60.6957 137.075 61.2807 136.189 61.8869C132.439 64.4508 128.92 67.3628 125.775 70.6393C125.012 71.4348 126.222 72.6488 126.988 71.8514C129.513 69.2274 132.262 66.8277 135.203 64.6793C136.58 63.6707 137.995 62.7129 139.446 61.8059C139.619 61.6969 140.112 61.2649 140.313 61.3238C140.536 61.3835 140.777 61.9544 140.892 62.1328C141.388 62.8971 141.861 63.6749 142.313 64.4662C144.161 67.6952 145.634 71.1244 146.705 74.6872C146.972 75.5756 147.214 76.4711 147.431 77.3736C147.571 77.9521 148.106 79.3021 147.736 79.8594C147.394 80.3705 146.257 80.4196 145.731 80.5189C144.731 80.7118 143.726 80.8709 142.716 81.0011C138.458 81.5304 134.151 81.5359 129.892 81.0175C128.799 80.8863 128.809 82.6007 129.892 82.7309L129.888 82.7232Z" fill="#2D1111"/>
<path id="Vector_44" d="M129.413 79.1254C132.508 79.4022 135.693 78.9432 138.685 78.1612C141.715 77.3686 144.74 76.1691 147.208 74.2078C147.787 73.7498 146.97 72.9466 146.4 73.3998C144.039 75.2791 141.071 76.3773 138.176 77.115C135.336 77.8391 132.345 78.248 129.413 77.9828C128.681 77.9172 128.686 79.0608 129.413 79.1254Z" fill="#2D1111"/>
<path id="Vector_45" d="M128.971 76.2357C133.281 72.5899 138.189 69.719 143.479 67.7504C144.162 67.4968 143.865 66.3918 143.176 66.6492C137.701 68.6828 132.622 71.6518 128.163 75.4238C127.601 75.9002 128.413 76.7043 128.971 76.2319V76.2357Z" fill="#2D1111"/>
<path id="Vector_46" d="M82.954 110.795C82.3755 110.285 81.0169 110.663 80.3265 110.691C78.7027 110.756 77.0779 110.816 75.4522 110.845C72.5653 110.899 69.5173 111.298 66.6554 110.921C66.1666 110.856 65.8455 111.19 65.7346 111.6C65.6767 111.652 65.6222 111.707 65.5716 111.765C65.4167 112.528 65.3462 113.306 65.3614 114.084C65.4974 114.485 65.4723 115.128 65.4665 115.719C65.5205 116.201 65.589 116.683 65.668 117.159C65.8641 117.82 66.139 118.455 66.4867 119.05C67.3931 120.573 68.7752 121.754 70.4198 122.414C74.0444 123.826 80.1857 123.231 82.5404 119.79C83.7447 118.031 84.357 112.023 82.954 110.795Z" fill="#E05656"/>
<path id="Vector_47" d="M76.4197 116.96C72.9079 116.67 69.4665 117.285 66.1582 118.406C66.2623 118.626 66.3646 118.847 66.487 119.055C67.3934 120.577 68.7755 121.759 70.4202 122.418C74.0448 123.831 80.186 123.236 82.5407 119.794C82.784 119.406 82.9728 118.986 83.1019 118.547C80.9526 117.729 78.7233 117.148 76.4197 116.96Z" fill="#EC9A9A"/>
<path id="Vector_48" d="M79.9943 110.935C78.1256 110.582 77.6 111.158 75.6937 111.117C73.5724 111.071 72.3507 111.076 70.2419 110.874C69.0993 110.764 68.7088 111.891 69.6933 112.337C72.2533 113.494 77.4949 113.373 79.9335 112.398C80.5391 112.155 80.6847 111.065 79.9943 110.935Z" fill="#FFF9F2"/>
<path id="Vector_49" d="M66.0657 111.681C71.4963 111.817 76.9327 111.657 82.3614 111.662C82.6584 111.662 82.9573 111.673 83.2552 111.67C83.3941 111.67 83.3767 111.705 83.3584 111.67C83.3247 111.602 82.9881 111.363 82.9592 111.412C82.9187 111.48 82.9785 111.781 82.9804 111.873C83.0064 113.381 82.9611 114.993 82.6834 116.478C82.3566 118.227 81.5736 119.886 80.1311 120.984C78.4234 122.283 76.1275 122.72 74.0236 122.55C71.5638 122.348 68.9507 121.208 67.6499 119.021C66.2373 116.647 66.3684 113.776 66.4986 111.114C66.5352 110.379 65.3926 110.381 65.356 111.114C65.2306 113.659 65.1535 116.297 66.1978 118.681C67.1688 120.898 69.0722 122.375 71.3324 123.146C75.3899 124.531 80.7646 123.485 82.8821 119.439C83.7393 117.799 83.9427 116 84.0498 114.182C84.0961 113.351 84.1539 112.509 84.1182 111.675C84.098 111.193 84.0613 110.671 83.5127 110.543C82.8647 110.394 82.0663 110.516 81.4077 110.518C79.9488 110.524 78.4899 110.537 77.0301 110.546C73.3756 110.571 69.7163 110.627 66.0618 110.536C65.3261 110.517 65.3261 111.66 66.0618 111.678L66.0657 111.681Z" fill="#2D1111"/>
<path id="Vector_50" d="M114.287 119.386C113.375 125.496 109.414 130.523 104.549 134.113C99.683 137.702 93.9293 140.166 88.0002 141.285C80.8696 142.635 73.4305 142.763 66.2372 141.875C58.909 140.97 51.5961 138.862 45.1916 135.125C41.8968 133.203 38.8913 130.747 36.634 127.649C34.3932 124.571 32.9339 120.995 32.3817 117.229C32.2187 116.142 30.5669 116.604 30.7289 117.685C31.7954 124.82 35.9947 130.91 41.8399 135.021C48.0111 139.36 55.5167 141.84 62.8942 143.099C70.5117 144.399 78.3288 144.449 85.9772 143.341C92.3171 142.424 98.4506 140.237 103.816 136.703C109.078 133.232 113.747 128.332 115.464 122.128C115.671 121.375 115.832 120.611 115.946 119.839C116.107 118.761 114.456 118.296 114.293 119.384L114.287 119.386Z" fill="#2D1111"/>
<path id="Vector_51" d="M24.8175 101.76C22.6374 95.2996 22.0955 88.4304 23.4734 81.7395C24.8513 75.0486 27.9301 68.8186 31.8989 63.3022C39.1462 53.2364 50.316 45.9795 62.4288 43.3568C68.5566 42.029 75.0305 41.9153 81.2537 42.5459C87.5917 43.1881 93.8853 44.8196 99.61 47.6506C107.924 51.765 114.522 58.4453 119.36 66.2884C125.231 75.8074 128.013 87.1016 125.572 98.1663C125.207 99.807 124.747 101.425 124.194 103.013C123.833 104.058 125.488 104.506 125.847 103.469C127.968 97.338 128.691 90.8082 127.832 84.3767C127.093 78.8361 125.249 73.4981 122.637 68.5631C118.374 60.5117 112.132 53.1632 104.356 48.3304C93.1862 41.3878 79.1218 39.3272 66.2048 40.9828C53.498 42.6114 41.5047 49.2329 33.1708 58.937C28.7237 64.117 25.1676 70.2187 23.0395 76.7138C20.8844 83.289 20.4052 90.3203 21.7792 97.1086C22.1346 98.8384 22.598 100.544 23.1667 102.216C23.5177 103.256 25.1733 102.809 24.8195 101.76H24.8175Z" fill="#2D1111"/>
<path id="Vector_52" d="M29.1864 100.971C29.4459 104.43 29.8788 107.873 30.4833 111.289C30.5634 111.745 31.1207 112.002 31.5373 111.887C32.0194 111.755 32.2122 111.291 32.1361 110.834C31.5592 107.569 31.147 104.277 30.9009 100.97C30.8189 99.8769 29.1045 99.8682 29.1864 100.97V100.971Z" fill="#2D1111"/>
<path id="Vector_53" d="M118.401 105.548C120.646 103.96 123.584 103.947 125.658 105.853C127.528 107.57 128.225 110.088 128.16 112.563C128.038 117.088 125.112 120.991 121.21 123.086C118.955 124.295 116.42 124.887 113.863 124.804C112.76 124.768 112.762 126.483 113.863 126.517C119.146 126.685 124.396 124.153 127.452 119.821C130.508 115.488 131.069 108.597 126.949 104.713C125.701 103.526 124.078 102.812 122.359 102.695C120.641 102.577 118.935 103.062 117.536 104.068C116.644 104.7 117.499 106.189 118.404 105.548H118.401Z" fill="#2D1111"/>
<path id="Vector_54" d="M29.2726 100.797C26.5322 100.723 23.7195 101.252 21.5423 103.015C19.8568 104.378 18.8067 106.398 18.4143 108.511C17.5464 113.183 19.1857 118.451 22.6945 121.681C24.1698 123.028 25.9027 124.061 27.7885 124.719C29.6743 125.378 31.674 125.647 33.6667 125.51C34.7601 125.43 34.7688 123.716 33.6667 123.796C27.9622 124.211 22.4814 120.85 20.6494 115.379C19.5 111.944 19.4074 107.472 22.1661 104.749C24.0368 102.902 26.7386 102.447 29.2707 102.514C30.3738 102.544 30.3728 100.83 29.2707 100.801L29.2726 100.797Z" fill="#2D1111"/>
<path id="Vector_55" d="M125.708 104.13C125.689 103.905 125.67 103.68 125.652 103.455C125.648 103.305 125.587 103.162 125.48 103.056C125.374 102.95 125.231 102.888 125.081 102.885C124.929 102.885 124.784 102.945 124.677 103.051C124.623 103.104 124.581 103.167 124.552 103.236C124.524 103.306 124.509 103.38 124.51 103.455C124.528 103.682 124.547 103.909 124.566 104.13C124.564 104.243 124.597 104.353 124.66 104.446C124.723 104.539 124.812 104.612 124.917 104.653C124.984 104.688 125.06 104.705 125.137 104.702C125.288 104.701 125.433 104.641 125.541 104.534C125.594 104.482 125.637 104.419 125.666 104.349C125.694 104.28 125.709 104.205 125.708 104.13Z" fill="#2D1111"/>
<path id="Vector_56" d="M116.304 101.372C116.389 105.041 115.282 108.657 114.889 112.286C114.84 112.747 115.319 113.143 115.746 113.143C116.251 113.143 116.554 112.748 116.604 112.286C116.995 108.656 118.102 105.045 118.018 101.372C117.993 100.271 116.283 100.267 116.304 101.372Z" fill="#2D1111"/>
<path id="Vector_57" d="M29.3516 100.337C32.2351 99.0416 35.1868 97.904 38.1937 96.9292C39.6401 96.4596 41.1655 96.1434 42.5878 95.6188C43.042 95.452 43.3177 95.1078 43.5791 94.7153C44.2974 93.6334 44.7882 92.3761 45.3041 91.191C45.9906 89.6154 46.6444 88.0264 47.329 86.4537C47.8362 85.2966 48.3222 84.0653 49.0415 83.0191C49.1582 82.8493 49.0415 83.0248 49.0897 82.9554C49.1977 82.7857 49.1861 82.9554 49.0772 82.9371C49.2266 82.968 48.8303 82.9921 48.7484 82.9814C48.4803 82.9458 48.4784 82.8358 48.3559 82.751C48.4803 82.8378 48.3501 82.6883 48.3926 82.8185C48.4253 82.9149 48.4514 83.0181 48.4745 83.1193C48.5261 83.3356 48.5583 83.556 48.5709 83.7779C48.8438 86.5954 48.3945 89.52 48.9566 92.3076C49.0424 92.7396 49.1861 93.2072 49.5178 93.5177C50.242 94.1927 51.5427 93.6267 52.3604 93.4888C55.5733 92.9517 58.8102 92.5699 62.0578 92.324C68.497 91.8361 74.9719 91.8872 81.4111 92.3587C83.0986 92.4821 84.7837 92.6361 86.4667 92.8206C87.2169 92.9022 87.9661 92.9903 88.7143 93.0848C89.4356 93.1754 90.2571 93.4223 90.9841 93.3856C92.2724 93.322 92.3264 91.1958 92.4614 90.2856C92.6687 88.8826 92.768 87.4237 93.1633 86.0574C93.2135 85.8838 93.199 85.9822 93.1903 85.9774C93.3465 86.0738 91.9927 86.2473 92.093 86.0313C92.1036 86.0101 92.12 85.9831 92.1017 86.0535C92.1017 86.0747 92.1702 86.1798 92.1788 86.1991C92.2151 86.2727 92.2445 86.3496 92.2666 86.4286C92.4999 87.1152 92.6783 87.82 92.8509 88.5239C93.2087 89.9828 93.4651 91.5131 94.0244 92.9151C94.2983 93.6007 94.6174 93.9565 95.3666 94.1059C96.7966 94.3952 98.2256 94.6845 99.6498 95.0007C104.903 96.1578 110.079 97.6408 115.002 99.8335C116.297 100.412 117.574 101.028 118.836 101.675C119.816 102.178 120.685 100.699 119.704 100.195C114.773 97.671 109.576 95.7022 104.211 94.3248C101.479 93.6199 98.7145 93.0356 95.9519 92.4812C95.7794 92.4573 95.6084 92.4231 95.4399 92.379C95.4274 92.3423 95.7707 92.566 95.7398 92.5718C95.8526 92.5496 95.7003 92.6682 95.7321 92.5477C95.7379 92.5226 95.681 92.459 95.6704 92.431C95.6347 92.3346 95.5007 91.9721 95.4216 91.7117C95.195 90.9586 95.0147 90.1901 94.8315 89.4245C94.5056 88.0678 94.3079 86.444 93.5992 85.2166C93.2733 84.6525 92.6089 84.3169 92.0284 84.7528C91.6148 85.0632 91.4884 85.6302 91.3833 86.1104C91.0555 87.6069 90.9379 89.1459 90.6814 90.6559C90.6303 90.9557 90.5772 91.2566 90.5059 91.5526C90.4789 91.6606 90.449 91.7676 90.4181 91.8737C90.4008 91.9165 90.386 91.9603 90.3738 92.0048C90.4085 91.7638 90.4268 91.9798 90.368 91.9952C90.3844 91.9952 90.8848 91.597 90.9089 91.6654C90.9012 91.6433 90.4268 91.5979 90.3477 91.5873C89.9447 91.5327 89.5413 91.479 89.1376 91.4263C88.2486 91.3125 87.3589 91.2064 86.4686 91.1081C79.9316 90.3796 73.3505 90.126 66.7768 90.3492C63.4907 90.4682 60.2122 90.7234 56.9415 91.1148C55.3949 91.3032 53.8521 91.5218 52.3132 91.7705C51.9024 91.8371 51.4916 91.9075 51.0809 91.9788C50.9941 91.9942 50.4165 92.0482 50.3982 92.1013C50.3471 92.2526 50.16 91.8457 50.4743 92.1504C50.5168 92.1919 50.726 92.298 50.6672 92.2469C51.0355 92.5593 50.6826 92.3028 50.7241 92.3047C50.6913 92.3047 50.7328 92.3722 50.7241 92.3047C50.2593 89.7572 50.5158 86.8625 50.3181 84.1472C50.2535 83.2514 50.2217 81.6267 49.1244 81.3181C48.0637 81.0211 47.4447 82.2824 47.0494 83.0277C45.5413 85.8925 44.4758 88.9781 43.1114 91.9113C42.853 92.4667 42.5888 93.024 42.2783 93.5505C42.2281 93.6363 41.9225 94.1156 42.044 93.9362C42.0237 93.9671 41.9476 94.0741 41.9109 94.0828C41.775 94.1136 42.0642 93.9979 41.9784 94.0288C42.2744 93.9198 41.9861 94.0134 41.8559 94.0442C38.7781 94.7712 35.732 95.8956 32.7921 97.0459C31.3406 97.6129 29.9045 98.2171 28.4838 98.8587C27.4791 99.3109 28.3498 100.787 29.3516 100.339V100.337Z" fill="#2D1111"/>
<path id="Vector_58" d="M49.3363 82.5516C51.5087 71 55.2577 59.4349 61.9273 49.6555C63.8382 46.8409 66.0215 44.2213 68.4456 41.8345C68.9721 41.3187 68.1631 40.5116 67.6376 41.0265C58.9739 49.5205 53.7313 60.9439 50.4982 72.4907C49.5976 75.7074 48.8512 78.9656 48.2341 82.2479C48.0991 82.9663 49.1984 83.2748 49.3363 82.5516Z" fill="#2D1111"/>
<path id="Vector_59" d="M78.527 41.7188C85.7916 51.4866 89.5541 63.4143 91.0621 75.3911C91.4883 78.7814 91.7371 82.192 91.8384 85.6121C91.8605 86.345 93.0032 86.3488 92.981 85.6121C92.6146 73.4 90.3775 61.0124 84.9247 49.9968C83.3903 46.891 81.5803 43.9292 79.5163 41.147C79.0824 40.5636 78.0902 41.1325 78.5299 41.7256L78.527 41.7188Z" fill="#2D1111"/>
<path id="Vector_60" d="M80.2637 42.5353C85.3443 42.6134 89.8212 45.6315 93.5702 48.7971C96.966 51.6809 99.9951 54.9704 102.59 58.5919C107.882 65.9394 111.537 74.4585 113.331 83.3276C114.341 88.2625 114.715 93.3062 114.446 98.3361C114.405 99.0699 115.547 99.0679 115.588 98.3361C116.107 89.061 114.334 79.6866 110.806 71.1126C107.305 62.6012 102.046 54.7021 95.0986 48.612C90.9581 44.9806 85.9778 41.4814 80.2608 41.3927C79.5251 41.3811 79.5251 42.5237 80.2608 42.5353H80.2637Z" fill="#2D1111"/>
<path id="Vector_61" d="M65.953 41.1566C56.9749 43.2693 48.7171 48.1898 42.5142 55.0099C35.9159 62.2658 31.9258 71.5602 31.005 81.3077C30.4653 86.9974 30.9978 92.7378 32.5747 98.2312C32.7782 98.936 33.8813 98.6361 33.6769 97.9274C30.9442 88.4518 31.4851 78.1604 35.0991 68.9934C38.474 60.4338 44.6451 53.1219 52.3716 48.159C56.6312 45.4167 61.3267 43.4202 66.2567 42.2549C66.9722 42.0862 66.6694 40.984 65.953 41.1528V41.1566Z" fill="#2D1111"/>
<path id="Vector_62" d="M57.41 110.453C60.2026 110.453 62.4665 107.983 62.4665 104.936C62.4665 101.89 60.2026 99.4199 57.41 99.4199C54.6174 99.4199 52.3535 101.89 52.3535 104.936C52.3535 107.983 54.6174 110.453 57.41 110.453Z" fill="#400705"/>
<path id="Vector_63" d="M91.4295 110.453C94.2222 110.453 96.486 107.983 96.486 104.936C96.486 101.89 94.2222 99.4199 91.4295 99.4199C88.6369 99.4199 86.373 101.89 86.373 104.936C86.373 107.983 88.6369 110.453 91.4295 110.453Z" fill="#400705"/>
<path id="Vector_64" d="M55.1436 104.053C55.2677 103.526 54.9419 102.999 54.4158 102.875C53.8898 102.751 53.3627 103.077 53.2385 103.603C53.1143 104.129 53.4401 104.656 53.9662 104.78C54.4923 104.904 55.0194 104.579 55.1436 104.053Z" fill="#FFF9F2"/>
<path id="Vector_65" d="M95.3555 104.525C95.7377 104.143 95.7377 103.523 95.3555 103.141C94.9732 102.759 94.3536 102.759 93.9713 103.141C93.5891 103.523 93.5891 104.143 93.9713 104.525C94.3536 104.907 94.9732 104.907 95.3555 104.525Z" fill="#FFF9F2"/>
<path id="Vector_66" d="M72.4106 164.317L59.7115 169.877C58.6829 170.328 57.5756 170.571 56.4529 170.594C55.3302 170.616 54.2141 170.417 53.1684 170.008C52.1226 169.599 51.1677 168.988 50.3581 168.21C49.5485 167.432 48.9002 166.501 48.4501 165.473L38.0652 141.752C37.6149 140.724 37.3717 139.616 37.3493 138.494C37.327 137.371 37.526 136.255 37.9351 135.209C38.3441 134.164 38.9551 133.209 39.7332 132.399C40.5113 131.589 41.4412 130.941 42.4699 130.491L55.1728 124.93C56.2014 124.48 57.3086 124.237 58.4312 124.214C59.5538 124.192 60.6699 124.391 61.7156 124.8C62.7613 125.208 63.7163 125.819 64.5259 126.597C65.3355 127.375 65.984 128.305 66.4342 129.334L76.8191 153.054C77.2695 154.083 77.5126 155.191 77.5348 156.314C77.5569 157.437 77.3576 158.553 76.9482 159.599C76.5388 160.645 75.9274 161.6 75.1488 162.409C74.3702 163.219 73.4398 163.867 72.4106 164.317Z" fill="#66ACDF"/>
<path id="Vector_67" d="M68.2623 166.058L58.7163 170.239C56.7178 170.834 54.5706 170.679 52.6789 169.801C50.7871 168.924 49.2814 167.385 48.4452 165.475L38.0593 141.754C37.1508 139.677 37.1044 137.324 37.9304 135.213C38.7564 133.101 40.3871 131.404 42.464 130.495L52.0206 126.307C54.0192 125.717 56.1642 125.877 58.054 126.755C59.9437 127.633 61.4486 129.169 62.2869 131.077L72.667 154.802C73.1174 155.831 73.3608 156.937 73.3832 158.06C73.4056 159.182 73.2065 160.298 72.7975 161.343C72.3884 162.388 71.7773 163.343 70.9991 164.152C70.221 164.961 69.291 165.609 68.2623 166.058Z" fill="#94C5E9"/>
<path id="Vector_68" d="M60.548 169.439C62.9355 161.132 65.4184 152.843 68.234 144.671L63.9914 134.984C63.8419 135.352 63.6857 135.715 63.5362 136.082C60.3918 143.856 57.529 151.74 55.1705 159.789C54.2062 163.068 53.294 166.361 52.3838 169.653C54.338 170.659 56.6052 170.87 58.7112 170.242L60.548 169.439Z" fill="#66ACDF"/>
<path id="Vector_69" d="M69.247 146.982C66.8364 154.109 64.6765 161.314 62.5938 168.542L68.2654 166.058C69.2945 165.609 70.225 164.961 71.0035 164.152C71.782 163.342 72.3933 162.387 72.8024 161.342C73.2115 160.296 73.4104 159.18 73.3877 158.057C73.365 156.934 73.1211 155.827 72.6701 154.799L69.247 146.982Z" fill="#66ACDF"/>
<path id="Vector_70" d="M46.4242 133.073L42.059 134.923C40.3512 135.647 39.5536 137.619 40.2774 139.326L41.9162 143.193C42.64 144.9 44.6112 145.698 46.319 144.974L50.6842 143.124C52.392 142.4 53.1896 140.429 52.4658 138.721L50.827 134.855C50.1032 133.147 48.132 132.349 46.4242 133.073Z" fill="#FFF9F2"/>
<path id="Vector_71" d="M44.1957 144.066C42.706 143.401 41.2683 140.22 40.8315 137.86C40.7428 137.378 40.8315 136.414 41.1005 135.807C39.9183 136.304 39.9155 138.486 40.2742 139.332L41.9134 143.199C42.0853 143.605 42.3356 143.973 42.6499 144.282C42.9642 144.591 43.3364 144.836 43.7451 145.001C44.1539 145.167 44.5913 145.25 45.0322 145.247C45.4732 145.243 45.9091 145.153 46.3151 144.98L50.6812 143.13C51.0669 142.968 52.2848 141.573 52.5692 141.304C52.2385 141.489 52.5625 139.721 52.5798 140.19C52.6309 141.488 46.0837 144.909 44.1957 144.066Z" fill="#FFF9F2"/>
<path id="Vector_72" d="M53.9695 148.153L53.7603 148.241C53.2213 148.469 52.8182 148.506 52.6032 147.897L51.8068 145.872C51.5927 145.264 51.8569 144.586 52.3949 144.358L52.6051 144.271C53.1432 144.043 53.7536 144.352 53.9676 144.96L54.5568 146.636C54.7718 147.248 54.5086 147.925 53.9695 148.153Z" fill="#FFF9F2"/>
<path id="Vector_73" d="M56.2021 147.118L55.9929 147.207C55.4539 147.434 54.8435 147.126 54.6304 146.517L54.0412 144.842C53.8272 144.233 54.0904 143.555 54.6294 143.328L54.8396 143.24C55.3777 143.012 55.9881 143.321 56.2021 143.929L56.7903 145.605C57.0044 146.214 56.7411 146.891 56.2021 147.118Z" fill="#FFF9F2"/>
<path id="Vector_74" d="M60.9649 147.551C61.6861 149.603 59.668 151.601 57.3663 152.565C55.0647 153.529 52.6174 153.462 51.8971 151.408C51.1768 149.354 52.7746 146.79 55.0791 145.815C57.3837 144.841 60.2455 145.494 60.9649 147.551Z" fill="#FFF9F2"/>
<path id="Vector_75" d="M55.5264 147.568C55.5775 147.714 55.4386 147.908 55.2159 148.001C54.9931 148.095 54.7714 148.053 54.7212 147.905C54.6711 147.756 54.809 147.566 55.0317 147.472C55.2544 147.378 55.4753 147.424 55.5264 147.568Z" fill="#400705"/>
<path id="Vector_76" d="M54.4678 147.919C54.4935 147.979 54.4956 148.047 54.4739 148.109C54.4521 148.171 54.408 148.223 54.3502 148.254C54.3205 148.263 54.2892 148.267 54.2583 148.263C54.2273 148.26 54.1974 148.251 54.1703 148.235C54.1431 148.22 54.1194 148.199 54.1006 148.175C54.0818 148.15 54.0683 148.121 54.0609 148.091C54.0354 148.031 54.0332 147.963 54.0547 147.901C54.0763 147.839 54.1201 147.787 54.1776 147.756C54.2073 147.746 54.2387 147.743 54.2697 147.746C54.3007 147.75 54.3307 147.759 54.3579 147.774C54.3851 147.79 54.4089 147.81 54.4278 147.835C54.4467 147.86 54.4603 147.888 54.4678 147.919Z" fill="#400705"/>
<path id="Vector_77" d="M56.1639 147.172C56.1896 147.233 56.1919 147.301 56.1704 147.363C56.1488 147.425 56.1049 147.476 56.0472 147.508C56.0175 147.517 55.9863 147.52 55.9554 147.517C55.9245 147.513 55.8946 147.504 55.8675 147.489C55.8404 147.473 55.8167 147.453 55.7979 147.428C55.7791 147.403 55.7655 147.375 55.7579 147.345C55.7325 147.284 55.7305 147.217 55.7523 147.155C55.774 147.093 55.8179 147.042 55.8756 147.01C55.9051 147.001 55.9363 146.998 55.9671 147.001C55.998 147.004 56.0278 147.014 56.0548 147.029C56.0819 147.044 56.1055 147.065 56.1242 147.089C56.143 147.114 56.1565 147.142 56.1639 147.172Z" fill="#400705"/>
<path id="Vector_78" d="M55.4686 148.605L55.3953 148.636L55.1523 147.944L55.2256 147.913L55.4686 148.605Z" fill="#400705"/>
<path id="Vector_79" d="M53.3786 147.095C53.1135 147.207 52.8126 147.054 52.7037 146.755L52.4067 145.911C52.3016 145.611 52.4308 145.277 52.6959 145.165C52.9611 145.054 53.262 145.205 53.3709 145.505L53.6669 146.35C53.7207 146.487 53.7209 146.64 53.6675 146.778C53.6142 146.916 53.5111 147.029 53.3786 147.095Z" fill="#FAB292"/>
<path id="Vector_80" d="M55.4185 146.085C55.1533 146.196 54.8525 146.045 54.7435 145.745L54.4475 144.9C54.3939 144.763 54.3938 144.61 54.4473 144.472C54.5009 144.334 54.6041 144.221 54.7368 144.155C55.0029 144.043 55.3028 144.196 55.4118 144.495L55.7087 145.339C55.8139 145.639 55.6846 145.973 55.4185 146.085Z" fill="#FAB292"/>
<path id="Vector_81" d="M54.2675 148.452C54.3524 148.693 54.1933 148.985 53.9117 149.104C53.6302 149.222 53.3332 149.123 53.2483 148.882C53.1635 148.641 53.3235 148.349 53.6041 148.23C53.8847 148.111 54.1827 148.211 54.2675 148.452Z" fill="#FAB292"/>
<path id="Vector_82" d="M57.2041 147.211C57.2889 147.452 57.1288 147.744 56.8483 147.863C56.5677 147.981 56.2697 147.882 56.1849 147.641C56.1 147.4 56.2601 147.108 56.5407 146.989C56.8212 146.87 57.1221 146.973 57.2041 147.211Z" fill="#FAB292"/>
<path id="Vector_83" d="M59.1329 170.404L63.4325 168.522C65.0813 167.8 66.7302 167.079 68.379 166.357C71.0558 165.18 73.0383 162.748 73.5676 159.86C73.8648 158.252 73.7102 156.594 73.1212 155.068C73.0055 154.774 72.8743 154.49 72.748 154.201C72.1945 152.936 71.6407 151.671 71.0866 150.406C70.2021 148.387 69.3182 146.367 68.435 144.347C67.4881 142.185 66.5418 140.024 65.5962 137.862C64.8557 136.172 64.1164 134.481 63.3785 132.791C62.9986 131.923 62.6553 131.009 62.1886 130.18C61.1837 128.394 59.5878 127.013 57.6753 126.275C55.7627 125.537 53.6529 125.488 51.7082 126.136C51.3611 126.251 51.5096 126.803 51.8596 126.687C53.4135 126.177 55.0829 126.134 56.661 126.563C58.2391 126.993 59.6565 127.876 60.7374 129.103C61.5965 130.09 62.0873 131.252 62.5994 132.428C64.1614 135.994 65.7232 139.562 67.2846 143.131C68.8358 146.676 70.3879 150.222 71.9409 153.768C72.4665 154.968 72.9872 156.136 73.1096 157.467C73.4047 160.673 71.7703 163.837 68.9634 165.427C68.4195 165.736 67.8352 165.971 67.2634 166.222L64.6002 167.388L59.1657 169.766L58.8407 169.909C58.5052 170.056 58.7954 170.548 59.13 170.402L59.1329 170.404Z" fill="#47789C"/>
<path id="Vector_84" d="M44.6991 138.088C44.8641 137.072 44.1737 136.114 43.1571 135.949C42.1405 135.784 41.1826 136.474 41.0175 137.491C40.8525 138.507 41.5429 139.465 42.5595 139.63C43.5761 139.795 44.534 139.105 44.6991 138.088Z" fill="#1F3443"/>
<path id="Vector_85" d="M42.5599 137.87C42.5599 137.966 42.5317 138.059 42.4787 138.138C42.4257 138.217 42.3504 138.279 42.2623 138.316C42.1742 138.352 42.0773 138.362 41.9838 138.343C41.8902 138.325 41.8043 138.279 41.7369 138.211C41.6695 138.144 41.6236 138.058 41.605 137.964C41.5864 137.871 41.5959 137.774 41.6324 137.686C41.6689 137.598 41.7307 137.522 41.81 137.469C41.8893 137.416 41.9825 137.388 42.0778 137.388C42.2057 137.388 42.3283 137.439 42.4187 137.529C42.5092 137.62 42.5599 137.742 42.5599 137.87Z" fill="#FFF9F2"/>
<path id="Vector_86" d="M48.9211 136.535C49.1347 135.528 48.4911 134.538 47.4836 134.324C46.476 134.11 45.4861 134.754 45.2725 135.762C45.0589 136.769 45.7025 137.759 46.71 137.973C47.7176 138.186 48.7075 137.543 48.9211 136.535Z" fill="#1F3443"/>
<path id="Vector_87" d="M46.558 136.04C46.558 136.135 46.5297 136.229 46.4767 136.308C46.4238 136.387 46.3485 136.449 46.2604 136.485C46.1723 136.522 46.0753 136.531 45.9818 136.513C45.8883 136.494 45.8024 136.448 45.735 136.381C45.6675 136.313 45.6216 136.228 45.603 136.134C45.5844 136.041 45.594 135.944 45.6304 135.855C45.6669 135.767 45.7287 135.692 45.808 135.639C45.8873 135.586 45.9805 135.558 46.0759 135.558C46.2037 135.558 46.3264 135.609 46.4168 135.699C46.5072 135.789 46.558 135.912 46.558 136.04Z" fill="#FFF9F2"/>
<path id="Vector_88" d="M45.1417 143.404C46.0951 143.015 46.5523 141.926 46.1628 140.973C45.7733 140.019 44.6847 139.562 43.7312 139.952C42.7778 140.341 42.3206 141.43 42.7101 142.383C43.0996 143.337 44.1882 143.794 45.1417 143.404Z" fill="#1F3443"/>
<path id="Vector_89" d="M44.1019 141.338C44.1019 141.433 44.0737 141.526 44.0207 141.605C43.9677 141.685 43.8924 141.747 43.8043 141.783C43.7162 141.82 43.6193 141.829 43.5258 141.81C43.4322 141.792 43.3463 141.746 43.2789 141.679C43.2115 141.611 43.1656 141.525 43.147 141.432C43.1284 141.338 43.1379 141.241 43.1744 141.153C43.2109 141.065 43.2727 140.99 43.352 140.937C43.4313 140.884 43.5245 140.855 43.6198 140.855C43.7477 140.855 43.8703 140.906 43.9607 140.997C44.0511 141.087 44.1019 141.21 44.1019 141.338Z" fill="#FFF9F2"/>
<path id="Vector_90" d="M50.4988 140.465C50.7353 139.463 50.1145 138.458 49.1122 138.222C48.1098 137.985 47.1054 138.606 46.8688 139.608C46.6322 140.611 47.253 141.615 48.2554 141.852C49.2578 142.088 50.2622 141.467 50.4988 140.465Z" fill="#1F3443"/>
<path id="Vector_91" d="M48.2914 139.7C48.2914 139.796 48.2631 139.889 48.2101 139.968C48.1572 140.048 48.0819 140.109 47.9938 140.146C47.9057 140.182 47.8087 140.192 47.7152 140.173C47.6217 140.155 47.5358 140.109 47.4684 140.041C47.4009 139.974 47.355 139.888 47.3364 139.794C47.3178 139.701 47.3274 139.604 47.3638 139.516C47.4003 139.428 47.4621 139.352 47.5414 139.3C47.6207 139.247 47.7139 139.218 47.8093 139.218C47.9371 139.218 48.0598 139.269 48.1502 139.359C48.2406 139.45 48.2914 139.573 48.2914 139.7Z" fill="#FFF9F2"/>
<path id="Vector_92" d="M45.0094 145.532C44.2937 145.533 43.5935 145.323 42.9962 144.928C42.3989 144.534 41.9307 143.973 41.65 143.314L40.0108 139.448C39.6347 138.558 39.6265 137.556 39.9879 136.66C40.3494 135.765 41.0511 135.049 41.9393 134.67L46.3054 132.82C47.1947 132.444 48.1968 132.436 49.0921 132.797C49.9874 133.159 50.703 133.86 51.0822 134.748L52.7214 138.615C53.0986 139.504 53.1073 140.507 52.7457 141.403C52.3841 142.298 51.6818 143.014 50.7929 143.392L46.4268 145.242C45.9787 145.433 45.4966 145.532 45.0094 145.532ZM47.7276 133.093C47.317 133.093 46.9107 133.176 46.5329 133.337L42.1678 135.188C41.7962 135.345 41.4593 135.574 41.1763 135.862C40.8932 136.149 40.6696 136.49 40.5182 136.864C40.3668 137.238 40.2905 137.638 40.2938 138.041C40.2971 138.445 40.3798 138.844 40.5373 139.215L42.1765 143.082C42.4955 143.832 43.0986 144.424 43.8538 144.73C44.609 145.035 45.4545 145.029 46.2051 144.712L50.5712 142.862C51.3212 142.544 51.9142 141.941 52.2198 141.186C52.5254 140.43 52.5185 139.585 52.2007 138.834L50.5615 134.968C50.3246 134.413 49.9296 133.939 49.4257 133.607C48.9218 133.274 48.3313 133.098 47.7276 133.098V133.093Z" fill="#2D1111"/>
<path id="Vector_93" d="M71.9781 163.577L61.5642 168.137C59.9887 168.825 58.4305 169.65 56.6775 169.731C53.4193 169.881 50.5063 167.981 49.1843 165.032C47.9192 162.213 46.7062 159.37 45.4672 156.539L39.9218 143.878C39.5496 143.027 39.1572 142.182 38.8033 141.324C38.1918 139.841 38.0526 138.205 38.4046 136.64C38.7566 135.075 39.5827 133.656 40.7703 132.578C42.0335 131.438 43.7489 130.856 45.2878 130.182L51.8543 127.308C53.1551 126.739 54.4443 126.114 55.7691 125.601C58.927 124.38 62.6211 125.36 64.6971 128.059C65.4588 129.049 65.9043 130.255 66.4019 131.391L68.7103 136.664L74.4302 149.731C74.946 150.91 75.4667 152.085 75.9729 153.265C76.9671 155.562 76.8967 158.166 75.6306 160.348C74.784 161.808 73.5035 162.886 71.9742 163.577C70.9704 164.03 71.8412 165.506 72.842 165.056C74.4755 164.31 75.8638 163.116 76.8457 161.613C77.8276 160.11 78.3629 158.359 78.3893 156.563C78.4076 154.742 77.7809 153.141 77.0693 151.515L71.7659 139.39C70.2617 135.955 68.7575 132.518 67.2533 129.081C66.1309 126.531 64.0009 124.576 61.3232 123.757C58.7969 122.985 56.3786 123.467 54.0277 124.5L42.343 129.611C39.7116 130.768 37.6828 132.902 36.8661 135.685C36.1719 138.05 36.5402 140.385 37.5093 142.6C39.1215 146.283 40.7334 149.965 42.345 153.648L47.4014 165.2C48.25 167.137 49.4138 168.814 51.2314 169.978C53.9573 171.723 57.3062 171.841 60.2403 170.571C64.0684 168.912 67.8829 167.226 71.7042 165.557L72.8469 165.056C73.8506 164.618 72.9799 163.138 71.9781 163.577Z" fill="#2D1111"/>
<path id="Vector_94" d="M41.0138 151.014C42.4033 150.291 43.5835 149.168 45.0636 148.647C46.5437 148.127 48.5532 148.512 49.0633 149.997C49.5666 151.458 48.3401 152.923 47.1088 153.854C47.7837 153.31 48.5763 152.862 49.4393 152.831C50.3023 152.8 51.2242 153.283 51.4893 154.104C51.8046 155.081 51.1036 156.129 50.2358 156.663C51.2897 155.974 52.8007 157.004 52.9858 158.249C53.171 159.495 52.4478 160.696 51.6098 161.636C50.1027 163.325 47.8493 164.625 45.6412 164.152C44.2912 163.862 43.1448 162.939 42.3309 161.825C41.5171 160.711 41.0051 159.414 40.5538 158.107C40.0929 156.778 39.6879 155.431 39.3389 154.066C39.0911 153.101 38.8703 152.104 38.9368 151.106C39.0033 150.108 39.391 149.091 40.171 148.466" fill="#FDEFE8"/>
<path id="Vector_95" d="M52.9025 157.947C52.8784 157.978 52.8582 158.011 52.8341 158.043C50.7378 160.816 47.4989 161.811 44.1183 161.307C43.2172 161.173 42.343 160.897 41.5283 160.489C41.7561 160.955 42.0219 161.402 42.3229 161.824C43.1357 162.938 44.2841 163.86 45.6321 164.151C47.8499 164.628 50.0937 163.324 51.6008 161.635C52.4397 160.695 53.161 159.494 52.9768 158.249C52.9603 158.146 52.9355 158.045 52.9025 157.947Z" fill="#FCE4D8"/>
<path id="Vector_96" d="M41.4455 151.753C43.1059 150.861 44.828 148.975 46.878 149.321C47.6157 149.445 48.335 149.89 48.3157 150.722C48.2906 151.782 47.255 152.65 46.4981 153.247L47.7102 154.459C48.3996 153.917 49.5065 153.328 50.3358 153.938C51.165 154.549 50.4129 155.516 49.7939 155.921C48.8769 156.523 49.6917 157.946 50.6617 157.401C51.4524 156.954 52.1688 158.017 52.1505 158.712C52.1196 159.884 51.1699 160.93 50.357 161.679C48.6522 163.253 46.2281 164.065 44.2138 162.554C42.267 161.094 41.5245 158.464 40.839 156.248C40.2026 154.188 38.7774 150.797 40.7705 149.071C41.6055 148.347 40.3848 147.142 39.5584 147.859C37.3928 149.734 38.0812 152.776 38.7427 155.187C39.4389 157.716 40.1891 160.517 41.8495 162.606C43.3769 164.534 45.7373 165.56 48.1653 164.883C50.4486 164.248 52.7522 162.311 53.593 160.069C54.0481 158.855 53.9324 157.497 53.0241 156.526C52.1862 155.632 50.8835 155.308 49.7958 155.924L50.6636 157.404C52.1515 156.429 53.1784 154.312 51.6857 152.842C50.1429 151.319 47.9811 152.089 46.5029 153.25C45.6351 153.932 46.8558 155.131 47.715 154.462C48.8489 153.579 49.9559 152.336 50.0292 150.828C50.0938 149.545 49.306 148.439 48.1576 147.935C45.2542 146.661 42.9507 149.001 40.5825 150.275C39.6105 150.798 40.4754 152.278 41.4503 151.755L41.4455 151.753Z" fill="#2D1111"/>
<path id="Vector_97" d="M75.2781 149.254C79.1949 149.618 83.695 148.344 85.4692 144.496C85.662 144.076 85.5878 143.573 85.1616 143.324C84.7923 143.107 84.1839 143.209 83.9891 143.631C82.4521 146.965 78.6404 147.852 75.2781 147.54C74.8162 147.497 74.4209 147.965 74.4209 148.397C74.4209 148.896 74.8153 149.211 75.2781 149.254Z" fill="#2D1111"/>
<path id="Vector_98" d="M85.3413 142.995C84.9923 146.563 83.8863 150.016 83.5372 153.589C83.4919 154.05 83.9624 154.447 84.3935 154.447C84.8949 154.447 85.2054 154.052 85.2507 153.589C85.5997 150.022 86.7057 146.569 87.0557 142.995C87.1001 142.534 86.6295 142.139 86.1985 142.139C85.6971 142.139 85.3866 142.533 85.3413 142.995Z" fill="#2D1111"/>
<path id="Vector_99" d="M83.3691 155.577C84.8744 155.404 86.3944 155.398 87.901 155.56C88.226 155.596 88.549 155.642 88.872 155.697C89.0272 155.723 89.2712 155.821 89.4255 155.801C89.5894 155.87 89.5798 155.821 89.3946 155.657C89.2779 155.438 89.2336 155.415 89.2635 155.591C89.2085 155.73 89.2635 156.021 89.2635 156.17C89.2596 156.362 89.2509 156.555 89.2374 156.748C89.2153 157.06 89.1834 157.37 89.1323 157.678C89.0764 158.013 89.007 158.347 88.9221 158.676C88.8922 158.828 88.848 158.978 88.79 159.122C88.8035 159.093 88.6849 159.218 88.7611 159.185C88.5789 159.261 88.2327 159.177 88.0418 159.165L86.9493 159.098L82.264 158.809L83.0904 159.893L83.8232 155.484C83.8994 155.028 83.7037 154.561 83.2254 154.43C82.8146 154.317 82.2477 154.569 82.1715 155.028C81.9266 156.499 81.682 157.968 81.4377 159.437C81.3413 160.007 81.6662 160.485 82.264 160.522L86.5588 160.784C87.794 160.86 89.6154 161.313 90.2943 159.925C90.5652 159.37 90.68 158.734 90.7851 158.13C90.9047 157.431 90.9691 156.725 90.9779 156.016C90.9847 155.253 90.8815 154.517 90.0841 154.207C89.4824 153.975 88.7592 153.937 88.1237 153.86C86.5439 153.673 84.9476 153.67 83.3671 153.851C82.9081 153.904 82.5109 154.208 82.5109 154.709C82.5109 155.131 82.9043 155.618 83.3671 155.566L83.3691 155.577Z" fill="#2D1111"/>
<path id="Vector_100" d="M76.9002 153.846C79.3108 153.699 81.7214 153.8 84.132 153.653C84.5948 153.625 84.9892 153.279 84.9892 152.796C84.9892 152.354 84.5968 151.91 84.132 151.939C81.7214 152.085 79.3108 151.985 76.9002 152.132C76.4383 152.16 76.043 152.506 76.043 152.989C76.043 153.432 76.4364 153.875 76.9002 153.847V153.846Z" fill="#2D1111"/>
<path id="Vector_101" d="M82.4091 159.887C82.1329 161.216 81.6666 162.498 81.0245 163.694C80.7921 164.126 80.9618 164.873 81.5365 164.954L84.5883 165.39L86.0501 165.596C86.5322 165.664 87.0346 165.789 87.5206 165.783C88.0239 165.783 88.5244 165.578 88.7924 165.131C89.0605 164.685 89.047 164.102 89.0962 163.588C89.1945 162.568 89.2832 161.546 89.3623 160.523C89.398 160.061 88.9419 159.666 88.5051 159.666C88.0114 159.666 87.6845 160.059 87.6479 160.523C87.5836 161.368 87.5119 162.212 87.4328 163.056C87.3981 163.423 87.3075 163.939 87.3191 164.233L87.293 164.329L87.4627 164.1C87.5129 164.047 87.5968 164.089 87.5206 164.063C87.4058 164.024 87.2197 164.038 87.1031 164.021L81.9926 163.299L82.5046 164.557C83.2225 163.234 83.7469 161.814 84.0619 160.341C84.1583 159.889 83.9278 159.414 83.4631 159.287C83.0369 159.169 82.5046 159.431 82.4091 159.885V159.887Z" fill="#2D1111"/>
<path id="Vector_102" d="M86.7492 143.887C88.2669 147.529 88.8214 151.408 89.2128 155.307C89.2591 155.77 89.5735 156.158 90.0701 156.164C90.4972 156.164 90.9726 155.767 90.9263 155.307C90.5194 151.257 89.9775 147.213 88.4019 143.432C88.2226 143.001 87.8359 142.704 87.347 142.833C86.943 142.939 86.5756 143.46 86.7492 143.887Z" fill="#2D1111"/>
<path id="Vector_103" d="M87.0417 144.228C92.5334 151.561 96.4874 159.927 98.6666 168.824C98.9279 169.896 100.581 169.441 100.318 168.369C98.1075 159.326 94.0956 150.821 88.5228 143.363C87.87 142.496 86.3812 143.344 87.0427 144.231L87.0417 144.228Z" fill="#2D1111"/>
<path id="Vector_104" d="M89.5543 156.444C91.763 158.876 94.3259 160.961 97.1564 162.628C98.1081 163.19 98.9721 161.709 98.0242 161.149C95.3213 159.554 92.8753 157.559 90.7693 155.232C90.4578 154.889 89.8735 154.916 89.5572 155.232C89.3991 155.394 89.3105 155.612 89.3105 155.838C89.3105 156.065 89.3991 156.282 89.5572 156.444H89.5543Z" fill="#2D1111"/>
<path id="Vector_105" d="M87.3291 157.028C88.004 160.692 91.5872 163.596 95.3159 163.501C99.0446 163.405 102.471 160.319 102.96 156.626C103.106 155.522 103.018 154.399 102.864 153.297C102.748 152.493 102.593 151.686 102.263 150.942C101.601 149.451 100.296 148.348 98.9578 147.412C98.5644 147.137 98.1585 146.867 97.848 146.501C97.4382 146.019 97.2241 145.404 96.9908 144.814C96.5511 143.702 95.9928 142.596 95.0989 141.804C94.2051 141.013 92.912 140.575 91.78 140.962C92.8773 143.736 93.9862 146.801 93.0278 149.625C92.6901 150.591 92.1279 151.464 91.3875 152.17C90.6471 152.877 89.7496 153.398 88.7687 153.69C86.8595 154.24 85.2367 153.682 83.5049 152.956C83.9822 154.681 85.7815 156.229 87.3291 157.028Z" fill="white"/>
<path id="Vector_106" d="M99.329 161.901C97.96 162.173 96.5389 161.905 95.3631 161.153C94.2137 160.419 93.2726 159.321 92.4385 158.252C91.8031 157.443 91.6363 156.622 91.9458 155.842C90.8572 155.307 90.0019 154.468 89.2459 153.511C89.0849 153.573 88.9268 153.637 88.7638 153.686C86.8546 154.235 85.2318 153.677 83.5 152.951C83.9821 154.676 85.7814 156.229 87.329 157.023C88.004 160.687 91.5871 163.591 95.3158 163.496C97.0332 163.452 98.682 162.769 100.014 161.69C99.7918 161.78 99.5628 161.85 99.329 161.901Z" fill="#FFF9F2"/>
<path id="Vector_107" d="M89.1459 139.11C88.2492 137.719 86.6736 135.735 85.7711 134.344C85.1809 133.429 84.263 132.383 83.2226 132.705C82.4425 132.949 82.0944 133.862 82.0404 134.68C81.9208 136.503 78.7446 136.829 79.5266 138.478C78.6983 138.189 79.6684 139.739 79.167 140.456C78.6655 141.174 80.5776 142.423 80.4928 143.295C80.2893 145.381 80.4079 147.538 81.2227 149.473C82.0375 151.408 83.6256 153.076 85.6438 153.642C89.0186 154.588 92.7435 151.968 93.5593 148.564C94.375 145.161 92.649 141.47 89.8585 139.355" fill="#FDEFE8"/>
<path id="Vector_108" d="M84.9259 149.896C82.6204 147.536 81.4547 143.873 81.4981 140.5C81.4021 140.595 81.3144 140.698 81.2358 140.808C80.7344 141.525 80.582 142.425 80.4972 143.297C80.2937 145.382 80.4123 147.539 81.2271 149.475C82.0419 151.41 83.63 153.078 85.6482 153.644C87.6933 154.223 89.8667 153.474 91.4452 152.044C89.0789 152.307 86.6703 151.683 84.9259 149.896Z" fill="#FCE4D8"/>
<path id="Vector_109" d="M90.0666 138.539C88.9654 137.418 88.0282 136.129 87.1363 134.838C86.3195 133.657 85.497 132.033 83.9118 131.818C82.208 131.586 81.2978 133.21 81.1888 134.682C81.0413 136.674 81.9399 138.58 82.7663 140.331L83.7305 139.072C82.2996 138.686 80.9044 139.507 80.2516 140.784C79.5332 142.189 79.5014 144.02 79.5592 145.565C79.6749 148.616 80.7867 151.661 83.3497 153.48C85.5424 155.038 88.3743 155.023 90.6644 153.681C91.8248 153.005 92.7955 152.047 93.4867 150.896C94.1778 149.744 94.5669 148.437 94.6178 147.095C94.7355 143.862 92.9844 140.701 90.4716 138.751C90.1032 138.462 89.6201 138.399 89.2605 138.751C88.9616 139.041 88.895 139.68 89.2605 139.964C92.6286 142.574 94.4925 147.833 91.0925 151.209C89.7185 152.574 87.6917 153.362 85.7805 152.788C83.5975 152.132 82.1714 150.058 81.6189 147.943C81.2447 146.511 81.211 145.015 81.3363 143.548C81.4222 142.538 81.7741 140.314 83.2841 140.724C84.0555 140.934 84.5598 140.119 84.2483 139.465C83.6177 138.129 82.9341 136.707 82.8984 135.201C82.8868 134.733 82.8984 134.004 83.2841 133.658C83.7479 133.243 84.3043 133.842 84.6003 134.184C85.3476 135.046 85.9165 136.098 86.5992 137.016C87.304 137.964 88.0291 138.911 88.8584 139.754C89.6298 140.542 90.8438 139.33 90.0695 138.542L90.0666 138.539Z" fill="#2D1111"/>
<path id="Vector_110" d="M81.6092 135.669C79.9362 135.684 78.3857 136.963 78.0328 138.601C77.6558 140.348 78.4918 142.072 79.9131 143.088C80.2901 143.357 80.8667 143.155 81.0856 142.781C81.3372 142.351 81.156 141.877 80.778 141.608C80.563 141.455 80.8744 141.705 80.6816 141.532C80.6285 141.484 80.5736 141.436 80.5215 141.387C80.4192 141.287 80.3226 141.181 80.2322 141.07C80.1956 141.024 80.1956 141.025 80.2322 141.07L80.1821 141C80.1348 140.928 80.0857 140.857 80.0423 140.782C79.967 140.658 79.9004 140.529 79.8427 140.396C79.889 140.502 79.8321 140.362 79.8186 140.321C79.7945 140.254 79.7723 140.185 79.753 140.117C79.7298 140.034 79.7096 139.951 79.6922 139.867C79.6922 139.848 79.6566 139.632 79.6672 139.728C79.6778 139.825 79.6604 139.606 79.6595 139.586C79.6595 139.515 79.6595 139.445 79.6595 139.373C79.6595 139.302 79.6662 139.231 79.672 139.159C79.6575 139.318 79.6913 139.063 79.6942 139.051C79.7234 138.917 79.7623 138.785 79.8108 138.656C79.7617 138.789 79.8282 138.622 79.8407 138.596C79.8716 138.532 79.9037 138.471 79.9372 138.414C79.9786 138.343 80.0249 138.274 80.0712 138.206C80.1522 138.084 80.0567 138.215 80.1146 138.15C80.2053 138.046 80.3019 137.947 80.4039 137.854C80.4395 137.822 80.5475 137.733 80.453 137.805C80.5186 137.755 80.588 137.709 80.6574 137.667C80.7269 137.624 80.7741 137.597 80.8349 137.57C80.8811 137.545 81.0007 137.489 80.8889 137.536C81.0136 137.484 81.1426 137.443 81.2746 137.414C81.2939 137.409 81.5436 137.376 81.371 137.392C81.453 137.385 81.5349 137.382 81.6178 137.381C81.8401 137.374 82.0507 137.28 82.2053 137.12C82.3599 136.96 82.4463 136.747 82.4463 136.524C82.4463 136.302 82.3599 136.088 82.2053 135.929C82.0507 135.769 81.8401 135.675 81.6178 135.668L81.6092 135.669Z" fill="#2D1111"/>
<path id="Vector_111" d="M86.2451 157.386C86.2451 157.915 86.7446 158.506 87.0088 158.942C87.3687 159.542 87.7621 160.121 88.1871 160.677C88.9768 161.701 89.9111 162.626 91.0393 163.272C93.2108 164.517 95.9772 164.719 98.3242 163.865C103.151 162.1 105.35 156.41 103.435 151.744C102.26 148.882 99.9749 146.73 97.4457 145.046C96.5258 144.432 95.6667 145.914 96.5779 146.526C100.079 148.863 103.369 152.684 102.201 157.192C101.141 161.278 96.9154 163.683 92.8791 162.249C91.7355 161.842 90.777 161.079 89.9796 160.178C89.5694 159.706 89.1949 159.203 88.8591 158.676C88.6885 158.413 88.5246 158.146 88.3645 157.877C88.3047 157.781 88.2449 157.675 88.1861 157.574C88.0897 157.406 87.9557 156.937 87.9557 157.388C87.9557 156.285 86.2422 156.284 86.2422 157.388L86.2451 157.386Z" fill="#2D1111"/>
<path id="Vector_112" d="M81.898 152.882C83.6173 156.75 87.9612 159.659 92.147 157.703C94.2972 156.697 95.9943 154.55 96.9566 152.426C97.9874 150.149 98.3557 147.552 97.7396 145.107C97.0453 142.353 94.8777 140.015 91.9175 139.924C90.8144 139.89 90.8153 141.604 91.9175 141.638C94.0639 141.703 95.5343 143.499 96.055 145.445C96.5854 147.426 96.325 149.586 95.5208 151.458C94.1632 154.622 90.9291 157.792 87.2775 156.195C85.4657 155.403 84.1649 153.784 83.3781 152.018C82.9307 151.012 81.4496 151.883 81.898 152.885V152.882Z" fill="#2D1111"/>
<path id="Vector_113" d="M161.223 65.926C160.269 60.7393 158.041 54.9336 153.337 53.4169C159.452 48.9891 158.94 38.8636 156.067 31.8824C153.195 24.9013 148.28 19.1457 141.507 15.8066C137.457 13.8106 133.013 13.529 128.504 13.7383C123.995 13.9475 117.927 15.8095 115.726 19.7503C115.747 14.3255 112.908 10.7038 108.447 7.61821C103.985 4.53263 99.1313 1.51262 93.7364 0.944681C81.2977 -0.362833 67.5832 3.64456 60.7699 14.1346C55.131 10.6845 47.8972 12.047 42.9314 16.414C37.9655 20.7811 35.5896 27.7632 37.9868 33.9247C39.5884 38.042 42.9516 41.36 46.9542 43.1612C51.7243 45.3057 54.9102 44.8968 59.4624 42.9529C62.6347 41.603 66.0433 42.7128 69.4712 43.1043C76.5314 43.9123 83.1133 45.7299 89.4889 48.8676C96.8037 52.4661 103.601 56.084 109.769 61.4124C114.73 65.6965 118.562 71.2544 122.098 76.7757C125.634 82.2969 128.269 87.6437 127.568 94.1591C127.258 97.0286 126.418 101.76 126.089 102.441C125.821 102.995 125.556 103.694 125.562 103.739C127.349 105.241 128.515 106.858 129.072 108.808C129.69 109.124 131.46 109.327 131.994 109.414C133.195 109.613 134.426 109.324 135.574 108.917C139.913 107.374 142.558 103.684 144.541 99.5241C151.214 101.799 155.184 97.1839 156.521 92.8515C157.859 88.5192 155.792 84.3758 154.247 80.1129C159.363 78.8266 162.176 71.1117 161.223 65.926Z" fill="#FFF9F2"/>
<path id="Vector_114" d="M138.868 99.9965C138.675 97.5328 138.859 94.7982 140.018 92.5718C141.097 90.4996 142.938 88.9511 144.743 87.524C144.678 87.3617 144.561 87.226 144.41 87.1383C142.345 85.9523 140.533 84.2774 139.764 82.0558C139.004 79.8621 139.645 77.1208 141.377 75.7159C141.466 75.6442 141.534 75.5491 141.572 75.4413C141.61 75.3334 141.617 75.2171 141.593 75.1053C141.569 74.9935 141.514 74.8907 141.434 74.8085C141.355 74.7262 141.254 74.6678 141.143 74.6398C138.524 73.9715 135.991 72.7624 134.623 70.4935C132.511 66.9866 133.993 62.6581 135.937 58.8917C136.023 58.7262 136.065 58.5414 136.061 58.3549C136.056 58.1683 136.003 57.9861 135.908 57.8253C135.814 57.6646 135.68 57.5306 135.519 57.4359C135.358 57.3413 135.176 57.2891 134.989 57.2843C129.452 57.1436 123.997 54.5092 120.511 50.1952C117.149 46.0355 115.695 40.4236 116.505 35.1559C116.631 34.3411 115.724 33.7751 115.036 34.2283C109.112 38.1383 101.486 39.4873 94.6749 37.4865C87.8124 35.4703 82.0202 30.004 79.7109 23.2668C79.6477 23.0784 79.5341 22.911 79.3823 22.7828C79.2305 22.6546 79.0464 22.5705 78.8502 22.5398C78.6539 22.5091 78.4529 22.5328 78.2692 22.6085C78.0855 22.6841 77.9261 22.8088 77.8084 22.9688C74.9224 26.8258 70.5766 29.6636 65.7968 29.9644C60.2476 30.3125 54.4255 26.6445 53.2163 21.2178C50.528 23.6747 51.9792 28.438 52.8875 31.4388C53.2906 32.7684 53.386 34.1878 53.0515 35.5368C51.9185 40.1034 47.4396 40.0032 44.084 38.8249C42.4766 38.2608 40.8297 36.4943 39.2686 36.4085C40.3553 38.9492 43.3917 42.6828 45.9508 43.5689C49.5088 44.8022 53.0225 45.401 56.677 44.4888C58.2777 44.0906 59.0182 43.3394 60.2013 42.1901C60.7799 41.625 62.1153 38.3678 62.8337 37.9908C63.5733 37.6051 62.3516 38.202 63.1885 38.2531C72.6777 38.8316 84.2939 41.2316 92.9673 45.1252C104.549 50.3186 114.723 57.7202 122.387 67.8409C124.257 70.3092 125.968 72.8934 127.51 75.578C130.006 79.9171 130.013 86.7507 127.667 91.0136C127.433 96.1405 127.135 100.056 125.219 103.25C124.869 103.828 127.55 105.347 129.181 108.842C129.826 110.225 137.076 107.75 137.222 107.793C138.373 108.133 139.657 107.037 140.736 105.782C139.533 104.064 139.035 102.088 138.868 99.9965Z" fill="#FAB292"/>
<path id="Vector_115" d="M61.0035 43.2374C71.8994 43.4697 82.6845 46.2718 92.4118 51.1731C102.083 56.0464 110.719 62.9465 117.482 71.4126C119.373 73.7816 121.106 76.2725 122.67 78.8691C124.549 81.9845 126.257 85.3411 126.703 88.9994C126.835 90.0803 128.551 90.0938 128.418 88.9994C127.667 82.8562 124.026 77.3022 120.414 72.4308C117.08 67.9362 113.254 63.8287 109.006 60.1849C100.48 52.8689 90.4795 47.4724 79.6838 44.3617C73.6046 42.6177 67.3262 41.6636 61.0035 41.5229C59.8994 41.4998 59.9004 43.2133 61.0035 43.2374Z" fill="#2D1111"/>
<path id="Vector_116" d="M60.3863 43.3677L65.2837 36.374C65.5488 35.9941 65.3521 35.4213 64.9761 35.2015C64.5489 34.9508 64.0697 35.1282 63.8035 35.5091L58.909 42.5047C58.6439 42.8836 58.8406 43.4573 59.2166 43.6772C59.6438 43.9269 60.123 43.7495 60.3892 43.3696L60.3863 43.3677Z" fill="#2D1111"/>
<path id="Vector_117" d="M128.543 90.8536C130.79 89.0243 133.179 87.3767 135.687 85.9263C136.642 85.3738 135.783 83.8918 134.819 84.4472C132.188 85.9768 129.683 87.7137 127.328 89.6416C126.969 89.9308 127.024 90.5489 127.328 90.8536C127.683 91.2085 128.18 91.1429 128.54 90.8536H128.543Z" fill="#2D1111"/>
<path id="Vector_118" d="M61.602 14.7681C67.1763 6.77161 76.6819 2.15771 86.3243 1.77683C94.8665 1.43934 104.198 3.70532 110.202 10.1455C112.825 12.9533 114.594 16.4506 115.301 20.2276C115.44 20.9711 116.52 21.0366 116.867 20.433C118.956 16.8017 123.204 15.1576 127.2 14.769C131.714 14.3294 136.393 15.1846 140.521 17.0427C149.095 20.8997 155.132 29.0678 156.277 38.4171C156.898 43.4852 156.262 49.1655 152.464 52.9174C151.673 53.6984 152.859 54.8623 153.676 54.1295C153.629 54.1709 153.605 54.1198 153.645 54.1449C153.424 54.0031 153.888 54.2413 153.728 54.17C154.085 54.3252 154.34 54.601 154.611 54.8864C155.33 55.6414 155.909 56.5256 156.456 57.4098C156.961 58.2249 157.432 59.0606 157.868 59.9168C158.164 60.4767 158.409 61.0614 158.603 61.6641C159.315 63.7356 159.751 65.8918 159.9 68.0772C160.047 70.2834 159.938 72.5986 159.11 74.6756C158.21 76.9367 156.403 78.3397 154.007 78.709C153.577 78.7765 153.26 79.3666 153.41 79.7639C155.124 84.3132 157.033 90.2095 154.446 94.8128C152.68 97.9582 148.459 100.549 144.954 98.5801C144.495 98.3227 143.814 98.5387 143.695 99.0921C142.396 105.112 135.821 109.367 129.792 107.954C128.719 107.702 128.261 109.355 129.336 109.606C136.231 111.222 143.847 106.501 145.348 99.5473L144.089 100.06C147.285 101.856 151.061 100.752 153.679 98.4471C156.889 95.6209 157.734 91.3261 157.215 87.2252C156.868 84.4944 156.029 81.8746 155.062 79.3078L154.464 80.3617C156.958 79.976 159.071 78.5142 160.249 76.2723C161.427 74.0305 161.736 71.3653 161.651 68.8477C161.565 66.3108 161.115 63.7993 160.316 61.3902C159.704 59.5582 158.773 57.8611 157.741 56.2363C156.842 54.8228 154.518 51.0738 152.462 52.9164L153.674 54.1285C157.317 50.5299 158.399 45.3259 158.155 40.3639C157.9 35.3193 156.344 30.4264 153.639 26.1606C148.245 17.6801 138.284 12.4809 128.225 12.9784C123.296 13.2224 117.968 15.0776 115.386 19.5671L116.952 19.7715C115.505 12.0412 109.805 5.9684 102.703 2.91464C93.4761 -1.05322 82.3429 -0.962585 73.1894 3.1422C67.9555 5.48917 63.4023 9.19283 60.119 13.9022C59.4875 14.8095 60.9724 15.6668 61.5992 14.77L61.602 14.7681Z" fill="#2D1111"/>
<path id="Vector_119" d="M55.9394 31.2287C62.1106 37.0016 72.267 37.7547 79.1642 32.8226L77.9917 32.5169C83.645 40.4112 93.4659 44.8592 103.125 44.3106C105.847 44.1622 108.531 43.6013 111.085 42.6473L110 41.8209C110.569 49.7084 115.759 56.9277 122.896 60.264C124.912 61.2048 127.063 61.823 129.271 62.0961C129.025 61.666 128.778 61.2363 128.532 60.8069C126.569 63.6745 126.613 67.4804 128.083 70.5457C129.561 73.6313 132.446 75.8722 135.525 77.2183C135.423 76.8281 135.32 76.4372 135.218 76.0458C132.867 81.0733 134.111 87.4238 138.335 91.088C139.165 91.8073 140.382 90.6001 139.547 89.8759C135.938 86.7518 134.659 81.272 136.698 76.9126C136.876 76.5327 136.844 75.9387 136.39 75.7411C133.682 74.556 131.183 72.7278 129.764 70.0781C128.362 67.4621 128.311 64.1547 130.012 61.6699C130.42 61.072 129.854 60.4539 129.271 60.3807C122.145 59.483 115.843 54.2799 113.122 47.7057C112.341 45.8301 111.865 43.8413 111.714 41.8151C111.678 41.3099 111.189 40.7776 110.629 40.9888C102.072 44.2171 92.1487 42.5238 84.8494 37.1096C82.7856 35.5781 80.9715 33.7361 79.4718 31.6491C79.2211 31.2991 78.7004 31.0522 78.2993 31.3415C72.0317 35.8223 62.7971 35.2949 57.1515 30.0147C56.3473 29.2616 55.1324 30.4708 55.9394 31.2268V31.2287Z" fill="#2D1111"/>
<path id="Vector_120" d="M53.0118 44.2673C45.8282 44.5498 39.5355 38.7113 38.2724 31.8054C36.9408 24.5225 41.9442 17.2289 48.4384 14.3111C51.9347 12.7413 56.7791 12.3489 59.6149 15.393C60.368 16.201 61.5782 14.9871 60.826 14.181C58.0182 11.1658 53.4428 10.9025 49.6977 12.023C45.7954 13.1945 42.3984 15.799 39.9752 19.0378C37.5521 22.2767 36.1192 26.3458 36.3863 30.3957C36.6457 34.3404 38.4334 38.0913 41.1526 40.9377C44.2247 44.1545 48.5262 46.1533 53.0128 45.9769C54.112 45.9335 54.1178 44.22 53.0128 44.2634L53.0118 44.2673Z" fill="#2D1111"/>
<path id="Vector_121" d="M53.3069 20.7676C52.9079 21.3686 52.6502 22.0523 52.5532 22.7672C52.4561 23.4822 52.5223 24.2098 52.7467 24.8955C52.8894 25.3198 53.3426 25.6418 53.8006 25.4943C54.222 25.3574 54.5528 24.8945 54.3985 24.4404C54.3506 24.2994 54.3106 24.1558 54.2789 24.0103C54.2752 23.9356 54.2615 23.8616 54.2384 23.7905C54.2548 23.9264 54.2577 23.9476 54.2471 23.8531C54.2471 23.8155 54.2394 23.7789 54.2355 23.7413C54.2249 23.6121 54.221 23.4819 54.223 23.3556C54.223 23.2804 54.2278 23.2061 54.2336 23.1319C54.2336 23.0953 54.2394 23.0576 54.2432 23.021C54.2538 22.9246 54.251 22.9468 54.2326 23.0827C54.2551 23.0111 54.268 22.9369 54.2712 22.8619C54.2857 22.7896 54.302 22.7163 54.3213 22.6449C54.3539 22.5187 54.3929 22.3941 54.438 22.2718C54.4509 22.2371 54.4644 22.2024 54.4785 22.1677C54.4274 22.2863 54.4197 22.3036 54.4573 22.2188C54.4901 22.1513 54.5209 22.0838 54.5537 22.0182C54.6235 21.8853 54.7007 21.7566 54.7851 21.6325C55.0378 21.2613 54.8671 20.6683 54.4775 20.46C54.0427 20.2305 53.575 20.3713 53.305 20.7676H53.3069Z" fill="#2D1111"/>
</g>
</g>
</g>
</svg>
