<svg width="158" height="174" viewBox="0 0 158 174" fill="none" xmlns="http://www.w3.org/2000/svg">
<g id="Group 36230">
<path id="Vector" d="M125.033 102.809C125.051 101.138 124.957 100.608 124.228 99.0804C123.342 97.2234 120.894 96.5386 119.223 95.4771C115.646 93.2051 112.816 89.0566 109.834 86.0444C106.804 82.9919 104.172 79.5692 101.999 75.8576C99.8126 72.11 98.2452 68.042 96.1297 64.2561C92.3915 57.5676 85.7461 51.1208 77.4237 52.3575C72.5809 53.0799 68.9608 57.0223 65.0652 59.6447C60.5681 62.6718 55.8115 65.2829 51.1532 68.0449C41.6391 73.6859 32.9072 80.5055 25.518 88.7699L25.5058 88.7858C22.4946 89.0144 19.0103 89.882 17.8167 92.5334C16.0984 96.354 16.9444 101.884 18.9925 105.408C21.3788 109.513 25.6941 111.343 30.2821 111.527L30.9782 111.555C33.535 117.27 37.8953 121.861 43.3911 125.109C45.8973 126.59 48.4653 128.033 51.2235 128.992C52.4415 129.417 53.7662 129.821 55.0573 129.969C56.6875 130.156 58.2343 130.938 59.9179 131.324C61.7386 131.726 63.586 131.994 65.4455 132.128C68.0445 132.325 70.6565 132.21 73.2573 132.105C77.4462 131.936 81.635 131.988 85.7892 131.562C86.4816 131.295 87.1768 131.032 87.8654 130.757C92.0214 129.092 95.9779 127.048 99.6908 124.541C101.444 123.368 103.112 122.07 104.68 120.658C105.484 119.931 106.224 119.033 107.073 118.369C108.197 117.488 109.219 116.691 110.617 116.699C118.61 116.747 124.949 110.733 125.033 102.809Z" fill="#FDEFE8"/>
<path id="Vector_2" d="M28.3225 91.9299C33.7246 88.4296 38.455 86.0687 44.8774 84.8695C54.3512 83.1006 64.0921 83.4791 73.6222 84.5621C80.692 85.366 87.3252 86.5296 94.291 88.0287C100.835 89.434 107.702 92.2372 113.225 96.5825C113.647 95.1631 114.296 92.7253 114.498 91.2544C112.9 89.494 111.386 87.6164 109.832 86.0471C106.802 82.9946 104.17 79.572 101.997 75.8603C99.8102 72.1127 98.2428 68.0447 96.1273 64.2587C92.3891 57.5703 85.7437 51.1235 77.4213 52.3602C72.5785 53.0825 68.9583 57.025 65.0627 59.6474C60.5656 62.6745 55.809 65.2856 51.1508 68.0475C42.6925 73.0618 34.8554 79.0092 28.0273 86.0762C28.0648 88.0305 28.0779 89.9924 28.3225 91.9299Z" fill="#FCE4D8"/>
<path id="Vector_3" d="M124.669 75.7181C123.838 71.6051 122.832 67.5249 121.305 63.6256C121.134 63.3332 120.989 63.0262 120.872 62.7084C119.73 60.7531 117.248 55.0258 115.945 53.1699C113.522 49.7268 110.78 46.5104 107.682 43.6557C105.111 41.2863 102.295 39.2017 99.3341 37.3467C90.5273 31.8274 77.943 29.5901 67.6868 30.4858C56.7683 31.4386 46.7473 36.4472 38.081 42.9465C32.7267 46.9601 28.5819 53.346 25.2971 59.5295C21.5617 66.559 20.4121 72.616 20.3822 80.662C20.3756 82.3653 20.0683 86.3696 21.631 87.7824C22.5885 88.6519 24.363 88.3802 25.8602 88.1207C26.9666 88.5526 27.6403 87.9726 28.5434 87.1135C28.7308 86.9317 28.714 86.4408 28.9182 86.2937C29.5956 85.8047 33.4921 84.27 34.3409 84.1136C36.4426 83.7377 38.5133 83.2054 40.5357 82.5208C40.768 82.444 41.0041 82.3831 41.2421 82.31C41.9597 78.8267 43.7961 77.5122 44.8023 74.1047C45.1115 73.061 46.0858 71.5695 45.7766 72.6113C45.7766 72.6254 47.2513 71.4318 47.2466 71.4458C47.4977 71.5198 48.0645 71.5498 48.1208 71.8946C48.5302 74.4298 47.1501 78.3282 47.627 80.8513C57.663 79.267 68.931 80.3547 78.5932 81.2738C82.3202 81.6289 84.9191 81.9625 88.5402 82.8394C88.5824 81.6851 89.6785 80.8401 89.6176 79.6858C89.5933 79.2267 90.0861 78.866 90.5086 78.8894C90.9995 78.9166 91.2806 79.3242 91.305 79.7795C91.3715 81.0434 92.2531 82.1798 92.1997 83.4437C96.6106 84.6064 100.489 86.1832 104.431 88.0007C104.64 87.8999 104.877 87.8737 105.103 87.9267C106.613 88.2659 108.125 88.62 109.583 89.1494C110.988 89.66 112.806 90.3954 113.469 91.8542C113.562 92.0477 113.576 92.2703 113.506 92.4735C113.517 92.7114 113.439 92.9451 113.288 93.1293C113.438 93.6205 113.466 94.1407 113.37 94.6452C113.078 96.0646 114.307 97.3622 115.747 96.6923C117.464 95.8969 119.625 96.4112 121.151 95.42C122.521 94.5309 122.299 92.3835 122.823 91.0053C124.615 86.29 125.012 79.9641 124.627 75.734C124.64 75.7266 124.654 75.7213 124.669 75.7181Z" fill="#725440"/>
<path id="Vector_4" d="M124.752 80.5869C124.752 80.5551 124.404 77.8006 124.401 77.7678C124.317 76.8 124.189 75.8191 124.032 74.8344C122.652 74.4891 121.323 73.9693 120.075 73.2876C116.855 71.5178 113.428 69.0275 111.577 65.8918C110.415 63.9243 109.305 62.1067 108.286 60.0662C108.452 61.5839 109.129 63.1092 109.045 64.5932C108.902 67.0619 108.749 69.7639 106.181 70.8507C102.942 72.2214 99.1959 69.5503 97.056 67.3439C94.1329 64.3318 92.2207 60.4512 90.361 56.7364C88.9809 53.9801 88.3195 49.765 86.4775 47.2466C86.5131 47.9306 87.0818 49.824 87.1071 50.5061C87.2945 55.4379 87.4734 62.7616 85.1471 67.3589C80.7512 76.0467 66.0345 74.6667 58.5525 71.4344C53.1804 69.1119 54.0432 57.9432 54.9483 53.6794C55.5807 50.6991 56.5101 47.7929 57.5828 44.9419C55.8758 46.6414 54.551 48.7297 53.3424 50.804C51.9886 53.1256 50.7116 55.4819 49.4365 57.8476C48.2055 60.1308 46.9247 62.4093 45.3601 64.4845C44.0391 66.2356 42.4267 68.0653 40.344 68.9086C39.0164 69.4454 37.4762 69.7621 36.128 69.1081C34.954 68.5375 34.2954 67.3908 33.93 66.1813C32.9819 63.0455 33.6124 59.3925 34.2879 56.268C34.5128 55.2274 34.781 54.1968 35.0927 53.1762C33.4063 55.5784 32.1134 58.2514 30.9591 60.9656C30.1656 62.8319 29.4245 64.7188 28.63 66.5869C27.9742 68.1253 27.3305 69.748 26.2662 71.0578C25.6451 71.8223 24.8122 72.5765 23.7638 72.5737C22.915 72.5737 22.2039 72.0528 21.7195 71.3894C21.5466 71.1505 21.3901 70.9001 21.251 70.6399C20.6355 73.757 20.3844 77.0052 20.3685 80.6647C20.3619 82.368 20.0546 86.3722 21.6174 87.7851C22.5749 88.6545 24.3494 88.3828 25.8465 88.1233C26.953 88.5552 27.6266 87.9753 28.5298 87.1161C28.7171 86.9344 28.7003 86.4434 28.9045 86.2963C29.5819 85.8073 33.4784 84.2727 34.3273 84.1162C36.429 83.7404 38.4997 83.208 40.522 82.5235C40.7543 82.4467 40.9904 82.3858 41.2284 82.3127C41.9461 78.8293 43.7824 77.5149 44.7886 74.1074C45.0978 73.0637 46.0722 71.5721 45.763 72.614C45.763 72.628 47.2376 71.4344 47.233 71.4485C47.484 71.5225 48.0509 71.5525 48.1071 71.8972C48.5156 74.4325 47.1365 78.3309 47.6133 80.8539C57.6493 79.2697 68.9174 80.3574 78.5795 81.2765C82.3065 81.6316 84.9054 81.9651 88.5265 82.842C88.5687 81.6878 89.6648 80.8427 89.6039 79.6884C89.5796 79.2294 90.0724 78.8687 90.4949 78.8921C90.9859 78.9193 91.2669 79.3268 91.2913 79.7821C91.3578 81.046 92.2394 82.1825 92.186 83.4463C96.5969 84.609 100.476 86.1858 104.417 88.0034C104.626 87.9026 104.862 87.8764 105.088 87.9294C106.599 88.2685 108.111 88.6227 109.569 89.152C110.974 89.6626 112.792 90.3981 113.455 91.8568C113.549 92.0503 113.562 92.2729 113.492 92.4761C113.504 92.7141 113.426 92.9479 113.275 93.1319C113.424 93.6232 113.452 94.1434 113.356 94.6478C113.065 96.0672 114.293 97.3648 115.733 96.6949C117.45 95.8995 119.612 96.4139 121.137 95.4226C122.508 94.5335 122.532 92.4555 122.809 91.008C123.628 86.8023 125.141 84.8198 124.752 80.5869Z" fill="#725440"/>
<path id="Vector_5" opacity="0.25" d="M53.2656 100.541C53.4459 97.3165 50.1302 94.5087 45.8598 94.27C41.5894 94.0312 37.9814 96.4519 37.8011 99.6767C37.6208 102.901 40.9365 105.709 45.2069 105.948C49.4773 106.187 53.0853 103.766 53.2656 100.541Z" fill="#FAB292"/>
<path id="Vector_6" opacity="0.25" d="M102.109 104.236C102.29 101.011 98.974 98.2031 94.7035 97.9643C90.4331 97.7256 86.8251 100.146 86.6448 103.371C86.4645 106.596 89.7802 109.404 94.0506 109.642C98.3211 109.881 101.929 107.46 102.109 104.236Z" fill="#FAB292"/>
<path id="Vector_7" d="M74.8829 96.8359C74.9389 95.8342 73.5783 94.9435 71.844 94.8466C70.1097 94.7496 68.6584 95.4831 68.6024 96.4848C68.5464 97.4865 69.9069 98.3772 71.6412 98.4742C73.3755 98.5711 74.8269 97.8377 74.8829 96.8359Z" fill="#FF8685"/>
<path id="Vector_8" d="M67.5256 31.7684C42.0702 34.032 15.5936 58.4511 22.4142 85.7756C22.4413 85.8852 22.6325 85.8834 22.6231 85.7597C21.6094 72.4783 25.5649 59.5005 34.6228 49.5488C43.3509 39.9559 55.1098 34.4517 67.6455 32.2312C68.5327 32.0739 68.3809 31.6925 67.5256 31.7684Z" fill="#725440"/>
<path id="Vector_9" d="M118.637 105.699C118.637 105.565 118.642 105.429 118.637 105.291C118.559 102.392 116.234 98.8546 112.961 100.145C112.344 100.388 112.464 101.241 112.924 101.55C111.94 104.896 111.143 108.248 110.482 111.668C110.356 112.324 110.808 113.127 111.593 112.912C115.008 111.973 118.5 109.493 118.637 105.699Z" fill="#FCE4D8"/>
<path id="Vector_10" d="M29.3683 105.09C28.8886 101.155 28.8455 97.1259 28.5879 93.1648C28.5846 93.0076 28.5251 92.8568 28.42 92.7399C28.3149 92.6229 28.1713 92.5476 28.0154 92.5277C27.8294 92.404 27.6147 92.3305 27.392 92.3141C27.1693 92.2976 26.9461 92.339 26.744 92.434C23.8209 93.7615 21.7635 96.8505 22.0034 100.122C22.2451 103.435 24.934 105.33 27.7578 106.53C28.7087 106.934 29.4704 105.944 29.3683 105.09Z" fill="#FCE4D8"/>
<path id="Vector_11" d="M81.5026 132.682C83.6808 131.886 86.4934 132.628 87.5296 134.704C87.9371 135.519 88.0467 136.445 88.1507 137.351L88.4796 140.218C88.5077 140.459 88.5349 140.709 88.459 140.94C88.3719 141.207 88.1601 141.408 87.9502 141.596C86.0935 143.244 83.8399 144.382 81.4107 144.896C80.3155 145.127 79.046 145.177 78.2131 144.434C78.7753 143.838 79.2081 143.106 79.3374 142.299C79.4667 141.493 79.2549 140.613 78.6816 140.034C77.2762 138.612 76.2213 138.31 77.517 136.286C78.5139 134.732 79.7131 133.337 81.5026 132.682Z" fill="#FDEFE8"/>
<path id="Vector_12" d="M53.0494 156.652C51.8952 157.402 50.5311 157.754 49.1951 158.09C48.6189 158.236 48.0174 158.381 47.4374 158.253C46.7507 158.104 46.1858 157.574 45.8785 156.942C45.5712 156.309 45.4953 155.586 45.5402 154.881C45.5599 154.565 45.6058 154.242 45.7604 153.966C46.1848 153.205 47.2126 153.086 48.0839 153.057C49.6466 153.007 52.8677 152.266 54.2412 153.071C55.9341 154.07 54.0388 155.946 53.0494 156.652Z" fill="#FDEFE8"/>
<path id="Vector_13" d="M81.4062 137.323C81.767 138.045 82.0621 138.807 82.5305 139.464C83.6548 141.046 85.8228 141.806 87.6909 141.272C86.5882 142.452 84.7135 144.387 83.1489 144.786C81.5843 145.185 80.2051 145.339 78.5937 145.442C79.6383 144.581 79.8716 141.554 78.9563 140.558C78.3998 139.951 77.5659 139.641 77.0572 138.995C76.273 137.998 76.6328 135.986 77.7861 135.334C79.3385 134.45 80.7813 136.075 81.4062 137.323Z" fill="#FCE4D8"/>
<path id="Vector_14" d="M48.4217 155.152L54.3906 153.961C54.4178 153.42 53.7348 153.168 53.2008 153.103C51.4918 152.892 49.7634 152.892 48.0544 153.103C47.4989 153.172 46.9161 153.277 46.488 153.638C44.7641 155.098 47.5382 155.329 48.4217 155.152Z" fill="#FCE4D8"/>
<path id="Vector_15" d="M101.971 161.942C101.807 161.71 101.64 161.462 101.61 161.179C101.575 160.837 101.744 160.512 101.908 160.211L104.625 155.219L97.2124 151.984C97.6078 150.493 97.4935 148.824 97.3539 147.255C97.0841 144.245 96.6981 140.978 94.5723 138.823C93.9642 138.209 93.2391 137.719 92.6404 137.095C91.6819 136.096 94.3521 133.783 93.641 132.598C92.9299 131.412 88.7495 131.273 87.4453 130.805C86.1412 130.338 84.4126 130.856 83.9788 132.172C85.5397 132.12 86.9816 133.159 87.8051 134.485C88.6286 135.812 88.9378 137.39 89.1448 138.936C89.2301 139.575 89.3004 140.232 89.1448 140.859C88.682 142.775 86.4728 143.613 84.5606 144.091C82.3955 144.635 80.0064 145.088 78.0108 144.085C78.6404 142.362 80.0598 141.116 78.8156 139.769C78.4268 139.347 76.1173 138.155 75.9318 137.614C75.6208 136.705 76.2466 135.753 76.9109 135.058C78.1866 133.726 79.7232 132.671 81.4248 131.959C75.1625 132.272 68.8852 132.087 62.6523 131.405C61.9131 131.324 61.1636 131.234 60.4712 130.959C59.5634 130.599 58.3388 130.017 57.7945 130.827C56.9691 130.111 55.7109 130.392 54.6672 130.712C54.3561 130.805 54.0113 130.929 53.868 131.221C53.7743 131.409 53.7865 131.637 53.7106 131.836C53.6169 132.098 53.3761 132.28 53.1485 132.447C51.6035 133.592 50.0708 135.017 48.4106 135.979C46.9584 136.822 45.3292 137.071 44.1009 138.334C41.5282 140.982 42.3948 145.308 41.5029 148.889C41.2509 149.899 40.8471 150.912 40.9735 151.944C41.1 152.977 42.0547 154.006 43.0609 153.743L38.7793 154.702C38.6294 154.735 38.4683 154.776 38.3737 154.897C38.2537 155.051 38.2912 155.271 38.3352 155.459C38.7487 157.278 39.1622 159.095 39.5757 160.912C41.0513 160.551 42.5669 160.38 44.0859 160.402L43.3158 161.821L44.4147 160.554C44.5403 160.407 44.6818 160.254 44.871 160.217C45.1062 160.173 40.0067 165.77 40.1978 165.915C41.026 166.542 41.6968 167.703 44.2545 169.025C47.3088 170.6 51.7356 170.992 55.1225 171.389C59.1137 171.857 63.1179 172.209 67.1316 172.399C75.1701 172.779 83.2593 172.519 91.1751 170.975C94.7765 170.272 98.2627 169.082 101.732 167.883C103.024 167.437 104.412 166.915 105.138 165.757C103.987 164.567 102.929 163.292 101.971 161.942ZM54.6878 154.984C54.4582 155.372 54.1013 155.654 53.7453 155.921C53.7321 155.931 53.7172 155.939 53.704 155.95C51.9764 157.737 49.0439 158.592 46.7448 157.675C46.3316 157.511 46.0431 157.138 46.148 156.675C45.9699 156.452 45.8452 156.192 45.7835 155.913C45.7062 155.575 45.7469 155.221 45.8988 154.909C45.7314 154.814 45.5997 154.668 45.5239 154.491C45.4481 154.315 45.4323 154.118 45.4791 153.932C45.5943 153.511 45.9953 153.302 46.4038 153.338C46.4038 153.338 46.4122 153.332 46.4544 153.332C46.5181 153.332 46.5818 153.338 46.6417 153.339C46.7954 153.339 46.95 153.339 47.1036 153.326C47.5196 153.306 47.9347 153.269 48.3506 153.233L48.7188 153.201C49.3509 153.059 49.9973 152.99 50.6451 152.997C50.8044 152.997 50.9721 153.008 51.1416 153.02C51.24 153.015 51.3384 153.006 51.4368 153.001C52.0595 152.899 52.6919 152.867 53.3218 152.908C53.5539 152.926 53.7713 153.028 53.9326 153.196C54.6719 153.473 55.1403 154.212 54.6878 154.984Z" fill="white"/>
<path id="Vector_16" d="M58.129 134.101C58.0172 133.756 57.906 133.412 57.7955 133.07C57.8077 132.99 57.8077 132.908 57.7955 132.828C57.7442 132.486 57.6161 132.159 57.4207 131.874C57.2999 131.429 57.1753 130.928 56.9157 130.586C56.4539 129.975 55.6463 130.29 54.9642 130.646C54.8245 130.631 54.6831 130.647 54.5504 130.693C54.4176 130.739 54.2969 130.814 54.1969 130.913C54.0969 131.012 54.0202 131.131 53.9723 131.264C53.9245 131.396 53.9068 131.537 53.9205 131.677C53.9667 132.364 54.0123 133.051 54.0573 133.738C54.0891 134.226 54.0713 134.743 54.4527 135.109C54.8049 135.448 55.2275 135.419 55.6781 135.375C56.2833 135.317 56.8876 135.243 57.491 135.177C58.025 135.12 58.2827 134.575 58.129 134.101Z" fill="#E05656"/>
<path id="Vector_17" d="M94.3209 167.418C94.2525 164.485 93.5058 161.61 92.5033 158.862C92.3094 158.33 91.78 158.112 91.2591 158.125C89.1886 158.174 86.8941 158.241 85.1253 157.015C83.5747 155.939 82.8683 154.204 82.2396 152.487C81.8799 151.508 81.6719 150.292 81.0844 149.417C79.9958 147.794 77.0961 147.73 78.315 145.013C78.5839 144.414 78.1417 143.835 77.5655 143.702C76.2538 143.41 74.8578 143.216 73.5762 143.591C73.5424 143.515 73.5097 143.439 73.4759 143.365C73.4301 143.259 73.3543 143.168 73.2577 143.104C73.1611 143.039 73.0479 143.005 72.9318 143.004C72.8158 143.003 72.702 143.035 72.6043 143.098C72.5066 143.161 72.4293 143.25 72.3816 143.356C72.2644 143.604 72.217 143.879 72.2444 144.152C72.2718 144.425 72.373 144.686 72.5372 144.906C72.6191 145.018 72.7377 145.099 72.8726 145.134C72.8848 145.145 72.8969 145.159 72.91 145.169C72.0256 147.98 72.3348 151.382 72.2158 154.264C72.1446 155.973 72.2992 157.956 71.441 159.482C70.3608 161.403 67.521 162.158 65.4917 162.569C62.0159 163.273 58.4706 162.818 55.0182 162.201C53.5932 161.947 52.0098 161.358 50.5511 161.501C49.9543 161.559 49.3978 161.788 48.8525 162.053C48.8609 162.033 48.8722 162.012 48.8806 161.992C48.9743 161.767 48.6773 161.495 48.4796 161.679C48.1452 161.987 47.7301 162.369 47.2888 162.798L47.2579 162.811C47.1311 162.858 47.0165 162.933 46.9225 163.03C46.8286 163.127 46.7578 163.244 46.7154 163.373C45.5556 164.575 44.4126 166.018 44.3104 167.262C44.1933 168.701 45.2783 169.243 46.4466 169.846C51.3531 172.375 57.0728 173.259 62.5218 173.636C68.4182 174.028 74.3345 174.014 80.2291 173.595C85.1009 173.262 91.3312 172.969 95.0975 169.419C96.0026 168.569 95.3215 167.343 94.3209 167.418Z" fill="#E05656"/>
<g id="Group">
<path id="Vector_18" d="M72.8705 153.47C72.6382 153.504 72.4015 153.493 72.1737 153.436C71.946 153.379 71.7316 153.278 71.543 153.138C71.3544 152.998 71.1952 152.822 71.0744 152.621C70.9537 152.42 70.8738 152.197 70.8393 151.964L70.3709 148.82C70.3365 148.588 70.3481 148.351 70.4052 148.123C70.4623 147.896 70.5637 147.681 70.7036 147.493C70.8435 147.304 71.0192 147.145 71.2206 147.025C71.422 146.904 71.6451 146.824 71.8774 146.79C72.3462 146.72 72.8235 146.84 73.2042 147.122C73.585 147.405 73.838 147.827 73.9076 148.295L74.3761 151.44C74.4106 151.672 74.399 151.909 74.3421 152.136C74.2851 152.364 74.1838 152.578 74.044 152.767C73.9041 152.955 73.7285 153.114 73.5272 153.235C73.3258 153.356 73.1027 153.435 72.8705 153.47Z" fill="#FFF9F2"/>
<path id="Vector_19" d="M73.2091 148.547L73.5061 150.548C73.159 150.421 72.7857 150.382 72.4201 150.437C72.0546 150.491 71.7084 150.636 71.4131 150.858L71.117 148.858C71.0818 148.584 71.1556 148.306 71.3227 148.085C71.4898 147.865 71.7367 147.718 72.0106 147.678C72.2844 147.637 72.5633 147.705 72.7874 147.868C73.0115 148.03 73.1629 148.274 73.2091 148.547Z" fill="#FFA2B7"/>
<path id="Vector_20" d="M76.5024 152.931C76.7346 152.897 76.9577 152.817 77.1591 152.696C77.3604 152.575 77.536 152.416 77.6759 152.228C77.8157 152.039 77.917 151.825 77.974 151.597C78.031 151.37 78.0425 151.133 78.008 150.901L77.5395 147.756C77.5052 147.524 77.4254 147.301 77.3047 147.1C77.1841 146.898 77.0249 146.723 76.8364 146.583C76.6478 146.443 76.4336 146.342 76.2059 146.285C75.9782 146.228 75.7415 146.216 75.5093 146.251C75.0404 146.321 74.6185 146.574 74.3361 146.954C74.0538 147.335 73.9342 147.812 74.0037 148.281L74.4721 151.425C74.5418 151.894 74.7948 152.316 75.1755 152.599C75.5563 152.881 76.0335 153 76.5024 152.931Z" fill="#FFF9F2"/>
<path id="Vector_21" d="M74.7464 148.32L75.0425 150.319C75.3379 150.097 75.6839 149.953 76.0492 149.899C76.4145 149.845 76.7876 149.882 77.1346 150.009L76.8385 148.009C76.7917 147.737 76.6402 147.494 76.4164 147.332C76.1926 147.17 75.9143 147.102 75.6409 147.142C75.3676 147.183 75.121 147.329 74.9538 147.549C74.7867 147.769 74.7122 148.045 74.7464 148.32Z" fill="#FAB292"/>
<path id="Vector_22" d="M75.5764 159.189C79.1029 158.665 81.6386 156.064 81.2401 153.379C80.8417 150.693 77.6598 148.94 74.1333 149.463C70.6068 149.987 68.0711 152.588 68.4696 155.274C68.8681 157.959 72.0499 159.712 75.5764 159.189Z" fill="#FFF9F2"/>
<path id="Vector_23" d="M73.3677 152.411C73.4146 152.721 73.1241 153.022 72.7203 153.081C72.3165 153.14 71.9521 152.939 71.9062 152.628C71.8602 152.317 72.1497 152.017 72.5535 151.957C72.9574 151.897 73.3218 152.1 73.3677 152.411Z" fill="#FAB292"/>
<path id="Vector_24" d="M76.531 152.398C76.9348 152.338 77.2248 152.038 77.1787 151.727C77.1326 151.416 76.7678 151.213 76.364 151.273C75.9602 151.333 75.6702 151.633 75.7163 151.944C75.7624 152.255 76.1271 152.458 76.531 152.398Z" fill="#FAB292"/>
<path id="Vector_25" d="M74.4964 152.249L74.4297 152.259L74.5921 153.353L74.6588 153.343L74.4964 152.249Z" fill="#944C2C"/>
<path id="Vector_26" d="M74.47 152.363C74.772 152.318 74.9878 152.087 74.9521 151.847C74.9164 151.606 74.6427 151.447 74.3407 151.492C74.0387 151.537 73.8229 151.768 73.8586 152.009C73.8943 152.249 74.168 152.408 74.47 152.363Z" fill="#944C2C"/>
<path id="Vector_27" d="M73.3309 151.739C73.3423 151.816 73.3308 151.894 73.2979 151.963C73.265 152.033 73.2121 152.092 73.146 152.131C73.0799 152.171 73.0035 152.19 72.9264 152.186C72.8494 152.183 72.7752 152.156 72.7133 152.11C72.6513 152.064 72.6044 152.001 72.5784 151.928C72.5525 151.856 72.5486 151.777 72.5674 151.702C72.5862 151.627 72.6267 151.56 72.6839 151.508C72.7411 151.456 72.8124 151.423 72.8887 151.412C72.9392 151.404 72.9908 151.406 73.0404 151.419C73.09 151.431 73.1367 151.453 73.1778 151.484C73.2189 151.514 73.2535 151.552 73.2798 151.596C73.3061 151.64 73.3234 151.689 73.3309 151.739Z" fill="#400705"/>
<path id="Vector_28" d="M76.1132 151.334C76.1239 151.406 76.1129 151.48 76.0817 151.546C76.0505 151.612 76.0004 151.667 75.9377 151.705C75.8751 151.742 75.8027 151.76 75.7297 151.757C75.6568 151.753 75.5866 151.728 75.5279 151.684C75.4693 151.641 75.4249 151.581 75.4004 151.512C75.3758 151.443 75.3722 151.369 75.3901 151.298C75.4079 151.227 75.4463 151.163 75.5005 151.114C75.5547 151.065 75.6221 151.033 75.6944 151.023C75.7423 151.015 75.7912 151.018 75.8382 151.03C75.8852 151.041 75.9295 151.062 75.9684 151.091C76.0073 151.12 76.0401 151.156 76.065 151.198C76.0898 151.24 76.1062 151.286 76.1132 151.334Z" fill="#944C2C"/>
</g>
<path id="Vector_29" d="M74.652 140.83C74.7656 140.698 74.8406 140.536 74.8689 140.364C74.8971 140.192 74.8775 140.016 74.8122 139.854C74.6248 139.378 73.999 139.056 73.509 139.292C73.2124 139.426 72.9616 139.643 72.7876 139.918C72.6646 140.036 72.5612 140.173 72.4812 140.323C72.373 140.433 72.2436 140.521 72.1008 140.58C72.0813 140.588 72.0657 140.603 72.0573 140.622C72.049 140.641 72.0486 140.663 72.0563 140.682C72.064 140.702 72.0791 140.718 72.0984 140.726C72.1176 140.734 72.1394 140.735 72.1589 140.727C72.2112 140.708 72.2656 140.695 72.321 140.689C72.254 140.879 72.2038 141.073 72.1711 141.271C72.0081 142.248 73.3647 142.575 73.805 141.772C74.035 141.712 74.2415 141.584 74.3971 141.404C74.5405 141.245 74.6297 141.044 74.652 140.83Z" fill="#E05656"/>
<path id="Vector_30" d="M103.9 153.837C102.709 153.331 101.478 152.927 100.219 152.628C99.8392 151.943 98.7402 151.683 98.0282 152.26C97.912 152.248 97.7977 152.232 97.6806 152.222C97.2927 152.188 97.0791 152.675 97.3274 152.916C96.2706 153.877 94.7041 155.224 95.2044 156.484C95.4733 157.165 96.2462 157.616 96.7849 158.056C97.6722 158.781 98.5398 159.555 99.4851 160.204C99.9404 160.517 100.754 160.565 101.078 160.008C102.026 158.396 103.257 156.943 104.306 155.394C104.674 154.856 104.541 154.105 103.9 153.837Z" fill="#E05656"/>
<path id="Vector_31" d="M94.5086 154.014C92.6714 155.027 90.0781 155.388 88.1378 154.374C87.3405 153.957 83.487 149.75 84.4014 149.009C85.1603 148.394 84.9523 146.919 83.844 146.847C82.9483 146.788 78.9637 146.674 79.0977 145.278C79.099 145.265 79.0968 145.252 79.0911 145.241C79.0854 145.229 79.0765 145.22 79.0655 145.213C79.0546 145.207 79.042 145.203 79.0293 145.204C79.0165 145.204 79.0042 145.208 78.9937 145.216C76.9541 146.715 79.8125 148.101 81.8887 148.792C81.587 151.157 84.1213 154.555 85.5266 155.766C88.5247 158.354 92.7332 157.997 95.1935 154.932C95.5411 154.503 95.0436 153.719 94.5086 154.014Z" fill="#FFF9F2"/>
<path id="Vector_32" d="M96.2946 160.659C95.9358 159.23 95.2078 157.924 95.1788 156.423C95.1746 156.391 95.1602 156.362 95.1377 156.339C95.1152 156.316 95.0859 156.301 95.0542 156.296C93.824 156.241 93.3575 157.497 93.4137 158.565C93.528 160.747 94.2569 163.754 95.2603 165.69C95.4692 166.091 96.1325 166.209 96.3124 165.698C96.8877 164.058 96.7125 162.321 96.2946 160.659Z" fill="#FFF9F2"/>
<path id="Vector_33" d="M49.3562 158.766C47.638 159.624 44.8592 158.685 43.4632 157.518C43.3414 157.417 43.2037 157.581 43.2758 157.705C44.2127 159.265 45.3042 160.369 47.074 160.985C48.3322 161.419 50.488 161.606 50.7569 159.87C50.8693 159.141 50.0552 158.419 49.3562 158.766Z" fill="#FFF9F2"/>
<path id="Vector_34" d="M45.4631 161.256V161.264C44.9843 160.742 44.4906 160.773 43.9135 160.421C43.7261 160.309 43.5181 160.56 43.7027 160.69C44.6396 161.355 44.2002 162.946 44.0409 163.85C43.8713 164.813 43.6989 165.76 43.9781 166.713C43.9858 166.736 43.9989 166.756 44.0164 166.772C44.0338 166.789 44.0551 166.801 44.0782 166.807C44.1014 166.813 44.1257 166.814 44.1491 166.809C44.1725 166.803 44.1942 166.792 44.2123 166.777H44.2198C45.0546 165.97 45.746 164.489 45.9372 163.255C46.1564 162.735 46.3634 162.215 46.5386 161.694C46.7719 161.002 45.7367 160.551 45.4631 161.256Z" fill="#FFF9F2"/>
<path id="Vector_35" d="M65.0989 133.334C64.2753 132.852 63.3975 132.528 62.5458 132.104C61.6942 131.68 60.9203 131.177 60.0359 130.818C59.9496 130.784 59.8557 130.777 59.7652 130.796C59.6747 130.815 59.5916 130.859 59.5257 130.924C59.4598 130.989 59.414 131.071 59.3937 131.161C59.3733 131.251 59.3793 131.345 59.411 131.432C60.2092 133.417 62.573 134.842 64.6819 134.839C65.3799 134.837 65.7144 133.695 65.0989 133.334Z" fill="#FFF9F2"/>
<path id="Vector_36" d="M76.3952 134.28C74.4746 134.71 72.8219 135.8 70.8329 136.069C70.7798 136.077 70.7315 136.104 70.6966 136.145C70.6617 136.186 70.6426 136.238 70.6426 136.292C70.6426 136.346 70.6617 136.398 70.6966 136.438C70.7315 136.479 70.7798 136.506 70.8329 136.515C72.864 136.876 75.4236 136.826 76.8777 135.129C77.1578 134.8 76.844 134.18 76.3952 134.28Z" fill="#FFF9F2"/>
<path id="Vector_37" d="M43.4917 159.58C43.2481 158.924 42.7956 158.362 42.4508 157.754C42.3037 157.494 42.1473 157.237 41.9927 156.979C41.8718 156.505 41.7538 155.963 41.4989 155.59C41.0371 154.914 40.1779 155.228 39.4462 155.59C38.782 155.496 38.2704 156.205 38.3219 156.808C38.4156 157.898 38.4896 158.982 38.543 160.074C38.5674 160.567 39.1445 161.038 39.6355 160.927C40.4129 160.743 41.1998 160.603 41.9927 160.506C42.0058 160.506 42.0161 160.499 42.0292 160.497C42.0639 160.535 42.0901 160.576 42.1229 160.613C42.7844 161.258 43.7709 160.334 43.4917 159.58Z" fill="#E05656"/>
<path id="Vector_38" d="M65.4396 136.484C65.7694 136.234 65.4752 135.682 65.0826 135.844C64.9384 135.903 64.8063 135.973 64.6685 136.039C61.7867 134.989 57.8564 135.722 54.8696 135.743C51.8069 135.764 48.8735 135.649 46.3261 137.594C44.0063 139.361 42.6619 141.997 41.8589 144.738C41.265 146.766 39.7978 150.694 41.131 152.701C42.512 154.785 45.6712 153.076 47.4353 152.734C49.2416 152.383 51.0739 152.182 52.9133 152.134C54.6541 152.087 56.5307 152.577 58.2405 152.384C60.564 152.122 60.3335 149.561 60.6418 147.769C61.1692 144.709 61.9871 140.51 64.0952 137.83C64.4453 137.725 64.7872 137.594 65.1182 137.439C65.2044 137.4 65.2815 137.344 65.3447 137.274C65.4079 137.203 65.4558 137.121 65.4853 137.031C65.5148 136.942 65.5253 136.847 65.5162 136.753C65.507 136.659 65.4784 136.568 65.4321 136.486L65.4396 136.484Z" fill="#FFC35C"/>
<path id="Vector_39" d="M72.3875 143.724C72.32 140.989 71.1742 136.276 67.452 136.774C67.4045 136.781 67.3597 136.8 67.3218 136.829C67.2839 136.859 67.2541 136.897 67.2353 136.941C67.2166 136.986 67.2094 137.034 67.2145 137.081C67.2196 137.129 67.2369 137.175 67.2646 137.214C68.3654 138.733 69.4925 139.65 69.6874 141.665C69.8879 143.726 69.5815 146.011 69.5572 148.087C69.5103 152.127 70.3751 156.221 69.752 160.231C69.6227 161.059 70.8042 161.167 71.0075 160.4C72.4306 155.052 72.5234 149.225 72.3875 143.724Z" fill="#FFC35C"/>
<path id="Vector_40" d="M0.775615 60.9657C0.400857 62.8011 15.0548 65.5255 18.7049 64.7713C19.0357 64.7039 19.5322 65.9293 19.802 65.9387C19.9716 65.9453 21.3948 66.8662 21.539 66.8812C22.8507 63.1337 25.0655 59.1987 26.9365 55.6928C26.1486 55.3106 23.604 54.369 23.6189 54.3625C24.4003 54.0299 12.1495 41.1963 10.8931 42.3843C8.35039 44.7902 2.19782 53.9568 0.775615 60.9657Z" fill="#725440"/>
<path id="Vector_41" d="M23.93 54.4897C22.6615 56.2811 21.6618 58.3394 20.7568 60.2985C20.0566 61.8599 19.5227 63.4906 19.1641 65.1638C19.402 65.501 19.6409 65.932 19.8011 65.9376C19.9614 65.9433 21.3939 66.8652 21.5382 66.8802C22.8498 63.1326 25.0646 59.1976 26.9356 55.6918C26.3191 55.3929 24.629 54.7521 23.93 54.4897Z" fill="#E05656"/>
<path id="Vector_42" d="M21.7531 58.2965C22.3649 56.9773 22.9982 55.6657 23.7206 54.4046C23.654 54.3784 23.6166 54.3634 23.6184 54.3625C24.3998 54.0299 12.149 41.1963 10.8926 42.3843C9.79646 43.4214 8.0276 45.7177 6.25781 48.5537C6.65471 48.6122 7.04745 48.6961 7.43361 48.8048C10.5694 49.6883 13.278 51.8029 15.5949 54.0242C17.5221 55.8709 19.2628 57.9152 20.8677 60.0485C21.161 59.4554 21.4861 58.8727 21.7531 58.2965Z" fill="#725440"/>
<g id="Group_2" style="mix-blend-mode:multiply">
<g id="Vector_43" style="mix-blend-mode:multiply" opacity="0.5">
<path d="M23.9128 54.4778C22.93 56.3844 22.023 58.334 21.2988 60.3493C21.3593 60.3628 21.418 60.3829 21.474 60.4093C22.2704 60.8037 22.9871 61.3461 23.6907 61.883C24.7363 59.7581 25.8887 57.6567 26.937 55.6929C26.315 55.3913 24.5986 54.7411 23.9128 54.4778Z" fill="#E05656"/>
</g>
</g>
<path id="Vector_44" d="M21.7651 65.7446L20.8919 65.2846L20.5041 65.0766L20.2127 64.9239C20.2661 65.0073 20.3204 65.0906 20.3738 65.175C20.4582 65.1572 20.6783 63.7097 20.7224 63.5382C21.0043 62.3982 21.3804 61.2835 21.8466 60.2057C22.3099 59.1545 22.854 58.1409 23.474 57.1739C23.632 56.9241 23.7957 56.6783 23.965 56.4366C24.0877 56.2604 24.2404 55.9325 24.4175 55.8117C24.5233 55.7395 24.3856 55.7751 24.5917 55.821C24.7347 55.8618 24.8752 55.9109 25.0124 55.9681L26.0627 56.3372C27.0932 56.6989 27.5326 55.0668 26.5114 54.708C25.8088 54.4616 24.9674 54.0006 24.2076 54.0718C23.4075 54.1468 22.9803 54.9076 22.5624 55.5034C21.6954 56.7403 20.9553 58.0615 20.3532 59.4468C19.7415 60.8368 19.2664 62.283 18.9348 63.7649C18.798 64.3842 18.4738 65.2818 18.8092 65.8786C19.0116 66.2383 19.4004 66.4098 19.7461 66.5925L20.9107 67.2052C21.8719 67.7111 22.7264 66.2533 21.7633 65.7465L21.7651 65.7446Z" fill="#2D1111"/>
<path id="Vector_45" d="M18.942 63.6911C15.211 63.6795 11.4926 63.2576 7.85392 62.4328C6.09386 62.0421 4.35824 61.5485 2.65603 60.9544C1.86717 60.6733 1.54769 60.3735 1.80065 59.5097C2.05361 58.6459 2.38995 57.8233 2.71974 56.9951C4.0862 53.595 5.83474 50.3614 7.93168 47.3563C8.42729 46.6433 8.94071 45.9407 9.47568 45.2567C9.96193 44.6375 10.4744 43.8111 11.0871 43.3136C11.415 43.0485 11.5846 43.353 11.876 43.59C12.1883 43.8448 12.5006 44.1025 12.8129 44.3629C13.5043 44.9451 14.1839 45.54 14.8516 46.1477C17.8121 48.8413 20.5535 51.7897 22.9482 54.9995C23.5909 55.8614 25.0581 55.0201 24.4069 54.1469C21.9698 50.8883 19.2314 47.8663 16.2279 45.1209C15.4996 44.4557 14.7585 43.8049 14.0046 43.1684C13.361 42.6269 12.6236 41.794 11.802 41.5438C10.9803 41.2937 10.2898 41.6825 9.74831 42.2802C9.01379 43.0925 8.34297 43.9713 7.67871 44.8436C5.21695 48.0934 3.1653 51.6344 1.57018 55.3864C1.16919 56.3233 0.792554 57.2799 0.445904 58.244C0.136729 59.1106 -0.195868 60.0334 0.141413 60.9431C0.437472 61.7414 1.172 62.1855 1.92151 62.4806C2.86496 62.8553 3.85526 63.1299 4.82588 63.4053C9.41764 64.698 14.1634 65.3627 18.9336 65.3812C20.0213 65.3812 20.0223 63.6948 18.9336 63.6948L18.942 63.6911Z" fill="#2D1111"/>
<path id="Vector_46" d="M19.8116 60.7913C16.9166 60.6883 14.0366 59.9022 11.3505 58.8482C8.60259 57.7689 5.86031 56.3055 3.77853 54.1769C3.27074 53.6578 2.47438 54.4579 2.98217 54.9732C5.15577 57.1965 7.99361 58.7124 10.8521 59.8563C13.689 60.9909 16.7433 61.8088 19.8088 61.9175C20.5339 61.9428 20.533 60.8166 19.8088 60.7932L19.8116 60.7913Z" fill="#2D1111"/>
<path id="Vector_47" d="M21.3703 58.3957C17.5036 54.1943 12.9368 50.6962 7.87343 48.0571C7.23166 47.7226 6.66109 48.6942 7.30568 49.0296C12.2839 51.6227 16.7734 55.0614 20.574 59.1921C21.0658 59.727 21.8612 58.9288 21.3703 58.3957Z" fill="#2D1111"/>
<path id="Vector_48" d="M145.969 74.1973C146.006 76.0711 131.104 76.1226 127.648 74.7267C127.335 74.6002 126.627 75.717 126.36 75.6785C126.192 75.6542 124.626 76.3044 124.481 76.2941C123.866 72.376 122.39 68.1028 121.179 64.3197C122.022 64.0836 124.695 63.6142 124.681 63.6048C123.972 63.1364 138.325 52.7097 139.348 54.1038C141.418 56.9257 145.832 67.0441 145.969 74.1973Z" fill="#725440"/>
<path id="Vector_49" d="M124.353 63.6714C125.279 65.667 125.893 67.8705 126.428 69.9608C126.839 71.6222 127.072 73.3225 127.125 75.0331C126.831 75.3226 126.518 75.7039 126.36 75.6805C126.201 75.6571 124.626 76.3063 124.481 76.296C123.865 72.3779 122.39 68.1048 121.179 64.3216C121.839 64.1398 123.617 63.8082 124.353 63.6714Z" fill="#FF7BB1"/>
<path id="Vector_50" d="M125.811 67.8105C125.446 66.4052 125.061 64.9998 124.573 63.6282C124.61 63.6226 124.646 63.6148 124.681 63.6048C123.972 63.1364 138.326 52.7097 139.348 54.1038C140.241 55.3217 141.568 57.8963 142.801 61.004C142.401 60.9906 142 61.0025 141.6 61.0396C138.356 61.3469 135.313 62.9424 132.635 64.7113C130.408 66.1822 128.326 67.8808 126.367 69.6927C126.186 69.0547 125.97 68.4242 125.811 67.8105Z" fill="#725440"/>
<g id="Group_3" style="mix-blend-mode:multiply">
<g id="Vector_51" style="mix-blend-mode:multiply">
<path d="M124.371 63.6714C124.996 65.7222 125.539 67.8031 125.89 69.9167C125.827 69.9175 125.764 69.9266 125.703 69.9439C124.848 70.1884 124.047 70.5894 123.258 70.9951C122.611 68.7175 121.852 66.4437 121.175 64.3244C121.847 64.1333 123.648 63.8026 124.371 63.6714Z" fill="#FF5FAF"/>
</g>
</g>
<path id="Vector_52" d="M124.977 76.744C125.663 76.5294 126.617 76.4048 127.179 75.943C127.767 75.4605 127.632 74.5704 127.611 73.8883C127.518 70.7221 126.777 67.6085 125.433 64.7396C125.119 64.0585 124.818 63.3455 124.008 63.1806C123.269 63.0307 122.359 63.3371 121.625 63.4542C121.171 63.5263 120.928 64.0875 121.035 64.4932C121.161 64.9747 121.626 65.1546 122.074 65.0834L122.954 64.9438C123.133 64.9148 123.328 64.8989 123.503 64.8558C123.63 64.8258 123.772 64.8932 123.647 64.7986C123.467 64.6628 123.676 64.9738 123.698 65.0178C123.763 65.1443 123.824 65.2727 123.886 65.4001C124.022 65.6812 124.152 65.9735 124.274 66.2658C124.734 67.3783 125.102 68.5267 125.374 69.6995C125.639 70.8323 125.811 71.9852 125.887 73.1463C125.908 73.4636 125.921 73.7819 125.928 74.101C125.928 74.2106 125.861 74.8993 125.928 74.9498L126.202 74.5901L125.993 74.6557C125.826 74.6622 125.626 74.77 125.469 74.8196L124.532 75.1147C123.502 75.4398 123.939 77.071 124.981 76.744H124.977Z" fill="#2D1111"/>
<path id="Vector_53" d="M127.232 75.2673C131.469 76.0293 135.783 76.2713 140.079 75.9878C141.064 75.9203 142.048 75.8241 143.03 75.6992C143.902 75.5886 144.878 75.5502 145.675 75.1371C147.572 74.1421 146.827 71.7155 146.506 70.0535C145.709 65.9752 144.408 62.0118 142.634 58.2542C142.182 57.2942 141.699 56.3489 141.185 55.4183C140.788 54.6997 140.401 53.7225 139.647 53.3065C138.893 52.8905 138.148 53.2081 137.47 53.5792C136.541 54.0851 135.624 54.6116 134.72 55.1588C130.877 57.465 127.281 60.1606 123.99 63.2029C123.193 63.9449 124.39 65.1376 125.185 64.3975C127.756 62.0121 130.526 59.8494 133.463 57.9329C134.908 56.9866 136.387 56.095 137.9 55.2581C138.093 55.1513 138.635 54.7343 138.836 54.7774C139.038 54.8205 139.264 55.4333 139.338 55.5654C139.799 56.3711 140.238 57.1893 140.655 58.02C142.275 61.2667 143.525 64.6854 144.38 68.2115C144.586 69.0554 144.769 69.9048 144.93 70.7599C145.014 71.2096 145.096 71.6602 145.164 72.1128C145.22 72.4875 145.385 73.1284 145.116 73.4675C144.735 73.9472 143.568 73.936 143.032 74.0025C142.095 74.1212 141.156 74.2148 140.215 74.2836C136.027 74.5825 131.818 74.3641 127.684 73.6334C126.62 73.446 126.164 75.0734 127.234 75.2626L127.232 75.2673Z" fill="#2D1111"/>
<path id="Vector_54" d="M127.024 71.71C130.048 72.1512 133.157 71.9086 136.147 71.323C139.182 70.729 142.292 69.7303 144.839 67.9305C145.425 67.5155 144.863 66.5383 144.27 66.958C141.849 68.6726 138.93 69.6104 136.052 70.1959C133.217 70.7721 130.2 71.0438 127.322 70.6232C126.613 70.5201 126.308 71.605 127.024 71.71Z" fill="#2D1111"/>
<path id="Vector_55" d="M126.774 68.9265C131.252 65.5421 136.283 62.961 141.644 61.2983C142.334 61.0847 142.04 59.9969 141.345 60.2124C135.888 61.8974 130.766 64.5168 126.205 67.954C125.634 68.3849 126.195 69.3593 126.774 68.9265Z" fill="#2D1111"/>
<path id="Vector_56" d="M79.6653 100.347C79.1191 99.8129 77.7653 100.111 77.0842 100.1C75.4821 100.073 73.8791 100.043 72.2779 99.9834C69.4326 99.8766 66.4101 100.101 63.6135 99.573C63.1357 99.4794 62.8022 99.7942 62.6701 100.191C62.6103 100.239 62.5536 100.29 62.5005 100.345C62.306 101.087 62.1939 101.849 62.166 102.616C62.2775 103.018 62.2175 103.647 62.1801 104.23C62.2054 104.706 62.2475 105.183 62.2991 105.66C62.4553 106.322 62.6909 106.962 63.0008 107.567C63.8086 109.115 65.1039 110.355 66.6865 111.094C70.1774 112.687 76.255 112.437 78.7631 109.178C80.0447 107.512 80.9779 101.632 79.6653 100.347Z" fill="#E05656"/>
<path id="Vector_57" d="M72.8931 106.056C69.451 105.582 66.0304 105.994 62.7119 106.909C62.8056 107.131 62.8909 107.355 63.0005 107.565C63.8083 109.114 65.1036 110.353 66.6862 111.092C70.1771 112.685 76.2547 112.435 78.7628 109.176C79.0233 108.808 79.232 108.405 79.383 107.979C77.3124 107.063 75.1501 106.367 72.8931 106.056Z" fill="#EC9A9A"/>
<path id="Vector_58" d="M76.7429 100.322C74.9225 99.8711 74.3735 100.41 72.4997 100.264C70.417 100.103 69.2103 100.04 67.1463 99.725C66.0277 99.5545 65.5808 100.642 66.5252 101.13C68.9817 102.411 74.1486 102.58 76.6024 101.753C77.2142 101.553 77.4156 100.491 76.7429 100.322Z" fill="#FFF9F2"/>
<path id="Vector_59" d="M63.0221 100.289C68.3623 100.721 73.7214 100.863 79.0682 101.167C79.3493 101.183 79.6706 101.251 79.948 101.223C80.1241 101.205 79.9939 101.272 79.9808 101.223C79.9536 101.123 79.6388 100.891 79.6332 100.896C79.6023 100.931 79.6397 101.247 79.6332 101.308C79.6096 102.807 79.4376 104.299 79.1197 105.763C78.7309 107.475 77.9018 109.109 76.4356 110.139C74.722 111.344 72.4753 111.697 70.4263 111.45C68.0148 111.163 65.4608 109.951 64.2372 107.767C62.8647 105.326 63.1673 102.392 63.4483 99.7212C63.5242 99.0017 62.3972 99.0064 62.3241 99.7212C62.0505 102.319 61.8266 105.027 62.8609 107.497C63.7697 109.666 65.6238 111.14 67.7908 111.957C71.7258 113.442 76.9377 112.604 79.1816 108.744C80.0951 107.172 80.3686 105.405 80.5673 103.628C80.6609 102.82 80.7621 102.002 80.764 101.192C80.764 100.764 80.7378 100.285 80.259 100.136C79.6032 99.932 78.7431 100.024 78.0714 99.9892C76.6254 99.9142 75.1798 99.8427 73.7345 99.7746C70.1621 99.5994 66.5841 99.4533 63.0192 99.1638C62.2969 99.1057 62.3006 100.233 63.0192 100.288L63.0221 100.289Z" fill="#2D1111"/>
<path id="Vector_60" d="M110.022 110.572C108.804 116.475 104.671 121.149 99.7516 124.406C94.8067 127.68 88.9998 129.829 83.1236 130.619C76.0407 131.573 68.6842 131.318 61.6603 130.048C54.6196 128.775 47.7006 126.417 41.6483 122.546C38.4404 120.494 35.5463 117.95 33.4036 114.783C31.2359 111.597 29.9087 107.914 29.5455 104.078C29.4462 103.004 27.7551 102.994 27.8591 104.078C28.5271 111.271 32.299 117.605 37.97 122.014C43.8622 126.593 51.0865 129.449 58.3166 131.087C65.7235 132.752 73.3454 133.245 80.905 132.55C87.2366 131.971 93.4107 130.141 98.914 126.919C104.254 123.791 109.049 119.214 111.064 113.226C111.305 112.504 111.503 111.768 111.656 111.022C111.875 109.96 110.25 109.507 110.026 110.572H110.022Z" fill="#2D1111"/>
<path id="Vector_61" d="M22.9209 88.2076C21.2026 81.9951 20.9984 75.4809 22.5265 69.2056C24.0546 62.9302 27.1557 57.1384 31.0522 52.0126C38.5333 42.1753 49.7957 35.3097 61.9331 33.0415C67.9873 31.9107 74.3517 32.0259 80.4368 32.8728C86.5669 33.7273 92.6164 35.4718 98.1141 38.3377C106.463 42.6877 112.881 49.5655 117.482 57.6996C123.071 67.5791 125.397 79.1638 122.311 90.25C121.858 91.8645 121.311 93.4509 120.672 95.001C120.26 96.0063 121.89 96.4448 122.301 95.4498C124.775 89.4068 125.843 82.8477 125.258 76.3372C124.752 70.7083 123.11 65.2528 120.674 60.1655C116.635 51.7334 110.518 44.079 102.614 38.9917C97.2559 35.5449 91.1839 33.2467 84.9648 31.95C78.7457 30.6533 72.1856 30.1821 65.8522 30.7939C53.1657 32.0221 41.0058 38.2356 32.4678 47.6795C28.0401 52.5766 24.4106 58.3479 22.162 64.5661C19.9393 70.6952 19.277 77.2812 20.2348 83.7302C20.4871 85.3925 20.84 87.0379 21.2917 88.6573C21.5812 89.7038 23.2123 89.2598 22.9209 88.2076Z" fill="#2D1111"/>
<path id="Vector_62" d="M27.2754 87.7645C27.3398 91.1085 27.5718 94.4471 27.9706 97.7677C28.0249 98.2203 28.32 98.6109 28.8138 98.6109C29.2279 98.6109 29.7132 98.2221 29.657 97.7677C29.2588 94.4471 29.0284 91.1084 28.9665 87.7645C28.9459 86.6787 27.2557 86.6749 27.2801 87.7645H27.2754Z" fill="#2D1111"/>
<path id="Vector_63" d="M114.888 97.1092C117.24 95.6354 120.147 95.9034 122.08 97.9411C123.807 99.7643 124.283 102.351 124.047 104.78C123.625 109.175 120.474 112.771 116.576 114.588C114.291 115.637 111.771 116.068 109.268 115.838C108.185 115.744 108.191 117.43 109.268 117.524C114.366 117.972 119.698 115.806 122.89 111.77C126.169 107.627 127.163 100.983 123.341 96.8225C120.92 94.187 117.035 93.7654 114.031 95.6486C113.112 96.2248 113.959 97.6872 114.884 97.1073L114.888 97.1092Z" fill="#2D1111"/>
<path id="Vector_64" d="M27.3235 87.5491C24.7002 87.3318 21.8783 87.6756 19.6944 89.2655C17.9021 90.5706 16.7366 92.5128 16.2279 94.6564C15.1336 99.2668 16.567 104.577 19.9258 107.926C22.6671 110.659 26.5196 112.183 30.3834 112.117C31.4702 112.099 31.473 110.409 30.3834 110.431C24.748 110.525 19.5941 106.885 18.0829 101.427C17.1254 97.9721 17.3109 93.5874 20.1647 91.0437C22.1059 89.3124 24.836 89.036 27.3235 89.2412C28.4075 89.3348 28.4009 87.6409 27.3235 87.5547V87.5491Z" fill="#2D1111"/>
<path id="Vector_65" d="M122.119 96.1075C122.113 95.8832 122.107 95.6596 122.101 95.4367C122.098 95.2878 122.039 95.1454 121.936 95.0385C121.887 94.9843 121.825 94.9439 121.755 94.9214C121.688 94.8865 121.613 94.8697 121.538 94.8727C121.389 94.8727 121.246 94.9319 121.14 95.0373C121.035 95.1427 120.976 95.2857 120.976 95.4348C120.981 95.6578 120.987 95.8814 120.993 96.1056C120.996 96.2545 121.055 96.3968 121.158 96.5038C121.207 96.5577 121.27 96.5978 121.339 96.62C121.406 96.6553 121.481 96.6721 121.556 96.6687C121.706 96.6687 121.849 96.6095 121.954 96.504C122.059 96.3986 122.119 96.2556 122.119 96.1065V96.1075Z" fill="#2D1111"/>
<path id="Vector_66" d="M113.011 92.9529C112.895 96.4925 111.621 99.9197 111.044 103.395C110.97 103.844 111.162 104.303 111.634 104.434C112.038 104.544 112.599 104.296 112.673 103.843C113.272 100.216 114.575 96.6508 114.697 92.9529C114.732 91.8661 113.043 91.8671 113.01 92.9529H113.011Z" fill="#2D1111"/>
<path id="Vector_67" d="M27.315 87.1648C30.2096 86.0521 33.1608 85.093 36.1565 84.2914C36.8829 84.0984 37.6109 83.9132 38.3404 83.7358C39.1414 83.5428 40.0174 83.4406 40.7969 83.1793C41.2316 83.0331 41.5071 82.7221 41.7732 82.366C42.5227 81.3561 43.0783 80.1812 43.6469 79.0616C44.4105 77.5495 45.146 76.0214 45.9049 74.5092C46.4745 73.385 47.0198 72.153 47.8011 71.1524C47.6831 71.3041 47.8358 71.1243 47.8667 71.084C47.9951 70.9191 47.9604 71.054 47.8836 71.0474C47.9567 71.053 47.5753 71.1083 47.4657 71.0755C47.2783 71.0193 47.2184 70.8882 47.1678 70.8591C47.2549 70.9106 47.1453 70.7345 47.1931 70.9219C47.2146 71.0081 47.2353 71.0933 47.2531 71.1795C47.2708 71.2336 47.2788 71.2904 47.2765 71.3472C47.2924 71.4999 47.3018 71.6536 47.3093 71.8073C47.4461 74.6179 46.8146 77.4895 47.2259 80.2833C47.2905 80.7227 47.3992 81.194 47.7252 81.52C48.4007 82.1936 49.6759 81.7168 50.4853 81.6287C53.6995 81.2795 56.9249 81.0753 60.1616 81.016C66.5783 80.8886 73.0026 81.297 79.3679 82.1346C80.9656 82.3445 82.5583 82.5837 84.146 82.8523C84.9124 82.9809 85.6778 83.1162 86.4423 83.258C87.0982 83.3798 87.9114 83.6927 88.5794 83.6533C89.8376 83.5774 89.9941 81.4985 90.1805 80.5841C90.337 79.8196 90.4794 79.0522 90.6396 78.2887C90.7689 77.6713 90.9881 77.0707 91.1156 76.4552C91.0921 76.5704 91.0603 76.4908 91.1081 76.488L91.1212 76.4655C91.1559 76.4074 91.1334 76.4327 91.0528 76.5432C90.7492 76.6369 90.3595 76.4355 90.0672 76.5292C90.1506 76.502 89.9735 76.4926 90.0175 76.4636C90.0344 76.4524 90.1515 76.7896 90.2049 76.9648C90.411 77.6816 90.5413 78.4217 90.6734 79.1534C90.9376 80.5794 91.0828 82.1084 91.5878 83.4753C91.8567 84.2052 92.2183 84.4516 92.9697 84.6464C94.3844 85.0128 95.7972 85.3885 97.2035 85.7838C102.263 87.207 107.211 88.9524 111.892 91.3621C113.124 91.9964 114.336 92.6737 115.532 93.3689C116.469 93.9189 117.324 92.4592 116.384 91.9102C111.71 89.1806 106.75 86.9746 101.592 85.3322C98.9752 84.4947 96.3228 83.7723 93.6639 83.0837C93.5093 83.0434 93.3341 82.9816 93.173 82.9563C92.6633 82.8776 93.054 82.9984 93.2161 83.0584C93.6096 83.2036 93.1589 83.1605 93.2526 83.0977C93.2423 83.1043 93.1936 82.9375 93.2283 83.0593C93.2489 83.1315 93.1543 82.8457 93.1346 82.7923C93.0896 82.6509 93.0521 82.5113 93.0146 82.3632C92.8273 81.6278 92.6952 80.8782 92.5584 80.1325C92.3036 78.7346 92.2014 77.0969 91.5681 75.8031C91.2955 75.2475 90.7249 74.825 90.1009 75.1613C89.6325 75.4124 89.4629 76.0102 89.3261 76.4852C88.9101 77.928 88.7143 79.4326 88.3892 80.897C88.3218 81.2005 88.2515 81.5041 88.1634 81.803C88.1278 81.9248 88.0782 82.0447 88.0454 82.1674C88.0219 82.2611 88.0566 82.247 88.0529 82.1515C88.0529 82.2386 87.8655 82.3042 88.0828 82.1515C87.9095 82.2789 88.5447 82.4775 88.5091 81.9444C88.5091 81.9332 87.9292 81.8311 87.9695 81.8386C87.6103 81.7692 87.2506 81.7011 86.8902 81.6343C86.082 81.4844 85.2715 81.3417 84.4589 81.2062C78.0751 80.125 71.6223 79.501 65.1496 79.3389C61.9173 79.2659 58.685 79.3283 55.4527 79.5263C53.7932 79.6294 52.138 79.7702 50.4872 79.9488C50.2998 79.9695 48.531 80.1156 48.5263 80.1784C48.5338 80.0678 48.9947 80.407 48.9498 80.3733C48.9498 80.3733 48.9854 80.4491 48.9619 80.3639C48.8336 79.9067 48.8327 79.5975 48.8205 79.0213C48.8055 78.2896 48.8317 77.557 48.8617 76.8262C48.9226 75.3272 49.036 73.8328 49.0153 72.3366C49.0041 71.47 49.0575 70.0309 48.1506 69.5503C47.0844 68.9881 46.3096 70.2998 45.858 71.0493C44.2194 73.7588 43.0089 76.7166 41.5239 79.5104C41.2279 80.0669 40.9271 80.6262 40.5796 81.1537C40.5215 81.2418 40.4634 81.3289 40.4025 81.4132C40.3219 81.5238 40.4521 81.3439 40.3332 81.5013C40.2957 81.5509 40.1936 81.6128 40.1729 81.6662C40.1786 81.6512 40.3378 81.5462 40.3519 81.5631C40.3013 81.5032 39.3063 81.7917 39.1864 81.8189C38.7985 81.9063 38.4113 81.9963 38.0247 82.0887C37.2508 82.2761 36.4797 82.4716 35.7115 82.6752C34.2124 83.075 32.7275 83.5122 31.2565 83.9869C29.7856 84.4616 28.3219 84.9778 26.8653 85.5355C25.86 85.9215 26.2966 87.5555 27.3141 87.1648H27.315Z" fill="#2D1111"/>
<path id="Vector_68" d="M48.1357 70.6643C50.9089 59.4159 55.2393 48.2304 62.3475 38.9786C64.3865 36.3152 66.6819 33.8585 69.2008 31.6436C69.747 31.1649 68.9479 30.3704 68.4045 30.8473C59.4103 38.7322 53.6325 49.6975 49.8147 60.885C48.7503 64.002 47.8378 67.1678 47.0489 70.3645C46.8756 71.0681 47.9615 71.3688 48.1357 70.6643Z" fill="#2D1111"/>
<path id="Vector_69" d="M79.1251 32.1336C85.7423 42.1584 88.775 54.1094 89.593 65.9882C89.8253 69.3442 89.8815 72.7095 89.7944 76.072C89.7757 76.7972 90.9018 76.7972 90.9187 76.072C91.2306 64.0236 89.7007 51.7128 84.9272 40.5638C83.5883 37.4276 81.9713 34.4175 80.0957 31.5696C79.6975 30.9672 78.7222 31.5312 79.1232 32.1383L79.1251 32.1336Z" fill="#2D1111"/>
<path id="Vector_70" d="M80.8044 33.006C85.7297 33.3574 89.9176 36.5231 93.3972 39.7816C96.6187 42.8186 99.451 46.2435 101.829 49.9779C106.667 57.5227 109.806 66.1477 111.091 75.0107C111.811 79.9245 111.899 84.9102 111.354 89.8464C111.273 90.5659 112.4 90.5603 112.478 89.8464C113.499 80.7473 112.262 71.4177 109.261 62.7861C106.269 54.1826 101.489 46.0926 94.9506 39.7076C91.0831 35.9301 86.3995 32.2781 80.8035 31.8799C80.0793 31.8284 80.083 32.9545 80.8035 33.0042L80.8044 33.006Z" fill="#2D1111"/>
<path id="Vector_71" d="M66.7302 30.868C57.7211 32.4607 49.2825 36.9081 42.7879 43.3427C35.8989 50.168 31.4562 59.2006 30.1024 68.7934C29.3198 74.2707 29.5462 79.8449 30.7704 85.2406C30.9325 85.947 32.0183 85.6481 31.8572 84.9408C29.7023 75.5428 30.7713 65.4618 34.7962 56.7C38.6019 48.416 45.0412 41.5411 52.9541 37.0393C57.3213 34.5529 62.0821 32.8329 67.03 31.9539C67.7421 31.8283 67.4404 30.7424 66.7302 30.868Z" fill="#2D1111"/>
<path id="Vector_72" d="M59.8199 93.4527C59.9876 90.4536 57.8946 87.8979 55.1451 87.7441C52.3956 87.5904 50.0308 89.897 49.8632 92.896C49.6955 95.895 51.7885 98.4508 54.5379 98.6045C57.2874 98.7582 59.6522 96.4517 59.8199 93.4527Z" fill="#400705"/>
<path id="Vector_73" d="M93.3092 95.3247C93.4768 92.3257 91.3839 89.7699 88.6344 89.6162C85.8849 89.4625 83.5201 91.769 83.3524 94.7681C83.1848 97.7671 85.2777 100.323 88.0272 100.477C90.7767 100.63 93.1415 98.3237 93.3092 95.3247Z" fill="#400705"/>
<path id="Vector_74" d="M52.7049 91.9657C52.6942 92.1563 52.6272 92.3394 52.5125 92.4919C52.3978 92.6444 52.2404 92.7595 52.0603 92.8226C51.8801 92.8856 51.6853 92.8939 51.5005 92.8462C51.3157 92.7986 51.1492 92.6973 51.022 92.555C50.8948 92.4127 50.8126 92.2359 50.7859 92.0469C50.7591 91.858 50.789 91.6653 50.8718 91.4933C50.9546 91.3214 51.0864 91.1778 51.2508 91.0808C51.4151 90.9838 51.6046 90.9376 51.7951 90.9483C51.9217 90.9553 52.0456 90.9873 52.1598 91.0422C52.274 91.0972 52.3763 91.1741 52.4607 91.2686C52.5452 91.3631 52.6103 91.4732 52.6521 91.5929C52.694 91.7125 52.7119 91.8392 52.7049 91.9657Z" fill="#FFF9F2"/>
<path id="Vector_75" d="M92.4747 94.4649C92.6591 93.9649 92.4032 93.41 91.9032 93.2256C91.4031 93.0413 90.8483 93.2972 90.6639 93.7972C90.4795 94.2973 90.7354 94.8521 91.2355 95.0365C91.7355 95.2209 92.2904 94.965 92.4747 94.4649Z" fill="#FFF9F2"/>
<path id="Vector_76" d="M85.7718 26.0794L82.2725 32.0512C94.0773 38.7031 103.165 48.9415 112.231 58.9072C113.934 60.781 115.568 63.4615 116.771 65.6875C119.977 71.6227 122.816 77.8371 124.764 84.2942C127.872 82.3267 130.898 80.6741 133.586 78.5023C139.489 81.0563 147.04 78.9258 151.352 74.1505C154.076 71.1346 155.756 67.2915 156.284 63.2628C157.162 56.6165 156.411 49.5121 152.766 43.8841C152.248 43.085 151.662 42.2914 151.487 41.3545C151.091 39.2268 152.93 38.765 154.204 37.0139C158.333 31.3354 156.957 21.1045 153.288 15.1187C149.619 9.13291 145.613 5.96434 139.319 2.85291C137.496 1.95162 134.402 1.45694 132.415 1.02129C128.536 0.17059 123.994 0.74678 120.423 2.48378C116.851 4.22078 113.951 6.46838 111.319 9.44208C111.398 9.59278 111.521 9.71579 111.672 9.79465C111.822 9.87351 111.993 9.90446 112.162 9.88336C112.27 10.2319 111.772 10.4202 111.443 10.2637C111.113 10.1073 110.952 9.74095 110.787 9.41491C109.793 7.43245 107.844 6.0421 105.736 5.35161C103.628 4.66112 101.364 4.60209 99.1506 4.75668C96.839 4.91849 94.5486 5.30379 92.3113 5.90719C90.1424 6.49181 87.9603 7.32377 86.3489 8.88838C84.9707 10.2263 84.1106 12.0007 83.3761 13.7752C82.7971 15.174 82.2706 16.6515 82.3652 18.1627C82.4317 19.2214 82.8009 20.237 83.2272 21.2076C83.915 22.7728 84.7594 24.2644 85.7474 25.6597C85.6556 25.7946 85.8542 25.938 85.7718 26.0794Z" fill="#FFF9F2"/>
<path id="Vector_77" d="M92.492 14.6306C94.5148 16.807 97.0584 18.6096 99.9647 19.2326C102.871 19.8557 106.156 19.1389 108.178 16.9625C108.14 18.2652 108.415 19.558 108.981 20.7317C109.548 21.9055 110.388 22.9256 111.432 23.7059C112.476 24.4861 113.692 25.0036 114.978 25.2145C116.264 25.4255 117.582 25.3237 118.821 24.9177C118.749 30.7986 120.147 36.8406 123.657 41.5607C127.166 46.2807 132.982 49.468 138.841 48.9556C135.35 53.388 133.026 59.6361 135.656 64.6223C136.384 66.0042 136.702 66.3808 138.181 66.883C139.138 67.2091 139.579 67.9829 140.76 67.5257C140.808 67.6451 140.894 67.7459 141.003 67.8133C141.267 67.9752 141.561 68.0814 141.867 68.1253C140.67 70.669 139.655 74.1214 140.469 75.4472C141.383 76.9368 144.411 77.6189 141.687 79.1526C139.993 80.1073 136.673 79.2819 134.459 78.1763C133.761 77.8287 133.326 78.745 133.089 78.0011C132.956 77.5814 133.521 76.0561 133.619 75.627C134.288 72.6665 132.758 69.6609 131.961 66.734C129.287 56.9815 124.071 48.1141 116.847 41.0388C113.635 37.904 110.064 35.1626 106.504 32.4288C103.429 30.0687 100.279 27.6665 96.6003 26.4411C93.0757 25.2672 88.0446 25.1941 84.9735 27.3283C84.9883 27.2911 84.9996 27.2525 85.0072 27.2131C85.1093 26.6622 85.2695 26.1254 85.3023 25.5632C85.3388 24.9524 85.1262 24.4699 84.7036 24.037C84.4226 23.7456 84.1415 23.4477 83.8604 23.1517C83.1512 21.0689 82.1881 18.9356 81.7402 18.1927C86.6074 23.7597 91.4155 18.2498 92.492 14.6306Z" fill="#FAB292"/>
<path id="Vector_78" d="M125.086 83.9561C124.185 79.8048 122.624 75.8052 120.816 71.9705C118.795 67.6866 116.413 63.5825 113.695 59.7028C111.082 55.9711 108.108 52.559 104.942 49.2902C101.569 45.7896 98.0034 42.4803 94.2613 39.3778C90.5971 36.3564 86.723 33.4361 82.4386 31.3449C81.4652 30.8699 80.6079 32.3268 81.586 32.8046C85.2896 34.6119 88.6839 37.0506 91.8919 39.6186C95.586 42.5754 99.0825 45.7815 102.419 49.1356C105.585 52.321 108.643 55.6198 111.296 59.2465C114.023 62.9816 116.434 66.9375 118.504 71.0729C120.63 75.3086 122.449 79.7626 123.457 84.4068C123.687 85.4683 125.316 85.0195 125.086 83.9571V83.9561Z" fill="#2D1111"/>
<path id="Vector_79" d="M133.151 77.8608C130.088 79.6353 127.222 81.7629 124.077 83.395C123.112 83.8953 123.966 85.3541 124.931 84.8538C128.074 83.2217 130.942 81.094 134.004 79.3195C134.941 78.7752 134.097 77.3136 133.151 77.8608Z" fill="#2D1111"/>
<path id="Vector_80" d="M82.8728 32.5215C84.1769 30.1587 85.5588 27.8371 86.6044 25.3393C86.7815 24.9177 86.417 24.4099 86.0151 24.3003C85.527 24.1663 85.1522 24.4671 84.9751 24.8896C83.9923 27.2318 82.6432 29.441 81.415 31.669C80.8894 32.6218 82.3519 33.4753 82.8737 32.5215H82.8728Z" fill="#2D1111"/>
<path id="Vector_81" d="M111.475 35.0747C108.634 32.7624 105.602 30.6939 102.413 28.8912C101.789 28.5389 101.229 29.4983 101.851 29.8505C104.961 31.6021 107.917 33.6129 110.688 35.8616C111.238 36.3095 112.029 35.5272 111.474 35.0756L111.475 35.0747Z" fill="#2D1111"/>
<path id="Vector_82" d="M129.155 57.829C125.492 50.0856 120.382 43.0739 114.052 37.2951C113.524 36.8145 112.74 37.5977 113.266 38.0812C119.533 43.8018 124.569 50.7236 128.195 58.3902C128.501 59.0357 129.46 58.4727 129.155 57.8281V57.829Z" fill="#2D1111"/>
<path id="Vector_83" d="M134.702 75.0247C133.836 70.4411 132.531 65.9515 130.805 61.6178C130.544 60.9619 129.468 61.243 129.733 61.9129C131.459 66.2465 132.764 70.7362 133.631 75.3198C133.765 76.0216 134.835 75.7246 134.702 75.0247Z" fill="#2D1111"/>
<path id="Vector_84" d="M132.738 78.6542C136.854 80.6947 141.407 80.8418 145.598 78.9353C149.377 77.2142 152.501 74.0756 154.603 70.5295C159.638 62.0328 157.927 51.0102 153.211 42.7777C152.921 42.2718 152.562 41.7875 152.298 41.2694C152.132 40.9442 152.111 40.8318 152.335 40.5404C152.542 40.2687 152.783 40.0205 152.999 39.7544C153.674 38.9259 154.288 38.0491 154.836 37.1311C155.87 35.3827 156.625 33.484 157.074 31.5032C157.937 27.6619 157.605 23.6333 156.366 19.9073C153.8 12.1994 147.69 5.62619 140.233 2.43045C135.267 0.299953 129.728 -0.602275 124.38 0.423623C119.888 1.28463 115.573 3.65778 112.635 7.18799C111.912 8.05279 111.271 8.9831 110.721 9.96682L112.266 10.1692C109.892 4.02879 101.783 3.46009 96.2034 4.15808C92.6207 4.60685 89.1533 5.78827 86.3276 8.08647C83.9095 10.0539 82.0507 12.8599 81.6075 15.9807C81.1194 19.4154 82.2634 23.1489 85.0441 25.344C85.8873 26.012 87.0912 24.8241 86.2386 24.1495C84.0978 22.4565 83.0728 19.8004 83.1881 17.1041C83.3099 14.2775 84.8276 11.7113 86.8804 9.83471C89.1879 7.7267 92.1476 6.55559 95.1934 6.00563C98.0669 5.4894 101.19 5.40696 104.055 6.02343C106.725 6.59775 109.587 7.90284 110.636 10.6142C110.884 11.2541 111.799 11.5005 112.181 10.8166C114.303 7.0053 117.924 4.2068 122.027 2.79584C126.789 1.15815 131.991 1.43172 136.753 2.92513C144.361 5.31139 150.755 11.0321 153.966 18.3398C155.439 21.693 156.147 25.404 155.775 29.0598C155.586 30.9098 155.101 32.7175 154.339 34.4141C153.502 36.2691 152.353 37.8516 151.073 39.418C150.212 40.473 150.407 41.4239 151.088 42.5182C151.707 43.517 152.279 44.5429 152.795 45.5978C153.868 47.7896 154.685 50.0973 155.231 52.4755C156.283 57.0597 156.252 61.9766 154.676 66.4418C152.174 73.5303 144.651 80.1532 136.733 78.331C135.644 78.0753 134.589 77.6929 133.589 77.1917C132.619 76.7101 131.761 78.167 132.737 78.6504L132.738 78.6542Z" fill="#2D1111"/>
<path id="Vector_85" d="M140.539 67.1286C138.422 68.8712 135.48 69.4587 132.847 68.7213C132.158 68.534 131.864 69.6011 132.552 69.7931C135.591 70.642 138.897 69.9112 141.325 67.9137C141.878 67.4593 141.088 66.677 140.539 67.1277V67.1286Z" fill="#2D1111"/>
<path id="Vector_86" d="M102.223 28.952C103.137 26.1568 104.607 23.5755 106.544 21.3631C107.012 20.8272 106.231 20.0384 105.758 20.5771C103.692 22.9308 102.125 25.6787 101.151 28.655C100.929 29.3361 102.002 29.6275 102.223 28.9501V28.952Z" fill="#2D1111"/>
<path id="Vector_87" d="M99.9097 27.2742C99.58 26.7935 99.2976 26.2821 99.0664 25.747C99.1002 25.8257 99.0215 25.6365 99.014 25.6187C98.9868 25.5493 98.9597 25.4791 98.9344 25.4079C98.8884 25.2842 98.8463 25.1596 98.806 25.0331C98.7123 24.7464 98.6392 24.455 98.5774 24.1609C98.5369 24.0195 98.4426 23.8996 98.3148 23.8269C98.1869 23.7542 98.0357 23.7345 97.8935 23.772C97.7532 23.8142 97.6346 23.9088 97.5623 24.0362C97.49 24.1636 97.4697 24.314 97.5056 24.456C97.7629 25.666 98.255 26.8138 98.954 27.8344C99.118 28.0733 99.4496 28.2045 99.7138 28.033C99.9518 27.8803 100.089 27.5299 99.9134 27.2732L99.9097 27.2742Z" fill="#2D1111"/>
<path id="Vector_88" d="M90.493 24.7998C89.3671 25.107 88.1719 25.0412 87.0865 24.6124C86.8148 24.5074 86.4644 24.7276 86.4025 25.0002C86.3304 25.3179 86.4962 25.5718 86.7904 25.6832C88.0698 26.1662 89.4692 26.2318 90.7881 25.8706C90.9303 25.8315 91.051 25.7375 91.1239 25.6093C91.1967 25.4811 91.2156 25.3293 91.1765 25.1872C91.1373 25.045 91.0434 24.9243 90.9152 24.8514C90.787 24.7786 90.6351 24.7597 90.493 24.7988V24.7998Z" fill="#2D1111"/>
<path id="Vector_89" d="M97.0135 26.058C95.7791 25.6681 94.4991 25.4407 93.2059 25.3816C93.059 25.3831 92.9184 25.442 92.8144 25.5459C92.7103 25.6497 92.6511 25.7902 92.6494 25.9372C92.6525 26.0837 92.7122 26.2234 92.8159 26.3269C92.9196 26.4305 93.0594 26.4899 93.2059 26.4927C94.3996 26.5499 95.5806 26.7641 96.7183 27.1298C96.8604 27.1674 97.0116 27.1479 97.1394 27.0754C97.2672 27.0029 97.3616 26.8832 97.4023 26.742C97.4381 26.5998 97.4177 26.4493 97.3452 26.3219C97.2728 26.1945 97.1539 26.0999 97.0135 26.058Z" fill="#2D1111"/>
<path id="Vector_90" d="M65.0287 137.037C66.1867 137.068 67.4487 137.014 68.5345 137.487C69.6466 137.973 70.3512 139.043 70.7775 140.138C71.4904 141.968 71.4914 143.93 71.5691 145.863C71.7275 149.808 71.9242 153.951 71.1635 157.848C71.0332 158.513 70.8824 159.207 70.5873 159.822C70.5292 159.942 70.4636 160.058 70.3943 160.172C70.3626 160.226 70.3281 160.278 70.2912 160.328C70.399 160.184 70.3034 160.308 70.2706 160.342C70.0617 160.563 70.1066 160.529 69.8837 160.659C68.9468 161.208 67.7288 161.447 66.5708 161.59C63.2917 161.997 59.9076 161.814 56.6285 161.483C55.1892 161.353 53.7583 161.143 52.3422 160.854C52.0902 160.8 51.8391 160.743 51.5927 160.674C51.4756 160.641 51.083 160.518 51.1664 160.542C51.3107 160.585 51.1233 160.535 51.0933 160.502C51.0868 160.495 51.0484 160.482 51.0428 160.47C51.2938 160.983 51.1102 160.209 51.054 160.417C51.1524 160.053 51.2723 159.492 51.2208 159.016C51.1055 157.946 49.4144 157.935 49.5344 159.016C49.5896 159.526 49.3779 159.945 49.377 160.445C49.3843 160.699 49.4435 160.948 49.5508 161.178C49.6581 161.408 49.8113 161.613 50.0009 161.782C50.3007 162.05 50.7036 162.175 51.083 162.285C52.3235 162.644 53.6295 162.807 54.9056 162.974C58.4658 163.437 62.129 163.675 65.7136 163.368C67.2323 163.238 68.8053 163.034 70.2022 162.398C71.4511 161.836 72.0901 160.841 72.4873 159.557C73.0813 157.637 73.2087 155.548 73.2977 153.553C73.4017 151.239 73.3717 148.919 73.2902 146.604C73.2059 144.182 73.234 141.671 72.2934 139.396C71.7312 138.035 70.8384 136.739 69.4827 136.074C68.097 135.393 66.5446 135.388 65.0334 135.347C63.9466 135.318 63.9466 137.008 65.0334 137.033L65.0287 137.037Z" fill="#2D1111"/>
<path id="Vector_91" d="M88.2939 140.707C87.0918 142.402 85.0513 143.378 83.0941 143.906C81.9792 144.206 80.7837 144.361 79.636 144.165C79.6566 144.165 79.1957 144.047 79.1919 144.049C79.2533 144.084 79.3042 144.135 79.3393 144.196C79.3744 144.257 79.3924 144.326 79.3915 144.397C79.3699 144.491 79.3709 144.482 79.3962 144.374C79.517 144.255 79.6135 143.878 79.695 143.711C80.022 143.045 80.3246 142.34 80.2684 141.582C80.2085 140.78 79.7606 140.12 79.2378 139.534C78.746 138.98 78.1717 138.504 77.6451 137.982C77.5093 137.845 77.2975 137.469 77.1645 137.403C77.1898 137.479 77.1889 137.472 77.1645 137.382C77.18 137.44 77.18 137.501 77.1645 137.559C77.083 137.798 77.0193 137.753 77.1832 137.664C78.1407 137.148 77.2891 135.688 76.3307 136.206C74.9403 136.955 75.5943 138.314 76.4534 139.177C77.1701 139.898 78.7956 140.899 78.537 142.081C78.301 143.147 76.9228 144.595 78.2981 145.48C79.0477 145.961 80.1822 145.958 81.0367 145.925C82.1772 145.87 83.3035 145.649 84.3805 145.269C86.4913 144.546 88.4381 143.395 89.746 141.553C90.3766 140.664 88.9122 139.82 88.2873 140.701L88.2939 140.707Z" fill="#2D1111"/>
<path id="Vector_92" d="M94.5028 154.779C92.0987 156.695 88.9929 157.886 86.216 156.026C83.7979 154.405 82.4909 151.396 81.7601 148.687C81.4791 147.638 79.846 148.083 80.1309 149.136C81.005 152.377 82.6605 155.853 85.6351 157.661C89.0595 159.739 92.8164 158.273 95.6973 155.975C96.548 155.297 95.3451 154.109 94.5028 154.779Z" fill="#2D1111"/>
<path id="Vector_93" d="M69.7897 135.271C68.8762 134.498 67.6817 134.361 66.5893 134.851C65.4584 135.358 64.6883 136.406 64.0428 137.426C62.6955 139.548 61.9142 141.982 61.3024 144.403C60.9838 145.661 60.7074 146.932 60.4095 148.193C60.2737 148.767 60.1341 149.339 59.9842 149.91C59.9036 150.213 59.8205 150.514 59.735 150.815C59.6778 151.013 59.6141 151.531 59.4539 151.678C59.3152 151.802 58.828 151.724 58.6463 151.734L57.5295 151.796L55.1573 151.926L50.5525 152.179L46.0872 152.423L43.8546 152.546L42.7378 152.607C42.4568 152.623 42.0071 152.733 41.7326 152.64C41.4384 152.539 41.5452 152.447 41.6014 152.104C41.6538 151.782 41.7185 151.461 41.7766 151.14C41.9271 150.315 42.0773 149.489 42.2272 148.662C42.4939 147.193 42.7613 145.725 43.0292 144.258C43.2747 142.906 43.3918 141.432 43.8724 140.136C44.2987 138.989 45.3274 138.396 46.4348 138.019C48.2983 137.384 50.2845 137.095 52.2332 136.878C57.0457 136.357 61.8925 136.227 66.726 136.49C67.8128 136.547 67.8091 134.857 66.726 134.803C62.1967 134.566 57.656 134.665 53.1411 135.097C51.0471 135.3 48.9307 135.566 46.8967 136.118C45.7499 136.431 44.6032 136.841 43.67 137.6C42.6395 138.435 42.1851 139.623 41.933 140.888C41.3222 143.962 40.8088 147.059 40.2466 150.142C40.033 151.315 39.3266 153.195 40.6064 154.009C41.0748 154.309 41.6323 154.348 42.1795 154.33C42.9702 154.303 43.7609 154.243 44.5517 154.2L54.1801 153.67C55.7616 153.584 57.3431 153.501 58.9245 153.41C59.526 153.376 60.1509 153.352 60.6109 152.906C61.071 152.46 61.2021 151.844 61.3689 151.265C62.2037 148.361 62.6805 145.369 63.6034 142.49C64.0521 141.092 64.6152 139.732 65.3835 138.477C65.9025 137.634 67.351 135.409 68.5998 136.468C69.4252 137.166 70.6254 135.977 69.7944 135.273L69.7897 135.271Z" fill="#2D1111"/>
<path id="Vector_94" d="M54.399 153.593C54.8375 154.545 53.8191 155.508 53.1239 155.981C52.1214 156.661 50.9691 157.359 49.7623 157.564C48.8479 157.72 47.8005 157.507 47.2515 156.702C46.6818 155.866 46.6987 154.749 46.7924 153.785C46.8355 153.33 46.3727 152.941 45.9492 152.941C45.4555 152.941 45.1482 153.33 45.106 153.785C44.9673 155.226 45.1369 156.776 46.0785 157.935C47.0707 159.153 48.7318 159.464 50.2149 159.193C51.7739 158.912 53.3488 157.975 54.5752 156.999C55.8681 155.969 56.5885 154.32 55.8615 152.74C55.6741 152.326 55.0727 152.223 54.7063 152.436C54.28 152.686 54.2117 153.177 54.4028 153.593H54.399Z" fill="#2D1111"/>
<path id="Vector_95" d="M41.8365 153.504C41.6491 155.984 42.1812 158.629 43.8677 160.53C45.4042 162.266 47.9619 163.193 50.2123 162.456C51.2429 162.118 50.8007 160.488 49.7626 160.826C48.0125 161.4 46.1349 160.613 44.9844 159.244C43.6643 157.676 43.3758 155.475 43.5266 153.5C43.5613 153.045 43.1135 152.657 42.6834 152.657C42.1972 152.657 41.873 153.045 41.8402 153.5L41.8365 153.504Z" fill="#2D1111"/>
<path id="Vector_96" d="M66.0369 137.091C67.5359 138.215 68.2404 140.035 68.6302 141.806C69.0874 143.884 69.1577 146.044 69.2682 148.16C69.4006 150.704 69.4631 153.251 69.4556 155.799C69.4556 157.712 69.6552 159.811 68.3313 161.371C67.6324 162.195 68.8223 163.396 69.5259 162.565C71.0146 160.808 71.1298 158.79 71.1383 156.581C71.1504 153.677 71.0952 150.781 70.9387 147.883C70.7073 143.617 70.6258 138.457 66.8848 135.632C66.0172 134.976 65.174 136.444 66.0322 137.091H66.0369Z" fill="#2D1111"/>
<path id="Vector_97" d="M76.1276 137.967L74.0664 140.516C73.7039 140.963 73.3272 141.402 72.9834 141.863C72.5993 142.375 72.3941 143.044 72.7192 143.643C72.9684 144.103 73.449 144.359 73.9456 144.467C74.4937 144.585 75.0567 144.655 75.6123 144.724C76.7 144.858 77.7955 144.921 78.8914 144.911C79.3336 144.911 79.7571 144.525 79.7346 144.068C79.7308 143.846 79.6407 143.633 79.4834 143.476C79.3261 143.319 79.1139 143.229 78.8914 143.225C77.9568 143.232 77.0225 143.187 76.0929 143.09C75.6535 143.044 75.2666 142.991 74.8225 142.916C74.6426 142.885 74.4609 142.858 74.2838 142.812C74.2341 142.799 74.1901 142.784 74.1386 142.768L74.2023 142.796C74.1198 142.745 74.1161 142.751 74.1929 142.813C74.1348 142.754 74.1264 142.747 74.1667 142.794C74.195 142.823 74.2165 142.858 74.2294 142.896C74.2424 142.935 74.2466 142.976 74.2416 143.016C74.2229 143.085 74.221 143.09 74.2416 143.029C74.2576 142.973 74.2622 142.968 74.2416 143.029C74.27 142.974 74.3012 142.921 74.3353 142.87C74.3981 142.769 74.5227 142.633 74.6445 142.479L75.5392 141.374L77.3287 139.165C77.6163 138.811 77.6753 138.322 77.3287 137.971C77.0326 137.674 76.4227 137.615 76.1341 137.971L76.1276 137.967Z" fill="#2D1111"/>
<path id="Vector_98" d="M77.4484 144.417C77.1412 145.195 77.1492 146.062 77.4707 146.834C77.7922 147.606 78.4018 148.223 79.1704 148.553C80.9299 149.302 82.8121 149.601 84.7093 149.302C86.4032 149.036 88.2779 148.272 89.5099 147.054C90.5349 146.036 91.1645 144.658 91.3462 143.234C91.5571 141.577 91.0895 139.927 89.9409 138.7C89.1914 137.905 88.0025 139.102 88.7464 139.895C90.6586 141.935 89.5577 145.329 87.312 146.592C85.6912 147.505 83.8258 147.971 81.9717 147.648C81.1688 147.507 80.067 147.305 79.4234 146.772C78.8387 146.287 78.8284 145.525 79.0814 144.87C79.2482 144.442 78.894 143.947 78.4921 143.831C78.0161 143.694 77.617 143.997 77.4521 144.42L77.4484 144.417Z" fill="#2D1111"/>
<path id="Vector_99" d="M96.354 155.105C98.4152 152.034 98.7805 148.352 97.6844 144.852C96.7044 141.722 94.8381 138.935 92.7085 136.472C91.9965 135.647 90.8057 136.847 91.514 137.666C93.4018 139.849 95.0826 142.336 95.9895 145.095C97.0286 148.258 96.7737 151.459 94.8943 154.252C94.2863 155.156 95.7488 156.003 96.354 155.105Z" fill="#2D1111"/>
<path id="Vector_100" d="M89.8609 130.953C89.2998 130.54 88.6711 130.229 88.0031 130.033C87.7388 129.966 87.4697 129.918 87.1983 129.891C86.9987 129.867 86.7364 130.003 86.6005 130.138C86.5219 130.217 86.4596 130.31 86.417 130.412C86.3744 130.515 86.3525 130.625 86.3525 130.736C86.3525 130.847 86.3744 130.957 86.417 131.059C86.4596 131.161 86.5219 131.255 86.6005 131.333L86.772 131.465C86.9011 131.541 87.0484 131.581 87.1983 131.58L87.2714 131.59L87.0474 131.56C87.4039 131.611 87.7524 131.707 88.0846 131.845L87.8822 131.76C88.281 131.935 88.6583 132.155 89.0065 132.416C89.1723 132.538 89.4674 132.554 89.6567 132.501C89.8685 132.441 90.0492 132.302 90.1617 132.112C90.2182 132.015 90.2549 131.907 90.2695 131.796C90.2842 131.684 90.2765 131.571 90.2469 131.462C90.1782 131.255 90.0415 131.077 89.859 130.957L89.8609 130.953Z" fill="#2D1111"/>
<path id="Vector_101" d="M77.4008 137.803C77.6378 136.315 78.4557 135.218 79.6784 134.367C80.975 133.462 82.5677 132.64 84.1698 133.336C85.5873 133.951 86.9561 135.523 87.4236 136.98C87.67 137.748 87.7047 138.551 88.0139 139.303C88.2547 139.89 88.3465 140.253 88.1957 140.896C87.9464 141.953 89.5747 142.405 89.8249 141.345C90.0366 140.448 90.002 139.723 89.6544 138.878C89.2899 137.99 89.2581 137.029 88.9049 136.134C88.1863 134.293 86.498 132.432 84.6289 131.71C83.6742 131.341 82.474 131.349 81.4838 131.555C80.5169 131.755 79.6212 132.35 78.8211 132.91C77.263 133.997 76.0732 135.439 75.7668 137.356C75.6947 137.81 75.8839 138.259 76.3571 138.395C76.7581 138.51 77.3239 138.255 77.3961 137.805L77.4008 137.803Z" fill="#2D1111"/>
<path id="Vector_102" d="M87.0787 133.981C87.9275 133.345 88.9384 132.655 89.8491 132.318C90.3831 132.119 90.7626 132.026 91.2544 132.037C91.3135 132.037 91.6208 132.07 91.5037 132.05C91.6173 132.069 91.7296 132.096 91.84 132.129C92.0551 132.195 92.257 132.298 92.4368 132.434C92.5382 132.517 92.6349 132.606 92.7263 132.7C92.776 132.751 92.82 132.806 92.8706 132.858C92.8903 132.879 92.9643 132.987 92.8837 132.871C92.9399 132.951 92.9849 133.037 93.0374 133.118C93.1545 133.297 93.0083 133.017 93.0505 133.134C93.0692 133.184 93.087 133.236 93.1011 133.288C93.1151 133.341 93.1245 133.392 93.1357 133.444C93.162 133.561 93.1357 133.287 93.1273 133.405C93.1273 133.499 93.1273 133.593 93.1217 133.686C93.132 133.499 93.1151 133.686 93.0936 133.77C93.0776 133.833 92.9577 134.116 93.0458 133.934C92.7076 134.631 92.0377 135.255 91.4325 135.69C91.0078 135.994 90.5647 136.271 90.1058 136.52C89.9044 136.63 89.6992 136.736 89.4912 136.834C89.3975 136.878 89.3038 136.92 89.2101 136.963C89.1596 136.985 89.0228 137.036 89.2317 136.954L89.0874 137.012C88.663 137.178 88.3679 137.574 88.4972 138.051C88.6087 138.456 89.1099 138.808 89.5371 138.642C90.4733 138.275 91.3622 137.798 92.1848 137.219C93.0879 136.585 94.0239 135.808 94.5027 134.783C95.032 133.659 94.8306 132.498 93.9921 131.581C92.9849 130.481 91.5289 130.156 90.1058 130.478C88.6827 130.799 87.3888 131.654 86.2261 132.525C85.8617 132.798 85.6743 133.254 85.9226 133.681C86.1334 134.04 86.7115 134.259 87.0787 133.983V133.981Z" fill="#2D1111"/>
<path id="Vector_103" d="M61.2493 132.481C63.8117 134.577 66.8885 136.013 70.2248 136.217C73.3849 136.41 76.5582 135.374 78.9379 133.285C79.7567 132.566 78.5631 131.375 77.7433 132.09C73.2846 136.002 66.7273 134.792 62.442 131.286C61.6072 130.602 60.4052 131.791 61.2475 132.481H61.2493Z" fill="#2D1111"/>
<path id="Vector_104" d="M68.6865 132.281V134.301C68.6891 134.524 68.7777 134.738 68.9339 134.898C69.0517 135.017 69.2022 135.098 69.3662 135.131C69.5303 135.164 69.7004 135.147 69.855 135.083C70.0096 135.019 70.1417 134.911 70.2344 134.771C70.3272 134.632 70.3763 134.468 70.3757 134.301V132.281C70.3728 132.058 70.2843 131.844 70.1284 131.684C70.0106 131.565 69.8601 131.484 69.696 131.451C69.532 131.418 69.3619 131.435 69.2073 131.499C69.0526 131.563 68.9206 131.671 68.8279 131.811C68.7351 131.95 68.6859 132.114 68.6865 132.281Z" fill="#2D1111"/>
<path id="Vector_105" d="M52.892 131.743C53.0944 132.94 53.4541 134.101 53.6603 135.303C53.7343 135.74 54.2955 136.024 54.6993 135.894C55.1677 135.741 55.3692 135.322 55.2895 134.854C55.0862 133.656 54.7274 132.495 54.5213 131.293C54.4473 130.857 53.8851 130.573 53.4813 130.704C53.0129 130.857 52.8124 131.275 52.892 131.743Z" fill="#2D1111"/>
<path id="Vector_106" d="M56.3191 130.455C56.425 131.348 56.6939 132.201 57.0087 133.042C57.3179 133.883 57.6768 134.705 58.0833 135.504C58.2875 135.896 58.8694 136.045 59.2394 135.806C59.4291 135.69 59.5665 135.505 59.623 135.29C59.6796 135.075 59.6509 134.846 59.543 134.651C59.3753 134.328 59.2207 133.995 59.0745 133.665L58.9593 133.399C58.8712 133.194 59.0277 133.565 58.9415 133.356C58.9246 133.313 58.9068 133.272 58.89 133.231C58.8038 133.019 58.7204 132.806 58.6398 132.592C58.4908 132.194 58.3522 131.791 58.2332 131.382C58.177 131.189 58.1245 130.994 58.0805 130.796C58.0618 130.715 58.0449 130.635 58.0299 130.553C58.0224 130.51 58.0158 130.467 58.0074 130.425C57.9774 130.264 58.0308 130.624 58.0074 130.455C57.9559 130.018 57.6561 129.588 57.1642 129.612C56.751 129.63 56.2638 129.987 56.321 130.455H56.3191Z" fill="#2D1111"/>
<path id="Vector_107" d="M71.7053 140.122C73.1289 140.218 74.5589 140.153 75.9681 139.929C76.4056 139.86 76.6876 139.289 76.5584 138.889C76.4038 138.412 75.9887 138.227 75.5184 138.3L75.2495 138.339C75.1867 138.348 75.198 138.346 75.2804 138.339L75.1652 138.354C74.9975 138.374 74.8298 138.392 74.6611 138.408C74.3382 138.438 74.0147 138.459 73.6905 138.472C73.0286 138.497 72.3658 138.485 71.7053 138.435C71.264 138.404 70.8414 138.848 70.8621 139.279C70.8845 139.764 71.2368 140.089 71.7053 140.122Z" fill="#2D1111"/>
<path id="Vector_108" d="M91.74 158.879C92.4999 160.155 92.9299 161.672 93.3777 163.132C93.8846 164.787 94.4083 166.598 94.5545 168.253C94.5947 168.708 94.9142 169.096 95.3977 169.096C95.823 169.096 96.283 168.708 96.2409 168.253C96.0732 166.361 95.5579 164.492 95.0032 162.683C94.5245 161.123 94.0354 159.438 93.195 158.027C92.6395 157.09 91.1779 157.943 91.7363 158.879H91.74Z" fill="#2D1111"/>
<path id="Vector_109" d="M53.297 131.092C52.1662 131.528 51.1674 132.28 50.2343 133.037C49.1184 133.942 48.0794 134.971 47.2728 136.166C47.0179 136.541 47.1997 137.103 47.5754 137.323C47.9914 137.565 48.4757 137.398 48.7315 137.019C48.8168 136.892 48.9058 136.769 48.9957 136.644C49.1091 136.49 48.9442 136.703 49.0566 136.566C49.1072 136.505 49.1578 136.442 49.2093 136.379C49.4211 136.125 49.644 135.881 49.8745 135.644C50.345 135.161 50.8427 134.707 51.3651 134.281L51.5525 134.127C51.5768 134.108 51.7586 133.966 51.6349 134.061C51.7586 133.968 51.8842 133.874 52.0097 133.78C52.2439 133.61 52.4781 133.445 52.7255 133.288C52.9279 133.158 53.133 133.033 53.3438 132.918C53.4375 132.867 53.5312 132.817 53.6296 132.77C53.6727 132.75 53.7186 132.732 53.7608 132.709C53.8217 132.677 53.5556 132.791 53.7411 132.719C54.1674 132.556 54.4606 132.151 54.3313 131.68C54.2198 131.273 53.7205 130.925 53.2923 131.089L53.297 131.092Z" fill="#2D1111"/>
<path id="Vector_110" d="M95.2402 157.123C96.8619 158.365 98.4546 160.046 99.919 161.581C101.427 163.165 102.894 164.787 104.359 166.41C105.09 167.22 106.281 166.021 105.553 165.216C104.054 163.558 102.56 161.9 101.016 160.285C99.4721 158.67 97.8803 157.034 96.0927 155.664C95.7302 155.383 95.1474 155.608 94.9366 155.967C94.6827 156.402 94.8766 156.844 95.2402 157.123Z" fill="#2D1111"/>
<path id="Vector_111" d="M44.0009 159.576C42.8454 161.002 41.8207 162.53 40.9391 164.141C40.7274 164.53 40.8304 165.078 41.2417 165.297C41.6361 165.506 42.172 165.409 42.3978 164.995C42.8126 164.232 43.2601 163.488 43.7404 162.764C43.9765 162.408 44.2207 162.057 44.4731 161.712C44.5995 161.539 44.7288 161.37 44.8572 161.198C44.9387 161.09 44.7879 161.286 44.8722 161.179L44.9705 161.053C45.0446 160.959 45.1195 160.866 45.1954 160.772C45.4718 160.428 45.5561 159.908 45.1954 159.576C44.8881 159.295 44.296 159.209 44.0009 159.576V159.576Z" fill="#2D1111"/>
<path id="Vector_112" d="M97.5096 153.157C98.6975 153.532 99.8949 153.869 101.091 154.212C101.678 154.38 102.265 154.554 102.851 154.732C103.049 154.793 103.413 154.987 103.617 154.976C103.748 154.969 103.564 154.825 103.576 154.823C103.552 154.823 103.482 155.127 103.471 155.156C103.154 156.006 102.534 156.843 102.021 157.627C101.443 158.503 100.861 159.385 100.509 160.382C100.357 160.812 100.681 161.306 101.099 161.421C101.567 161.549 101.986 161.263 102.138 160.831C102.494 159.823 103.233 158.863 103.832 157.946C104.148 157.476 104.441 156.99 104.709 156.49C104.97 155.983 105.271 155.388 105.271 154.804C105.271 154.025 104.691 153.566 104.017 153.326C103.361 153.094 102.686 152.915 102.02 152.721C100.666 152.328 99.3075 151.952 97.9611 151.528C96.9221 151.202 96.4771 152.833 97.5124 153.158L97.5096 153.157Z" fill="#2D1111"/>
<path id="Vector_113" d="M41.7624 154.082C40.3073 153.94 38.8388 154.124 37.4639 154.621C37.0245 154.78 36.7594 155.183 36.8746 155.66C37.363 157.686 37.8518 159.711 38.3408 161.737C38.4523 162.199 38.9442 162.419 39.3799 162.326C41.2536 161.928 43.1093 161.455 44.9469 160.906C45.9859 160.596 45.5437 158.964 44.4981 159.277C42.6618 159.824 40.8061 160.298 38.9311 160.697L39.9701 161.287C39.481 159.262 38.9923 157.236 38.5039 155.211L37.9136 156.25C39.1437 155.801 40.4598 155.638 41.7624 155.772C42.2168 155.817 42.6056 155.351 42.6056 154.928C42.6056 154.435 42.2168 154.129 41.7624 154.085V154.082Z" fill="#2D1111"/>
<path id="Vector_114" d="M90.0082 143.164C90.0962 143.269 90.1824 143.374 90.2677 143.481C90.3108 143.534 90.3529 143.588 90.3942 143.641C90.4635 143.729 90.3792 143.619 90.3567 143.591C90.3782 143.618 90.3979 143.646 90.4185 143.673C90.5878 143.896 90.7524 144.124 90.9123 144.357C91.2246 144.814 91.5156 145.285 91.7854 145.77C92.0009 146.156 92.5631 146.317 92.9416 146.073C93.1317 145.957 93.2694 145.772 93.3258 145.556C93.3822 145.34 93.3529 145.111 93.2442 144.917C92.658 143.873 91.9748 142.886 91.2036 141.97C91.0448 141.811 90.83 141.723 90.6059 141.722C90.3823 141.722 90.1678 141.811 90.0097 141.969C89.8515 142.127 89.7627 142.342 89.7627 142.565C89.7737 142.787 89.8611 142.998 90.01 143.162L90.0082 143.164Z" fill="#2D1111"/>
<path id="Vector_115" d="M46.88 161.759C45.4128 163.867 44.3314 166.219 43.6861 168.705C43.4125 169.759 45.0418 170.204 45.3154 169.154C45.9252 166.809 46.9491 164.592 48.3387 162.607C48.6001 162.233 48.4071 161.67 48.0361 161.451C47.6145 161.206 47.1414 161.379 46.88 161.755V161.759Z" fill="#2D1111"/>
<path id="Vector_116" d="M53.867 131.978C54.4123 131.691 54.9529 131.394 55.5215 131.154L55.3192 131.239C55.6873 131.083 56.0686 130.96 56.4584 130.871C56.8903 130.777 57.1836 130.251 57.0487 129.832C56.9847 129.619 56.8411 129.438 56.6475 129.328C56.454 129.218 56.2255 129.187 56.0097 129.242C54.9407 129.479 53.9738 130.014 53.0116 130.52C52.8195 130.634 52.6801 130.819 52.6235 131.036C52.5668 131.252 52.5976 131.482 52.709 131.676C52.8254 131.865 53.0105 132.003 53.2258 132.059C53.441 132.116 53.6698 132.087 53.8642 131.978H53.867Z" fill="#2D1111"/>
</g>
</svg>
