<svg width="153" height="174" viewBox="0 0 153 174" fill="none" xmlns="http://www.w3.org/2000/svg">
<rect width="153" height="174" fill="#E5E5E5"/>
<g id="iPhone 11 Pro / X - 61">
<rect width="375" height="812" transform="translate(-112 -193)" fill="#FFF9F2"/>
<g id="Account Setup Illustration">
<g id="Layer 2">
<path id="Vector" d="M119.435 122.89C119.552 121.282 119.494 120.766 118.884 119.252C118.144 117.412 115.827 116.605 114.284 115.483C110.978 113.081 108.504 108.917 105.815 105.838C103.083 102.717 100.755 99.2641 98.8873 95.5606C97.0133 91.8194 95.7449 87.811 93.9359 84.0392C90.7412 77.3765 84.7344 70.771 76.6464 71.4634C71.9416 71.8668 68.2201 75.4443 64.3172 77.7335C59.8066 80.3759 55.0702 82.6031 50.4197 84.9812C40.9222 89.8369 32.1063 95.8763 24.4958 103.385L24.4829 103.4C21.5713 103.438 18.1645 104.064 16.8566 106.547C14.9727 110.122 15.453 115.495 17.2116 119.011C19.2622 123.106 23.3052 125.126 27.7102 125.581L28.378 125.65C30.4947 131.306 34.4154 135.986 39.5098 139.444C41.8326 141.022 44.2176 142.565 46.8156 143.653C47.9666 144.136 49.2124 144.605 50.4463 144.825C52.0037 145.102 53.4458 145.95 55.0436 146.422C56.7713 146.918 58.5326 147.287 60.3136 147.529C62.8041 147.875 65.3242 147.923 67.8345 147.978C71.8784 148.067 75.9057 148.372 79.9289 148.21C80.6115 147.994 81.297 147.783 81.9766 147.559C86.0703 146.226 90.0102 144.461 93.7298 142.292C95.4881 141.267 97.1711 140.118 98.766 138.854C99.5827 138.203 100.344 137.383 101.206 136.795C102.343 136.015 103.376 135.309 104.719 135.401C112.415 135.92 118.879 130.513 119.435 122.89Z" fill="#FDEFE8"/>
<path id="Vector_2" d="M27.0046 106.592C32.4147 103.548 37.1107 101.561 43.365 100.793C52.5902 99.6616 61.9437 100.612 71.0515 102.229C77.8089 103.428 84.1235 104.944 90.7378 106.809C96.9518 108.558 103.393 111.668 108.448 116.179C108.941 114.838 109.711 112.529 109.993 111.127C108.561 109.336 107.217 107.438 105.816 105.834C103.084 102.713 100.756 99.2594 98.888 95.5554C97.0139 91.8143 95.7455 87.8068 93.9365 84.035C90.7418 77.3762 84.735 70.7707 76.647 71.4632C71.9422 71.8666 68.2207 75.444 64.3178 77.7333C59.8073 80.3757 55.0709 82.6029 50.4203 84.9809C41.9772 89.2981 34.0747 94.5484 27.0776 100.941C26.9908 102.826 26.8853 104.713 27.0046 106.592Z" fill="#FCE4D8"/>
<path id="Vector_3" d="M120.718 96.7915C120.167 92.783 119.445 88.7953 118.21 84.9495C118.063 84.6579 117.942 84.3539 117.848 84.0411C116.868 82.0892 114.824 76.4236 113.681 74.5624C111.556 71.1023 109.11 67.8415 106.3 64.9072C103.968 62.4709 101.383 60.295 98.6451 58.3303C90.5029 52.4882 78.5238 49.5755 68.5973 49.8201C58.0297 50.0795 48.0815 54.2961 39.3494 60.0258C33.9542 63.5667 29.5788 69.465 26.0447 75.2154C22.0254 81.7587 20.5538 87.5209 20.036 95.2627C19.9265 96.902 19.3899 100.738 20.8092 102.197C21.6782 103.09 23.4023 102.936 24.8591 102.777C25.8978 103.259 26.5813 102.741 27.5025 101.969C27.6998 101.805 27.7067 101.332 27.9119 101.202C28.5944 100.772 32.4372 99.5256 33.2637 99.427C35.3096 99.1907 37.335 98.8017 39.3228 98.2631C39.5507 98.2039 39.7854 98.1586 40.0132 98.1033C40.9138 94.7932 42.7602 93.6382 43.9389 90.4198C44.2999 89.4334 45.3266 88.0526 44.9666 89.0389C44.9617 89.0527 46.457 87.9924 46.4521 88.0062C46.6898 88.092 47.2332 88.1551 47.2658 88.4905C47.5074 90.9563 45.9451 94.6245 46.2518 97.0825C56.0067 96.1612 66.7874 97.8873 76.0323 99.3511C79.5989 99.9172 82.0796 100.395 85.512 101.457C85.6225 100.348 86.7292 99.6006 86.74 98.486C86.74 98.0432 87.244 97.7256 87.6455 97.7729C88.116 97.8291 88.3625 98.2385 88.3576 98.6784C88.3458 99.8985 89.126 101.046 88.9987 102.259C93.1749 103.64 96.8125 105.395 100.497 107.388C100.704 107.302 100.934 107.292 101.147 107.357C102.582 107.774 104.016 108.206 105.389 108.804C106.708 109.379 108.416 110.197 108.967 111.641C109.046 111.833 109.046 112.048 108.967 112.24C108.963 112.47 108.874 112.69 108.718 112.859C108.832 113.341 108.827 113.843 108.705 114.323C108.339 115.672 109.443 116.992 110.869 116.437C112.57 115.776 114.617 116.399 116.148 115.538C117.521 114.765 117.436 112.684 118.022 111.389C120.031 106.959 120.793 100.893 120.679 96.7915C120.692 96.7898 120.705 96.7898 120.718 96.7915Z" fill="#725440"/>
<path id="Vector_4" d="M120.508 101.484C120.508 101.453 120.342 98.7809 120.341 98.7493C120.317 97.8133 120.254 96.8605 120.161 95.9027C118.854 95.4876 117.606 94.9072 116.446 94.1756C113.454 92.2789 110.305 89.675 108.712 86.5453C107.713 84.5825 106.753 82.7647 105.895 80.7398C105.964 82.2104 106.526 83.7195 106.353 85.1428C106.067 87.51 105.762 90.1021 103.22 90.9927C100.019 92.1172 96.5739 89.316 94.6466 87.0681C92.015 83.9927 90.4053 80.142 88.842 76.4551C87.6791 73.718 87.2974 69.6208 85.6758 67.0849C85.6689 67.7457 86.1029 69.602 86.0861 70.2599C85.9648 75.018 85.6995 82.0792 83.1833 86.3638C78.4292 94.4617 64.3443 92.2464 57.3413 88.6837C52.311 86.1252 53.8132 75.4303 54.9425 71.3764C55.7316 68.5466 56.8008 65.8046 58.0002 63.1257C56.2553 64.6585 54.8547 66.5888 53.5616 68.5121C52.1186 70.6663 50.7476 72.852 49.3776 75.0575C48.0549 77.181 46.6849 79.2987 45.0535 81.1994C43.6726 82.8061 42.0146 84.4701 39.9591 85.1556C38.6492 85.5935 37.147 85.8046 35.8914 85.0944C34.7966 84.474 34.2314 83.3299 33.9523 82.1443C33.2293 79.0689 34.0509 75.5911 34.8942 72.6242C35.1737 71.6378 35.4939 70.661 35.8549 69.6938C34.0913 71.9041 32.6809 74.3996 31.4065 76.9424C30.5307 78.6901 29.7031 80.4626 28.8273 82.2094C28.1043 83.6504 27.3852 85.1684 26.2825 86.3708C25.6384 87.0691 24.7912 87.7447 23.7821 87.6786C22.9645 87.6254 22.3115 87.0868 21.8854 86.4151C21.7341 86.1755 21.5996 85.9257 21.483 85.6675C20.7018 88.6314 20.2649 91.7423 20.0291 95.2655C19.9196 96.9048 19.3831 100.741 20.8024 102.2C21.6714 103.093 23.3955 102.939 24.8523 102.779C25.8909 103.262 26.5745 102.744 27.4957 101.972C27.693 101.808 27.6999 101.334 27.905 101.205C28.5876 100.775 32.4303 99.5285 33.2569 99.4299C35.3027 99.1934 37.328 98.8047 39.316 98.267C39.5438 98.2068 39.7786 98.1614 40.0064 98.1062C40.9069 94.797 42.7534 93.6411 43.932 90.4226C44.293 89.4363 45.3198 88.0554 44.9598 89.0418C44.9549 89.0556 46.4501 87.9953 46.4452 88.0091C46.6829 88.0949 47.2264 88.158 47.2589 88.4934C47.5006 90.9592 45.9382 94.6274 46.245 97.0853C55.9999 96.1641 66.7805 97.8902 76.0255 99.3539C79.5921 99.9201 82.0727 100.397 85.5052 101.46C85.6156 100.351 86.7213 99.6035 86.7332 98.4889C86.7332 98.046 87.2372 97.7284 87.6376 97.7758C88.1091 97.832 88.3557 98.2413 88.3508 98.6812C88.3389 99.9013 89.1191 101.048 88.9919 102.262C93.168 103.643 96.8056 105.398 100.491 107.391C100.697 107.305 100.927 107.295 101.141 107.36C102.575 107.777 104.009 108.209 105.382 108.807C106.702 109.382 108.409 110.2 108.96 111.644C109.039 111.836 109.039 112.051 108.96 112.242C108.957 112.473 108.869 112.693 108.712 112.862C108.826 113.344 108.822 113.846 108.699 114.326C108.333 115.675 109.437 116.995 110.863 116.44C112.564 115.778 114.611 116.402 116.142 115.541C117.515 114.767 117.664 112.769 118.016 111.392C119.048 107.398 120.624 105.582 120.508 101.484Z" fill="#725440"/>
<path id="Vector_5" opacity="0.25" d="M50.9692 115.431C51.3369 112.338 48.3146 109.436 44.2187 108.949C40.1228 108.462 36.5043 110.574 36.1365 113.667C35.7688 116.76 38.7911 119.663 42.887 120.15C46.9829 120.636 50.6014 118.524 50.9692 115.431Z" fill="#FAB292"/>
<path id="Vector_6" opacity="0.25" d="M97.9466 124.113C98.7049 121.092 96.0765 117.829 92.0758 116.825C88.0751 115.82 84.2172 117.455 83.4589 120.477C82.7007 123.498 85.3291 126.761 89.3298 127.765C93.3305 128.769 97.1884 127.134 97.9466 124.113Z" fill="#FAB292"/>
<path id="Vector_7" d="M70.1011 114.117C70.3039 113.171 69.1406 112.119 67.5027 111.768C65.8649 111.417 64.3727 111.899 64.1699 112.845C63.9671 113.791 65.1305 114.843 66.7683 115.194C68.4062 115.545 69.8983 115.063 70.1011 114.117Z" fill="#FF8685"/>
<path id="Vector_8" d="M68.3612 51.0451C43.7224 51.6902 16.7658 73.5997 21.6847 100.312C21.7044 100.418 21.8879 100.428 21.8869 100.312C21.7113 87.4646 26.3008 75.2133 35.6157 66.1844C44.5914 57.476 56.245 52.8866 68.445 51.5047C69.3149 51.3992 69.1917 51.0234 68.3612 51.0451Z" fill="#725440"/>
<path id="Vector_9" d="M113.106 125.287C113.119 125.158 113.128 125.026 113.133 124.892C113.231 122.098 111.207 118.552 107.979 119.597C107.37 119.794 107.435 120.622 107.859 120.943C106.71 124.099 105.745 127.283 104.9 130.538C104.738 131.161 105.125 131.961 105.894 131.801C109.239 131.107 112.746 128.93 113.106 125.287Z" fill="#FCE4D8"/>
<path id="Vector_10" d="M27.217 119.321C26.9931 115.501 27.1934 111.628 27.1845 107.796C27.192 107.644 27.1443 107.495 27.0501 107.376C26.956 107.257 26.8218 107.176 26.6726 107.149C26.5011 107.019 26.299 106.935 26.0859 106.906C25.8728 106.877 25.6557 106.903 25.4554 106.981C22.5625 108.084 20.3955 110.933 20.4251 114.096C20.4586 117.299 22.9324 119.286 25.5777 120.611C26.4704 121.057 27.2663 120.15 27.217 119.321Z" fill="#FCE4D8"/>
<path id="Vector_11" d="M79.7758 150.95C79.0982 150.514 78.6277 149.828 78.0319 149.285C75.792 147.245 72.3674 147.592 69.3364 147.588C65.4956 147.582 61.7031 146.809 57.9412 146.039C55.3767 145.515 49.6007 143.541 47.1497 142.658C45.2372 148.379 43.6097 153.508 40.9565 158.884C40.6754 159.453 40.9367 160.42 40.5886 160.068C40.0323 161.394 39.4763 162.72 38.9207 164.046C38.822 164.291 38.7135 164.553 38.7619 164.813C38.8201 165.129 39.0854 165.36 39.3399 165.556C44.1147 169.235 50.4677 170.011 56.4883 170.303C63.2526 170.632 70.1097 170.508 76.6806 168.868C77.4697 168.671 78.2815 168.435 78.8703 167.882C79.4592 167.328 79.7353 166.352 79.2649 165.689C80.9197 166.492 82.7993 166.703 84.5911 166.289C84.2476 165.268 84.1761 164.175 84.3837 163.118C84.5912 162.061 85.0707 161.076 85.7747 160.26C84.523 160.41 83.3236 159.327 83.153 158.08C82.9823 156.832 83.7073 155.565 84.7696 154.887C85.8319 154.208 87.1674 154.06 88.4121 154.253C88.7214 152.946 89.167 151.675 89.7417 150.461C86.6367 148.999 82.6628 152.81 79.7758 150.95Z" fill="white"/>
<path id="Vector_12" d="M80.033 160.004C80.827 161.664 82.4259 163.198 84.2546 162.987C83.4458 163.759 83.6026 165.058 83.7614 166.168C83.7821 166.309 83.7949 166.471 83.6973 166.575C83.6185 166.642 83.5194 166.68 83.4162 166.682C81.7641 166.896 80.1405 166.219 78.6127 165.556C78.3671 162.926 77.5415 159.737 77.8236 157.121C78.1876 153.778 79.5221 158.936 80.033 160.004Z" fill="#FFF9F2"/>
<path id="Vector_13" d="M56.0889 150.775C57.1199 151.361 58.2655 151.718 59.4472 151.82C60.629 151.922 61.8188 151.767 62.9351 151.367C60.3457 150.211 58.0546 148.478 56.2369 146.302C55.9952 146.006 55.7536 145.71 55.4251 145.519C53.6063 144.479 51.9335 145.007 52.7798 147.132C53.3785 148.637 54.7021 149.986 56.0889 150.775Z" fill="#FFF9F2"/>
<path id="Vector_14" d="M2.35431 75.1227C1.8858 76.8675 15.8247 80.372 19.3834 79.867C19.705 79.8216 20.1094 81.0309 20.3698 81.0565C20.5325 81.0723 21.8493 82.0429 21.9854 82.0685C23.4708 78.5433 25.842 74.886 27.8541 71.6242C27.1193 71.2089 24.7264 70.1447 24.7412 70.1447C25.5135 69.8724 14.4942 56.7808 13.2139 57.848C10.6198 60.013 4.15043 68.4659 2.35431 75.1227Z" fill="#725440"/>
<path id="Vector_15" d="M25.0323 70.2837C23.7027 71.9368 22.6168 73.8572 21.6304 75.6898C20.8614 77.1504 20.2488 78.688 19.8027 80.2773C20.0109 80.6156 20.215 81.0456 20.3689 81.0604C20.5228 81.0752 21.8484 82.0468 21.9845 82.0724C23.4699 78.5472 25.8411 74.8899 27.8532 71.6281C27.2772 71.3026 25.6882 70.5855 25.0323 70.2837Z" fill="#E05656"/>
<path id="Vector_16" d="M22.7065 73.8217C23.3752 72.5888 24.0637 71.3647 24.836 70.194C24.8021 70.1808 24.7691 70.1653 24.7373 70.1476C25.5096 69.8754 14.4903 56.7837 13.21 57.8509C12.0915 58.784 10.251 60.8869 8.37695 63.5105C8.75532 63.5908 9.12824 63.6949 9.49349 63.8222C12.4584 64.8618 14.9381 67.0613 17.035 69.3388C18.7779 71.2316 20.3304 73.3049 21.7468 75.4541C22.0673 74.8998 22.4155 74.3602 22.7065 73.8217Z" fill="#725440"/>
<g id="Vector_17" style="mix-blend-mode:multiply">
<path d="M25.0148 70.2769C23.9392 72.0436 22.9804 73.8788 22.1445 75.7708C22.2022 75.787 22.2578 75.8099 22.3102 75.8388C23.0529 76.2659 23.7108 76.8252 24.3549 77.3903C25.4892 75.4078 26.7221 73.4558 27.8525 71.6281C27.2715 71.2997 25.6608 70.5718 25.0148 70.2769Z" fill="#FF5FAF"/>
</g>
<path id="Vector_18" d="M22.2265 80.9645L21.4138 80.4714L21.0528 80.2514C20.9877 80.212 20.6987 79.9664 20.8486 80.1646C20.8861 80.3017 20.9226 80.4388 20.9601 80.5759C20.9187 80.2228 21.1159 79.7583 21.2146 79.415C21.3342 78.9968 21.4657 78.5825 21.6091 78.1722C21.9074 77.3302 22.2616 76.5091 22.6694 75.7143C23.0649 74.9387 23.5069 74.1877 23.9931 73.4654C24.2337 73.1084 24.4862 72.7562 24.7486 72.415C24.9903 72.1023 25.2763 71.6111 25.6363 71.4355L25.226 71.547C25.7063 71.4829 26.384 71.9415 26.8278 72.1309C27.2362 72.3035 27.6968 72.2493 27.9434 71.835C28.1465 71.4957 28.0558 70.8921 27.6475 70.7204C26.957 70.4305 26.1393 69.9018 25.3789 69.8929C24.6016 69.884 24.1321 70.5833 23.7021 71.1219C21.8786 73.3967 20.517 76.0057 19.6936 78.8025C19.5062 79.4397 19.1117 80.3451 19.4392 80.9843C19.6167 81.3285 20.0033 81.5189 20.319 81.7112L21.4039 82.3711C22.3025 82.9175 23.1221 81.509 22.2265 80.9636V80.9645Z" fill="#2D1111"/>
<path id="Vector_19" d="M19.6262 78.844C16.0929 78.6058 12.5958 77.9864 9.19567 76.9966C7.51298 76.5034 5.8076 75.9629 4.2048 75.2508C3.4897 74.9322 3.13265 74.659 3.40488 73.8423C3.69289 72.9851 4.11504 72.1546 4.50563 71.3419C5.99559 68.2287 7.82553 65.2899 9.96205 62.5793C10.4743 61.9329 11.003 61.3007 11.5481 60.6825C11.8203 60.3728 12.0968 60.0667 12.3776 59.7643C12.6469 59.4743 13.0246 58.915 13.3797 58.7237C13.648 58.5797 13.4783 58.6172 13.7013 58.7237C13.8492 58.7977 13.9972 58.9959 14.1205 59.1074C14.4065 59.3704 14.6906 59.637 14.9726 59.9073C15.6032 60.509 16.2217 61.1225 16.828 61.7478C19.5257 64.5157 21.9523 67.5355 24.0746 70.7659C24.6457 71.6408 26.0571 70.8251 25.4821 69.9433C23.3286 66.6629 20.872 63.5918 18.1447 60.7703C17.4872 60.0845 16.8132 59.4131 16.1227 58.7562C15.5467 58.2059 14.8641 57.3438 14.0869 57.0795C13.1864 56.7767 12.5088 57.2767 11.9041 57.8922C11.2137 58.6004 10.5489 59.3362 9.90682 60.0888C7.30512 63.1304 5.09066 66.4829 3.31413 70.0695C2.87686 70.9553 2.46786 71.8535 2.08713 72.7642C1.74783 73.576 1.44799 74.4558 1.83956 75.309C2.14335 75.9728 2.75192 76.3762 3.39797 76.6652C4.36163 77.0972 5.36276 77.4542 6.35699 77.8034C10.64 79.2771 15.1004 80.1727 19.6203 80.4665C20.6668 80.5365 20.6618 78.9071 19.6203 78.8371L19.6262 78.844Z" fill="#2D1111"/>
<path id="Vector_20" d="M20.6536 76.1089C17.8603 75.8307 15.0985 74.8809 12.5725 73.6835C10.0081 72.4693 7.49783 70.9139 5.6297 68.7518C5.17303 68.2221 4.40664 68.9925 4.86233 69.5202C6.82909 71.7996 9.50601 73.4507 12.2105 74.7122C14.8737 75.9531 17.7222 76.9059 20.6536 77.1939C21.344 77.2619 21.344 76.176 20.6536 76.1089Z" fill="#2D1111"/>
<path id="Vector_21" d="M22.3101 73.8698C18.8394 69.5943 14.6527 65.954 9.9365 63.1109C9.33582 62.7489 8.78939 63.6879 9.3881 64.0499C14.0229 66.8475 18.1354 70.4304 21.5418 74.6382C21.9826 75.1817 22.7471 74.4084 22.3101 73.8698Z" fill="#2D1111"/>
<path id="Vector_22" d="M141.313 96.612C141.236 98.417 126.888 97.5698 123.646 96.0202C123.35 95.8802 122.603 96.9129 122.349 96.8586C122.189 96.8251 120.642 97.3577 120.504 97.338C120.147 93.5297 118.985 89.3279 118.046 85.6134C118.871 85.4378 121.472 85.1458 121.461 85.137C120.806 84.6438 135.25 75.4709 136.15 76.8744C137.974 79.7131 141.608 89.7205 141.313 96.612Z" fill="#725440"/>
<path id="Vector_23" d="M121.14 85.1763C121.911 87.1489 122.37 89.31 122.76 91.3547C123.054 92.9786 123.176 94.629 123.125 96.2785C122.829 96.5399 122.499 96.8871 122.349 96.8555C122.199 96.8239 120.642 97.3546 120.504 97.3349C120.147 93.5266 118.984 89.3248 118.046 85.6103C118.693 85.4722 120.425 85.2641 121.14 85.1763Z" fill="#FF7BB1"/>
<path id="Vector_24" d="M122.295 89.249C122.028 87.8682 121.739 86.4972 121.355 85.1488C121.424 85.14 121.462 85.135 121.461 85.134C120.806 84.6409 135.251 75.4679 136.151 76.8715C136.94 78.0965 138.06 80.6561 139.059 83.7226C138.674 83.6846 138.287 83.6717 137.9 83.6841C134.76 83.7828 131.734 85.136 129.05 86.6777C126.818 87.9599 124.71 89.469 122.717 91.0945C122.58 90.4701 122.413 89.8497 122.295 89.249Z" fill="#725440"/>
<g id="Vector_25" style="mix-blend-mode:multiply">
<path d="M121.159 85.1733C121.653 87.1819 122.016 89.2208 122.244 91.2768C122.184 91.2748 122.124 91.2798 122.065 91.2916C121.228 91.476 120.433 91.8134 119.648 92.1566C119.162 89.9255 118.571 87.6915 118.045 85.6103C118.699 85.4712 120.455 85.2611 121.159 85.1733Z" fill="#FF5FAF"/>
</g>
<path id="Vector_26" d="M121.003 97.7866C121.659 97.6249 122.562 97.5607 123.119 97.1632C123.732 96.7253 123.642 95.808 123.663 95.1363C123.704 93.6357 123.596 92.1347 123.341 90.6554C123.092 89.178 122.689 87.7305 122.141 86.3362C121.882 85.6793 121.648 84.9179 120.896 84.691C120.233 84.4937 119.367 84.7226 118.695 84.7896C117.659 84.8883 117.649 86.5187 118.695 86.4191L119.55 86.3372C119.759 86.3175 120.156 86.1971 120.355 86.2642C120.303 86.2465 120.371 86.3234 120.414 86.3875C120.495 86.5417 120.561 86.7032 120.611 86.8698C120.712 87.1296 120.808 87.3909 120.899 87.654C121.273 88.7411 121.559 89.8562 121.756 90.9888C121.943 92.0843 122.04 93.1934 122.046 94.3048C122.046 94.583 122.046 94.8611 122.037 95.1393C122.031 95.3139 122.023 95.4875 122.015 95.661C122.015 95.7311 122.007 95.8001 122.002 95.8702C121.966 96.0056 121.999 96.0135 122.1 95.8938C122.425 95.8041 121.964 95.8741 121.903 95.8938L121.493 95.9925L120.569 96.2203C119.551 96.4708 119.977 98.0431 121.002 97.7915L121.003 97.7866Z" fill="#2D1111"/>
<path id="Vector_27" d="M123.262 96.526C127.297 97.5093 131.438 97.9975 135.591 97.9799C136.544 97.974 137.497 97.9411 138.452 97.8813C139.339 97.824 140.389 97.8438 141.193 97.3881C142.814 96.4738 142.297 94.3216 142.104 92.8144C141.588 88.7517 140.556 84.7714 139.033 80.9695C138.688 80.1147 138.321 79.2671 137.932 78.4267C137.577 77.6663 137.227 76.534 136.452 76.0871C135.736 75.6758 135.023 75.951 134.338 76.2706C133.484 76.6651 132.64 77.0801 131.808 77.5154C127.893 79.5325 124.201 81.954 120.791 84.7403C119.98 85.4051 121.139 86.5522 121.944 85.8923C124.593 83.7317 127.423 81.8026 130.402 80.1262C131.815 79.3246 133.257 78.5753 134.727 77.8783C134.915 77.7886 135.393 77.4434 135.615 77.4976C135.762 77.5331 136.003 78.1999 136.068 78.3291C136.49 79.1842 136.888 80.0512 137.251 80.931C138.588 84.1505 139.566 87.5075 140.168 90.9414C140.323 91.8251 140.451 92.7128 140.552 93.6045C140.616 94.1618 140.962 95.448 140.487 95.8977C140.08 96.2834 139.066 96.2084 138.564 96.242C137.656 96.3018 136.746 96.337 135.836 96.3475C131.747 96.39 127.668 95.9228 123.695 94.9568C122.676 94.7092 122.241 96.2804 123.261 96.528L123.262 96.526Z" fill="#2D1111"/>
<path id="Vector_28" d="M123.258 93.0858C126.149 93.6943 129.176 93.6352 132.092 93.2416C135.046 92.8471 138.072 92.0768 140.631 90.4957C141.222 90.1287 140.679 89.1888 140.082 89.5576C137.648 91.0618 134.756 91.7927 131.947 92.1734C129.185 92.5472 126.285 92.6143 123.547 92.0383C122.865 91.8943 122.573 92.9418 123.258 93.0858Z" fill="#2D1111"/>
<path id="Vector_29" d="M123.184 90.3656C127.699 87.3801 132.698 85.2014 137.959 83.9268C138.639 83.7631 138.353 82.7146 137.671 82.8793C132.318 84.1756 127.231 86.3902 122.635 89.4246C122.054 89.8083 122.598 90.7493 123.184 90.3627V90.3656Z" fill="#2D1111"/>
<path id="Vector_30" d="M74.3542 118.286C73.9084 117.7 72.5788 117.793 71.9259 117.694C70.4 117.445 68.8751 117.193 67.3552 116.911C64.6556 116.412 61.7399 116.205 59.1449 115.309C58.702 115.156 58.34 115.408 58.1586 115.767C58.0951 115.804 58.0338 115.845 57.9751 115.89C57.6854 116.571 57.4721 117.282 57.3389 118.011C57.3892 118.405 57.2403 119.003 57.1258 119.553C57.0844 120.011 57.0568 120.472 57.04 120.934C57.0962 121.587 57.2317 122.231 57.4435 122.852C57.9975 124.443 59.0603 125.807 60.4676 126.733C63.5765 128.738 69.4107 129.352 72.2592 126.593C73.7151 125.176 75.4274 119.696 74.3542 118.286Z" fill="#E05656"/>
<path id="Vector_31" d="M67.0936 122.786C63.8761 121.853 60.5541 121.768 57.2598 122.179C57.315 122.403 57.3673 122.629 57.4432 122.846C57.9973 124.437 59.0601 125.801 60.4673 126.727C63.5763 128.732 69.4105 129.346 72.259 126.587C72.5589 126.271 72.8144 125.916 73.0185 125.531C71.1711 124.366 69.2043 123.399 67.0936 122.786Z" fill="#EC9A9A"/>
<path id="Vector_32" d="M71.5693 117.853C69.8925 117.169 69.3007 117.606 67.5253 117.205C65.5615 116.76 64.4183 116.531 62.495 115.942C61.4514 115.624 60.8734 116.599 61.7059 117.201C63.8759 118.767 68.778 119.65 71.2349 119.204C71.8464 119.094 72.1867 118.106 71.5693 117.853Z" fill="#FFF9F2"/>
<path id="Vector_33" d="M58.4155 115.89C63.4626 117.052 68.5748 117.938 73.6446 118.979C73.8922 119.031 74.1831 119.142 74.4337 119.148C74.4692 119.148 74.5678 119.204 74.6004 119.191C74.4613 119.248 74.3853 118.737 74.2423 118.815C74.2325 118.82 74.2423 118.913 74.2364 118.924C74.1891 119.023 74.193 119.204 74.1713 119.319C73.903 120.72 73.5539 122.188 73.0281 123.515C72.4156 125.059 71.3829 126.422 69.8857 127.19C68.1241 128.091 65.9403 128.107 64.0663 127.609C61.776 127.001 59.4532 125.491 58.5891 123.196C57.6452 120.689 58.3189 117.982 58.9561 115.491C59.1297 114.813 58.0822 114.524 57.9086 115.202C57.301 117.575 56.7131 120.055 57.2546 122.5C57.7557 124.769 59.3161 126.544 61.3164 127.661C64.7893 129.597 69.8413 129.676 72.5665 126.416C73.6969 125.064 74.2591 123.439 74.7039 121.761C74.9081 120.988 75.1192 120.21 75.2543 119.421C75.3352 118.945 75.4516 118.369 74.8992 118.145C74.3469 117.921 73.6436 117.871 73.0557 117.75C71.6749 117.474 70.2989 117.205 68.92 116.934C65.5103 116.262 62.0896 115.618 58.7026 114.838C58.022 114.681 57.731 115.725 58.4136 115.885L58.4155 115.89Z" fill="#2D1111"/>
<path id="Vector_34" d="M104.505 129.507C102.982 135.088 98.725 139.303 93.8318 142.133C88.9386 144.962 83.3066 146.67 77.6854 147.106C70.8797 147.63 63.9043 146.974 57.2683 145.399C50.4448 143.778 43.8008 141.083 38.0998 136.951C35.0983 134.776 32.4461 132.136 30.5405 128.939C28.6186 125.715 27.5521 122.054 27.4424 118.303C27.4108 117.257 25.7814 117.252 25.813 118.303C26.026 125.359 29.4141 131.784 34.7265 136.358C40.2243 141.093 47.0468 144.243 53.9808 146.222C61.0189 148.218 68.3258 149.101 75.6368 148.841C81.6535 148.631 87.607 147.175 92.9835 144.442C98.293 141.742 103.106 137.616 105.382 131.992C105.652 131.32 105.882 130.633 106.072 129.934C106.348 128.921 104.777 128.489 104.5 129.501L104.505 129.507Z" fill="#2D1111"/>
<path id="Vector_35" d="M22.0177 102.634C20.7819 96.7589 20.9407 90.687 22.6303 84.9169C24.2922 79.2395 27.3302 74.0317 31.0782 69.4807C38.6553 60.2821 49.4922 54.0386 61.274 52.1596C67.0342 51.2413 72.9788 51.5422 78.7134 52.5157C84.4746 53.4932 90.1303 55.2567 95.2967 58.0106C100.068 60.5543 104.386 63.9286 107.87 68.0712C110.379 71.0569 112.516 74.3739 114.305 77.836C116.673 82.4145 118.392 87.3462 119.185 92.4476C120.125 98.4513 119.609 104.593 117.679 110.356C117.144 111.93 116.511 113.47 115.784 114.966C115.328 115.906 116.733 116.733 117.19 115.788C120.063 109.856 121.519 103.345 121.234 96.752C120.993 91.1535 119.579 85.6813 117.377 80.5435C113.671 71.9002 107.831 64.1298 99.9532 58.8953C94.8588 55.5092 89.0867 53.1746 83.148 51.7631C77.2921 50.3674 71.0851 49.6711 65.0684 50.1011C52.9138 50.9691 41.1004 56.5123 32.6386 65.2789C28.3333 69.7362 24.7302 74.9746 22.3807 80.721C20.0836 86.3139 19.1736 92.3794 19.7284 98.4001C19.8803 99.9691 20.1201 101.528 20.4465 103.07C20.6625 104.096 22.2337 103.662 22.0177 102.637V102.634Z" fill="#2D1111"/>
<path id="Vector_36" d="M26.2445 102.569C26.1036 105.79 26.1243 109.017 26.3066 112.236C26.3658 113.278 27.9962 113.285 27.936 112.236C27.7536 109.017 27.7332 105.79 27.8749 102.569C27.9203 101.521 26.2908 101.524 26.2445 102.569Z" fill="#2D1111"/>
<path id="Vector_37" d="M110.061 116.769C112.407 115.494 115.218 115.98 116.923 118.064C118.441 119.918 118.776 122.475 118.365 124.777C117.626 128.904 114.518 132.203 110.663 133.689C108.441 134.545 106.008 134.865 103.648 134.507C102.622 134.352 102.18 135.921 103.215 136.078C108.115 136.821 113.325 135.191 116.728 131.522C120.215 127.755 121.635 121.351 118.207 117.071C116.016 114.332 112.289 113.707 109.243 115.361C108.32 115.862 109.144 117.27 110.065 116.769H110.061Z" fill="#2D1111"/>
<path id="Vector_38" d="M26.4717 102.345C23.8815 101.968 21.1099 102.075 18.8374 103.52C17.0403 104.663 15.8241 106.469 15.1988 108.485C13.8396 112.862 14.9483 118.053 17.9606 121.488C20.4382 124.31 24.0857 125.982 27.8239 126.153C28.8724 126.2 28.8695 124.575 27.8239 124.523C22.4257 124.277 17.7416 120.456 16.5876 115.173C15.8567 111.831 16.2798 107.604 19.1165 105.309C21.0429 103.755 23.6793 103.568 26.0396 103.913C27.0654 104.063 27.5083 102.492 26.4736 102.341L26.4717 102.345Z" fill="#2D1111"/>
<path id="Vector_39" d="M117.036 116.23C117.043 116.014 117.052 115.799 117.059 115.583C117.062 115.511 117.046 115.439 117.012 115.374C116.988 115.309 116.949 115.249 116.9 115.2C116.85 115.15 116.791 115.112 116.725 115.087C116.661 115.053 116.589 115.037 116.516 115.04C116.372 115.041 116.234 115.098 116.132 115.2C116.033 115.303 115.976 115.44 115.973 115.583L115.949 116.23C115.956 116.373 116.012 116.509 116.109 116.615C116.157 116.667 116.217 116.705 116.284 116.727C116.348 116.761 116.42 116.777 116.493 116.774C116.637 116.773 116.774 116.716 116.876 116.615C116.975 116.511 117.032 116.374 117.036 116.23Z" fill="#2D1111"/>
<path id="Vector_40" d="M108.457 112.731C108.296 114.408 107.788 116.068 107.322 117.683C106.845 119.337 106.311 120.98 105.925 122.66C105.69 123.68 107.262 124.116 107.496 123.093C108.291 119.633 109.747 116.287 110.087 112.731C110.129 112.292 109.682 111.916 109.272 111.916C108.796 111.916 108.5 112.291 108.457 112.731Z" fill="#2D1111"/>
<path id="Vector_41" d="M26.3697 101.932C29.2776 101.018 32.2327 100.261 35.2221 99.6638C35.9454 99.5191 36.6716 99.3836 37.4009 99.2574C38.1189 99.1331 38.9129 99.0986 39.6132 98.9003C39.987 98.7948 40.2721 98.5058 40.5137 98.2099C41.3373 97.2236 41.9755 96.0696 42.6216 94.9639C43.4461 93.5544 44.2421 92.1272 45.0696 90.7226C45.4395 90.0953 45.8124 89.47 46.2099 88.8594C46.4438 88.4854 46.7035 88.1282 46.9871 87.7902C47.0482 87.7357 47.1065 87.6781 47.1617 87.6176C47.1271 87.6669 47.1311 87.6689 47.0127 87.6906C46.871 87.7056 46.7279 87.6846 46.5965 87.6295C46.4338 87.5308 46.3992 87.4874 46.3992 87.4006C46.3992 87.4677 46.4476 87.5456 46.4564 87.6147C46.4653 87.6837 46.4564 87.5407 46.4712 87.735C46.49 87.9944 46.4919 88.2528 46.487 88.5132C46.4554 89.9404 46.2533 91.3647 46.1004 92.7821C45.9682 94.013 45.7729 95.3002 45.9031 96.539C45.9495 96.9937 46.0363 97.484 46.3834 97.8154C46.5818 97.999 46.8402 98.1042 47.1104 98.1113C47.863 98.1478 48.6579 98.0225 49.4115 97.9909C52.527 97.8594 55.6442 97.8686 58.763 98.0186C64.9611 98.3066 71.1257 99.1173 77.2075 100.334C78.7199 100.636 80.2244 100.965 81.721 101.321C82.4509 101.494 83.1791 101.672 83.9057 101.856C84.4492 101.994 85.2244 102.372 85.7797 102.223C86.8193 101.949 87.062 100.003 87.2928 99.1568C87.4901 98.4131 87.6784 97.6654 87.8846 96.9247C87.9704 96.6199 88.0582 96.3142 88.1598 96.0143C88.2209 95.8328 88.4034 95.5951 88.3748 95.4896C88.3255 95.3032 88.5977 95.6277 88.3422 95.5241L88.286 95.5675C88.0487 95.77 87.7504 95.7549 87.3914 95.5221C87.2928 95.4689 87.3707 95.4067 87.3362 95.461C87.3549 95.4304 87.3717 95.7381 87.3224 95.4196C87.3589 95.6553 87.4605 95.896 87.5078 96.1327C87.642 96.8034 87.7199 97.4849 87.8037 98.1635C87.9674 99.5355 88.001 101.036 88.433 102.356C88.6963 103.161 89.158 103.306 89.9411 103.563C91.2234 103.985 92.5115 104.415 93.7878 104.863C98.5627 106.54 103.198 108.525 107.549 111.124C108.686 111.803 109.802 112.518 110.903 113.256C111.776 113.843 112.592 112.432 111.725 111.85C107.428 108.969 102.827 106.568 98.0064 104.689C95.5692 103.733 93.0905 102.884 90.6089 102.066C90.457 102.017 90.3041 101.962 90.1512 101.917C89.7468 101.797 89.9352 101.87 89.9145 101.879C90.0555 101.822 90.0131 102.094 90.024 101.978C90.0161 102.054 89.9776 101.816 89.9579 101.744C89.9184 101.598 89.8878 101.448 89.8592 101.302C89.7261 100.628 89.6491 99.9449 89.5633 99.2643C89.4006 97.8893 89.374 96.3694 88.9202 95.0497C88.7309 94.4963 88.3107 93.941 87.638 94.1107C87.1004 94.2478 86.8736 94.8149 86.697 95.2795C86.1812 96.6298 85.908 98.0748 85.5134 99.4635C85.4513 99.6815 85.0785 100.894 85.0203 100.866C84.9216 100.816 85.4533 100.669 85.4779 100.586L84.3239 100.29C83.5118 100.084 82.6978 99.8863 81.8817 99.6983C75.8515 98.2759 69.7281 97.2818 63.5576 96.7235C60.4065 96.4434 57.2473 96.2961 54.0798 96.2816C52.5675 96.277 51.0551 96.3046 49.5427 96.3645C49.3 96.3743 47.1824 96.3585 47.1419 96.4907C47.1538 96.4532 47.4053 96.5716 47.5069 96.6436C47.8955 96.9208 47.5463 96.7028 47.5661 96.7126C47.5246 96.6919 47.5661 96.8014 47.5759 96.7294C47.6016 96.4562 47.5246 96.6061 47.5108 96.3161C47.497 96.0261 47.498 95.7381 47.5108 95.4481C47.5335 94.7932 47.5947 94.1393 47.6608 93.4863C47.8087 92.0196 48.0119 90.5549 48.0967 89.0823C48.146 88.2242 48.3107 86.7496 47.424 86.222C46.4554 85.6519 45.6684 86.796 45.1939 87.4647C43.4264 89.9602 42.0889 92.7535 40.497 95.3554C40.1794 95.8743 39.8569 96.3911 39.4988 96.8823C39.3755 97.0529 39.3696 97.044 39.197 97.2522C39.1516 97.3074 39.0905 97.3508 39.0451 97.4011C39.1723 97.2512 39.1605 97.334 39.0924 97.3607C38.9583 97.4149 39.1733 97.3261 39.1852 97.3261C38.5273 97.3084 37.752 97.5491 37.1 97.6615C36.33 97.793 35.5613 97.9357 34.794 98.0896C33.3013 98.3861 31.8172 98.7231 30.3416 99.1006C28.8661 99.478 27.3994 99.8965 25.9416 100.356C24.9444 100.669 25.3705 102.243 26.3746 101.927L26.3697 101.932Z" fill="#2D1111"/>
<path id="Vector_42" d="M47.3662 87.2831C50.703 76.6583 55.533 66.1666 62.9099 57.7176C65.0177 55.2848 67.3586 53.0642 69.8991 51.0875C70.4445 50.6663 69.904 49.7224 69.3507 50.1494C60.1511 57.2511 53.9086 67.4626 49.5332 78.0806C48.3298 81.0021 47.2646 83.9798 46.3187 86.9951C46.1086 87.6628 47.1571 87.9489 47.3662 87.2831Z" fill="#2D1111"/>
<path id="Vector_43" d="M79.5199 52.1252C85.2801 62.1631 87.4599 73.8404 87.5388 85.3115C87.5605 88.5664 87.4126 91.8213 87.1246 95.0654C87.0634 95.7617 88.1504 95.7558 88.2095 95.0654C89.2353 83.4858 88.5153 71.4919 84.5542 60.4775C83.4517 57.3962 82.0803 54.4178 80.4559 51.5768C80.1078 50.9702 79.1688 51.5176 79.5179 52.1252H79.5199Z" fill="#2D1111"/>
<path id="Vector_44" d="M81.1031 53.0376C85.7517 53.662 89.5541 56.9169 92.6709 60.1994C95.5829 63.2927 98.1008 66.7345 100.167 70.4465C104.408 77.988 106.957 86.509 107.663 95.1266C108.058 99.9113 107.889 104.747 107.057 109.479C106.936 110.162 107.983 110.455 108.104 109.767C109.645 101.014 109.032 91.9338 106.649 83.3872C104.271 74.8613 100.097 66.7368 94.1228 60.1718C90.644 56.3497 86.4017 52.6638 81.1031 51.9516C80.4127 51.8589 80.4196 52.9459 81.1031 53.0366V53.0376Z" fill="#2D1111"/>
<path id="Vector_45" d="M67.77 50.1189C58.8929 51.124 50.4548 54.9026 43.7507 60.7891C36.726 66.9586 31.9403 75.4096 30.082 84.5598C29.0229 89.7554 28.9179 95.1002 29.7723 100.333C29.8847 101.024 30.9322 100.728 30.8198 100.044C29.3314 90.9631 30.9411 81.4322 35.2376 73.3028C39.3496 65.5235 45.9285 59.2603 53.7965 55.3514C58.1768 53.1698 62.9036 51.768 67.765 51.2088C68.4555 51.1309 68.4555 50.0429 67.765 50.1238L67.77 50.1189Z" fill="#2D1111"/>
<path id="Vector_46" d="M57.7241 109.599C58.3031 106.761 56.6632 104.03 54.0612 103.499C51.4592 102.968 48.8804 104.839 48.3014 107.677C47.7223 110.516 49.3623 113.247 51.9643 113.778C54.5663 114.309 57.1451 112.438 57.7241 109.599Z" fill="#400705"/>
<path id="Vector_47" d="M51.1424 107.192C51.1057 107.373 51.0162 107.538 50.8854 107.668C50.7546 107.798 50.5883 107.886 50.4074 107.921C50.2266 107.956 50.0395 107.937 49.8696 107.865C49.6998 107.794 49.5549 107.674 49.4533 107.52C49.3517 107.367 49.2979 107.186 49.2988 107.002C49.2997 106.818 49.3553 106.638 49.4584 106.486C49.5615 106.333 49.7075 106.214 49.8781 106.145C50.0486 106.075 50.236 106.058 50.4164 106.095C50.6582 106.144 50.8705 106.287 51.0066 106.493C51.1427 106.699 51.1915 106.951 51.1424 107.192Z" fill="#FFF9F2"/>
<path id="Vector_48" d="M87.397 115.225C87.976 112.387 86.336 109.656 83.734 109.125C81.132 108.594 78.5533 110.465 77.9742 113.303C77.3952 116.142 79.0351 118.873 81.6371 119.404C84.2392 119.935 86.8179 118.064 87.397 115.225Z" fill="#400705"/>
<path id="Vector_49" d="M86.824 114.042C86.7873 114.223 86.6979 114.389 86.567 114.518C86.4362 114.648 86.2699 114.736 86.0891 114.771C85.9083 114.806 85.7211 114.787 85.5512 114.715C85.3814 114.644 85.2365 114.524 85.1349 114.37C85.0333 114.217 84.9796 114.037 84.9805 113.852C84.9814 113.668 85.0369 113.488 85.14 113.336C85.2431 113.183 85.3892 113.064 85.5597 112.995C85.7302 112.925 85.9176 112.908 86.098 112.945C86.3398 112.994 86.5521 113.137 86.6882 113.343C86.8243 113.549 86.8732 113.801 86.824 114.042Z" fill="#FFF9F2"/>
<path id="Vector_50" d="M50.2693 145.31C54.0292 151.537 62.6518 153.049 69.2218 151.208C70.9972 150.709 72.7282 149.934 74.1979 148.807C74.549 148.538 74.7266 148.108 74.4938 147.692C74.2965 147.346 73.7274 147.132 73.3792 147.396C70.9291 149.27 67.8163 150.134 64.7636 150.274C61.5402 150.422 58.1906 149.81 55.3993 148.137C53.8793 147.244 52.602 145.99 51.6798 144.488C51.1383 143.591 49.7288 144.41 50.2733 145.31H50.2693Z" fill="#2D1111"/>
<path id="Vector_51" d="M54.8567 152.77C56.2869 152.942 57.7092 152.945 59.1246 152.658C59.6178 152.559 60.0952 152.428 60.5785 152.306C60.8408 152.24 61.1042 152.178 61.3675 152.124C61.5017 152.096 61.6368 152.071 61.7719 152.048L61.983 152.014C62.0286 152.004 62.0747 151.998 62.1211 151.995C62.5581 151.94 62.9358 151.658 62.9358 151.179C62.9358 150.785 62.561 150.31 62.1211 150.364C61.0016 150.504 59.9383 150.819 58.8396 151.055C58.5811 151.111 58.3207 151.16 58.0584 151.196C58.1738 151.18 58.0219 151.196 57.9795 151.205L57.7595 151.227C57.6047 151.241 57.4498 151.251 57.295 151.258C56.4797 151.286 55.6635 151.246 54.8547 151.14C54.4168 151.087 54.04 151.552 54.04 151.955C54.04 152.439 54.4158 152.717 54.8547 152.77H54.8567Z" fill="#2D1111"/>
<path id="Vector_52" d="M53.7804 151.917C53.0115 157.274 52.7855 162.695 53.1057 168.098C53.1688 169.139 54.7983 169.147 54.7351 168.098C54.4114 162.841 54.6179 157.565 55.3516 152.35C55.4147 151.911 55.2441 151.48 54.7825 151.348C54.4017 151.238 53.8435 151.482 53.7804 151.917Z" fill="#2D1111"/>
<path id="Vector_53" d="M48.2783 143.574C47.6552 143.307 47.0459 143.009 46.4526 142.681C42.2857 140.346 38.35 137.621 34.6984 134.542C33.3142 136.518 31.7565 138.367 30.0439 140.066C29.2686 140.834 27.8089 141.743 27.0257 142.499C26.0887 143.404 26.5602 143.137 27.293 144.102C28.5545 145.766 30.4404 147.757 31.845 149.304C33.2705 150.874 34.7645 152.377 36.3269 153.815C36.677 154.136 39.853 156.663 40.7802 157.509C43.3299 152.879 46.6242 148.614 48.2783 143.574Z" fill="white"/>
<path id="Vector_54" d="M34.2783 142.299C33.6411 143.166 33.6964 144.393 34.1383 145.375C34.5801 146.356 35.3485 147.15 36.102 147.913L38.9624 150.829C39.3875 151.263 39.8294 151.708 40.3926 151.938C41.5821 152.422 42.9097 151.821 44.0519 151.233C42.8243 153.445 41.8094 155.769 41.0209 158.172L27.7389 144.929C27.2457 144.436 26.722 143.893 26.5938 143.204C27.9845 141.902 31.415 137.279 30.9899 139.102C29.2746 146.469 32.7386 143.467 34.2783 142.299Z" fill="#FFF9F2"/>
<path id="Vector_55" d="M22.2521 134.113C21.6268 133.619 21.6603 132.601 22.0973 131.934C22.5342 131.267 23.273 130.864 23.9782 130.486C25.94 129.434 25.6283 130.626 27.5902 129.574C28.0567 129.324 29.1604 126.173 31.3383 126.784C32.3542 127.069 33.3474 127.511 33.7765 128.474C34.2055 129.436 34.2233 130.526 34.2332 131.581C34.2381 132.15 34.242 132.73 34.0763 133.274C33.9106 133.819 33.598 134.276 33.2873 134.738L28.8487 141.305C28.468 141.868 27.9758 142.489 27.2972 142.489C26.373 142.48 25.9381 141.38 25.295 140.713C24.281 139.667 22.4888 139.607 21.608 138.445C20.7805 137.353 21.1247 135.807 21.5094 134.491C21.8349 133.369 22.3438 132.065 23.4821 131.806" fill="#FDEFE8"/>
<path id="Vector_56" d="M24.8123 137.318C25.5747 137.22 26.281 136.863 26.9102 136.423C28.353 135.394 29.4621 133.965 30.1001 132.312C30.0077 132.738 30.0692 133.183 30.2737 133.568C30.4783 133.953 30.8126 134.253 31.2174 134.416C31.6222 134.578 32.0713 134.591 32.4852 134.454C32.899 134.316 33.2509 134.037 33.4783 133.665C31.8015 136.638 30.0793 139.671 27.5139 141.922C27.4151 142.024 27.2928 142.099 27.1578 142.141C26.7485 142.24 26.4575 141.774 26.2228 141.426C25.2571 139.997 23.2568 139.651 22.0939 138.376C21.6787 137.92 20.5474 135.212 21.6146 135.361C22.0091 135.417 22.4619 136.467 22.7479 136.717C23.0295 136.959 23.3593 137.137 23.7153 137.24C24.0713 137.344 24.4453 137.371 24.8123 137.318Z" fill="#FCE4D8"/>
<path id="Vector_57" d="M31.096 128.849C31.3801 129.097 31.5418 129.457 31.6444 129.82C31.7966 130.373 31.8294 130.953 31.7406 131.52C31.6518 132.088 31.4436 132.63 31.1296 133.11C30.5703 132.124 28.3678 131.355 28.2001 130.273C28.0078 129.04 30.2478 128.106 31.096 128.849Z" fill="#FCE4D8"/>
<path id="Vector_58" d="M25.7385 143.803C30.3388 148.961 34.6156 154.691 40.4271 158.578C41.301 159.163 42.1177 157.751 41.2497 157.17C35.5753 153.372 31.3863 147.69 26.8916 142.651C26.1913 141.862 25.0422 143.022 25.7385 143.803Z" fill="#2D1111"/>
<path id="Vector_59" d="M26.9414 143.608C30.0837 141.369 32.6503 138.417 34.4307 134.993C34.911 134.063 33.5055 133.238 33.0232 134.171C31.388 137.355 29.022 140.107 26.1188 142.201C25.7608 142.457 25.5891 142.911 25.8229 143.316C26.029 143.668 26.5784 143.865 26.9375 143.612L26.9414 143.608Z" fill="#2D1111"/>
<path id="Vector_60" d="M30.2706 147.291C33.7023 144.666 36.4771 141.28 38.3764 137.399C38.8321 136.459 37.4275 135.633 36.9699 136.576C35.2161 140.217 32.6433 143.403 29.453 145.884C29.1048 146.152 28.9184 146.584 29.1571 146.998C29.3543 147.34 29.9205 147.561 30.2716 147.294L30.2706 147.291Z" fill="#2D1111"/>
<path id="Vector_61" d="M27.5635 131.164C28.1494 131.567 28.8872 131.908 29.3389 132.475C29.767 133.014 29.6417 133.703 29.4375 134.308C28.9276 135.798 27.7795 137.129 26.6107 138.155C26.0357 138.66 25.3058 139.192 24.5128 139.224C23.7197 139.255 23.0066 138.704 22.5825 138.076C21.6248 136.66 21.8082 134.796 22.6259 133.366C23.4436 131.936 25.4182 129.772 27.2617 130.469C27.674 130.625 28.1553 130.296 28.2638 129.9C28.3901 129.442 28.108 129.055 27.6947 128.898C25.3531 128.01 22.9465 130.098 21.6691 131.857C20.3238 133.71 19.873 136.155 20.8396 138.28C21.322 139.339 22.2087 140.239 23.3055 140.647C24.4023 141.055 25.5741 140.797 26.5604 140.207C28.3181 139.158 29.8922 137.296 30.7287 135.437C31.2139 134.358 31.498 133.119 30.9535 132.003C30.4387 130.947 29.3123 130.396 28.3891 129.762C27.5221 129.17 26.7064 130.578 27.5665 131.168L27.5635 131.164Z" fill="#2D1111"/>
<path id="Vector_62" d="M23.8213 140.615L25.7378 142.659C25.8914 142.81 26.0983 142.895 26.3138 142.895C26.5293 142.895 26.7361 142.81 26.8898 142.659C27.0386 142.504 27.1217 142.298 27.1217 142.083C27.1217 141.868 27.0386 141.662 26.8898 141.507L24.9743 139.463C24.8205 139.312 24.6135 139.228 24.3978 139.228C24.1822 139.228 23.9751 139.312 23.8213 139.463C23.6728 139.618 23.5898 139.825 23.5898 140.039C23.5898 140.254 23.6728 140.46 23.8213 140.615Z" fill="#2D1111"/>
<path id="Vector_63" d="M28.7105 129.994C29.1662 129.166 29.7955 128.366 30.6171 127.876C30.9899 127.653 31.3894 127.509 31.8007 127.544C32.134 127.582 32.443 127.737 32.6716 127.982C33.2141 128.535 33.4785 129.473 33.5416 130.186C33.6649 131.567 33.3956 132.935 33.083 134.276C32.8443 135.296 34.4155 135.732 34.6542 134.709C35.173 132.483 35.607 130.004 34.5506 127.864C34.1295 127.01 33.4006 126.278 32.4655 126.02C31.4466 125.737 30.3607 126.051 29.5154 126.648C28.5985 127.313 27.8433 128.177 27.306 129.174C26.801 130.093 28.2075 130.916 28.7135 129.995L28.7105 129.994Z" fill="#2D1111"/>
<path id="Vector_64" d="M34.3424 135.554C34.7249 135.774 35.092 136.02 35.4412 136.29C35.387 136.247 35.3317 136.205 35.2765 136.162C35.7092 136.499 36.1131 136.872 36.4838 137.276C36.6376 137.427 36.8446 137.512 37.0603 137.512C37.276 137.512 37.483 137.427 37.6368 137.276C37.7851 137.121 37.8679 136.914 37.8679 136.7C37.8679 136.485 37.7851 136.279 37.6368 136.124C36.9178 135.345 36.0843 134.679 35.165 134.151C34.7962 133.938 34.2566 134.052 34.0505 134.447C33.9456 134.635 33.9179 134.856 33.9731 135.064C34.0283 135.272 34.1621 135.45 34.3464 135.562L34.3424 135.554Z" fill="#2D1111"/>
<path id="Vector_65" d="M37.6295 137.766C40.9892 140.235 44.5075 142.48 48.1616 144.487C49.0809 144.993 49.9044 143.585 48.9832 143.08C45.3298 141.072 41.8119 138.827 38.4521 136.359C38.094 136.097 37.5456 136.302 37.3365 136.655C37.0909 137.067 37.2764 137.512 37.6324 137.77L37.6295 137.766Z" fill="#2D1111"/>
<path id="Vector_66" d="M89.2905 134.477C89.8399 131.665 92.3797 129.362 95.2322 129.091C97.4525 128.879 99.6145 129.776 101.643 130.698C102.432 131.054 103.233 131.435 103.799 132.085C104.833 133.274 104.808 135.031 104.626 136.597C104.451 138.112 104.183 139.615 103.824 141.098C103.528 142.336 103.143 143.596 102.33 144.578C100.933 146.263 98.5818 146.776 96.3941 146.929C96.1524 146.946 95.894 146.965 95.7037 147.118C95.5133 147.271 95.4452 147.513 95.3811 147.74C94.7518 149.969 94.1222 152.2 93.4923 154.43C93.4361 154.627 93.372 154.842 93.2132 154.977C92.9981 155.159 92.6835 155.142 92.4034 155.114C91.7563 155.047 91.0955 154.977 90.4613 155.119C89.8271 155.262 89.2106 155.659 88.9818 156.269C88.9524 155.765 88.8081 155.276 88.5598 154.837C88.3115 154.399 87.9659 154.023 87.5496 153.739C88.6241 151.127 89.567 148.466 90.3784 145.756C90.4771 145.434 90.5757 145.094 90.5027 144.764C90.3942 144.228 89.901 143.876 89.4819 143.526C88.1907 142.449 87.2902 140.894 87.0801 139.225C86.87 137.556 87.3701 135.796 88.4876 134.54C89.0005 133.962 89.6712 133.42 89.762 132.653" fill="#4C4B49"/>
<path id="Vector_67" d="M87.0646 165.772C87.1804 165.8 87.302 165.791 87.4128 165.747C87.7185 165.588 88.4494 164.004 88.3685 163.676C88.2561 163.227 86.2213 160.251 85.7912 160.125C84.0996 159.616 83.788 163.345 83.5039 164.633C84.2713 165.151 86.1463 165.643 87.0646 165.772Z" fill="#4C4B49"/>
<path id="Vector_68" d="M101.729 140.197C99.4481 144.92 88.7976 141.612 89.9625 136.779C90.1657 135.941 89.7021 135.801 89.3569 136.498C85.9915 143.304 102.429 147.69 102.094 140.246C102.086 140.039 101.803 140.042 101.729 140.197Z" fill="#666461"/>
<path id="Vector_69" d="M102.364 133.119C102.212 132.955 102.027 132.825 101.822 132.735C101.616 132.645 101.395 132.598 101.171 132.597C101.098 132.59 101.025 132.608 100.965 132.649C100.905 132.691 100.862 132.752 100.843 132.823C100.824 132.893 100.83 132.968 100.862 133.034C100.893 133.1 100.947 133.152 101.013 133.182C101.27 133.325 101.467 133.552 101.669 133.76C101.89 133.989 101.965 134.319 102.287 134.426C102.352 134.451 102.423 134.455 102.49 134.437C102.557 134.42 102.617 134.381 102.66 134.327C102.949 133.927 102.648 133.44 102.364 133.119Z" fill="#D0D2D3"/>
<path id="Vector_70" d="M102.953 134.976C102.938 134.89 102.894 134.812 102.828 134.755C102.789 134.723 102.742 134.702 102.693 134.692C102.643 134.682 102.592 134.684 102.543 134.697C102.498 134.709 102.455 134.73 102.419 134.759C102.382 134.788 102.352 134.825 102.331 134.866C102.309 134.908 102.297 134.954 102.294 135C102.292 135.047 102.299 135.094 102.316 135.137C102.325 135.155 102.332 135.174 102.338 135.193C102.338 135.196 102.338 135.2 102.338 135.203C102.345 135.243 102.349 135.283 102.351 135.324C102.356 135.364 102.368 135.402 102.388 135.437C102.408 135.472 102.435 135.502 102.466 135.527C102.509 135.56 102.559 135.581 102.612 135.588C102.665 135.595 102.719 135.589 102.769 135.569C102.819 135.549 102.863 135.516 102.896 135.474C102.929 135.433 102.951 135.383 102.959 135.33C102.98 135.212 102.978 135.092 102.953 134.976Z" fill="#D0D2D3"/>
<path id="Vector_71" d="M93.0467 155.911C91.9874 154.99 90.7002 155.505 89.5945 156.128C89.2895 156.204 88.996 156.32 88.7216 156.474C88.7216 156.451 88.7216 156.427 88.7147 156.404C88.6271 155.933 88.3787 155.506 88.012 155.198C87.6453 154.889 87.1828 154.717 86.7035 154.711C86.2459 154.701 85.7969 154.836 85.4213 155.098C85.3523 155.117 85.2812 155.13 85.2142 155.154C84.2781 155.487 83.1951 156.268 83.0284 157.315C82.842 158.478 83.7465 159.239 84.7605 159.505C85.3345 159.657 85.9164 159.725 86.4678 159.623C86.2705 160.61 86.4333 161.617 87.104 162.415C89.2227 164.934 92.8731 162.633 93.6257 160.146C94.0054 158.87 94.1701 156.89 93.0467 155.911Z" fill="#FDEFE8"/>
<path id="Vector_72" d="M91.0951 162.108C90.2311 161.463 89.3937 160.628 89.1984 159.516C89.011 158.444 89.4824 157.439 89.9135 156.489C90.1374 155.996 89.439 155.614 89.1076 156.018L89.0445 156.098C88.9384 156.058 88.8223 156.053 88.7132 156.084C88.6042 156.115 88.5081 156.181 88.4389 156.27C87.9546 156.932 87.4742 157.633 86.6477 157.849C85.9227 158.035 85.108 157.8 84.6908 157.127C84.3278 156.541 83.4717 157.183 83.8317 157.764C84.1917 158.345 84.4235 158.923 85.0212 159.297C85.5302 159.616 86.0756 159.652 86.6447 159.568C86.0302 161.391 88.4645 164.707 90.886 163.553C91.4413 163.287 91.6386 162.512 91.0951 162.108Z" fill="#FCE4D8"/>
<path id="Vector_73" d="M90.5007 144.096C89.6475 143.313 88.9699 142.357 88.3308 141.394C87.6748 140.398 87.3651 139.465 87.7133 138.289C88.0477 137.158 88.7519 136.158 89.3704 135.171L91.3726 131.974C91.9309 131.087 90.5214 130.264 89.9661 131.152C89.1869 132.396 88.408 133.639 87.6295 134.881C86.9311 135.999 86.2091 137.186 85.9931 138.508C85.784 139.79 86.1214 140.95 86.8049 142.033C87.5249 143.174 88.3475 144.334 89.3437 145.248C90.115 145.957 91.271 144.807 90.4968 144.096H90.5007Z" fill="#2D1111"/>
<path id="Vector_74" d="M92.0332 131.196C92.8657 129.908 94.5632 129.889 95.9273 130.087C97.5577 130.324 99.1319 130.894 100.662 131.479C101.419 131.768 102.268 132.008 102.891 132.547C103.771 133.311 103.813 134.693 103.85 135.772C103.933 138.182 103.418 140.575 102.348 142.736C101.828 143.779 101.129 145.26 99.9733 145.713C99.3262 145.966 98.5687 145.94 97.8862 145.954C97.1277 145.97 96.3702 145.954 95.6176 145.905C94.5701 145.835 94.575 147.466 95.6176 147.536C97.0803 147.634 98.765 147.752 100.194 147.352C101.581 146.964 102.438 145.831 103.153 144.655C104.609 142.244 105.412 139.497 105.485 136.682C105.521 135.308 105.468 133.758 104.866 132.498C104.275 131.266 103.091 130.669 101.876 130.206C100.13 129.539 98.3744 128.848 96.5221 128.542C94.3413 128.181 91.9356 128.344 90.6257 130.373C90.0546 131.261 91.4651 132.075 92.0332 131.196Z" fill="#2D1111"/>
<path id="Vector_75" d="M93.989 132.221L91.9039 136.803C91.7274 137.191 91.7796 137.699 92.1998 137.919C92.5569 138.107 93.126 138.04 93.3144 137.623L95.4005 133.04C95.5761 132.654 95.5238 132.146 95.1046 131.926C94.7475 131.736 94.1784 131.803 93.99 132.222L93.989 132.221Z" fill="#2D1111"/>
<path id="Vector_76" d="M96.8106 133.976C96.3634 135.507 95.917 137.038 95.4711 138.57C95.3518 138.979 95.6161 139.475 96.0402 139.572C96.2485 139.625 96.4692 139.596 96.6561 139.489C96.843 139.383 96.9814 139.209 97.0424 139.003C97.4895 137.472 97.936 135.941 98.3818 134.409C98.5012 134 98.2368 133.504 97.8127 133.407C97.6045 133.354 97.3837 133.384 97.1969 133.49C97.01 133.596 96.8715 133.77 96.8106 133.976Z" fill="#2D1111"/>
<path id="Vector_77" d="M99.8475 134.88C99.5023 136.376 99.1574 137.873 98.8129 139.37C98.7142 139.785 98.9411 140.272 99.382 140.373C99.7982 140.471 100.283 140.247 100.385 139.804C100.729 138.306 101.074 136.809 101.419 135.313C101.517 134.899 101.292 134.411 100.85 134.311C100.434 134.212 99.9501 134.435 99.8475 134.88Z" fill="#2D1111"/>
<path id="Vector_78" d="M89.6859 145.574C89.0319 148.134 88.1631 150.635 87.0889 153.049C86.9094 153.451 86.9725 153.925 87.3848 154.164C87.733 154.368 88.3199 154.275 88.5004 153.868C89.6407 151.329 90.5645 148.698 91.2621 146.003C91.5235 144.986 89.9523 144.553 89.6909 145.57L89.6859 145.574Z" fill="#2D1111"/>
<path id="Vector_79" d="M94.5675 146.946L91.8837 154.257C91.7327 154.671 92.0543 155.145 92.4528 155.259C92.9075 155.385 93.303 155.106 93.4559 154.69L96.1397 147.379C96.2906 146.965 95.9691 146.491 95.5706 146.376C95.1159 146.252 94.7204 146.531 94.5675 146.946Z" fill="#2D1111"/>
<path id="Vector_80" d="M86.4495 155.23C86.3114 155.291 86.5481 155.215 86.5994 155.199C86.4722 155.242 86.5402 155.199 86.5994 155.199C86.6586 155.199 86.698 155.199 86.7424 155.199C86.7868 155.199 86.841 155.199 86.8864 155.208C86.7178 155.19 86.8766 155.208 86.92 155.223C86.9634 155.238 87.2435 155.34 87.1064 155.274C87.1961 155.318 87.278 155.373 87.3658 155.418C87.4891 155.484 87.4161 155.447 87.3816 155.418C87.42 155.449 87.4585 155.482 87.494 155.517C87.568 155.583 87.6363 155.655 87.6982 155.733C87.6104 155.621 87.6883 155.724 87.6982 155.747C87.7376 155.82 87.783 155.89 87.8195 155.964C87.8994 156.122 87.8511 156.04 87.8392 156.008C87.859 156.062 87.8767 156.117 87.8925 156.173C87.8994 156.197 87.9665 156.502 87.9477 156.38C87.9635 156.495 87.9704 156.612 87.9684 156.728C87.9684 156.786 87.9684 156.846 87.9684 156.904C87.9684 156.904 87.9428 157.162 87.9605 157.038C87.9215 157.27 87.8624 157.499 87.784 157.721C87.7337 157.873 87.7524 157.806 87.7682 157.769C87.7465 157.82 87.7219 157.867 87.6962 157.923C87.6337 158.05 87.5638 158.175 87.4871 158.294C87.2793 158.649 86.9614 158.926 86.5816 159.084C86.6231 159.066 86.6645 159.06 86.5264 159.098C86.4692 159.114 86.413 159.133 86.3548 159.148C86.2976 159.162 86.2396 159.174 86.1812 159.183C86.2256 159.177 86.2848 159.183 86.1329 159.183C86.0737 159.183 86.0155 159.183 85.9553 159.183C85.9405 159.183 85.8005 159.162 85.909 159.183C85.8508 159.172 85.7916 159.158 85.7344 159.142C85.7344 159.142 85.5065 159.057 85.5953 159.096C85.1485 158.899 84.8625 158.628 84.5202 158.268C84.4525 158.203 84.391 158.133 84.3367 158.057C84.2681 157.962 84.2099 157.861 84.1631 157.754C84.2134 157.881 84.1217 157.557 84.1355 157.644C84.129 157.581 84.1273 157.517 84.1306 157.453C84.1264 157.414 84.1311 157.374 84.1444 157.337C84.243 156.863 84.5547 156.306 84.8171 155.971C84.7648 156.038 84.8694 155.91 84.8802 155.897C84.9246 155.847 84.969 155.798 85.0153 155.752C85.0617 155.705 85.0923 155.68 85.1298 155.643C85.254 155.519 85.0716 155.665 85.2067 155.581C85.2481 155.555 85.2945 155.53 85.3349 155.502C85.4819 155.404 85.2422 155.51 85.4128 155.465L85.5559 155.426C85.4197 155.463 85.5805 155.426 85.6407 155.426C86.0668 155.426 86.4751 155.054 86.4554 154.611C86.4521 154.396 86.3652 154.191 86.2131 154.039C86.061 153.887 85.8557 153.8 85.6407 153.797C84.1562 153.811 83.1748 155.223 82.6994 156.482C82.4104 157.249 82.4371 158.101 82.8809 158.805C83.2646 159.414 83.8584 159.943 84.459 160.328C85.7916 161.182 87.5108 160.821 88.5149 159.631C89.4253 158.555 89.8957 156.949 89.4134 155.587C88.8621 154.036 87.1744 153.159 85.6308 153.836C85.2284 154.013 85.1376 154.602 85.3349 154.951C85.5776 155.366 86.0451 155.42 86.4495 155.247V155.23Z" fill="#2D1111"/>
<path id="Vector_81" d="M89.9375 156.67C90.48 156.358 91.0984 155.98 91.7504 156.032C92.3787 156.084 92.5996 156.532 92.7278 157.095C93.0415 158.476 92.4714 159.986 91.8914 161.224C91.4269 162.21 90.7394 163.325 89.4769 162.993C88.5467 162.749 87.0278 161.643 87.3592 160.519C87.6551 159.511 86.0839 159.081 85.788 160.086C85.3254 161.656 86.4784 163.127 87.7133 163.954C88.9797 164.802 90.6279 164.984 91.8727 164.004C92.9922 163.123 93.583 161.586 94.014 160.273C94.4914 158.817 94.7409 156.906 93.8562 155.539C93.363 154.781 92.5148 154.393 91.6241 154.397C90.7167 154.397 89.8832 154.817 89.1149 155.26C88.2065 155.782 89.0261 157.191 89.9375 156.666V156.67Z" fill="#2D1111"/>
<path id="Vector_82" d="M84.1897 160.285C83.9037 161.087 83.618 161.888 83.3326 162.689L82.8858 163.942C82.724 164.396 82.6017 164.872 82.8611 165.323C83.1008 165.737 83.52 165.898 83.9461 166.065C84.3209 166.214 84.7036 166.345 85.0903 166.46C85.9202 166.698 86.7694 166.863 87.6281 166.953C88.0098 166.995 88.289 166.664 88.4172 166.355C88.7394 165.559 89.0616 164.763 89.3838 163.968C89.5495 163.56 89.2043 163.072 88.8147 162.966C88.3491 162.838 87.9792 163.126 87.8126 163.535C87.4897 164.33 87.1675 165.126 86.846 165.922L87.635 165.323C86.9748 165.246 86.3218 165.117 85.6821 164.937C85.3618 164.847 85.0446 164.745 84.7303 164.631C84.5951 164.582 84.3929 164.508 84.3012 164.466C84.3337 164.481 84.172 164.399 84.174 164.399C84.2834 164.414 84.3821 164.725 84.3416 164.739C84.3357 164.739 84.3742 164.651 84.3939 164.592C84.4136 164.534 84.4442 164.453 84.4689 164.384L84.6553 163.862C84.7796 163.513 84.9035 163.165 85.0271 162.816L85.7728 160.727C85.9208 160.312 85.6051 159.839 85.2037 159.724C84.752 159.601 84.3495 159.878 84.2016 160.293L84.1897 160.285Z" fill="#2D1111"/>
<path id="Vector_83" d="M88.6035 150.577C85.4472 150.676 82.6075 153.094 81.4584 155.951C80.3409 158.729 81.1063 162.044 83.6057 163.788C84.4678 164.391 85.2825 162.979 84.4283 162.382C82.5395 161.063 82.1597 158.437 83.0178 156.415C83.9331 154.245 86.182 152.285 88.6035 152.207C89.649 152.173 89.6539 150.544 88.6035 150.577Z" fill="#2D1111"/>
<path id="Vector_84" d="M78.8395 166.209C80.3368 167.688 82.8036 167.984 84.6007 166.882C84.9637 166.659 85.1343 166.142 84.8966 165.767C84.6589 165.392 84.1707 165.236 83.782 165.471C83.6962 165.524 83.6084 165.57 83.5187 165.621C83.4694 165.647 83.4201 165.668 83.3678 165.694C83.4299 165.661 83.4595 165.658 83.3776 165.694C83.1899 165.766 82.997 165.823 82.8006 165.867C82.7572 165.875 82.7128 165.882 82.6694 165.892C82.5116 165.925 82.7553 165.892 82.6537 165.892C82.5521 165.892 82.4564 165.912 82.3518 165.917C82.1504 165.924 81.9488 165.917 81.7482 165.897C81.6496 165.888 81.6969 165.886 81.764 165.897C81.7206 165.888 81.6762 165.882 81.6318 165.874C81.5332 165.856 81.4346 165.833 81.3359 165.806C81.2373 165.78 81.1387 165.751 81.0469 165.719C80.9937 165.7 80.9424 165.678 80.8901 165.659C80.7777 165.619 81.0045 165.718 80.9 165.659C80.719 165.571 80.5432 165.472 80.3733 165.364C80.3269 165.333 80.2825 165.299 80.2362 165.265C80.2953 165.305 80.3062 165.323 80.2431 165.265C80.1572 165.192 80.0744 165.117 79.9945 165.038C79.6907 164.742 79.1413 164.713 78.8425 165.038C78.6929 165.193 78.6094 165.399 78.6094 165.615C78.6094 165.83 78.6929 166.036 78.8425 166.191L78.8395 166.209Z" fill="#2D1111"/>
<path id="Vector_85" d="M75.1667 148.722C76.1062 149.495 77.0885 150.215 78.109 150.877C78.5814 151.194 79.0568 151.509 79.5086 151.855C79.9199 152.17 80.2977 152.604 80.8135 152.756C81.3905 152.929 81.93 152.735 82.4814 152.564C83.135 152.361 83.7965 152.186 84.4659 152.039C85.8113 151.747 87.1796 151.573 88.5553 151.519C89.5998 151.474 89.6057 149.842 88.5553 149.889C87.356 149.941 86.1615 150.072 84.9798 150.284C84.3453 150.397 83.7163 150.535 83.0929 150.699C82.7813 150.78 82.4715 150.867 82.1638 150.961C81.9438 151.028 81.6391 151.195 81.4063 151.191C81.0453 151.183 80.6251 150.674 80.3312 150.452C79.9307 150.156 79.5175 149.868 79.1012 149.589C78.1474 148.949 77.1966 148.317 76.3188 147.574C75.5228 146.901 74.3638 148.049 75.1667 148.727V148.722Z" fill="#2D1111"/>
<path id="Vector_86" d="M126.119 101.418L119.178 108.824C104.911 94.9892 86.7275 86.4791 68.9448 77.8792C65.6041 76.2646 61.1528 75.0839 57.5211 74.3195C47.8451 72.2818 37.9215 70.8812 28.0296 70.8249C29.4982 65.6388 30.5684 60.6933 32.5026 56.0101C26.4534 48.7694 26.3054 37.2697 31.2204 29.2173C34.3323 24.1287 39.0381 20.1755 44.4807 17.7501C53.4613 13.7485 63.7636 11.8479 73.194 14.6303C74.5334 15.0249 75.8975 15.518 77.2873 15.373C80.4436 15.0446 80.3282 12.2661 82.2594 9.7509C88.5246 1.58107 103.483 -0.741756 113.428 1.92431C123.372 4.59039 129.495 8.90463 136.489 16.46C138.516 18.6487 140.501 22.7923 141.94 25.4051C144.751 30.5054 145.831 37.1316 144.875 42.8761C143.919 48.6205 141.966 53.6311 138.884 58.5697C138.641 58.5213 138.418 58.4002 138.244 58.2223C138.071 58.0444 137.956 57.8182 137.914 57.5735C137.38 57.5676 137.323 58.3458 137.68 58.7443C138.037 59.1428 138.619 59.2177 139.145 59.3114C142.347 59.8845 145.113 62.0455 146.962 64.7215C148.812 67.3974 149.835 70.5586 150.54 73.7346C151.274 77.0512 151.685 80.431 151.769 83.8268C151.848 87.1202 151.588 90.5339 150.058 93.4505C148.751 95.945 146.614 97.8891 144.424 99.6645C142.698 101.061 140.841 102.417 138.677 102.912C137.161 103.261 135.579 103.164 134.035 102.969C131.548 102.653 129.1 102.086 126.726 101.278C126.569 101.463 126.284 101.242 126.119 101.418Z" fill="#FFF9F2"/>
<path id="Vector_87" d="M139.419 87.2013C135.516 85.2641 131.923 82.4373 129.837 78.6113C127.751 74.7853 127.391 69.8664 129.609 66.1163C125.995 67.2999 121.817 66.6233 118.773 64.3488C115.729 62.0743 113.883 58.2661 113.993 54.4637C105.755 57.0124 96.6762 57.5618 88.5784 54.592C80.4806 51.6221 73.5782 44.772 71.86 36.321C67.0802 43.0735 59.2694 48.9412 51.1568 47.3207C48.9109 46.8719 48.249 46.5819 46.9264 44.7118C46.0692 43.5006 44.7969 43.2017 44.9487 41.3524C44.761 41.3336 44.5841 41.2555 44.4437 41.1294C44.1056 40.8266 43.8336 40.4572 43.6448 40.0445C40.5674 42.7855 36.1378 45.6498 33.9314 45.057C31.4566 44.3932 29.2374 40.4213 28.2106 44.8844C27.5734 47.662 30.1172 51.9861 32.5929 54.6413C33.3731 55.4777 32.2654 56.4709 33.4096 56.4936C34.0546 56.5055 35.9652 55.0753 36.5284 54.7606C40.4116 52.5907 45.2742 53.4883 49.7226 53.3906C64.5483 53.0886 79.1881 56.7308 92.144 63.9444C97.8894 67.1549 103.23 71.0332 108.556 74.9016C113.155 78.2434 117.844 81.6729 121.098 86.3343C124.216 90.8014 126.414 97.8458 124.691 103.054C124.737 103.016 124.787 102.983 124.839 102.955C125.571 102.581 126.259 102.133 127.037 101.852C127.879 101.548 128.646 101.645 129.431 102.059C129.959 102.339 130.494 102.605 131.026 102.874C134.25 103.004 137.657 103.466 138.883 103.791C129.028 99.279 134.778 90.2224 139.419 87.2013Z" fill="#FAB292"/>
<path id="Vector_88" d="M28.3959 72.287C34.4915 71.8284 40.6571 72.3285 46.6846 73.2665C53.4298 74.3185 60.0753 75.9329 66.5514 78.0926C72.7841 80.1698 78.711 82.8941 84.5274 85.934C90.766 89.1948 96.8567 92.7585 102.702 96.6851C108.398 100.514 114.028 104.69 118.68 109.774C119.39 110.549 120.54 109.394 119.832 108.622C115.69 104.094 110.758 100.297 105.739 96.7936C99.9192 92.7269 93.8099 89.0607 87.5575 85.6963C81.6394 82.5134 75.6031 79.5682 69.2718 77.3124C62.767 74.997 56.0777 73.2369 49.2757 72.0513C42.4138 70.8509 35.3624 70.1339 28.3959 70.6576C27.3563 70.7355 27.3485 72.3659 28.3959 72.287Z" fill="#2D1111"/>
<path id="Vector_89" d="M31.5968 55.8416C30.3758 60.8867 28.5786 65.8036 27.5923 70.904C27.395 71.9278 28.9643 72.3667 29.1635 71.337C30.1499 66.2366 31.947 61.3197 33.1681 56.2746C33.4147 55.2557 31.8434 54.8218 31.5968 55.8416Z" fill="#2D1111"/>
<path id="Vector_90" d="M119.749 109.596C122.451 106.86 125.061 104 128.046 101.563C128.388 101.285 128.335 100.7 128.046 100.411C127.709 100.074 127.236 100.132 126.894 100.411C123.909 102.848 121.298 105.707 118.596 108.444C117.859 109.192 119.01 110.345 119.749 109.596Z" fill="#2D1111"/>
<path id="Vector_91" d="M101.97 70.4406C106.286 73.3992 110.344 76.7169 114.102 80.3582C114.856 81.0881 116.01 79.937 115.254 79.2061C111.393 75.4701 107.223 72.0673 102.789 69.034C101.922 68.4422 101.105 69.8517 101.967 70.4406H101.97Z" fill="#2D1111"/>
<path id="Vector_92" d="M63.004 55.2085C72.5853 56.688 81.9486 59.5484 90.652 63.837C93.085 65.0337 95.4594 66.3347 97.7754 67.7399C98.6749 68.2834 99.4946 66.8749 98.598 66.3324C90.2589 61.3007 81.2001 57.5725 71.7351 55.2765C68.9943 54.6111 66.2287 54.0647 63.438 53.6372C62.4112 53.4784 61.9693 55.0487 63.004 55.2085Z" fill="#2D1111"/>
<path id="Vector_93" d="M36.9427 54.6215C43.7484 53.9294 50.605 53.8963 57.4171 54.5229C58.4616 54.6215 58.4547 52.9901 57.4171 52.8935C50.605 52.2669 43.7484 52.2999 36.9427 52.9921C35.91 53.0907 35.8991 54.7271 36.9427 54.6215Z" fill="#2D1111"/>
<path id="Vector_94" d="M34.0657 55.7845C31.7744 53.3285 30.0493 50.406 29.2386 47.1323C28.5274 44.2601 28.5481 41.236 29.1399 38.344C30.3235 32.5671 33.5558 27.2241 37.8098 23.183C42.6518 18.5857 49.1419 15.9236 55.6626 14.8159C59.2134 14.2123 62.849 14.089 66.4393 14.3514C68.2814 14.486 70.1142 14.7277 71.9283 15.0753C72.7956 15.241 73.6586 15.4298 74.5174 15.6415C75.4278 15.8664 76.3599 16.2382 77.2969 16.3181C79.1394 16.4769 79.8545 14.81 80.7491 13.5238C81.5808 12.3202 82.5041 11.1825 83.5108 10.121C85.3613 8.16773 87.4962 6.5051 89.8431 5.18928C94.4325 2.6248 99.6996 1.52109 104.934 1.62367C115.691 1.83376 126.404 6.84238 133.715 14.6877C138.624 19.9528 142.286 26.5869 143.66 33.6806C145.012 40.657 143.888 48.1581 140.077 54.2103C139.168 55.6503 138.107 56.9883 136.911 58.201C136.389 58.7326 136.801 59.5385 137.487 59.5917C141.271 59.8876 144.206 62.5705 146.179 65.6281C148.514 69.2489 149.808 73.5089 150.549 77.7245C151.375 82.4146 151.257 87.3315 149.527 91.8095C148.048 95.6394 145.332 99.1241 141.629 101.005C137.505 103.099 132.287 103.058 128.461 100.339C127.605 99.7307 126.79 101.144 127.639 101.747C131.315 104.359 136.247 104.729 140.447 103.264C144.787 101.751 148.184 98.3321 150.212 94.2625C152.48 89.7086 153.045 84.5461 152.449 79.5325C151.885 74.7724 150.567 69.8891 148.145 65.7238C145.837 61.7498 142.267 58.3331 137.492 57.9662L138.069 59.357C143.189 54.1471 145.802 46.866 145.849 39.6174C145.9 31.924 143.021 24.3933 138.612 18.1636C135.108 13.1961 130.585 9.0337 125.343 5.95467C120.476 3.0943 115.043 1.13346 109.446 0.363126C104.012 -0.383532 98.3789 -0.0254919 93.2055 1.87419C87.8083 3.85575 83.207 7.40952 79.817 12.0424C79.3435 12.6884 78.9135 13.3611 78.4716 14.0288C78.2586 14.3504 78.0327 14.6719 77.6224 14.7084C77.1667 14.7489 76.6676 14.5289 76.2346 14.4125C74.4235 13.9156 72.5861 13.5204 70.7308 13.2289C67.0143 12.6315 63.2412 12.4661 59.4866 12.7357C52.2518 13.2812 44.9095 15.5439 39.0901 19.9814C34.3123 23.6259 30.583 28.7598 28.561 34.4174C26.4117 40.4291 26.533 47.1313 29.7653 52.7396C30.6541 54.2578 31.713 55.6698 32.9216 56.9483C33.6386 57.7167 34.7887 56.5627 34.0736 55.7963L34.0657 55.7845Z" fill="#2D1111"/>
<path id="Vector_95" d="M44.18 40.6993C42.3828 44.9475 42.7004 49.893 45.1663 53.8176C45.7226 54.7053 47.133 53.8877 46.5738 52.996C44.4482 49.605 44.0211 45.2257 45.5875 41.52C45.761 41.1116 45.7068 40.651 45.2916 40.4044C44.9523 40.2012 44.3476 40.292 44.177 40.7003L44.18 40.6993Z" fill="#2D1111"/>
<path id="Vector_96" d="M116.074 80.876C119.856 78.2735 123.07 74.9295 125.52 71.0471C126.081 70.1594 124.672 69.3388 124.114 70.2245C121.815 73.8733 118.8 77.018 115.251 79.4685C114.393 80.0603 115.207 81.4727 116.074 80.876Z" fill="#2D1111"/>
<path id="Vector_97" d="M118.142 83.6132C119.87 84.1729 121.691 84.389 123.502 84.2494C123.926 84.2158 124.337 83.8982 124.317 83.4346C124.298 83.0214 123.957 82.5834 123.502 82.6199C121.836 82.7629 120.158 82.5663 118.57 82.0419C118.362 81.9864 118.14 82.0149 117.953 82.1213C117.765 82.2278 117.627 82.4037 117.568 82.6111C117.516 82.8192 117.546 83.0396 117.652 83.2263C117.758 83.413 117.932 83.5516 118.137 83.6132H118.142Z" fill="#2D1111"/>
<path id="Vector_98" d="M124.322 94.2626C124.36 96.2652 125.032 98.2042 126.241 99.8009C126.499 100.137 126.953 100.352 127.355 100.097C127.688 99.8828 127.925 99.3433 127.651 98.9823C127.369 98.6177 127.116 98.2311 126.896 97.8263C126.704 97.4855 126.544 97.1284 126.416 96.7591C126.125 95.9598 125.969 95.1173 125.955 94.2666C125.946 93.8405 125.587 93.4321 125.14 93.4519C124.693 93.4716 124.315 93.8099 124.325 94.2666L124.322 94.2626Z" fill="#2D1111"/>
<path id="Vector_99" d="M120.073 86.4429C120.578 87.1852 121.034 87.9591 121.439 88.7599C121.624 89.1248 121.834 89.5795 121.973 89.903C122.112 90.2265 122.299 90.7227 122.438 91.1231C122.577 91.5236 123.002 91.8333 123.44 91.6922C123.835 91.563 124.159 91.1202 124.009 90.6891C123.391 88.8967 122.541 87.193 121.481 85.6213C121.242 85.2692 120.753 85.0788 120.366 85.3254C120.015 85.5513 119.818 86.0632 120.07 86.44L120.073 86.4429Z" fill="#2D1111"/>
<path id="Vector_100" d="M58.7898 158.961C59.7573 158.961 60.5416 158.177 60.5416 157.21C60.5416 156.242 59.7573 155.458 58.7898 155.458C57.8224 155.458 57.0381 156.242 57.0381 157.21C57.0381 158.177 57.8224 158.961 58.7898 158.961Z" fill="#2D1111"/>
<path id="Vector_101" d="M65.8611 159.299C66.8286 159.299 67.6128 158.514 67.6128 157.547C67.6128 156.579 66.8286 155.795 65.8611 155.795C64.8937 155.795 64.1094 156.579 64.1094 157.547C64.1094 158.514 64.8937 159.299 65.8611 159.299Z" fill="#2D1111"/>
<path id="Vector_102" d="M58.7898 165.113C59.7573 165.113 60.5416 164.329 60.5416 163.361C60.5416 162.394 59.7573 161.61 58.7898 161.61C57.8224 161.61 57.0381 162.394 57.0381 163.361C57.0381 164.329 57.8224 165.113 58.7898 165.113Z" fill="#400705"/>
<path id="Vector_103" d="M66.2244 165.626C67.1918 165.626 67.9761 164.842 67.9761 163.874C67.9761 162.907 67.1918 162.123 66.2244 162.123C65.2569 162.123 64.4727 162.907 64.4727 163.874C64.4727 164.842 65.2569 165.626 66.2244 165.626Z" fill="#400705"/>
<path id="Vector_104" d="M59.0009 146.909C59.0009 148.211 58.8145 149.508 58.8115 150.809C58.8115 151.236 59.1863 151.644 59.6262 151.625C59.8412 151.621 60.0462 151.534 60.1982 151.381C60.3501 151.229 60.4372 151.024 60.4409 150.809C60.4409 149.508 60.6264 148.211 60.6303 146.909C60.6303 146.483 60.2545 146.075 59.8156 146.094C59.6006 146.098 59.3955 146.185 59.2435 146.337C59.0914 146.489 59.0044 146.694 59.0009 146.909Z" fill="#2D1111"/>
<path id="Vector_105" d="M123.497 148.452C122.371 148.834 121.342 149.458 120.482 150.28C119.623 151.102 118.953 152.102 118.521 153.21C118.087 152.102 117.416 151.103 116.556 150.281C115.696 149.459 114.666 148.835 113.54 148.452C114.666 148.069 115.696 147.445 116.556 146.623C117.416 145.801 118.087 144.801 118.521 143.694C118.953 144.802 119.623 145.802 120.482 146.624C121.342 147.446 122.371 148.07 123.497 148.452Z" fill="#FFF9F2"/>
<path id="Vector_106" d="M119.839 137.619C119.142 137.856 118.504 138.243 117.971 138.752C117.439 139.262 117.024 139.881 116.756 140.568C116.487 139.881 116.072 139.262 115.539 138.753C115.006 138.243 114.368 137.856 113.67 137.619C114.368 137.382 115.006 136.995 115.539 136.486C116.072 135.976 116.487 135.357 116.756 134.671C117.024 135.357 117.439 135.977 117.972 136.486C118.504 136.995 119.142 137.382 119.839 137.619Z" fill="#FFF9F2"/>
<path id="Vector_107" d="M110.517 145.555C110.048 145.715 109.619 145.975 109.261 146.318C108.903 146.661 108.625 147.079 108.445 147.541C108.264 147.078 107.985 146.661 107.626 146.318C107.267 145.975 106.837 145.715 106.367 145.555C106.837 145.395 107.267 145.135 107.626 144.792C107.984 144.449 108.264 144.032 108.445 143.57C108.625 144.031 108.904 144.448 109.261 144.791C109.619 145.134 110.048 145.395 110.517 145.555Z" fill="#FFF9F2"/>
<path id="Vector_108" d="M15.6133 121.283C14.4873 121.666 13.4585 122.29 12.5989 123.112C11.7394 123.934 11.0698 124.934 10.6373 126.041C10.2031 124.934 9.53247 123.934 8.67218 123.112C7.81188 122.29 6.78264 121.666 5.65625 121.283C6.78264 120.9 7.81188 120.276 8.67218 119.454C9.53247 118.632 10.2031 117.633 10.6373 116.525C11.0698 117.633 11.7394 118.633 12.5989 119.455C13.4585 120.277 14.4873 120.901 15.6133 121.283Z" fill="#FFF9F2"/>
<path id="Vector_109" d="M13.5768 95.1906C12.8789 95.4273 12.2413 95.8139 11.7086 96.3232C11.176 96.8325 10.7612 97.4522 10.4935 98.1388C10.2245 97.4521 9.80871 96.8325 9.27529 96.3233C8.74187 95.8141 8.10365 95.4275 7.40527 95.1906C8.10326 94.9531 8.74102 94.5662 9.27407 94.0568C9.80711 93.5475 10.2226 92.9279 10.4915 92.2415C10.7597 92.9283 11.1747 93.5481 11.7077 94.0575C12.2407 94.567 12.8786 94.9537 13.5768 95.1906Z" fill="#FFF9F2"/>
<path id="Vector_110" d="M4.15051 107.6C3.68134 107.76 3.25282 108.02 2.895 108.363C2.53719 108.706 2.25875 109.123 2.0792 109.585C1.89812 109.123 1.61822 108.706 1.25909 108.363C0.89995 108.02 0.470241 107.759 0 107.6C0.470178 107.44 0.899827 107.18 1.25895 106.837C1.61807 106.494 1.898 106.077 2.0792 105.614C2.25892 106.076 2.53743 106.493 2.89521 106.836C3.253 107.179 3.68143 107.44 4.15051 107.6Z" fill="#FFF9F2"/>
<path id="Vector_111" d="M49.5028 144.363C50.1814 144.353 51.2102 144.908 51.8878 144.896C50.7542 148.662 49.6202 152.428 48.4859 156.195C48.3607 156.612 48.2334 157.057 48.3439 157.477C48.5165 158.138 49.1951 158.515 49.8165 158.799C56.2385 161.736 63.6252 162.298 70.5868 161.12C71.0573 161.041 71.4745 161.338 71.8355 161.022C72.2369 160.671 72.2202 159.937 72.3474 159.424C72.9974 156.772 73.5488 151.39 73.7165 148.665C73.7628 147.913 75.338 148.157 76.0521 148.396C75.6793 150.73 75.052 159.848 75.5422 161.967C76.0324 164.085 76.7563 166.026 78.8957 166.427C78.8872 167.325 78.8786 168.224 78.8701 169.124C65.1402 179.456 40.32 170.578 39.0684 165.87C38.9273 165.339 38.3779 165.366 38.3858 165.342C38.8879 163.511 39.2213 161.397 40.684 160.516C42.197 159.605 42.9782 160.579 43.7229 158.885C45.5861 154.652 47.7866 148.665 49.5028 144.363Z" fill="#E05656"/>
<path id="Vector_112" d="M49.0737 143.877C47.7763 146.655 46.5378 149.458 45.3582 152.288C44.7743 153.69 44.2051 155.099 43.6508 156.513C43.4269 157.084 42.6891 159.985 41.6278 159.48C40.6859 159.032 39.8583 160.437 40.8052 160.888C42.2285 161.564 43.6045 160.7 44.2476 159.384C44.9893 157.868 45.5041 156.212 46.1374 154.65C47.4979 151.296 48.9445 147.98 50.4773 144.701C50.9182 143.757 49.5136 142.925 49.0698 143.879L49.0737 143.877Z" fill="#2D1111"/>
<path id="Vector_113" d="M51.1119 145.113C49.6206 149.28 48.408 153.541 47.4822 157.868C47.3836 158.332 47.6203 158.704 48.0513 158.87C55.6878 161.813 63.9385 162.801 72.0538 161.745C72.3793 161.702 72.7808 161.525 72.8429 161.147C73.4801 157.084 74.1169 153.021 74.7534 148.959C74.9142 147.933 73.345 147.491 73.1822 148.526C72.545 152.589 71.9082 156.651 71.2717 160.713L72.0607 160.115C64.0911 161.162 55.9861 160.194 48.4873 157.299L49.0564 158.301C49.9815 153.974 51.1941 149.712 52.6861 145.546C53.0402 144.56 51.466 144.132 51.1139 145.113H51.1119Z" fill="#2D1111"/>
<path id="Vector_114" d="M75.1948 148.447C75.0597 152.189 74.8605 155.935 74.7934 159.679C74.7421 162.599 75.5065 166.159 78.7447 167.042C79.7576 167.319 80.1896 165.746 79.1777 165.471C76.2058 164.66 76.3765 160.816 76.4633 158.407L76.8243 148.445C76.8627 147.397 75.2333 147.399 75.1948 148.445V148.447Z" fill="#2D1111"/>
<path id="Vector_115" d="M58.5556 166.047L58.3425 166.032C57.7951 165.996 57.4459 165.876 57.5465 165.375L57.8099 163.684C57.9085 163.184 58.4362 162.809 58.9836 162.845L59.1967 162.859C59.7441 162.896 60.1071 163.331 60.0065 163.831L59.7293 165.212C59.6287 165.708 59.103 166.084 58.5556 166.047Z" fill="#FFF9F2"/>
<path id="Vector_116" d="M60.8648 166.134L60.6517 166.12C60.1043 166.084 59.7413 165.649 59.8419 165.148L60.1191 163.768C60.2177 163.268 60.7454 162.893 61.2928 162.929L61.5059 162.943C62.0533 162.98 62.4153 163.414 62.3147 163.915L62.0385 165.295C61.9399 165.796 61.4142 166.171 60.8648 166.134Z" fill="#FFF9F2"/>
<path id="Vector_117" d="M64.5982 168.153C64.2599 169.839 61.6895 170.494 59.3499 170.338C57.0103 170.181 55.0278 169.245 55.3671 167.559C55.7064 165.873 58.191 164.668 60.5306 164.825C62.8702 164.982 64.9375 166.466 64.5982 168.153Z" fill="#FFF9F2"/>
<path id="Vector_118" d="M60.1041 166.203C60.0804 166.322 59.8772 166.406 59.6513 166.391C59.4254 166.377 59.2568 166.267 59.2854 166.148C59.314 166.029 59.5122 165.945 59.7381 165.959C59.964 165.974 60.1287 166.084 60.1041 166.203Z" fill="#944C2C"/>
<path id="Vector_119" d="M59.0725 166.063C59.0599 166.119 59.028 166.169 58.9824 166.204C58.9368 166.239 58.8804 166.257 58.823 166.254C58.7967 166.253 58.771 166.246 58.7477 166.234C58.7245 166.222 58.7042 166.205 58.6883 166.184C58.6725 166.163 58.6615 166.139 58.6561 166.113C58.6507 166.087 58.6511 166.061 58.6573 166.035C58.6699 165.98 58.7017 165.93 58.7471 165.895C58.7925 165.86 58.8487 165.843 58.9058 165.845C58.9321 165.846 58.9578 165.853 58.9811 165.865C59.0044 165.877 59.0248 165.894 59.0407 165.915C59.0567 165.935 59.0678 165.959 59.0733 165.985C59.0788 166.011 59.0785 166.037 59.0725 166.063Z" fill="#944C2C"/>
<path id="Vector_120" d="M60.8108 166.162C60.7983 166.218 60.7665 166.268 60.7209 166.303C60.6752 166.338 60.6187 166.355 60.5613 166.353C60.535 166.352 60.5093 166.345 60.486 166.333C60.4627 166.321 60.4425 166.304 60.4266 166.283C60.4107 166.262 60.3997 166.237 60.3944 166.212C60.389 166.186 60.3894 166.159 60.3956 166.134C60.4082 166.078 60.44 166.029 60.4854 165.994C60.5308 165.959 60.587 165.941 60.6441 165.944C60.6703 165.944 60.696 165.951 60.7194 165.963C60.7427 165.975 60.7631 165.992 60.779 166.013C60.7949 166.034 60.806 166.058 60.8116 166.084C60.8171 166.109 60.8168 166.136 60.8108 166.162Z" fill="#944C2C"/>
<path id="Vector_121" d="M59.5857 166.901L59.5117 166.897L59.6251 166.328L59.7001 166.333L59.5857 166.901Z" fill="#944C2C"/>
<path id="Vector_122" d="M58.55 165.097C58.4908 165.097 58.4324 165.084 58.379 165.058C58.3255 165.033 58.2783 164.996 58.2406 164.951C58.203 164.905 58.1758 164.851 58.1611 164.794C58.1464 164.737 58.1445 164.677 58.1555 164.619L58.2945 163.928C58.3274 163.803 58.4032 163.693 58.5088 163.617C58.6144 163.542 58.7431 163.506 58.8725 163.515C58.9317 163.516 58.9899 163.529 59.0433 163.554C59.0967 163.58 59.1439 163.617 59.1815 163.662C59.2191 163.708 59.2463 163.761 59.261 163.818C59.2758 163.876 59.2779 163.935 59.2671 163.994L59.127 164.684C59.0945 164.81 59.019 164.92 58.9135 164.995C58.808 165.071 58.6794 165.107 58.55 165.097Z" fill="#FAB292"/>
<path id="Vector_123" d="M60.6906 165.133C60.6315 165.133 60.5731 165.119 60.5196 165.094C60.4661 165.069 60.4189 165.032 60.3813 164.986C60.3436 164.941 60.3165 164.887 60.3017 164.83C60.287 164.773 60.2851 164.713 60.2961 164.655L60.4362 163.964C60.4688 163.838 60.5446 163.728 60.6502 163.653C60.7559 163.577 60.8847 163.541 61.0141 163.551C61.0734 163.551 61.1319 163.564 61.1854 163.589C61.239 163.615 61.2863 163.652 61.3239 163.697C61.3616 163.743 61.3888 163.796 61.4034 163.854C61.4181 163.911 61.4199 163.971 61.4087 164.029L61.2696 164.72C61.2369 164.846 61.161 164.956 61.0552 165.031C60.9493 165.107 60.8203 165.143 60.6906 165.133Z" fill="#FAB292"/>
<path id="Vector_124" d="M58.664 166.359C58.6245 166.556 58.3602 166.702 58.0722 166.682C57.7841 166.663 57.5869 166.485 57.6273 166.288C57.6678 166.09 57.9311 165.944 58.2191 165.964C58.5071 165.984 58.7044 166.161 58.664 166.359Z" fill="#FAB292"/>
<path id="Vector_125" d="M61.654 166.561C61.6135 166.758 61.3492 166.904 61.0622 166.885C60.7751 166.867 60.5769 166.688 60.6163 166.491C60.6558 166.294 60.9201 166.148 61.2081 166.166C61.4961 166.185 61.6924 166.359 61.654 166.561Z" fill="#FAB292"/>
<path id="Vector_126" d="M76.844 153.438C77.1728 158.383 77.6495 163.315 78.2742 168.233C78.4044 169.26 80.0358 169.272 79.9036 168.233C79.2783 163.317 78.8015 158.385 78.4734 153.438C78.4044 152.397 76.774 152.389 76.844 153.438Z" fill="#2D1111"/>
<path id="Vector_127" d="M43.7235 150.816C41.7222 155.365 39.7397 159.919 38.0363 164.59C37.6772 165.577 39.2514 166.003 39.6085 165.024C41.2626 160.487 43.185 156.06 45.132 151.639C45.5502 150.688 44.1456 149.857 43.7255 150.816H43.7235Z" fill="#2D1111"/>
<path id="Vector_128" d="M21.757 76.1021C21.636 76.2594 21.4852 76.3914 21.3132 76.4904C21.1411 76.5895 20.9513 76.6537 20.7544 76.6793C20.5576 76.705 20.3576 76.6916 20.1659 76.6399C19.9743 76.5883 19.7947 76.4993 19.6374 76.3782L17.5079 74.7389C17.3505 74.6179 17.2186 74.4671 17.1195 74.2951C17.0205 74.123 16.9563 73.9332 16.9306 73.7363C16.905 73.5395 16.9184 73.3395 16.97 73.1479C17.0217 72.9562 17.1106 72.7766 17.2317 72.6193C17.4763 72.3017 17.8369 72.0943 18.2344 72.0425C18.6318 71.9907 19.0336 72.0988 19.3513 72.3431L21.4809 73.9824C21.6382 74.1034 21.7702 74.2543 21.8692 74.4263C21.9683 74.5983 22.0324 74.7882 22.0581 74.985C22.0837 75.1819 22.0704 75.3818 22.0187 75.5735C21.967 75.7652 21.8781 75.9448 21.757 76.1021Z" fill="#FFF9F2"/>
<path id="Vector_129" d="M19.0752 72.9083L20.4255 73.9498C20.1411 74.0772 19.8929 74.2736 19.7034 74.5211C19.514 74.7685 19.3893 75.0594 19.3405 75.3672L17.9863 74.3256C17.8055 74.1785 17.6892 73.9667 17.6623 73.7352C17.6353 73.5036 17.6998 73.2707 17.8419 73.086C17.9841 72.9013 18.1927 72.7794 18.4234 72.7462C18.6542 72.713 18.8887 72.7711 19.0772 72.9083H19.0752Z" fill="#FAB292"/>
<path id="Vector_130" d="M23.6506 73.643C23.8949 73.3251 24.0031 72.9231 23.9513 72.5255C23.8995 72.1279 23.692 71.7671 23.3744 71.5224L21.2449 69.8841C21.0876 69.763 20.908 69.674 20.7163 69.6224C20.5247 69.5707 20.3247 69.5573 20.1279 69.583C19.931 69.6086 19.7412 69.6728 19.5691 69.7718C19.3971 69.8709 19.2463 70.0029 19.1253 70.1602C19.0042 70.3175 18.9152 70.4971 18.8636 70.6888C18.8119 70.8805 18.7985 71.0804 18.8242 71.2773C18.8498 71.4741 18.914 71.664 19.0131 71.836C19.1121 72.008 19.2441 72.1589 19.4014 72.2799L21.5309 73.9182C21.6882 74.0393 21.8677 74.1283 22.0594 74.18C22.251 74.2318 22.4509 74.2453 22.6478 74.2197C22.8446 74.1941 23.0345 74.1301 23.2065 74.0311C23.3786 73.9322 23.5295 73.8003 23.6506 73.643Z" fill="#FFF9F2"/>
<path id="Vector_131" d="M19.875 71.8676L21.2292 72.9102C21.2785 72.6018 21.4042 72.3105 21.5947 72.063C21.7852 71.8154 22.0346 71.6195 22.3201 71.4928L20.9659 70.4503C20.7774 70.3131 20.5428 70.255 20.3121 70.2882C20.0814 70.3214 19.8728 70.4433 19.7306 70.628C19.5884 70.8127 19.524 71.0456 19.5509 71.2772C19.5779 71.5087 19.6942 71.7205 19.875 71.8676Z" fill="#FAB292"/>
<path id="Vector_132" d="M26.7616 77.9942C28.6001 75.6051 28.6157 72.5335 26.7965 71.1335C24.9773 69.7336 22.0121 70.5354 20.1736 72.9245C18.3351 75.3135 18.3195 78.3851 20.1387 79.7851C21.9579 81.1851 24.9231 80.3833 26.7616 77.9942Z" fill="#FFF9F2"/>
<path id="Vector_133" d="M21.4389 75.1649C21.649 75.3266 21.649 75.6798 21.4389 75.954C21.2288 76.2282 20.8876 76.3179 20.6765 76.1562C20.4654 75.9944 20.4664 75.6413 20.6765 75.3671C20.8866 75.0929 21.2288 75.0031 21.4389 75.1649Z" fill="#FAB292"/>
<path id="Vector_134" d="M23.3565 72.5168C23.5666 72.6785 23.5666 73.0317 23.3565 73.3059C23.1464 73.5801 22.8052 73.6698 22.5951 73.5031C22.385 73.3364 22.385 72.9883 22.5951 72.7141C22.8052 72.4399 23.1454 72.355 23.3565 72.5168Z" fill="#FAB292"/>
<path id="Vector_135" d="M21.8243 74.5999L21.79 74.6443L22.5287 75.2147L22.563 75.1702L21.8243 74.5999Z" fill="#944C2C"/>
<path id="Vector_136" d="M22.0719 73.8937C22.2346 74.0189 22.2396 74.2882 22.0817 74.4914C21.9239 74.6946 21.6645 74.7597 21.5018 74.6344C21.339 74.5091 21.3351 74.2399 21.4919 74.0426C21.6487 73.8453 21.9052 73.7684 22.0719 73.8937Z" fill="#944C2C"/>
<path id="Vector_137" d="M21.0239 74.7793C21.0754 74.8191 21.114 74.8733 21.1348 74.935C21.1556 74.9967 21.1576 75.0632 21.1406 75.1261C21.1236 75.189 21.0884 75.2454 21.0393 75.2882C20.9903 75.3311 20.9297 75.3584 20.8651 75.3668C20.8005 75.3752 20.7349 75.3643 20.6765 75.3354C20.6182 75.3065 20.5697 75.261 20.5371 75.2046C20.5046 75.1482 20.4896 75.0834 20.4939 75.0184C20.4982 74.9534 20.5216 74.8912 20.5613 74.8395C20.5877 74.8051 20.6206 74.7763 20.6581 74.7547C20.6957 74.733 20.7371 74.719 20.7801 74.7134C20.8231 74.7079 20.8667 74.7108 20.9086 74.7221C20.9504 74.7334 20.9896 74.7529 21.0239 74.7793Z" fill="#944C2C"/>
<path id="Vector_138" d="M22.4777 72.8973C22.5265 72.935 22.563 72.9862 22.5827 73.0446C22.6023 73.103 22.6042 73.1659 22.5882 73.2253C22.5721 73.2848 22.5388 73.3382 22.4924 73.3787C22.4461 73.4192 22.3887 73.4451 22.3276 73.4531C22.2666 73.4611 22.2045 73.4508 22.1493 73.4235C22.094 73.3962 22.0481 73.3532 22.0173 73.2999C21.9865 73.2465 21.9722 73.1853 21.9762 73.1238C21.9802 73.0623 22.0024 73.0035 22.0398 72.9545C22.0904 72.889 22.1649 72.8461 22.247 72.8354C22.329 72.8247 22.412 72.8469 22.4777 72.8973Z" fill="#944C2C"/>
</g>
</g>
</g>
</svg>
