<svg width="148" height="174" viewBox="0 0 148 174" fill="none" xmlns="http://www.w3.org/2000/svg">
<path d="M124.119 115.82C124.045 114.188 123.927 113.68 123.132 112.231C122.172 110.471 119.746 109.937 118.061 108.995C114.453 106.979 111.469 103.088 108.401 100.317C105.283 97.5082 102.533 94.3174 100.214 90.8204C97.8804 87.2871 96.1325 83.4121 93.8643 79.8395C89.8588 73.5274 83.0351 67.6098 74.9952 69.2723C70.3178 70.2389 67.0062 74.277 63.3539 77.0472C59.1391 80.2407 54.647 83.0435 50.2604 85.9874C41.299 92.0001 33.1651 99.1194 26.4172 107.572C26.4132 107.577 26.4096 107.583 26.4067 107.588C23.4858 107.972 20.1387 109.01 19.1203 111.66C17.6556 115.477 18.7796 120.817 20.9671 124.138C23.5156 128.007 27.8186 129.555 32.2936 129.484L32.9731 129.473C35.775 134.902 40.2681 139.135 45.8027 142C48.3243 143.306 50.9044 144.572 53.6439 145.359C54.8581 145.706 56.1664 146.031 57.4315 146.102C59.0288 146.198 60.579 146.87 62.2395 147.158C64.0346 147.449 65.8484 147.609 67.6666 147.638C70.2093 147.689 72.7472 147.434 75.2745 147.191C79.3463 146.798 83.4334 146.62 87.4524 145.98C88.1118 145.681 88.7751 145.388 89.4307 145.082C93.3849 143.253 97.1329 141.007 100.611 138.384C102.255 137.145 103.809 135.79 105.26 134.329C106.003 133.577 106.675 132.662 107.468 131.969C108.516 131.049 109.468 130.217 110.827 130.145C118.63 129.747 124.473 123.543 124.119 115.82Z" fill="#FDEFE8"/>
<path d="M29.3235 110.488C34.3944 106.786 38.8742 104.228 45.0653 102.713C54.1984 100.474 63.7069 100.314 73.0493 100.848C79.9805 101.247 86.5047 102.014 93.3716 103.096C99.8229 104.113 106.664 106.466 112.281 110.398C112.615 108.993 113.114 106.581 113.23 105.138C111.577 103.506 110 101.764 108.401 100.32C105.284 97.5111 102.534 94.3203 100.215 90.8233C97.8811 87.29 96.1332 83.415 93.865 79.8424C89.8595 73.5303 83.0358 67.6127 74.9959 69.2752C70.3185 70.2418 67.0069 74.28 63.3546 77.0502C59.1399 80.2436 54.6477 83.0465 50.2601 85.9904C42.2932 91.3359 34.9848 97.5577 28.7188 104.811C28.8589 106.707 28.9779 108.615 29.3235 110.488Z" fill="#FCE4D8"/>
<path d="M122.29 89.4499C121.258 85.4895 120.056 81.5694 118.355 77.8537C118.172 77.5784 118.015 77.2873 117.884 76.9841C116.665 75.1411 113.936 69.6891 112.565 67.9613C110.017 64.739 107.17 61.7548 103.997 59.144C101.363 56.9756 98.5067 55.0981 95.5215 53.4519C86.6447 48.5566 74.2624 47.0611 64.3258 48.4923C53.7423 50.0156 44.2492 55.4398 36.1614 62.2386C31.1643 66.439 27.4746 72.8873 24.6113 79.09C21.3564 86.1431 20.5654 92.1058 20.9705 99.9451C21.0559 101.606 20.9705 105.522 22.5754 106.819C23.5554 107.612 25.2688 107.252 26.7134 106.915C27.8143 107.275 28.4411 106.673 29.2714 105.787C29.448 105.6 29.401 105.123 29.592 104.968C30.2255 104.455 33.9373 102.748 34.7561 102.549C36.7841 102.067 38.7733 101.435 40.7073 100.657C40.929 100.57 41.1594 100.497 41.384 100.413C41.8927 96.981 43.6099 95.5998 44.4095 92.2258C44.6533 91.193 45.521 89.686 45.2734 90.7179C45.2734 90.7323 46.645 89.4892 46.6422 89.5036C46.8908 89.5612 47.4437 89.5593 47.5166 89.8876C48.0541 92.3343 46.9224 96.2073 47.5243 98.6396C57.2189 96.5491 68.2497 96.9954 77.7112 97.3649C81.3587 97.507 83.911 97.6913 87.4865 98.3478C87.4644 97.221 88.4857 96.3379 88.3638 95.2168C88.3158 94.7714 88.7794 94.3922 89.1883 94.3922C89.6683 94.3922 89.9639 94.7762 90.0128 95.2168C90.1463 96.4444 91.0687 97.5032 91.0841 98.7366C95.4438 99.6293 99.3073 100.954 103.247 102.51C103.444 102.4 103.674 102.362 103.896 102.401C105.386 102.65 106.878 102.912 108.327 103.349C109.722 103.769 111.535 104.386 112.263 105.771C112.364 105.955 112.389 106.171 112.332 106.372C112.356 106.604 112.293 106.837 112.155 107.025C112.328 107.495 112.384 108.001 112.318 108.497C112.111 109.896 113.374 111.089 114.744 110.363C116.376 109.499 118.507 109.876 119.939 108.827C121.226 107.885 120.893 105.806 121.328 104.435C122.816 99.7445 122.858 93.56 122.253 89.4614C122.25 89.4662 122.265 89.4595 122.29 89.4499Z" fill="#725440"/>
<path d="M122.641 94.1887C122.641 94.157 122.151 91.4934 122.146 91.4617C122.011 90.5239 121.833 89.5746 121.627 88.6244C120.265 88.3628 118.943 87.9286 117.691 87.3324C114.46 85.7841 110.985 83.5448 109.01 80.5912C107.772 78.7387 106.592 77.0282 105.488 75.096C105.732 76.5646 106.477 78.014 106.474 79.4643C106.474 81.8765 106.468 84.5171 104.026 85.715C100.945 87.2268 97.1502 84.8291 94.9445 82.797C91.9343 80.022 89.8572 76.3457 87.8414 72.8288C86.346 70.2179 85.4734 66.1491 83.5412 63.7964C83.6132 64.4606 84.2707 66.2738 84.3322 66.9371C84.7795 71.7307 85.3563 78.8548 83.3406 83.4603C79.5319 92.1624 65.1185 91.6192 57.6574 88.8778C52.2975 86.9081 52.5298 75.9858 53.1796 71.7787C53.6337 68.8415 54.3804 65.96 55.2702 63.1245C53.6999 64.8724 52.5231 66.9793 51.4586 69.0651C50.2664 71.4015 49.1549 73.7685 48.0376 76.1394C46.9626 78.4306 45.8386 80.7199 44.4276 82.8258C43.2364 84.6044 41.7659 86.4733 39.7828 87.4092C38.5186 88.0043 37.0356 88.3969 35.6899 87.8334C34.515 87.341 33.8105 86.2593 33.3862 85.1017C32.292 82.0982 32.7076 78.5064 33.1942 75.4262C33.3561 74.4023 33.5612 73.3826 33.8095 72.3671C32.3016 74.7984 31.1833 77.4736 30.2071 80.1804C29.5352 82.0406 28.9161 83.9239 28.2442 85.7793C27.6903 87.3151 27.1509 88.9286 26.1853 90.2629C25.6218 91.0413 24.8511 91.8217 23.8307 91.8754C23.0023 91.9196 22.2815 91.4531 21.7747 90.833C21.5939 90.6105 21.4287 90.3758 21.2803 90.1304C20.8494 93.202 20.7822 96.3782 20.9665 99.945C21.0519 101.606 20.9665 105.522 22.5714 106.819C23.5514 107.612 25.2648 107.252 26.7094 106.915C27.8103 107.275 28.4371 106.673 29.2674 105.787C29.444 105.6 29.397 105.123 29.588 104.968C30.2215 104.455 33.9333 102.748 34.7521 102.549C36.7802 102.068 38.7695 101.435 40.7033 100.657C40.925 100.57 41.1554 100.497 41.38 100.413C41.8897 96.981 43.6059 95.5997 44.4045 92.2258C44.6493 91.193 45.517 89.686 45.2684 90.7178C45.2684 90.7322 46.6401 89.4892 46.6372 89.5036C46.8858 89.5612 47.4396 89.5593 47.5126 89.8876C48.0492 92.3343 46.9175 96.2073 47.5193 98.6396C57.214 96.549 68.2448 96.9954 77.7062 97.3649C81.3537 97.507 83.906 97.6913 87.4805 98.3478C87.4594 97.2209 88.4807 96.3379 88.3588 95.2167C88.3108 94.7714 88.7744 94.3922 89.1833 94.3922C89.6633 94.3922 89.9589 94.7762 90.0069 95.2167C90.1413 96.4444 91.0628 97.5032 91.0791 98.7366C95.4388 99.6293 99.3023 100.954 103.242 102.51C103.439 102.4 103.669 102.362 103.891 102.402C105.381 102.65 106.873 102.912 108.322 103.349C109.717 103.769 111.53 104.386 112.258 105.771C112.359 105.955 112.384 106.171 112.327 106.372C112.351 106.604 112.288 106.837 112.15 107.025C112.323 107.495 112.378 108.001 112.312 108.497C112.106 109.896 113.368 111.089 114.739 110.363C116.371 109.499 118.503 109.876 119.934 108.827C121.221 107.885 121.132 105.861 121.323 104.435C121.881 100.305 123.247 98.2912 122.641 94.1887Z" fill="#725440"/>
<path opacity="0.25" d="M46.5346 123.224C50.7072 123.224 54.0897 120.669 54.0897 117.518C54.0897 114.367 50.7072 111.813 46.5346 111.813C42.362 111.813 38.9795 114.367 38.9795 117.518C38.9795 120.669 42.362 123.224 46.5346 123.224Z" fill="#FAB292"/>
<path opacity="0.25" d="M94.3129 124.162C98.4855 124.162 101.868 121.608 101.868 118.457C101.868 115.306 98.4855 112.751 94.3129 112.751C90.1404 112.751 86.7578 115.306 86.7578 118.457C86.7578 121.608 90.1404 124.162 94.3129 124.162Z" fill="#FAB292"/>
<path d="M71.8773 114.503C73.5721 114.503 74.946 113.71 74.946 112.731C74.946 111.753 73.5721 110.959 71.8773 110.959C70.1825 110.959 68.8086 111.753 68.8086 112.731C68.8086 113.71 70.1825 114.503 71.8773 114.503Z" fill="#EC9A9A"/>
<path d="M64.2354 49.7466C39.5668 53.3375 15.1017 78.5667 23.2337 104.811C23.2663 104.917 23.4515 104.907 23.4352 104.784C21.7257 91.9011 24.875 79.0456 33.1501 68.8585C41.1294 59.0381 52.2841 53.037 64.3746 50.191C65.2337 49.9923 65.0695 49.6305 64.2354 49.7466Z" fill="#725440"/>
<path d="M118.049 118.983C118.049 118.852 118.042 118.719 118.029 118.586C117.795 115.766 115.341 112.442 112.221 113.882C111.632 114.153 111.796 114.976 112.259 115.249C111.483 118.562 110.894 121.872 110.435 125.24C110.347 125.884 110.832 126.643 111.587 126.392C114.859 125.288 118.123 122.686 118.049 118.983Z" fill="#FCE4D8"/>
<path d="M54.9104 150.883C54.6916 152.754 55.0064 154.764 56.1823 156.238C56.8004 157.017 57.6221 157.609 58.4735 158.124C64.2413 161.614 71.5209 161.822 78.0672 160.211C79.699 159.809 81.3567 159.276 82.6458 158.196C84.2843 156.823 85.1463 154.699 85.416 152.578C85.6857 150.458 85.4256 148.31 85.1645 146.189L74.6117 147.282C72.8264 147.466 71.0353 147.651 69.2365 147.598C67.0499 147.53 64.8921 147.109 62.7458 146.689C60.4546 146.24 58.1548 145.825 55.8722 145.335C56.8542 145.638 55.0506 149.811 54.9104 150.883Z" fill="#FFF9F2"/>
<path d="M101.043 168.641C98.9166 169.655 96.6448 170.331 94.3098 170.646C94.0343 170.683 93.7415 170.713 93.4891 170.596C93.1052 170.417 92.942 169.962 92.8287 169.551C92.4985 168.352 92.2461 167.132 91.9936 165.913L90.0989 156.746C89.7869 155.237 87.225 147.838 88.5823 146.763C90.7669 145.036 96.8803 158.485 97.7231 160.24C98.0888 160.995 100.847 168.641 101.043 168.641Z" fill="white"/>
<path d="M47.9079 170.972C54.5598 172.913 61.5284 173.498 68.4491 173.783C75.1317 174.058 81.8978 174.055 88.4143 172.548C89.9808 172.186 91.6001 171.696 92.7337 170.558C92.1012 169.543 92.3056 168.014 92.0522 166.846C90.5836 160.09 88.5516 152.586 87.6743 145.729C86.7144 145.834 85.886 145.879 84.9271 145.986C85.5846 149.184 85.0788 153.732 83.1447 156.364C81.2105 158.996 78.5623 160.165 75.3131 160.492C73.6583 160.659 71.5591 161.059 69.9062 160.875C67.3596 160.588 64.8121 159.925 62.2656 159.637C60.0138 159.382 57.641 158.616 56.1714 156.89C54.6164 155.066 54.6452 153.147 55.0656 150.782C55.3891 148.973 55.9996 147.22 56.3451 145.433C53.5692 144.716 53.406 144.308 52.8234 146.933C52.2542 149.502 51.8174 153.327 51.2473 155.896C50.9718 157.156 47.7658 170.931 47.9079 170.972Z" fill="#E05656"/>
<g style="mix-blend-mode:multiply">
<path d="M94.7761 164.451C94.5995 162.482 94.2981 160.526 93.8738 158.596C93.472 156.696 92.9693 154.818 92.3678 152.972C92.0683 152.067 91.716 151.184 91.357 150.301C90.9731 149.341 90.6064 148.349 90.0612 147.471C89.9038 147.217 89.4517 147.287 89.4651 147.622C89.4997 148.45 89.6773 149.261 89.8385 150.072C89.8721 150.296 89.9057 150.516 89.9345 150.735C90.0459 151.612 90.1985 152.484 90.3271 153.358C90.5968 155.19 90.8243 157.027 91.0844 158.861C91.6008 162.515 92.0827 166.177 92.6202 169.827C92.6884 170.285 93.1395 170.451 93.5379 170.378C93.6788 170.437 93.8358 170.446 93.9823 170.402C94.1287 170.359 94.2556 170.266 94.3413 170.139C94.8817 169.295 94.8702 168.305 94.9018 167.327C94.9354 166.371 94.8577 165.398 94.7761 164.451Z" fill="#FFF9F2"/>
</g>
<g style="mix-blend-mode:multiply">
<path d="M83.0267 147.186C81.9833 148.972 80.4514 150.155 78.4587 150.732C76.2779 151.366 73.8754 151.581 71.6139 151.678C69.4312 151.774 67.2273 151.582 65.2596 150.559C64.4235 150.123 63.5961 149.611 62.8935 148.981C62.5421 148.658 62.2079 148.317 61.8924 147.959C61.565 147.597 61.2953 147.131 60.8691 146.882C60.6292 146.74 60.3719 146.914 60.347 147.169C60.274 147.924 60.8662 148.822 61.2732 149.418C61.7485 150.124 62.3034 150.773 62.9271 151.352C64.3669 152.672 66.2146 153.45 68.1334 153.751C70.3094 154.097 72.472 153.915 74.6461 153.655C76.7262 153.406 78.8158 153.147 80.7346 152.252C81.6681 151.823 82.5002 151.202 83.1765 150.428C83.9175 149.571 84.3513 148.718 84.4435 147.591C84.5068 146.829 83.3944 146.558 83.0267 147.186Z" fill="#FFF9F2"/>
</g>
<path d="M0.804307 81.8265C0.542263 83.6349 14.9624 85.4903 18.4764 84.5573C18.7951 84.4728 19.3461 85.64 19.6081 85.6352C19.7742 85.6352 21.2111 86.4511 21.3522 86.4579C22.4234 82.7393 24.3691 78.7789 25.9999 75.2658C25.2128 74.9366 22.6816 74.1581 22.696 74.1504C23.4399 73.7847 10.8071 61.9505 9.64853 63.1753C7.30165 65.6575 1.80737 74.9222 0.804307 81.8265Z" fill="#725440"/>
<path d="M23.0056 74.2532C21.8681 76.0769 21.0061 78.131 20.2344 80.0901C19.636 81.6487 19.2039 83.2661 18.9453 84.9154C19.1958 85.2312 19.4521 85.6382 19.6076 85.6353C19.7631 85.6324 21.2106 86.4512 21.3517 86.4579C22.4229 82.7394 24.3686 78.779 25.9994 75.2658C25.3822 75.0076 23.6986 74.4749 23.0056 74.2532Z" fill="#E05656"/>
<path d="M21.0925 78.084C21.6156 76.7661 22.1618 75.4539 22.7972 74.1859C22.731 74.1639 22.6936 74.1514 22.6955 74.1504C23.4394 73.7847 10.8066 61.9505 9.64801 63.1753C8.63631 64.2455 7.03813 66.578 5.46875 69.4384C5.8584 69.4723 6.24541 69.5316 6.62731 69.616C9.73057 70.3062 12.4825 72.2192 14.862 74.256C16.8393 75.9492 18.6468 77.8459 20.3256 79.8376C20.579 79.2435 20.8641 78.6599 21.0925 78.084Z" fill="#725440"/>
<g style="mix-blend-mode:multiply">
<g style="mix-blend-mode:multiply" opacity="0.5">
<path d="M22.9886 74.2473C22.1343 76.1575 21.3568 78.106 20.7617 80.1092C20.8214 80.118 20.8797 80.1341 20.9355 80.1572C21.7331 80.498 22.4607 80.9837 23.1758 81.4722C24.0781 79.3452 25.0859 77.2363 25.9997 75.2657C25.3777 75.0056 23.672 74.4662 22.9886 74.2473Z" fill="#E05656"/>
</g>
</g>
<path d="M21.5501 85.3579L20.6747 84.9586L20.2907 84.78C20.1746 84.7272 19.9346 84.5247 20.0623 84.7618C20.1899 84.9989 20.1583 84.5967 20.1726 84.4806C20.187 84.3644 20.2072 84.232 20.2264 84.1081C20.2667 83.8451 20.3118 83.5831 20.3617 83.322C20.582 82.1792 20.8931 81.0558 21.2919 79.9625C21.6776 78.9085 22.1492 77.8879 22.7019 76.911C22.8324 76.6788 22.9668 76.4503 23.106 76.2238C23.2126 76.051 23.4103 75.5797 23.5859 75.4684C23.5005 75.5221 23.5437 75.4636 23.6733 75.5096C23.8029 75.5557 23.9516 75.5912 24.0899 75.6306L25.139 75.9301C26.1603 76.2267 26.5961 74.6361 25.5777 74.3405C24.8846 74.1399 24.0323 73.7358 23.2989 73.8289C22.531 73.9249 22.1605 74.6256 21.7891 75.2188C20.9966 76.4944 20.3311 77.8447 19.8021 79.2502C19.2822 80.6164 18.9008 82.0313 18.6637 83.4737C18.5677 84.0909 18.2798 85.0027 18.6148 85.5854C18.8192 85.9415 19.2003 86.0864 19.5516 86.2477L20.7236 86.7842C21.6835 87.2219 22.5195 85.8023 21.5549 85.3608L21.5501 85.3579Z" fill="#2D1111"/>
<path d="M18.6952 83.491C15.0002 83.6891 11.2945 83.4743 7.64712 82.8507C5.91935 82.5513 4.16471 82.2028 2.49454 81.6691C1.65562 81.4013 1.54715 81.0135 1.76792 80.1804C1.99349 79.3309 2.26705 78.491 2.55117 77.6598C3.71091 74.2789 5.25149 71.0409 7.14319 68.0083C7.58473 67.2999 8.04418 66.6034 8.52156 65.9187C8.73593 65.6102 8.95414 65.305 9.17619 65.0029C9.34896 64.7678 9.71275 64.0364 9.99879 63.9471C10.3827 63.8319 11.4434 64.859 11.7563 65.0941C12.4692 65.6297 13.1708 66.1804 13.8613 66.7461C16.8846 69.2085 19.6695 71.9498 22.1795 74.9337C22.861 75.7487 24.0215 74.5767 23.3448 73.7685C20.7825 70.7226 17.934 67.9294 14.8384 65.4272C14.1614 64.8769 13.4748 64.339 12.7786 63.8137C12.1067 63.3097 11.356 62.5428 10.5315 62.3153C9.61869 62.0638 8.95733 62.5879 8.42941 63.2675C7.81605 64.0584 7.23245 64.8734 6.67285 65.7037C4.46031 68.9926 2.65535 72.5381 1.29759 76.2622C0.950115 77.2118 0.633038 78.1717 0.346358 79.1418C0.0929524 79.9999 -0.190208 80.9185 0.172622 81.7872C0.467301 82.4917 1.0845 82.8968 1.7756 83.156C2.77003 83.5284 3.84892 83.7425 4.88461 83.9728C9.41433 84.9791 14.0592 85.3691 18.6933 85.1323C19.7491 85.0786 19.7549 83.4295 18.6933 83.4833L18.6952 83.491Z" fill="#2D1111"/>
<path d="M19.3685 80.619C16.5379 80.6776 13.6976 80.0767 11.0177 79.1956C8.28398 78.2962 5.5234 77.0311 3.38002 75.0681C2.85881 74.5882 2.0794 75.3666 2.60348 75.8447C4.8419 77.8921 7.68023 79.2263 10.532 80.1871C13.3511 81.1364 16.3795 81.7757 19.3628 81.7142C20.0692 81.6998 20.0712 80.6008 19.3628 80.6152L19.3685 80.619Z" fill="#2D1111"/>
<path d="M20.7484 78.2232C16.7546 74.3397 12.1171 71.1787 7.04243 68.8808C6.40316 68.5929 5.84356 69.5383 6.48763 69.8292C11.4795 72.0821 16.0418 75.1855 19.9709 79.0007C20.4787 79.4931 21.2571 78.7175 20.7484 78.2232Z" fill="#2D1111"/>
<path d="M142.958 86.8091C143.097 88.6329 128.582 89.4968 125.14 88.3228C124.828 88.2163 124.199 89.3432 123.938 89.3192C123.772 89.3048 122.282 90.0237 122.142 90.0209C121.328 86.238 119.658 82.1567 118.271 78.537C119.081 78.2615 121.658 77.6587 121.644 77.6501C120.927 77.2344 134.342 66.2939 135.414 67.5964C137.585 70.2332 142.435 79.852 142.958 86.8091Z" fill="#725440"/>
<path d="M121.327 77.7317C122.338 79.6245 123.055 81.7372 123.692 83.7443C124.183 85.3404 124.505 86.9838 124.652 88.6473C124.38 88.9449 124.096 89.3336 123.941 89.3192C123.787 89.3048 122.286 90.0238 122.146 90.0209C121.332 86.238 119.662 82.1567 118.275 78.537C118.904 78.321 120.618 77.9054 121.327 77.7317Z" fill="#E05656"/>
<path d="M122.973 81.6854C122.541 80.3339 122.086 78.9872 121.539 77.6789C121.575 77.6717 121.61 77.6621 121.644 77.6501C120.927 77.2344 134.341 66.2939 135.413 67.5964C136.349 68.7329 137.783 71.17 139.156 74.1302C138.765 74.1373 138.375 74.1694 137.987 74.2262C134.845 74.7062 131.967 76.4224 129.454 78.2913C127.365 79.8453 125.432 81.6134 123.62 83.4841C123.406 82.8775 123.162 82.2747 122.973 81.6854Z" fill="#725440"/>
<g style="mix-blend-mode:multiply">
<g style="mix-blend-mode:multiply" opacity="0.5">
<path d="M121.346 77.7271C122.067 79.6909 122.708 81.6884 123.17 83.7281C123.109 83.7331 123.05 83.7453 122.992 83.7646C122.173 84.0526 121.415 84.4836 120.668 84.9222C119.914 82.7385 119.052 80.5654 118.275 78.5372C118.911 78.3193 120.646 77.8989 121.346 77.7271Z" fill="#E05656"/>
</g>
</g>
<path d="M122.604 90.4451C123.261 90.1974 124.262 90.0103 124.775 89.5121C125.304 88.9976 125.111 88.128 125.051 87.4704C124.79 84.4491 123.924 81.5113 122.504 78.8316C122.182 78.2231 121.856 77.4705 121.12 77.2958C120.383 77.1211 119.425 77.5022 118.702 77.6587C117.666 77.8833 118.105 79.4728 119.14 79.2482C119.42 79.1877 120.59 78.8211 120.713 78.9295C120.798 79.0044 120.953 79.4268 121.032 79.5755C121.16 79.8145 121.284 80.0555 121.402 80.3002C121.902 81.3338 122.315 82.4075 122.635 83.51C122.952 84.5758 123.184 85.6652 123.327 86.7678C123.394 87.3005 123.373 87.8621 123.466 88.3871L123.475 88.5906C123.633 88.3526 123.631 88.2796 123.466 88.3698C123.37 88.3574 123.157 88.486 123.066 88.5205L122.165 88.8594C121.182 89.2299 121.608 90.8242 122.604 90.4499V90.4451Z" fill="#2D1111"/>
<path d="M124.939 88.8901C129.123 89.3954 133.353 89.3793 137.532 88.8421C138.475 88.7193 139.414 88.5762 140.349 88.4044C141.185 88.2499 142.116 88.1424 142.845 87.6615C144.551 86.5308 143.613 84.0937 143.205 82.5233C142.197 78.6379 140.717 74.8907 138.797 71.3658C138.318 70.4866 137.812 69.6227 137.279 68.7742C136.857 68.1022 136.436 67.2009 135.704 66.8199C134.973 66.4388 134.242 66.7584 133.593 67.1577C132.716 67.701 131.852 68.2638 131.001 68.8461C127.394 71.312 124.008 74.1129 120.98 77.2652C120.246 78.033 121.409 79.1974 122.146 78.4304C124.578 75.9081 127.223 73.6012 130.053 71.5357C131.378 70.5662 132.737 69.6448 134.13 68.7713C134.297 68.6676 134.771 68.252 134.962 68.3038C135.176 68.3614 135.409 68.9105 135.52 69.0823C135.996 69.8175 136.452 70.5656 136.887 71.3264C138.664 74.433 140.081 77.7319 141.11 81.1593C141.366 82.0136 141.599 82.8753 141.809 83.7443C141.944 84.3029 142.462 85.5968 142.097 86.1343C141.768 86.6267 140.675 86.6728 140.168 86.7688C139.208 86.9512 138.239 87.1076 137.269 87.2295C133.175 87.7376 129.033 87.7428 124.938 87.2449C123.882 87.1182 123.895 88.7682 124.938 88.893L124.939 88.8901Z" fill="#2D1111"/>
<path d="M124.485 85.4298C127.461 85.6957 130.526 85.2542 133.403 84.5016C136.318 83.7395 139.228 82.5819 141.603 80.6967C142.155 80.2561 141.373 79.4834 140.825 79.9192C138.554 81.7267 135.698 82.7825 132.914 83.4928C130.182 84.1897 127.305 84.5832 124.485 84.3308C123.782 84.2674 123.785 85.3674 124.485 85.4298Z" fill="#2D1111"/>
<path d="M124.057 82.6502C128.202 79.1449 132.923 76.3844 138.011 74.4913C138.669 74.2475 138.385 73.1849 137.723 73.4354C132.457 75.3934 127.572 78.2515 123.284 81.8823C122.744 82.3401 123.524 83.1138 124.061 82.6598L124.057 82.6502Z" fill="#2D1111"/>
<path d="M79.7946 115.892C79.2341 115.402 77.9306 115.766 77.2673 115.796C75.7046 115.859 74.142 115.916 72.5783 115.945C69.8014 115.996 66.87 116.38 64.1171 116.017C63.6458 115.956 63.3377 116.276 63.2311 116.671C63.1759 116.72 63.1237 116.773 63.0747 116.829C62.9251 117.563 62.8571 118.312 62.8722 119.061C63.0027 119.445 62.9787 120.064 62.9729 120.632C63.0248 121.094 63.091 121.556 63.1649 122.018C63.3537 122.654 63.6183 123.265 63.953 123.837C64.8245 125.301 66.1538 126.438 67.7358 127.072C71.223 128.431 77.1291 127.859 79.3944 124.548C80.5548 122.851 81.1432 117.073 79.7946 115.892Z" fill="#E05656"/>
<path d="M73.508 121.821C70.1303 121.547 66.8197 122.135 63.6377 123.207C63.7385 123.418 63.8354 123.632 63.9545 123.832C64.8259 125.297 66.1553 126.433 67.7373 127.067C71.2245 128.426 77.1306 127.854 79.3959 124.543C79.6294 124.17 79.8109 123.766 79.9353 123.344C77.8687 122.561 75.7234 122.002 73.508 121.821Z" fill="#EC9A9A"/>
<path d="M76.9469 116.027C75.1491 115.687 74.6432 116.241 72.8099 116.201C70.773 116.157 69.5943 116.162 67.5661 115.968C66.4671 115.862 66.0908 116.946 67.0382 117.375C69.5012 118.489 74.5434 118.372 76.8883 117.434C77.4729 117.2 77.6111 116.151 76.9469 116.027Z" fill="#FFF9F2"/>
<path d="M63.5487 116.746C68.7732 116.876 74.0016 116.723 79.2271 116.726C79.5151 116.726 79.8031 116.738 80.091 116.734C80.2244 116.734 80.2072 116.769 80.187 116.734C80.1544 116.67 79.8309 116.439 79.8031 116.486C79.7647 116.552 79.8223 116.842 79.8232 116.93C79.8482 118.38 79.805 119.931 79.5353 121.36C79.2204 123.042 78.4669 124.638 77.0799 125.693C75.4376 126.941 73.2289 127.367 71.2055 127.2C68.8395 127.008 66.3256 125.909 65.0749 123.805C63.7157 121.522 63.8414 118.759 63.9672 116.202C64.0027 115.496 62.9036 115.498 62.8681 116.202C62.7481 118.651 62.6761 121.188 63.6782 123.481C64.6112 125.612 66.4427 127.032 68.6168 127.776C72.5196 129.108 77.6894 128.103 79.7263 124.21C80.5508 122.634 80.7505 120.903 80.8493 119.154C80.8944 118.354 80.9453 117.545 80.9155 116.744C80.8954 116.28 80.8608 115.777 80.332 115.655C79.709 115.511 78.9401 115.628 78.3086 115.631C76.9043 115.636 75.5009 115.648 74.0976 115.658C70.5816 115.682 67.0618 115.735 63.5467 115.647C62.8393 115.629 62.8393 116.728 63.5467 116.746L63.5487 116.746Z" fill="#2D1111"/>
<path d="M109.933 124.155C109.056 130.032 105.246 134.867 100.561 138.32C95.8758 141.774 90.347 144.143 84.6434 145.219C77.7852 146.513 70.6293 146.642 63.7106 145.787C56.6585 144.917 49.6274 142.889 43.467 139.296C40.2994 137.447 37.4064 135.085 35.2352 132.105C33.0802 129.145 31.6767 125.705 31.1452 122.082C30.9887 121.037 29.4001 121.482 29.5556 122.521C30.5817 129.38 34.6199 135.242 40.2428 139.196C46.1748 143.367 53.3987 145.756 60.496 146.966C67.8265 148.214 75.3423 148.263 82.6987 147.199C88.7977 146.317 94.6971 144.213 99.8583 140.814C104.921 137.48 109.412 132.762 111.063 126.794C111.262 126.071 111.416 125.336 111.525 124.593C111.68 123.555 110.091 123.108 109.935 124.155H109.933Z" fill="#2D1111"/>
<path d="M23.8728 107.202C21.7794 100.989 21.2543 94.3807 22.5799 87.9495C23.9055 81.5184 26.8667 75.5125 30.685 70.2093C37.6556 60.528 48.4013 53.5479 60.0503 51.0244C65.9458 49.7477 72.1715 49.6374 78.1582 50.245C84.2543 50.8622 90.312 52.4315 95.8198 55.1547C103.816 59.1122 110.163 65.5376 114.817 73.0821C120.464 82.2383 123.14 93.1012 120.793 103.744C120.441 105.323 119.998 106.879 119.466 108.406C119.119 109.411 120.714 109.846 121.056 108.845C123.094 102.948 123.791 96.6671 122.966 90.4769C122.255 85.1477 120.481 80.0143 117.969 75.2687C113.868 67.5245 107.864 60.457 100.384 55.8074C89.6411 49.1286 76.1127 47.1475 63.6872 48.7408C51.4652 50.3073 39.9285 56.677 31.9156 66.0127C27.6346 70.9954 24.2098 76.865 22.1633 83.1118C20.09 89.4364 19.6293 96.2044 20.951 102.732C21.292 104.395 21.7369 106.035 22.2833 107.643C22.6212 108.642 24.2136 108.213 23.8728 107.204V107.202Z" fill="#2D1111"/>
<path d="M28.0761 106.442C28.3257 109.77 28.7422 113.083 29.3239 116.368C29.4016 116.807 29.9372 117.054 30.3375 116.944C30.8002 116.818 30.9912 116.368 30.9134 115.931C30.3587 112.79 29.9621 109.624 29.7251 106.443C29.6474 105.387 27.9973 105.387 28.077 106.443L28.0761 106.442Z" fill="#2D1111"/>
<path d="M113.89 110.844C116.049 109.317 118.875 109.309 120.87 111.138C122.669 112.789 123.34 115.213 123.275 117.592C123.159 121.944 120.344 125.698 116.592 127.714C114.422 128.877 111.984 129.446 109.524 129.366C108.464 129.332 108.468 130.981 109.524 131.015C114.606 131.175 119.657 128.74 122.596 124.573C125.535 120.407 126.074 113.778 122.116 110.042C120.915 108.9 119.353 108.214 117.7 108.1C116.047 107.987 114.407 108.454 113.061 109.421C112.197 110.029 113.025 111.46 113.893 110.844H113.89Z" fill="#2D1111"/>
<path d="M28.1575 106.274C25.5217 106.204 22.8168 106.713 20.7223 108.405C19.1011 109.716 18.0913 111.659 17.7141 113.691C16.879 118.185 18.458 123.251 21.831 126.361C23.2505 127.657 24.9181 128.652 26.7329 129.285C28.5477 129.918 30.472 130.176 32.3895 130.044C33.4454 129.968 33.4454 128.317 32.3895 128.395C26.902 128.796 21.6323 125.562 19.87 120.299C18.7642 116.996 18.6759 112.696 21.329 110.075C23.1287 108.298 25.7281 107.86 28.1623 107.925C29.2239 107.953 29.2181 106.305 28.1623 106.276L28.1575 106.274Z" fill="#2D1111"/>
<path d="M120.919 109.481L120.865 108.829C120.867 108.72 120.836 108.614 120.775 108.524C120.715 108.435 120.628 108.366 120.527 108.327C120.462 108.292 120.389 108.275 120.316 108.279C120.172 108.281 120.034 108.339 119.932 108.44C119.881 108.49 119.84 108.55 119.813 108.616C119.785 108.682 119.771 108.752 119.771 108.824L119.825 109.477C119.822 109.55 119.838 109.623 119.872 109.689C119.894 109.756 119.933 109.817 119.986 109.865C120.091 109.962 120.227 110.019 120.369 110.026C120.515 110.025 120.655 109.968 120.758 109.865C120.809 109.815 120.849 109.755 120.877 109.689C120.905 109.624 120.919 109.553 120.919 109.481Z" fill="#2D1111"/>
<path d="M111.872 106.828C111.953 110.357 110.888 113.835 110.511 117.326C110.463 117.769 110.925 118.15 111.336 118.15C111.821 118.15 112.112 117.766 112.16 117.326C112.538 113.833 113.6 110.361 113.52 106.828C113.496 105.772 111.848 105.765 111.872 106.828Z" fill="#2D1111"/>
<path d="M28.2358 105.833C31.0091 104.587 33.8481 103.493 36.7402 102.555C38.131 102.103 39.5987 101.799 40.9636 101.295C41.4003 101.133 41.6653 100.803 41.9168 100.425C42.6079 99.3845 43.0801 98.1751 43.5764 97.0357C44.2358 95.5201 44.8645 93.992 45.5287 92.4783C46.0164 91.3658 46.4838 90.1813 47.1749 89.1754C47.2882 89.0112 47.1749 89.1802 47.222 89.113C47.3256 88.9508 47.3112 89.113 47.2104 89.0957C47.3544 89.1264 46.9724 89.1485 46.8937 89.1379C46.6355 89.1043 46.6336 88.9987 46.5155 88.9172C46.6355 89.0007 46.5155 88.8567 46.552 88.9824C46.5827 89.0784 46.6076 89.1744 46.6307 89.2704C46.6811 89.4783 46.7133 89.6903 46.7267 89.9039C46.9897 92.6136 46.5568 95.427 47.0924 98.1079C47.1759 98.5245 47.3141 98.9718 47.6328 99.2722C48.3296 99.924 49.5756 99.3768 50.3674 99.2444C53.4569 98.728 56.5659 98.3546 59.6945 98.1242C65.8885 97.6548 72.1171 97.7038 78.3102 98.1578C79.933 98.2768 81.5542 98.4246 83.1738 98.6013C83.8944 98.6806 84.6149 98.7654 85.3354 98.8556C86.0285 98.943 86.8213 99.1801 87.5191 99.1436C88.7583 99.0822 88.8102 97.0319 88.9388 96.1622C89.1384 94.8127 89.2344 93.4084 89.6107 92.0943C89.6587 91.9273 89.6452 92.0223 89.6366 92.0175C89.7873 92.1135 88.4848 92.2777 88.5807 92.0694C88.5903 92.0492 88.6057 92.0223 88.5894 92.0914C88.5836 92.1106 88.6547 92.2124 88.6633 92.2316C88.6978 92.3022 88.7261 92.3758 88.7478 92.4514C88.9724 93.1127 89.1432 93.7895 89.3093 94.4671C89.6539 95.8704 89.9006 97.3467 90.4381 98.6905C90.7021 99.35 91.0083 99.6926 91.7291 99.8366C93.1049 100.111 94.4782 100.399 95.8489 100.7C100.903 101.815 105.881 103.24 110.616 105.349C111.864 105.904 113.09 106.501 114.304 107.121C115.247 107.601 116.082 106.181 115.136 105.698C110.396 103.268 105.4 101.372 100.241 100.044C97.6131 99.3663 94.9572 98.8038 92.2974 98.2701C92.1314 98.2484 91.9669 98.2164 91.805 98.1741C91.7925 98.1386 92.1227 98.3546 92.0929 98.3594C92.2014 98.3392 92.0555 98.4496 92.0852 98.3363C92.0919 98.3123 92.0363 98.2519 92.0267 98.224C91.9921 98.1338 91.8625 97.7835 91.7867 97.5329C91.5688 96.8073 91.3951 96.0691 91.2194 95.3329C90.9056 94.0265 90.7155 92.4658 90.034 91.2852C89.7211 90.7428 89.0808 90.4213 88.5232 90.8388C88.1248 91.1373 88.0039 91.6825 87.9021 92.1442C87.5873 93.584 87.474 95.0651 87.2302 96.5174C87.1813 96.8054 87.1342 97.0933 87.0613 97.3813C87.0354 97.4849 87.0066 97.5876 86.9778 97.6904C86.9608 97.7313 86.9464 97.7733 86.9346 97.8161C86.9682 97.5838 86.9855 97.7921 86.9288 97.8075C86.9451 97.8075 87.426 97.4235 87.4491 97.4897C87.4414 97.4686 86.9826 97.4245 86.9087 97.4149C86.5209 97.3618 86.1331 97.3102 85.7453 97.2603C84.8904 97.1496 84.0348 97.0476 83.1786 96.9541C76.8906 96.2531 70.5599 96.009 64.2366 96.2237C61.076 96.3382 57.9235 96.5836 54.779 96.9599C53.2925 97.1416 51.8092 97.3518 50.329 97.5905C49.9336 97.6545 49.5388 97.7214 49.1446 97.7911C49.0611 97.8065 48.5043 97.8574 48.4871 97.9092C48.4381 98.0541 48.2577 97.6635 48.561 97.9562C48.6013 97.9956 48.8029 98.0983 48.7529 98.0522C49.1071 98.3527 48.7683 98.106 48.8077 98.1079C48.776 98.1079 48.8163 98.1722 48.8077 98.1079C48.3604 95.6564 48.607 92.8728 48.417 90.2619C48.3546 89.3981 48.321 87.8363 47.2651 87.5397C46.2496 87.2518 45.6487 88.4641 45.2696 89.185C43.8192 91.9398 42.7931 94.9077 41.481 97.7278C41.2324 98.2624 40.979 98.798 40.6804 99.3068C40.6315 99.3893 40.3368 99.8501 40.4549 99.6734C40.4347 99.7042 40.3589 99.8059 40.3263 99.8145C40.1957 99.8453 40.4741 99.7329 40.3915 99.7637C40.6795 99.6581 40.3982 99.7483 40.2735 99.7781C37.3132 100.478 34.3828 101.559 31.554 102.665C30.1584 103.211 28.7771 103.792 27.4103 104.409C26.4437 104.843 27.2817 106.265 28.2425 105.833H28.2358Z" fill="#2D1111"/>
<path d="M47.4573 88.7251C49.547 77.6136 53.1542 66.4888 59.569 57.083C61.4064 54.3756 63.5058 51.8557 65.8369 49.5596C66.3428 49.0643 65.5653 48.2868 65.0604 48.783C56.7258 56.9534 51.6836 67.941 48.5737 79.0477C47.7098 82.1413 46.9899 85.2753 46.3957 88.4323C46.2662 89.1234 47.3249 89.42 47.4516 88.7251H47.4573Z" fill="#2D1111"/>
<path d="M75.5323 49.4491C82.5201 58.8443 86.1398 70.3167 87.5873 81.838C87.9971 85.1015 88.2352 88.3785 88.334 91.6641C88.3552 92.3696 89.4542 92.3725 89.4331 91.6641C89.0808 79.9173 86.9374 68.0024 81.6831 57.4065C80.2074 54.4192 78.4665 51.5704 76.4816 48.8943C76.064 48.3328 75.1099 48.8799 75.5323 49.4491Z" fill="#2D1111"/>
<path d="M77.2054 50.2344C82.093 50.3093 86.399 53.21 90.0052 56.2576C93.2718 59.032 96.1857 62.1966 98.6815 65.6806C103.769 72.7482 107.287 80.9425 109.013 89.4739C109.985 94.2196 110.345 99.0701 110.087 103.907C110.047 104.614 111.142 104.612 111.186 103.907C111.685 94.9864 109.979 85.9694 106.586 77.7222C103.216 69.5336 98.1574 61.9372 91.4777 56.082C87.4952 52.589 82.7045 49.2227 77.2054 49.1383C76.4979 49.1268 76.4979 50.2258 77.2054 50.2373V50.2344Z" fill="#2D1111"/>
<path d="M63.437 48.9079C54.7982 50.9409 46.8581 55.673 40.8926 62.2328C34.545 69.212 30.7103 78.1531 29.8243 87.533C29.3052 93.0055 29.8174 98.5268 31.3342 103.81C31.5262 104.488 32.5907 104.2 32.39 103.522C29.7619 94.4095 30.2783 84.5113 33.7588 75.692C37.0041 67.4583 42.9409 60.4301 50.3732 55.6519C54.4702 53.0141 58.9867 51.0934 63.7288 49.9724C64.417 49.8102 64.1252 48.7505 63.4408 48.9165L63.437 48.9079Z" fill="#2D1111"/>
<path d="M55.223 115.562C57.9097 115.562 60.0876 113.186 60.0876 110.256C60.0876 107.325 57.9097 104.95 55.223 104.95C52.5364 104.95 50.3584 107.325 50.3584 110.256C50.3584 113.186 52.5364 115.562 55.223 115.562Z" fill="#4A2616"/>
<path d="M87.9457 115.562C90.6323 115.562 92.8103 113.186 92.8103 110.256C92.8103 107.325 90.6323 104.95 87.9457 104.95C85.259 104.95 83.0811 107.325 83.0811 110.256C83.0811 113.186 85.259 115.562 87.9457 115.562Z" fill="#4A2616"/>
<path d="M52.7963 109.862C53.1641 109.494 53.1641 108.898 52.7963 108.53C52.4286 108.162 51.8324 108.162 51.4647 108.53C51.0969 108.898 51.0969 109.494 51.4647 109.862C51.8324 110.229 52.4286 110.229 52.7963 109.862Z" fill="#FFF9F2"/>
<path d="M91.9681 109.405C92.0876 108.899 91.7741 108.392 91.268 108.272C90.7619 108.153 90.2547 108.466 90.1352 108.972C90.0158 109.478 90.3292 109.986 90.8354 110.105C91.3415 110.224 91.8487 109.911 91.9681 109.405Z" fill="#FFF9F2"/>
<path d="M22.9249 66.7039L27.2049 71.9275C37.2883 63.377 49.7321 58.5297 61.9205 53.6075C64.2098 52.6831 67.217 52.0957 69.6609 51.7491C76.1764 50.8248 82.8245 50.3314 89.3929 50.7346C88.648 47.2262 88.1566 43.8965 87.0786 40.7011C91.4153 36.1628 92.0219 28.5338 89.1116 22.9723C87.2744 19.4592 84.3257 16.6247 80.8203 14.7731C75.0352 11.7198 68.2806 10.0026 61.8974 11.4328C60.9904 11.6353 60.0631 11.9021 59.1474 11.7447C57.0655 11.3867 57.2661 9.54758 56.095 7.79007C52.2968 2.08941 42.4649 -0.114448 35.7458 1.21593C29.0268 2.54631 24.7707 5.13891 19.7938 9.84514C18.354 11.2082 16.8508 13.8708 15.7796 15.542C13.689 18.8055 12.6783 23.1547 13.0584 27.0095C13.4385 30.8643 14.5136 34.2805 16.3431 37.6957C16.5069 37.6745 16.6604 37.604 16.7833 37.4936C16.9061 37.3832 16.9926 37.2382 17.0313 37.0776C17.3864 37.0977 17.3903 37.6161 17.135 37.8647C16.8796 38.1133 16.4909 38.1373 16.1367 38.1766C13.9866 38.4156 12.0553 39.7278 10.7086 41.4219C9.36194 43.1161 8.54797 45.1702 7.94038 47.2512C7.30562 49.4202 6.8829 51.6457 6.67815 53.8964C6.47946 56.0791 6.50153 58.3559 7.38749 60.3611C8.14483 62.0745 9.47808 63.4624 10.8526 64.7342C11.9373 65.7383 13.1093 66.7202 14.5251 67.1454C15.5157 67.443 16.5706 67.4488 17.6034 67.3873C19.2682 67.2883 20.9186 67.0208 22.5294 66.5887C22.6244 66.7135 22.8231 66.5801 22.9249 66.7039Z" fill="#FFF9F2"/>
<path d="M14.7247 56.6789C17.4008 55.5645 19.908 53.8473 21.4649 51.3996C23.0218 48.9519 23.4759 45.7028 22.1695 43.115C23.3482 43.5914 24.6243 43.7771 25.89 43.6562C27.1556 43.5354 28.3735 43.1116 29.4408 42.4206C30.5081 41.7297 31.3933 40.7919 32.0216 39.6866C32.6499 38.5813 33.0028 37.341 33.0505 36.0705C38.4076 38.1265 44.4096 38.8935 49.9164 37.2799C55.4231 35.6664 60.3079 31.4247 61.8187 25.8901C64.6984 30.5839 69.6186 34.8246 75.0755 34.1076C76.5863 33.9098 77.0394 33.7457 78.0002 32.5631C78.6222 31.7952 79.4794 31.6551 79.4611 30.4207C79.5865 30.4168 79.7073 30.3727 79.8057 30.295C80.0426 30.1087 80.2386 29.8758 80.3816 29.6106C82.3014 31.5668 85.1176 33.6631 86.6083 33.3685C88.2794 33.0364 89.9294 30.4965 90.4113 33.5057C90.7117 35.3784 88.8323 38.1371 87.0719 39.789C86.5162 40.3093 87.2082 41.0186 86.447 40.9821C86.018 40.962 84.8153 39.9263 84.4534 39.694C81.9721 38.0805 78.7038 38.4625 75.7551 38.2014C65.9267 37.3449 56.0472 39.1155 47.128 43.3319C43.1714 45.2094 39.4548 47.5476 35.7487 49.8801C32.5476 51.8958 29.2831 53.9644 26.9179 56.915C24.6507 59.7418 22.8798 64.3213 23.7936 67.8575C23.7641 67.8308 23.7319 67.8074 23.6976 67.7874C23.2292 67.5062 22.7915 67.1789 22.2885 66.9581C21.7423 66.7181 21.2326 66.7488 20.6894 66.9888C20.3265 67.151 19.9599 67.3046 19.5941 67.4601C17.4488 67.4035 15.1663 67.5619 14.3389 67.7212C21.0887 65.1555 17.6715 58.8894 14.7247 56.6789Z" fill="#FAB292"/>
<path d="M89.3419 50.3524C85.2202 49.7688 81.0371 49.8062 76.8972 50.1652C72.3223 50.561 67.7882 51.3367 63.3419 52.4843C58.9822 53.6111 54.7991 55.2036 50.6851 57.0139C46.3394 58.9111 42.1027 61.0489 37.9947 63.4171C33.9546 65.7611 29.9452 68.3528 26.555 71.5895C25.7871 72.3238 26.9533 73.4881 27.7212 72.7557C30.6316 69.9721 34.0189 67.7174 37.4572 65.6527C41.4239 63.2867 45.5211 61.1466 49.7291 59.2427C53.702 57.4276 57.7469 55.7737 61.9511 54.5748C66.2632 53.3455 70.6711 52.4811 75.1282 51.9909C79.6779 51.4908 84.3563 51.3017 88.9023 51.9458C89.3467 52.0091 89.7825 51.8373 89.9159 51.3698C90.0272 50.9859 89.7805 50.4186 89.34 50.3562L89.3419 50.3524Z" fill="#2D1111"/>
<path d="M86.362 40.9582C86.9379 44.2774 87.9103 47.6148 88.3249 50.9139C88.3797 51.3564 88.6638 51.7384 89.1485 51.7384C89.5517 51.7384 90.0287 51.3545 89.973 50.9139C89.5334 47.4104 88.5524 43.9961 87.9516 40.5195C87.8757 40.0808 87.3372 39.8341 86.9379 39.9436C86.4743 40.0712 86.2862 40.5195 86.362 40.9582Z" fill="#2D1111"/>
<path d="M27.785 71.4754C26.1129 69.5393 24.506 67.5255 22.6324 65.7757C22.4756 65.6251 22.2666 65.541 22.0493 65.541C21.8319 65.541 21.6229 65.6251 21.4661 65.7757C21.159 66.0829 21.1398 66.6396 21.4661 66.9419C23.3408 68.6908 24.9466 70.7046 26.6197 72.6407C26.9076 72.9785 27.4836 72.9402 27.785 72.6407C28.119 72.3066 28.0729 71.8133 27.785 71.4754Z" fill="#2D1111"/>
<path d="M39.8117 46.2546C36.7351 48.0754 33.8176 50.1525 31.0904 52.464C30.5567 52.9152 31.3274 53.6792 31.8583 53.2319C34.5159 50.9825 37.3593 48.9621 40.3579 47.1924C40.9578 46.8373 40.4136 45.8995 39.8108 46.2556L39.8117 46.2546Z" fill="#2D1111"/>
<path d="M66.7589 37.7484C58.3745 38.4836 50.2002 40.7854 42.7161 44.6489C42.0961 44.9685 42.6432 45.9044 43.2633 45.5847C50.5679 41.8144 58.5741 39.551 66.7589 38.8321C67.4481 38.7716 67.4548 37.6869 66.7589 37.7484Z" fill="#2D1111"/>
<path d="M84.374 38.5164C79.8391 37.7463 75.2407 37.414 70.6421 37.5239C69.9462 37.5412 69.9434 38.6259 70.6421 38.6076C75.1417 38.4947 79.6418 38.8142 84.0803 39.5617C84.7628 39.676 85.0565 38.6316 84.3683 38.5164H84.374Z" fill="#2D1111"/>
<path d="M86.9913 41.4736C90.229 38.4232 91.9279 34.2065 91.5334 29.7575C91.1725 25.6905 89.39 21.8443 86.83 18.695C80.6677 11.1121 69.7751 9.08385 60.57 10.7339C60.1467 10.8097 59.2262 11.186 58.8576 10.9326C58.6829 10.8135 58.5696 10.467 58.4736 10.2894C58.3258 10.0245 58.1729 9.76248 58.0148 9.50331C57.4729 8.62339 56.8675 7.78416 56.2035 6.9923C54.9778 5.5329 53.5399 4.26583 51.9379 3.23345C48.8298 1.22733 45.1689 0.210828 41.4916 0.0303725C33.9087 -0.341097 26.1155 2.718 20.6433 7.93585C17.0016 11.4096 14.146 15.9076 12.9135 20.8106C11.6858 25.6896 12.1657 31.0149 14.5875 35.461C15.1808 36.5366 15.885 37.5471 16.6886 38.476L17.2674 37.0698C10.8901 37.1725 7.63037 44.4675 6.39214 49.7467C5.60217 53.1063 5.48314 56.701 6.61387 60.001C7.60829 62.9056 9.51267 65.599 12.2502 67.0877C15.2719 68.7301 19.095 68.8961 22.0793 67.0877C22.9844 66.5368 22.157 65.1104 21.2471 65.6642C18.9568 67.0561 16.0638 67.0532 13.6478 65.9522C11.1713 64.8224 9.35813 62.5773 8.38674 60.0721C7.28961 57.2385 7.20515 54.1401 7.76475 51.1866C8.30132 48.3693 9.26982 45.5233 10.8181 43.0977C12.2579 40.8334 14.4282 38.7659 17.2636 38.7227C18.0152 38.7111 18.3012 37.8473 17.8462 37.3155C14.6998 33.6382 13.4904 28.6268 14.0068 23.8697C14.5395 19.005 16.9545 14.4274 20.1691 10.8011C24.9934 5.35956 32.1041 1.93955 39.3876 1.67175C42.8095 1.546 46.2987 2.1344 49.3702 3.67883C52.6443 5.32117 55.2571 7.93585 57.0367 11.1264C57.6923 12.3013 58.4266 12.8235 59.8117 12.5663C61.001 12.3426 62.1797 12.1199 63.3853 11.9999C65.7904 11.7539 68.2158 11.7842 70.614 12.0902C75.1715 12.6853 79.7779 14.4034 83.2929 17.4261C88.8794 22.2312 92.3061 31.1925 87.932 37.8501C87.3273 38.7524 86.6185 39.5804 85.8203 40.317C85.0466 41.0465 86.2138 42.2108 86.9865 41.4832L86.9913 41.4736Z" fill="#2D1111"/>
<path d="M78.9974 30.4054C79.4389 31.6869 79.5654 33.0558 79.3665 34.3965C79.1675 35.7372 78.6488 37.0103 77.8542 38.1084C77.4444 38.6747 78.3841 39.2161 78.7901 38.6555C79.6596 37.4329 80.2261 36.0213 80.4431 34.5369C80.66 33.0524 80.5211 31.5377 80.0379 30.1175C79.8114 29.4619 78.7632 29.7441 78.9926 30.4054H78.9974Z" fill="#2D1111"/>
<path d="M31.1905 52.6802C28.9061 50.8717 27.0121 48.6185 25.6233 46.0572C25.2912 45.4428 24.3553 45.99 24.6874 46.6043C26.1191 49.25 28.0716 51.5783 30.4274 53.4491C30.6568 53.6305 30.9697 53.6728 31.1953 53.4491C31.3873 53.2571 31.4257 52.8655 31.1953 52.6812L31.1905 52.6802Z" fill="#2D1111"/>
<path d="M28.7553 54.1833C27.7255 54.4428 26.6554 54.5025 25.6031 54.3589C25.3238 54.3177 25.0061 54.428 24.9312 54.7371C24.8727 54.9944 25.0099 55.3601 25.3094 55.409C26.5522 55.5968 27.8198 55.5371 29.0394 55.2334C29.1771 55.1939 29.2939 55.1021 29.3646 54.9775C29.4353 54.853 29.4543 54.7057 29.4176 54.5672C29.3769 54.4291 29.284 54.3122 29.1586 54.2414C29.0331 54.1706 28.885 54.1515 28.7457 54.1881L28.7553 54.1833Z" fill="#2D1111"/>
<path d="M23.3514 61.9976C23.3447 62.0705 23.338 62.1435 23.3284 62.2164C23.3409 62.1205 23.3111 62.3249 23.3073 62.3431C23.2823 62.4881 23.2516 62.6311 23.2161 62.7732C23.1806 62.9152 23.1383 63.0554 23.0913 63.1946C23.0683 63.2637 23.0433 63.3328 23.0174 63.4009C23.0107 63.4182 22.9349 63.6035 22.9684 63.5257C22.8525 63.795 22.7155 64.0546 22.5586 64.3022C22.4808 64.4261 22.3973 64.546 22.3109 64.6641C22.2716 64.7159 22.2668 64.7227 22.2956 64.6852L22.2265 64.7707C22.1804 64.8273 22.1305 64.883 22.0834 64.9377C21.8963 65.1498 21.8588 65.4973 22.0834 65.7056C22.2889 65.8975 22.6498 65.9321 22.8513 65.7056C23.7633 64.6717 24.3188 63.3721 24.4361 61.9986C24.461 61.7106 24.1692 61.4438 23.8938 61.4562C23.7512 61.4601 23.6156 61.5185 23.5149 61.6194C23.4142 61.7203 23.356 61.856 23.3524 61.9986L23.3514 61.9976Z" fill="#2D1111"/>
<path d="M26.7711 56.343C25.9902 57.3332 25.3428 58.4218 24.8456 59.5807C24.7352 59.8408 24.7592 60.1739 25.0375 60.3217C25.2698 60.4445 25.6605 60.4061 25.7786 60.1297C26.0105 59.5787 26.2779 59.0432 26.5791 58.5267C26.7298 58.2695 26.8891 58.0161 27.059 57.7694C27.1428 57.6452 27.2283 57.523 27.3153 57.4027C27.3595 57.3422 27.4036 57.2818 27.4487 57.2223L27.5159 57.133C27.4881 57.1685 27.4948 57.1608 27.5342 57.11C27.7089 56.8873 27.7684 56.558 27.5342 56.3421C27.3422 56.1635 26.9582 56.104 26.7663 56.3421L26.7711 56.343Z" fill="#2D1111"/>
<path d="M69.4258 167.785C69.1041 167.803 68.7882 167.693 68.5476 167.479C68.307 167.264 68.1612 166.963 68.1424 166.641L68.0177 164.486C68.0084 164.326 68.0307 164.167 68.0832 164.016C68.1357 163.865 68.2173 163.727 68.3235 163.608C68.4297 163.488 68.5583 163.391 68.7019 163.322C68.8456 163.253 69.0016 163.212 69.1609 163.203C69.3201 163.194 69.4796 163.216 69.6303 163.268C69.7809 163.321 69.9198 163.402 70.0389 163.508C70.158 163.615 70.255 163.743 70.3244 163.887C70.3938 164.03 70.4342 164.186 70.4432 164.346L70.568 166.501C70.5774 166.661 70.5552 166.82 70.5029 166.971C70.4505 167.122 70.369 167.261 70.2629 167.38C70.1568 167.499 70.0283 167.596 69.8846 167.666C69.741 167.735 69.5851 167.776 69.4258 167.785Z" fill="#FFF9F2"/>
<path d="M69.9557 164.473L70.0353 165.845C69.8075 165.737 69.5563 165.689 69.3048 165.703C69.0533 165.718 68.8094 165.795 68.5955 165.928L68.5159 164.557C68.5048 164.366 68.57 164.178 68.6972 164.035C68.8244 163.892 69.0031 163.806 69.194 163.795C69.3849 163.784 69.5724 163.849 69.7153 163.976C69.8581 164.103 69.9446 164.282 69.9557 164.473Z" fill="#FAB292"/>
<path d="M71.9161 167.641C72.2378 167.622 72.5389 167.476 72.7532 167.235C72.9676 166.995 73.0776 166.679 73.0593 166.357L72.9345 164.201C72.9157 163.88 72.77 163.579 72.5294 163.364C72.2887 163.15 71.9729 163.04 71.6512 163.058C71.4919 163.067 71.3359 163.108 71.1923 163.177C71.0487 163.247 70.9201 163.344 70.8141 163.463C70.708 163.582 70.6264 163.721 70.5741 163.872C70.5217 164.023 70.4996 164.182 70.5089 164.341L70.6337 166.497C70.6428 166.657 70.6831 166.813 70.7525 166.956C70.8219 167.1 70.9189 167.229 71.038 167.335C71.1571 167.441 71.2959 167.523 71.4466 167.575C71.5973 167.627 71.7568 167.65 71.9161 167.641Z" fill="#FFF9F2"/>
<path d="M71.0088 164.413L71.0885 165.784C71.3024 165.651 71.5462 165.574 71.7977 165.559C72.0492 165.545 72.3004 165.593 72.5283 165.701L72.4486 164.329C72.433 164.142 72.345 163.969 72.2033 163.846C72.0617 163.723 71.8776 163.66 71.6904 163.671C71.5031 163.682 71.3276 163.766 71.2011 163.904C71.0747 164.043 71.0074 164.225 71.0136 164.413H71.0088Z" fill="#FAB292"/>
<path d="M70.8959 171.829C73.3145 171.689 75.1888 170.083 75.0823 168.241C74.9758 166.4 72.9287 165.02 70.5101 165.16C68.0915 165.3 66.2172 166.906 66.3237 168.748C66.4302 170.59 68.4773 171.969 70.8959 171.829Z" fill="#FFF9F2"/>
<path d="M69.8268 167.097C69.8393 167.31 69.6252 167.497 69.3469 167.512C69.0685 167.527 68.8362 167.369 68.8238 167.156C68.8113 166.943 69.0253 166.757 69.3037 166.741C69.5821 166.725 69.8153 166.884 69.8268 167.097Z" fill="#FAB292"/>
<path d="M71.9795 167.273C72.2562 167.257 72.4706 167.071 72.4583 166.859C72.4459 166.646 72.2115 166.486 71.9348 166.502C71.658 166.518 71.4436 166.704 71.4559 166.917C71.4683 167.129 71.7027 167.289 71.9795 167.273Z" fill="#FAB292"/>
<path d="M70.5987 167.059L70.5537 167.062L70.5971 167.812L70.6421 167.809L70.5987 167.059Z" fill="#944C2C"/>
<path d="M70.9326 166.813C70.9422 166.978 70.7819 167.121 70.5746 167.134C70.3672 167.146 70.1906 167.022 70.182 166.857C70.1733 166.691 70.3327 166.548 70.54 166.537C70.7473 166.525 70.9239 166.648 70.9326 166.813Z" fill="#944C2C"/>
<path d="M69.8438 166.642C69.847 166.695 69.8345 166.747 69.8081 166.792C69.7816 166.837 69.7423 166.874 69.6952 166.896C69.6481 166.919 69.5952 166.928 69.5433 166.921C69.4914 166.914 69.4428 166.891 69.4036 166.856C69.3644 166.822 69.3364 166.776 69.3231 166.725C69.3098 166.675 69.3119 166.621 69.329 166.572C69.3461 166.522 69.3775 166.479 69.4193 166.447C69.461 166.415 69.5112 166.397 69.5635 166.394C69.6337 166.39 69.7026 166.413 69.7552 166.46C69.8077 166.507 69.8396 166.572 69.8438 166.642Z" fill="#944C2C"/>
<path d="M71.7526 166.536C71.7554 166.585 71.7434 166.634 71.7183 166.677C71.6931 166.72 71.6559 166.754 71.6113 166.776C71.5667 166.797 71.5167 166.805 71.4677 166.798C71.4186 166.791 71.3728 166.77 71.3358 166.737C71.2988 166.704 71.2725 166.661 71.26 166.613C71.2476 166.565 71.2496 166.514 71.2658 166.468C71.2821 166.421 71.3118 166.38 71.3513 166.35C71.3908 166.32 71.4383 166.303 71.4877 166.3C71.5206 166.298 71.5536 166.302 71.5847 166.313C71.6159 166.324 71.6446 166.341 71.6692 166.363C71.6938 166.385 71.7138 166.411 71.7281 166.441C71.7425 166.471 71.7508 166.503 71.7526 166.536Z" fill="#944C2C"/>
<path d="M105.106 14.6156C105.898 14.8534 106.736 14.895 107.548 14.7366C108.361 14.5782 109.122 14.2247 109.767 13.7066C113.065 11.0583 117.968 13.3418 118.064 17.57C118.083 18.397 118.302 19.207 118.704 19.9304C119.105 20.6537 119.676 21.2687 120.368 21.7224C123.906 24.0405 123.247 29.4091 119.257 30.8066C118.476 31.0801 117.774 31.5394 117.21 32.1449C116.646 32.7504 116.238 33.484 116.02 34.2823C114.909 38.3627 109.601 39.3974 107.038 36.0331C106.536 35.375 105.882 34.8486 105.132 34.4993C104.382 34.15 103.558 33.9882 102.732 34.0279C98.5085 34.2324 95.8833 29.5031 98.2906 26.0265C98.7617 25.3464 99.0603 24.5619 99.1606 23.7406C99.261 22.9194 99.16 22.0861 98.8665 21.3126C97.3682 17.3531 101.055 13.3965 105.106 14.6156Z" fill="#FFC35C"/>
<path d="M104.886 15.4066C105.645 15.6284 106.44 15.6977 107.225 15.6104C108.011 15.5231 108.771 15.2809 109.463 14.8978C110.548 14.296 111.32 13.4907 112.636 13.4033C114.898 13.2517 116.989 14.9391 117.219 17.213C117.37 18.7056 117.603 19.9794 118.572 21.1888C119.354 22.1621 120.556 22.6507 121.219 23.7305C122.353 25.5725 121.905 28.1239 120.149 29.4178C119.749 29.7115 119.307 29.8977 118.85 30.0781C118.102 30.3661 117.417 30.7979 116.834 31.349C116.31 31.8531 115.884 32.4504 115.579 33.1104C115.327 33.6565 115.219 34.2536 114.96 34.794C114.014 36.7732 111.64 37.711 109.584 36.9537C108.313 36.4843 107.83 35.4908 106.911 34.6903C105.734 33.6652 104.28 33.1824 102.731 33.2006C100.452 33.2275 98.4366 31.6763 98.2129 29.3227C98.1472 28.6399 98.249 27.9512 98.5095 27.3166C98.7841 26.6553 99.2553 26.1053 99.5375 25.4449C99.8933 24.6269 100.057 23.7385 100.017 22.8475C99.9695 21.949 99.6191 21.1859 99.4416 20.3249C98.7696 17.1458 101.886 14.5657 104.893 15.4066C105.916 15.6945 106.353 14.1031 105.33 13.817C103.844 13.3943 102.252 13.5607 100.886 14.2815C99.519 15.0023 98.4827 16.222 97.9922 17.6872C97.7679 18.3641 97.6741 19.0774 97.7157 19.7893C97.7685 20.6398 98.0891 21.3664 98.2753 22.1803C98.4748 23.0639 98.3895 23.9879 98.0315 24.82C97.7196 25.5408 97.2099 26.1369 96.9257 26.8789C95.938 29.4571 97.0141 32.4461 99.3033 33.9368C100.509 34.721 101.766 34.8007 103.154 34.8468C103.971 34.8797 104.761 35.1462 105.43 35.6147C106.076 36.061 106.457 36.707 107.015 37.2388C108.916 39.0577 111.884 39.3745 114.146 38.0355C115.263 37.3669 116.127 36.3477 116.604 35.1367C116.861 34.4935 116.997 33.8456 117.384 33.2553C117.852 32.5528 118.516 32.0026 119.293 31.6725C120.525 31.1465 121.56 30.5907 122.375 29.4801C123.131 28.4319 123.527 27.1664 123.503 25.8739C123.478 24.5962 123.041 23.3608 122.255 22.3531C121.322 21.1571 119.864 20.6119 119.233 19.151C118.906 18.3927 118.934 17.6229 118.822 16.8262C118.718 16.0486 118.457 15.3003 118.054 14.6271C117.261 13.3323 116.008 12.3842 114.546 11.9721C113.099 11.5705 111.553 11.7335 110.221 12.4281C109.461 12.8245 108.869 13.4484 108.051 13.7469C107.175 14.065 106.22 14.0912 105.327 13.8218C104.305 13.5108 103.87 15.1013 104.886 15.4066Z" fill="#2D1111"/>
<g style="mix-blend-mode:multiply" opacity="0.3">
<g style="mix-blend-mode:multiply" opacity="0.3">
<path d="M121.099 28.8216C116.771 31.2865 111.277 32.519 106.396 31.1396C104.013 30.4677 101.673 29.2343 99.841 27.5632C99.2972 27.0634 98.7978 26.5175 98.3484 25.9314C98.3282 25.9621 98.3119 25.9957 98.2908 26.0274C95.8834 29.504 98.5077 34.2333 102.732 34.0298C103.559 33.9897 104.382 34.1512 105.132 34.5004C105.883 34.8495 106.537 35.3759 107.038 36.034C109.601 39.3983 114.909 38.3636 116.02 34.2832C116.238 33.485 116.646 32.7517 117.21 32.1464C117.774 31.5411 118.476 31.0819 119.257 30.8085C119.9 30.5876 120.492 30.2379 120.995 29.7808C121.499 29.3236 121.904 28.7686 122.186 28.1497C121.83 28.3858 121.468 28.6113 121.099 28.8216Z" fill="#80622E"/>
</g>
</g>
<path d="M104.886 15.4066C105.645 15.6284 106.44 15.6977 107.225 15.6104C108.011 15.5231 108.771 15.2809 109.463 14.8978C110.548 14.296 111.32 13.4907 112.636 13.4033C114.898 13.2517 116.989 14.9391 117.219 17.213C117.37 18.7056 117.603 19.9794 118.572 21.1888C119.354 22.1621 120.556 22.6507 121.219 23.7305C122.353 25.5725 121.905 28.1239 120.149 29.4178C119.749 29.7115 119.307 29.8977 118.85 30.0781C118.102 30.3661 117.417 30.7979 116.834 31.349C116.31 31.8531 115.884 32.4504 115.579 33.1104C115.327 33.6565 115.219 34.2536 114.96 34.794C114.014 36.7732 111.64 37.711 109.584 36.9537C108.313 36.4843 107.83 35.4908 106.911 34.6903C105.734 33.6652 104.28 33.1824 102.731 33.2006C100.452 33.2275 98.4366 31.6763 98.2129 29.3227C98.1472 28.6399 98.249 27.9512 98.5095 27.3166C98.7841 26.6553 99.2553 26.1053 99.5375 25.4449C99.8933 24.6269 100.057 23.7385 100.017 22.8475C99.9695 21.949 99.6191 21.1859 99.4416 20.3249C98.7696 17.1458 101.886 14.5657 104.893 15.4066C105.916 15.6945 106.353 14.1031 105.33 13.817C103.844 13.3943 102.252 13.5607 100.886 14.2815C99.519 15.0023 98.4827 16.222 97.9922 17.6872C97.7679 18.3641 97.6741 19.0774 97.7157 19.7893C97.7685 20.6398 98.0891 21.3664 98.2753 22.1803C98.4748 23.0639 98.3895 23.9879 98.0315 24.82C97.7196 25.5408 97.2099 26.1369 96.9257 26.8789C95.938 29.4571 97.0141 32.4461 99.3033 33.9368C100.509 34.721 101.766 34.8007 103.154 34.8468C103.971 34.8797 104.761 35.1462 105.43 35.6147C106.076 36.061 106.457 36.707 107.015 37.2388C108.916 39.0577 111.884 39.3745 114.146 38.0355C115.263 37.3669 116.127 36.3477 116.604 35.1367C116.861 34.4935 116.997 33.8456 117.384 33.2553C117.852 32.5528 118.516 32.0026 119.293 31.6725C120.525 31.1465 121.56 30.5907 122.375 29.4801C123.131 28.4319 123.527 27.1664 123.503 25.8739C123.478 24.5962 123.041 23.3608 122.255 22.3531C121.322 21.1571 119.864 20.6119 119.233 19.151C118.906 18.3927 118.934 17.6229 118.822 16.8262C118.718 16.0486 118.457 15.3003 118.054 14.6271C117.261 13.3323 116.008 12.3842 114.546 11.9721C113.099 11.5705 111.553 11.7335 110.221 12.4281C109.461 12.8245 108.869 13.4484 108.051 13.7469C107.175 14.065 106.22 14.0912 105.327 13.8218C104.305 13.5108 103.87 15.1013 104.886 15.4066Z" fill="#2D1111"/>
<g opacity="0.98">
<path d="M110.759 17.5268C110.664 17.3581 110.54 17.2066 110.395 17.0785C110.254 16.9546 110.104 16.8416 109.945 16.7406C109.78 16.6493 109.607 16.5713 109.429 16.5074C109.162 16.4122 108.881 16.3588 108.598 16.349C108.515 16.3413 108.431 16.3413 108.348 16.349C108.149 16.363 107.951 16.3928 107.756 16.4383C107.415 16.529 107.099 16.6968 106.834 16.9288C106.78 16.9537 106.724 16.9749 106.67 17.0008C106.317 17.1537 106.022 17.4157 105.829 17.7485C105.659 18.0483 105.597 18.3974 105.655 18.7372C105.704 19.071 105.853 19.3822 106.081 19.6308C106.202 19.7619 106.341 19.8755 106.493 19.9687C106.655 20.0678 106.83 20.1452 107.012 20.1991C107.101 20.2249 107.191 20.2432 107.283 20.2538C107.499 20.2864 107.716 20.319 107.934 20.3325C108.141 20.3451 108.348 20.34 108.555 20.3171C108.87 20.2938 109.181 20.2395 109.486 20.1549C110.282 19.8977 110.983 19.2574 110.984 18.3619C110.981 18.069 110.904 17.7817 110.759 17.5268Z" fill="#FFE1AE"/>
</g>
<path d="M114.204 16.3913C114.197 16.3308 114.188 16.2694 114.18 16.2089C114.176 16.1443 114.167 16.0801 114.153 16.017C114.118 15.9007 114.071 15.7887 114.012 15.6829L113.797 15.4036C113.797 15.4036 113.521 15.1905 113.517 15.1886C113.489 15.1752 113.374 15.1262 113.311 15.1003L113.186 15.0485H113.178H113.17L112.804 14.9995H112.78L112.414 15.0485H112.391H112.383H112.375L112.047 15.1867H112.042C111.935 15.2466 111.838 15.3219 111.754 15.4103C111.671 15.496 111.598 15.5907 111.536 15.6925L111.446 15.9056C111.371 16.04 111.327 16.1896 111.317 16.3433C111.277 16.525 111.285 16.7142 111.342 16.8914L111.48 17.2197C111.6 17.4236 111.77 17.5932 111.974 17.7121L112.302 17.8503C112.541 17.9166 112.793 17.9166 113.032 17.8503C113.052 17.8465 113.071 17.8417 113.091 17.8359C113.212 17.7946 113.328 17.7399 113.444 17.6871L113.471 17.6737C113.577 17.6052 113.677 17.5281 113.77 17.4433C113.773 17.4404 113.776 17.4372 113.779 17.4337L113.994 17.1563C113.997 17.153 114 17.1491 114.001 17.1448V17.14C114.007 17.1275 114.134 16.8242 114.139 16.8108C114.14 16.8066 114.14 16.8025 114.139 16.7983L114.188 16.4336V16.4249L114.204 16.3913Z" fill="#FFE1AE"/>
<path d="M136.404 104.407C136.858 104.543 137.339 104.566 137.804 104.475C138.269 104.384 138.706 104.181 139.075 103.883C140.965 102.366 143.778 103.674 143.829 106.097C143.84 106.571 143.966 107.035 144.196 107.45C144.426 107.864 144.753 108.217 145.15 108.476C147.177 109.805 146.801 112.881 144.514 113.683C144.066 113.839 143.664 114.102 143.34 114.449C143.017 114.796 142.783 115.216 142.658 115.673C142.022 118.013 138.98 118.605 137.511 116.677C137.224 116.3 136.85 115.998 136.42 115.797C135.99 115.596 135.517 115.503 135.044 115.526C132.623 115.643 131.119 112.934 132.499 110.94C132.769 110.551 132.94 110.101 132.997 109.63C133.055 109.16 132.997 108.683 132.829 108.239C131.972 105.979 134.084 103.711 136.404 104.407Z" fill="#FFC35C"/>
<path d="M136.278 104.862C137.031 105.083 137.837 105.037 138.56 104.733C139.232 104.45 139.706 103.892 140.443 103.751C141.852 103.48 143.207 104.519 143.348 105.936C143.425 106.695 143.531 107.369 143.991 108.005C144.414 108.591 145.085 108.882 145.515 109.445C146.314 110.501 146.091 112.079 145.035 112.874C144.484 113.291 143.793 113.411 143.259 113.872C142.706 114.352 142.405 114.944 142.179 115.622C141.742 116.934 140.332 117.689 139.004 117.216C138.292 116.963 137.985 116.398 137.455 115.923C136.866 115.4 136.116 115.095 135.329 115.059C134.606 115.022 133.968 115.013 133.371 114.533C132.857 114.113 132.528 113.509 132.454 112.849C132.358 111.937 132.895 111.371 133.222 110.59C133.577 109.743 133.528 108.887 133.253 108.03C133.11 107.603 133.085 107.144 133.183 106.704C133.281 106.264 133.498 105.86 133.809 105.534C134.12 105.208 134.514 104.973 134.949 104.854C135.384 104.736 135.843 104.739 136.277 104.862C136.865 105.02 137.115 104.109 136.528 103.951C134.839 103.498 133.061 104.313 132.401 105.967C132.084 106.758 132.113 107.574 132.371 108.374C132.533 108.883 132.605 109.382 132.467 109.91C132.342 110.373 132.048 110.718 131.844 111.141C131.592 111.663 131.477 112.241 131.512 112.82C131.546 113.399 131.729 113.959 132.041 114.447C132.354 114.936 132.786 115.336 133.297 115.61C133.808 115.884 134.381 116.022 134.961 116.012C136.035 116.018 136.639 116.435 137.33 117.204C138.342 118.331 140.01 118.61 141.362 117.952C142.044 117.615 142.59 117.056 142.91 116.365C143.294 115.53 143.445 114.752 144.35 114.281C145.054 113.912 145.704 113.694 146.218 113.041C146.658 112.478 146.912 111.793 146.946 111.079C146.983 110.331 146.769 109.592 146.337 108.979C145.83 108.266 144.966 107.937 144.566 107.138C144.142 106.293 144.346 105.319 143.859 104.473C143.442 103.764 142.786 103.227 142.009 102.959C141.193 102.676 140.299 102.718 139.513 103.075C139.111 103.257 138.799 103.555 138.414 103.767C137.837 104.078 137.16 104.147 136.532 103.959C135.945 103.777 135.696 104.688 136.278 104.862Z" fill="#2D1111"/>
<g style="mix-blend-mode:multiply" opacity="0.3">
<g style="mix-blend-mode:multiply" opacity="0.3">
<path d="M145.569 112.55C143.09 113.962 139.941 114.668 137.143 113.878C135.752 113.491 134.467 112.79 133.387 111.829C133.076 111.541 132.79 111.228 132.532 110.891C132.521 110.91 132.512 110.929 132.5 110.946C131.12 112.939 132.623 115.649 135.044 115.531C135.518 115.509 135.99 115.602 136.42 115.803C136.85 116.003 137.225 116.305 137.512 116.683C138.981 118.611 142.023 118.018 142.659 115.679C142.784 115.222 143.018 114.802 143.341 114.455C143.664 114.108 144.067 113.845 144.514 113.688C144.882 113.562 145.221 113.363 145.509 113.102C145.798 112.841 146.03 112.524 146.192 112.17C145.987 112.3 145.781 112.426 145.569 112.55Z" fill="#80622E"/>
</g>
</g>
<path d="M136.185 105.202C137.014 105.443 137.901 105.391 138.696 105.054C139.422 104.749 139.752 104.228 140.538 104.095C140.821 104.049 141.111 104.06 141.39 104.129C141.669 104.198 141.931 104.322 142.161 104.494C142.39 104.667 142.583 104.884 142.727 105.133C142.87 105.381 142.962 105.656 142.997 105.941C143.093 106.764 143.189 107.493 143.687 108.187C144.112 108.781 144.771 109.075 145.212 109.627C145.925 110.529 145.734 111.914 144.828 112.603C144.267 113.028 143.566 113.156 143.016 113.627C142.418 114.141 142.089 114.801 141.845 115.534C141.757 115.805 141.616 116.056 141.429 116.271C141.242 116.486 141.014 116.662 140.759 116.787C140.503 116.912 140.225 116.985 139.94 117.001C139.656 117.016 139.371 116.975 139.103 116.878C138.391 116.614 138.211 116.124 137.71 115.675C137.054 115.089 136.215 114.746 135.335 114.705C134.709 114.674 134.154 114.69 133.627 114.283C133.178 113.928 132.885 113.411 132.813 112.843C132.707 111.995 133.245 111.447 133.55 110.72C133.934 109.803 133.898 108.861 133.599 107.929C133.067 106.274 134.499 104.74 136.191 105.194C137.216 105.468 137.654 103.879 136.628 103.604C134.746 103.098 132.789 104.03 132.069 105.86C131.735 106.706 131.767 107.599 132.04 108.451C132.184 108.902 132.256 109.33 132.136 109.795C132.023 110.225 131.739 110.548 131.55 110.941C131.267 111.517 131.137 112.156 131.171 112.796C131.206 113.437 131.405 114.057 131.748 114.599C132.091 115.141 132.567 115.586 133.131 115.891C133.695 116.196 134.328 116.352 134.97 116.343C135.973 116.343 136.484 116.759 137.09 117.431C138.212 118.679 140.066 118.967 141.548 118.234C142.282 117.867 142.872 117.264 143.222 116.521C143.585 115.745 143.69 115 144.531 114.562C145.279 114.173 145.955 113.924 146.498 113.233C146.985 112.608 147.266 111.848 147.302 111.057C147.339 110.247 147.108 109.446 146.645 108.78C146.145 108.07 145.258 107.724 144.873 106.939C144.67 106.525 144.681 106.096 144.624 105.651C144.564 105.166 144.408 104.698 144.166 104.273C143.702 103.486 142.971 102.891 142.105 102.597C141.199 102.292 140.21 102.346 139.343 102.749C138.935 102.941 138.624 103.238 138.244 103.441C137.749 103.705 137.169 103.761 136.632 103.597C135.604 103.307 135.169 104.897 136.185 105.202Z" fill="#2D1111"/>
<path d="M139.642 106.077C139.588 105.981 139.517 105.894 139.434 105.82C139.353 105.75 139.267 105.685 139.176 105.628C139.081 105.576 138.982 105.531 138.88 105.494C138.726 105.439 138.564 105.409 138.4 105.404C138.352 105.399 138.305 105.399 138.257 105.404C138.143 105.411 138.03 105.428 137.918 105.455C137.723 105.506 137.542 105.603 137.389 105.736C137.359 105.75 137.326 105.762 137.293 105.777C137.092 105.865 136.924 106.015 136.813 106.205C136.718 106.378 136.684 106.577 136.717 106.771C136.746 106.963 136.831 107.141 136.961 107.284C137.031 107.359 137.11 107.423 137.197 107.476C137.29 107.533 137.39 107.578 137.495 107.608C137.546 107.623 137.598 107.634 137.65 107.64C137.774 107.658 137.898 107.678 138.023 107.685C138.142 107.692 138.261 107.689 138.379 107.676C138.56 107.661 138.738 107.629 138.913 107.58C139.37 107.432 139.771 107.065 139.771 106.552C139.769 106.385 139.725 106.222 139.642 106.077Z" fill="#FFE1AE"/>
<path d="M141.618 105.427C141.618 105.391 141.609 105.357 141.603 105.322C141.602 105.285 141.597 105.249 141.589 105.213C141.569 105.146 141.542 105.082 141.508 105.021L141.385 104.861L141.225 104.739C141.21 104.731 141.144 104.703 141.107 104.688L141.036 104.659L140.827 104.631H140.813L140.603 104.659H140.595L140.403 104.738C140.342 104.772 140.286 104.815 140.237 104.865C140.19 104.915 140.148 104.969 140.112 105.028L140.061 105.149C140.017 105.226 139.993 105.312 139.988 105.4C139.964 105.504 139.968 105.612 140.001 105.714C140.028 105.777 140.054 105.84 140.081 105.906C140.148 106.025 140.246 106.124 140.363 106.194L140.555 106.272C140.692 106.31 140.836 106.31 140.973 106.272C140.985 106.271 140.996 106.268 141.007 106.264C141.076 106.241 141.143 106.208 141.21 106.179L141.225 106.171C141.286 106.132 141.343 106.088 141.396 106.039L141.402 106.033L141.524 105.874C141.525 105.872 141.525 105.87 141.524 105.867C141.524 105.861 141.601 105.687 141.604 105.675C141.605 105.673 141.605 105.671 141.604 105.669C141.613 105.599 141.622 105.53 141.632 105.459V105.451L141.618 105.427Z" fill="#FFE1AE"/>
<path d="M87.5303 145.938C87.8873 148.914 88.5017 151.87 89.0459 154.817C89.7543 158.656 90.4857 162.487 91.1653 166.329C91.3102 167.153 91.4533 167.977 91.5876 168.802C91.6388 169.111 91.6875 169.421 91.7335 169.73C91.7537 169.861 91.7719 169.992 91.7902 170.124C91.8238 170.358 91.7758 170.012 91.7902 170.149C91.7998 170.222 91.8094 170.296 91.818 170.369C91.9428 171.409 93.5928 171.424 93.4661 170.369C93.109 167.393 92.4947 164.437 91.9514 161.49C91.2421 157.65 90.5116 153.819 89.832 149.977C89.6861 149.154 89.5441 148.33 89.4087 147.504C89.3575 147.195 89.3089 146.886 89.2628 146.576C89.2436 146.446 89.2244 146.314 89.2062 146.183C89.1736 145.949 89.2206 146.294 89.2062 146.158C89.1966 146.085 89.188 146.011 89.1793 145.938C89.0545 144.898 87.4045 144.882 87.5303 145.938Z" fill="#2D1111"/>
<path d="M33.8014 122.121C32.2656 122.95 30.6271 123.723 28.8802 123.795C27.1332 123.867 25.2442 123.073 24.5042 121.491C24.1077 120.643 24.077 119.667 24.1202 118.737C24.3476 114.469 26.024 110.406 28.8725 107.219C29.6932 106.307 30.7855 105.413 32.0007 105.58C32.7101 105.676 33.3244 106.126 34.0222 106.282C34.6634 106.425 35.3775 106.323 35.9419 106.666C36.5918 107.05 36.8058 107.878 36.945 108.623C37.495 111.621 37.7369 114.766 37.4758 117.805C37.279 120.127 35.8104 121.043 33.8014 122.121Z" fill="#FDEFE8"/>
<path d="M36.4654 107.185C33.9217 106.313 31.8983 110.514 31.5211 112.465C30.8549 116.007 30.8725 119.643 31.5729 123.179C32.3362 122.872 33.0802 122.52 33.8008 122.123C35.8098 121.04 37.2784 120.125 37.478 117.797C37.7391 114.753 37.4972 111.612 36.9472 108.615C36.857 108.123 36.7284 107.598 36.4654 107.185Z" fill="#FCE4D8"/>
<path d="M23.2314 124.057C23.601 125.331 24.3958 126.431 25.0331 127.596C26.0208 129.402 26.6371 131.383 27.3618 133.311C30.7395 142.289 36.9854 150.567 45.7567 154.45C47.2061 155.091 48.8052 155.616 50.3564 155.291C50.9534 153.156 52.3673 151.615 52.9144 149.467C53.0786 148.822 53.3195 147.209 53.1957 146.555C53.0651 145.86 53.0622 145.52 52.6322 144.958C48.3243 139.321 42.1879 133.883 39.9898 127.137C39.6874 126.209 39.435 125.247 39.4676 124.273C39.4955 123.422 39.7402 122.589 39.7556 121.739C39.7712 120.507 39.3096 119.317 38.4674 118.417C37.7013 119.596 36.7066 120.608 35.5423 121.395C34.378 122.182 33.0676 122.727 31.6888 122.999C30.3633 123.252 23.146 122.951 23.8726 120.703C22.9041 121.389 22.931 123.01 23.2314 124.057Z" fill="white"/>
<g style="mix-blend-mode:multiply">
<path d="M33.9876 129.755C36.4813 135.187 39.8148 140.193 43.8656 144.587C46.1991 147.104 49.3993 148.907 52.801 149.829C52.8385 149.708 52.8826 149.592 52.9143 149.467C53.0784 148.822 53.3194 147.209 53.1956 146.555C53.0641 145.86 53.0621 145.52 52.6321 144.958C48.3242 139.321 42.1878 133.883 39.9897 127.137C39.6873 126.209 39.4349 125.247 39.4666 124.273C39.4954 123.422 39.7401 122.589 39.7545 121.739C39.7702 120.507 39.3086 119.317 38.4664 118.417C37.7002 119.596 36.7055 120.608 35.5412 121.395C34.3769 122.182 33.0666 122.727 31.6878 122.999C31.659 123.005 31.6235 123.009 31.5918 123.014C32.1456 125.335 32.9913 127.592 33.9876 129.755Z" fill="#FFF9F2"/>
</g>
<path d="M38.5834 123.994C41.2384 131.782 45.3985 139.328 51.3689 145.066C52.1368 145.801 53.302 144.636 52.5351 143.9C46.7682 138.361 42.7368 131.078 40.173 123.551C39.8322 122.553 38.2398 122.982 38.5834 123.99V123.994Z" fill="#2D1111"/>
<path d="M33.6178 107.574C34.5355 107.247 35.5155 107.363 36.0943 108.221C36.3448 108.593 36.3822 109.013 36.4312 109.451C36.508 110.151 36.5521 110.855 36.58 111.562C36.676 113.962 36.484 116.403 37.0772 118.75C37.3344 119.778 38.9249 119.342 38.6667 118.311C37.9814 115.577 38.3788 112.664 38.1225 109.874C38.0083 108.626 37.8508 107.48 36.8507 106.61C35.8207 105.719 34.451 105.53 33.1801 105.984C32.1886 106.338 32.6157 107.931 33.6178 107.573V107.574Z" fill="#2D1111"/>
<path d="M26.6572 108.136C25.0427 109.96 24.2873 112.36 23.9053 114.725C23.5021 117.221 23.4455 119.757 23.602 122.275C23.6672 123.331 25.3163 123.336 25.2501 122.275C25.108 119.977 25.1157 117.637 25.4641 115.357C25.7886 113.233 26.3654 110.95 27.8225 109.302C28.5232 108.51 27.3618 107.34 26.6572 108.136Z" fill="#2D1111"/>
<path d="M24.643 128.297C25.9446 133.164 28.1638 137.817 30.9734 141.992C33.8395 146.252 37.4093 150.162 41.7786 152.913C44.1082 154.381 46.6874 155.483 49.3961 156.005C50.4328 156.205 50.8762 154.616 49.8338 154.416C45.1189 153.507 41.003 150.817 37.6195 147.492C34.0277 143.964 31.1557 139.717 28.974 135.189C27.8329 132.837 26.9151 130.383 26.2326 127.859C25.959 126.835 24.3685 127.269 24.643 128.297Z" fill="#2D1111"/>
<path d="M28.1918 114.004C28.323 113.148 28.5358 112.306 28.8273 111.49C28.8945 111.306 28.9655 111.124 29.0394 110.941C29.0826 110.835 29.0394 110.935 29.0336 110.955L29.096 110.816C29.1344 110.735 29.1738 110.655 29.2151 110.576C29.2858 110.439 29.3633 110.306 29.4473 110.177C29.4953 110.102 29.5433 110.028 29.6 109.958C29.5145 110.069 29.6585 109.899 29.6873 109.862C29.7382 109.809 29.791 109.757 29.8457 109.708C29.862 109.692 29.981 109.597 29.9023 109.657C29.8236 109.716 29.9273 109.642 29.9359 109.636C29.9973 109.598 30.0578 109.562 30.1212 109.527C30.1327 109.522 30.2402 109.476 30.1538 109.51C30.0674 109.544 30.2104 109.495 30.2258 109.49C30.2872 109.472 30.484 109.452 30.3333 109.457C30.4062 109.457 30.4782 109.457 30.5512 109.457C30.7077 109.457 30.4686 109.428 30.6184 109.468C30.7124 109.49 30.8047 109.519 30.8948 109.554C30.7652 109.498 30.9169 109.574 30.9611 109.599C31.0254 109.637 31.0868 109.678 31.153 109.72C31.0378 109.641 31.2145 109.776 31.249 109.807C31.3133 109.868 31.3728 109.933 31.4324 109.999C31.5283 110.108 31.4093 109.95 31.4899 110.074C31.5312 110.137 31.5734 110.201 31.6109 110.265C31.6358 110.31 31.6589 110.355 31.6819 110.4C31.6819 110.407 31.7385 110.521 31.703 110.438C31.6675 110.356 31.7146 110.472 31.7174 110.48C31.7366 110.538 31.7568 110.597 31.775 110.656C31.8309 110.835 31.8689 111.019 31.8883 111.205C31.9086 111.437 31.915 111.669 31.9075 111.901C31.894 112.37 31.8365 112.835 31.7779 113.3C31.7232 113.73 32.1954 114.142 32.6024 114.124C33.0948 114.102 33.3703 113.76 33.426 113.3C33.5508 112.319 33.6477 111.323 33.4001 110.352C33.1736 109.46 32.6044 108.637 31.8 108.173C30.9697 107.693 29.9206 107.678 29.1124 108.213C28.4001 108.685 27.9221 109.416 27.589 110.188C27.1209 111.267 26.7922 112.401 26.6109 113.563C26.5457 113.987 26.7184 114.47 27.1869 114.576C27.5804 114.666 28.1304 114.456 28.2005 114L28.1918 114.004Z" fill="#2D1111"/>
<path d="M33.5259 113.75C33.6411 113.647 33.7592 113.549 33.8792 113.453C33.9435 113.4 34.0097 113.349 34.0711 113.298C34.2007 113.196 33.9099 113.421 34.0443 113.318L34.1546 113.234C34.4858 112.984 34.8265 112.739 35.1615 112.499C35.7663 112.071 36.3767 111.649 37.0045 111.251C37.3702 111.023 37.5468 110.505 37.3001 110.123C37.065 109.758 36.5639 109.583 36.1732 109.828C35.5301 110.23 34.9053 110.663 34.2871 111.101C33.6176 111.56 32.9729 112.053 32.3558 112.58C32.0333 112.868 32.042 113.457 32.3558 113.746C32.513 113.896 32.7218 113.979 32.939 113.979C33.1561 113.979 33.365 113.896 33.5221 113.746L33.5259 113.75Z" fill="#2D1111"/>
<path d="M26.3238 112.017C26.7616 110.719 27.5286 109.557 28.5498 108.643C29.0321 108.207 29.5729 107.839 30.1566 107.552C30.5312 107.37 30.9291 107.241 31.3391 107.168C31.7864 107.111 32.0178 107.128 32.419 107.282C32.3057 107.238 32.5745 107.361 32.6033 107.378C32.6772 107.42 32.7487 107.466 32.8173 107.517C32.7405 107.459 32.9584 107.645 32.9834 107.67C33.0485 107.733 33.1101 107.8 33.1677 107.871C33.783 108.628 33.9941 109.867 34.0575 110.886C34.1227 111.942 35.7718 111.947 35.7056 110.886C35.5798 108.861 34.977 106.47 32.8567 105.694C30.7949 104.94 28.4634 106.378 27.0639 107.784C26.0017 108.85 25.2039 110.149 24.7343 111.579C24.4041 112.589 25.9955 113.018 26.3238 112.017Z" fill="#2D1111"/>
<path d="M31.0136 114.981C30.9448 115.976 31.0162 116.976 31.2258 117.95C31.315 118.374 31.8343 118.658 32.2403 118.526C32.4485 118.464 32.6245 118.324 32.7318 118.135C32.8391 117.946 32.8694 117.723 32.8163 117.513C32.7654 117.269 32.7203 117.025 32.6896 116.778C32.7001 116.852 32.7097 116.925 32.7193 116.998C32.6319 116.33 32.6129 115.654 32.6627 114.982C32.6944 114.551 32.2605 114.139 31.8382 114.158C31.3649 114.179 31.0482 114.521 31.0146 114.982L31.0136 114.981Z" fill="#2D1111"/>
<path d="M23.332 119.371C22.3808 121.333 23.6948 123.222 25.508 124.03C27.2963 124.827 29.2832 124.894 31.178 124.481C33.0919 124.065 34.981 123.169 36.5628 122.019C37.7224 121.175 38.9059 119.413 38.712 117.915C38.5786 116.877 36.9276 116.859 37.0639 117.915C37.1963 118.942 36.3517 120.154 35.5473 120.722C34.345 121.577 33.0134 122.234 31.6032 122.668C30.245 123.076 28.7879 123.244 27.3913 122.93C26.2951 122.681 24.0126 121.736 24.7555 120.203C25.2172 119.252 23.7956 118.416 23.332 119.371Z" fill="#2D1111"/>
<path d="M23.0271 119.689C22.4595 120.735 22.1603 121.906 22.1563 123.097C22.1523 124.287 22.4436 125.46 23.0041 126.51C24.1099 128.572 26.284 129.913 28.5761 130.208C30.9931 130.518 33.5742 129.515 35.6993 128.433C37.6959 127.416 39.5129 125.862 40.2894 123.708C41.0707 121.537 40.7223 118.812 38.8554 117.299C38.0385 116.637 36.8656 117.797 37.6901 118.465C38.9446 119.482 39.2614 121.124 38.8861 122.649C38.4455 124.444 37.0767 125.747 35.5265 126.652C34.7189 127.114 33.8715 127.502 32.9944 127.812C31.977 128.181 30.9 128.566 29.8105 128.618C28.0002 128.705 26.1746 127.946 25.0112 126.547C23.6203 124.883 23.4255 122.407 24.4574 120.521C24.967 119.589 23.5436 118.757 23.0339 119.689H23.0271Z" fill="#2D1111"/>
<path d="M59.9819 146.674C64.6679 152.85 73.5448 153.615 80.1957 150.471C81.7392 149.742 83.1531 148.755 84.1993 147.4C84.4729 147.044 84.2512 146.479 83.9037 146.272C83.4813 146.019 83.0456 146.216 82.7758 146.568C81.7805 147.861 80.2024 148.73 78.7194 149.338C76.8353 150.106 74.8357 150.553 72.8038 150.66C68.6389 150.878 63.9912 149.255 61.4053 145.848C60.7728 145.013 59.3407 145.833 59.9819 146.679V146.674Z" fill="#2D1111"/>
<path d="M68.739 147.682C68.5427 148.734 68.5427 149.813 68.739 150.864C68.7983 151.072 68.936 151.248 69.123 151.356C69.3156 151.467 69.5438 151.497 69.7584 151.44C70.2134 151.292 70.4178 150.881 70.3343 150.425C70.3113 150.306 70.2921 150.186 70.2748 150.066C70.2854 150.139 70.295 150.212 70.3046 150.285C70.2169 149.631 70.2146 148.968 70.2978 148.313L70.2691 148.532C70.2873 148.393 70.3094 148.257 70.3343 148.12C70.3871 147.905 70.3576 147.679 70.2518 147.485C70.1424 147.299 69.9659 147.162 69.7584 147.101C69.3543 147.005 68.8292 147.223 68.7448 147.677L68.739 147.682Z" fill="#2D1111"/>
<path d="M60.7497 153.641C63.3721 153.065 65.9954 152.507 68.6206 151.937C69.6573 151.712 69.2186 150.122 68.1829 150.347C65.5606 150.923 62.9372 151.48 60.312 152.051C59.2763 152.277 59.715 153.866 60.7507 153.641H60.7497Z" fill="#2D1111"/>
<path d="M59.1808 153.029C59.2831 153.953 59.3302 154.882 59.3219 155.812C59.3075 156.742 59.2586 157.672 59.248 158.604C59.2553 158.817 59.3453 159.02 59.4991 159.168C59.6528 159.317 59.8582 159.4 60.0721 159.4C60.2859 159.4 60.4913 159.317 60.645 159.168C60.7988 159.02 60.8888 158.817 60.8961 158.604C60.9076 157.672 60.9556 156.742 60.971 155.812C60.9783 154.882 60.9312 153.953 60.8299 153.029C60.7847 152.585 60.4834 152.204 60.0053 152.204C59.5945 152.204 59.1357 152.583 59.1808 153.029Z" fill="#2D1111"/>
<path d="M67.9245 159.06C68.9879 159.06 69.85 158.198 69.85 157.135C69.85 156.072 68.9879 155.209 67.9245 155.209C66.8611 155.209 65.999 156.072 65.999 157.135C65.999 158.198 66.8611 159.06 67.9245 159.06Z" fill="#2D1111"/>
<path d="M76.4382 158.899C77.5016 158.899 78.3637 158.037 78.3637 156.974C78.3637 155.91 77.5016 155.048 76.4382 155.048C75.3748 155.048 74.5127 155.91 74.5127 156.974C74.5127 158.037 75.3748 158.899 76.4382 158.899Z" fill="#2D1111"/>
<path d="M55.7988 145.411C55.2599 147.357 54.8852 149.345 54.6786 151.354C54.5826 152.32 54.5202 153.293 54.5039 154.264C54.4895 155.163 54.4703 156.114 55.0299 156.868C55.5003 157.503 56.2499 157.837 56.942 158.175C57.7876 158.59 58.6544 158.965 59.5336 159.305C61.2339 159.963 62.9881 160.473 64.7764 160.827C68.3485 161.54 72.0147 161.65 75.6229 161.151C78.922 160.692 82.4025 159.807 84.2982 156.818C86.1488 153.903 86.0663 150.144 85.8839 146.829C85.8254 145.773 84.1763 145.766 84.2349 146.829C84.3817 149.48 84.4979 152.336 83.467 154.843C82.2719 157.764 79.4883 158.8 76.5886 159.336C70.1968 160.516 63.3779 159.548 57.5621 156.648C57.2175 156.476 56.8374 156.317 56.5369 156.072C56.199 155.797 56.1664 155.426 56.153 155.016C56.1304 153.97 56.1727 152.922 56.2797 151.881C56.4645 149.84 56.8362 147.821 57.3902 145.849C57.6782 144.826 56.0848 144.388 55.8007 145.411H55.7988Z" fill="#2D1111"/>
<path d="M88.2314 146.914C90.7606 148.546 92.4548 151.494 93.8946 154.049C95.6732 157.204 97.1725 160.515 98.572 163.853C99.2103 165.375 99.8256 166.908 100.444 168.44C100.835 169.411 102.431 168.987 102.033 168.001C100.785 164.917 99.5377 161.833 98.1468 158.812C96.5918 155.441 94.9005 152.049 92.6592 149.074C91.636 147.717 90.5005 146.419 89.0607 145.491C88.167 144.915 87.3396 146.341 88.2294 146.914H88.2314Z" fill="#2D1111"/>
<path d="M52.7955 144.684C51.0898 151.743 49.6279 158.864 48.0384 165.948C47.6976 167.467 47.3588 168.987 46.9931 170.5C46.7444 171.531 48.3369 171.971 48.5826 170.938C50.2883 163.88 51.7502 156.76 53.3397 149.674C53.6805 148.155 54.0193 146.636 54.385 145.123C54.6346 144.092 53.0412 143.653 52.7955 144.684Z" fill="#2D1111"/>
<path d="M20.9021 135.514C18.296 144.068 20.3012 153.679 26.022 160.532C26.7026 161.347 27.864 160.176 27.1882 159.367C21.8427 152.964 20.066 143.913 22.4916 135.952C22.8016 134.935 21.2111 134.5 20.9021 135.514Z" fill="#2D1111"/>
<path d="M14.3536 144.23C13.9673 148.58 14.8177 152.949 16.807 156.836C17.2869 157.782 18.7114 156.949 18.2305 156.004C16.3905 152.369 15.6181 148.287 16.0026 144.23C16.0986 143.174 14.4505 143.181 14.3536 144.23Z" fill="#2D1111"/>
<path d="M136.549 124.794C138.409 133.747 137.565 143.175 134.268 151.695C133.322 154.123 132.173 156.467 130.834 158.702C130.289 159.616 131.714 160.446 132.257 159.535C137.102 151.406 139.505 141.873 139.135 132.417C139.026 129.707 138.693 127.01 138.138 124.354C137.922 123.317 136.333 123.756 136.549 124.792V124.794Z" fill="#2D1111"/>
<path d="M146.067 135.799C146.241 138.219 145.844 140.647 144.908 142.886C144.734 143.295 144.786 143.769 145.204 144.013C145.55 144.216 146.157 144.13 146.331 143.718C147.409 141.224 147.884 138.511 147.717 135.799C147.687 135.354 147.359 134.974 146.892 134.974C146.469 134.974 146.038 135.353 146.067 135.799Z" fill="#2D1111"/>
</svg>
