<svg width="40" height="35" viewBox="0 0 40 35" fill="none" xmlns="http://www.w3.org/2000/svg">
<g id="Group 36251">
<g id="Group" opacity="0.3">
<path id="Vector" opacity="0.3" d="M37.3369 20.7707C39.6344 17.3282 40.3964 14.0628 39.6649 10.7876C39.2431 8.89784 38.3344 7.20157 37.0372 5.88369C35.7937 4.62344 34.2303 3.72592 32.5149 3.28763C28.6727 2.30075 24.6697 3.6434 21.7917 6.8774C21.7633 6.89491 21.7339 6.91255 21.705 6.92935C21.603 6.98921 21.5008 7.04518 21.3985 7.09727C21.2956 7.14636 21.1918 7.19005 21.0887 7.23715C21.0745 7.23715 21.0603 7.23943 21.046 7.23943C20.913 7.23973 20.7814 7.21171 20.66 7.15724C20.5387 7.10277 20.4303 7.0231 20.3421 6.92351C17.4611 3.65521 13.4369 2.29606 9.57688 3.28763C7.86159 3.72596 6.29819 4.62347 5.05473 5.88369C3.75734 7.20214 2.84901 8.89784 2.42708 10.7876C1.69606 14.0628 2.45753 17.3282 4.75504 20.7707C4.80015 20.8383 4.84739 20.9063 4.89378 20.9741C4.88829 21.2259 4.91531 21.4774 4.97419 21.7223C5.00931 21.8656 5.05954 22.0047 5.12403 22.1374C5.19059 22.2757 5.27541 22.4044 5.3762 22.5201C5.57981 22.7558 5.84575 22.9293 6.1435 23.0207C6.25878 23.0555 6.37807 23.0752 6.49841 23.0795C8.69231 25.6925 11.7501 28.4707 15.7441 31.4795C15.7452 31.5294 15.7463 31.5792 15.75 31.6295C15.7707 31.8914 15.8315 32.1485 15.9305 32.3919C15.9804 32.5154 16.0415 32.6341 16.1132 32.7463C16.185 32.8615 16.2689 32.9687 16.3634 33.0661C16.4586 33.1663 16.5654 33.2549 16.6814 33.3301C16.711 33.3486 16.7398 33.3676 16.7704 33.3853L16.8667 33.4347C16.8987 33.4508 16.9316 33.4651 16.9653 33.4774C16.9981 33.4912 17.0317 33.5033 17.0658 33.5136C17.2004 33.5556 17.3397 33.581 17.4805 33.5892C17.6206 33.5956 17.7611 33.5857 17.899 33.5598C18.0606 33.5271 18.2162 33.4695 18.36 33.389C18.5308 33.5105 18.7033 33.632 18.8776 33.7543C19.5134 34.198 20.2701 34.4359 21.0454 34.4359C21.8207 34.4359 22.5774 34.198 23.2132 33.7543C26.0825 31.743 28.5634 29.8281 30.6557 28.0095C30.6741 28.0765 30.6956 28.1439 30.7212 28.2118C30.7724 28.3514 30.8436 28.4829 30.9326 28.602C31.1181 28.8424 31.373 29.0201 31.6627 29.1112C31.9474 29.2021 32.2523 29.2097 32.5412 29.1329C32.8345 29.0548 33.0962 28.8874 33.29 28.6538C33.4836 28.4206 33.5914 28.1337 33.6316 27.8569C33.6717 27.5801 33.6512 27.3049 33.6008 27.0476C33.5758 26.9203 33.5433 26.7946 33.5035 26.6711C33.4841 26.6098 33.4632 26.5494 33.4412 26.4898L33.4074 26.4006L33.379 26.324C33.3053 26.1172 33.2499 25.9043 33.2136 25.6878C33.2116 25.6758 33.2102 25.6637 33.2084 25.6516C34.9213 23.9576 36.2921 22.3359 37.3369 20.7707ZM15.9289 19.5533C15.9228 19.4278 15.9012 19.3035 15.8646 19.1833C15.8293 19.0624 15.7797 18.9463 15.7167 18.8372C15.6553 18.731 15.5838 18.6309 15.5033 18.5384C15.4245 18.4494 15.3388 18.3666 15.2471 18.2909C15.07 18.1454 14.8763 18.0212 14.6701 17.9209C14.5905 17.8819 14.5109 17.8474 14.4313 17.8148C14.2736 17.4757 14.1592 17.143 14.0969 16.8195C13.9364 15.9863 14.2123 15.116 14.817 14.5485C15.2326 14.1581 15.7159 14.0003 16.1873 14.0003C16.7161 14.0003 17.2299 14.1995 17.6156 14.4913C17.8584 14.6753 18.1157 14.881 18.3643 15.0801C18.7098 15.3565 19.0669 15.6422 19.4105 15.8912C19.8859 16.2355 20.4577 16.4208 21.0446 16.4208C21.6315 16.4208 22.2034 16.2355 22.6787 15.8912C23.0224 15.6429 23.3795 15.3572 23.7249 15.0801C23.9737 14.8809 24.2308 14.6753 24.4736 14.4913C25.139 13.9872 26.1845 13.7619 27.0322 14.3536C27.0343 14.5709 27.045 14.7991 27.0918 15.0383C27.1142 15.1526 27.146 15.2648 27.1869 15.3738C27.2327 15.4848 27.2854 15.5962 27.3577 15.6969C27.4964 15.9051 27.6924 16.0619 27.8866 16.178C27.9356 16.2065 27.9847 16.2331 28.0339 16.258C28.0409 16.4462 28.0265 16.6345 27.9912 16.8195C27.5261 19.2334 24.182 22.158 21.3207 24.4362C21.2421 24.4993 21.1444 24.5337 21.0436 24.5337C20.9429 24.5337 20.8451 24.4993 20.7666 24.4362C19.0849 23.0974 17.2374 21.5352 15.9042 19.9848C15.9275 19.8422 15.9358 19.6976 15.9289 19.5533Z" fill="#31241B"/>
</g>
<path id="Vector_2" d="M38.1276 8.42178C36.3834 0.602012 26.6782 -2.01084 20.7653 4.6991C20.2658 5.26476 19.3756 5.26476 18.8761 4.6991C12.9632 -2.01084 3.25806 0.602012 1.51384 8.42178C0.207056 14.2775 3.46497 20.9811 17.8373 31.0559C18.4186 31.4628 19.1111 31.6811 19.8207 31.6811C20.5304 31.6811 21.2228 31.4628 21.8042 31.0559C36.1765 20.9811 39.4344 14.2775 38.1276 8.42178ZM27.0828 14.4424C26.6206 16.8395 23.6171 19.6056 20.2973 22.2488C20.1622 22.3575 19.994 22.4168 19.8206 22.4168C19.6472 22.4168 19.479 22.3575 19.3439 22.2488C18.5909 21.6493 17.8548 21.0439 17.1603 20.4384C14.7928 18.3701 12.9154 16.296 12.5584 14.4424C12.3778 13.5032 12.6864 12.5226 13.3733 11.8772C14.3467 10.9632 15.6849 11.1192 16.5803 11.7941C16.5815 11.7955 16.583 11.7967 16.5846 11.7975C17.1646 12.2387 17.7879 12.7702 18.3738 13.1932C18.7943 13.4987 19.3007 13.6631 19.8204 13.6631C20.3402 13.6631 20.8466 13.4987 21.2671 13.1932C21.853 12.7702 22.4767 12.2385 23.0563 11.7975C23.9518 11.12 25.2925 10.9615 26.2675 11.8772C26.9547 12.5226 27.2632 13.5036 27.0828 14.4424Z" fill="#FFC35C"/>
<g id="Group_2" opacity="0.3">
<path id="Vector_3" opacity="0.3" d="M38.1277 8.42185C37.4172 5.23424 35.3837 2.91254 32.8236 1.73355C33.7725 2.87327 34.4815 4.27667 34.8452 5.90563C36.152 11.7626 32.8941 18.4658 18.5209 28.5397C17.9399 28.947 17.2475 29.1656 16.5379 29.1656C15.8283 29.1656 15.1359 28.947 14.5549 28.5397C13.8477 28.0445 13.1676 27.5572 12.5146 27.0778C14.0894 28.3443 15.8588 29.6678 17.8368 31.0556C18.4182 31.4626 19.1106 31.6809 19.8203 31.6809C20.5299 31.6809 21.2224 31.4626 21.8037 31.0556C36.1766 20.9812 39.4345 14.2775 38.1277 8.42185ZM16.4975 2.6073C16.1437 2.37158 15.7762 2.15722 15.3969 1.96536C15.4638 2.03652 15.5291 2.10952 15.5944 2.18323C15.7078 2.31194 15.8463 2.416 16.0016 2.48894C16.1568 2.56189 16.3253 2.60217 16.4968 2.6073H16.4975Z" fill="#31241B"/>
</g>
<g id="Group_3" opacity="0.55">
<path id="Vector_4" opacity="0.55" d="M2.46955 8.97976C3.90683 2.53167 10.7585 -0.375185 16.433 2.56568C10.5994 -1.25278 3.03422 1.6074 1.51384 8.42178C0.207056 14.2775 3.46497 20.9811 17.8373 31.0559C18.0552 31.2089 18.2902 31.3358 18.5377 31.4341C4.3817 21.4601 1.17046 14.8019 2.46955 8.97976ZM27.2235 12.4352C26.9352 12.1648 26.6139 11.9875 26.2823 11.8916C26.959 12.5361 27.2617 13.5104 27.0828 14.4424C26.6206 16.8395 23.6171 19.6056 20.2973 22.2488C20.1602 22.3589 19.9893 22.4182 19.8135 22.4167C19.9747 22.5465 20.1375 22.677 20.3003 22.8068C20.4352 22.9154 20.6032 22.9746 20.7764 22.9746C20.9497 22.9746 21.1177 22.9154 21.2526 22.8068C24.5724 20.1636 27.5767 17.3983 28.0388 15.0004C28.2182 14.0616 27.9104 13.0821 27.2235 12.4352ZM20.7653 4.6991C20.6344 4.84733 20.4703 4.96254 20.2864 5.03534C20.1025 5.10814 19.904 5.13648 19.707 5.11805C19.7487 5.16387 19.7901 5.21054 19.8317 5.25708C20.3297 5.82359 21.2216 5.82359 21.7211 5.25708C25.3275 1.16569 30.3447 0.540686 34.1048 2.45027C30.2762 -0.100395 24.6864 0.248962 20.7653 4.6991Z" fill="#FFF9F2"/>
</g>
<g id="Group_4" opacity="0.55">
<path id="Vector_5" opacity="0.55" d="M16.4336 2.56586C17.2944 3.1281 18.1169 3.83692 18.8767 4.69928C19.0894 4.94072 19.387 5.09079 19.7076 5.11823C18.7028 4.00982 17.5928 3.16524 16.4336 2.56586Z" fill="#FFF9F2"/>
</g>
<path id="Vector_6" d="M19.8207 31.9996C19.0452 32.0006 18.2883 31.7625 17.653 31.3179C10.7512 26.4795 6.13158 22.233 3.52969 18.3344C1.23219 14.892 0.470147 11.6265 1.20173 8.35136C1.62338 6.46156 2.53199 4.76529 3.82924 3.44741C5.07259 2.18727 6.63583 1.28976 8.35096 0.851351C12.2108 -0.140226 16.2346 1.21892 19.1161 4.48723C19.2045 4.58662 19.313 4.66617 19.4343 4.72064C19.5556 4.77512 19.6871 4.80328 19.8201 4.80328C19.9531 4.80328 20.0846 4.77512 20.206 4.72064C20.3273 4.66617 20.4357 4.58662 20.5241 4.48723C23.4051 1.21892 27.4294 -0.140368 31.2893 0.851351C33.0049 1.28978 34.5686 2.18754 35.8121 3.44812C37.1094 4.76657 38.0179 6.46227 38.4396 8.35207C39.1708 11.6272 38.4092 14.8927 36.1117 18.3351C33.5098 22.2343 28.89 26.4806 21.9884 31.3186C21.353 31.763 20.5961 32.0008 19.8207 31.9996ZM10.8494 1.17467C10.0605 1.17498 9.27483 1.27476 8.51091 1.47166C5.11126 2.34498 2.61254 4.96907 1.82659 8.49082C1.12617 11.6292 1.83655 14.6441 4.06234 17.979C6.61926 21.8102 11.1851 26.0019 18.0205 30.7935C18.5485 31.162 19.1768 31.3596 19.8207 31.3596C20.4646 31.3596 21.0929 31.162 21.6208 30.7935C28.4563 26.0019 33.0221 21.8102 35.579 17.979C37.8048 14.6441 38.5152 11.6292 37.8148 8.49096C37.0288 4.96907 34.5301 2.34498 31.1305 1.47166C27.5083 0.540985 23.7234 1.82742 21.0051 4.91072C20.8566 5.07828 20.6742 5.21242 20.4701 5.30429C20.2659 5.39616 20.0446 5.44366 19.8207 5.44366C19.5968 5.44366 19.3755 5.39616 19.1713 5.30429C18.9671 5.21242 18.7848 5.07828 18.6363 4.91072C16.5004 2.48771 13.7056 1.17467 10.8494 1.17467Z" fill="#31241B"/>
<g id="Group_5" opacity="0.3">
<path id="Vector_7" opacity="0.3" d="M23.1198 9.98209C21.8284 10.1627 21.0108 11.5067 19.7856 11.9529C18.7789 12.32 17.669 12.0291 16.6226 11.8036C16.6084 11.8002 16.5941 11.7976 16.5799 11.7942C15.6845 11.1192 14.3457 10.9633 13.3729 11.8773C12.686 12.5227 12.3768 13.5037 12.558 14.4425C12.915 16.2961 14.7921 18.3701 17.1599 20.4385C17.1315 20.7394 17.0912 21.0406 17.0522 21.3364C16.9241 22.3311 16.8388 23.4055 17.3368 24.2756C14.965 23.1229 12.7831 21.7376 10.8278 19.9687C9.78901 19.0282 8.797 17.975 8.27204 16.6751C7.62171 15.0632 7.75818 13.2248 8.26279 11.5618C8.84026 9.65821 10.04 7.77225 11.9268 7.14141C13.0469 6.76659 14.2697 6.88029 15.4324 7.09303C18.0684 7.57502 20.8379 8.57698 23.1198 9.98209Z" fill="#31241B"/>
</g>
<path id="Vector_8" d="M19.8203 22.737C19.5746 22.7368 19.3362 22.653 19.1444 22.4994C16.0137 20.0068 12.7457 17.1075 12.2438 14.5029C12.0421 13.4559 12.3909 12.3603 13.1545 11.6437C14.3072 10.5615 15.8411 10.8325 16.7783 11.5431C17.0279 11.7322 17.2886 11.9407 17.5405 12.1423C17.8799 12.4138 18.2307 12.6946 18.5615 12.9335C18.9278 13.199 19.3686 13.3419 19.8209 13.3419C20.2732 13.3419 20.714 13.199 21.0803 12.9335C21.4112 12.6946 21.7619 12.4138 22.1013 12.1423C22.3532 11.9407 22.6136 11.7322 22.8635 11.5431C23.8009 10.833 25.3345 10.5612 26.4873 11.6437C27.2506 12.3603 27.5994 13.4559 27.398 14.5029C26.8961 17.107 23.6281 20.0068 20.4974 22.4994C20.3053 22.6532 20.0665 22.737 19.8203 22.737ZM14.9631 11.5624C14.4916 11.5624 14.0082 11.7204 13.5925 12.1106C12.988 12.6782 12.7121 13.5479 12.8726 14.3816C13.3377 16.7955 16.6818 19.7202 19.5433 21.9985C19.6218 22.0615 19.7196 22.0959 19.8203 22.0959C19.9211 22.0959 20.0188 22.0615 20.0974 21.9985C22.9589 19.7202 26.303 16.7955 26.7681 14.3816C26.9286 13.5484 26.6527 12.6782 26.0481 12.1106C25.1659 11.2827 23.9792 11.5005 23.2494 12.0537C23.0065 12.2377 22.7492 12.4434 22.5005 12.6425C22.1551 12.9189 21.7979 13.2046 21.4543 13.4528C20.979 13.797 20.4072 13.9823 19.8203 13.9823C19.2335 13.9823 18.6617 13.797 18.1864 13.4528C17.8427 13.2046 17.4855 12.9189 17.1402 12.6425C16.8914 12.4433 16.6341 12.2377 16.3912 12.0537C16.0054 11.7611 15.4919 11.5624 14.9631 11.5624Z" fill="#31241B"/>
<path id="Vector_9" d="M34.5385 13.1119C33.877 11.1633 35.3466 9.01449 34.8861 7.00985C34.776 6.52915 34.5597 6.08302 34.2688 5.6887C33.7956 5.04676 33.1224 4.54059 32.3787 4.24289C31.1762 3.76304 29.8152 3.78424 28.562 4.10983C26.6727 4.60078 24.6758 3.20677 22.7771 3.65787C21.863 3.87574 21.1379 4.55325 20.2976 4.9722C18.6102 5.81179 16.4147 5.48264 15.0477 4.18611C14.3016 3.47971 13.5706 2.73944 12.5828 2.45882C11.5949 2.17819 10.507 2.25788 9.57074 2.68095C8.39715 3.21104 7.46349 4.24801 6.21235 4.55411C5.34914 4.76614 4.44266 5.23162 3.97462 5.98811C3.50658 6.7446 3.43187 7.72892 3.77952 8.54646C3.87444 8.7703 3.99824 8.98063 4.13058 9.18683C4.17283 9.45993 4.19438 9.73584 4.19505 10.0122C4.1965 10.6514 4.06932 11.2844 3.82107 11.8734C3.43016 12.8053 3.36484 13.8459 3.70324 14.7871C3.7041 14.7896 3.70495 14.7913 3.70581 14.7939C3.74053 14.8897 3.77867 14.9837 3.82193 15.0771C3.885 15.2145 3.9555 15.3484 4.03311 15.4781C4.33329 15.9875 4.74783 16.42 5.24397 16.7416C5.5416 16.9341 5.85989 17.0925 6.19286 17.2139C6.54951 17.3444 6.9166 17.4444 7.29017 17.5128C8.68247 17.8258 8.49421 19.1274 8.80116 20.1178C9.10811 21.1082 9.29467 22.1825 9.9477 22.9889C10.6295 23.8292 11.6996 24.2355 12.7248 24.5797C13.3249 24.7806 13.8902 25.0734 14.4004 25.4478C14.5427 25.5513 14.6803 25.6615 14.8131 25.7785C14.9649 25.9112 15.1095 26.0518 15.2464 26.1999C15.6238 26.6062 15.985 27.0361 16.3767 27.4287C16.6871 27.7407 17.0171 28.0299 17.3892 28.263C17.3978 28.269 17.4062 28.275 17.4147 28.2801C18.8554 29.1729 20.8472 29.0645 22.1827 28.0214C22.9493 27.4227 23.4786 26.5815 24.067 25.8074C24.1621 25.7346 24.2634 25.6701 24.3697 25.6149C24.5865 25.5008 24.8144 25.4091 25.0497 25.3409C25.2821 25.2722 25.512 25.2271 25.7095 25.212C26.2184 25.1756 26.7297 25.2129 27.2384 25.1705C28.1025 25.1002 28.9352 24.7821 29.6458 24.286C30.2469 23.8692 30.7506 23.3271 31.1222 22.6969C31.243 22.4911 31.3477 22.2763 31.4352 22.0543C31.8362 21.0341 31.9142 19.8554 32.6021 19.0033C33.0991 18.3858 33.8894 17.8271 34.3405 17.1758C34.7916 16.5245 35.1045 15.7512 35.085 14.9584C35.0684 14.3049 34.8345 13.7013 34.5385 13.1119ZM24.2992 20.8319C23.5937 21.4237 22.8119 22.1818 22.2395 22.7084C22.2387 22.7093 22.2378 22.711 22.2361 22.7119C21.8189 23.0534 21.417 23.4173 20.9743 23.7276C20.2645 24.2257 19.3852 24.5876 18.5409 24.3916C17.7235 24.2016 17.1087 23.5301 16.633 22.8382C16.1573 22.1463 15.7561 21.383 15.1185 20.8379C14.7683 20.539 14.4893 20.3163 14.2383 19.9305C14.2062 19.8798 14.1788 19.8262 14.1565 19.7704C13.9751 19.338 14.0216 18.6986 14.1895 18.2213C14.3413 17.7904 14.4778 17.3359 14.3727 16.8959C14.2276 16.2861 13.6544 15.874 13.0727 15.6417C12.5987 15.4526 12.0917 15.344 11.6212 15.1498C11.5152 15.1058 11.41 15.0574 11.3081 15.0032C10.7561 14.7072 10.2956 14.1017 10.2185 13.4806C10.0311 11.9746 11.019 10.4754 12.3766 9.79703C13.5621 9.20518 15.2029 8.97166 16.6817 9.6274L16.7487 9.6597C16.7521 9.65373 16.7588 9.65543 16.7742 9.66981C16.775 9.66981 16.775 9.67151 16.7759 9.67237C16.9609 9.75921 17.1396 9.85868 17.311 9.97007L17.2473 10.1684C17.4712 10.4025 17.6908 10.5954 18.069 10.762C19.0367 11.1889 20.1542 10.8442 21.1547 10.4974C21.5439 10.3618 21.9348 10.1761 22.3283 10.0091C22.7811 9.81652 23.2391 9.64519 23.7097 9.5978C23.8605 9.5832 24.0124 9.58263 24.1633 9.59609C24.9385 9.66056 25.7559 10.0761 26.0358 10.8596C26.0366 10.8605 26.0371 10.8617 26.0373 10.8629H26.0365C26.0684 11.0155 26.0894 11.1703 26.0992 11.3259C26.1384 11.9475 26.0332 12.6377 26.4079 13.1355C26.703 13.5255 27.2094 13.6748 27.668 13.8453C28.1267 14.0158 28.5864 14.3219 28.7407 14.7865C28.7467 14.8043 28.7518 14.8221 28.7569 14.84C29.1155 16.0288 28.4695 17.489 27.5825 18.4422C26.9065 19.1679 26.0137 19.6453 25.1741 20.1737C24.9147 20.3349 24.6146 20.5665 24.2992 20.8319Z" fill="#E05656"/>
<g id="Group_6" opacity="0.55">
<path id="Vector_10" opacity="0.55" d="M32.3788 4.24295C31.1763 3.7631 29.8153 3.7843 28.562 4.10989C26.6728 4.60084 24.6758 3.20683 22.7772 3.65794C21.863 3.8758 21.138 4.55331 20.2977 4.97226C18.6102 5.81185 16.4148 5.4827 15.0478 4.18617C14.3017 3.47977 13.5707 2.7395 12.5828 2.45888C11.5949 2.17825 10.507 2.25794 9.57078 2.68102C8.3972 3.2111 7.46354 4.24807 6.2124 4.55417C5.34918 4.7662 4.4427 5.23168 3.97466 5.98817C3.50662 6.74466 3.43191 7.72898 3.77956 8.54652C3.87448 8.77036 3.99828 8.98069 4.13063 9.18689C4.17287 9.45999 4.19442 9.7359 4.19509 10.0123C4.19654 10.6515 4.06936 11.2844 3.82112 11.8735C3.38951 12.902 3.35478 14.0638 3.82197 15.0771C3.95798 15.3755 4.1292 15.6564 4.33199 15.914C3.89198 14.9152 3.93354 13.7763 4.35661 12.7681C4.60492 12.1784 4.7321 11.5448 4.73058 10.9049C4.73004 10.6285 4.7082 10.3526 4.66527 10.0796C4.53378 9.87351 4.40997 9.66332 4.31505 9.43919C3.9674 8.6218 4.04283 7.63648 4.51015 6.88084C4.97748 6.12521 5.88467 5.65902 6.74789 5.44699C7.9986 5.14089 8.93226 4.10377 10.1063 3.57383C11.0425 3.15062 12.1296 3.07093 13.1183 3.3517C14.107 3.63246 14.8372 4.37259 15.5834 5.07899C16.9495 6.37552 19.1457 6.70453 20.8332 5.86508C21.6728 5.44613 22.3985 4.76933 23.3118 4.55146C25.2105 4.09951 27.2083 5.49366 29.0975 5.00271C30.3508 4.67698 31.7118 4.65663 32.9142 5.13577C33.6095 5.41397 34.2422 5.87433 34.7073 6.45692C34.2858 5.45225 33.3996 4.65179 32.3788 4.24295ZM29.2751 15.6788C29.1928 15.4303 29.0242 15.2277 28.8139 15.0669C29.0335 16.2092 28.4136 17.5481 27.5827 18.4411C26.9067 19.1668 26.0139 19.6443 25.1743 20.1726C24.9149 20.3346 24.6146 20.5661 24.2993 20.8315C23.5937 21.4234 22.8119 22.1814 22.2396 22.7081C22.2387 22.7089 22.2379 22.7106 22.2362 22.7115C21.8189 23.053 21.417 23.4169 20.9743 23.7273C20.2645 24.2253 19.3852 24.5872 18.5409 24.3913C17.7235 24.2013 17.1088 23.5297 16.6331 22.8379C16.1573 22.146 15.7562 21.3827 15.1185 20.8375C14.9302 20.6771 14.7628 20.5386 14.6098 20.3847C14.6271 20.4802 14.6544 20.5737 14.6912 20.6636C14.7134 20.7192 14.741 20.7726 14.7734 20.823C15.0245 21.2089 15.3034 21.4319 15.6527 21.7303C16.2912 22.2765 16.6941 23.0379 17.1681 23.7315C17.6421 24.4251 18.2577 25.0942 19.076 25.2842C19.9197 25.48 20.799 25.118 21.5094 24.6202C21.9513 24.3099 22.354 23.9461 22.7712 23.6043C22.7721 23.6035 22.7738 23.6026 22.7746 23.601C23.347 23.0745 24.1288 22.3163 24.8343 21.7245C25.1497 21.4589 25.45 21.2275 25.7094 21.0656C26.549 20.5372 27.4418 20.0598 28.1177 19.334C29.0174 18.3668 29.6703 16.877 29.2751 15.6788ZM14.3728 16.8959C14.2278 16.2862 13.6546 15.8741 13.0729 15.6418C12.4911 15.4096 11.8603 15.2991 11.3083 15.0033C11.1222 14.9025 10.9523 14.7741 10.8046 14.6225C10.9564 15.1524 11.3659 15.6401 11.8434 15.8961C12.3945 16.1921 13.0264 16.3024 13.608 16.5346C13.887 16.6458 14.1642 16.7985 14.3923 16.9951C14.3874 16.9618 14.3805 16.9287 14.3728 16.8959Z" fill="#FFF9F2"/>
</g>
<path id="Vector_11" d="M13.957 7.92944C14.2591 7.94137 14.5582 7.99358 14.8465 8.08469C15.1349 8.17763 15.4118 8.3031 15.6719 8.45867C15.9302 8.61227 16.1747 8.78786 16.4029 8.98349C16.6306 9.17489 16.841 9.38279 17.0451 9.58231C17.4522 9.97976 17.8396 10.3557 18.3021 10.5248C18.7639 10.7069 19.3033 10.6869 19.8321 10.5762C20.1019 10.5182 20.3685 10.4459 20.6306 10.3596C20.7639 10.3169 20.8977 10.2712 21.0319 10.2248C21.1623 10.1791 21.2888 10.1316 21.4181 10.0778C21.934 9.86791 22.4551 9.59952 23.0448 9.42961C23.1939 9.38641 23.3454 9.35191 23.4985 9.3263C23.6531 9.30453 23.8159 9.28603 23.976 9.29072C24.2961 9.29271 24.6136 9.34842 24.9152 9.45551C25.2158 9.56309 25.5075 9.71636 25.7548 9.93935C26.002 10.1589 26.2044 10.4441 26.3188 10.7634C26.3319 10.8001 26.3377 10.839 26.3358 10.878C26.3339 10.9169 26.3244 10.955 26.3078 10.9903C26.2911 11.0255 26.2677 11.0571 26.2388 11.0833C26.21 11.1095 26.1762 11.1297 26.1396 11.1429C26.1029 11.156 26.064 11.1618 26.025 11.1599C25.9861 11.158 25.9479 11.1485 25.9127 11.1319C25.8775 11.1152 25.8459 11.0918 25.8197 11.0629C25.7935 11.0341 25.7733 11.0003 25.7601 10.9637L25.7594 10.9619C25.6764 10.7391 25.5395 10.5403 25.3609 10.3833C25.1821 10.2203 24.9565 10.1007 24.719 10.0158C24.4793 9.9298 24.2266 9.88533 23.9719 9.88427C23.8453 9.88015 23.7222 9.89523 23.5934 9.91274C23.4638 9.9348 23.3355 9.96416 23.2092 10.0007C22.6944 10.1473 22.1887 10.4041 21.6445 10.6268C21.5092 10.6837 21.3675 10.7365 21.2273 10.7855C21.0905 10.8327 20.9531 10.8796 20.8135 10.9244C20.531 11.0173 20.2438 11.095 19.9531 11.1572C19.6575 11.2178 19.3514 11.2578 19.0368 11.2568C18.715 11.2579 18.3955 11.2036 18.0922 11.0963C17.7828 10.9877 17.5045 10.8101 17.2668 10.6143C17.0292 10.4185 16.8224 10.2 16.6279 9.98816C16.4333 9.77626 16.2436 9.57291 16.0458 9.37995C15.8494 9.18993 15.6396 9.01425 15.418 8.85428C15.1975 8.69609 14.9604 8.56248 14.7109 8.45582C14.4607 8.34757 14.1983 8.26984 13.9295 8.22429H13.9279C13.8908 8.21785 13.8576 8.19757 13.8348 8.16756C13.8121 8.13755 13.8016 8.10004 13.8055 8.06259C13.8093 8.02515 13.8272 7.99055 13.8556 7.96579C13.8839 7.94102 13.9206 7.92793 13.9582 7.92916L13.957 7.92944Z" fill="#31241B"/>
<path id="Vector_12" d="M16.9497 10.3124C16.2975 9.88935 15.549 9.62551 14.7789 9.58396C14.0105 9.53899 13.2302 9.70905 12.5344 10.0507C11.8505 10.3856 11.2717 10.9435 10.9023 11.6077C10.7173 11.9374 10.5908 12.2966 10.5282 12.6694C10.5164 12.762 10.5067 12.8544 10.498 12.9476C10.498 13.0405 10.4912 13.1337 10.4967 13.2262L10.5074 13.365L10.5124 13.4343C10.5145 13.4569 10.5189 13.4761 10.5221 13.4972C10.536 13.5812 10.5578 13.6638 10.5869 13.7438C10.7053 14.0697 10.934 14.3719 11.2151 14.5884C11.2847 14.642 11.3583 14.6904 11.4351 14.7331C11.5148 14.7758 11.5999 14.8185 11.6872 14.8548C11.8681 14.9305 12.0526 14.997 12.2402 15.054C12.6245 15.1767 13.0371 15.2817 13.4461 15.4832C13.6523 15.5834 13.846 15.7076 14.0232 15.8532C14.1149 15.9289 14.2005 16.0116 14.2793 16.1006C14.3598 16.1932 14.4313 16.2933 14.4928 16.3995C14.5558 16.5085 14.6054 16.6248 14.6406 16.7457C14.6773 16.8659 14.6989 16.9902 14.705 17.1157C14.7192 17.3633 14.6819 17.5995 14.627 17.8164C14.5719 18.0256 14.5054 18.2317 14.4277 18.4336C14.3391 18.6412 14.2483 18.8178 14.1686 19.0008C14.0079 19.3628 13.8874 19.7344 13.8259 20.1227C13.7657 20.5151 13.7573 20.9137 13.8009 21.3083C13.8049 21.3462 13.7942 21.3841 13.771 21.4144C13.7478 21.4446 13.7139 21.4647 13.6762 21.4707C13.6386 21.4766 13.6001 21.4678 13.5688 21.4462C13.5374 21.4245 13.5156 21.3917 13.5077 21.3544C13.4204 20.9346 13.3886 20.5051 13.4133 20.0771C13.4393 19.6459 13.5348 19.2154 13.6707 18.8096C13.7367 18.6075 13.8153 18.408 13.8713 18.2301C13.9378 18.0393 14.0064 17.8526 14.0505 17.6714C14.0967 17.4901 14.1216 17.3136 14.1117 17.1496C14.1083 17.0693 14.0945 16.9897 14.0707 16.9129C14.0484 16.8359 14.0167 16.7619 13.9764 16.6926C13.9347 16.6204 13.8862 16.5524 13.8315 16.4894C13.7736 16.4242 13.7108 16.3635 13.6436 16.3078C13.5077 16.194 13.3495 16.0965 13.183 16.0131C12.8519 15.8491 12.4614 15.7437 12.0624 15.6182C11.8557 15.5555 11.6524 15.4822 11.4533 15.3987C11.3511 15.3553 11.2508 15.3067 11.1496 15.2517C11.0463 15.1945 10.9474 15.1296 10.8539 15.0574C10.4839 14.7705 10.194 14.392 10.0285 13.9435C9.9873 13.83 9.95653 13.7129 9.93662 13.5938C9.93206 13.5639 9.92594 13.5326 9.92239 13.504L9.9157 13.4186L9.90289 13.2493C9.89663 13.1364 9.90403 13.0235 9.9046 12.9105C9.91456 12.7983 9.92637 12.6862 9.94117 12.5746C10.0146 12.1334 10.1638 11.7081 10.3823 11.3178C10.5976 10.931 10.8701 10.579 11.1905 10.2736C11.5097 9.96667 11.8745 9.71101 12.272 9.51565C13.0538 9.13143 13.9354 8.93776 14.8124 8.98913C15.2508 9.0143 15.6838 9.09889 16.0995 9.24058C16.5129 9.38262 16.9072 9.57489 17.2737 9.81307C17.3081 9.83341 17.338 9.86049 17.3616 9.89267C17.3853 9.92485 17.4022 9.96148 17.4114 10.0004C17.4205 10.0392 17.4218 10.0796 17.415 10.1189C17.4082 10.1583 17.3935 10.1959 17.3718 10.2294C17.3501 10.263 17.3219 10.2918 17.2888 10.3142C17.2557 10.3366 17.2185 10.352 17.1793 10.3597C17.1401 10.3673 17.0997 10.3669 17.0607 10.3586C17.0216 10.3503 16.9846 10.3341 16.9519 10.3111L16.9497 10.3124Z" fill="#31241B"/>
<path id="Vector_13" d="M14.4701 18.3189C14.3701 18.6113 14.3267 18.92 14.342 19.2286C14.3508 19.3785 14.3774 19.5238 14.4254 19.6449C14.4369 19.6741 14.4502 19.7027 14.4652 19.7303C14.4721 19.7445 14.4802 19.7556 14.4874 19.7683L14.5193 19.8158C14.5632 19.8795 14.6093 19.9412 14.6588 20.0008C14.7624 20.1218 14.8748 20.235 14.9949 20.3396L15.1869 20.506C15.2528 20.5622 15.3185 20.6171 15.3902 20.6826C15.6707 20.9354 15.9039 21.2242 16.1128 21.5166C16.5309 22.1023 16.8572 22.7113 17.2861 23.2043C17.4996 23.4518 17.7351 23.6728 17.9955 23.8396C18.2559 24.0064 18.5401 24.1135 18.8374 24.1411C19.135 24.1709 19.4449 24.1269 19.7452 24.0301C20.0454 23.9334 20.338 23.7882 20.6132 23.6139C21.1655 23.2614 21.6663 22.7855 22.2234 22.3427C22.3623 22.2313 22.508 22.1244 22.655 22.0181C22.7287 21.9646 22.8052 21.9149 22.8841 21.8694C22.9615 21.8248 23.0398 21.7809 23.1192 21.7382C23.4374 21.5646 23.7696 21.4179 24.1123 21.2999C24.4569 21.1831 24.8167 21.1007 25.1842 21.0742C25.5527 21.0453 25.9234 21.0848 26.2775 21.1909C26.3141 21.202 26.345 21.2267 26.3638 21.26C26.3826 21.2933 26.3879 21.3325 26.3785 21.3696C26.3691 21.4066 26.3458 21.4386 26.3134 21.4589C26.2811 21.4793 26.2421 21.4863 26.2046 21.4786H26.2034C25.8818 21.4125 25.551 21.4163 25.2282 21.4674C24.9053 21.5185 24.5885 21.6185 24.2851 21.7509C23.9803 21.8853 23.6873 22.0452 23.4094 22.2289C23.3391 22.2745 23.2696 22.3216 23.2002 22.3699L23.0984 22.441C23.0637 22.4629 23.0298 22.4866 22.9954 22.5098C22.8572 22.601 22.725 22.7034 22.5921 22.8086C22.0615 23.228 21.5516 23.7175 20.9311 24.1159C20.6205 24.3123 20.2861 24.4807 19.9249 24.5965C19.5637 24.7123 19.1732 24.7718 18.7782 24.7326C18.382 24.6961 17.9992 24.5484 17.6756 24.3406C17.352 24.1329 17.0758 23.871 16.836 23.5927C16.5963 23.3143 16.3893 23.0141 16.1981 22.7205C16.0068 22.4269 15.8241 22.1346 15.6289 21.8623C15.4336 21.5899 15.227 21.3358 14.9909 21.1234C14.749 20.9074 14.4502 20.68 14.2028 20.3826C14.1408 20.3086 14.0826 20.2312 14.0282 20.1516L13.9875 20.091C13.9733 20.0664 13.9568 20.0418 13.9437 20.0169C13.9169 19.9681 13.8931 19.9177 13.8725 19.866C13.793 19.6634 13.7604 19.4619 13.7482 19.2657C13.7281 18.8785 13.7828 18.491 13.9093 18.1245C13.9213 18.087 13.9408 18.0523 13.9664 18.0224C13.992 17.9925 14.0234 17.968 14.0586 17.9503C14.0938 17.9326 14.1321 17.9221 14.1714 17.9194C14.2107 17.9167 14.2502 17.9218 14.2874 17.9345C14.3247 17.9472 14.3591 17.9672 14.3886 17.9933C14.4181 18.0194 14.4421 18.0512 14.4592 18.0866C14.4763 18.1221 14.4862 18.1607 14.4882 18.2C14.4903 18.2393 14.4845 18.2787 14.4712 18.3158V18.3169L14.4701 18.3189Z" fill="#31241B"/>
<path id="Vector_14" d="M22.2276 22.3382C22.8015 21.8076 23.366 21.2503 23.9716 20.7238C24.2769 20.4619 24.5867 20.2031 24.9375 19.9731C25.1121 19.8593 25.2781 19.7597 25.4476 19.6553C25.6171 19.551 25.7835 19.4503 25.9478 19.3465C26.2764 19.1391 26.5942 18.9246 26.8846 18.686C27.1737 18.4511 27.4344 18.1832 27.6612 17.8878C27.8875 17.5924 28.0792 17.272 28.2327 16.9329C28.3828 16.5958 28.4978 16.2422 28.5389 15.8859C28.5469 15.7971 28.5604 15.708 28.5585 15.6197L28.5608 15.4873L28.5516 15.3565C28.5501 15.2682 28.5278 15.1847 28.5163 15.0989C28.5097 15.0562 28.4946 15.0159 28.4845 14.9742L28.4677 14.9123L28.4595 14.8812L28.45 14.856C28.3548 14.5886 28.0884 14.3626 27.774 14.2128C27.6938 14.174 27.6116 14.1395 27.5277 14.1095L27.2485 14.0071C27.0584 13.936 26.8591 13.8552 26.663 13.7403C26.467 13.6255 26.2728 13.4674 26.134 13.2592C26.0611 13.1586 26.0084 13.0472 25.9632 12.9362C25.9223 12.8272 25.8905 12.715 25.8681 12.6008C25.781 12.1559 25.8183 11.7481 25.8047 11.3801C25.7959 11.0157 25.7266 10.6553 25.5996 10.3136C25.3398 9.60942 24.8655 9.00452 24.2436 8.58422L24.2397 8.58165C24.208 8.56055 24.1856 8.52804 24.1772 8.49087C24.1687 8.45369 24.1749 8.4147 24.1945 8.38197C24.214 8.34925 24.2454 8.32529 24.2821 8.31507C24.3188 8.30485 24.3581 8.30914 24.3917 8.32707C24.5742 8.4227 24.7543 8.52772 24.9183 8.65551C24.9609 8.68539 25.0012 8.71812 25.0408 8.75185C25.0803 8.78558 25.1213 8.81802 25.1605 8.85232C25.2349 8.92503 25.3136 8.99462 25.3825 9.07275C25.5277 9.2233 25.6538 9.39122 25.7738 9.56355C26.0086 9.91646 26.183 10.306 26.2898 10.7162C26.3444 10.923 26.3808 11.1342 26.3986 11.3473C26.4292 11.7664 26.4026 12.1542 26.4603 12.4886C26.4887 12.6551 26.5414 12.8017 26.6245 12.9229C26.7039 13.0457 26.8237 13.1431 26.966 13.2296C27.1107 13.315 27.2781 13.3846 27.4574 13.4513L27.734 13.5529C27.8357 13.5898 27.9355 13.6318 28.0329 13.6789C28.2376 13.7758 28.4273 13.9019 28.596 14.0533C28.7667 14.2118 28.9217 14.412 29.0071 14.6518L29.0233 14.6959L29.0345 14.7362L29.0567 14.817C29.0703 14.8711 29.0885 14.9244 29.0976 14.9791C29.114 15.0885 29.1403 15.1978 29.143 15.3075L29.1541 15.472L29.1517 15.6354C29.1531 15.745 29.1374 15.8517 29.1279 15.9593C29.0772 16.3882 28.944 16.794 28.7738 17.1766C28.6017 17.5574 28.3864 17.9172 28.1322 18.249C27.8778 18.5806 27.5856 18.8815 27.2616 19.1455C26.9418 19.408 26.6034 19.6353 26.2654 19.8492C26.096 19.9562 25.9265 20.0594 25.7581 20.1622C25.5898 20.2651 25.4189 20.3683 25.2633 20.4705C24.9533 20.673 24.6548 20.9207 24.3616 21.1726C23.7754 21.6825 23.2156 22.2343 22.6306 22.7754C22.6021 22.8025 22.5685 22.8237 22.5317 22.8378C22.495 22.8518 22.4558 22.8584 22.4164 22.8572C22.3771 22.856 22.3384 22.8469 22.3026 22.8306C22.2668 22.8143 22.2346 22.791 22.2079 22.7621C22.1811 22.7332 22.1604 22.6993 22.1469 22.6623C22.1334 22.6254 22.1274 22.5861 22.1292 22.5468C22.131 22.5075 22.1407 22.4689 22.1575 22.4333C22.1744 22.3978 22.1981 22.3659 22.2274 22.3396L22.2276 22.3382Z" fill="#31241B"/>
<path id="Vector_15" d="M23.8847 25.5737C24.105 25.4062 24.3328 25.2923 24.5656 25.1969C24.7978 25.1021 25.038 25.0283 25.2834 24.9763C25.4094 24.9492 25.537 24.9301 25.6655 24.9194C25.7911 24.9093 25.9107 24.9052 26.0313 24.9018C26.2714 24.8959 26.5056 24.8992 26.7333 24.8962C26.961 24.8932 27.1823 24.8863 27.3967 24.8544C27.4508 24.847 27.5052 24.8434 27.5588 24.8332L27.7193 24.8016C27.7726 24.7901 27.8269 24.7831 27.8794 24.7681L28.0375 24.7255C28.4599 24.6064 28.8636 24.4292 29.2372 24.1989C29.9848 23.7401 30.6111 23.0763 31.0017 22.2958C31.1975 21.9085 31.3262 21.4832 31.4463 21.0359C31.5687 20.5905 31.6827 20.1252 31.8769 19.6663C31.9741 19.4324 32.0943 19.2088 32.2357 18.9987C32.3864 18.7841 32.5519 18.6012 32.7218 18.4295C33.0607 18.0858 33.4132 17.7827 33.7205 17.4598C33.8715 17.3047 34.0087 17.1367 34.1306 16.9578C34.2531 16.777 34.3621 16.5875 34.4566 16.3907C34.6424 15.9994 34.7658 15.5814 34.7852 15.1625C34.7994 14.7452 34.7219 14.3229 34.562 13.9145C34.4022 13.506 34.2148 13.0946 34.0048 12.6814C33.7947 12.2681 33.5779 11.8465 33.4023 11.3981C33.2258 10.9522 33.0952 10.4723 33.0831 9.98187C33.082 9.94386 33.0955 9.90687 33.1209 9.87853C33.1462 9.85019 33.1815 9.83266 33.2194 9.82954C33.2573 9.82642 33.295 9.83796 33.3246 9.86177C33.3543 9.88558 33.3736 9.91986 33.3788 9.95754V9.95939C33.4384 10.4005 33.5967 10.8208 33.7957 11.225C33.9948 11.6293 34.2377 12.0201 34.4762 12.4231C34.7125 12.8264 34.9642 13.2388 35.1269 13.7067L35.1879 13.8816C35.2065 13.9408 35.2219 14.0018 35.2388 14.062L35.2882 14.243L35.3232 14.4297C35.3336 14.4922 35.3488 14.5537 35.355 14.6171L35.3706 14.8081C35.3832 14.9358 35.3857 15.0643 35.3779 15.1923C35.3535 15.7058 35.2051 16.1982 34.9922 16.6467C34.8849 16.8699 34.7613 17.0848 34.6222 17.2898C34.4821 17.4962 34.3242 17.69 34.1504 17.8689C33.8147 18.2207 33.4593 18.5258 33.1447 18.8459C32.9873 19.0047 32.8409 19.1698 32.7238 19.3368C32.6053 19.5136 32.5046 19.7017 32.4232 19.8983C32.2524 20.2984 32.142 20.7408 32.0186 21.1933C31.8953 21.6458 31.7572 22.117 31.5322 22.5627C31.0878 23.4496 30.3858 24.1911 29.5477 24.7062C29.1271 24.9652 28.6726 25.1645 28.1972 25.2984L28.0183 25.3469C27.9587 25.3635 27.8972 25.3721 27.8367 25.3852L27.6545 25.4206C27.5937 25.4321 27.5316 25.4367 27.4695 25.4449C27.2228 25.4809 26.9772 25.4876 26.7397 25.4915C26.5022 25.4953 26.2701 25.4915 26.0444 25.4969C25.9324 25.4996 25.8192 25.5041 25.7127 25.5128C25.6091 25.5217 25.5061 25.5373 25.4045 25.5595C25.1939 25.6041 24.9878 25.6675 24.7886 25.7489C24.5906 25.8289 24.3998 25.9288 24.2491 26.0438L24.2433 26.0482C24.2123 26.0718 24.177 26.0891 24.1393 26.0991C24.1016 26.1091 24.0624 26.1115 24.0237 26.1063C23.9851 26.1011 23.9479 26.0884 23.9142 26.0688C23.8805 26.0492 23.851 26.0232 23.8274 25.9922C23.8038 25.9612 23.7865 25.9259 23.7765 25.8882C23.7665 25.8505 23.7641 25.8113 23.7693 25.7726C23.7745 25.734 23.7872 25.6968 23.8068 25.6631C23.8264 25.6294 23.8524 25.5999 23.8834 25.5763L23.8847 25.5737Z" fill="#31241B"/>
<path id="Vector_16" d="M34.2576 13.2069C34.0799 12.6926 34.04 12.1462 34.0749 11.6282C34.1093 11.1078 34.2087 10.6083 34.3123 10.1222C34.4159 9.63607 34.528 9.16078 34.5969 8.69003C34.6657 8.21929 34.6901 7.7531 34.6202 7.3084C34.4901 6.41957 33.9354 5.61854 33.2019 5.07522C32.8331 4.80145 32.4217 4.59029 31.9843 4.45022C31.7643 4.37868 31.5393 4.32346 31.3112 4.285C31.0819 4.24455 30.8501 4.21955 30.6175 4.21015C30.3834 4.19908 30.149 4.20231 29.9153 4.21983C29.6804 4.23571 29.4466 4.26469 29.2149 4.30663C29.0985 4.32542 28.9832 4.35189 28.8677 4.37594C28.752 4.4044 28.6446 4.43101 28.5037 4.4626C28.2394 4.51853 27.9699 4.54663 27.6998 4.54642C27.1659 4.54798 26.6534 4.45762 26.1618 4.35117C25.6701 4.24473 25.1941 4.11794 24.7245 4.02601C24.2549 3.93408 23.7893 3.87602 23.3404 3.90847C23.1194 3.92317 22.9008 3.96347 22.689 4.02857C22.4745 4.09869 22.2673 4.18923 22.0701 4.29895C21.661 4.52023 21.2615 4.80797 20.8178 5.06867C20.7068 5.13385 20.5925 5.19651 20.4749 5.25666C20.3556 5.31358 20.2329 5.36652 20.1113 5.42102C19.9866 5.46698 19.861 5.51081 19.7353 5.55365C19.6072 5.58695 19.4792 5.6238 19.3502 5.65326C18.3133 5.87682 17.2189 5.7634 16.248 5.34972C15.7587 5.14266 15.307 4.85592 14.9115 4.50116C14.8069 4.41251 14.7251 4.32826 14.6338 4.24288L14.3674 3.99058C14.19 3.82465 14.0117 3.66399 13.8291 3.51499C13.4642 3.21615 13.0765 2.96613 12.6569 2.81898L12.4987 2.76832L12.3332 2.72478L12.1657 2.68849C12.1088 2.67753 12.0529 2.66928 11.9967 2.66003C11.3132 2.55748 10.6149 2.62713 9.96512 2.86267C9.5365 3.01764 9.13306 3.25927 8.73006 3.52809C8.32705 3.7969 7.92248 4.09247 7.4765 4.35345C7.24939 4.48531 7.01329 4.60105 6.76996 4.69982L6.58098 4.76784C6.51836 4.79161 6.45176 4.80627 6.3873 4.82576L6.28982 4.85308L6.20544 4.87514C6.14851 4.88937 6.09358 4.90545 6.03823 4.9221C5.59566 5.05615 5.17017 5.25381 4.81441 5.5259C4.6386 5.65852 4.48104 5.81373 4.3458 5.98753C4.21371 6.16133 4.10758 6.35341 4.03074 6.55775C3.8745 6.97371 3.82723 7.42272 3.89342 7.86211C3.92841 8.0797 3.9913 8.29187 4.08055 8.49337C4.16963 8.69743 4.29016 8.89766 4.41909 9.10215C4.54574 9.30792 4.68349 9.51839 4.81085 9.74422C4.93594 9.97035 5.0485 10.2175 5.11994 10.4818C5.1883 10.7439 5.21325 11.0154 5.19379 11.2855C5.17507 11.5463 5.12245 11.8036 5.03726 12.0508C5.02561 12.0863 5.00107 12.1161 4.96849 12.1343C4.9359 12.1525 4.89767 12.1579 4.86135 12.1492C4.82504 12.1406 4.7933 12.1186 4.77243 12.0876C4.75155 12.0567 4.74307 12.019 4.74867 11.9821C4.81783 11.5095 4.80843 11.0398 4.65475 10.6247C4.57492 10.4121 4.47102 10.2093 4.34509 10.0203C4.22072 9.82107 4.07898 9.62426 3.93668 9.41564C3.79708 9.20631 3.65776 8.98475 3.54335 8.73828C3.42811 8.48963 3.3478 8.22624 3.3047 7.9556C3.22035 7.4137 3.2766 6.85921 3.46807 6.34528C3.56448 6.08635 3.69798 5.8428 3.86439 5.62224C4.03154 5.40489 4.22672 5.21061 4.44485 5.04448C4.87375 4.71491 5.35929 4.49035 5.85964 4.33609C5.92225 4.31688 5.98515 4.29809 6.04862 4.28201L6.14325 4.25697L6.22394 4.23363C6.27744 4.21698 6.33209 4.20517 6.38488 4.18496L6.54412 4.12719C6.75789 4.03888 6.9653 3.9359 7.16485 3.81896C7.57142 3.5796 7.96531 3.29101 8.38212 3.00981C8.79893 2.72862 9.24634 2.45483 9.74739 2.2714C10.4962 1.99658 11.3018 1.91299 12.0911 2.0282C12.1565 2.0393 12.2221 2.04883 12.2872 2.06121L12.4818 2.10262L12.6746 2.15257L12.8694 2.21391C13.3851 2.39292 13.8385 2.68935 14.2378 3.01295C14.4385 3.17517 14.6279 3.34494 14.8117 3.51542L15.0841 3.77157C15.1735 3.85453 15.2647 3.94675 15.3496 4.01662C15.6922 4.32107 16.0828 4.56674 16.5056 4.74365C17.3514 5.10083 18.3128 5.19433 19.2084 5.00293C19.3198 4.97731 19.4295 4.94601 19.5402 4.91755L19.8628 4.8037C19.9664 4.75632 20.0709 4.71249 20.1742 4.66325C20.2766 4.61098 20.3788 4.555 20.4807 4.49533C20.8891 4.25697 21.2931 3.96525 21.7529 3.71536C21.9878 3.58543 22.2347 3.47835 22.49 3.3956C22.7508 3.31529 23.0201 3.26552 23.2923 3.24732C23.8307 3.20932 24.3539 3.27905 24.8519 3.37653C25.3498 3.47401 25.8306 3.60223 26.3034 3.70525C26.7761 3.80828 27.2426 3.88797 27.6979 3.88641C27.922 3.88685 28.1455 3.86386 28.3648 3.81782C28.4644 3.79576 28.597 3.76303 28.7213 3.73244C28.8475 3.70611 28.9731 3.67765 29.1005 3.65701C29.3547 3.61129 29.6112 3.57969 29.8689 3.56238C30.1279 3.54317 30.3877 3.53974 30.6471 3.55214C31.171 3.57276 31.6896 3.66576 32.1881 3.82849C32.6923 3.9929 33.1661 4.2392 33.5903 4.55752C33.8024 4.7172 34.0007 4.89438 34.1832 5.08717C34.3656 5.28184 34.5305 5.49217 34.676 5.71573C34.8199 5.94269 34.9422 6.18267 35.0413 6.43252C35.1366 6.68534 35.2054 6.94734 35.2468 7.21434C35.3273 7.74784 35.2924 8.27863 35.2165 8.78367C35.1405 9.28871 35.0222 9.77681 34.9176 10.2555C34.813 10.7342 34.7148 11.2055 34.6804 11.6713C34.646 12.1371 34.6783 12.5949 34.8201 13.0181C34.844 13.0922 34.8378 13.1728 34.8029 13.2424C34.7679 13.312 34.707 13.365 34.6332 13.3901C34.5595 13.4152 34.4789 13.4103 34.4087 13.3765C34.3385 13.3427 34.2845 13.2827 34.2582 13.2093L34.2576 13.2069Z" fill="#31241B"/>
<path id="Vector_17" d="M4.42537 9.14224C4.55345 9.94014 4.51531 10.7841 4.26443 11.5675C4.23412 11.6656 4.19925 11.7619 4.16325 11.8578L4.05837 12.1251C3.99493 12.2925 3.94311 12.4641 3.90326 12.6387C3.77848 13.1585 3.7693 13.6994 3.87636 14.2232C3.91329 14.3952 3.96305 14.5642 4.02521 14.7288C4.03944 14.7707 4.05809 14.8102 4.07502 14.8508C4.09195 14.8913 4.10761 14.9316 4.12881 14.9715C4.17008 15.0507 4.20566 15.1334 4.25205 15.2092L4.31808 15.3251C4.3407 15.3634 4.36617 15.3995 4.38923 15.4369C4.43562 15.5125 4.48884 15.5826 4.54206 15.6532C4.9667 16.2197 5.57576 16.6209 6.25043 16.881C6.41863 16.9478 6.5931 17.0018 6.76898 17.0518L7.03566 17.1208L7.31088 17.179C7.35229 17.187 7.41362 17.2029 7.46841 17.2169C7.5232 17.2308 7.5767 17.25 7.63092 17.2667C7.74051 17.305 7.84647 17.3529 7.94755 17.41C8.15761 17.5276 8.33948 17.6897 8.48048 17.8848C8.62065 18.0778 8.71357 18.2897 8.77932 18.4948C8.84506 18.6998 8.8879 18.9025 8.9249 19.0974C8.96189 19.2924 8.99206 19.4809 9.02863 19.6608C9.04742 19.7502 9.06692 19.8381 9.08968 19.9222L9.12682 20.0503L9.16952 20.1926C9.28037 20.5697 9.37685 20.9414 9.48828 21.2987C9.5997 21.6561 9.72707 21.9989 9.89598 22.3091C10.0649 22.6193 10.2744 22.8914 10.5373 23.1215C10.6692 23.2386 10.81 23.3451 10.9586 23.4401C11.1096 23.5387 11.2664 23.6281 11.4282 23.7079C11.7536 23.8723 12.1014 24.0075 12.4565 24.1359L13.0059 24.328C13.1956 24.3994 13.3825 24.4788 13.5664 24.566C14.3007 24.9188 14.9607 25.4088 15.5107 26.0097C16.041 26.587 16.5202 27.1793 17.0812 27.6462C17.6256 28.1152 18.2917 28.4202 19.0023 28.5259C19.7143 28.6347 20.4425 28.5512 21.1114 28.284C21.4423 28.1518 21.7526 27.9729 22.0328 27.7528C22.3133 27.5297 22.5673 27.2651 22.8055 26.9791C23.2855 26.4087 23.6951 25.7497 24.2317 25.1536C24.4995 24.858 24.7947 24.5778 25.1334 24.3483C25.4682 24.1162 25.8513 23.9396 26.2522 23.8596C26.2883 23.8524 26.3258 23.8589 26.3575 23.8777C26.3891 23.8965 26.4127 23.9264 26.4237 23.9615C26.4346 23.9967 26.4322 24.0347 26.4168 24.0682C26.4014 24.1016 26.3742 24.1282 26.3404 24.1428L26.338 24.1438C25.6617 24.4348 25.1305 24.9488 24.6599 25.5226C24.1893 26.0964 23.7751 26.7484 23.2675 27.363C23.0142 27.6701 22.734 27.9673 22.4119 28.2261C22.0867 28.4849 21.726 28.6958 21.341 28.8522C20.5714 29.1643 19.7324 29.2651 18.9108 29.1441C18.5 29.0841 18.0994 28.9674 17.7207 28.7972C17.6249 28.7563 17.5314 28.71 17.441 28.6583C17.3509 28.6063 17.256 28.5587 17.1717 28.5006C16.999 28.3897 16.8335 28.2681 16.6761 28.1365C16.0477 27.6165 15.551 27.0029 15.0356 26.4497C14.5389 25.9122 13.9438 25.4749 13.2824 25.1614C13.1172 25.0837 12.949 25.0133 12.7776 24.9501L12.2362 24.7631C11.8662 24.6322 11.4933 24.4873 11.1303 24.3041C10.9465 24.2129 10.7683 24.111 10.5965 23.9988C10.4205 23.8857 10.2535 23.759 10.0971 23.62C9.77901 23.3425 9.51033 22.9939 9.31324 22.6269C9.11402 22.259 8.97399 21.8749 8.85588 21.4965C8.73776 21.1181 8.64143 20.7423 8.53498 20.3803L8.49442 20.2451L8.45173 20.0955C8.42413 19.9935 8.40207 19.8932 8.38143 19.794C8.34145 19.5961 8.31028 19.4039 8.27599 19.2201C8.20839 18.8537 8.12144 18.5127 7.94684 18.2739C7.77607 18.0347 7.5111 17.8938 7.17683 17.8264L6.88653 17.7646C6.78919 17.7407 6.69114 17.7138 6.59366 17.6885C6.39913 17.6325 6.20503 17.5722 6.01491 17.4966C5.62831 17.3503 5.26184 17.1555 4.92429 16.9169C4.58208 16.6748 4.27962 16.3809 4.02777 16.0458C3.96545 15.962 3.90312 15.8781 3.84876 15.7897C3.82101 15.7456 3.79183 15.7025 3.76537 15.6576L3.68909 15.5219C3.63587 15.4325 3.59488 15.3377 3.54821 15.2455C3.52459 15.1999 3.50623 15.1496 3.48517 15.1019C3.46411 15.0543 3.44248 15.0057 3.42654 14.9559C3.35353 14.7594 3.29549 14.5576 3.25293 14.3523C3.13101 13.7379 3.14514 13.1042 3.29434 12.4958C3.34172 12.2948 3.40277 12.0972 3.47706 11.9045L3.58507 11.6341C3.61723 11.5497 3.64853 11.4651 3.67571 11.3791C3.90212 10.6936 3.94737 9.95608 3.83951 9.23246C3.82867 9.15525 3.84864 9.07688 3.89511 9.01427C3.94158 8.95166 4.01082 8.90986 4.08786 8.89787C4.1649 8.88589 4.24356 8.90471 4.30685 8.95024C4.37013 8.99578 4.41296 9.06439 4.42608 9.14124L4.42537 9.14224Z" fill="#31241B"/>
<path id="Vector_18" d="M17.3846 30.3079C17.0691 30.871 16.2461 31.0101 15.687 30.6887C15.2919 30.4611 15.028 30.0612 14.9018 29.6186C14.8488 29.4348 14.8194 29.245 14.8144 29.0538C14.7992 28.4823 14.971 27.9252 15.0655 27.3612C15.1599 26.7973 15.1197 26.2622 14.8136 25.779C15.6886 24.8232 16.3475 24.836 17.1828 25.9213C17.3092 26.0849 17.44 26.2737 17.5754 26.4878C17.3032 27.0805 17.3151 27.7156 17.3904 28.2633C17.4421 28.6568 17.526 29.0044 17.5592 29.2594C17.605 29.6152 17.5593 29.995 17.3846 30.3079Z" fill="#E05656"/>
<path id="Vector_19" d="M15.0648 25.6203C15.208 25.8474 15.3083 26.099 15.3606 26.3624C15.4091 26.6183 15.4202 26.8799 15.3935 27.139C15.3695 27.3951 15.3182 27.6279 15.2721 27.8559C15.226 28.0839 15.1775 28.3044 15.1473 28.5197C15.1172 28.735 15.1025 28.9466 15.1172 29.1469C15.133 29.3473 15.1795 29.544 15.2551 29.7303C15.2917 29.8216 15.3368 29.9092 15.3898 29.992C15.4403 30.0736 15.4995 30.1494 15.5664 30.2181C15.6305 30.286 15.7025 30.3459 15.7809 30.3966C15.8551 30.4459 15.9359 30.4845 16.0209 30.5113C16.1075 30.538 16.1969 30.5543 16.2873 30.5599C16.3785 30.5637 16.4697 30.5572 16.5594 30.5406C16.7366 30.5046 16.8998 30.4248 17.0148 30.3086C17.0295 30.2947 17.043 30.2796 17.0552 30.2634C17.0689 30.2487 17.0812 30.2327 17.0919 30.2157L17.1246 30.1656C17.135 30.1464 17.1463 30.1263 17.1557 30.1059C17.1957 30.0221 17.2257 29.9338 17.2452 29.843C17.2863 29.6508 17.2911 29.4527 17.2594 29.2587C17.2277 29.049 17.1662 28.8198 17.1286 28.5849C17.0911 28.35 17.0783 28.1042 17.08 27.858C17.0833 27.6091 17.1148 27.3614 17.1737 27.1196C17.2339 26.8779 17.3309 26.6468 17.4615 26.4347C17.4777 26.4083 17.5029 26.3886 17.5325 26.3794C17.5621 26.3701 17.594 26.3719 17.6224 26.3844C17.6507 26.397 17.6736 26.4193 17.6867 26.4474C17.6998 26.4755 17.7023 26.5074 17.6937 26.5371L17.6926 26.541C17.5729 26.9679 17.5656 27.3994 17.6214 27.8304C17.6469 28.0467 17.6967 28.2612 17.7353 28.4817C17.7738 28.7023 17.8118 28.9267 17.8491 29.1749C17.8898 29.4394 17.8822 29.7091 17.8266 29.9708C17.7972 30.1065 17.7521 30.2382 17.6922 30.3634C17.6779 30.3953 17.6604 30.426 17.6431 30.4576L17.5819 30.5534C17.5611 30.585 17.5381 30.615 17.513 30.6432C17.4898 30.6728 17.4646 30.7008 17.4376 30.7269C17.2248 30.941 16.9522 31.0671 16.677 31.1229C16.539 31.149 16.3984 31.159 16.2582 31.1526C16.1174 31.1445 15.9781 31.1191 15.8435 31.0771C15.8094 31.0668 15.7758 31.0547 15.743 31.0408C15.7093 31.0286 15.6764 31.0143 15.6444 30.9981L15.5481 30.9487C15.5175 30.9311 15.4887 30.912 15.4591 30.8935C15.343 30.8183 15.2362 30.7297 15.1409 30.6295C15.0465 30.5321 14.9627 30.4249 14.8909 30.3098C14.8192 30.1975 14.758 30.0788 14.7082 29.9553C14.6092 29.712 14.5482 29.4548 14.5276 29.193C14.5085 28.9308 14.5276 28.6785 14.5619 28.4358C14.5962 28.193 14.6473 27.9608 14.6932 27.7351C14.7392 27.5094 14.7862 27.2891 14.8048 27.0837C14.8261 26.8818 14.818 26.6778 14.7808 26.4781C14.7428 26.2861 14.6698 26.1028 14.5654 25.9373L14.5636 25.9342C14.5219 25.8674 14.5085 25.7869 14.5262 25.7102C14.5439 25.6335 14.5914 25.567 14.6582 25.5253C14.7249 25.4836 14.8055 25.4702 14.8822 25.4879C14.9589 25.5056 15.0254 25.5531 15.0671 25.6199L15.0648 25.6203Z" fill="#31241B"/>
<path id="Vector_20" d="M31.9059 20.4861C31.9059 20.4861 31.2777 22.4575 31.9059 24.0712C32.8515 26.5008 30.4912 27.0108 29.8552 25.8073C29.3624 24.8748 29.7423 22.4879 29.7423 22.4879" fill="#E05656"/>
<path id="Vector_21" d="M32.1885 20.5761C32.1591 20.6726 32.1293 20.7882 32.1041 20.8967C32.0789 21.0053 32.0555 21.1189 32.0353 21.2309C31.9948 21.455 31.9641 21.6811 31.9457 21.9073C31.9076 22.3594 31.9173 22.8134 31.9893 23.2509C32.0256 23.4674 32.081 23.6802 32.1546 23.887L32.1831 23.9637L32.2168 24.0528C32.2389 24.1124 32.2595 24.1729 32.2792 24.2341C32.3189 24.3576 32.3514 24.4834 32.3765 24.6107C32.4269 24.8679 32.4477 25.1407 32.4072 25.4199C32.3668 25.6991 32.2595 25.9843 32.0657 26.2168C31.8719 26.4503 31.6102 26.6178 31.3169 26.6959C31.028 26.7726 30.7231 26.7651 30.4383 26.6742C30.1486 26.5832 29.8938 26.4056 29.7083 26.1651C29.6193 26.046 29.548 25.9146 29.4968 25.7749C29.4493 25.6478 29.4127 25.5168 29.3873 25.3835C29.3367 25.1262 29.3194 24.8757 29.3106 24.6278C29.303 24.3826 29.31 24.1371 29.3316 23.8927C29.3434 23.7714 29.3561 23.6508 29.3723 23.5307C29.3912 23.4108 29.4086 23.2912 29.4325 23.1723C29.4779 22.9335 29.5397 22.698 29.6175 22.4676C29.6274 22.4392 29.6469 22.4151 29.6726 22.3995C29.6983 22.3839 29.7287 22.3778 29.7585 22.3822C29.7882 22.3866 29.8155 22.4013 29.8357 22.4236C29.8558 22.446 29.8675 22.4747 29.8687 22.5048V22.5076C29.8862 22.9809 29.882 23.4513 29.8887 23.9133C29.8923 24.1446 29.898 24.374 29.9111 24.6001C29.9263 24.8252 29.9514 25.0488 29.9985 25.2557C30.019 25.355 30.0479 25.4524 30.0848 25.5468C30.1162 25.6298 30.1599 25.7076 30.2143 25.7776C30.3206 25.9155 30.4665 26.0175 30.6326 26.0698C30.97 26.1807 31.3725 26.0849 31.5927 25.8202C31.705 25.6893 31.7793 25.5191 31.808 25.3285C31.8367 25.138 31.8269 24.9309 31.7879 24.7233C31.7681 24.6179 31.7422 24.5137 31.7102 24.4112C31.6944 24.3593 31.6771 24.3074 31.6584 24.2558L31.5971 24.0878C31.5114 23.8479 31.4471 23.6008 31.405 23.3495C31.3222 22.8514 31.3139 22.3495 31.355 21.8574C31.3752 21.6111 31.4084 21.3668 31.4521 21.1244C31.4739 21.0032 31.4991 20.8825 31.5268 20.7621C31.541 20.7018 31.5553 20.6417 31.5713 20.5814C31.5874 20.5211 31.6028 20.4634 31.6239 20.3954C31.6471 20.3202 31.6992 20.2573 31.7688 20.2205C31.8384 20.1838 31.9197 20.1762 31.9949 20.1994C32.0701 20.2226 32.133 20.2747 32.1698 20.3443C32.2065 20.4139 32.2141 20.4952 32.1909 20.5704L32.1885 20.5761Z" fill="#31241B"/>
<path id="Vector_22" d="M6.19414 17.2143C6.195 17.2458 6.19585 17.2754 6.19841 17.3043C6.23997 17.8503 6.41031 18.3847 6.40618 18.9332C6.40205 19.4818 6.16426 20.0859 5.65396 20.2851C5.12743 20.4912 4.50414 20.1647 4.22095 19.6755C3.93777 19.1863 3.92923 18.5842 4.00749 18.0248C4.00835 18.0162 4.01006 18.007 4.01091 17.9984C4.0906 17.4473 4.24329 16.9063 4.26706 16.3491C4.28243 16.01 4.17983 15.7691 4.03396 15.4782C3.9372 15.2858 3.82051 15.0721 3.70666 14.794C3.70581 14.7915 3.70496 14.7898 3.7041 14.7872L5.8778 15.1882L6.98863 15.3934C6.39935 15.7957 6.17977 16.6598 6.19414 17.2143Z" fill="#E05656"/>
<path id="Vector_23" d="M3.97863 14.6759C4.06928 14.8985 4.17786 15.1101 4.29668 15.3426C4.36111 15.4663 4.41767 15.5938 4.46603 15.7246C4.51845 15.8697 4.55045 16.0214 4.56109 16.1754C4.56425 16.2138 4.56544 16.2524 4.56464 16.2909C4.56464 16.3292 4.56464 16.3688 4.56166 16.4012C4.55824 16.4698 4.55241 16.5376 4.546 16.605C4.53263 16.7398 4.51341 16.8718 4.49193 17.0015C4.44924 17.2609 4.39544 17.5109 4.35119 17.7548C4.30693 17.9987 4.27249 18.2355 4.26353 18.4689C4.25456 18.7023 4.27135 18.9303 4.32415 19.1414C4.37694 19.3526 4.46816 19.5472 4.59766 19.6932C4.72858 19.8443 4.90561 19.9627 5.08875 20.0162C5.2719 20.0697 5.45333 20.0613 5.60731 19.981C5.76128 19.9008 5.88893 19.7509 5.97417 19.5638C6.06083 19.3686 6.10655 19.1577 6.1085 18.9442C6.11121 18.7205 6.08104 18.4847 6.03735 18.2409C5.99366 17.9972 5.93119 17.744 5.90928 17.4725C5.89779 17.3304 5.89908 17.1875 5.91312 17.0456C5.92708 16.9058 5.95206 16.7673 5.98783 16.6315C6.02267 16.4971 6.06729 16.3655 6.12131 16.2376C6.17645 16.1097 6.24189 15.9866 6.31698 15.8693C6.35227 15.8095 6.3971 15.7543 6.43765 15.6985C6.45928 15.6711 6.4839 15.6453 6.50696 15.619C6.52962 15.5921 6.55395 15.5667 6.57982 15.5429C6.67957 15.4434 6.79253 15.3582 6.91551 15.2895C6.94272 15.2752 6.97421 15.2711 7.0042 15.278C7.03419 15.2849 7.06068 15.3024 7.07883 15.3273C7.09697 15.3521 7.10555 15.3827 7.103 15.4134C7.10045 15.4441 7.08693 15.4728 7.06493 15.4943L7.05881 15.4997C6.71529 15.8112 6.55192 16.2744 6.49529 16.7312C6.4817 16.8446 6.47562 16.9586 6.47707 17.0728C6.48055 17.1846 6.49191 17.296 6.51108 17.4062C6.54509 17.6397 6.58223 17.8855 6.62493 18.1423C6.66762 18.3992 6.7059 18.6688 6.70206 18.9535C6.69905 19.2496 6.63486 19.542 6.5135 19.8121C6.44931 19.9539 6.36516 20.0858 6.26361 20.2037C6.15622 20.3283 6.02643 20.4316 5.88096 20.5083C5.7315 20.5856 5.56763 20.6312 5.39969 20.642C5.23715 20.6518 5.07417 20.6326 4.91841 20.5851C4.62052 20.4935 4.35455 20.3196 4.15111 20.0835C4.05013 19.9678 3.96518 19.8391 3.89852 19.7008C3.83411 19.5684 3.78383 19.4296 3.74853 19.2866C3.6085 18.7201 3.6741 18.1587 3.76717 17.649C3.8137 17.3928 3.86678 17.146 3.90634 16.9041C3.92641 16.7833 3.94377 16.6638 3.9553 16.5458C3.96099 16.4868 3.96597 16.428 3.96953 16.3696C3.97209 16.3388 3.97152 16.3149 3.9718 16.2895C3.97263 16.2646 3.97186 16.2396 3.96953 16.2148C3.96258 16.115 3.9416 16.0167 3.9072 15.9228C3.86694 15.8157 3.82013 15.7111 3.76703 15.6097C3.65475 15.39 3.53066 15.1492 3.42977 14.9011V14.9002C3.40461 14.8284 3.40801 14.7496 3.43925 14.6802C3.4705 14.6108 3.5272 14.5561 3.59765 14.5273C3.6681 14.4985 3.74692 14.4979 3.81782 14.5255C3.88872 14.5532 3.94629 14.607 3.97863 14.6759Z" fill="#31241B"/>
<g id="Group_7" opacity="0.3">
<path id="Vector_24" opacity="0.3" d="M28.7575 14.8393C28.7524 14.8213 28.7473 14.8036 28.7413 14.7858C28.587 14.3211 28.1274 14.0158 27.6686 13.8446C27.2098 13.6734 26.7036 13.5248 26.4085 13.1348C26.0338 12.6367 26.139 11.9468 26.0998 11.3252C26.09 11.1696 26.069 11.0148 26.0371 10.8622H26.0379C26.0377 10.8609 26.0372 10.8598 26.0364 10.8589C25.7564 10.0754 24.939 9.65982 24.1639 9.59536C24.013 9.58189 23.8611 9.58246 23.7102 9.59707C23.2396 9.64445 22.7817 9.81579 22.3289 10.0083C21.9354 10.1754 21.5445 10.3611 21.1553 10.4967C20.1549 10.8435 19.0381 11.1895 18.0704 10.7613C17.6922 10.5942 17.4728 10.4018 17.2488 10.1677L17.3124 9.96933C17.1411 9.85795 16.9623 9.75848 16.7773 9.67163C16.7765 9.67078 16.7765 9.66907 16.7756 9.66907C16.7602 9.65484 16.7536 9.65299 16.7501 9.65897L16.6831 9.62667C15.2043 8.97036 13.5635 9.20445 12.378 9.79629C11.0204 10.4747 10.0325 11.9735 10.2199 13.4798C10.2971 14.1014 10.7576 14.7069 11.3096 15.0025C11.4113 15.0567 11.5165 15.1051 11.6226 15.1491C11.6014 15.1619 11.5799 15.1754 11.5599 15.1891C10.1751 14.7243 9.03283 13.5194 8.76146 12.0837C8.49008 10.648 9.16688 9.05133 10.4456 8.34493C11.2894 7.87945 12.2882 7.81328 13.2499 7.7565C14.3251 7.69289 15.436 7.6344 16.4485 8.00411C17.1217 8.25001 17.7255 8.67821 18.4208 8.85552C20.5144 9.38973 22.5761 7.52412 24.7237 7.76333C26.0669 7.91247 27.26 8.97292 27.5661 10.2902C27.6443 10.6278 27.5946 10.9814 27.5603 11.3265C27.526 11.6716 27.534 12.0464 27.7383 12.3253C27.8206 12.4382 27.93 12.5281 28.0309 12.6242C28.6118 13.1866 28.8898 14.0429 28.7575 14.8393Z" fill="#31241B"/>
</g>
<g id="Group_8" opacity="0.3">
<path id="Vector_25" opacity="0.3" d="M35.085 14.9588C35.1045 15.7516 34.7925 16.5242 34.3405 17.1762C33.8886 17.8283 33.099 18.3858 32.6021 19.0037C31.9144 19.8558 31.8364 21.0345 31.4352 22.0547C31.3477 22.2767 31.243 22.4916 31.1222 22.6973C31.0135 22.5537 30.9168 22.4014 30.833 22.242C30.2547 21.1405 30.3149 19.7303 30.9855 18.6822C31.5832 17.7461 32.6162 17.1295 32.9876 16.0832C33.4032 14.9156 32.9868 13.6377 32.623 12.4544C32.2593 11.2712 31.9642 9.92239 32.5764 8.84629C32.8876 8.29856 33.398 7.89569 33.7797 7.39635C34.1614 6.897 34.4088 6.19302 34.101 5.64359C34.1579 5.65801 34.2139 5.67323 34.2689 5.68926C34.5598 6.08359 34.7761 6.52971 34.8863 7.01042C35.3467 9.01506 33.8772 11.1639 34.5386 13.1124C34.8349 13.7013 35.0688 14.3049 35.085 14.9588Z" fill="#31241B"/>
</g>
<g id="Group_9" opacity="0.3">
<path id="Vector_26" opacity="0.3" d="M14.4014 25.4484C13.8912 25.074 13.3259 24.7812 12.7258 24.5803C11.7012 24.2361 10.6305 23.8298 9.94871 22.9895C9.29568 22.1831 9.10911 21.1111 8.80216 20.1184C8.49521 19.1256 8.68348 17.8263 7.29118 17.5133C6.91761 17.445 6.55052 17.345 6.19387 17.2145C6.19472 17.2459 6.19558 17.2755 6.19814 17.3044C6.23969 17.8505 6.41003 18.3848 6.4059 18.9334C6.40178 19.482 6.16398 20.0861 5.65368 20.2853C5.12716 20.4913 4.50386 20.1649 4.22068 19.6757C3.93749 19.1864 3.92895 18.5843 4.00722 18.0249C4.00807 18.0164 4.00978 18.0071 4.01064 17.9986C4.04963 17.9402 4.08947 17.8825 4.13017 17.8257C4.16077 17.9885 4.19293 18.1539 4.27603 18.2963C4.35914 18.4387 4.50671 18.5549 4.67207 18.5557C4.87727 18.5566 5.0469 18.3786 5.11207 18.1843C5.17725 17.9901 5.16302 17.779 5.16302 17.5738C5.16327 17.2945 5.19082 17.0159 5.24527 16.7419C5.35308 16.1879 5.56784 15.6601 5.87753 15.1882C5.88777 15.172 5.89788 15.1559 5.90898 15.1398C6.1405 14.7973 6.44148 14.475 6.83666 14.3555C7.23184 14.2359 7.73118 14.3868 7.88814 14.7693C8.00199 15.0465 7.91774 15.3628 7.96357 15.6588C8.04069 16.1569 8.46049 16.5152 8.79889 16.8892C9.57473 17.7457 10.0149 18.899 10.0063 20.0548C10.0004 20.8357 10.5541 21.5657 11.1977 22.0085C11.8414 22.4512 12.5885 22.7385 13.188 23.2388C13.8486 23.7904 14.2742 24.5985 14.4014 25.4484Z" fill="#31241B"/>
</g>
<g id="Group_10" opacity="0.3">
<path id="Vector_27" opacity="0.3" d="M24.3697 25.6153C24.2634 25.6706 24.1622 25.735 24.067 25.8079C23.4786 26.582 22.9494 27.4232 22.1828 28.0218C20.8473 29.0649 18.8554 29.1734 17.4147 28.2805C17.4062 28.2754 17.3978 28.2694 17.3893 28.2635C17.4409 28.6569 17.5249 29.0046 17.558 29.2596C17.6046 29.6153 17.5589 29.9947 17.3842 30.3077C17.0687 30.8708 16.2457 31.0098 15.6866 30.6885C15.2914 30.4608 15.0276 30.0609 14.9014 29.6183C15.1413 29.9116 15.4669 30.1984 15.8145 30.0855C16.0317 30.0144 16.1733 29.7989 16.2258 29.5768C16.2783 29.3546 16.259 29.124 16.2513 28.8967C16.2345 28.4042 16.2766 27.9114 16.3768 27.4288C16.4141 27.25 16.4582 27.0731 16.5108 26.8998C16.5871 26.6462 16.6829 26.3934 16.8499 26.1882C16.9408 26.0768 17.054 25.9858 17.1824 25.9211C17.2913 25.867 17.4119 25.8405 17.5334 25.844C17.8498 25.8567 18.1135 26.0908 18.3101 26.3392C18.5068 26.5877 18.6714 26.8709 18.9274 27.0583C19.2845 27.3194 19.7594 27.35 20.2004 27.3228C21.7698 27.2245 23.2895 26.4851 24.3359 25.3123C24.3526 25.4127 24.3639 25.5138 24.3697 25.6153Z" fill="#31241B"/>
</g>
<g id="Group_11" opacity="0.3">
<path id="Vector_28" opacity="0.3" d="M29.6459 24.2865C28.9354 24.7825 28.1026 25.1006 27.2385 25.1709C26.7298 25.2136 26.2185 25.176 25.7096 25.2124C25.5121 25.2267 25.2827 25.2726 25.0499 25.3414C24.9415 25.2312 24.771 25.1667 24.6328 25.2345C24.6776 25.0922 24.6897 24.9997 24.7684 24.8725C25.251 24.0999 26.0667 23.5843 26.929 23.291C27.7914 22.9977 28.7056 22.9051 29.6112 22.8145C29.6631 23.3033 29.6747 23.7957 29.6459 24.2865Z" fill="#31241B"/>
</g>
<g id="Group_12" opacity="0.25">
<path id="Vector_29" opacity="0.25" d="M6.17392 8.79349C6.01227 8.18158 6.24294 7.47106 6.66658 6.97627C7.18571 6.36976 7.93167 6.014 8.65457 5.67532C9.49588 5.28114 10.3531 4.88197 11.273 4.75461C11.8977 4.66823 12.5443 4.71348 13.1437 4.90545C13.6778 5.07622 13.7938 5.80624 13.3186 6.10394C13.2549 6.14427 13.1846 6.17294 13.1108 6.18861C12.6219 6.29036 12.1796 5.89916 11.698 5.76682C11.1255 5.60929 10.5237 5.8263 9.97132 6.04403C9.51409 6.22433 9.05374 6.40947 8.64789 6.68696C8.24203 6.96445 7.89012 7.34512 7.73443 7.81116C7.65375 8.05308 7.62799 8.30923 7.56267 8.55584C7.49735 8.80246 7.38266 9.05007 7.17319 9.19621C6.80106 9.4545 6.28962 9.23207 6.17392 8.79349Z" fill="#FFF9F2"/>
</g>
<g id="Group_13" opacity="0.25">
<path id="Vector_30" opacity="0.25" d="M6.33523 10.582C6.22523 10.717 6.18112 10.8934 6.15024 11.0648C6.09716 11.3576 6.07354 11.6625 6.14668 11.9502C6.21982 12.238 6.40283 12.5104 6.67221 12.635C6.94159 12.7597 7.30063 12.7043 7.48093 12.4677C7.62636 12.2768 7.63533 12.0123 7.58765 11.7778C7.53998 11.5433 7.44265 11.3197 7.39497 11.0845C7.36196 10.9215 7.35228 10.7493 7.27088 10.6039C7.09599 10.2897 6.54371 10.3254 6.33523 10.582Z" fill="#FFF9F2"/>
</g>
<g id="Group_14" opacity="0.25">
<path id="Vector_31" opacity="0.25" d="M29.3908 6.69551C29.893 6.83383 30.3829 7.23285 30.39 7.75368C30.3956 8.16637 30.1024 8.53123 30.0788 8.94264C30.0604 9.2614 30.1946 9.62698 29.9919 9.87373C29.8124 10.092 29.444 10.065 29.2335 9.87644C29.023 9.68788 28.9444 9.39132 28.9277 9.10927C28.9111 8.82723 28.9459 8.54305 28.9149 8.26214C28.8839 7.98123 28.7716 7.68965 28.5347 7.53639C28.3942 7.44517 28.2253 7.41158 28.0668 7.35765C27.7345 7.24381 27.4106 6.76609 27.8788 6.59348C28.2772 6.44591 28.9957 6.58679 29.3908 6.69551Z" fill="#FFF9F2"/>
</g>
<path id="Vector_32" d="M9.17903 17.6334L8.05312 16.0313C8.01325 15.9747 7.98493 15.9108 7.96978 15.8433C7.95464 15.7757 7.95297 15.7058 7.96486 15.6376C7.97676 15.5694 8.00199 15.5042 8.03911 15.4458C8.07623 15.3874 8.12451 15.3368 8.18119 15.297C8.23779 15.2572 8.3017 15.2289 8.36926 15.2137C8.43682 15.1986 8.5067 15.1969 8.5749 15.2088C8.64311 15.2207 8.7083 15.2459 8.76674 15.283C8.82518 15.3202 8.87573 15.3684 8.91548 15.4251L10.0415 17.0272C10.0814 17.0838 10.1097 17.1477 10.1249 17.2152C10.14 17.2828 10.1417 17.3527 10.1298 17.4209C10.1179 17.4891 10.0927 17.5543 10.0555 17.6127C10.0184 17.6712 9.97014 17.7217 9.91346 17.7615C9.79907 17.8418 9.65745 17.8735 9.51974 17.8495C9.38202 17.8254 9.25948 17.7477 9.17903 17.6334Z" fill="#FFF9F2"/>
<g id="Group_15" opacity="0.3">
<path id="Vector_33" opacity="0.3" d="M9.91399 17.7614C9.79957 17.8417 9.65794 17.8733 9.52021 17.8493C9.38248 17.8253 9.25992 17.7476 9.17942 17.6333L8.73145 16.9959C8.77126 17.0525 8.82184 17.1008 8.8803 17.1379C8.93875 17.175 9.00394 17.2002 9.07214 17.2121C9.14034 17.224 9.21021 17.2223 9.27777 17.2072C9.34532 17.1921 9.40925 17.1638 9.46588 17.124C9.52251 17.0842 9.57075 17.0336 9.60783 16.9751C9.64492 16.9167 9.67013 16.8515 9.68202 16.7833C9.69391 16.7151 9.69226 16.6452 9.67715 16.5777C9.66204 16.5101 9.63377 16.4462 9.59395 16.3896L10.0421 17.0269C10.082 17.0835 10.1103 17.1475 10.1255 17.215C10.1406 17.2826 10.1423 17.3525 10.1304 17.4207C10.1185 17.4889 10.0933 17.5542 10.0561 17.6126C10.019 17.6711 9.97069 17.7216 9.91399 17.7614Z" fill="#31241B"/>
</g>
<g id="Group_16" opacity="0.6">
<path id="Vector_34" opacity="0.6" d="M8.34764 16.4506L8.05292 16.0314C8.01311 15.9747 7.98484 15.9108 7.96974 15.8432C7.95463 15.7757 7.95298 15.7058 7.96488 15.6376C7.97678 15.5694 8.00199 15.5042 8.03909 15.4457C8.07618 15.3873 8.12443 15.3367 8.18107 15.2969C8.23771 15.2571 8.30164 15.2288 8.36921 15.2137C8.43678 15.1986 8.50666 15.1969 8.57486 15.2088C8.64307 15.2207 8.70826 15.246 8.76672 15.283C8.82518 15.3201 8.87576 15.3684 8.91557 15.425L9.21029 15.8443C9.17047 15.7876 9.11989 15.7394 9.06143 15.7023C9.00297 15.6652 8.93778 15.64 8.86957 15.6281C8.80137 15.6162 8.73149 15.6178 8.66392 15.6329C8.59635 15.648 8.53243 15.6763 8.47578 15.7161C8.41914 15.7559 8.37089 15.8065 8.3338 15.865C8.29671 15.9234 8.27149 15.9886 8.25959 16.0568C8.24769 16.125 8.24934 16.1949 8.26445 16.2625C8.27955 16.33 8.30782 16.394 8.34764 16.4506Z" fill="#FFF9F2"/>
</g>
<path id="Vector_35" d="M9.6118 18.1086C9.48668 18.1089 9.36334 18.0789 9.25224 18.0214C9.14114 17.9639 9.04555 17.8804 8.97357 17.778L7.84752 16.1761C7.78744 16.0925 7.74454 15.9978 7.72129 15.8975C7.69804 15.7973 7.69491 15.6934 7.71207 15.5919C7.72923 15.4904 7.76635 15.3933 7.82128 15.3062C7.87621 15.2191 7.94786 15.1438 8.03208 15.0846C8.1163 15.0254 8.21142 14.9835 8.31194 14.9613C8.41246 14.9391 8.51639 14.9371 8.6177 14.9553C8.71902 14.9735 8.81572 15.0116 8.90221 15.0675C8.9887 15.1233 9.06325 15.1957 9.12157 15.2806L10.2476 16.8825C10.3296 16.999 10.378 17.1358 10.3876 17.2779C10.3972 17.4201 10.3676 17.5621 10.302 17.6886C10.2364 17.8151 10.1374 17.9211 10.0157 17.9952C9.89397 18.0692 9.75427 18.1085 9.6118 18.1086ZM9.38511 17.4887C9.40592 17.5183 9.43236 17.5435 9.46291 17.5629C9.49346 17.5823 9.52753 17.5955 9.56318 17.6017C9.59882 17.6079 9.63535 17.607 9.67066 17.5991C9.70597 17.5913 9.73938 17.5765 9.76898 17.5557C9.79858 17.5349 9.82379 17.5084 9.84318 17.4779C9.86256 17.4473 9.87574 17.4132 9.88196 17.3776C9.88818 17.342 9.88731 17.3054 9.87941 17.2701C9.87152 17.2348 9.85674 17.2014 9.83593 17.1718L8.71002 15.5699C8.668 15.5101 8.60394 15.4695 8.53196 15.4569C8.45997 15.4443 8.38594 15.4609 8.32616 15.5029C8.26637 15.545 8.22573 15.609 8.21318 15.681C8.20062 15.753 8.21718 15.827 8.2592 15.8868L9.38511 17.4887Z" fill="#31241B"/>
<path id="Vector_36" d="M22.7096 8.01708L20.9065 8.78083C20.7777 8.8353 20.6326 8.83643 20.5031 8.78396C20.3735 8.7315 20.2701 8.62974 20.2156 8.50106C20.161 8.37232 20.1599 8.2272 20.2124 8.09761C20.2648 7.96802 20.3666 7.86458 20.4953 7.81003L22.2985 7.04642C22.3622 7.01935 22.4306 7.00512 22.4999 7.00454C22.5691 7.00395 22.6378 7.01703 22.7019 7.04301C22.7661 7.069 22.8245 7.10739 22.8739 7.15598C22.9232 7.20457 22.9624 7.26241 22.9894 7.32619C23.0164 7.38992 23.0307 7.45836 23.0312 7.52759C23.0318 7.59682 23.0188 7.66549 22.9928 7.72966C22.9668 7.79384 22.9284 7.85225 22.8798 7.90157C22.8312 7.95089 22.7734 7.99014 22.7096 8.01708Z" fill="#FFF9F2"/>
<g id="Group_17" opacity="0.3">
<path id="Vector_37" opacity="0.3" d="M22.989 7.32591C23.0436 7.45463 23.0448 7.59975 22.9924 7.72937C22.94 7.859 22.8383 7.96253 22.7097 8.01722L21.9923 8.32104C22.0561 8.29404 22.1139 8.25474 22.1624 8.2054C22.211 8.15605 22.2494 8.09762 22.2754 8.03345C22.3014 7.96927 22.3144 7.90061 22.3139 7.83137C22.3133 7.76214 22.2992 7.69369 22.2722 7.62994C22.2452 7.56619 22.2059 7.50838 22.1565 7.45981C22.1072 7.41124 22.0487 7.37287 21.9846 7.34689C21.9204 7.3209 21.8517 7.30781 21.7825 7.30836C21.7133 7.30891 21.6448 7.32309 21.5811 7.3501L22.2984 7.04628C22.3621 7.01925 22.4305 7.00505 22.4997 7.00447C22.5689 7.0039 22.6375 7.01697 22.7017 7.04294C22.7658 7.06891 22.8242 7.10727 22.8735 7.15582C22.9228 7.20438 22.9621 7.26217 22.989 7.32591Z" fill="#31241B"/>
</g>
<g id="Group_18" opacity="0.6">
<path id="Vector_38" opacity="0.6" d="M21.3776 8.58117L20.9057 8.7804C20.777 8.83494 20.6318 8.83609 20.5022 8.78361C20.3726 8.73113 20.2691 8.62931 20.2146 8.50056C20.1601 8.3718 20.1589 8.22666 20.2114 8.09705C20.2639 7.96744 20.3657 7.86399 20.4944 7.80946L20.9663 7.61023C20.8376 7.66477 20.7358 7.76821 20.6833 7.8978C20.6309 8.0274 20.632 8.17252 20.6866 8.30126C20.7411 8.43 20.8445 8.5318 20.9741 8.58426C21.1037 8.63673 21.2489 8.63557 21.3776 8.58103V8.58117Z" fill="#FFF9F2"/>
</g>
<path id="Vector_39" d="M20.7009 9.07451C20.5212 9.07455 20.347 9.01247 20.2079 8.89877C20.0688 8.78508 19.9732 8.62677 19.9375 8.45068C19.9017 8.27459 19.9279 8.09155 20.0117 7.93258C20.0955 7.77362 20.2316 7.64851 20.3971 7.57846L22.2001 6.81471C22.2944 6.77377 22.3959 6.75192 22.4988 6.75042C22.6016 6.74892 22.7037 6.76781 22.7992 6.80598C22.8947 6.84416 22.9817 6.90087 23.0551 6.97285C23.1286 7.04483 23.187 7.13064 23.2271 7.22534C23.2672 7.32003 23.2882 7.42173 23.2888 7.52457C23.2894 7.62741 23.2696 7.72934 23.2306 7.82449C23.1915 7.91964 23.1341 8.00612 23.0614 8.07893C22.9888 8.15174 22.9025 8.20945 22.8074 8.24871L21.0044 9.01218C20.9085 9.05312 20.8052 9.07432 20.7009 9.07451ZM22.5038 7.256C22.4668 7.25608 22.4303 7.26353 22.3963 7.27791L20.5933 8.04166C20.56 8.05577 20.5298 8.0763 20.5044 8.10209C20.479 8.12788 20.459 8.15841 20.4454 8.19195C20.4318 8.22549 20.425 8.26137 20.4252 8.29755C20.4255 8.33374 20.4329 8.36951 20.447 8.40283C20.4611 8.43615 20.4817 8.46636 20.5075 8.49175C20.5333 8.51713 20.5638 8.53719 20.5973 8.55077C20.6309 8.56436 20.6667 8.5712 20.7029 8.57092C20.7391 8.57064 20.7749 8.56323 20.8082 8.54912L22.6112 7.78537C22.6697 7.76054 22.7178 7.71627 22.7474 7.66004C22.777 7.60381 22.7863 7.53909 22.7736 7.47682C22.761 7.41454 22.7272 7.35855 22.6781 7.31831C22.6289 7.27807 22.5673 7.25606 22.5038 7.256Z" fill="#31241B"/>
<path id="Vector_40" d="M11.8968 7.82807L9.94044 7.91345C9.87128 7.9165 9.8022 7.90589 9.73714 7.88222C9.67209 7.85854 9.61234 7.82227 9.56132 7.77548C9.5103 7.72869 9.46901 7.6723 9.43981 7.60953C9.41061 7.54676 9.39407 7.47886 9.39114 7.40969C9.38807 7.34052 9.39867 7.27142 9.42233 7.20635C9.446 7.14128 9.48227 7.08152 9.52906 7.03048C9.57585 6.97945 9.63225 6.93814 9.69503 6.90893C9.7578 6.87972 9.82572 6.86318 9.8949 6.86025L11.8512 6.77487C11.9203 6.7718 11.9894 6.7824 12.0545 6.80606C12.1196 6.82973 12.1793 6.86599 12.2304 6.91279C12.2814 6.95958 12.3227 7.01598 12.3519 7.07875C12.3811 7.14153 12.3977 7.20945 12.4006 7.27863C12.4037 7.3478 12.3931 7.4169 12.3694 7.48197C12.3457 7.54704 12.3095 7.6068 12.2627 7.65784C12.2159 7.70887 12.1595 7.75018 12.0967 7.77939C12.0339 7.8086 11.966 7.82514 11.8968 7.82807Z" fill="#E06B38"/>
<g id="Group_19" opacity="0.3">
<path id="Vector_41" opacity="0.3" d="M12.4008 7.27845C12.4068 7.41812 12.3572 7.55447 12.2627 7.65756C12.1683 7.76066 12.0368 7.82207 11.8972 7.82831L11.1189 7.86203C11.1881 7.85904 11.2559 7.84245 11.3187 7.81322C11.3814 7.78398 11.4378 7.74268 11.4845 7.69167C11.5313 7.64065 11.5676 7.58093 11.5913 7.5159C11.615 7.45087 11.6256 7.38181 11.6226 7.31267C11.6196 7.24352 11.603 7.17565 11.5738 7.11291C11.5446 7.05018 11.5033 6.99382 11.4522 6.94705C11.4012 6.90028 11.3415 6.86401 11.2765 6.84032C11.2114 6.81663 11.1424 6.80598 11.0732 6.80898L11.8516 6.77526C11.9207 6.77222 11.9898 6.78283 12.0548 6.80647C12.1198 6.83012 12.1795 6.86634 12.2305 6.91307C12.2815 6.9598 12.3228 7.01612 12.352 7.07881C12.3812 7.1415 12.3978 7.20934 12.4008 7.27845Z" fill="#31241B"/>
</g>
<g id="Group_20" opacity="0.6">
<path id="Vector_42" opacity="0.6" d="M10.4518 7.89102L9.93951 7.91308C9.79987 7.91914 9.66354 7.86948 9.56051 7.77502C9.45748 7.68056 9.3962 7.54904 9.39014 7.4094C9.38409 7.26975 9.43375 7.13342 9.52821 7.0304C9.62267 6.92737 9.75419 6.86609 9.89383 6.86003L10.4061 6.83783C10.337 6.84083 10.2691 6.85742 10.2064 6.88665C10.1436 6.91588 10.0873 6.95718 10.0405 7.0082C9.99373 7.05921 9.95747 7.11894 9.93378 7.18397C9.91009 7.24899 9.89944 7.31805 9.90244 7.3872C9.90544 7.45634 9.92203 7.52422 9.95126 7.58695C9.98049 7.64968 10.0218 7.70604 10.0728 7.75282C10.1238 7.79959 10.1835 7.83586 10.2486 7.85954C10.3136 7.88323 10.3827 7.89388 10.4518 7.89088V7.89102Z" fill="#FFF9F2"/>
</g>
<path id="Vector_43" d="M9.91674 8.16495C9.71367 8.16402 9.519 8.0838 9.37423 7.9414C9.22946 7.79899 9.14604 7.60567 9.14177 7.40264C9.1375 7.19961 9.21272 7.00295 9.35137 6.85458C9.49003 6.70622 9.68116 6.61788 9.88401 6.60842L11.8401 6.52304C11.9423 6.51861 12.0443 6.53435 12.1404 6.56935C12.2365 6.60436 12.3247 6.65795 12.4001 6.72706C12.4755 6.79617 12.5365 6.87945 12.5797 6.97214C12.6229 7.06483 12.6474 7.16513 12.6518 7.26729C12.6563 7.36946 12.6405 7.4715 12.6055 7.56758C12.5705 7.66366 12.5169 7.75191 12.4478 7.82729C12.3787 7.90266 12.2954 7.96368 12.2027 8.00687C12.11 8.05006 12.0097 8.07457 11.9076 8.079L9.95132 8.16438C9.93993 8.16467 9.92841 8.16495 9.91674 8.16495ZM11.8741 7.02609C11.87 7.02609 11.866 7.02609 11.862 7.02609L9.90578 7.11147C9.83277 7.11462 9.764 7.14665 9.7146 7.2005C9.6652 7.25436 9.63922 7.32563 9.64238 7.39864C9.64553 7.47165 9.67755 7.54042 9.73141 7.58982C9.78526 7.63922 9.85654 7.6652 9.92955 7.66205L11.8858 7.57666C11.9576 7.5734 12.0254 7.54218 12.0745 7.48966C12.1236 7.43715 12.1503 7.36751 12.1487 7.29561C12.1472 7.22371 12.1177 7.15526 12.0663 7.10487C12.015 7.05448 11.946 7.02616 11.8741 7.02594V7.02609Z" fill="#31241B"/>
<path id="Vector_44" d="M29.3368 11.8029L27.9525 10.418C27.9034 10.3691 27.8646 10.311 27.838 10.2471C27.8115 10.1831 27.7979 10.1146 27.7979 10.0453C27.7979 9.9761 27.8115 9.90754 27.838 9.84359C27.8646 9.77964 27.9034 9.72154 27.9525 9.67264C28.0014 9.62363 28.0595 9.58475 28.1234 9.55822C28.1874 9.53169 28.2559 9.51804 28.3251 9.51804C28.3944 9.51804 28.4629 9.53169 28.5269 9.55822C28.5908 9.58475 28.6489 9.62363 28.6978 9.67264L30.0822 11.0575C30.1312 11.1064 30.1701 11.1645 30.1966 11.2285C30.2231 11.2924 30.2368 11.361 30.2368 11.4302C30.2368 11.4995 30.2231 11.568 30.1966 11.632C30.1701 11.6959 30.1312 11.754 30.0822 11.8029C30.0333 11.8519 29.9752 11.8908 29.9112 11.9174C29.8473 11.9439 29.7787 11.9575 29.7095 11.9575C29.6402 11.9575 29.5717 11.9439 29.5077 11.9174C29.4438 11.8908 29.3857 11.8519 29.3368 11.8029Z" fill="#E06B38"/>
<g id="Group_21" opacity="0.3">
<path id="Vector_45" opacity="0.3" d="M30.0825 11.8029C29.9836 11.9017 29.8495 11.9572 29.7098 11.9572C29.57 11.9572 29.4359 11.9017 29.337 11.8029L28.7861 11.2522C28.8351 11.3012 28.8932 11.34 28.9571 11.3665C29.0211 11.393 29.0896 11.4067 29.1589 11.4067C29.2281 11.4067 29.2967 11.3931 29.3606 11.3666C29.4246 11.3401 29.4827 11.3013 29.5317 11.2524C29.5806 11.2034 29.6195 11.1453 29.646 11.0814C29.6725 11.0174 29.6861 10.9489 29.6861 10.8796C29.6862 10.8104 29.6725 10.7418 29.6461 10.6779C29.6196 10.6139 29.5807 10.5558 29.5318 10.5068L30.0827 11.0578C30.1316 11.1067 30.1705 11.1648 30.1969 11.2288C30.2234 11.2927 30.2371 11.3612 30.2371 11.4304C30.237 11.4996 30.2234 11.5681 30.1969 11.6321C30.1704 11.696 30.1315 11.7541 30.0825 11.8029Z" fill="#31241B"/>
</g>
<g id="Group_22" opacity="0.6">
<path id="Vector_46" opacity="0.6" d="M28.3145 10.7805L27.9522 10.4181C27.8533 10.3192 27.7978 10.1851 27.7979 10.0453C27.7979 9.90544 27.8534 9.77137 27.9523 9.67252C28.0512 9.57368 28.1853 9.51816 28.3251 9.51819C28.4649 9.51822 28.599 9.57378 28.6979 9.67266L29.0602 10.0351C29.0112 9.98615 28.9531 9.94731 28.8892 9.9208C28.8252 9.8943 28.7567 9.88065 28.6874 9.88064C28.6182 9.88062 28.5496 9.89425 28.4857 9.92073C28.4217 9.94721 28.3636 9.98603 28.3146 10.035C28.2657 10.0839 28.2268 10.142 28.2003 10.206C28.1738 10.2699 28.1602 10.3385 28.1602 10.4077C28.1601 10.4769 28.1738 10.5455 28.2002 10.6095C28.2267 10.6734 28.2655 10.7315 28.3145 10.7805Z" fill="#FFF9F2"/>
</g>
<path id="Vector_47" d="M29.7099 12.2085C29.6076 12.2087 29.5064 12.1887 29.4119 12.1496C29.3174 12.1105 29.2316 12.0532 29.1593 11.9808L27.775 10.5959C27.6661 10.487 27.5919 10.3483 27.5618 10.1973C27.5318 10.0462 27.5472 9.88966 27.6061 9.74738C27.6651 9.60511 27.7649 9.48351 27.8929 9.39796C28.021 9.31241 28.1715 9.26677 28.3255 9.26679C28.4278 9.26646 28.5291 9.28642 28.6236 9.3255C28.7181 9.36458 28.804 9.42201 28.8761 9.49448L30.2605 10.8794C30.3694 10.9882 30.4435 11.127 30.4736 11.278C30.5036 11.429 30.4882 11.5856 30.4292 11.7278C30.3702 11.8701 30.2704 11.9916 30.1423 12.0771C30.0143 12.1626 29.8637 12.2082 29.7097 12.2081L29.7099 12.2085ZM29.5151 11.6251C29.5536 11.6636 29.6027 11.6898 29.6561 11.7005C29.7096 11.7111 29.765 11.7056 29.8153 11.6848C29.8656 11.6639 29.9087 11.6286 29.939 11.5833C29.9692 11.538 29.9854 11.4847 29.9854 11.4302C29.9855 11.3941 29.9785 11.3582 29.9646 11.3248C29.9508 11.2914 29.9305 11.2611 29.9048 11.2356L28.5205 9.85066C28.495 9.82501 28.4646 9.80465 28.4312 9.79078C28.3977 9.77691 28.3619 9.76979 28.3257 9.76983C28.2712 9.76987 28.2179 9.78606 28.1726 9.81635C28.1273 9.84664 28.092 9.88968 28.0712 9.94002C28.0504 9.99036 28.0449 10.0458 28.0555 10.0992C28.0661 10.1526 28.0924 10.2017 28.1309 10.2403L29.5151 11.6251Z" fill="#31241B"/>
<path id="Vector_48" d="M30.2667 17.9168L31.3246 16.2698C31.3619 16.2114 31.4104 16.1611 31.4672 16.1215C31.5241 16.082 31.5882 16.054 31.6558 16.0393C31.7235 16.0245 31.7933 16.0233 31.8615 16.0356C31.9296 16.0479 31.9947 16.0735 32.0529 16.1109C32.1112 16.1483 32.1616 16.1968 32.2011 16.2536C32.2407 16.3104 32.2686 16.3745 32.2834 16.4422C32.2981 16.5098 32.2994 16.5797 32.2871 16.6478C32.2748 16.716 32.2492 16.781 32.2117 16.8393L31.1538 18.487C31.1165 18.5453 31.068 18.5957 31.0112 18.6352C30.9543 18.6748 30.8903 18.7027 30.8226 18.7175C30.755 18.7322 30.6851 18.7335 30.6169 18.7212C30.5488 18.7089 30.4837 18.6833 30.4255 18.6458C30.3671 18.6085 30.3166 18.56 30.277 18.5031C30.2374 18.4462 30.2094 18.382 30.1947 18.3143C30.1799 18.2465 30.1787 18.1766 30.1911 18.1084C30.2034 18.0401 30.2291 17.975 30.2667 17.9168Z" fill="#A7C49C"/>
<g id="Group_23" opacity="0.3">
<path id="Vector_49" opacity="0.3" d="M30.4261 18.6452C30.3085 18.5697 30.2256 18.4505 30.1958 18.314C30.1659 18.1774 30.1915 18.0346 30.2668 17.9169L30.6878 17.2613C30.6504 17.3196 30.6249 17.3846 30.6126 17.4527C30.6004 17.5209 30.6017 17.5907 30.6165 17.6584C30.6312 17.726 30.6592 17.79 30.6987 17.8469C30.7382 17.9037 30.7885 17.9522 30.8468 17.9895C30.9051 18.0269 30.9701 18.0524 31.0382 18.0647C31.1064 18.0769 31.1762 18.0756 31.2439 18.0608C31.3115 18.0461 31.3755 18.0181 31.4324 17.9786C31.4892 17.9391 31.5377 17.8888 31.575 17.8305L31.1541 18.4862C31.1168 18.5445 31.0683 18.5949 31.0115 18.6344C30.9547 18.674 30.8907 18.7019 30.8231 18.7167C30.7554 18.7314 30.6856 18.7327 30.6175 18.7205C30.5493 18.7082 30.4843 18.6826 30.4261 18.6452Z" fill="#31241B"/>
</g>
<g id="Group_24" opacity="0.6">
<path id="Vector_50" opacity="0.6" d="M31.0479 16.6999L31.3246 16.2687C31.4003 16.1512 31.5195 16.0684 31.6561 16.0387C31.7928 16.009 31.9356 16.0348 32.0532 16.1104C32.1706 16.186 32.2533 16.3051 32.283 16.4416C32.3128 16.578 32.2872 16.7207 32.2119 16.8384L31.9351 17.2696C31.9725 17.2113 31.998 17.1463 32.0103 17.0781C32.0225 17.01 32.0212 16.9401 32.0064 16.8725C31.9917 16.8049 31.9637 16.7408 31.9242 16.684C31.8847 16.6272 31.8344 16.5787 31.7761 16.5413C31.7178 16.5039 31.6528 16.4784 31.5847 16.4662C31.5165 16.4539 31.4467 16.4552 31.379 16.47C31.3114 16.4848 31.2474 16.5127 31.1905 16.5522C31.1337 16.5918 31.0852 16.6421 31.0479 16.7003V16.6999Z" fill="#FFF9F2"/>
</g>
<path id="Vector_51" d="M30.7086 18.9805C30.569 18.9801 30.432 18.9422 30.312 18.8708C30.192 18.7993 30.0935 18.6969 30.0266 18.5743C29.9598 18.4517 29.9272 18.3133 29.9321 18.1738C29.9371 18.0342 29.9795 17.8986 30.0549 17.781L31.1128 16.1333C31.2243 15.9595 31.4004 15.8371 31.6022 15.7931C31.7021 15.7713 31.8053 15.7694 31.906 15.7875C32.0066 15.8056 32.1027 15.8434 32.1887 15.8986C32.2748 15.9538 32.3491 16.0255 32.4075 16.1095C32.4659 16.1934 32.5071 16.2881 32.5289 16.388C32.5507 16.4879 32.5526 16.5911 32.5345 16.6918C32.5164 16.7924 32.4786 16.8885 32.4234 16.9746L31.3654 18.6223C31.2946 18.7322 31.1974 18.8225 31.0826 18.8851C30.9679 18.9477 30.8393 18.9806 30.7086 18.9806V18.9805ZM30.4784 18.0527C30.4389 18.1141 30.4254 18.1888 30.441 18.2602C30.4565 18.3316 30.4998 18.3939 30.5613 18.4334C30.6228 18.4729 30.6974 18.4864 30.7688 18.4708C30.8402 18.4553 30.9025 18.412 30.942 18.3505L31.9999 16.7026C32.0199 16.6722 32.0336 16.6381 32.0403 16.6023C32.047 16.5665 32.0466 16.5298 32.039 16.4942C32.0314 16.4586 32.0168 16.4248 31.9961 16.3949C31.9754 16.365 31.949 16.3394 31.9184 16.3197C31.8877 16.3001 31.8535 16.2867 31.8177 16.2803C31.7818 16.2739 31.7451 16.2747 31.7096 16.2827C31.674 16.2906 31.6404 16.3055 31.6107 16.3265C31.5809 16.3474 31.5557 16.3741 31.5363 16.4049L30.4791 18.0528L30.4784 18.0527Z" fill="#31241B"/>
<path id="Vector_52" d="M20.074 26.9717L21.1319 25.324C21.1692 25.2657 21.2177 25.2153 21.2745 25.1758C21.3314 25.1362 21.3954 25.1083 21.4631 25.0935C21.5307 25.0788 21.6006 25.0775 21.6688 25.0898C21.7369 25.1021 21.802 25.1277 21.8602 25.1652C21.9185 25.2025 21.9689 25.251 22.0084 25.3078C22.048 25.3647 22.0759 25.4287 22.0907 25.4964C22.1054 25.564 22.1067 25.6339 22.0944 25.7021C22.0821 25.7702 22.0565 25.8353 22.019 25.8935L20.9611 27.5412C20.9238 27.5995 20.8753 27.6499 20.8185 27.6895C20.7616 27.729 20.6975 27.757 20.6299 27.7717C20.5622 27.7865 20.4924 27.7877 20.4242 27.7754C20.3561 27.7631 20.291 27.7375 20.2328 27.7C20.1745 27.6627 20.1241 27.6142 20.0846 27.5574C20.045 27.5006 20.0171 27.4365 20.0023 27.3688C19.9876 27.3012 19.9863 27.2313 19.9986 27.1631C20.0109 27.095 20.0365 27.03 20.074 26.9717Z" fill="#A7C49C"/>
<g id="Group_25" opacity="0.3">
<path id="Vector_53" opacity="0.3" d="M20.2329 27.7002C20.1152 27.6247 20.0323 27.5056 20.0024 27.369C19.9725 27.2324 19.9981 27.0895 20.0735 26.9718L20.4944 26.3162C20.4571 26.3744 20.4315 26.4395 20.4193 26.5076C20.4071 26.5757 20.4084 26.6456 20.4231 26.7132C20.4379 26.7808 20.4658 26.8449 20.5054 26.9017C20.5449 26.9585 20.5952 27.007 20.6535 27.0444C20.7117 27.0818 20.7768 27.1073 20.8449 27.1195C20.913 27.1318 20.9829 27.1305 21.0505 27.1157C21.1181 27.1009 21.1822 27.073 21.239 27.0335C21.2959 26.994 21.3443 26.9436 21.3817 26.8854L20.9608 27.541C20.9235 27.5993 20.875 27.6496 20.8183 27.6892C20.7615 27.7287 20.6974 27.7567 20.6298 27.7715C20.5622 27.7863 20.4924 27.7876 20.4243 27.7754C20.3562 27.7631 20.2911 27.7376 20.2329 27.7002Z" fill="#31241B"/>
</g>
<g id="Group_26" opacity="0.6">
<path id="Vector_54" opacity="0.6" d="M20.8548 25.7549L21.1317 25.3236C21.2072 25.2059 21.3263 25.123 21.4629 25.0932C21.5995 25.0634 21.7423 25.0891 21.8599 25.1645C21.9776 25.24 22.0605 25.3591 22.0903 25.4957C22.1201 25.6323 22.0945 25.7751 22.019 25.8928L21.7418 26.3245C21.7791 26.2663 21.8047 26.2012 21.8169 26.1331C21.8291 26.065 21.8278 25.9951 21.8131 25.9275C21.7983 25.8598 21.7704 25.7958 21.7308 25.739C21.6913 25.6821 21.641 25.6337 21.5827 25.5963C21.5245 25.5589 21.4594 25.5334 21.3913 25.5211C21.3232 25.5089 21.2533 25.5102 21.1857 25.525C21.1181 25.5397 21.054 25.5677 20.9972 25.6072C20.9404 25.6467 20.8919 25.6971 20.8545 25.7553L20.8548 25.7549Z" fill="#FFF9F2"/>
</g>
<path id="Vector_55" d="M20.5161 28.0353C20.3765 28.0349 20.2395 27.997 20.1195 27.9256C19.9996 27.8541 19.901 27.7517 19.8342 27.6291C19.7674 27.5065 19.7348 27.3681 19.7398 27.2286C19.7447 27.089 19.7871 26.9534 19.8625 26.8358L20.9203 25.1881C21.0318 25.0143 21.2079 24.8919 21.4096 24.8479C21.5096 24.8261 21.6128 24.8242 21.7134 24.8423C21.8141 24.8605 21.9102 24.8982 21.9962 24.9534C22.0823 25.0087 22.1566 25.0803 22.215 25.1643C22.2733 25.2483 22.3146 25.3429 22.3364 25.4428C22.3582 25.5427 22.3601 25.646 22.342 25.7466C22.3239 25.8473 22.2861 25.9433 22.2309 26.0294L21.1729 27.6771C21.1178 27.7634 21.0462 27.8378 20.9622 27.8962C20.8782 27.9546 20.7835 27.9957 20.6835 28.0173C20.6285 28.0292 20.5724 28.0353 20.5161 28.0353ZM20.2859 27.1076C20.2472 27.1691 20.2344 27.2434 20.2502 27.3142C20.266 27.3851 20.3091 27.4469 20.3702 27.4861C20.4313 27.5253 20.5055 27.5389 20.5765 27.5237C20.6475 27.5086 20.7097 27.4661 20.7495 27.4053L21.8074 25.7575C21.8269 25.727 21.8403 25.693 21.8467 25.6574C21.8531 25.6218 21.8524 25.5853 21.8447 25.5499C21.837 25.5146 21.8224 25.4811 21.8017 25.4514C21.781 25.4217 21.7547 25.3963 21.7243 25.3768C21.6938 25.3573 21.6598 25.3439 21.6242 25.3375C21.5886 25.3311 21.5521 25.3318 21.5167 25.3395C21.4814 25.3472 21.4479 25.3618 21.4182 25.3825C21.3885 25.4031 21.3632 25.4295 21.3436 25.4599L20.2859 27.1076Z" fill="#31241B"/>
<path id="Vector_56" d="M13.9631 22.8045L12.0123 22.9742C11.9433 22.9803 11.8738 22.9727 11.8078 22.9519C11.7417 22.9311 11.6805 22.8975 11.6274 22.8529C11.5744 22.8084 11.5307 22.7538 11.4988 22.6924C11.4669 22.6309 11.4474 22.5638 11.4415 22.4948C11.4354 22.4259 11.443 22.3564 11.4638 22.2903C11.4846 22.2243 11.5183 22.163 11.5628 22.11C11.6073 22.057 11.6619 22.0133 11.7233 21.9813C11.7848 21.9494 11.8519 21.93 11.9209 21.924L13.8722 21.7544C13.9411 21.7483 14.0106 21.7559 14.0767 21.7767C14.1427 21.7975 14.204 21.8312 14.257 21.8757C14.31 21.9202 14.3537 21.9747 14.3856 22.0362C14.4175 22.0976 14.437 22.1647 14.443 22.2337C14.449 22.3027 14.4414 22.3722 14.4206 22.4383C14.3997 22.5043 14.3661 22.5656 14.3215 22.6187C14.2769 22.6717 14.2223 22.7154 14.1608 22.7473C14.0993 22.7792 14.0321 22.7986 13.9631 22.8045Z" fill="#A7C49C"/>
<g id="Group_27" opacity="0.3">
<path id="Vector_57" opacity="0.3" d="M14.4423 22.2335C14.4545 22.3728 14.4108 22.5112 14.321 22.6183C14.2311 22.7254 14.1024 22.7925 13.9632 22.8048L13.1871 22.8724C13.3264 22.8602 13.4552 22.7933 13.5451 22.6862C13.635 22.5791 13.6787 22.4407 13.6666 22.3014C13.6545 22.1621 13.5876 22.0333 13.4805 21.9434C13.3734 21.8535 13.235 21.8097 13.0957 21.8219L13.8718 21.7543C13.9408 21.7482 14.0102 21.7558 14.0762 21.7767C14.1422 21.7975 14.2035 21.8311 14.2564 21.8756C14.3094 21.9202 14.3531 21.9747 14.385 22.0361C14.4169 22.0975 14.4364 22.1646 14.4423 22.2335Z" fill="#31241B"/>
</g>
<g id="Group_28" opacity="0.6">
<path id="Vector_58" opacity="0.6" d="M12.5223 22.9296L12.0117 22.974C11.9078 22.9833 11.8034 22.9614 11.7119 22.9113C11.6204 22.8611 11.5459 22.7849 11.4978 22.6923C11.4497 22.5997 11.4302 22.4949 11.4417 22.3912C11.4533 22.2875 11.4954 22.1895 11.5628 22.1098C11.6071 22.0566 11.6615 22.0127 11.7229 21.9808C11.7843 21.9488 11.8514 21.9294 11.9204 21.9237L12.4308 21.8791C12.3619 21.8851 12.2947 21.9047 12.2333 21.9366C12.1719 21.9686 12.1174 22.0123 12.0728 22.0653C12.0283 22.1183 11.9947 22.1796 11.9738 22.2456C11.953 22.3117 11.9453 22.3811 11.9513 22.4501C11.9573 22.5191 11.9769 22.5862 12.0088 22.6476C12.0408 22.7091 12.0845 22.7636 12.1375 22.8081C12.1906 22.8526 12.2518 22.8863 12.3178 22.9071C12.3839 22.928 12.4534 22.9356 12.5223 22.9296Z" fill="#FFF9F2"/>
</g>
<path id="Vector_59" d="M11.966 23.2284C11.7655 23.2281 11.5728 23.1505 11.4281 23.0117C11.2834 22.8729 11.1978 22.6836 11.1892 22.4833C11.1806 22.283 11.2495 22.087 11.3818 21.9363C11.514 21.7855 11.6993 21.6916 11.899 21.674L13.8497 21.5044C14.0528 21.4913 14.2529 21.5583 14.4073 21.6909C14.5616 21.8235 14.6579 22.0112 14.6756 22.214C14.6932 22.4167 14.6308 22.6183 14.5017 22.7755C14.3726 22.9328 14.187 23.0333 13.9848 23.0555L12.0341 23.2252C12.0113 23.2269 11.9884 23.2284 11.966 23.2284ZM13.9175 22.0046C13.9095 22.0046 13.9014 22.0046 13.8934 22.0058L11.9427 22.1754C11.8699 22.1817 11.8026 22.2167 11.7556 22.2726C11.7086 22.3286 11.6857 22.4009 11.692 22.4737C11.6984 22.5465 11.7333 22.6138 11.7893 22.6608C11.8452 22.7079 11.9176 22.7307 11.9904 22.7244L13.9411 22.5546C14.0119 22.5486 14.0776 22.5154 14.1245 22.4621C14.1715 22.4087 14.196 22.3393 14.1929 22.2683C14.1899 22.1973 14.1595 22.1302 14.1082 22.0811C14.0569 22.032 13.9885 22.0046 13.9175 22.0046Z" fill="#31241B"/>
</g>
</svg>
