<svg width="46" height="35" viewBox="0 0 46 35" fill="none" xmlns="http://www.w3.org/2000/svg">
<path d="M45.3577 19.4664C43.961 28.1643 33.8807 33.0508 20.5809 30.9147C15.2706 30.061 10.7953 28.3059 7.42909 25.9494C6.62774 25.3926 5.86763 24.7787 5.15467 24.1125C1.61848 20.8027 -0.0661195 16.657 0.636243 12.2848C1.09747 9.41895 2.51689 6.98357 4.68844 5.08221C9.10901 1.21137 16.6476 -0.447525 25.5639 0.984921C37.5539 2.91066 45.1473 9.31608 45.5026 16.9319C45.5426 17.7795 45.4941 18.6289 45.3577 19.4664V19.4664Z" fill="#FFC35C"/>
<g opacity="0.55">
<path opacity="0.55" d="M31.0938 2.27858C29.7176 1.90524 28.3225 1.60579 26.9144 1.38151C17.997 -0.0506003 10.4594 1.60828 6.04051 5.47913C3.86963 7.38048 2.44955 9.81587 1.98832 12.6818C0.793 20.1098 6.48738 26.8817 16.4567 30.0291C5.65343 27.0827 -0.609722 20.0431 0.635026 12.2847C1.09625 9.41877 2.51567 6.98338 4.68722 5.08203C9.1078 1.21118 16.6464 -0.447708 25.5627 0.984738C27.4356 1.28011 29.2842 1.71256 31.0938 2.27858Z" fill="#FFF9F2"/>
</g>
<g opacity="0.4">
<path opacity="0.4" d="M41.8035 10.6946C40.9289 9.75887 39.9629 8.91292 38.9199 8.1694C35.5541 5.75037 31.0146 3.94988 25.5637 3.07385C16.6464 1.64173 9.10877 3.30062 4.68986 7.17146C2.59714 9.80591 2.82224 12.246 4.91664 14.5284C5.16814 14.8023 5.35716 15.1276 5.47065 15.4817C5.58413 15.8358 5.61936 16.2103 5.57391 16.5794C5.51146 17.089 5.38288 17.6261 5.22691 18.1741C4.47779 20.3073 6.41955 22.0784 8.46886 20.2508C8.95532 19.8784 9.48956 19.573 10.0573 19.3427C11.2419 19.1788 12.2318 19.3925 13.0454 20.0852C13.8025 20.7268 14.4084 21.7795 14.8793 23.3228C14.9404 23.5269 15.0015 23.7389 15.0593 23.9607C16.3725 26.9331 19.7755 27.0333 22.0245 25.3013C23.2268 24.5138 24.5688 24.9847 26.0172 26.4368C27.8111 28.0329 29.3704 26.8146 31.214 24.6026C31.3169 24.6541 31.4197 24.7072 31.5226 24.7619C32.0336 25.035 32.5153 25.3596 32.9604 25.7305C33.5281 26.2021 33.3575 27.1152 32.6598 27.3613C28.5478 28.8145 23.3865 29.2082 17.6186 28.2824C14.402 27.7651 11.4917 26.9174 8.94846 25.8043C8.58077 25.6446 8.26649 25.383 8.04278 25.0504C7.81906 24.7178 7.69526 24.3281 7.68601 23.9273C7.65261 21.9418 6.39718 22.3125 6.39718 22.3125L5.31374 23.8812L5.15443 24.1113C5.6531 24.5792 6.1763 25.0202 6.72181 25.4326C6.78593 25.4823 6.85039 25.5304 6.91618 25.5805C7.08317 25.7041 7.25517 25.8263 7.42884 25.9479C10.7964 28.3045 15.2701 30.0595 20.5807 30.9132C33.1204 32.9271 42.7985 28.6982 45.0328 20.9165C45.1706 20.4397 45.279 19.955 45.3574 19.465C45.4075 19.1581 45.4443 18.8528 45.47 18.5489C45.2242 15.689 43.9494 13.0128 41.8035 10.6946ZM34.2663 15.7935C22.8538 19.5468 16.7215 12.6157 16.7215 12.6157C16.7215 9.7351 21.3428 9.3173 22.9984 10.9682C24.3744 12.4323 25.715 13.2392 26.9527 12.1735C27.8271 11.5934 28.6984 11.4808 29.5665 12.1318C29.9442 12.4146 30.3974 12.582 30.869 12.5659C32.8826 12.5031 34.6954 12.9964 34.2663 15.7935Z" fill="#31241B"/>
</g>
<g opacity="0.4">
<path opacity="0.4" d="M45.4702 18.5502C45.2244 15.689 43.9496 13.0128 41.8038 10.6946C41.2026 9.06646 40.2477 7.52648 38.9746 6.11908C42.9824 9.01737 45.3096 12.7964 45.5026 16.9321C45.5287 17.4715 45.5179 18.0122 45.4702 18.5502V18.5502Z" fill="#31241B"/>
<path opacity="0.4" d="M45.5499 18.5572H45.3899C45.1498 15.7665 43.8893 13.0665 41.7442 10.7497L41.7278 10.723C41.1323 9.10954 40.1858 7.57857 38.9147 6.1725L38.4023 5.60474L39.0212 6.0526C43.0624 8.9746 45.3916 12.8364 45.5823 16.927C45.6085 17.4705 45.5976 18.0152 45.5499 18.5572ZM41.8721 10.6519C43.8005 12.7386 45.0198 15.1332 45.4336 17.6281C45.4359 17.3969 45.4315 17.1661 45.4206 16.9354C45.2416 13.0996 43.1546 9.46456 39.5225 6.63139C40.5605 7.88984 41.3494 9.23912 41.8721 10.6519Z" fill="#31241B"/>
</g>
<path d="M38.9199 6.08011C35.5541 3.66075 31.0146 1.86059 25.5637 0.984555C16.6464 -0.447891 9.10877 1.211 4.68986 5.08184C2.59714 7.71629 2.82224 10.1563 4.91664 12.4388C5.16817 12.7127 5.3572 13.038 5.47069 13.3922C5.58417 13.7464 5.61939 14.121 5.57391 14.4901C5.51146 14.9994 5.38288 15.5365 5.22691 16.0845C4.47779 18.2177 6.41955 19.9891 8.46886 18.1612C8.95532 17.7888 9.48956 17.4834 10.0573 17.2531C11.2419 17.0891 12.2318 17.3029 13.0454 17.9959C13.8025 18.6371 14.4084 19.6898 14.8793 21.2332C14.9404 21.4372 15.0015 21.6493 15.0593 21.8711C16.3725 24.8435 19.7755 24.9437 22.0245 23.2117C23.2268 22.4242 24.5688 22.8951 26.0172 24.3472C27.8111 25.9433 29.3704 24.725 31.214 22.5133C31.3169 22.5648 31.4197 22.6178 31.5226 22.6723C32.6364 23.2638 33.5896 24.1111 34.3821 25.0947C35.9141 26.9947 37.3689 26.2302 38.5936 23.6586C39.2349 22.3116 40.5064 21.3922 41.9709 21.1046C43.8819 20.7285 45.2402 19.5857 45.5041 16.9298C45.3077 12.7764 42.9608 8.98308 38.9199 6.08011ZM22.9984 8.87854C24.3744 10.3427 25.715 11.1513 26.9527 10.0842C27.8271 9.50375 28.6984 9.3912 29.5665 10.0421C29.9442 10.325 30.3974 10.4923 30.869 10.4763C32.8816 10.4118 34.6944 10.9055 34.2652 13.7022C22.8528 17.4555 16.7205 10.5244 16.7205 10.5244C16.7215 7.64548 21.3428 7.22767 22.9984 8.87854Z" fill="#725440"/>
<g opacity="0.4">
<path opacity="0.4" d="M45.4704 18.5505C45.4447 18.8544 45.4079 19.1597 45.3578 19.4666C45.2794 19.9566 45.171 20.4413 45.0332 20.9181C45.267 20.3957 45.4286 19.7688 45.5028 19.0214C45.4948 18.8641 45.4851 18.7064 45.4704 18.5505Z" fill="#31241B"/>
<path opacity="0.4" d="M45.1067 20.9512L44.9561 20.8957C45.0928 20.4221 45.2005 19.9406 45.2787 19.4539C45.3268 19.157 45.3645 18.8508 45.3906 18.5438H45.5505C45.5649 18.7008 45.5749 18.8594 45.5839 19.0181C45.5101 19.7629 45.3498 20.4081 45.1067 20.9512Z" fill="#31241B"/>
</g>
<g opacity="0.55">
<path opacity="0.55" d="M5.68787 13.712C5.62341 13.6412 5.56096 13.5708 5.49984 13.5C5.58912 13.822 5.61364 14.1586 5.57198 14.4902C5.50952 14.9995 5.38094 15.5366 5.22497 16.0846C4.83755 17.1868 5.16853 18.1921 5.86321 18.6533C5.80042 18.2595 5.83749 17.8183 5.9968 17.3578C6.15277 16.8097 6.28135 16.2727 6.34381 15.763C6.38944 15.394 6.35442 15.0196 6.24116 14.6655C6.12791 14.3114 5.93913 13.9861 5.68787 13.712V13.712ZM34.2743 12.304C34.3481 12.6897 34.3515 13.1526 34.266 13.704C25.2819 16.6584 19.5708 12.992 17.5459 11.2977C17.5111 11.4624 17.4939 11.6303 17.4944 11.7987C17.4944 11.7987 20.7982 17.9336 31.7478 15.944C32.3877 15.8278 33.0503 15.6137 33.7426 15.3866C35.0385 14.9611 35.4232 13.2608 34.3772 12.3845C34.3445 12.3571 34.3097 12.33 34.2743 12.304V12.304ZM25.5634 0.984677C16.6461 -0.447769 9.10851 1.21112 4.6896 5.08197C2.77689 7.48964 2.80094 9.73699 4.41808 11.8474C3.6399 10.1107 3.92946 8.28551 5.46277 6.3551C9.88334 2.48425 17.422 0.825371 26.3383 2.25782C34.6905 3.59975 40.9095 7.11524 44.0329 11.6998C41.2455 6.49804 34.6744 2.44718 25.5634 0.984677V0.984677Z" fill="#FFF9F2"/>
</g>
<g opacity="0.55">
<path opacity="0.55" d="M4.91627 12.439C4.73625 12.243 4.5706 12.0469 4.41797 11.8475C4.67046 12.4071 5.0316 12.9579 5.5014 13.5001C5.39366 13.1048 5.19305 12.741 4.91627 12.439V12.439Z" fill="#FFF9F2"/>
<path opacity="0.55" d="M5.66944 13.8187L5.43866 13.5515C4.96574 13.0061 4.59702 12.4433 4.34286 11.8796L4.05664 11.245L4.4798 11.7974C4.63009 11.9938 4.79174 12.1855 4.97342 12.3832C5.25867 12.6948 5.46555 13.0698 5.57692 13.4773L5.66944 13.8187ZM4.84784 12.4854C4.96741 12.6787 5.10033 12.871 5.24662 13.0625C5.14294 12.8561 5.01122 12.6651 4.85519 12.4948V12.4948L4.84784 12.4854Z" fill="#31241B"/>
</g>
<path d="M45.0213 14.0913V17.0861C44.5313 12.5226 39.058 14.26 34.0299 17.0601C34.0027 17.0758 33.9705 17.0805 33.9398 17.0734C33.9092 17.0663 33.8824 17.0478 33.8649 17.0217C33.8473 16.9956 33.8403 16.9638 33.8453 16.9327C33.8503 16.9017 33.8669 16.8737 33.8917 16.8543C38.2107 13.3746 41.9126 12.4872 45.0213 14.0913Z" fill="#FFF9F2"/>
<path d="M28.439 15.2343C26.6128 17.5053 24.5007 21.468 28.439 19.4875L33.3014 17.2017C33.3014 17.2017 29.4032 20.091 27.1128 20.9757C25.3447 21.4693 23.3755 19.8505 26.9124 15.2356" fill="#FFF9F2"/>
<path d="M29.7189 10.147C29.7189 10.147 29.5446 8.99913 30.6698 8.45641C36.1952 5.40248 39.0233 8.43637 35.1201 11.2679L35.1301 12.0561C39.4495 9.3438 38.3029 6.0985 34.1054 6.70835C31.5532 7.1786 29.4745 8.19657 27.7969 9.67878" fill="#FFF9F2"/>
<path d="M21.1892 13.7036C16.5578 16.3264 12.144 14.9881 13.2895 12.6015C13.2895 12.6015 14.1091 10.9372 16.9676 10.8718L16.1641 10.0833C9.08368 12.2541 12.1299 17.4422 19.2638 15.4413L22.7579 14.2523" fill="#FFF9F2"/>
<path d="M21.4429 7.91464C23.4993 7.23399 26.5699 5.32896 25.1411 4.08856C24.9152 3.89883 24.6432 3.7721 24.3526 3.72118C23.7073 3.59827 22.2852 3.48739 20.4961 4.32468V3.4944C22.6042 3.04921 25.09 2.72624 25.8598 4.16403C26.141 4.68972 26.0936 5.33096 25.786 5.84262C25.4353 6.42809 24.9738 7.03661 24.3987 7.40933C23.8563 7.76035 23.538 8.45837 23.5697 9.09393" fill="#FFF9F2"/>
<path d="M17.1473 6.25312C17.1473 6.25312 16.7723 5.88942 15.5399 6.63387C12.8093 8.71624 8.74104 10.2509 8.07809 8.25267C8.0173 8.07032 8.22838 7.91335 8.38368 8.02657C10.1738 9.33344 13.8426 6.99624 16.6851 4.72015" fill="#FFF9F2"/>
<path d="M26.6579 31.9019C24.6894 31.9019 22.6318 31.7322 20.505 31.3906C13.9255 30.3342 8.48397 27.9205 4.76709 24.4103C1.09029 20.9369 -0.54555 16.6049 0.16082 12.2073C0.864853 7.82416 3.80422 4.24623 8.43755 2.13279C13.0251 0.040399 19.1346 -0.536391 25.6413 0.508637C32.2207 1.56535 37.6362 3.95332 41.303 7.41437C44.9307 10.8387 46.5395 15.146 45.8331 19.5432C45.1267 23.9404 42.2161 27.5441 37.6372 29.6899C34.5045 31.1581 30.7779 31.9019 26.6579 31.9019ZM19.4439 0.963523C15.4528 0.963523 11.8071 1.6562 8.83799 3.0105C4.50792 4.98533 1.7646 8.3061 1.11334 12.3603C0.458732 16.4335 1.99171 20.4634 5.42904 23.7093C8.95355 27.0374 14.362 29.4274 20.6586 30.4384C26.9551 31.4493 32.8389 30.8726 37.2284 28.8166C41.5097 26.8107 44.2273 23.4628 44.8816 19.3903C45.5452 15.2593 44.08 11.3604 40.6417 8.11573C37.1162 4.78794 31.8764 2.48681 25.489 1.46082C23.4902 1.13516 21.4687 0.968875 19.4436 0.963523H19.4439Z" fill="#31241B"/>
<path d="M28.9602 15.7185C27.6243 15.7185 26.1568 15.5535 24.6034 15.2235C18.7922 13.9908 15.1491 11.0842 15.7453 8.15548C15.9974 6.92176 16.9075 5.90746 18.2421 5.37209C18.3011 5.34722 18.3645 5.33434 18.4285 5.33423C18.4926 5.33411 18.556 5.34675 18.6151 5.37141C18.6742 5.39607 18.7278 5.43225 18.7728 5.47784C18.8177 5.52344 18.8532 5.57752 18.877 5.63696C18.9008 5.69639 18.9126 5.75998 18.9116 5.82401C18.9106 5.88804 18.8969 5.95123 18.8712 6.0099C18.8455 6.06856 18.8084 6.12152 18.762 6.16569C18.7157 6.20986 18.661 6.24436 18.6011 6.26716C17.5728 6.67963 16.8761 7.43809 16.6904 8.34819C16.2142 10.6861 19.6265 13.1819 24.8035 14.2804C27.4313 14.8378 29.8743 14.9009 31.6835 14.4581C33.3534 14.0496 34.3964 13.2327 34.6225 12.1572C34.8664 11.0124 34.1687 9.78599 32.6581 8.70489C32.5561 8.62967 32.4878 8.51733 32.468 8.39216C32.4482 8.267 32.4784 8.13907 32.5522 8.03604C32.626 7.933 32.7373 7.86313 32.8622 7.84155C32.9871 7.81997 33.1154 7.8484 33.2195 7.9207C35.0611 9.23926 35.8943 10.815 35.566 12.3576C35.2571 13.8148 33.9593 14.8936 31.9113 15.3949C31.0302 15.6109 30.038 15.7185 28.9602 15.7185Z" fill="#31241B"/>
<path d="M34.2674 14.1858C34.2427 14.1858 34.218 14.184 34.1936 14.1804C34.131 14.1708 34.0708 14.149 34.0167 14.1161C33.9625 14.0833 33.9154 14.0401 33.8779 13.989C33.8404 13.9379 33.8134 13.8799 33.7983 13.8184C33.7833 13.7569 33.7805 13.693 33.7901 13.6304C33.9304 12.7173 33.8138 12.0426 33.4444 11.6265C33.0103 11.1372 32.1753 10.9194 30.8855 10.9605C30.3214 10.9786 29.766 10.7935 29.2777 10.4282C28.6431 9.95291 28.0159 9.96593 27.2434 10.4709C25.3427 12.076 23.3155 9.92018 22.6472 9.20947C21.8216 8.3872 19.9102 8.1444 18.5682 8.70148C17.9464 8.95998 17.2046 9.48634 17.2046 10.5274C17.2063 10.5917 17.1951 10.6558 17.1716 10.7158C17.1482 10.7757 17.1129 10.8304 17.068 10.8765C17.023 10.9227 16.9693 10.9594 16.91 10.9844C16.8507 11.0094 16.7869 11.0223 16.7225 11.0223C16.6581 11.0223 16.5944 11.0094 16.535 10.9844C16.4757 10.9594 16.422 10.9227 16.377 10.8765C16.3321 10.8304 16.2969 10.7757 16.2734 10.7158C16.2499 10.6558 16.2387 10.5917 16.2404 10.5274C16.2404 9.31801 16.9541 8.32776 18.1985 7.81109C19.9152 7.09804 22.2213 7.42401 23.3388 8.5375C25.1828 10.4986 26.0408 10.2348 26.6382 9.71946C26.6535 9.7063 26.6695 9.69414 26.6863 9.68305C27.8145 8.9336 28.8813 8.92525 29.8568 9.65701C30.1674 9.89079 30.5141 10.0084 30.8544 9.99666C31.8707 9.96326 33.3195 10.0317 34.1662 10.9866C34.7339 11.6282 34.929 12.5673 34.7433 13.7773C34.7258 13.891 34.6681 13.9947 34.5809 14.0696C34.4936 14.1445 34.3824 14.1857 34.2674 14.1858V14.1858Z" fill="#31241B"/>
<path d="M6.7654 19.4007C6.34846 19.4038 5.93997 19.2831 5.59179 19.0537C4.66533 18.4331 4.33435 17.1834 4.76586 15.9396C4.93686 15.3364 5.04106 14.8568 5.09416 14.4304C5.13128 14.1306 5.10271 13.8264 5.01043 13.5389C4.91815 13.2513 4.76438 12.9873 4.55979 12.7651C2.21357 10.2098 2.13108 7.52161 4.31465 4.77729C4.35412 4.72773 4.40297 4.68643 4.4584 4.65575C4.51384 4.62506 4.57478 4.6056 4.63773 4.59847C4.70069 4.59133 4.76443 4.59667 4.82533 4.61417C4.88622 4.63167 4.94307 4.661 4.99263 4.70047C5.04219 4.73994 5.08349 4.7888 5.11418 4.84423C5.14486 4.89967 5.16432 4.9606 5.17145 5.02356C5.17859 5.08651 5.17325 5.15026 5.15575 5.21115C5.13825 5.27205 5.10892 5.32889 5.06945 5.37845C3.19915 7.72801 3.26595 9.93095 5.26984 12.1132C5.56908 12.4386 5.79388 12.8252 5.92861 13.2462C6.06334 13.6673 6.10477 14.1126 6.05002 14.5512C5.99024 15.0308 5.87534 15.5609 5.68831 16.2192C5.68564 16.2285 5.68264 16.2379 5.6793 16.2472C5.34532 17.2014 5.6626 17.9428 6.12717 18.2544C6.66822 18.6171 7.42235 18.4485 8.14508 17.8036C8.1551 17.7945 8.16545 17.7862 8.17614 17.7782C10.2037 16.2522 12.4611 15.9653 14.8858 16.9245C14.9455 16.9473 15 16.9816 15.0463 17.0256C15.0926 17.0696 15.1297 17.1224 15.1554 17.1808C15.1811 17.2392 15.195 17.3022 15.1962 17.366C15.1974 17.4299 15.1859 17.4933 15.1624 17.5527C15.1389 17.612 15.1039 17.6662 15.0593 17.7119C15.0147 17.7576 14.9615 17.794 14.9027 17.819C14.844 17.844 14.7809 17.857 14.717 17.8574C14.6532 17.8578 14.5899 17.8455 14.5308 17.8213C12.4167 16.9863 10.5324 17.2201 8.77163 18.537C8.06159 19.1639 7.36523 19.4007 6.7654 19.4007Z" fill="#31241B"/>
<path d="M27.6642 25.5576C26.9906 25.5576 26.3283 25.2728 25.6937 24.7083C25.6864 24.702 25.6793 24.6953 25.6727 24.6886C23.7165 22.7265 22.6632 23.3691 22.3015 23.6052C20.9047 24.6739 19.153 25.0767 17.6117 24.6843C16.2758 24.3436 15.2104 23.4152 14.6155 22.0665C14.6053 22.0429 14.5968 22.0186 14.5902 21.9937C13.5067 17.8407 11.7226 17.5087 10.1202 17.7315C9.99419 17.7477 9.86689 17.7136 9.76591 17.6366C9.66493 17.5595 9.59842 17.4457 9.58082 17.32C9.56323 17.1942 9.59597 17.0665 9.67194 16.9647C9.74791 16.8629 9.86097 16.7952 9.98657 16.7763C12.768 16.3895 14.5244 17.9579 15.5126 21.7115C15.9939 22.7783 16.8011 23.4816 17.8505 23.7488C19.0939 24.0654 20.5801 23.7127 21.7287 22.8283C21.7387 22.8207 21.7487 22.8137 21.7591 22.8066C23.1221 21.9156 24.6647 22.3157 26.3456 23.9959C26.8366 24.4301 27.3028 24.6238 27.7714 24.5881C28.7904 24.5119 29.8952 23.3407 30.8417 22.2051C30.8819 22.1553 30.9316 22.114 30.9879 22.0836C31.0442 22.0532 31.1059 22.0342 31.1696 22.0279C31.2333 22.0216 31.2976 22.0281 31.3588 22.0469C31.42 22.0657 31.4768 22.0965 31.5259 22.1374C31.5751 22.1784 31.6156 22.2288 31.6451 22.2855C31.6746 22.3423 31.6925 22.4044 31.6978 22.4682C31.703 22.532 31.6955 22.5962 31.6757 22.657C31.656 22.7179 31.6242 22.7742 31.5825 22.8227C30.4526 24.1783 29.2175 25.4471 27.8419 25.55C27.7834 25.5556 27.7236 25.5576 27.6642 25.5576Z" fill="#31241B"/>
<path d="M36.0805 26.637C35.3658 26.637 34.6684 26.2208 34.0045 25.3979C33.2006 24.401 32.2885 23.6278 31.2932 23.0991C30.514 22.6853 29.7819 22.3927 29.0555 22.2047C28.9941 22.1889 28.9364 22.1611 28.8858 22.1229C28.8351 22.0848 28.7925 22.037 28.7603 21.9824C28.7281 21.9278 28.7069 21.8673 28.6981 21.8045C28.6892 21.7417 28.6928 21.6778 28.7087 21.6164C28.7245 21.555 28.7523 21.4973 28.7905 21.4467C28.8286 21.396 28.8764 21.3533 28.931 21.3211C28.9856 21.2889 29.0461 21.2678 29.1089 21.259C29.1717 21.2501 29.2356 21.2537 29.297 21.2696C30.0986 21.4766 30.9001 21.7963 31.7464 22.2461C32.8572 22.8359 33.8695 23.6923 34.7556 24.7911C35.2652 25.4226 35.7465 25.7169 36.1867 25.6648C36.8123 25.5909 37.5116 24.8048 38.1572 23.4505C38.8439 22.0073 40.2342 20.9533 41.8764 20.63C43.8469 20.2426 44.8488 19.0065 45.0369 16.7404C45.0487 16.614 45.11 16.4974 45.2073 16.4158C45.3047 16.3343 45.4302 16.2944 45.5568 16.3049C45.6833 16.3153 45.8006 16.3753 45.8833 16.4717C45.9659 16.5681 46.0071 16.6933 45.9981 16.8199C45.773 19.5436 44.4858 21.0996 42.0624 21.5765C40.7185 21.8407 39.5843 22.6963 39.0282 23.8649C38.213 25.5776 37.2952 26.5054 36.3006 26.6226C36.2276 26.6318 36.1541 26.6366 36.0805 26.637V26.637Z" fill="#31241B"/>
<path d="M6.1135 20.9138C6.41408 21.3096 6.50359 21.8283 6.39805 22.3149C6.22037 23.1312 5.93048 24.8825 6.24408 26.5334C6.51127 28.9979 3.02885 29.7954 2.8682 24.0419C2.85751 21.007 5.09419 19.5793 6.1135 20.9138Z" fill="#725440"/>
<g opacity="0.55">
<path opacity="0.55" d="M3.71482 24.4979C3.7726 26.5712 4.26122 27.793 4.8527 28.3941C3.9573 28.2849 2.95268 27.0695 2.86918 24.0413C2.85783 21.0402 5.04407 19.6114 6.07908 20.8715C5.00867 20.799 3.70681 22.1801 3.71482 24.4979Z" fill="#FFF9F2"/>
</g>
<path d="M35.7736 29.7514C35.616 31.8511 35.95 33.2014 36.9246 33.5751C37.4726 33.7852 38.0935 33.5481 38.3961 33.0448C40.4183 29.6645 38.9117 27.8447 37.3567 28.0351C36.491 28.1386 35.8391 28.8817 35.7736 29.7514Z" fill="#725440"/>
<g opacity="0.55">
<path opacity="0.55" d="M38.923 28.6724C38.689 28.6013 38.4426 28.5805 38.2 28.6113C37.335 28.7159 36.6824 29.46 36.6182 30.3297C36.5023 31.8503 36.647 32.9771 37.1052 33.6264C37.0437 33.6149 36.9834 33.5977 36.9252 33.575C35.9496 33.2022 35.615 31.8519 35.7743 29.7509C35.8384 28.8825 36.4913 28.1387 37.356 28.0342C37.9508 27.9621 38.5373 28.1822 38.923 28.6724Z" fill="#FFF9F2"/>
</g>
<path d="M4.98781 28.8834C4.72323 28.8822 4.46267 28.8186 4.22733 28.6977C3.57907 28.3694 2.47794 27.3283 2.38676 24.0553C2.37875 21.7976 3.5066 20.3899 4.55764 20.0322C5.29808 19.7804 6.02315 20.0008 6.49741 20.6213C6.87447 21.1156 7.0104 21.7702 6.86946 22.4171C6.68677 23.2581 6.42426 24.8996 6.71817 26.4429C6.7205 26.4556 6.72251 26.4683 6.72384 26.481C6.82003 27.3664 6.50174 28.178 5.8929 28.5988C5.62739 28.784 5.3115 28.8833 4.98781 28.8834V28.8834ZM5.1548 20.8942C5.05713 20.8954 4.96033 20.9127 4.86824 20.9453C4.10977 21.2031 3.34495 22.348 3.35097 24.04C3.43346 26.9873 4.37629 27.6917 4.66351 27.8373C4.96643 27.9906 5.20089 27.9041 5.3445 27.8056C5.59098 27.6353 5.82978 27.2305 5.76699 26.6033C5.44703 24.8979 5.72958 23.1215 5.9273 22.2124C6.00779 21.842 5.93598 21.4756 5.73092 21.2068C5.57194 20.9987 5.3789 20.8942 5.1548 20.8942Z" fill="#31241B"/>
<path d="M37.3437 34.1346C37.1413 34.1345 36.9407 34.0973 36.7519 34.0247C35.5853 33.5778 35.108 32.1678 35.2924 29.7143C35.3769 28.5935 36.2202 27.6847 37.2983 27.5542C37.7101 27.5019 38.1284 27.5671 38.5048 27.7424C38.8812 27.9177 39.2003 28.1958 39.4254 28.5447C40.1601 29.6773 39.9367 31.4076 38.8095 33.292C38.6588 33.5471 38.4446 33.7589 38.1877 33.9066C37.9308 34.0542 37.64 34.1328 37.3437 34.1346ZM37.5775 28.5017C37.5234 28.5016 37.4694 28.5048 37.4158 28.5113C36.7933 28.5872 36.3053 29.1232 36.2556 29.7868C36.1554 31.1227 36.2198 32.7873 37.0982 33.1243C37.4178 33.2469 37.7996 33.1059 37.9829 32.7967C39.3055 30.5864 38.8676 29.4545 38.6175 29.0701C38.5062 28.895 38.3523 28.751 38.1702 28.6517C37.988 28.5523 37.7836 28.501 37.5761 28.5023L37.5775 28.5017Z" fill="#31241B"/>
<g opacity="0.4">
<path opacity="0.4" d="M45.5027 16.9316C45.2388 19.5858 43.8805 20.7287 41.9695 21.1064C40.505 21.3939 39.2335 22.3134 38.5923 23.6603C37.3676 26.234 35.9127 26.9975 34.3808 25.0965C33.5882 24.1129 32.6351 23.2656 31.5212 22.6741C31.4184 22.6193 31.3155 22.5663 31.2126 22.5151C29.369 24.7267 27.8097 25.9451 26.0159 24.349C24.5674 22.8959 23.2268 22.4249 22.0231 23.2135C19.7741 24.9448 16.3712 24.8466 15.0579 21.8729C15.0002 21.6511 14.939 21.4387 14.8779 21.235C14.988 21.2992 15.0891 21.3779 15.1785 21.4688C17.4289 23.6503 20.242 20.8148 20.242 20.8148C23.8587 18.484 24.3537 21.9801 26.2376 22.3288C26.6691 22.4086 26.9119 22.3622 27.0305 22.2419C27.6865 21.579 28.6156 21.2657 29.494 21.5786C30.6535 21.9918 31.5613 22.3545 31.5613 22.3545C34.1059 24.2785 35.9157 24.843 36.4374 23.0248C36.9718 20.2651 38.1621 19.6589 38.1621 19.6589C44.1303 17.3878 44.0823 12.0896 38.813 6.16306L38.9209 6.08124C42.9611 8.9832 45.308 12.7766 45.5027 16.9316Z" fill="#31241B"/>
</g>
<g opacity="0.4">
<path opacity="0.4" d="M20.4981 4.13672C20.4981 4.13672 20.8377 4.57891 20.9723 5.13465C21.1086 5.69741 21.5795 6.11889 22.148 6.22944C23.0163 6.39844 24.1635 6.75646 24.9477 7.51226C26.3651 8.87858 27.653 7.35262 28.8553 7.72668C30.0576 8.10074 31.8782 9.21022 33.4208 8.68287C34.9875 10.2212 35.5834 11.665 34.3306 12.9288C34.3306 12.9288 34.0794 10.6213 31.2129 10.5268C31.2129 10.5268 29.6054 10.0305 28.7748 9.65543C27.9442 9.28036 26.8882 10.5906 26.2366 10.4974C25.585 10.4042 24.9698 10.8073 24.1124 10.0843C23.2551 9.36118 22.2371 7.5126 19.7456 7.91337C17.2541 8.31415 16.7211 10.8083 16.7211 10.8083C16.7211 10.8083 15.5081 7.19198 17.8813 6.07915C20.2546 4.96633 20.1751 5.12798 20.4981 4.13672Z" fill="#31241B"/>
</g>
</svg>
