<svg width="40" height="40" viewBox="0 0 40 40" fill="none" xmlns="http://www.w3.org/2000/svg">
<g id="Group 36243">
<path id="Vector" d="M28.5012 6.01765C19.615 -0.656312 8.60626 -0.775098 3.91056 5.75178C3.463 6.37317 3.08285 7.04241 2.7768 7.74771C-0.0779037 14.3031 3.47037 23.6214 11.4995 29.6506C14.3659 31.8016 17.453 33.2731 20.4772 34.0583C21.9725 34.4459 23.4533 34.6674 24.8837 34.7207C29.5314 34.8937 33.6574 33.297 36.0887 29.9165C36.4166 29.4609 36.7084 28.9793 36.9612 28.4763C40.2777 21.9014 36.759 12.2192 28.5012 6.01765ZM18.0547 20.5391C16.4726 19.3503 15.8168 17.4834 16.5035 16.248C16.5409 16.1786 16.583 16.1119 16.6295 16.0485C17.5108 14.8222 19.5792 14.8443 21.2493 16.0977C22.9194 17.351 23.5574 19.3625 22.6748 20.5885C22.4417 20.9125 22.1263 21.1485 21.757 21.2983C20.7283 21.7175 19.2829 21.4613 18.0547 20.5391Z" fill="#FFC35C"/>
<g id="Group" opacity="0.3">
<path id="Vector_2" opacity="0.3" d="M26.1589 32.304C24.7033 32.2508 23.1963 32.0299 21.6747 31.6418C18.5971 30.8567 15.4556 29.3862 12.5385 27.2348C4.36778 21.2066 0.756898 11.8901 3.66197 5.33567C3.6722 5.31242 3.683 5.28975 3.69343 5.26669C3.66699 5.30021 3.6417 5.33509 3.61623 5.36919C3.30169 5.85148 3.02673 6.35863 2.79404 6.88564C-0.111033 13.4397 3.49985 22.7566 11.6706 28.7848C14.5876 30.9354 17.7291 32.4067 20.8067 33.1918C22.3284 33.5793 23.8353 33.8007 25.291 33.854C29.9178 34.0233 34.0355 32.4978 36.5287 29.2674C36.4859 29.3331 36.4419 29.3982 36.3979 29.4631C36.6568 29.0873 36.8914 28.695 37.1 28.2888C37.1822 28.1284 37.2592 27.9657 37.3331 27.8018C34.8326 30.9751 30.7458 32.4718 26.1589 32.304Z" fill="#80622E"/>
</g>
<g id="Group_2" opacity="0.3">
<path id="Vector_3" opacity="0.3" d="M23.0737 20.7098C24.3388 18.9666 23.6372 16.3 21.5066 14.7537C19.376 13.2075 16.6232 13.3671 15.3581 15.1103C14.093 16.8535 14.7946 19.5202 16.9252 21.0665C19.0558 22.6127 21.8085 22.4531 23.0737 20.7098Z" fill="#31241B"/>
</g>
<path id="Vector_4" d="M25.125 35.6C25.0571 35.6 24.9899 35.6 24.9219 35.5989C20.1897 35.5478 15.1783 33.7138 10.8108 30.4349C6.44328 27.1559 3.23324 22.818 1.77324 18.2204C0.295618 13.569 0.779632 9.20452 3.1353 5.9308C5.49097 2.65707 9.4222 0.879634 14.212 0.934587C18.9441 0.985669 23.9556 2.8196 28.3231 6.09856C32.6906 9.37751 35.9006 13.7153 37.3606 18.3131C38.8382 22.9645 38.3542 27.3299 35.9986 30.6025C33.6762 33.8297 29.82 35.5998 25.125 35.6ZM14.0095 1.84846C9.60615 1.84846 6.00624 3.48639 3.85725 6.47297C-0.678478 12.776 2.67894 23.1945 11.3412 29.6979C20.0035 36.2012 30.7411 36.3637 35.2766 30.0609C39.8121 23.758 36.4549 13.3393 27.7924 6.83596C23.575 3.66962 18.7485 1.89877 14.2025 1.84981C14.1381 1.84885 14.0735 1.84846 14.0095 1.84846ZM20.2581 22.3716C19.3183 22.3716 18.2788 22.027 17.3584 21.3358C16.4769 20.6741 15.8273 19.7935 15.5297 18.8562C15.215 17.8653 15.3245 16.9265 15.8385 16.2125C16.8643 14.7868 19.2156 14.7654 21.0795 16.1645C22.9434 17.5637 23.6254 19.8622 22.5994 21.288C22.0801 22.0096 21.2214 22.3716 20.2581 22.3716ZM18.1716 16.0312C17.4948 16.0312 16.9086 16.2703 16.5614 16.7543C16.2229 17.2247 16.1596 17.8707 16.3827 18.5731C16.6231 19.3297 17.1583 20.0487 17.8899 20.598C19.3558 21.6986 21.145 21.7646 21.8786 20.7455C22.6121 19.7263 22.0159 18.0019 20.55 16.9013C19.7792 16.3239 18.9199 16.0312 18.1716 16.0312Z" fill="#31241B"/>
<path id="Vector_5" d="M28.9288 6.27118C24.5638 3.06709 19.7091 1.34305 15.2791 1.10622L15.2814 1.10429C3.8458 -0.403763 1.21013 8.57408 3.34259 8.14944C3.69816 8.07861 4.0031 8.06336 4.2661 8.08555C4.23944 8.21101 4.21257 8.33648 4.18881 8.46657C3.1192 14.4328 9.55405 15.5648 7.11511 19.3924C4.67617 23.2199 7.78277 25.125 10.2665 23.4766L10.2839 23.4652C11.3903 22.7435 12.8993 23.1813 13.4649 24.3741C13.745 24.9646 13.9674 25.6751 13.9415 26.4172C13.8642 28.6837 13.4433 30.5594 16.5283 30.4926C17.4381 30.4733 17.8406 29.3841 17.6048 28.4999C17.0717 26.4998 19.6836 26.0239 20.6979 27.3597C20.9395 27.678 21.1147 28.0131 21.182 28.3314C21.2875 29.2892 21.1433 30.3905 20.7267 31.4295C19.711 33.9681 18.3183 39.4716 22.4222 39.9179C26.5262 40.3641 22.7332 31.0088 25.8427 31.1095C28.9522 31.2103 29.2797 32.7548 32.1732 30.6372C35.0666 28.5196 36.5898 27.1025 37.8215 27.7469C39.0533 28.3914 39.067 23.516 39.067 23.516C39.0173 17.6448 35.3399 10.9779 28.9288 6.27118ZM29.0277 19.8066C27.1815 22.3158 22.852 22.2697 19.3576 19.7043C16.4224 17.5494 15.0109 14.3027 15.728 11.8316C15.7785 11.6979 16.7372 9.24076 18.5597 11.3134C20.4324 13.4435 20.7868 13.8134 23.0711 13.1349C25.3555 12.4564 23.9659 16.6388 26.2726 16.998C28.5794 17.3572 29.7862 17.688 29.0277 19.8066Z" fill="#E05656"/>
<g id="Group_3" opacity="0.3">
<path id="Vector_6" opacity="0.3" d="M10.7701 12.4161C10.798 12.5975 10.8844 12.7624 11.0141 12.8814C11.1438 13.0005 11.3083 13.0662 11.4786 13.0667C11.5185 13.0667 11.5584 13.0631 11.5979 13.056C11.6912 13.0393 11.7806 13.0029 11.8609 12.9489C11.9412 12.8949 12.0108 12.8244 12.0659 12.7413C12.1209 12.6581 12.1602 12.5641 12.1815 12.4646C12.2029 12.3651 12.2059 12.262 12.1903 12.1612L11.8974 10.2505C11.882 10.1497 11.8483 10.0532 11.7983 9.96643C11.7483 9.87971 11.6829 9.80448 11.606 9.74506C11.5291 9.68563 11.442 9.64317 11.3499 9.6201C11.2577 9.59704 11.1623 9.59382 11.0689 9.61064C10.8805 9.64449 10.7123 9.75776 10.6012 9.92554C10.4901 10.0933 10.4453 10.3019 10.4765 10.5054L10.7701 12.4161Z" fill="#31241B"/>
<path id="Vector_7" opacity="0.3" d="M19.3156 8.73336H19.3309C19.4662 8.73039 19.5976 8.68652 19.7085 8.60728C19.8194 8.52805 19.9048 8.41701 19.9539 8.28823C20.0029 8.15945 20.0135 8.01871 19.9841 7.88382C19.9548 7.74893 19.8869 7.62595 19.7891 7.53045L18.5576 6.32718C18.4264 6.19913 18.2508 6.12948 18.0694 6.13353C17.888 6.13758 17.7155 6.21501 17.59 6.34879C17.4647 6.48274 17.3966 6.66194 17.4006 6.84708C17.4045 7.03222 17.4803 7.2082 17.6112 7.33642L18.8429 8.53969C18.9699 8.66442 19.1394 8.73386 19.3156 8.73336Z" fill="#31241B"/>
<path id="Vector_8" opacity="0.3" d="M28.6197 15.981C28.6562 15.8792 28.6715 15.7715 28.6649 15.6639C28.6583 15.5563 28.6298 15.4511 28.5811 15.3544L27.662 13.5169C27.5621 13.3246 27.3885 13.1784 27.1787 13.1096C26.9689 13.0408 26.7397 13.0551 26.5407 13.1494C26.3416 13.2436 26.1886 13.4102 26.1147 13.6133C26.0409 13.8163 26.052 14.0394 26.1459 14.2345L27.0649 16.072C27.1378 16.2179 27.2536 16.3394 27.3975 16.4213C27.5415 16.5031 27.7071 16.5416 27.8736 16.5319C28.04 16.5221 28.1997 16.4646 28.3325 16.3665C28.4653 16.2685 28.5652 16.1343 28.6197 15.981Z" fill="#31241B"/>
<path id="Vector_9" opacity="0.3" d="M14.9582 19.1364C14.7525 19.1182 14.5479 19.1818 14.3893 19.3131C14.2307 19.4444 14.131 19.6329 14.1121 19.8371L13.9368 21.7565C13.9181 21.9608 13.982 22.1641 14.1142 22.3217C14.2465 22.4793 14.4364 22.5783 14.6422 22.5969C14.6663 22.599 14.6902 22.6 14.7141 22.6C14.9083 22.5996 15.0953 22.5272 15.2385 22.397C15.3818 22.2668 15.4709 22.0882 15.4884 21.8962L15.6637 19.9768C15.6824 19.7724 15.6185 19.5691 15.4862 19.4115C15.3539 19.2539 15.164 19.1549 14.9582 19.1364Z" fill="#31241B"/>
<path id="Vector_10" opacity="0.3" d="M10.9007 16.6593L9.12689 17.6932C8.93806 17.8033 8.8041 17.9784 8.75448 18.18C8.70486 18.3817 8.74365 18.5933 8.86231 18.7684C8.98097 18.9436 9.16979 19.0678 9.38723 19.1138C9.60466 19.1598 9.8329 19.1239 10.0217 19.0138L11.7957 17.9799C11.891 17.9262 11.9739 17.8555 12.0394 17.7718C12.105 17.6881 12.1519 17.5932 12.1776 17.4925C12.2032 17.3919 12.207 17.2875 12.1887 17.1855C12.1704 17.0835 12.1304 16.9858 12.0711 16.8983C12.0117 16.8107 11.9342 16.735 11.843 16.6754C11.7518 16.6159 11.6487 16.5738 11.5398 16.5516C11.4309 16.5294 11.3183 16.5274 11.2086 16.5459C11.0988 16.5644 10.9942 16.603 10.9007 16.6593Z" fill="#31241B"/>
<path id="Vector_11" opacity="0.3" d="M25.9369 26.4331C25.8173 26.2573 25.6273 26.1326 25.4085 26.0863C25.1898 26.0401 24.9602 26.0761 24.7701 26.1865L22.9848 27.2257C22.7984 27.3379 22.6672 27.5134 22.6194 27.7144C22.5716 27.9154 22.6111 28.1257 22.7294 28.3C22.8477 28.4742 23.0352 28.5984 23.2516 28.6457C23.4679 28.693 23.6956 28.6596 23.8855 28.5527L25.6708 27.5136C25.8606 27.4028 25.9952 27.2268 26.0451 27.0243C26.0949 26.8217 26.056 26.6091 25.9369 26.4331Z" fill="#31241B"/>
<path id="Vector_12" opacity="0.3" d="M29.5229 21.3753C29.4361 21.1772 29.2654 21.0182 29.0484 20.9333C28.8313 20.8484 28.5856 20.8445 28.3653 20.9225C28.1451 21.0006 27.9683 21.1541 27.8739 21.3493C27.7795 21.5446 27.7751 21.7655 27.8619 21.9637L28.6767 23.8247C28.7635 24.0228 28.9342 24.1818 29.1512 24.2668C29.2587 24.3088 29.3744 24.3314 29.4916 24.3332C29.6088 24.3351 29.7252 24.3162 29.8343 24.2775C29.9433 24.2389 30.0429 24.1813 30.1272 24.1081C30.2115 24.0349 30.279 23.9474 30.3257 23.8507C30.3725 23.7541 30.3976 23.6501 30.3997 23.5447C30.4017 23.4392 30.3807 23.3345 30.3377 23.2364L29.5229 21.3753Z" fill="#31241B"/>
<path id="Vector_13" opacity="0.3" d="M23.1693 9.12971L25.0582 9.57472C25.1578 9.5982 25.262 9.60544 25.365 9.59603C25.468 9.58662 25.5677 9.56074 25.6584 9.51987C25.7491 9.479 25.8291 9.42394 25.8938 9.35783C25.9584 9.29172 26.0065 9.21585 26.0353 9.13457C26.064 9.05328 26.0729 8.96817 26.0614 8.88408C26.0499 8.8 26.0182 8.71859 25.9681 8.64451C25.9181 8.57043 25.8506 8.50512 25.7697 8.45232C25.6887 8.39951 25.5958 8.36025 25.4962 8.33677L23.6073 7.89176C23.4063 7.84463 23.1905 7.8645 23.0074 7.94702C22.8243 8.02954 22.6887 8.16797 22.6304 8.33199C22.5726 8.49612 22.5969 8.67227 22.6979 8.82181C22.7989 8.97135 22.9684 9.08207 23.1693 9.12971Z" fill="#31241B"/>
<path id="Vector_14" opacity="0.3" d="M32.4406 17.8726L30.5512 17.4276C30.4511 17.4029 30.3461 17.3947 30.2422 17.4034C30.1382 17.4121 30.0374 17.4376 29.9456 17.4783C29.8538 17.519 29.7728 17.5742 29.7074 17.6407C29.6419 17.7072 29.5933 17.7836 29.5642 17.8655C29.5352 17.9474 29.5264 18.0333 29.5384 18.118C29.5503 18.2027 29.5827 18.2847 29.6337 18.3591C29.6848 18.4335 29.7534 18.4989 29.8356 18.5516C29.9178 18.6042 30.012 18.6429 30.1128 18.6656L32.0024 19.1106C32.2025 19.1552 32.416 19.1337 32.5968 19.0509C32.7777 18.968 32.9113 18.8304 32.9689 18.6678C33.0264 18.5052 33.0033 18.3306 32.9044 18.1818C32.8056 18.033 32.639 17.9219 32.4406 17.8726Z" fill="#31241B"/>
<path id="Vector_15" opacity="0.3" d="M35.4198 24.5593C35.2975 24.4223 35.1278 24.3413 34.948 24.3339C34.7681 24.3265 34.5928 24.3935 34.4605 24.52L33.218 25.7119C33.1194 25.8065 33.0501 25.9293 33.0187 26.0648C32.9874 26.2003 32.9955 26.3424 33.042 26.4731C33.0885 26.6038 33.1713 26.7173 33.2799 26.7992C33.3886 26.8811 33.5182 26.9278 33.6525 26.9333C33.6615 26.9333 33.6705 26.9333 33.6796 26.9333C33.8505 26.9337 34.0151 26.8668 34.1403 26.7461L35.3829 25.554C35.5147 25.427 35.5926 25.251 35.5995 25.0646C35.6064 24.8781 35.5418 24.6964 35.4198 24.5593Z" fill="#31241B"/>
<path id="Vector_16" opacity="0.3" d="M29.8452 14.6527C29.9793 14.7484 30.1426 14.8 30.3105 14.8C30.348 14.8 30.3855 14.7975 30.4227 14.7925L32.3435 14.5321C32.5454 14.5016 32.7266 14.3972 32.8479 14.2415C32.9692 14.0857 33.021 13.891 32.992 13.6994C32.963 13.5078 32.8556 13.3347 32.6929 13.2174C32.5302 13.1002 32.3254 13.0481 32.1225 13.0726L30.2017 13.333C30.0492 13.3537 29.9066 13.4167 29.7919 13.5141C29.6772 13.6115 29.5957 13.7389 29.5575 13.8802C29.5193 14.0215 29.5263 14.1703 29.5775 14.3079C29.6287 14.4454 29.7218 14.5655 29.8452 14.6529V14.6527Z" fill="#31241B"/>
<path id="Vector_17" opacity="0.3" d="M18.8404 21.9248L17.61 23.1338C17.5122 23.2297 17.4447 23.353 17.4159 23.4879C17.3872 23.6228 17.3985 23.7634 17.4484 23.8918C17.4983 24.0202 17.5846 24.1307 17.6963 24.2093C17.808 24.2879 17.9402 24.3311 18.0761 24.3334H18.0879C18.2663 24.3338 18.4377 24.2633 18.5655 24.137L19.796 22.9281C19.9248 22.7989 19.9983 22.6233 20.0003 22.4395C20.0024 22.2556 19.933 22.0783 19.8071 21.9462C19.6813 21.814 19.5092 21.7376 19.3282 21.7335C19.1472 21.7295 18.9719 21.7982 18.8404 21.9246V21.9248Z" fill="#31241B"/>
<path id="Vector_18" opacity="0.3" d="M12.7117 4.78246C12.6565 4.6876 12.585 4.60621 12.5014 4.54312C12.4179 4.48002 12.324 4.43651 12.2252 4.41516C12.1265 4.39381 12.025 4.39506 11.9267 4.41882C11.8284 4.44259 11.7354 4.48839 11.6531 4.55352C11.5707 4.61865 11.5008 4.70177 11.4475 4.79797C11.3942 4.89416 11.3585 5.00147 11.3425 5.11354C11.3266 5.2256 11.3307 5.34014 11.3547 5.45036C11.3787 5.56058 11.422 5.66424 11.4821 5.75521L12.5555 7.48614C12.6108 7.58068 12.6823 7.66175 12.7658 7.72455C12.8494 7.78735 12.9432 7.83061 13.0418 7.85177C13.1404 7.87294 13.2417 7.87157 13.3398 7.84776C13.4379 7.82395 13.5308 7.77818 13.613 7.71314C13.6952 7.64811 13.765 7.56514 13.8183 7.46913C13.8716 7.37312 13.9073 7.26602 13.9234 7.15416C13.9394 7.0423 13.9354 6.92795 13.9116 6.81785C13.8879 6.70776 13.8448 6.60416 13.785 6.51318L12.7117 4.78246Z" fill="#31241B"/>
</g>
<g id="Vector_19" style="mix-blend-mode:multiply" opacity="0.2">
<path d="M9.59177 2.96859C9.56781 3.23897 9.45729 3.48697 9.30976 3.7019C8.11326 5.44576 9.60267 9.40265 7.63903 9.59459C5.65857 9.78795 5.79555 4.75983 7.10506 3.12586C8.75863 1.06223 9.70192 1.72537 9.59177 2.96859Z" fill="#E05656"/>
</g>
<g id="Vector_20" style="mix-blend-mode:multiply" opacity="0.2">
<path d="M33.7312 18.7989C33.7312 18.7989 33.8495 21.4747 31.1635 22.9441C28.4776 24.4135 33.6272 25.3343 35.1331 22.4486C36.639 19.5628 34.0516 17.1619 33.7312 18.7989Z" fill="#E05656"/>
</g>
<g id="Group_4" opacity="0.5">
<path id="Vector_21" opacity="0.5" d="M39.0667 22.7495C39.0157 16.8516 35.3461 10.1552 28.947 5.42754C28.1619 4.84669 27.3478 4.30646 26.508 3.80893C26.3563 3.71846 26.2041 3.63025 26.0515 3.5443C26.0515 3.52317 26.0515 3.50223 26.0515 3.4811C25.5886 3.23799 25.1223 3.01117 24.6526 2.80063C23.2334 2.09384 21.7532 1.51839 20.2302 1.0814C18.5683 0.606424 16.9189 0.326866 15.3241 0.240788L15.3264 0.238268C11.7135 -0.241168 8.98112 0.335202 7 1.33324C8.74756 0.888696 10.8606 0.735734 13.3812 1.07016L13.3787 1.07132C15.3737 1.17834 17.4495 1.57421 19.5326 2.25818C19.6715 2.30355 19.8104 2.35027 19.9494 2.39835C19.7222 3.45183 20.5201 4.64082 21.9218 5.20944C23.1766 5.71776 24.5369 5.57507 25.3433 4.93492C25.5678 5.07011 25.7914 5.20847 26.0141 5.34999C26.6031 5.72481 27.1844 6.12398 27.758 6.54752C34.5119 11.5385 38.3868 18.6061 38.4398 24.8316C38.4398 24.8316 38.4362 25.8566 38.3183 26.9333C39.0568 26.2234 39.0667 22.7495 39.0667 22.7495Z" fill="white"/>
</g>
<path id="Vector_22" d="M22.2586 39.9333C22.1509 39.9332 22.0432 39.9271 21.9361 39.9152C20.7589 39.7872 19.8904 39.2727 19.3577 38.3859C17.9543 36.0533 19.3938 32.0014 19.8684 30.8153C20.2403 29.8863 20.3918 28.8747 20.2959 27.9635C20.2422 27.7321 20.1056 27.4661 19.8998 27.195C19.456 26.6111 18.5892 26.4966 18.0573 26.7565C17.6186 26.9705 17.466 27.3801 17.6154 27.9411C17.7962 28.6191 17.6671 29.3843 17.2873 29.8901C16.9978 30.2757 16.5788 30.4941 16.11 30.5043C14.9536 30.5286 14.148 30.2911 13.6468 29.7766C12.9134 29.0228 12.9713 27.8449 13.0327 26.598C13.0429 26.3908 13.0533 26.1785 13.0607 25.9618C13.08 25.3933 12.9344 24.7776 12.6283 24.1318C12.5209 23.9067 12.3663 23.7071 12.1752 23.5467C11.984 23.3862 11.7607 23.2685 11.5202 23.2014C11.2843 23.1339 11.0367 23.1177 10.7941 23.1537C10.5514 23.1898 10.3193 23.2774 10.1134 23.4106L10.1011 23.4187C8.71381 24.3388 7.06659 24.3145 6.0935 23.3609C5.03762 22.3264 5.12003 20.59 6.31409 18.7162C7.34353 17.1005 6.58429 16.1233 5.43596 14.6443C4.26023 13.1304 2.80195 11.2528 3.2993 8.13435C3.20879 8.14515 3.11557 8.1598 3.02004 8.17888C2.60992 8.26043 2.24806 8.1251 2.02495 7.80778C1.58743 7.18337 1.79857 5.9677 2.56264 4.71078C3.07717 3.86428 4.2996 2.28176 6.69816 1.19371C9.00504 0.147686 11.7693 -0.172329 14.9144 0.242533L14.9229 0.24369C19.5911 0.503749 24.5013 2.36427 28.7545 5.4873C35.0618 10.1179 39.013 16.8572 39.0665 23.0752C39.0665 23.1193 39.0626 24.0481 38.9551 25.055C38.7457 27.0185 38.3389 27.4995 38.0075 27.699C37.7462 27.8565 37.4434 27.8598 37.1545 27.7086C36.3643 27.2947 35.1774 28.1836 33.2114 29.6557C32.8275 29.9429 32.4307 30.2402 31.9955 30.5591C29.897 32.0951 28.9633 31.8447 27.6708 31.4981C27.0641 31.3352 26.376 31.1511 25.3888 31.1187C25.1241 31.1104 24.9998 31.2024 24.9291 31.2729C24.4416 31.756 24.4796 33.3272 24.5132 34.7133C24.5588 36.5911 24.6057 38.5332 23.616 39.4418C23.2588 39.7689 22.8039 39.9333 22.2586 39.9333ZM18.6828 25.712C19.3869 25.712 20.1365 25.9979 20.6271 26.6441C20.9241 27.0354 21.1146 27.4227 21.1935 27.7958C21.1966 27.8104 21.1989 27.8252 21.2005 27.8401C21.3176 28.9033 21.1456 30.08 20.716 31.1536C19.8603 33.2923 19.1958 36.3467 20.1401 37.9163C20.524 38.5546 21.1437 38.912 22.0348 39.009C22.4576 39.0547 22.7722 38.9772 22.9967 38.7713C23.6816 38.1424 23.6378 36.3328 23.599 34.736C23.5573 33.0133 23.5179 31.3861 24.2847 30.6265C24.5792 30.3347 24.9602 30.1939 25.4166 30.209C26.5092 30.2444 27.2837 30.4521 27.9063 30.619C29.0689 30.9309 29.7093 31.1027 31.4549 29.8253C31.8866 29.5094 32.2815 29.2136 32.6633 28.9276C34.9093 27.2458 36.2682 26.2286 37.5653 26.896C37.8716 26.6009 38.1482 24.8281 38.1536 23.079C38.1026 17.148 34.2937 10.6871 28.2143 6.22333C24.0886 3.19418 19.3346 1.39343 14.8283 1.15322C14.8015 1.15171 14.7748 1.1479 14.7486 1.14185C8.07094 0.277041 4.26776 3.08314 3.03895 5.75487C2.59989 6.70952 2.70912 7.23137 2.77899 7.29383C2.77899 7.2919 2.8008 7.29383 2.84249 7.28612C3.21555 7.2119 3.56873 7.18819 3.89199 7.21518C3.95653 7.22057 4.01919 7.23963 4.07578 7.27109C4.13237 7.30255 4.18161 7.34568 4.22023 7.39761C4.25884 7.44955 4.28594 7.5091 4.29973 7.57231C4.31351 7.63552 4.31367 7.70094 4.30018 7.76421L4.29748 7.77713C4.27278 7.8928 4.24788 8.00962 4.22626 8.1305C3.72081 10.9495 5.01542 12.6165 6.15757 14.0874C7.34103 15.6103 8.45886 17.0504 7.08396 19.2074C6.13828 20.6918 6.00704 22.0012 6.73232 22.7118C7.38426 23.3504 8.58759 23.3287 9.59387 22.6622L9.6149 22.6483C9.92988 22.4441 10.285 22.3096 10.6563 22.254C11.0277 22.1983 11.4066 22.2226 11.7678 22.3254C12.1337 22.4278 12.4735 22.6074 12.7642 22.8519C13.0549 23.0964 13.2897 23.4003 13.453 23.7431C13.8222 24.5218 13.9969 25.2792 13.9728 25.9942C13.9652 26.2148 13.9535 26.4316 13.944 26.6435C13.8903 27.7319 13.8438 28.6719 14.3008 29.1414C14.6158 29.4646 15.2014 29.6123 16.0901 29.5934C16.281 29.5894 16.4338 29.5073 16.5575 29.3428C16.7729 29.0567 16.844 28.5879 16.7341 28.1763C16.4742 27.2004 16.8279 26.3428 17.6574 25.9379C17.9568 25.7907 18.3136 25.712 18.6828 25.712ZM24.442 21.6715C22.5767 21.6715 20.4991 20.9945 18.6541 19.64C15.636 17.4242 14.0764 13.9875 14.8613 11.2828C14.8646 11.2716 14.8683 11.2605 14.8725 11.2495C14.9617 11.0124 15.4582 9.8204 16.4829 9.63341C17.139 9.51369 17.8066 9.83621 18.4707 10.5913C20.2889 12.6595 20.479 12.8754 22.5043 12.2745C22.994 12.1289 23.4131 12.1553 23.7501 12.3528C24.344 12.7009 24.5175 13.4732 24.6854 14.2202C24.9328 15.3225 25.1383 16.0001 25.9013 16.1191C27.4307 16.3572 28.5509 16.5889 29.0365 17.4047C29.3501 17.9318 29.3424 18.6065 29.0123 19.5282C28.9973 19.5695 28.9764 19.6085 28.9504 19.6439C27.9557 20.9958 26.3046 21.6715 24.442 21.6715ZM15.7335 11.5543C15.0651 13.8965 16.4861 16.9164 19.1952 18.9053C22.4513 21.2958 26.4606 21.4024 28.1755 19.1577C28.3834 18.5545 28.4083 18.1331 28.2527 17.8707C27.9721 17.399 26.9585 17.2064 25.7615 17.02C24.3285 16.7969 24.0199 15.423 23.7947 14.4199C23.6696 13.8628 23.5403 13.2868 23.2883 13.1391C23.1783 13.0747 23.0021 13.0778 22.7645 13.1484C20.1795 13.916 19.6725 13.339 17.7852 11.1928C17.4843 10.8506 17.0424 10.4572 16.6465 10.5302C16.1901 10.6129 15.8386 11.2828 15.7335 11.5543Z" fill="#31241B"/>
<g id="Group_5" opacity="0.3">
<path id="Vector_23" opacity="0.3" d="M26.3257 16.5275L26.2041 16.5083L26.3257 16.5275Z" fill="#31241B"/>
<path id="Vector_24" opacity="0.3" d="M28.8588 17.9403L28.8574 17.9327L28.8588 17.9403Z" fill="#31241B"/>
<path id="Vector_25" opacity="0.3" d="M26.7017 16.5939L26.6201 16.5789L26.7017 16.5939Z" fill="#31241B"/>
<path id="Vector_26" opacity="0.3" d="M26.5167 16.5604L26.4209 16.5439L26.5167 16.5604Z" fill="#31241B"/>
<path id="Vector_27" opacity="0.3" d="M26.1278 16.4953C26.0604 16.4843 25.9921 16.4735 25.9229 16.4629C25.9922 16.4736 26.0605 16.4844 26.1278 16.4953Z" fill="#31241B"/>
<path id="Vector_28" opacity="0.3" d="M27.9248 16.9201L27.8965 16.9086L27.9248 16.9201Z" fill="#31241B"/>
<path id="Vector_29" opacity="0.3" d="M17.9325 10.4725C17.8909 10.4358 17.8499 10.4016 17.8096 10.3698C17.8494 10.4016 17.8904 10.4358 17.9325 10.4725Z" fill="#31241B"/>
<path id="Vector_30" opacity="0.3" d="M18.2783 10.8221C18.2277 10.7646 18.1781 10.7118 18.1289 10.6612C18.1781 10.7118 18.2277 10.7646 18.2783 10.8221Z" fill="#31241B"/>
<path id="Vector_31" opacity="0.3" d="M28.8711 18.3221C28.8711 18.3175 28.8711 18.3129 28.872 18.3083C28.8717 18.3129 28.8713 18.3175 28.8711 18.3221Z" fill="#31241B"/>
<path id="Vector_32" opacity="0.3" d="M28.873 18.0595C28.873 18.0563 28.873 18.053 28.8721 18.0497C28.8725 18.0528 28.8726 18.0563 28.873 18.0595Z" fill="#31241B"/>
<path id="Vector_33" opacity="0.3" d="M28.0424 16.9712L28.0215 16.9615L28.0424 16.9712Z" fill="#31241B"/>
<path id="Vector_34" opacity="0.3" d="M27.3718 16.7408L27.3193 16.7272L27.3718 16.7408Z" fill="#31241B"/>
<path id="Vector_35" opacity="0.3" d="M27.5213 16.782C27.5058 16.7776 27.4903 16.773 27.4746 16.7688C27.4897 16.773 27.5058 16.7776 27.5213 16.782Z" fill="#31241B"/>
<path id="Vector_36" opacity="0.3" d="M27.7979 16.8717L27.7627 16.859L27.7979 16.8717Z" fill="#31241B"/>
<path id="Vector_37" opacity="0.3" d="M27.6642 16.8255L27.623 16.8125L27.6642 16.8255Z" fill="#31241B"/>
<path id="Vector_38" opacity="0.3" d="M27.0514 16.6642C27.0298 16.6594 27.0076 16.6548 26.9854 16.6502C27.0076 16.6546 27.0298 16.6594 27.0514 16.6642Z" fill="#31241B"/>
<path id="Vector_39" opacity="0.3" d="M28.1496 17.0243L28.1377 17.0179L28.1496 17.0243Z" fill="#31241B"/>
<path id="Vector_40" opacity="0.3" d="M26.8802 16.6285L26.8057 16.6138L26.8802 16.6285Z" fill="#31241B"/>
<path id="Vector_41" opacity="0.3" d="M27.2154 16.7016L27.1562 16.688L27.2154 16.7016Z" fill="#31241B"/>
<path id="Vector_42" opacity="0.3" d="M17.7865 10.352C17.7431 10.3187 17.7003 10.2884 17.6582 10.2603C17.7005 10.2886 17.7431 10.3187 17.7865 10.352Z" fill="#31241B"/>
<path id="Vector_43" opacity="0.3" d="M28.832 18.6129C28.832 18.6089 28.8337 18.6046 28.8345 18.6006C28.8337 18.6046 28.8328 18.6083 28.832 18.6129Z" fill="#31241B"/>
<path id="Vector_44" opacity="0.3" d="M17.958 10.496C18.0038 10.5374 18.0505 10.5822 18.0976 10.6301C18.0505 10.583 18.004 10.5374 17.958 10.496Z" fill="#31241B"/>
<path id="Vector_45" opacity="0.3" d="M17.1909 10.0404C17.1653 10.0335 17.1398 10.0276 17.1143 10.0226C17.1393 10.0276 17.1648 10.0335 17.1909 10.0404Z" fill="#31241B"/>
<path id="Vector_46" opacity="0.3" d="M17.0583 10.013C17.0334 10.0095 17.0087 10.0067 16.9844 10.0049C17.0087 10.0067 17.0328 10.0095 17.0583 10.013Z" fill="#31241B"/>
<path id="Vector_47" opacity="0.3" d="M16.9366 10.0023C16.9079 10.0023 16.8791 10.0023 16.8516 10.0023C16.8791 10.0015 16.9079 10.0015 16.9366 10.0023Z" fill="#31241B"/>
<path id="Vector_48" opacity="0.3" d="M28.7988 18.7693C28.7988 18.766 28.8005 18.7629 28.8011 18.7598C28.8005 18.7629 28.7997 18.766 28.7988 18.7693Z" fill="#31241B"/>
<path id="Vector_49" opacity="0.3" d="M17.6226 10.2383C17.5814 10.212 17.5408 10.1875 17.501 10.1661C17.5408 10.1866 17.5814 10.2111 17.6226 10.2383Z" fill="#31241B"/>
<path id="Vector_50" opacity="0.3" d="M17.4743 10.1516C17.4415 10.1347 17.4089 10.1196 17.377 10.1058C17.4089 10.1196 17.4415 10.1347 17.4743 10.1516Z" fill="#31241B"/>
<path id="Vector_51" opacity="0.3" d="M17.3391 10.0894C17.3032 10.0753 17.268 10.0629 17.2334 10.0523C17.268 10.0627 17.3032 10.0751 17.3391 10.0894Z" fill="#31241B"/>
<path id="Vector_52" opacity="0.3" d="M28.8564 18.4641C28.8564 18.4595 28.8578 18.4549 28.8584 18.4503C28.8578 18.4551 28.857 18.4595 28.8564 18.4641Z" fill="#31241B"/>
<path id="Vector_53" opacity="0.3" d="M15.1198 24.3298C15.1447 23.5935 14.9248 22.8883 14.6473 22.3026C14.0867 21.1187 12.591 20.6843 11.4945 21.4006L11.4774 21.4119C9.01544 23.0467 5.93635 21.157 8.35369 17.3591C10.771 13.5612 4.39316 12.4367 5.45349 6.5183C5.47648 6.38882 5.5031 6.26452 5.53011 6.14002C5.26943 6.11818 4.96719 6.13331 4.61477 6.20341C3.66706 6.39188 3.67051 4.70428 4.98366 2.92053C2.32825 5.09424 1.98368 7.92549 3.19666 7.68416C3.54908 7.61425 3.85132 7.59893 4.112 7.62095C4.08556 7.74545 4.05894 7.86995 4.03538 7.99904C2.97524 13.9193 9.35311 15.0427 6.93577 18.8408C4.51843 22.6389 7.59752 24.5293 10.0593 22.8936L10.0765 22.8823C11.1731 22.1662 12.6687 22.6006 13.2294 23.7843C13.5067 24.3702 13.7274 25.0752 13.7017 25.8116C13.6251 28.0606 13.2079 29.9218 16.2655 29.8557C17.0016 29.8398 17.4021 29.1173 17.3977 28.3751C14.6528 28.319 15.0459 26.506 15.1198 24.3298Z" fill="#31241B"/>
<path id="Vector_54" opacity="0.3" d="M16.9364 10.0023C16.9521 10.0023 16.9678 10.0038 16.9837 10.005C17.008 10.0067 17.0327 10.0096 17.0576 10.013C17.0756 10.0157 17.094 10.019 17.1124 10.0226C17.1379 10.0276 17.1635 10.0335 17.189 10.0404C17.2032 10.0442 17.2174 10.0479 17.2317 10.0523C17.2663 10.0628 17.3016 10.0751 17.3374 10.0894C17.3499 10.0944 17.3627 10.1002 17.3758 10.1057C17.4077 10.1195 17.4403 10.1346 17.4731 10.1515L17.5002 10.1651C17.5401 10.1866 17.5807 10.2111 17.6219 10.2373L17.6573 10.2603C17.6994 10.2885 17.7422 10.3178 17.7856 10.352C17.7931 10.3578 17.8006 10.3641 17.8079 10.3699C17.8483 10.4016 17.8893 10.4359 17.9308 10.4725C17.9398 10.4804 17.9488 10.488 17.9578 10.4961C18.0038 10.5374 18.0503 10.5823 18.0974 10.6301L18.1281 10.6617C18.1773 10.7123 18.2269 10.7652 18.2775 10.8226C20.1336 12.9364 20.4849 13.3034 22.749 12.6301C25.0131 11.9569 23.6358 16.107 25.9222 16.4635C25.9915 16.4742 26.0598 16.485 26.1271 16.4959L26.2026 16.5081L26.3242 16.5273L26.42 16.5437L26.5157 16.5602L26.6188 16.5794L26.7004 16.5943C26.7356 16.6008 26.7701 16.6075 26.8046 16.6135L26.8791 16.6282C26.9145 16.6353 26.9492 16.6426 26.9838 16.6498C27.006 16.6544 27.0283 16.659 27.0499 16.6638C27.0855 16.6717 27.1204 16.6795 27.1551 16.6876L27.2142 16.7012C27.2495 16.7096 27.2842 16.7182 27.3186 16.7268L27.3711 16.7404C27.4061 16.7494 27.4404 16.7587 27.4742 16.7684C27.4899 16.7726 27.5054 16.7772 27.5209 16.7816C27.5551 16.7916 27.5888 16.8017 27.622 16.8121L27.6632 16.8251C27.6969 16.8361 27.73 16.8473 27.7624 16.8586L27.7977 16.8713C27.8308 16.8833 27.8635 16.8956 27.8953 16.9082L27.9237 16.9197C27.9564 16.9331 27.9888 16.9469 28.0194 16.9611L28.0403 16.9709C28.0733 16.986 28.1054 17.0015 28.1361 17.0176L28.148 17.0239C28.1813 17.0415 28.2139 17.0595 28.2451 17.0781C28.5515 17.2606 28.7526 17.4983 28.8342 17.8239C28.8428 17.8588 28.8499 17.8948 28.8559 17.9316L28.857 17.9377C28.8625 17.9737 28.8667 18.0107 28.8697 18.0486C28.8697 18.0519 28.8697 18.0551 28.8706 18.0584C28.8733 18.0967 28.8745 18.135 28.8746 18.1733V18.1856C28.8746 18.2248 28.8732 18.2651 28.8702 18.3066C28.8702 18.3112 28.8702 18.3158 28.8693 18.3204C28.8662 18.362 28.8619 18.4047 28.8563 18.4485C28.8563 18.4531 28.8549 18.4577 28.8543 18.4623C28.8484 18.5068 28.8411 18.5522 28.8325 18.5989C28.8325 18.6029 28.8308 18.6071 28.83 18.6112C28.821 18.659 28.8109 18.7069 28.7986 18.7581C28.7986 18.7609 28.7973 18.7638 28.7965 18.7669C28.784 18.8186 28.7703 18.8716 28.7546 18.9262C29.27 18.6371 29.7183 18.242 30.0698 17.7669C30.8218 15.6646 29.6255 15.3363 27.3389 14.9799C25.0524 14.6234 26.4299 10.4735 24.1658 11.1467C21.9017 11.82 21.5504 11.4532 19.6943 9.33921C17.8881 7.28234 16.9377 9.72075 16.8879 9.85348C16.8737 9.90213 16.8619 9.95174 16.8496 10.001C16.8789 10.0015 16.9076 10.0015 16.9364 10.0023Z" fill="#31241B"/>
<path id="Vector_55" opacity="0.3" d="M28.8721 18.3083C28.8748 18.2669 28.8762 18.2266 28.8765 18.1873C28.8762 18.2265 28.8748 18.2668 28.8721 18.3083Z" fill="#31241B"/>
<path id="Vector_56" opacity="0.3" d="M28.872 18.0498C28.8692 18.0115 28.865 17.9745 28.8594 17.9389C28.865 17.9749 28.8692 18.0118 28.872 18.0498Z" fill="#31241B"/>
<path id="Vector_57" opacity="0.3" d="M28.8584 18.4502C28.8639 18.4064 28.8682 18.3637 28.8714 18.3221C28.8684 18.3637 28.864 18.4064 28.8584 18.4502Z" fill="#31241B"/>
<path id="Vector_58" opacity="0.3" d="M28.8586 17.9327C28.8526 17.8959 28.8455 17.8599 28.8369 17.8251C28.8455 17.8599 28.8528 17.8959 28.8586 17.9327Z" fill="#31241B"/>
<path id="Vector_59" opacity="0.3" d="M28.0215 16.9611C27.9901 16.947 27.9578 16.9332 27.9258 16.9198C27.9578 16.9336 27.9901 16.9474 28.0215 16.9611Z" fill="#31241B"/>
<path id="Vector_60" opacity="0.3" d="M28.2465 17.0785C28.2153 17.0593 28.1827 17.0419 28.1494 17.0243C28.1827 17.0419 28.2153 17.0599 28.2465 17.0785Z" fill="#31241B"/>
<path id="Vector_61" opacity="0.3" d="M28.1378 17.0185C28.1067 17.0024 28.0746 16.9869 28.042 16.9718C28.0746 16.9864 28.1067 17.0019 28.1378 17.0185Z" fill="#31241B"/>
<path id="Vector_62" opacity="0.3" d="M28.7568 18.9279C28.7725 18.8734 28.7863 18.8203 28.7988 18.7686C28.7863 18.8203 28.7735 18.8734 28.7568 18.9279Z" fill="#31241B"/>
<path id="Vector_63" opacity="0.3" d="M28.835 18.6006C28.8436 18.5539 28.8509 18.5085 28.8568 18.4641C28.8503 18.5085 28.8436 18.5539 28.835 18.6006Z" fill="#31241B"/>
<path id="Vector_64" opacity="0.3" d="M28.8008 18.7598C28.8128 18.7096 28.8232 18.6608 28.8322 18.6129C28.8232 18.6608 28.8128 18.7096 28.8008 18.7598Z" fill="#31241B"/>
<path id="Vector_65" opacity="0.3" d="M17.3772 10.1058C17.3645 10.1002 17.3517 10.0945 17.3389 10.0895C17.3511 10.0945 17.364 10.1002 17.3772 10.1058Z" fill="#31241B"/>
<path id="Vector_66" opacity="0.3" d="M17.1124 10.0225C17.0932 10.0189 17.0756 10.0157 17.0576 10.013C17.0756 10.0157 17.094 10.0189 17.1124 10.0225Z" fill="#31241B"/>
<path id="Vector_67" opacity="0.3" d="M17.2331 10.0522C17.2188 10.0478 17.2046 10.0442 17.1904 10.0404C17.205 10.0442 17.2188 10.0478 17.2331 10.0522Z" fill="#31241B"/>
<path id="Vector_68" opacity="0.3" d="M17.6575 10.2603L17.6221 10.2373L17.6575 10.2603Z" fill="#31241B"/>
<path id="Vector_69" opacity="0.3" d="M17.5008 10.1651L17.4736 10.1515L17.5008 10.1651Z" fill="#31241B"/>
<path id="Vector_70" opacity="0.3" d="M27.8965 16.9086C27.8647 16.896 27.832 16.8837 27.7988 16.8716C27.832 16.8845 27.8647 16.896 27.8965 16.9086Z" fill="#31241B"/>
<path id="Vector_71" opacity="0.3" d="M17.8084 10.3699C17.8011 10.3641 17.7936 10.3578 17.7861 10.3521C17.7936 10.3578 17.8011 10.3641 17.8084 10.3699Z" fill="#31241B"/>
<path id="Vector_72" opacity="0.3" d="M28.2471 17.0785C28.5535 17.2612 28.7546 17.4985 28.8362 17.8243C28.7542 17.4987 28.5529 17.261 28.2471 17.0785Z" fill="#31241B"/>
<path id="Vector_73" opacity="0.3" d="M18.0977 10.6295L18.1283 10.6611L18.0977 10.6295Z" fill="#31241B"/>
<path id="Vector_74" opacity="0.3" d="M16.9838 10.005C16.9679 10.0038 16.9522 10.0027 16.9365 10.0023C16.952 10.0027 16.9679 10.0038 16.9838 10.005Z" fill="#31241B"/>
<path id="Vector_75" opacity="0.3" d="M28.873 18.0595C28.8756 18.097 28.8769 18.1354 28.8771 18.1744C28.8769 18.1355 28.8757 18.097 28.873 18.0595Z" fill="#31241B"/>
<path id="Vector_76" opacity="0.3" d="M27.1559 16.6879C27.1213 16.6799 27.0864 16.672 27.0508 16.6642C27.0864 16.672 27.1213 16.6799 27.1559 16.6879Z" fill="#31241B"/>
<path id="Vector_77" opacity="0.3" d="M27.3192 16.7272C27.2848 16.7186 27.2501 16.7099 27.2148 16.7015C27.2501 16.7099 27.2848 16.7186 27.3192 16.7272Z" fill="#31241B"/>
<path id="Vector_78" opacity="0.3" d="M17.9586 10.4961C17.9496 10.488 17.9406 10.4804 17.9316 10.4725C17.9406 10.4804 17.9496 10.4873 17.9586 10.4961Z" fill="#31241B"/>
<path id="Vector_79" opacity="0.3" d="M27.6226 16.8125C27.5895 16.8021 27.5558 16.792 27.5215 16.782C27.5558 16.792 27.5895 16.8021 27.6226 16.8125Z" fill="#31241B"/>
<path id="Vector_80" opacity="0.3" d="M27.7633 16.859C27.731 16.8475 27.6979 16.8363 27.6641 16.8255C27.6978 16.8365 27.7308 16.8476 27.7633 16.859Z" fill="#31241B"/>
<path id="Vector_81" opacity="0.3" d="M27.4751 16.7696C27.4414 16.76 27.4071 16.7507 27.3721 16.7416C27.4069 16.7504 27.4414 16.7592 27.4751 16.7696Z" fill="#31241B"/>
<path id="Vector_82" opacity="0.3" d="M26.9846 16.6502C26.95 16.643 26.9153 16.6357 26.8799 16.6286C26.9155 16.6355 26.95 16.643 26.9846 16.6502Z" fill="#31241B"/>
<path id="Vector_83" opacity="0.3" d="M26.421 16.5439L26.3252 16.5275L26.421 16.5439Z" fill="#31241B"/>
<path id="Vector_84" opacity="0.3" d="M26.2034 16.5075L26.1279 16.4953L26.2034 16.5075Z" fill="#31241B"/>
<path id="Vector_85" opacity="0.3" d="M26.6196 16.579L26.5166 16.5598L26.6196 16.579Z" fill="#31241B"/>
<path id="Vector_86" opacity="0.3" d="M26.8054 16.6138C26.7709 16.6071 26.7364 16.6004 26.7012 16.5947C26.7364 16.6004 26.7709 16.6071 26.8054 16.6138Z" fill="#31241B"/>
<path id="Vector_87" opacity="0.3" d="M33.1904 28.5172C30.4237 30.5446 30.4602 29.2068 27.2312 29.002L27.1689 28.9984C21.0895 28.6036 22.9682 33.3238 23.0318 36.3946C23.0952 39.4762 20.3379 38.4647 20.3379 38.4647C20.3379 38.4647 21.7663 39.6267 23.2592 38.9796C24.752 38.3324 24.1594 34.3827 24.4451 32.1859C24.7309 29.989 25.6426 30.4739 25.6426 30.4739C28.5891 30.6164 28.9506 32.0662 31.7717 29.9986C34.6397 27.8972 36.1492 26.491 37.37 27.1305C37.9356 27.4268 38.2419 26.5475 38.4081 25.5182C37.2489 25.302 35.7686 26.6281 33.1904 28.5172Z" fill="#31241B"/>
</g>
<path id="Vector_88" d="M10.9162 9.06666C10.7729 9.09037 10.645 9.17001 10.5604 9.28808C10.4758 9.40614 10.4417 9.55296 10.4653 9.69623L10.7701 11.5367C10.7938 11.6799 10.8735 11.8079 10.9915 11.8924C11.1096 11.9769 11.2564 12.0111 11.3996 11.9874C11.5429 11.9636 11.6709 11.884 11.7554 11.7659C11.8399 11.6478 11.874 11.501 11.8503 11.3578L11.5458 9.51734C11.534 9.44641 11.5085 9.37848 11.4705 9.31744C11.4325 9.2564 11.3828 9.20344 11.3244 9.16159C11.2659 9.11974 11.1998 9.08981 11.1297 9.07353C11.0597 9.05724 10.9871 9.05491 10.9162 9.06666Z" fill="#A38DBF"/>
<path id="Vector_89" d="M11.3097 12.1961C11.1324 12.1957 10.961 12.1326 10.8259 12.0179C10.6907 11.9033 10.6005 11.7444 10.5713 11.5696L10.2666 9.72897C10.2347 9.53327 10.2818 9.33294 10.3974 9.17188C10.513 9.01083 10.6878 8.9022 10.8834 8.86983C11.079 8.83745 11.2795 8.88396 11.4409 8.99917C11.6022 9.11437 11.7113 9.28886 11.7442 9.48438L12.0488 11.325C12.0665 11.4323 12.0606 11.5421 12.0316 11.6468C12.0026 11.7515 11.9511 11.8487 11.8808 11.9316C11.8105 12.0145 11.723 12.0811 11.6243 12.1267C11.5257 12.1724 11.4183 12.1961 11.3097 12.1961ZM11.0055 9.26144C10.9863 9.26143 10.967 9.26296 10.948 9.26603C10.8575 9.28115 10.7766 9.33156 10.7232 9.40621C10.6698 9.48085 10.6481 9.57365 10.663 9.66423L10.9678 11.5049C10.9752 11.5497 10.9914 11.5927 11.0154 11.6312C11.0395 11.6698 11.0708 11.7033 11.1078 11.7298C11.1448 11.7562 11.1866 11.7751 11.2309 11.7854C11.2752 11.7957 11.321 11.7972 11.3659 11.7898C11.4107 11.7823 11.4537 11.7661 11.4922 11.7421C11.5308 11.7181 11.5643 11.6867 11.5908 11.6497C11.6172 11.6128 11.6361 11.5709 11.6464 11.5267C11.6567 11.4824 11.6582 11.4365 11.6508 11.3917L11.3462 9.55103C11.3327 9.47032 11.2911 9.39699 11.2288 9.344C11.1664 9.291 11.0873 9.26176 11.0055 9.26144Z" fill="#31241B"/>
<path id="Vector_90" d="M17.658 5.6484C17.6082 5.70033 17.5692 5.76156 17.5431 5.82857C17.517 5.89559 17.5044 5.96709 17.506 6.03898C17.5076 6.11088 17.5233 6.18176 17.5522 6.24758C17.5812 6.3134 17.6229 6.37287 17.6748 6.42258L19.0224 7.71256C19.1277 7.81099 19.2675 7.86396 19.4116 7.85998C19.5557 7.856 19.6923 7.79538 19.792 7.69128C19.8917 7.58718 19.9463 7.44799 19.944 7.30389C19.9417 7.15979 19.8827 7.0224 19.7798 6.92153L18.4319 5.63155C18.38 5.58181 18.3188 5.54279 18.2518 5.51671C18.1848 5.49064 18.1133 5.47803 18.0415 5.47959C17.9696 5.48116 17.8987 5.49687 17.8329 5.52584C17.7671 5.5548 17.7077 5.59645 17.658 5.6484Z" fill="#A38DBF"/>
<path id="Vector_91" d="M19.4013 8.06534C19.2085 8.0656 19.0232 7.99126 18.8841 7.85791L17.5363 6.56793C17.3931 6.4305 17.3102 6.24187 17.3058 6.04342C17.3015 5.84497 17.376 5.65289 17.5131 5.50933C17.5809 5.43803 17.6622 5.38091 17.7523 5.34126C17.8423 5.30161 17.9393 5.28022 18.0377 5.27834C18.2361 5.27498 18.4279 5.34952 18.5719 5.48596L19.9195 6.77594C20.0275 6.87923 20.1021 7.01249 20.1337 7.15854C20.1653 7.30459 20.1525 7.45676 20.0969 7.59546C20.0412 7.73415 19.9454 7.85302 19.8216 7.93676C19.6978 8.0205 19.5518 8.06529 19.4024 8.06534H19.4013ZM17.8037 5.78762C17.7403 5.85399 17.7058 5.94278 17.7078 6.03452C17.7098 6.12627 17.7482 6.21347 17.8144 6.27699L19.162 7.56716C19.2284 7.63053 19.3173 7.66497 19.4091 7.66292C19.5008 7.66087 19.5881 7.62251 19.6516 7.55624C19.683 7.52341 19.7077 7.4847 19.7241 7.44234C19.7406 7.39997 19.7486 7.35478 19.7476 7.30934C19.7466 7.26389 19.7366 7.21909 19.7183 7.17749C19.7 7.13589 19.6737 7.0983 19.6409 7.06688L18.293 5.7769C18.2602 5.74547 18.2215 5.72081 18.1791 5.70434C18.1368 5.68787 18.0916 5.67991 18.0461 5.6809C18.0007 5.6819 17.9559 5.69184 17.9143 5.71015C17.8727 5.72846 17.8351 5.75479 17.8037 5.78762Z" fill="#31241B"/>
<path id="Vector_92" d="M26.6682 12.7002C26.5376 12.7638 26.4377 12.8766 26.3903 13.0139C26.343 13.1511 26.352 13.3015 26.4155 13.4321L27.2317 15.1097C27.2971 15.2371 27.4097 15.3337 27.5455 15.379C27.6813 15.4243 27.8295 15.4146 27.9582 15.352C28.087 15.2894 28.1861 15.1789 28.2343 15.0441C28.2826 14.9093 28.2761 14.761 28.2163 14.6309L27.4 12.9533C27.3686 12.8886 27.3247 12.8307 27.2709 12.783C27.2171 12.7353 27.1545 12.6986 27.0865 12.6751C27.0185 12.6516 26.9466 12.6418 26.8748 12.6461C26.803 12.6504 26.7328 12.6688 26.6682 12.7002Z" fill="#A38DBF"/>
<path id="Vector_93" d="M27.7245 15.6188C27.5839 15.619 27.446 15.5795 27.3268 15.505C27.2075 15.4305 27.1115 15.3239 27.05 15.1975L26.2336 13.5198C26.1468 13.3413 26.1344 13.1355 26.1993 12.9478C26.2641 12.7601 26.4009 12.6058 26.5795 12.519C26.758 12.4321 26.9638 12.4197 27.1515 12.4846C27.3392 12.5494 27.4934 12.6862 27.5803 12.8648L28.3966 14.5422C28.4522 14.6563 28.4778 14.7826 28.4711 14.9093C28.4645 15.0359 28.4257 15.1588 28.3585 15.2664C28.2914 15.374 28.1979 15.4628 28.087 15.5244C27.9761 15.5859 27.8514 15.6183 27.7245 15.6185V15.6188ZM26.9069 12.8462C26.8544 12.8463 26.8027 12.8583 26.7556 12.8813C26.7147 12.9011 26.6781 12.9289 26.648 12.9629C26.6178 12.9969 26.5947 13.0365 26.5798 13.0794C26.565 13.1224 26.5588 13.1679 26.5615 13.2132C26.5643 13.2586 26.5759 13.303 26.5958 13.3438L27.4119 15.0215C27.4314 15.0631 27.4589 15.1005 27.4929 15.1314C27.5269 15.1624 27.5667 15.1862 27.61 15.2016C27.6534 15.2169 27.6993 15.2235 27.7452 15.221C27.7911 15.2184 27.836 15.2067 27.8774 15.1866C27.9187 15.1665 27.9556 15.1383 27.986 15.1038C28.0163 15.0693 28.0395 15.0291 28.0541 14.9855C28.0688 14.9419 28.0746 14.8958 28.0712 14.85C28.0679 14.8042 28.0554 14.7594 28.0346 14.7184L27.2183 13.041C27.1898 12.9826 27.1456 12.9334 27.0905 12.8989C27.0355 12.8644 26.9718 12.8461 26.9069 12.846V12.8462Z" fill="#31241B"/>
<path id="Vector_94" d="M15.2243 18.8209C15.0798 18.808 14.9362 18.853 14.8248 18.946C14.7135 19.039 14.6436 19.1723 14.6306 19.3168L14.4622 21.1746C14.4557 21.2462 14.4634 21.3184 14.4848 21.387C14.5062 21.4557 14.5409 21.5194 14.5869 21.5746C14.633 21.6298 14.6894 21.6755 14.7531 21.7088C14.8168 21.7422 14.8864 21.7628 14.958 21.7693C15.1026 21.7824 15.2465 21.7375 15.358 21.6445C15.4695 21.5515 15.5395 21.4181 15.5526 21.2735L15.7211 19.4156C15.7276 19.3439 15.7199 19.2716 15.6985 19.2029C15.677 19.1342 15.6422 19.0704 15.5961 19.0152C15.5499 18.96 15.4933 18.9144 15.4295 18.881C15.3657 18.8477 15.296 18.8272 15.2243 18.8209Z" fill="#A38DBF"/>
<path id="Vector_95" d="M15.0071 21.973C14.9847 21.973 14.9619 21.972 14.9389 21.9699C14.7411 21.952 14.5586 21.8562 14.4314 21.7036C14.3043 21.5511 14.2429 21.3543 14.2609 21.1565L14.4294 19.2986C14.4474 19.1008 14.5431 18.9183 14.6957 18.7911C14.7712 18.7281 14.8584 18.6807 14.9522 18.6514C15.0461 18.6221 15.1448 18.6116 15.2428 18.6205C15.3407 18.6294 15.4359 18.6574 15.523 18.7031C15.6101 18.7488 15.6873 18.8112 15.7503 18.8867C15.8132 18.9622 15.8607 19.0494 15.89 19.1433C15.9193 19.2372 15.9298 19.3359 15.9209 19.4338L15.7523 21.2917C15.7353 21.4777 15.6494 21.6506 15.5116 21.7766C15.3737 21.9026 15.1938 21.9726 15.0071 21.973ZM15.1745 19.0199C15.0881 19.0199 15.0048 19.0522 14.941 19.1104C14.8772 19.1687 14.8375 19.2488 14.8297 19.3348L14.6612 21.1927C14.6554 21.2828 14.6851 21.3715 14.7438 21.4401C14.8025 21.5086 14.8856 21.5515 14.9755 21.5596C15.0654 21.5678 15.1549 21.5405 15.225 21.4836C15.2951 21.4268 15.3402 21.3448 15.3507 21.2551L15.5191 19.3973C15.5232 19.352 15.5183 19.3063 15.5048 19.2629C15.4912 19.2195 15.4693 19.1792 15.4402 19.1443C15.4111 19.1094 15.3753 19.0806 15.3351 19.0594C15.2948 19.0383 15.2508 19.0254 15.2055 19.0213C15.1953 19.0203 15.1851 19.0198 15.1749 19.0199H15.1745Z" fill="#31241B"/>
<path id="Vector_96" d="M11.8718 16.2818C11.7945 16.1588 11.6716 16.0716 11.53 16.0393C11.3884 16.007 11.2398 16.0322 11.1168 16.1094L9.53739 17.1023C9.41446 17.1796 9.32725 17.3025 9.29496 17.4441C9.26267 17.5856 9.28793 17.7342 9.3652 17.8571C9.44246 17.9801 9.5654 18.0673 9.70695 18.0996C9.84851 18.1319 9.9971 18.1066 10.12 18.0293L11.6996 17.0378C11.7606 16.9995 11.8134 16.9495 11.8551 16.8908C11.8968 16.8321 11.9265 16.7657 11.9425 16.6955C11.9585 16.6253 11.9604 16.5526 11.9483 16.4816C11.9362 16.4106 11.9102 16.3427 11.8718 16.2818Z" fill="#FFC35C"/>
<path id="Vector_97" d="M9.83071 18.3144C9.66823 18.3146 9.5101 18.262 9.38018 18.1644C9.25026 18.0669 9.1556 17.9297 9.11049 17.7736C9.06538 17.6175 9.07227 17.451 9.13012 17.2992C9.18797 17.1473 9.29363 17.0184 9.43117 16.932L11.0106 15.9392C11.1787 15.8338 11.3819 15.7994 11.5754 15.8435C11.7689 15.8876 11.9371 16.0067 12.0429 16.1746C12.1484 16.3428 12.1828 16.5459 12.1387 16.7395C12.0945 16.933 11.9754 17.1011 11.8075 17.207L10.2281 18.1999C10.1091 18.2748 9.97134 18.3145 9.83071 18.3144ZM11.4084 16.2267C11.3434 16.2267 11.2797 16.245 11.2247 16.2796L9.6453 17.2723C9.56753 17.3212 9.51236 17.3989 9.49192 17.4885C9.47148 17.578 9.48745 17.672 9.53632 17.7498C9.58519 17.8276 9.66295 17.8827 9.75249 17.9032C9.84204 17.9236 9.93604 17.9076 10.0138 17.8588L11.5932 16.8659C11.6709 16.8169 11.7259 16.7392 11.7464 16.6496C11.7668 16.5601 11.7509 16.4662 11.7022 16.3884C11.6708 16.3388 11.6274 16.298 11.5759 16.2698C11.5244 16.2416 11.4667 16.2269 11.408 16.2271L11.4084 16.2267Z" fill="#31241B"/>
<path id="Vector_98" d="M25.9643 26.3815C25.926 26.3206 25.8762 26.2678 25.8176 26.2262C25.7589 26.1846 25.6927 26.1549 25.6226 26.1389C25.5525 26.1229 25.4799 26.1209 25.409 26.1329C25.3381 26.145 25.2703 26.1708 25.2094 26.2091L23.6299 27.202C23.5097 27.2805 23.4252 27.4031 23.3945 27.5434C23.3638 27.6836 23.3894 27.8303 23.4658 27.9519C23.5423 28.0734 23.6634 28.1601 23.803 28.1932C23.9427 28.2263 24.0898 28.2033 24.2127 28.129L25.7921 27.1361C25.915 27.0589 26.0022 26.936 26.0344 26.7945C26.0667 26.6529 26.0415 26.5044 25.9643 26.3815Z" fill="#A38DBF"/>
<path id="Vector_99" d="M23.922 28.4148C23.7595 28.4151 23.6013 28.3625 23.4713 28.2649C23.3413 28.1673 23.2465 28.0301 23.2014 27.874C23.1562 27.7178 23.1631 27.5512 23.2209 27.3993C23.2788 27.2474 23.3845 27.1185 23.5221 27.0319L25.1017 26.0392C25.1849 25.9869 25.2777 25.9514 25.3746 25.9349C25.4715 25.9184 25.5708 25.9212 25.6667 25.943C25.7625 25.9649 25.8532 26.0054 25.9334 26.0623C26.0136 26.1192 26.0818 26.1913 26.1341 26.2746C26.2395 26.4428 26.2739 26.6459 26.2298 26.8395C26.1857 27.033 26.0666 27.2011 25.8987 27.307L24.3191 28.2999C24.2003 28.3749 24.0626 28.4148 23.922 28.4148ZM25.4993 26.3271C25.4344 26.3272 25.3708 26.3457 25.3158 26.3803L23.7359 27.3725C23.6974 27.3967 23.664 27.4282 23.6377 27.4653C23.6114 27.5023 23.5927 27.5442 23.5825 27.5886C23.5724 27.6329 23.5711 27.6788 23.5787 27.7236C23.5863 27.7684 23.6027 27.8113 23.6269 27.8498C23.6511 27.8883 23.6826 27.9216 23.7197 27.9479C23.7568 27.9743 23.7987 27.993 23.843 28.0031C23.8873 28.0132 23.9332 28.0145 23.978 28.0069C24.0228 27.9993 24.0657 27.9829 24.1042 27.9588L25.6838 26.966C25.7473 26.926 25.7961 26.8663 25.8228 26.7961C25.8495 26.7259 25.8526 26.6489 25.8317 26.5767C25.8109 26.5045 25.7671 26.4411 25.707 26.396C25.647 26.3509 25.5739 26.3265 25.4988 26.3265L25.4993 26.3271Z" fill="#31241B"/>
<path id="Vector_100" d="M28.4289 21.0408C28.362 21.0671 28.3009 21.1064 28.2492 21.1563C28.1975 21.2063 28.1561 21.2659 28.1274 21.3318C28.0988 21.3978 28.0834 21.4687 28.0821 21.5406C28.0809 21.6125 28.0938 21.6839 28.1201 21.7508L28.8037 23.4867C28.8571 23.6218 28.9619 23.7301 29.0951 23.7879C29.2284 23.8458 29.3791 23.8483 29.5142 23.7949C29.6493 23.7416 29.7577 23.6368 29.8155 23.5035C29.8733 23.3703 29.8758 23.2195 29.8225 23.0844L29.1376 21.349C29.0842 21.2143 28.9797 21.1062 28.8469 21.0485C28.7141 20.9907 28.5638 20.9879 28.4289 21.0408Z" fill="#FFC35C"/>
<path id="Vector_101" d="M29.313 24.0343C29.1625 24.0342 29.0156 23.989 28.8912 23.9044C28.7668 23.8198 28.6707 23.6997 28.6154 23.5598L27.9318 21.824C27.8593 21.6393 27.8629 21.4334 27.9418 21.2513C28.0208 21.0693 28.1688 20.926 28.3532 20.8529C28.5379 20.78 28.7439 20.7834 28.926 20.8625C29.1081 20.9415 29.2514 21.0896 29.3243 21.2743L30.0079 23.0099C30.0526 23.1234 30.069 23.2461 30.0555 23.3674C30.042 23.4886 29.9991 23.6047 29.9305 23.7056C29.8619 23.8065 29.7697 23.889 29.6619 23.9462C29.5541 24.0033 29.434 24.0332 29.312 24.0333L29.313 24.0343ZM28.5016 21.2275C28.4593 21.2442 28.4207 21.269 28.388 21.3006C28.3553 21.3322 28.3292 21.3699 28.3111 21.4116C28.2929 21.4533 28.2832 21.4981 28.2824 21.5436C28.2816 21.589 28.2898 21.6342 28.3065 21.6765L28.9901 23.4123C29.0238 23.4977 29.09 23.5661 29.1742 23.6027C29.2583 23.6393 29.3536 23.641 29.439 23.6075C29.5244 23.5738 29.5929 23.5076 29.6296 23.4235C29.6662 23.3393 29.6679 23.244 29.6344 23.1586L28.9506 21.4227C28.9339 21.3804 28.9091 21.3418 28.8775 21.3091C28.846 21.2764 28.8082 21.2502 28.7665 21.2321C28.7249 21.214 28.68 21.2043 28.6346 21.2035C28.5891 21.2027 28.5439 21.2109 28.5016 21.2275Z" fill="#31241B"/>
<path id="Vector_102" d="M23.3993 8.16264C23.3591 8.30216 23.376 8.45191 23.4463 8.57896C23.5166 8.70601 23.6344 8.79994 23.7739 8.8401L25.5663 9.35724C25.7051 9.3951 25.8531 9.37684 25.9786 9.30642C26.104 9.23599 26.1966 9.11905 26.2365 8.98086C26.2764 8.84267 26.2604 8.69433 26.1918 8.56789C26.1232 8.44145 26.0077 8.34707 25.8701 8.30514L24.0779 7.788C24.0087 7.76797 23.9363 7.76178 23.8648 7.76977C23.7932 7.77777 23.7239 7.79979 23.6609 7.83459C23.5979 7.86939 23.5423 7.91628 23.4974 7.97257C23.4525 8.02886 23.4192 8.09345 23.3993 8.16264Z" fill="#FFC35C"/>
<path id="Vector_103" d="M25.7173 9.58115C25.6471 9.58109 25.5773 9.57116 25.5099 9.55165L23.7175 9.03451C23.5269 8.9792 23.366 8.85055 23.2701 8.67676C23.1742 8.50298 23.1511 8.29826 23.2059 8.10749C23.2613 7.91687 23.39 7.75598 23.5638 7.66006C23.7376 7.56414 23.9423 7.541 24.1331 7.59571L25.9255 8.11286C26.0989 8.16286 26.2485 8.27382 26.3465 8.42533C26.4446 8.57683 26.4847 8.75868 26.4594 8.93738C26.434 9.11608 26.345 9.27961 26.2086 9.39787C26.0723 9.51613 25.8978 9.58115 25.7173 9.58096V9.58115ZM23.5928 8.21858C23.5674 8.30679 23.5781 8.40147 23.6224 8.48184C23.6668 8.5622 23.7412 8.62169 23.8294 8.64723L25.6215 9.16437C25.7087 9.18644 25.801 9.17374 25.879 9.12897C25.9569 9.08421 26.0144 9.01088 26.0393 8.92449C26.0642 8.8381 26.0545 8.74542 26.0123 8.66605C25.97 8.58668 25.8986 8.52684 25.8131 8.49918L24.0207 7.98204C23.9325 7.95664 23.8378 7.96729 23.7574 8.01164C23.6771 8.05599 23.6176 8.13042 23.5921 8.21858H23.5928Z" fill="#31241B"/>
<path id="Vector_104" d="M30.1465 17.2952C30.1062 17.4347 30.123 17.5845 30.1931 17.7116C30.2633 17.8388 30.3811 17.9329 30.5206 17.9732L32.3129 18.4903C32.4517 18.5282 32.5998 18.5099 32.7252 18.4395C32.8506 18.3691 32.9433 18.2521 32.9832 18.114C33.0231 17.9758 33.007 17.8274 32.9384 17.701C32.8699 17.5746 32.7543 17.4802 32.6167 17.4382L30.8245 16.9211C30.685 16.8808 30.5352 16.8976 30.4081 16.9677C30.2809 17.0379 30.1868 17.1557 30.1465 17.2952Z" fill="#A38DBF"/>
<path id="Vector_105" d="M32.4644 18.7136C32.3942 18.7136 32.3244 18.7037 32.2569 18.6843L30.4646 18.1672C30.274 18.1118 30.113 17.9832 30.0171 17.8094C29.9212 17.6356 29.8982 17.4309 29.953 17.2401C30.0084 17.0495 30.1371 16.8887 30.3109 16.7928C30.4847 16.6969 30.6894 16.6737 30.8802 16.7284L32.6726 17.2455C32.8459 17.2956 32.9953 17.4067 33.0933 17.5581C33.1913 17.7096 33.2313 17.8914 33.2059 18.07C33.1806 18.2487 33.0917 18.4122 32.9554 18.5304C32.8192 18.6487 32.6448 18.7138 32.4644 18.7138V18.7136ZM30.3399 17.351C30.3145 17.4392 30.3252 17.5339 30.3696 17.6143C30.4139 17.6946 30.4883 17.7541 30.5764 17.7797L32.3686 18.2968C32.4558 18.3189 32.5481 18.3062 32.626 18.2614C32.704 18.2167 32.7615 18.1433 32.7864 18.0569C32.8112 17.9706 32.8015 17.8779 32.7593 17.7985C32.7171 17.7191 32.6457 17.6593 32.5601 17.6316L30.7678 17.1145C30.6796 17.0892 30.5849 17.0998 30.5046 17.1442C30.4242 17.1885 30.3647 17.2629 30.3391 17.351H30.3399Z" fill="#31241B"/>
<path id="Vector_106" d="M33.6771 26.3129C33.7757 26.4195 33.9126 26.4826 34.0577 26.4883C34.2028 26.494 34.3442 26.4418 34.4509 26.3432L35.8205 25.0766C35.9272 24.978 35.9903 24.841 35.996 24.6959C36.0017 24.5507 35.9496 24.4092 35.851 24.3026C35.7524 24.1959 35.6154 24.1328 35.4703 24.127C35.3251 24.1213 35.1837 24.1735 35.077 24.2721L33.7073 25.5387C33.6544 25.5875 33.6117 25.6463 33.5816 25.7116C33.5514 25.777 33.5345 25.8476 33.5317 25.9195C33.5289 25.9914 33.5403 26.0632 33.5652 26.1307C33.5901 26.1982 33.6282 26.2601 33.6771 26.3129Z" fill="#FFC35C"/>
<path id="Vector_107" d="M34.0783 26.6896C33.9277 26.6898 33.7805 26.6445 33.6561 26.5597C33.5316 26.4748 33.4356 26.3545 33.3807 26.2142C33.3257 26.074 33.3144 25.9205 33.3481 25.7737C33.3818 25.6269 33.459 25.4937 33.5696 25.3914L34.9402 24.1244C35.0122 24.0564 35.0969 24.0032 35.1895 23.9682C35.2822 23.9331 35.3809 23.9167 35.4799 23.92C35.5789 23.9233 35.6762 23.9462 35.7663 23.9874C35.8564 24.0286 35.9374 24.0873 36.0047 24.16C36.0719 24.2328 36.1241 24.3181 36.1581 24.4111C36.1922 24.5042 36.2074 24.603 36.203 24.702C36.1986 24.8009 36.1745 24.898 36.1323 24.9876C36.0901 25.0773 36.0305 25.1576 35.957 25.224L34.5874 26.4906C34.449 26.619 34.2671 26.6901 34.0783 26.6896ZM35.4474 24.3284C35.3603 24.3282 35.2765 24.3611 35.2127 24.4204L33.8431 25.687C33.7776 25.7498 33.7393 25.8358 33.7366 25.9265C33.7338 26.0172 33.7668 26.1054 33.8284 26.172C33.89 26.2387 33.9753 26.2785 34.066 26.2828C34.1566 26.2872 34.2454 26.2559 34.3131 26.1955L35.6828 24.9289C35.7331 24.8824 35.7684 24.822 35.7844 24.7554C35.8004 24.6888 35.7962 24.619 35.7725 24.5547C35.7488 24.4905 35.7066 24.4347 35.6511 24.3944C35.5957 24.3542 35.5296 24.3313 35.4612 24.3286L35.4474 24.3284Z" fill="#31241B"/>
<path id="Vector_108" d="M30.0055 13.4161C30.0261 13.5598 30.1029 13.6895 30.2191 13.7766C30.3353 13.8637 30.4814 13.9011 30.6251 13.8805L32.4719 13.616C32.6147 13.5944 32.7432 13.5172 32.8293 13.4012C32.9155 13.2853 32.9523 13.14 32.9318 12.997C32.9114 12.854 32.8352 12.7249 32.72 12.6378C32.6047 12.5507 32.4597 12.5126 32.3166 12.532L30.4698 12.7965C30.3261 12.8171 30.1964 12.894 30.1094 13.0101C30.0223 13.1263 29.985 13.2723 30.0055 13.4161Z" fill="#FFC35C"/>
<path id="Vector_109" d="M30.5462 14.0881C30.3663 14.0873 30.1926 14.0219 30.057 13.9038C29.9213 13.7856 29.8326 13.6226 29.8072 13.4445C29.7794 13.248 29.8306 13.0484 29.9496 12.8896C30.0687 12.7307 30.2459 12.6256 30.4423 12.5972L32.2891 12.3327C32.4841 12.3078 32.6811 12.3607 32.8375 12.4798C32.9939 12.5989 33.0972 12.7747 33.1251 12.9693C33.153 13.1639 33.1032 13.3617 32.9865 13.52C32.8699 13.6782 32.6957 13.7842 32.5015 13.8151L30.6548 14.0796C30.6188 14.0851 30.5825 14.0879 30.5462 14.0881ZM32.3952 12.7282C32.3786 12.7282 32.3619 12.7294 32.3454 12.7318L30.4987 12.9963C30.4078 13.0094 30.3259 13.058 30.2708 13.1314C30.2158 13.2049 30.1921 13.2972 30.205 13.388C30.2114 13.433 30.2267 13.4764 30.2498 13.5155C30.273 13.5546 30.3037 13.5888 30.3401 13.6161C30.3765 13.6434 30.4179 13.6632 30.462 13.6744C30.506 13.6857 30.5519 13.6881 30.5969 13.6816L32.4437 13.4171C32.531 13.4055 32.6106 13.3609 32.6662 13.2927C32.7219 13.2244 32.7494 13.1375 32.7432 13.0496C32.7371 12.9617 32.6976 12.8795 32.633 12.8197C32.5683 12.7599 32.4833 12.727 32.3952 12.7276V12.7282Z" fill="#31241B"/>
<path id="Vector_110" d="M18.0132 23.8946C18.1142 23.999 18.2525 24.059 18.3976 24.0614C18.5428 24.0638 18.683 24.0085 18.7874 23.9076L20.1282 22.6106C20.1798 22.5606 20.2212 22.5009 20.2498 22.435C20.2784 22.369 20.2937 22.2981 20.2949 22.2262C20.2961 22.1543 20.2832 22.0829 20.2568 22.016C20.2304 21.9492 20.1911 21.8882 20.1411 21.8365C20.0911 21.7848 20.0314 21.7435 19.9655 21.7149C19.8995 21.6862 19.8286 21.6709 19.7567 21.6697C19.6848 21.6685 19.6134 21.6815 19.5466 21.7079C19.4797 21.7343 19.4187 21.7736 19.367 21.8236L18.0263 23.1204C17.9219 23.2214 17.8619 23.3596 17.8595 23.5048C17.857 23.65 17.9123 23.7902 18.0132 23.8946Z" fill="#FFC35C"/>
<path id="Vector_111" d="M18.4069 24.2628H18.3941C18.2957 24.2614 18.1986 24.2406 18.1083 24.2014C18.0181 24.1622 17.9365 24.1056 17.8683 24.0346C17.7305 23.8918 17.655 23.7 17.6583 23.5016C17.6616 23.3031 17.7436 23.114 17.8861 22.9758L19.2269 21.6788C19.2969 21.6094 19.3802 21.555 19.4719 21.5188C19.5635 21.4826 19.6616 21.4653 19.7601 21.4681C19.9082 21.4705 20.0522 21.5169 20.174 21.6012C20.2957 21.6855 20.3897 21.8041 20.4441 21.9418C20.4985 22.0796 20.5108 22.2304 20.4794 22.3751C20.4481 22.5199 20.3745 22.6521 20.268 22.755L18.9273 24.0519C18.7881 24.1875 18.6013 24.2632 18.4069 24.2628ZM18.1579 23.7546C18.2218 23.8205 18.3093 23.8583 18.401 23.8598C18.4928 23.8613 18.5814 23.8264 18.6475 23.7627L19.9882 22.4658C20.0374 22.4182 20.0714 22.357 20.0859 22.2901C20.1003 22.2232 20.0946 22.1534 20.0695 22.0897C20.0443 22.026 20.0009 21.9712 19.9446 21.9322C19.8883 21.8933 19.8217 21.8718 19.7532 21.8707C19.7077 21.8691 19.6623 21.877 19.6199 21.8937C19.5775 21.9104 19.5391 21.9357 19.5069 21.968L18.1662 23.2651C18.1003 23.3289 18.0624 23.4164 18.0608 23.5081C18.0593 23.5999 18.0942 23.6885 18.1579 23.7546Z" fill="#31241B"/>
<path id="Vector_112" d="M13.5294 6.6918C13.5883 6.65055 13.6385 6.59811 13.6771 6.53746C13.7158 6.47681 13.742 6.40915 13.7545 6.33833C13.7669 6.26752 13.7653 6.19495 13.7497 6.12476C13.7341 6.05458 13.7048 5.98816 13.6635 5.9293L12.5936 4.40125C12.5524 4.34235 12.4999 4.29216 12.4393 4.25353C12.3787 4.2149 12.311 4.18859 12.2402 4.1761C12.1694 4.16362 12.0968 4.1652 12.0266 4.18076C11.9565 4.19632 11.89 4.22556 11.8311 4.26679C11.7722 4.30803 11.722 4.36047 11.6834 4.4211C11.6448 4.48174 11.6185 4.54939 11.606 4.62019C11.5935 4.691 11.5951 4.76357 11.6106 4.83376C11.6262 4.90395 11.6554 4.97039 11.6967 5.02929L12.7666 6.55734C12.8078 6.61632 12.8602 6.66659 12.9209 6.70527C12.9816 6.74396 13.0493 6.7703 13.1201 6.78279C13.191 6.79527 13.2636 6.79367 13.3338 6.77805C13.4041 6.76244 13.4706 6.73313 13.5294 6.6918Z" fill="#FFC35C"/>
<path id="Vector_113" d="M13.2158 6.99238C13.0952 6.9925 12.9763 6.96354 12.8692 6.90796C12.7622 6.85238 12.6701 6.77182 12.6008 6.6731L11.5309 5.14466C11.4253 4.98192 11.3869 4.78454 11.4239 4.59409C11.4609 4.40364 11.5704 4.23498 11.7293 4.12364C11.8882 4.0123 12.084 3.96696 12.2757 3.99718C12.4673 4.0274 12.6398 4.13081 12.7567 4.28563L13.8266 5.81407C13.9051 5.92618 13.9513 6.05764 13.9603 6.19418C13.9693 6.33072 13.9408 6.46712 13.8777 6.58857C13.8147 6.71001 13.7195 6.81186 13.6027 6.88305C13.4858 6.95424 13.3517 6.99206 13.2148 6.99238H13.2158ZM12.1432 4.36838C12.0799 4.36847 12.0178 4.38594 11.9636 4.41888C11.9095 4.45182 11.8655 4.49897 11.8363 4.5552C11.8072 4.61143 11.794 4.67458 11.7982 4.73779C11.8024 4.801 11.8239 4.86183 11.8603 4.91367L12.9304 6.44192C12.9565 6.47915 12.9897 6.51087 13.028 6.53529C13.0663 6.5597 13.1091 6.57632 13.1539 6.5842C13.1986 6.59208 13.2445 6.59106 13.2889 6.5812C13.3333 6.57135 13.3753 6.55285 13.4125 6.52677C13.4877 6.47409 13.5389 6.39372 13.5548 6.30332C13.5708 6.21293 13.5502 6.1199 13.4975 6.04468L12.4274 4.51643C12.3954 4.4708 12.3528 4.43357 12.3033 4.40786C12.2538 4.38216 12.1988 4.36875 12.143 4.36876L12.1432 4.36838Z" fill="#31241B"/>
</g>
</svg>
