<svg width="39" height="40" viewBox="0 0 39 40" fill="none" xmlns="http://www.w3.org/2000/svg">
<g id="Group 36249">
<path id="Vector" d="M4.42564 20.2222C5.20944 21.1783 6.0659 22.0724 6.98738 22.8965C8.55462 24.3065 10.3997 25.6298 12.5061 26.8232C15.4494 28.4893 18.3476 29.5852 21.0709 30.1378C21.9572 30.3191 22.8542 30.4433 23.7563 30.5096C27.5112 30.7838 30.7947 29.9252 33.1946 28.0095C34.2143 27.1949 35.0686 26.1926 35.7113 25.0568C35.7153 25.0499 35.7195 25.0417 35.7235 25.0348C39.4279 18.4943 35.1325 9.88554 25.1318 4.22295C18.1718 0.281467 11.5352 -0.483918 6.89477 1.61847C4.86647 2.53887 3.22058 4.00496 2.09472 5.99336C2.02596 6.11551 1.96012 6.23757 1.89725 6.35953C-0.293476 10.6056 0.719818 15.6704 4.42564 20.2222Z" fill="#FFC35C"/>
<g id="Group" opacity="0.3">
<path id="Vector_2" opacity="0.3" d="M1.89777 6.35969C1.91829 6.31866 1.94024 6.27762 1.96217 6.23631C2.00463 6.15538 2.04994 6.07445 2.09525 5.99353C2.23772 5.74533 2.38448 5.50398 2.54092 5.27231C2.59164 5.19965 2.64094 5.12812 2.69166 5.05688C2.74865 4.97738 2.80564 4.8993 2.86263 4.82237C2.91962 4.74543 2.97376 4.67704 3.03132 4.60438C3.03275 4.60438 3.03275 4.60153 3.03418 4.60039C3.09116 4.53029 3.14816 4.46161 3.20515 4.39322C3.26214 4.32484 3.32739 4.24904 3.39037 4.1778C3.44926 4.11207 3.50824 4.04767 3.56732 3.9846C3.56946 3.9825 3.57129 3.9801 3.57273 3.97748C3.63457 3.91308 3.69469 3.8501 3.75653 3.78827C3.81152 3.73128 3.86624 3.67856 3.92237 3.62528C4.09676 3.4543 4.27771 3.2933 4.46378 3.13687L4.61994 3.00949C4.72708 2.92401 4.83394 2.8408 4.94365 2.76101C4.98753 2.72824 5.03141 2.69519 5.07672 2.66384C5.20979 2.56924 5.344 2.4772 5.48135 2.38801C5.54148 2.34982 5.60189 2.31135 5.6623 2.27402C5.72812 2.23271 5.79537 2.19167 5.86177 2.1532L5.91648 2.12044C5.98771 2.07912 6.06067 2.03809 6.13333 1.99819C6.13874 1.99563 6.14415 1.99135 6.14957 1.98879C6.22366 1.94889 6.29908 1.9091 6.37583 1.86939C6.45419 1.82836 6.53226 1.78989 6.61176 1.75C6.61886 1.74746 6.62573 1.74431 6.63228 1.74059C6.71207 1.70212 6.79157 1.66508 6.8725 1.62661C6.87934 1.62376 6.88618 1.61977 6.89301 1.61692C6.89444 1.61692 6.89586 1.61692 6.897 1.61692C7.32565 1.48181 7.76097 1.36882 8.20123 1.2784C8.47707 1.22141 8.75642 1.17249 9.03929 1.13165C19.7017 -0.417931 34.9236 9.10721 35.7109 20.7271V25.0569C35.0682 26.1928 34.2139 27.1951 33.1942 28.0096C33.1914 24.9484 32.1356 22.9614 30.1167 23.6581C29.7173 23.7983 29.3524 24.022 29.0461 24.3143C28.7399 24.6065 28.4994 24.9606 28.3406 25.353C28.1649 25.7885 28.0532 26.2472 28.0089 26.7148C27.987 28.1014 26.2738 28.3729 25.5991 26.8439C25.4649 26.5392 25.1357 26.3594 24.812 26.4392C24.1729 26.5971 23.7341 27.4266 23.7341 29.0807L23.7437 29.6347L23.7574 30.5098C23.6477 30.5015 23.5391 30.4933 23.4294 30.4836C23.3323 30.4753 23.2362 30.4659 23.1388 30.4551C23.1072 30.4511 23.0744 30.4482 23.0428 30.4443C22.9593 30.436 22.8741 30.4263 22.7891 30.4158C22.7712 30.4143 22.7535 30.4115 22.7356 30.4086C22.6356 30.3964 22.5341 30.3841 22.4312 30.369C22.3201 30.3539 22.2076 30.3374 22.095 30.3197C21.7576 30.2677 21.4166 30.2068 21.072 30.1371C18.3496 29.5845 15.449 28.4886 12.5072 26.8225C10.4008 25.6291 8.55486 24.3058 6.98848 22.8958C6.88703 22.8041 6.78559 22.712 6.68699 22.6203C6.65109 22.5875 6.6169 22.5559 6.5827 22.5228C6.50434 22.4502 6.42768 22.3761 6.35075 22.3034L6.18889 22.1458L6.1698 22.1265C6.09173 22.0512 6.01479 21.9743 5.93956 21.8985C5.53341 21.4895 5.15071 21.0757 4.79148 20.6572C4.72708 20.5817 4.66268 20.5062 4.60085 20.431C4.54044 20.3609 4.48287 20.2925 4.42674 20.2224V20.2204C0.719494 15.6691 -0.293804 10.6044 1.89777 6.35969ZM23.6298 17.9693C23.8958 17.8326 24.1445 17.6646 24.3706 17.4689C25.8943 17.5099 27.182 16.746 27.5906 14.3774C27.5906 14.3774 27.1367 11.5977 23.8175 9.33062L23.0442 7.22652C23.0442 7.22652 21.0609 9.50615 22.9 10.5209C22.3748 11.1859 21.5123 11.7237 20.1929 11.0885C20.1929 11.0885 19.965 11.8222 20.389 12.5286C18.624 12.0967 18.1769 10.318 18.1769 10.318C17.491 7.49694 15.4584 7.90813 15.4584 7.90813C10.8177 11.4467 18.9323 18.2887 23.6298 17.9693ZM14.43 26.1813C16.1668 27.1644 17.8888 27.9481 19.568 28.5408C20.0884 28.724 20.5751 28.2005 20.3642 27.6907C20.2928 27.5173 20.2168 27.3442 20.1362 27.1716C19.3099 25.8038 18.0735 25.0418 16.0876 25.3764C14.2608 25.6043 13.2096 24.9415 13.1734 23.1135C13.0004 21.6446 12.4191 20.6587 11.1023 20.5364C10.8898 20.52 10.6834 20.4573 10.4977 20.3526C10.0751 20.1073 9.87761 19.7066 10.1614 18.9811C10.233 18.8002 10.2617 18.6013 10.2136 18.4112C10.1656 18.2173 10.0769 18.0359 9.95317 17.8791C9.82948 17.7223 9.67374 17.5937 9.49635 17.5019C9.24038 17.3719 8.94811 17.3318 8.66656 17.388C8.42814 17.4364 8.20637 17.546 8.02292 17.7058C7.83947 17.8656 7.70062 18.0703 7.61993 18.2998C7.38 18.9837 7.22356 19.7166 7.13551 20.4874C9.01421 22.5607 11.4637 24.5013 14.43 26.1813ZM5.15366 17.9513C5.18785 17.8031 5.21939 17.6591 5.24826 17.5193C5.32634 17.1409 5.3839 16.7978 5.42522 16.5126C5.45665 16.2878 5.44015 16.059 5.37679 15.8411C5.31343 15.6231 5.20467 15.4211 5.05763 15.2482C4.86981 15.0216 4.72103 14.7652 4.61737 14.4897C4.37174 13.8534 4.36348 13.1504 4.53787 12.4902C4.6754 11.9658 4.72727 11.4226 4.69146 10.8816C4.64074 10.1148 4.23554 9.42095 3.60864 8.97642C3.34988 8.79545 3.10819 8.59124 2.88656 8.36633C2.25568 11.4453 3.06495 14.7806 5.15366 17.9513Z" fill="#31241B"/>
</g>
<g id="Group_2" opacity="0.3">
<path id="Vector_3" opacity="0.3" d="M23.7427 29.6348L23.7564 30.5099C26.3429 30.6991 28.706 30.3506 30.7109 29.488C28.6319 30.0038 26.2716 30.0599 23.7427 29.6348Z" fill="#725440"/>
<path id="Vector_4" opacity="0.3" d="M25.1207 30.6292C27.1875 30.6292 29.0716 30.2679 30.7383 29.551L30.6947 29.4216C28.6017 29.9405 26.2668 29.9895 23.7544 29.5672L23.6729 29.5535L23.6891 30.5737L23.7515 30.5782C24.216 30.612 24.6724 30.629 25.1207 30.6292ZM29.8794 29.7368C28.0791 30.3637 26.0465 30.6019 23.8227 30.446L23.8113 29.716C25.9801 30.0722 28.0164 30.0798 29.8809 29.7379L29.8794 29.7368Z" fill="#31241B"/>
</g>
<path id="Vector_5" d="M4.93402 8.48016C2.80257 6.96991 2.60794 4.74157 4.59378 3.03954C4.67756 2.96697 4.76533 2.89574 4.85708 2.82583C5.67404 2.21736 6.57183 1.72574 7.52453 1.36516C8.44251 1.01821 9.39592 0.773472 10.3675 0.635388C21.0265 -0.914189 36.2496 8.61181 37.0369 20.2308V26.0128C37.0369 26.0128 37.0383 28.4816 37.6068 31.3272C38.1553 34.4474 33.6639 34.8244 34.0754 31.3272C35.1724 26.32 34.2178 22.2044 31.4407 23.1615C31.0413 23.3018 30.6764 23.5255 30.3702 23.8178C30.064 24.1101 29.8235 24.4643 29.6649 24.8567C29.4889 25.2922 29.3771 25.7509 29.3329 26.2185C29.3109 27.6051 27.5978 27.8767 26.923 26.3476C26.7888 26.043 26.4597 25.8632 26.136 25.943C25.4968 26.1006 25.058 26.9303 25.058 28.5842L25.1267 32.685C25.1472 33.9388 25.959 35.0726 27.1658 35.4168C27.214 35.4305 27.2633 35.443 27.3114 35.4539C25.8547 35.9953 24.9346 37.1602 24.4929 38.5781C23.9458 39.8125 21.5457 40.0359 21.4263 38.0281C21.4058 37.6936 21.4676 37.3602 21.5787 37.0433C22.4837 34.4391 22.8265 31.8965 22.3604 29.4428V29.4402C22.1779 28.4847 21.8757 27.556 21.4608 26.6762C20.6344 25.3084 19.398 24.5464 17.4121 24.8824C15.5853 25.1103 14.5341 24.4475 14.4979 22.6193C14.3249 21.1506 13.7436 20.1644 12.4269 20.0424C12.2143 20.0259 12.008 19.9632 11.8222 19.8586C11.3996 19.613 11.2021 19.2127 11.4862 18.4872C11.5575 18.3062 11.5863 18.1073 11.5381 17.9173C11.4903 17.7233 11.4015 17.5419 11.2778 17.3851C11.1541 17.2282 10.9983 17.0997 10.8209 17.008C10.5649 16.878 10.2726 16.8378 9.99109 16.894C9.75267 16.9425 9.5309 17.052 9.34745 17.2118C9.164 17.3716 9.02515 17.5763 8.94446 17.8058C8.51532 19.0249 8.35489 20.406 8.36714 21.8736C8.3754 22.7897 7.86106 23.6508 7.0176 24.0087C5.41302 24.6892 3.89907 23.1598 5.37883 20.491C5.99035 19.3842 6.35936 18.0663 6.57564 17.0214C6.65372 16.6427 6.71128 16.2999 6.75259 16.0146C6.78412 15.7899 6.76766 15.561 6.7043 15.3431C6.64094 15.1251 6.53211 14.9231 6.385 14.7503C6.19719 14.5236 6.0484 14.2673 5.94475 13.9917C5.69912 13.3554 5.69085 12.6525 5.86525 11.9922C6.00291 11.4677 6.05479 10.9244 6.01884 10.3834C5.96669 9.61827 5.56063 8.92441 4.93402 8.48016ZM24.9557 17.4742C26.3218 16.7541 26.6247 15.7983 25.7359 15.2264C25.5253 15.0961 25.2901 15.0106 25.0449 14.9754C23.9709 14.8067 23.3828 14.3787 23.3785 13.6361C23.4279 12.7966 23.0361 12.2888 22.2031 12.1125C20.0323 11.9218 19.5043 9.82201 19.5043 9.82201C18.8184 7.00097 16.7861 7.41244 16.7861 7.41244C12.1436 10.9499 20.2585 17.7922 24.9557 17.4739V17.4742Z" fill="#A38DBF"/>
<g id="Group_3" opacity="0.55">
<path id="Vector_6" opacity="0.55" d="M6.23335 23.0282C7.07681 22.6703 7.59115 21.8092 7.58288 20.8931C7.57063 19.4256 7.73106 18.0435 8.1602 16.8254C8.43062 16.0586 9.31227 15.6571 10.0378 16.0258C10.2152 16.1175 10.371 16.246 10.4947 16.4029C10.6184 16.5597 10.7071 16.7411 10.755 16.9351C10.7593 16.9502 10.7621 16.9664 10.7661 16.9815C10.0514 16.6592 9.20798 17.0599 8.94468 17.8079C8.51554 19.0269 8.35511 20.4081 8.36736 21.8756C8.37563 22.7917 7.86129 23.6529 7.01783 24.0108C6.04556 24.4222 5.10863 24.0247 4.84676 23.0522C5.24056 23.2382 5.73297 23.2408 6.23335 23.0282ZM23.7098 37.5959C24.094 36.3643 24.8385 35.322 25.9823 34.7179C26.3113 35.0481 26.7191 35.2888 27.1672 35.4172C27.2153 35.4308 27.2646 35.4434 27.3128 35.4542C25.8561 35.9956 24.936 37.1605 24.4943 38.5784C23.9842 39.7277 21.8679 40.0006 21.4841 38.4112C22.2668 38.7562 23.3628 38.3804 23.7098 37.5959ZM25.3529 24.9608C25.6766 24.8813 26.0057 25.0608 26.1402 25.3654C26.2361 25.5917 26.3732 25.7982 26.5446 25.9744C26.4157 25.9205 26.273 25.9094 26.1374 25.9427C25.4982 26.1003 25.0594 26.9301 25.0594 28.584L25.128 32.6847C25.135 33.1214 25.2381 33.5513 25.4298 33.9437C24.7662 33.4142 24.3575 32.5887 24.3424 31.7028L24.2738 27.602C24.2749 25.9479 24.7137 25.1184 25.3529 24.9608ZM28.5498 25.2355C28.5941 24.7679 28.7059 24.3092 28.8817 23.8737C29.0404 23.4812 29.2808 23.1271 29.587 22.8348C29.8932 22.5425 30.2582 22.3188 30.6576 22.1785C31.8136 21.7796 32.6522 22.2594 33.1592 23.3155C32.701 22.9975 32.1265 22.9245 31.442 23.1604C31.0427 23.3007 30.6777 23.5244 30.3715 23.8167C30.0653 24.109 29.8249 24.4632 29.6662 24.8556C29.4903 25.2911 29.3784 25.7498 29.3342 26.2174C29.3123 27.604 27.5992 27.8756 26.9244 26.3465C26.9041 26.3011 26.8794 26.2579 26.8506 26.2174C27.6089 26.6697 28.5332 26.2528 28.5498 25.2355Z" fill="#FFF9F2"/>
</g>
<g id="Group_4" opacity="0.3">
<path id="Vector_7" opacity="0.3" d="M4.93447 8.48005C5.56137 8.92457 5.96715 9.61986 6.0173 10.385C6.05325 10.926 6.00138 11.4693 5.86371 11.9938C5.68932 12.6549 5.69758 13.357 5.94321 13.9933C6.04686 14.2688 6.19565 14.5252 6.38347 14.7519C6.53058 14.9247 6.6394 15.1267 6.70276 15.3446C6.76612 15.5626 6.78258 15.7915 6.75105 16.0162C6.70974 16.3012 6.65218 16.6431 6.5741 17.023C7.18561 16.6582 7.90968 16.1 8.04845 15.4415C8.29522 14.2635 7.52727 13.8742 8.35819 11.5892C9.18911 9.30413 8.87367 8.50313 8.87367 8.50313C8.10857 7.4773 7.65322 6.58026 7.40759 5.80946C8.04246 6.06051 8.68162 5.80148 9.01216 5.02099C9.30994 4.057 9.87215 3.18732 10.7609 2.43447C11.326 1.95575 11.2106 1.04931 10.5483 0.720191C10.4894 0.689986 10.4289 0.6632 10.3685 0.634705C9.39695 0.772789 8.44353 1.01752 7.52556 1.36447C6.57285 1.72505 5.67507 2.21667 4.85811 2.82514C4.76635 2.89505 4.67859 2.96629 4.59481 3.03886C2.6084 4.74117 2.80416 6.96979 4.93447 8.48005Z" fill="#31241B"/>
</g>
<g id="Group_5" opacity="0.55">
<path id="Vector_8" opacity="0.55" d="M26.8506 26.2184C26.7382 26.1509 26.6353 26.0689 26.5445 25.9744C26.6677 26.025 26.7738 26.1096 26.8506 26.2184Z" fill="#FFF9F2"/>
<path id="Vector_9" opacity="0.55" d="M27.0918 26.4443L26.9063 26.179C26.822 26.0597 26.7056 25.9667 26.5706 25.9109L26.268 25.7855L26.496 26.0217C26.5907 26.121 26.6982 26.2072 26.8157 26.2782L27.0918 26.4443Z" fill="#31241B"/>
</g>
<g id="Group_6" opacity="0.55">
<path id="Vector_10" opacity="0.55" d="M37.0378 20.2303V26.0123C37.0378 26.0123 37.0393 28.4811 37.6078 31.3267C37.852 32.7161 37.0977 33.5607 36.2212 33.7625C36.6326 33.3427 36.8686 32.6885 36.7164 31.8234C36.1465 28.9775 36.1465 26.509 36.1465 26.509V20.7267C35.258 7.606 15.9615 -2.84439 5.61544 2.30957C15.6994 -3.95514 36.1231 6.72293 37.0378 20.2303ZM15.8943 7.90777C16.013 7.88812 16.1336 7.88219 16.2536 7.8901C12.8826 11.4859 20.2789 17.6272 24.7908 17.4819C24.5689 17.6729 24.3249 17.8368 24.0642 17.97C19.3679 18.2883 11.2532 11.4463 15.8954 7.90777H15.8943Z" fill="#FFF9F2"/>
</g>
<g id="Group_7" opacity="0.25">
<path id="Vector_11" opacity="0.25" d="M32.7421 18.3745C33.4134 17.107 33.6011 15.6386 33.2701 14.243C32.9392 12.8473 32.1122 11.6196 30.9432 10.7885C30.6833 10.6038 30.2903 10.5522 29.9743 10.5189C29.6583 10.4856 29.3266 10.5146 29.0414 10.6565L29.0328 10.6608C28.5969 10.8819 28.5051 11.4607 28.8231 11.8317C30.1487 13.3776 30.6349 15.6236 30.0199 17.5712C29.8179 18.2121 30.3667 18.972 31.0019 19.1915C31.637 19.4109 32.4278 18.9683 32.7421 18.3745Z" fill="#FFF9F2"/>
</g>
<g id="Group_8" opacity="0.25">
<path id="Vector_12" opacity="0.25" d="M29.7714 20.3461C29.8568 20.82 29.6554 21.3149 29.3243 21.6654C28.9931 22.0159 28.5478 22.2379 28.0921 22.3949C27.6775 22.5374 27.2373 22.6334 26.8016 22.5944C26.3659 22.5553 25.9279 22.3718 25.6501 22.0324C25.3722 21.6931 25.2819 21.189 25.4879 20.8017C25.7267 20.3529 26.263 20.168 26.75 20.0221C27.3715 19.8357 28.0303 19.5474 28.67 19.4451C29.1906 19.3621 29.6833 19.8651 29.7714 20.3461Z" fill="#FFF9F2"/>
</g>
<path id="Vector_13" d="M5.11437 21.4373C5.19384 21.4374 5.27163 21.4144 5.33833 21.3712C5.40502 21.328 5.45776 21.2664 5.49017 21.1938C5.52257 21.1212 5.53326 21.0408 5.52093 20.9623C5.5086 20.8838 5.47379 20.8106 5.42069 20.7514C1.11789 15.9542 0.00885391 10.513 2.45375 6.19627C3.09912 5.04721 3.96767 4.03876 5.00837 3.23019L5.02803 3.2148C5.05367 3.19428 5.08046 3.1732 5.10696 3.15297C9.6779 -0.30067 17.2745 0.24644 24.9295 4.58087C32.3801 8.79989 36.8593 14.8899 36.6191 20.4747C36.6159 20.5292 36.6236 20.5838 36.6417 20.6352C36.6599 20.6867 36.688 20.7341 36.7246 20.7745C36.7612 20.815 36.8054 20.8478 36.8548 20.871C36.9042 20.8943 36.9577 20.9074 37.0122 20.9098C37.0667 20.9121 37.1212 20.9036 37.1724 20.8847C37.2235 20.8658 37.2705 20.8369 37.3104 20.7997C37.3503 20.7625 37.3824 20.7178 37.4049 20.668C37.4274 20.6183 37.4397 20.5646 37.4412 20.5101C37.5654 17.6218 36.5257 14.5631 34.4344 11.6651C32.3212 8.73635 29.1744 6.03898 25.335 3.86507C21.3795 1.62533 17.3637 0.323946 13.722 0.101397C10.1261 -0.118587 6.9754 0.71006 4.61 2.49729C4.5778 2.52151 4.54674 2.54601 4.51682 2.56995L4.50115 2.58249C3.37518 3.45702 2.43541 4.54782 1.7371 5.79078C-0.890175 10.4298 0.257618 16.2278 4.80747 21.3008C4.8461 21.3439 4.89342 21.3784 4.94631 21.4019C4.9992 21.4254 5.05648 21.4375 5.11437 21.4373Z" fill="#31241B"/>
<path id="Vector_14" d="M25.0986 30.9718C29.1962 30.9718 32.553 29.6112 34.8072 27.0366C34.8749 26.954 34.9078 26.8482 34.899 26.7418C34.8901 26.6353 34.8402 26.5364 34.7598 26.4661C34.6793 26.3958 34.5747 26.3595 34.468 26.3649C34.3613 26.3704 34.2609 26.4171 34.188 26.4952C32.0947 28.886 28.9517 30.1498 25.098 30.1498C25.0957 30.1498 25.094 30.148 25.0914 30.1498C25.0374 30.1502 24.984 30.1613 24.9342 30.1823C24.8845 30.2034 24.8394 30.2341 24.8014 30.2726C24.7635 30.3111 24.7336 30.3567 24.7133 30.4068C24.693 30.4569 24.6828 30.5105 24.6833 30.5645C24.6837 30.6185 24.6947 30.672 24.7158 30.7217C24.7369 30.7715 24.7676 30.8166 24.8061 30.8545C24.8446 30.8924 24.8902 30.9224 24.9403 30.9426C24.9904 30.9629 25.044 30.9731 25.098 30.9727L25.0986 30.9718Z" fill="#31241B"/>
<path id="Vector_15" d="M22.5003 30.7921C22.6046 30.7919 22.705 30.7521 22.781 30.6808C22.8571 30.6095 22.9033 30.5119 22.9102 30.4079C22.9171 30.3038 22.8843 30.201 22.8183 30.1202C22.7523 30.0395 22.6581 29.9868 22.5547 29.9728C19.3715 29.5425 16.0578 28.3628 12.7087 26.4662C10.9748 25.4848 9.38419 24.3909 7.98107 23.2149C7.93981 23.1791 7.89184 23.152 7.83997 23.1349C7.7881 23.1179 7.73336 23.1114 7.67894 23.1157C7.62452 23.1201 7.57151 23.1352 7.523 23.1603C7.47449 23.1853 7.43145 23.2197 7.39638 23.2616C7.36131 23.3034 7.33491 23.3518 7.31873 23.404C7.30255 23.4561 7.29691 23.5109 7.30213 23.5653C7.30735 23.6196 7.32334 23.6724 7.34915 23.7205C7.37497 23.7686 7.41009 23.8111 7.45248 23.8455C8.89378 25.0537 10.526 26.1764 12.3033 27.1823C15.7449 29.1308 19.157 30.3438 22.4448 30.7884C22.4632 30.7907 22.4817 30.7919 22.5003 30.7921Z" fill="#31241B"/>
<path id="Vector_16" d="M19.313 6.94456C18.8044 6.65676 18.2083 6.58124 17.6204 6.67271C17.0107 6.75941 16.4427 7.03252 15.9942 7.45463C15.5454 7.8755 15.2071 8.41663 15.0578 9.01503C14.9085 9.61344 14.9381 10.2269 15.0698 10.7934C15.2014 11.3599 15.434 11.8911 15.7152 12.3795C15.9957 12.8632 16.3214 13.3192 16.6881 13.7413C17.4115 14.5833 18.2524 15.3011 19.1466 15.9306C20.0408 16.56 21.0134 17.0972 22.0631 17.4727C22.5892 17.6554 23.1343 17.8007 23.6999 17.8697C24.2655 17.9386 24.8508 17.9372 25.431 17.8078C26.0112 17.6785 26.5822 17.4035 27.025 16.9721C27.2461 16.7578 27.4341 16.5117 27.5827 16.242C27.7335 15.9728 27.8402 15.6811 27.8987 15.378C27.9581 15.081 27.9782 14.7775 27.9585 14.4753C27.936 14.179 27.9078 13.8829 27.8366 13.5991C27.7681 13.3176 27.6563 13.0484 27.5052 12.8012C27.3542 12.5475 27.1416 12.336 26.8871 12.1863C26.8634 12.1726 26.8365 12.1653 26.8092 12.1652C26.7818 12.1652 26.7549 12.1723 26.7311 12.1859C26.7073 12.1994 26.6876 12.219 26.6737 12.2427C26.6599 12.2663 26.6525 12.2931 26.6523 12.3205V12.3279C26.6523 12.6331 26.7141 12.8836 26.7757 13.1281C26.8489 13.3683 26.9153 13.6016 26.9894 13.8305C27.0656 14.0561 27.115 14.29 27.1364 14.5272C27.1525 14.7573 27.1377 14.9886 27.0923 15.2148C27.0506 15.4363 26.9727 15.6494 26.8617 15.8457C26.753 16.0434 26.6154 16.2237 26.4534 16.3808C26.1306 16.6942 25.7105 16.9048 25.2492 17.006C24.7879 17.1071 24.2932 17.1165 23.8011 17.0536C23.3089 16.9906 22.8168 16.8641 22.337 16.6974C21.3778 16.3554 20.466 15.8522 19.6185 15.2572C18.7711 14.6622 17.9792 13.9823 17.3127 13.2056C16.9798 12.8226 16.6841 12.409 16.4293 11.9703C16.1788 11.536 15.9825 11.0758 15.8714 10.6062C15.7602 10.1366 15.7431 9.65817 15.8557 9.21821C15.9639 8.77654 16.2107 8.3811 16.5598 8.08979C16.9066 7.80484 17.3269 7.62731 17.7834 7.5119C18.0114 7.45491 18.2504 7.41929 18.4958 7.37171C18.7411 7.32412 18.9979 7.28964 19.272 7.21584L19.2783 7.21413C19.3159 7.20398 19.348 7.17932 19.3674 7.14555C19.3869 7.11178 19.3921 7.07167 19.382 7.03404C19.3717 6.9963 19.3469 6.96416 19.313 6.94456Z" fill="#31241B"/>
<path id="Vector_17" d="M33.4692 19.3805C33.5558 19.3805 33.6403 19.3532 33.7105 19.3024C33.7807 19.2517 33.8331 19.18 33.8602 19.0977C33.8873 19.0154 33.8877 18.9266 33.8614 18.8441C33.8351 18.7615 33.7834 18.6893 33.7137 18.6379L31.7922 17.2203C31.7043 17.1574 31.5952 17.1316 31.4884 17.1485C31.3817 17.1655 31.2859 17.2237 31.2217 17.3107C31.1575 17.3977 31.1302 17.5064 31.1456 17.6134C31.1609 17.7204 31.2178 17.8171 31.3038 17.8825L33.225 19.3001C33.2957 19.3524 33.3813 19.3805 33.4692 19.3805Z" fill="#FFF9F2"/>
<path id="Vector_18" d="M9.83343 9.62364C9.92009 9.62368 10.0045 9.59636 10.0748 9.54558C10.145 9.4948 10.1974 9.42315 10.2245 9.34084C10.2516 9.25853 10.252 9.16977 10.2257 9.0872C10.1994 9.00464 10.1477 8.93249 10.0779 8.88105L8.15649 7.4634C8.11307 7.43039 8.06352 7.40635 8.01073 7.39266C7.95793 7.37897 7.90295 7.37591 7.84896 7.38367C7.79497 7.39142 7.74306 7.40983 7.69626 7.43782C7.64945 7.46581 7.60868 7.50283 7.57631 7.54673C7.54393 7.59062 7.52061 7.64051 7.50769 7.6935C7.49477 7.74649 7.49251 7.80152 7.50105 7.85538C7.50959 7.90925 7.52876 7.96088 7.55743 8.00728C7.5861 8.05367 7.62371 8.09391 7.66807 8.12564L9.58923 9.54328C9.65988 9.59562 9.74551 9.6238 9.83343 9.62364Z" fill="#31241B"/>
<path id="Vector_19" d="M21.4618 6.78782C21.5318 6.78778 21.6006 6.76988 21.6618 6.73583C21.7229 6.70177 21.7744 6.65269 21.8113 6.59321C21.8481 6.53373 21.8693 6.46583 21.8726 6.39592C21.8759 6.32601 21.8614 6.25641 21.8303 6.1937L20.8706 4.2543C20.8471 4.20506 20.8141 4.16098 20.7734 4.12461C20.7327 4.08825 20.6853 4.06034 20.6337 4.0425C20.5822 4.02466 20.5276 4.01724 20.4731 4.02069C20.4187 4.02413 20.3655 4.03837 20.3166 4.06257C20.2677 4.08677 20.2241 4.12044 20.1884 4.16164C20.1526 4.20284 20.1254 4.25074 20.1083 4.30255C20.0913 4.35436 20.0846 4.40904 20.0889 4.46342C20.0932 4.51781 20.1082 4.5708 20.1331 4.61933L21.0931 6.55872C21.1271 6.62748 21.1796 6.68537 21.2448 6.72586C21.31 6.76634 21.3851 6.7878 21.4618 6.78782Z" fill="#FFF9F2"/>
<path id="Vector_20" d="M12.7008 5.29359C12.786 5.29333 12.869 5.26667 12.9383 5.21728C13.0077 5.1679 13.0601 5.09821 13.0882 5.01783C13.1163 4.93744 13.1189 4.85032 13.0954 4.76844C13.072 4.68657 13.0237 4.61399 12.9573 4.56068L11.1906 3.14589C11.1485 3.11112 11.0999 3.08507 11.0477 3.06925C10.9955 3.05343 10.9406 3.04815 10.8863 3.05373C10.8321 3.05931 10.7794 3.07563 10.7315 3.10175C10.6836 3.12786 10.6413 3.16325 10.6072 3.20585C10.5731 3.24844 10.5478 3.2974 10.5328 3.34987C10.5178 3.40233 10.5134 3.45726 10.5198 3.51146C10.5262 3.56565 10.5434 3.61803 10.5702 3.66553C10.5971 3.71304 10.6331 3.75473 10.6762 3.78818L12.4429 5.20326C12.516 5.26198 12.607 5.29387 12.7008 5.29359Z" fill="#F6F4F9"/>
<path id="Vector_21" d="M22.5233 12.5385C22.975 12.5342 23.4242 12.4719 23.86 12.3533C23.9131 12.3403 23.963 12.3169 24.007 12.2844C24.0509 12.252 24.0879 12.2111 24.1159 12.1641C24.1438 12.1172 24.1621 12.0652 24.1698 12.0111C24.1774 11.957 24.1742 11.9019 24.1603 11.8491C24.1465 11.7963 24.1222 11.7467 24.089 11.7034C24.0558 11.66 24.0143 11.6237 23.9669 11.5965C23.9195 11.5694 23.8672 11.5519 23.813 11.5452C23.7588 11.5385 23.7037 11.5426 23.6512 11.5574C22.6513 11.8196 21.8078 11.7537 21.1436 11.3616C20.1816 10.7917 19.9049 9.7317 19.9023 9.72116C19.1329 6.55817 16.7285 7.00412 16.7043 7.00897C16.5996 7.03253 16.5083 7.09605 16.4498 7.18597C16.3913 7.27589 16.3702 7.38511 16.391 7.49035C16.4119 7.59558 16.473 7.68852 16.5614 7.74934C16.6498 7.81017 16.7584 7.83407 16.8641 7.81596C17.0351 7.78461 18.5354 7.58286 19.1036 9.91891C19.1187 9.97904 19.4706 11.3286 20.7247 12.07C21.2544 12.3821 21.856 12.5385 22.5233 12.5385Z" fill="#31241B"/>
<path id="Vector_22" d="M24.9566 17.8851C25.0233 17.8851 25.089 17.8687 25.1481 17.8375C26.0884 17.3417 26.6233 16.7117 26.6512 16.0637C26.6714 15.6001 26.4255 15.1803 25.9593 14.88C25.7008 14.7179 25.4113 14.6117 25.1093 14.5683C23.8225 14.3671 23.7928 13.8542 23.7908 13.6456C23.8478 12.6115 23.313 11.9242 22.2848 11.7079C22.178 11.6856 22.0667 11.7066 21.9754 11.7663C21.884 11.8261 21.8202 11.9196 21.7979 12.0265C21.7755 12.1333 21.7965 12.2446 21.8563 12.3359C21.916 12.4273 22.0096 12.4911 22.1164 12.5135C22.7516 12.6462 23.0066 12.9742 22.9687 13.6097C22.9687 13.6188 22.9687 13.6276 22.9687 13.6382C22.973 14.2904 23.3255 15.1222 24.9828 15.3815C25.1717 15.4074 25.3531 15.4726 25.5154 15.5727C25.7311 15.7115 25.8371 15.8648 25.8288 16.0286C25.8177 16.2851 25.5322 16.7054 24.7642 17.1098C24.683 17.1528 24.6185 17.2217 24.581 17.3056C24.5435 17.3894 24.5352 17.4834 24.5572 17.5726C24.5793 17.6618 24.6306 17.741 24.7029 17.7977C24.7752 17.8544 24.8644 17.8853 24.9563 17.8854L24.9566 17.8851Z" fill="#31241B"/>
<path id="Vector_23" d="M22.9056 39.9334C23.7368 39.9334 24.5541 39.4572 24.8695 38.7451C24.8759 38.7307 24.8814 38.716 24.886 38.7009C25.1929 37.7167 25.8876 36.4213 27.4555 35.8391C27.5386 35.8083 27.6095 35.7513 27.6576 35.6769C27.7057 35.6024 27.7285 35.5144 27.7226 35.426C27.7167 35.3375 27.6824 35.2533 27.6247 35.186C27.5671 35.1186 27.4892 35.0716 27.4027 35.0521C27.3617 35.0427 27.321 35.0324 27.2808 35.0208C26.2726 34.7332 25.5562 33.7701 25.5383 32.6782L25.4705 28.5774C25.4705 27.2985 25.7554 26.4602 26.2353 26.3422C26.3572 26.312 26.4917 26.3858 26.5487 26.5132C27.0129 27.5647 27.8963 27.8983 28.5656 27.7627C29.2646 27.6202 29.726 27.0252 29.7451 26.2428C29.7865 25.8202 29.8881 25.4058 30.0468 25.012C30.1829 24.6734 30.3899 24.3677 30.6538 24.1156C30.9177 23.8635 31.2325 23.6707 31.577 23.5502C32.1831 23.3414 32.6698 23.4106 33.0648 23.7622C34.1903 24.7644 34.4357 27.7687 33.6748 31.2386C33.6719 31.2518 33.6698 31.2652 33.6683 31.2787C33.5278 32.473 33.9065 33.4356 34.7075 33.9197C35.4302 34.3565 36.3602 34.3209 37.0798 33.8285C37.8659 33.2899 38.2065 32.3522 38.0136 31.2554C37.4585 28.4765 37.4488 26.0362 37.4488 26.0122V20.2314C37.4488 20.1222 37.4054 20.0176 37.3283 19.9404C37.2511 19.8633 37.1464 19.8199 37.0373 19.8199C36.9282 19.8199 36.8235 19.8633 36.7463 19.9404C36.6692 20.0176 36.6258 20.1222 36.6258 20.2314V26.0125C36.6258 26.1154 36.6349 28.5549 37.2049 31.4075C37.3376 32.1632 37.1231 32.8018 36.6147 33.15C36.1688 33.4555 35.5732 33.482 35.133 33.2159C34.6166 32.9024 34.3864 32.2573 34.4833 31.3947C35.3128 27.5934 34.9714 24.3581 33.6119 23.1479C33.1799 22.7635 32.4299 22.3862 31.3089 22.7726C30.8536 22.9314 30.4376 23.1856 30.0887 23.5184C29.7397 23.8511 29.4659 24.2545 29.2857 24.7017C29.0951 25.1739 28.9737 25.6712 28.9252 26.1781C28.9252 26.1892 28.9235 26.2006 28.9232 26.212C28.9173 26.6135 28.7238 26.8916 28.4029 26.9566C28.0561 27.0269 27.5817 26.8141 27.3024 26.1812C27.0833 25.6851 26.5521 25.4167 26.0398 25.5432C25.4052 25.6996 24.6489 26.3542 24.6489 28.5842L24.717 32.6918C24.7361 33.8576 25.361 34.9145 26.3077 35.4844C25.2747 36.1175 24.5233 37.12 24.1098 38.4297C23.889 38.8978 23.2521 39.1925 22.6785 39.089C22.3214 39.0246 21.886 38.7836 21.8396 38.0022C21.8242 37.7458 21.8681 37.4682 21.9692 37.1759C23.3655 33.1597 23.3225 29.6668 21.8356 26.4981C21.8295 26.4851 21.8228 26.4724 21.8154 26.4602C20.8197 24.8112 19.3192 24.1421 17.355 24.4718C16.4822 24.5789 15.8427 24.4629 15.4538 24.1264C15.1078 23.8269 14.9255 23.316 14.9124 22.6079C14.9124 22.5945 14.9124 22.5811 14.9098 22.568C14.6955 20.7483 13.8743 19.7598 12.468 19.6293C12.3152 19.6179 12.1665 19.5737 12.0323 19.4996C11.8705 19.4056 11.626 19.2637 11.8725 18.6336C11.9822 18.3555 12.0058 18.0714 11.9403 17.8135C11.8779 17.5628 11.7627 17.3283 11.6023 17.1257C11.442 16.9231 11.2402 16.757 11.0105 16.6387C10.793 16.5294 10.5547 16.4677 10.3115 16.4579C10.0683 16.4481 9.82584 16.4903 9.60026 16.5817C9.35928 16.6783 9.14171 16.8253 8.9621 17.0128C8.78249 17.2002 8.64497 17.4239 8.55876 17.6688C8.14073 18.8545 7.94411 20.2308 7.95779 21.8761C7.96492 22.6549 7.53349 23.3431 6.85901 23.6292C6.32415 23.8571 5.81665 23.7825 5.50177 23.4323C5.11823 23.0048 4.97974 22.0619 5.74085 20.6899C6.61851 19.1032 7.00718 17.1166 7.16077 16.0736C7.20041 15.7915 7.18001 15.5041 7.1009 15.2304C7.02179 14.9567 6.88576 14.7028 6.70172 14.4853C6.54354 14.2933 6.41836 14.0763 6.33128 13.8433C6.12668 13.313 6.10331 12.7092 6.26545 12.0962C6.41463 11.529 6.47083 10.9413 6.43186 10.356C6.37345 9.47267 5.91553 8.66654 5.17579 8.14194C4.19355 7.44608 3.64416 6.5727 3.62849 5.6825C3.61253 4.77777 4.12516 3.90211 5.11024 3.1504C5.19716 3.0842 5.25422 2.98618 5.26886 2.87792C5.2835 2.76965 5.25453 2.66 5.18832 2.57309C5.12212 2.48618 5.02411 2.42913 4.91584 2.41448C4.80757 2.39984 4.69792 2.42881 4.61101 2.49501C3.42617 3.39888 2.78503 4.53557 2.80555 5.69561C2.82606 6.85566 3.49855 7.96128 4.69963 8.81215C5.23648 9.19285 5.56845 9.77472 5.61148 10.4079C5.64462 10.9044 5.59709 11.403 5.47072 11.8842C5.26469 12.6659 5.29718 13.4446 5.56418 14.1371C5.68415 14.4547 5.85604 14.7503 6.07282 15.0116C6.18255 15.14 6.26386 15.2902 6.3114 15.4522C6.35894 15.6143 6.37163 15.7846 6.34865 15.9519C6.20333 16.9399 5.83745 18.8169 5.02277 20.2892C4.19868 21.7758 4.14967 23.1561 4.89198 23.9811C5.4445 24.5949 6.32215 24.7505 7.18243 24.3851C8.16466 23.9683 8.79271 22.98 8.78273 21.8673C8.76962 20.3191 8.95114 19.0349 9.33697 17.9406C9.38403 17.8064 9.45922 17.6837 9.5575 17.5808C9.65578 17.4779 9.77489 17.3971 9.90687 17.3439C10.0235 17.2953 10.1494 17.2725 10.2757 17.2771C10.402 17.2818 10.5258 17.3137 10.6386 17.3707C10.7638 17.4359 10.8736 17.5271 10.9607 17.6382C11.0478 17.7492 11.1101 17.8776 11.1436 18.0147C11.1721 18.1287 11.1399 18.2492 11.1074 18.3313C10.6908 19.3956 11.1561 19.9399 11.6203 20.2092C11.8578 20.3443 12.1221 20.4255 12.3945 20.4471C13.0693 20.5095 13.8717 20.8175 14.092 22.6432C14.1139 23.5836 14.3918 24.2914 14.9183 24.7468C15.492 25.2437 16.35 25.4247 17.4687 25.2856L17.4864 25.2827C19.1263 25.0055 20.276 25.5084 21.103 26.8654C22.4853 29.8252 22.5152 33.1087 21.195 36.9037C21.058 37.2981 20.9993 37.6834 21.0212 38.049C21.0808 39.0463 21.6467 39.7359 22.5354 39.8963C22.6575 39.9196 22.7814 39.932 22.9056 39.9334Z" fill="#31241B"/>
<path id="Vector_24" d="M4.84202 30.4524C4.70752 28.6606 4.99248 27.5085 5.82397 27.1897C6.29158 27.0107 6.82131 27.2127 7.07948 27.6422C8.80487 30.5262 7.51944 32.0792 6.1927 31.9179C5.45381 31.8284 4.89787 31.1941 4.84202 30.4524Z" fill="#A38DBF"/>
<path id="Vector_25" d="M6.3849 31.9983C6.64139 31.9996 6.89402 31.9357 7.11903 31.8126C7.34404 31.6895 7.53405 31.5112 7.67119 31.2944C8.22514 30.4421 8.03108 29.098 7.13889 27.6071C6.8585 27.1384 6.29572 26.9358 5.79961 27.1258C4.96498 27.4456 4.62931 28.5355 4.77378 30.4575C4.83362 31.2511 5.42689 31.8942 6.18458 31.986C6.25104 31.9942 6.31794 31.9983 6.3849 31.9983ZM6.17432 27.1942C6.34515 27.1957 6.51275 27.241 6.66104 27.3258C6.80933 27.4106 6.93335 27.5321 7.0212 27.6786C7.88547 29.1231 8.08038 30.4142 7.55635 31.2209C7.41441 31.4444 7.21136 31.6226 6.97126 31.7343C6.73116 31.8459 6.46408 31.8864 6.20168 31.8509C5.50867 31.7669 4.96612 31.177 4.91112 30.4484C4.77377 28.6207 5.08951 27.5461 5.84948 27.2549C5.95314 27.215 6.06324 27.1944 6.17432 27.1942Z" fill="#31241B"/>
<g id="Group_9" opacity="0.3">
<path id="Vector_26" opacity="0.3" d="M4.84185 30.4522C4.89884 31.1931 5.45365 31.8291 6.19282 31.9183C6.89637 32.0038 7.58909 31.6068 7.82617 30.7839C7.56065 30.9203 7.25996 30.9729 6.9639 30.9346C6.22616 30.8455 5.66936 30.2117 5.61322 29.47C5.54313 28.5345 5.587 27.7734 5.76538 27.2137C4.97891 27.5639 4.7102 28.7035 4.84185 30.4522Z" fill="#31241B"/>
</g>
<g id="Group_10" opacity="0.55">
<path id="Vector_27" opacity="0.55" d="M5.16277 27.7925L5.18329 27.7845C5.65118 27.6047 6.18063 27.8064 6.43965 28.237C7.41761 29.8718 7.42844 31.0785 7.00956 31.7875C7.9311 31.3529 8.43432 29.9088 7.07823 27.6417C6.82177 27.2126 6.2909 27.0108 5.82443 27.1892C5.54261 27.2975 5.32463 27.5004 5.16277 27.7925Z" fill="#FFF9F2"/>
</g>
<path id="Vector_28" d="M6.37745 32.3405C6.69181 32.3412 7.00133 32.263 7.27753 32.1128C7.55373 31.9627 7.78775 31.7456 7.95809 31.4813C8.58499 30.5151 8.39436 29.0387 7.43264 27.431C7.06647 26.8189 6.32788 26.5559 5.67704 26.8041C4.6817 27.1857 4.27449 28.3885 4.43179 30.4817C4.50388 31.4383 5.22368 32.2134 6.14322 32.3251C6.22092 32.3349 6.29914 32.34 6.37745 32.3405ZM6.17628 27.5364C6.28744 27.5378 6.39639 27.5676 6.49273 27.6231C6.58906 27.6786 6.66956 27.7579 6.72652 27.8533C7.85465 29.7391 7.48108 30.7051 7.26793 31.0328C7.16036 31.202 7.00657 31.3368 6.82477 31.4213C6.64297 31.5058 6.44077 31.5364 6.2421 31.5095C5.71095 31.4451 5.29491 30.9875 5.25217 30.4213C5.16668 29.2815 5.22168 27.8613 5.97111 27.5741C6.03662 27.5491 6.10617 27.5363 6.17628 27.5364Z" fill="#31241B"/>
<path id="Vector_29" d="M23.7823 20.6669C23.6555 20.2503 23.8098 19.8344 24.1268 19.7379C24.4439 19.6414 24.8037 19.9008 24.9306 20.3174C25.0574 20.734 24.9031 21.15 24.5861 21.2465C24.269 21.343 23.9091 21.0835 23.7823 20.6669Z" fill="#FFF9F2"/>
<path id="Vector_30" d="M11.2433 8.24045C11.1165 7.82386 11.2707 7.40791 11.5878 7.3114C11.9049 7.21489 12.2647 7.47435 12.3915 7.89094C12.5183 8.30753 12.3641 8.72347 12.047 8.81999C11.7299 8.9165 11.3701 8.65703 11.2433 8.24045Z" fill="#31241B"/>
<path id="Vector_31" d="M30.879 14.9673C30.7522 14.5507 30.9065 14.1347 31.2235 14.0382C31.5406 13.9417 31.9004 14.2012 32.0272 14.6178C32.154 15.0344 31.9998 15.4503 31.6827 15.5468C31.3657 15.6433 31.0058 15.3839 30.879 14.9673Z" fill="#31241B"/>
<path id="Vector_32" d="M17.0112 18.4008C16.7241 18.2351 16.668 17.7951 16.8857 17.418C17.1034 17.0408 17.5126 16.8695 17.7996 17.0352C18.0867 17.2009 18.1428 17.6409 17.9251 18.0181C17.7074 18.3952 17.2982 18.5666 17.0112 18.4008Z" fill="#C8BBD9"/>
<path id="Vector_33" d="M30.2316 20.0223C30.1434 19.7327 30.2506 19.4435 30.4711 19.3764C30.6915 19.3093 30.9416 19.4897 31.0298 19.7794C31.118 20.069 31.0108 20.3583 30.7904 20.4253C30.5699 20.4924 30.3198 20.312 30.2316 20.0223Z" fill="#C8BBD9"/>
<path id="Vector_34" d="M12.1114 12.7864C12.1997 13.0759 12.4499 13.2563 12.6701 13.1894C12.8904 13.1224 12.9978 12.8332 12.9095 12.5434C12.8212 12.2536 12.5713 12.0732 12.351 12.1404C12.1307 12.2077 12.0233 12.4981 12.1114 12.7864Z" fill="#FFF9F2"/>
<path id="Vector_35" d="M15.7027 4.16187C15.4081 4.09201 15.2124 3.85364 15.2655 3.62945C15.3187 3.40527 15.6006 3.28017 15.8953 3.35003C16.1899 3.4199 16.3856 3.65827 16.3325 3.88245C16.2793 4.10663 15.9974 4.23173 15.7027 4.16187Z" fill="#F6F4F9"/>
<path id="Vector_36" d="M29.7813 11.1644C29.8701 11.1645 29.9565 11.136 30.0276 11.083C30.0988 11.03 30.1509 10.9554 30.1763 10.8703C30.2016 10.7853 30.1987 10.6943 30.1681 10.611C30.1375 10.5278 30.0808 10.4566 30.0064 10.4082L28.2204 9.24242C28.1289 9.18279 28.0176 9.16192 27.9108 9.18439C27.804 9.20686 27.7105 9.27083 27.6509 9.36224C27.5912 9.45365 27.5704 9.565 27.5928 9.6718C27.6153 9.77859 27.6793 9.87209 27.7707 9.93172L29.5568 11.0975C29.6236 11.141 29.7016 11.1643 29.7813 11.1644Z" fill="#F6F4F9"/>
<path id="Vector_37" d="M14.202 17.0065C14.2857 17.0065 14.3673 16.9809 14.4361 16.9332C14.5049 16.8856 14.5575 16.8181 14.587 16.7398L15.4555 14.4317C15.4772 14.3806 15.4883 14.3257 15.4883 14.2703C15.4882 14.2148 15.4769 14.1599 15.4551 14.1089C15.4333 14.0579 15.4014 14.0119 15.3613 13.9735C15.3213 13.9352 15.2739 13.9053 15.222 13.8857C15.1701 13.8662 15.1147 13.8573 15.0593 13.8597C15.0039 13.862 14.9496 13.8755 14.8995 13.8994C14.8494 13.9233 14.8047 13.9571 14.7681 13.9987C14.7314 14.0403 14.7035 14.089 14.6861 14.1416L13.8173 16.4497C13.7939 16.512 13.786 16.579 13.7941 16.6451C13.8023 16.7111 13.8264 16.7742 13.8642 16.8289C13.9021 16.8836 13.9526 16.9283 14.0116 16.9592C14.0705 16.9901 14.136 17.0062 14.2026 17.0062L14.202 17.0065Z" fill="#C8BBD9"/>
<path id="Vector_38" d="M28.0179 23.5445C28.0284 23.5445 28.0387 23.5445 28.049 23.5445C28.1028 23.5406 28.1554 23.526 28.2037 23.5017C28.2519 23.4774 28.2949 23.4438 28.3302 23.4029C28.3654 23.3619 28.3923 23.3144 28.4091 23.2631C28.426 23.2118 28.4326 23.1576 28.4285 23.1037L28.2575 20.7956C28.2548 20.7408 28.2411 20.687 28.2173 20.6376C28.1935 20.5881 28.16 20.5439 28.1188 20.5076C28.0777 20.4712 28.0297 20.4435 27.9776 20.426C27.9256 20.4085 27.8705 20.4016 27.8158 20.4058C27.761 20.4099 27.7077 20.4249 27.6588 20.4499C27.61 20.475 27.5666 20.5096 27.5313 20.5516C27.496 20.5937 27.4695 20.6424 27.4534 20.6949C27.4372 20.7473 27.4317 20.8025 27.4372 20.8571L27.6081 23.1653C27.6162 23.2684 27.6629 23.3648 27.7388 23.435C27.8148 23.5053 27.9144 23.5444 28.0179 23.5445Z" fill="#F6F4F9"/>
<path id="Vector_39" d="M19.2393 22.16C19.3457 22.1599 19.4479 22.1184 19.5242 22.0443L21.436 20.1972C21.5144 20.1214 21.5596 20.0175 21.5615 19.9083C21.5633 19.7992 21.5218 19.6938 21.4459 19.6153C21.3701 19.5368 21.2662 19.4917 21.1571 19.4898C21.0479 19.488 20.9425 19.5295 20.8641 19.6054L18.9523 21.4527C18.8935 21.5096 18.8529 21.5828 18.8359 21.6629C18.8189 21.743 18.8261 21.8263 18.8567 21.9023C18.8873 21.9782 18.9399 22.0433 19.0076 22.0892C19.0754 22.1351 19.1554 22.1598 19.2373 22.16H19.2393Z" fill="#31241B"/>
<g id="Group_11" opacity="0.3">
<path id="Vector_40" opacity="0.3" d="M9.99163 16.8936C10.2732 16.8375 10.5654 16.8776 10.8214 17.0076C10.9989 17.0993 11.1547 17.2279 11.2784 17.3847C11.4021 17.5415 11.4908 17.723 11.5386 17.9169C11.5868 18.1061 11.558 18.305 11.4868 18.4868C11.2018 19.2123 11.4013 19.6127 11.8227 19.8583C12.0085 19.9628 12.2149 20.0255 12.4274 20.0421C13.7442 20.1641 14.3255 21.1503 14.4985 22.6189C14.5341 24.4472 15.5858 25.1097 17.4127 24.882C19.3985 24.5461 20.6355 25.3095 21.4613 26.6758C21.8762 27.5557 22.1785 28.4844 22.3609 29.4399C22.8396 25.536 22.3375 24.2982 19.1064 23.5288C15.8754 22.7594 16.2569 21.9214 15.9836 20.4128C15.7104 18.9043 14.338 18.9496 13.7895 18.5834C13.241 18.2173 13.1956 17.4738 13.1956 17.4738C11.9832 15.7102 10.0617 16.8526 9.99163 16.8936Z" fill="#31241B"/>
</g>
<g id="Group_12" opacity="0.3">
<path id="Vector_41" opacity="0.3" d="M19.5047 15.5894C22.2009 17.3382 26.7528 19.2457 27.5908 14.3784C27.5908 14.3784 27.1369 11.5986 23.8177 9.33156L23.0444 7.22632C23.0444 7.22632 21.0611 9.50595 22.9002 10.5207C22.375 11.1857 21.5125 11.7235 20.1931 11.0883C20.1931 11.0883 19.7432 12.5381 21.2859 13.3266C21.2874 13.3266 21.5002 15.8433 19.5047 15.5894Z" fill="#31241B"/>
</g>
</g>
</svg>
