<svg width="40" height="40" viewBox="0 0 40 40" fill="none" xmlns="http://www.w3.org/2000/svg">
<path opacity="0.3" d="M21.4083 2.39764C11.194 2.39764 2.88379 10.7079 2.88379 20.9222C2.88379 31.1365 11.194 39.4467 21.4083 39.4467C31.6226 39.4467 39.9334 31.1365 39.9334 20.9222C39.9334 10.7079 31.6251 2.39764 21.4083 2.39764ZM21.4083 25.6264C20.4779 25.6264 19.5684 25.3505 18.7948 24.8336C18.0212 24.3167 17.4183 23.582 17.0622 22.7224C16.7062 21.8628 16.613 20.917 16.7945 20.0044C16.976 19.0919 17.424 18.2537 18.0819 17.5958C18.7398 16.9379 19.5781 16.4899 20.4906 16.3084C21.4031 16.1268 22.349 16.22 23.2086 16.5761C24.0682 16.9321 24.8029 17.5351 25.3198 18.3087C25.8367 19.0823 26.1126 19.9918 26.1126 20.9222C26.1111 22.169 25.6154 23.3643 24.734 24.2462C23.8526 25.128 22.6576 25.6244 21.4108 25.6264H21.4083Z" fill="#31241B"/>
<path d="M19.4559 1.53522C9.55743 1.53522 1.5332 9.55944 1.5332 19.4579C1.5332 29.3564 9.55743 37.3807 19.4559 37.3807C29.3544 37.3807 37.3792 29.3564 37.3792 19.4579C37.3792 9.55944 29.3569 1.53522 19.4559 1.53522ZM19.4559 25.1652C18.3273 25.1645 17.2242 24.8292 16.2861 24.2017C15.348 23.5742 14.617 22.6826 14.1855 21.6397C13.7541 20.5967 13.6416 19.4493 13.8622 18.3424C14.0828 17.2355 14.6266 16.2189 15.4249 15.4211C16.2232 14.6233 17.2402 14.08 18.3472 13.8601C19.4542 13.6402 20.6015 13.7534 21.6442 14.1855C22.6869 14.6175 23.578 15.349 24.205 16.2875C24.832 17.226 25.1666 18.3293 25.1666 19.4579C25.1666 20.2077 25.0189 20.9501 24.7318 21.6428C24.4448 22.3355 24.0241 22.9648 23.4938 23.4948C22.9635 24.0248 22.3339 24.4451 21.6411 24.7317C20.9482 25.0184 20.2057 25.1657 19.4559 25.1652Z" fill="#FFC35C"/>
<path opacity="0.3" d="M29.1501 4.37927C33.3082 7.66169 35.9771 12.7466 35.9771 18.4549C35.9771 28.3534 27.9528 36.3781 18.0543 36.3781C14.6171 36.3833 11.2515 35.3955 8.3623 33.5335C11.5204 36.0305 15.4301 37.3863 19.4561 37.3806C29.3551 37.3806 37.3794 29.3564 37.3794 19.4579C37.3813 13.1303 34.1018 7.56846 29.1501 4.37927Z" fill="#31241B"/>
<path opacity="0.6" d="M19.4559 1.53524C15.5559 1.52937 11.7614 2.80146 8.653 5.15688C4.32802 8.42709 1.5332 13.6165 1.5332 19.458C1.5332 25.2721 4.30263 30.44 8.59345 33.7137C6.74625 32.0358 5.27081 29.9898 4.26205 27.7073C3.25329 25.4248 2.73357 22.9565 2.73634 20.461C2.73634 14.5805 5.56728 9.36178 9.94253 6.09352C10.5639 6.08034 11.3404 5.88267 12.1228 5.50391C13.142 5.00996 13.9122 4.33249 14.225 3.72872C17.0802 2.63303 20.1681 2.2854 23.1954 2.71885C26.2228 3.15231 29.089 4.35245 31.522 6.2053C28.2251 3.19513 23.9203 1.529 19.4559 1.53524Z" fill="#FFF9F2"/>
<path d="M19.4586 37.9824C9.24385 37.9824 0.933594 29.6727 0.933594 19.4579C0.933594 9.24311 9.24385 0.93335 19.4586 0.93335C29.6734 0.93335 37.9832 9.2436 37.9832 19.4579C37.9832 29.6722 29.6729 37.9824 19.4586 37.9824ZM19.4586 2.13699C9.90765 2.13699 2.13723 9.90692 2.13723 19.4579C2.13723 29.0089 9.90765 36.7788 19.4586 36.7788C29.0096 36.7788 36.7795 29.0089 36.7795 19.4579C36.7795 9.90692 29.0096 2.13699 19.4586 2.13699Z" fill="#31241B"/>
<path d="M32.8927 19.8162C32.8775 19.5854 32.8775 19.3538 32.8927 19.1231L33.1684 14.9626C33.2378 13.9148 32.9949 12.8699 32.4706 11.9601C31.9463 11.0502 31.1641 10.3162 30.2228 9.85079L26.485 8.00287C26.2776 7.90058 26.0772 7.78464 25.8851 7.65583L22.4197 5.33691C21.547 4.75284 20.5207 4.44063 19.4706 4.43976C18.4205 4.43889 17.3938 4.7494 16.5201 5.33203L13.0517 7.64607C12.8594 7.77447 12.6589 7.89007 12.4514 7.99213L8.71065 9.8337C7.76855 10.2974 6.98506 11.0301 6.4592 11.939C5.93334 12.8479 5.68872 13.8922 5.75623 14.9401L6.02468 19.1011C6.03982 19.3319 6.03982 19.5634 6.02468 19.7942L5.74891 23.9547C5.67953 25.0025 5.92233 26.0474 6.44663 26.9572C6.97093 27.8671 7.75319 28.6011 8.69454 29.0665L12.4319 30.9144C12.6393 31.0167 12.8397 31.1326 13.0317 31.2614L16.4972 33.5803C17.3699 34.1644 18.3961 34.4766 19.4462 34.4775C20.4963 34.4784 21.5231 34.1678 22.3967 33.5852L25.8661 31.2726C26.0584 31.1443 26.259 31.0286 26.4665 30.9266L30.2072 29.085C31.1493 28.6213 31.9328 27.8887 32.4586 26.9798C32.9845 26.0709 33.2291 25.0265 33.1616 23.9786L32.8927 19.8162ZM19.4565 25.1652C18.3278 25.1645 17.2247 24.8292 16.2866 24.2016C15.3485 23.5741 14.6175 22.6825 14.1861 21.6396C13.7547 20.5967 13.6421 19.4492 13.8627 18.3424C14.0833 17.2355 14.6272 16.2189 15.4255 15.421C16.2238 14.6232 17.2407 14.08 18.3477 13.86C19.4547 13.6401 20.6021 13.7533 21.6448 14.1854C22.6874 14.6175 23.5786 15.349 24.2055 16.2875C24.8325 17.2259 25.1672 18.3293 25.1672 19.4579C25.1672 20.2077 25.0194 20.9501 24.7324 21.6428C24.4454 22.3354 24.0247 22.9647 23.4943 23.4947C22.964 24.0248 22.3344 24.4451 21.6416 24.7317C20.9488 25.0183 20.2063 25.1656 19.4565 25.1652Z" fill="#FFF9F2"/>
<path opacity="0.3" d="M24.6827 6.8534C24.7042 6.86805 24.7271 6.88074 24.7486 6.89489L22.4209 5.3369C22.4018 5.32421 22.3823 5.31396 22.3633 5.30127L24.6827 6.8534Z" fill="#31241B"/>
<path opacity="0.3" d="M14.3529 19.8591C14.3531 18.8882 14.6009 17.9333 15.073 17.0848C15.5451 16.2363 16.2258 15.5223 17.0508 15.0103C17.8758 14.4982 18.8177 14.2051 19.7876 14.1586C20.7574 14.112 21.7231 14.3137 22.5933 14.7444C21.9808 14.2136 21.2622 13.8194 20.4854 13.588C19.7087 13.3566 18.8915 13.2934 18.0884 13.4024C17.2852 13.5115 16.5145 13.7903 15.8276 14.2205C15.1406 14.6506 14.5532 15.2222 14.1043 15.897C13.6555 16.5719 13.3556 17.3347 13.2245 18.1345C13.0935 18.9343 13.1343 19.7529 13.3443 20.5358C13.5542 21.3186 13.9286 22.0477 14.4423 22.6746C14.9561 23.3015 15.5974 23.8117 16.3238 24.1714C15.7047 23.6365 15.2082 22.9744 14.868 22.2302C14.5279 21.486 14.3522 20.6773 14.3529 19.8591Z" fill="#31241B"/>
<path opacity="0.3" d="M11.8279 30.4575C11.6357 30.3289 11.4354 30.213 11.2281 30.1105L7.53906 28.2865C7.88802 28.5957 8.27633 28.8575 8.69389 29.065L12.4312 30.9129C12.6148 31.0052 12.7929 31.1081 12.9647 31.2209L11.8279 30.4575Z" fill="#31241B"/>
<path opacity="0.3" d="M32.8921 19.8162C32.877 19.5854 32.877 19.3539 32.8921 19.1231L33.1679 14.9626C33.2372 13.9148 32.9944 12.87 32.4701 11.9601C31.9458 11.0503 31.1636 10.3163 30.2223 9.85082L30.1734 9.8269C30.7839 10.3638 31.2629 11.0337 31.5734 11.785C31.8839 12.5364 32.0176 13.349 31.9643 14.1602L31.6885 18.3207C31.6734 18.5515 31.6734 18.783 31.6885 19.0138L31.9569 23.1748C32.0245 24.2226 31.7798 25.267 31.254 26.1759C30.7281 27.0848 29.9446 27.8174 29.0025 28.2812L25.2642 30.1227C25.0567 30.2248 24.8562 30.3404 24.6639 30.4688L21.1921 32.7828C20.328 33.3585 19.3141 33.6682 18.2759 33.6736C17.2376 33.679 16.2206 33.3798 15.3506 32.8131L16.4961 33.5799C17.3688 34.164 18.3951 34.4762 19.4452 34.477C20.4953 34.4779 21.5221 34.1674 22.3957 33.5848L25.8651 31.2722C26.0574 31.1438 26.2579 31.0282 26.4654 30.9261L30.2061 29.0846C31.1482 28.6208 31.9317 27.8882 32.4576 26.9793C32.9835 26.0704 33.2281 25.026 33.1606 23.9781L32.8921 19.8162Z" fill="#31241B"/>
<path d="M19.4568 14.7537C20.3872 14.7537 21.2967 15.0296 22.0703 15.5465C22.8439 16.0634 23.4469 16.7981 23.8029 17.6577C24.159 18.5173 24.2521 19.4632 24.0706 20.3757C23.8891 21.2882 23.4411 22.1264 22.7832 22.7843C22.1253 23.4422 21.2871 23.8903 20.3745 24.0718C19.462 24.2533 18.5161 24.1601 17.6565 23.8041C16.797 23.448 16.0623 22.8451 15.5454 22.0715C15.0284 21.2979 14.7525 20.3883 14.7525 19.4579C14.754 18.2107 15.25 17.015 16.132 16.1331C17.0139 15.2512 18.2096 14.7551 19.4568 14.7537ZM19.4568 13.7507C18.3281 13.7513 17.225 14.0867 16.2869 14.7142C15.3488 15.3417 14.6178 16.2333 14.1864 17.2762C13.7549 18.3191 13.6424 19.4666 13.863 20.5735C14.0836 21.6803 14.6274 22.6969 15.4258 23.4948C16.2241 24.2926 17.241 24.8358 18.348 25.0558C19.455 25.2757 20.6024 25.1625 21.6451 24.7304C22.6877 24.2984 23.5789 23.5668 24.2058 22.6284C24.8328 21.6899 25.1674 20.5866 25.1674 19.4579C25.1674 18.7082 25.0197 17.9657 24.7327 17.2731C24.4457 16.5804 24.025 15.9511 23.4946 15.4211C22.9643 14.8911 22.3347 14.4707 21.6419 14.1841C20.9491 13.8975 20.2066 13.7502 19.4568 13.7507Z" fill="#31241B"/>
<path d="M19.4499 34.9793C18.2987 34.9787 17.1736 34.6359 16.2177 33.9943L12.7523 31.6754C12.5782 31.5589 12.3968 31.4539 12.209 31.361L8.47122 29.5126C7.44002 29.0048 6.58313 28.2018 6.0095 27.2057C5.43588 26.2096 5.17145 25.0654 5.24982 23.9186L5.52559 19.7581C5.53926 19.5493 5.53926 19.3398 5.52559 19.1309L5.25714 14.9694C5.18095 13.8223 5.44768 12.6784 6.0234 11.6832C6.59912 10.688 7.4578 9.8866 8.49026 9.3808L12.2315 7.53923C12.4193 7.44668 12.601 7.34201 12.7752 7.22587L16.2446 4.91329C17.1998 4.27366 18.3238 3.93264 19.4734 3.9336C20.623 3.93455 21.7464 4.27744 22.7006 4.91866L26.166 7.23758C26.34 7.35412 26.5215 7.45912 26.7093 7.55191L30.4471 9.40031C31.4784 9.90803 32.3353 10.711 32.909 11.7072C33.4826 12.7033 33.747 13.8475 33.6685 14.9943L33.3932 19.1548C33.3795 19.3638 33.3795 19.5735 33.3932 19.7825L33.6616 23.9435C33.7379 25.0907 33.4712 26.2346 32.8955 27.2298C32.3197 28.225 31.461 29.0264 30.4285 29.5322L26.6873 31.3737C26.4996 31.4661 26.3182 31.5706 26.1441 31.6866L22.6742 34.0031C21.7195 34.64 20.5975 34.9797 19.4499 34.9793ZM19.467 4.9372C18.5171 4.93752 17.5887 5.21948 16.7991 5.74744L13.3302 8.0605C13.1195 8.20086 12.8998 8.32738 12.6727 8.43926L8.9315 10.2818C8.07726 10.7003 7.36682 11.3635 6.89052 12.1869C6.41423 13.0104 6.19362 13.9568 6.25675 14.906L6.5252 19.067C6.54155 19.3195 6.54155 19.5729 6.5252 19.8255L6.24943 23.986C6.18456 24.9351 6.40351 25.8821 6.87842 26.7064C7.35333 27.5307 8.06274 28.1951 8.91637 28.615L12.6542 30.4629C12.8809 30.5753 13.1002 30.7021 13.3107 30.8427L16.7761 33.1616C17.5657 33.6922 18.4953 33.976 19.4467 33.9769C20.398 33.9777 21.3282 33.6957 22.1188 33.1665L25.5881 30.8534C25.7987 30.7131 26.0181 30.5865 26.2451 30.4747L29.9863 28.6331C30.8405 28.2146 31.551 27.5514 32.0273 26.728C32.5036 25.9045 32.7242 24.9581 32.6611 24.0089L32.3907 19.8484C32.3743 19.5957 32.3743 19.3422 32.3907 19.0894L32.6659 14.9294C32.7308 13.9803 32.5119 13.0333 32.037 12.209C31.562 11.3847 30.8526 10.7203 29.999 10.3004L26.2612 8.45244C26.0343 8.34034 25.815 8.21349 25.6047 8.07271L22.1393 5.75378C21.3489 5.22343 20.4188 4.93974 19.467 4.93867V4.9372Z" fill="#31241B"/>
<path d="M25.8739 11.0092C25.984 10.5427 25.6951 10.0753 25.2287 9.96524C24.7622 9.85515 24.2948 10.144 24.1847 10.6105C24.0746 11.077 24.3635 11.5444 24.83 11.6545C25.2964 11.7646 25.7638 11.4757 25.8739 11.0092Z" fill="#E06B38"/>
<path d="M20.8671 7.93835C20.9772 7.47188 20.6883 7.00449 20.2218 6.89439C19.7554 6.78429 19.288 7.07318 19.1779 7.53966C19.0678 8.00613 19.3567 8.47353 19.8231 8.58363C20.2896 8.69372 20.757 8.40482 20.8671 7.93835Z" fill="#E06B38"/>
<path d="M29.6119 15.3263C30.0028 14.9354 30.0028 14.3015 29.6119 13.9106C29.2209 13.5197 28.5871 13.5197 28.1961 13.9106C27.8052 14.3015 27.8052 14.9354 28.1961 15.3263C28.5871 15.7173 29.2209 15.7173 29.6119 15.3263Z" fill="#E06B38"/>
<path d="M10.3866 24.9588C10.4967 24.4923 10.2078 24.0249 9.74136 23.9148C9.27489 23.8047 8.80749 24.0936 8.69739 24.5601C8.5873 25.0266 8.87619 25.494 9.34266 25.6041C9.80913 25.7142 10.2765 25.4253 10.3866 24.9588Z" fill="#E06B38"/>
<path d="M14.419 28.4353C15.0457 28.4353 15.5538 27.9273 15.5538 27.3005C15.5538 26.6738 15.0457 26.1657 14.419 26.1657C13.7923 26.1657 13.2842 26.6738 13.2842 27.3005C13.2842 27.9273 13.7923 28.4353 14.419 28.4353Z" fill="#E06B38"/>
<path d="M21.2273 31.3727C21.6327 31.3727 21.9613 31.044 21.9613 30.6386C21.9613 30.2331 21.6327 29.9045 21.2273 29.9045C20.8218 29.9045 20.4932 30.2331 20.4932 30.6386C20.4932 31.044 20.8218 31.3727 21.2273 31.3727Z" fill="#E06B38"/>
<path d="M29.5715 22.1614C30.0138 22.1614 30.3724 21.8028 30.3724 21.3605C30.3724 20.9181 30.0138 20.5595 29.5715 20.5595C29.1291 20.5595 28.7705 20.9181 28.7705 21.3605C28.7705 21.8028 29.1291 22.1614 29.5715 22.1614Z" fill="#E06B38"/>
<path d="M27.0097 27.1469C27.1113 26.7164 26.8447 26.285 26.4141 26.1834C25.9836 26.0818 25.5522 26.3484 25.4506 26.7789C25.349 27.2095 25.6156 27.6408 26.0461 27.7425C26.4767 27.8441 26.9081 27.5774 27.0097 27.1469Z" fill="#E06B38"/>
<path d="M15.5273 10.0746C15.6374 9.60811 15.3485 9.14071 14.882 9.03061C14.4155 8.92052 13.9481 9.20942 13.838 9.67589C13.7279 10.1424 14.0168 10.6098 14.4833 10.7199C14.9498 10.83 15.4172 10.5411 15.5273 10.0746Z" fill="#E06B38"/>
<path d="M10.8744 13.0043C10.9394 12.6041 10.6677 12.227 10.2675 12.1621C9.86728 12.0971 9.4902 12.3689 9.42524 12.769C9.36028 13.1692 9.63204 13.5463 10.0322 13.6113C10.4324 13.6762 10.8095 13.4045 10.8744 13.0043Z" fill="#E06B38"/>
<path d="M13.9519 13.6838C13.9519 13.7498 13.9323 13.8143 13.8956 13.8692C13.8589 13.9242 13.8068 13.9669 13.7458 13.9922C13.6848 14.0175 13.6177 14.0241 13.5529 14.0112C13.4881 13.9983 13.4287 13.9665 13.382 13.9198C13.3353 13.8731 13.3035 13.8137 13.2906 13.7489C13.2777 13.6841 13.2843 13.617 13.3096 13.556C13.3349 13.495 13.3777 13.4429 13.4326 13.4062C13.4875 13.3695 13.552 13.3499 13.618 13.3499C13.7066 13.3499 13.7915 13.3851 13.8541 13.4477C13.9167 13.5103 13.9519 13.5952 13.9519 13.6838Z" fill="#E06B38"/>
<path d="M18.6267 11.3487C18.6267 11.4148 18.6071 11.4793 18.5704 11.5342C18.5337 11.5891 18.4816 11.6319 18.4206 11.6572C18.3596 11.6825 18.2925 11.6891 18.2277 11.6762C18.1629 11.6633 18.1035 11.6315 18.0568 11.5848C18.0101 11.5381 17.9783 11.4786 17.9654 11.4139C17.9525 11.3491 17.9591 11.282 17.9844 11.221C18.0097 11.16 18.0525 11.1078 18.1074 11.0712C18.1623 11.0345 18.2268 11.0149 18.2928 11.0149C18.3367 11.0148 18.3801 11.0234 18.4207 11.0402C18.4612 11.0569 18.498 11.0815 18.5291 11.1125C18.5601 11.1435 18.5847 11.1804 18.6014 11.2209C18.6182 11.2614 18.6268 11.3049 18.6267 11.3487Z" fill="#E06B38"/>
<path d="M25.699 14.085C25.699 14.1511 25.6794 14.2156 25.6427 14.2706C25.606 14.3255 25.5538 14.3682 25.4928 14.3935C25.4317 14.4188 25.3646 14.4253 25.2998 14.4124C25.235 14.3995 25.1755 14.3677 25.1289 14.3209C25.0822 14.2742 25.0504 14.2146 25.0376 14.1499C25.0248 14.0851 25.0315 14.0179 25.0568 13.9569C25.0822 13.8959 25.125 13.8438 25.18 13.8072C25.2349 13.7706 25.2995 13.7511 25.3656 13.7512C25.4094 13.7512 25.4528 13.7598 25.4933 13.7766C25.5338 13.7934 25.5705 13.818 25.6015 13.849C25.6325 13.88 25.657 13.9168 25.6737 13.9573C25.6905 13.9978 25.699 14.0412 25.699 14.085Z" fill="#E06B38"/>
<path d="M30.5056 18.0912C30.5057 18.1573 30.4862 18.2219 30.4495 18.2769C30.4129 18.3319 30.3607 18.3747 30.2997 18.4001C30.2387 18.4254 30.1715 18.4321 30.1067 18.4192C30.0419 18.4063 29.9824 18.3745 29.9357 18.3278C29.8889 18.2811 29.8571 18.2215 29.8443 18.1567C29.8314 18.0919 29.8381 18.0248 29.8634 17.9637C29.8887 17.9027 29.9316 17.8506 29.9866 17.8139C30.0415 17.7773 30.1062 17.7578 30.1722 17.7579C30.2606 17.7579 30.3454 17.793 30.408 17.8555C30.4705 17.918 30.5056 18.0028 30.5056 18.0912Z" fill="#E06B38"/>
<path d="M27.2341 23.2953C27.2342 23.3614 27.2147 23.426 27.1781 23.4809C27.1414 23.5359 27.0893 23.5788 27.0282 23.6041C26.9672 23.6294 26.9001 23.6361 26.8352 23.6232C26.7704 23.6104 26.7109 23.5786 26.6642 23.5318C26.6175 23.4851 26.5857 23.4256 26.5728 23.3608C26.5599 23.296 26.5666 23.2288 26.5919 23.1678C26.6172 23.1068 26.6601 23.0546 26.7151 23.018C26.7701 22.9813 26.8347 22.9618 26.9007 22.9619C26.9892 22.9619 27.074 22.997 27.1365 23.0596C27.199 23.1221 27.2341 23.2069 27.2341 23.2953Z" fill="#E06B38"/>
<path d="M22.7615 27.1004C22.7616 27.1664 22.7421 27.231 22.7054 27.286C22.6688 27.341 22.6167 27.3838 22.5557 27.4092C22.4947 27.4345 22.4276 27.4412 22.3628 27.4284C22.298 27.4156 22.2384 27.3838 22.1917 27.3371C22.145 27.2905 22.1131 27.231 22.1002 27.1662C22.0873 27.1014 22.0939 27.0343 22.1191 26.9732C22.1444 26.9122 22.1872 26.86 22.2421 26.8233C22.297 26.7866 22.3615 26.767 22.4276 26.767C22.5161 26.767 22.6009 26.8021 22.6635 26.8646C22.7261 26.9271 22.7613 27.0119 22.7615 27.1004Z" fill="#E06B38"/>
<path d="M17.2888 30.5054C17.2888 30.5714 17.2692 30.6359 17.2325 30.6909C17.1959 30.7458 17.1437 30.7885 17.0827 30.8138C17.0217 30.8391 16.9546 30.8457 16.8898 30.8328C16.8251 30.8199 16.7656 30.7881 16.7189 30.7414C16.6722 30.6948 16.6404 30.6353 16.6275 30.5705C16.6146 30.5057 16.6212 30.4386 16.6465 30.3776C16.6718 30.3166 16.7146 30.2645 16.7695 30.2278C16.8244 30.1911 16.8889 30.1715 16.9549 30.1715C17.0435 30.1715 17.1284 30.2067 17.191 30.2693C17.2536 30.3319 17.2888 30.4168 17.2888 30.5054Z" fill="#E06B38"/>
<path d="M12.9051 23.4632C12.9382 23.5203 12.9535 23.586 12.9492 23.6519C12.945 23.7178 12.9212 23.781 12.881 23.8334C12.8409 23.8858 12.786 23.9251 12.7235 23.9464C12.661 23.9676 12.5936 23.9699 12.5298 23.9528C12.466 23.9357 12.4087 23.9001 12.3651 23.8505C12.3216 23.8008 12.2937 23.7394 12.2851 23.6739C12.2765 23.6084 12.2875 23.5418 12.3167 23.4826C12.3459 23.4234 12.392 23.3742 12.4492 23.3411C12.4871 23.3192 12.529 23.3049 12.5725 23.2991C12.6159 23.2934 12.6601 23.2963 12.7025 23.3076C12.7448 23.3189 12.7845 23.3385 12.8193 23.3652C12.854 23.3919 12.8832 23.4252 12.9051 23.4632Z" fill="#E06B38"/>
<path d="M7.66532 15.8695C7.62933 15.8141 7.61055 15.7494 7.61135 15.6834C7.61216 15.6173 7.63252 15.5531 7.66986 15.4986C7.70719 15.4442 7.75982 15.402 7.82111 15.3775C7.8824 15.353 7.94958 15.3471 8.01417 15.3608C8.07876 15.3744 8.13785 15.4069 8.18399 15.4541C8.23012 15.5013 8.26122 15.5612 8.27335 15.6261C8.28549 15.691 8.27811 15.758 8.25216 15.8187C8.22621 15.8794 8.18284 15.931 8.12754 15.9671C8.09079 15.991 8.04967 16.0075 8.00655 16.0156C7.96342 16.0237 7.91913 16.0231 7.8762 16.0141C7.83327 16.005 7.79255 15.9876 7.75636 15.9628C7.72018 15.9379 7.68924 15.9062 7.66532 15.8695Z" fill="#E06B38"/>
<path d="M9.8126 20.2262C10.3655 20.2262 10.8137 19.778 10.8137 19.2251C10.8137 18.6722 10.3655 18.224 9.8126 18.224C9.25972 18.224 8.81152 18.6722 8.81152 19.2251C8.81152 19.778 9.25972 20.2262 9.8126 20.2262Z" fill="#E06B38"/>
</svg>
