<svg width="40" height="39" viewBox="0 0 40 39" fill="none" xmlns="http://www.w3.org/2000/svg">
<g id="Group 36252">
<g id="Group" opacity="0.3">
<path id="Vector" opacity="0.3" d="M39.9334 20.2824C39.9334 15.3535 38.0141 10.7198 34.5289 7.23472C33.4764 6.18061 32.3008 5.25699 31.0276 4.48377C30.9973 4.44042 30.966 4.39757 30.9323 4.35556C30.8825 4.29429 30.8289 4.23616 30.7719 4.1815C30.7165 4.12855 30.6584 4.07847 30.5978 4.03145C30.3591 3.8486 30.0894 3.71038 29.8016 3.62347C29.5972 3.56195 29.3872 3.52096 29.1747 3.5011C26.7922 2.40739 24.1814 1.83035 21.4815 1.83035C16.5526 1.83035 11.9189 3.74968 8.43383 7.23489C4.94879 10.7201 3.0293 15.3544 3.0293 20.2826C3.0293 25.2108 4.94863 29.8452 8.43383 33.3302C8.98907 33.8855 9.57866 34.4053 10.1991 34.8866C10.3578 35.5607 10.6314 36.2111 11.0327 36.7873C11.4801 37.4287 12.0959 37.9765 12.8442 38.2808C13.5841 38.5809 14.4157 38.6538 15.1997 38.4475C15.5618 38.3517 15.9036 38.1912 16.2085 37.9737C17.9201 38.4801 19.6958 38.7364 21.4807 38.7348C24.6633 38.7348 27.7222 37.9335 30.4289 36.4283C30.4362 36.6378 30.4698 36.8455 30.529 37.0465C30.5634 37.1644 30.6091 37.2787 30.6655 37.3878C30.7251 37.5001 30.797 37.6054 30.8799 37.7018C31.0452 37.8923 31.2551 38.0555 31.5193 38.1446C31.6566 38.1891 31.8011 38.2069 31.9451 38.1971C32.0921 38.1857 32.235 38.1432 32.3643 38.0722C32.623 37.9303 32.7951 37.7019 32.8978 37.472C32.9482 37.3574 32.9852 37.2373 33.008 37.1142C33.0296 36.9956 33.0396 36.8752 33.0378 36.7546C33.0337 36.5678 33.0194 36.3813 32.995 36.1961C33.2776 36.2129 33.5611 36.1854 33.8351 36.1145C34.402 35.9683 34.8981 35.6405 35.2885 35.2412C35.6788 34.8419 35.981 34.3663 36.1973 33.8599C36.3053 33.6068 36.3908 33.3445 36.4527 33.0763C36.5148 32.8141 36.5615 32.5484 36.5924 32.2807C36.6523 31.774 36.6653 31.2727 36.6638 30.7777C38.7887 27.7158 39.9334 24.0874 39.9334 20.2824ZM22.3505 14.0136C22.4057 14.0696 22.4582 14.1273 22.5194 14.1791L22.6091 14.2582L22.7054 14.3315C22.768 14.3815 22.84 14.4227 22.9082 14.4672C22.9779 14.5079 23.0489 14.5419 23.1194 14.5789C23.4038 14.7127 23.7077 14.8002 24.0197 14.8384C24.3205 14.8746 24.6243 14.8791 24.926 14.8517C25.0798 14.8379 25.2316 14.8183 25.3815 14.7935C27.0968 16.0161 28.2185 18.02 28.2185 20.2821C28.2185 23.9975 25.1958 27.0201 21.4803 27.0201C17.7649 27.0201 14.7423 23.9975 14.7423 20.2821C14.7423 18.0993 15.7864 16.1566 17.4004 14.9245C17.3694 15.3532 17.3044 15.7835 17.2275 16.2158C17.1253 16.7887 16.9995 17.3662 16.8974 17.9553C16.8464 18.2505 16.8007 18.5463 16.7682 18.8506C16.7357 19.1548 16.7214 19.4708 16.7515 19.7936C16.7668 19.9569 16.7958 20.1186 16.8381 20.2771C16.8819 20.4408 16.9434 20.5993 17.0215 20.7497C17.1777 21.0498 17.4076 21.3253 17.7139 21.5167C17.8688 21.6139 18.0398 21.6829 18.2189 21.7204C18.3973 21.756 18.5803 21.7617 18.7606 21.7371C19.1167 21.6904 19.4368 21.535 19.7069 21.3286C19.8423 21.2244 19.9648 21.1045 20.072 20.9715C20.178 20.8399 20.2696 20.6975 20.3453 20.5465C20.4888 20.2544 20.5881 19.9426 20.6399 19.6213C20.6901 19.3133 20.714 19.0016 20.7112 18.6895C20.7102 18.3841 20.6946 18.0813 20.6689 17.7802C20.5635 16.5751 20.2906 15.4171 20.1147 14.2675C20.0856 14.0785 20.0595 13.8896 20.0363 13.7006C20.5107 13.5963 20.9949 13.5435 21.4805 13.5432C21.6542 13.5432 21.826 13.5519 21.9964 13.5649C22.1021 13.7239 22.2206 13.874 22.3505 14.0139V14.0136Z" fill="#31241B"/>
</g>
<path id="Vector_2" d="M19.3858 1.27762C9.38513 1.27762 1.27832 9.38426 1.27832 19.3849C1.27832 29.3855 9.38513 37.4921 19.3858 37.4921C29.3864 37.4921 37.493 29.3862 37.493 19.3855C37.493 9.38492 29.3862 1.27762 19.3858 1.27762ZM19.3858 26.468C17.135 26.468 15.1314 25.4193 13.8338 23.7837V23.7829C12.84 22.5325 12.3003 20.9818 12.303 19.3845C12.303 15.4727 15.4741 12.3016 19.3861 12.3016C21.4593 12.3016 23.3246 13.1924 24.6201 14.6119C25.8117 15.9155 26.4714 17.6184 26.469 19.3845C26.4687 23.2976 23.2976 26.4687 19.3858 26.4687V26.468Z" fill="#FFC35C" stroke="#31241B" stroke-width="0.10653" stroke-miterlimit="10"/>
<g id="Group_2" opacity="0.55">
<path id="Vector_3" opacity="0.55" d="M19.3857 1.21091C9.38513 1.21091 1.27832 9.31754 1.27832 19.3182C1.27832 22.8989 2.31768 26.2372 4.11147 29.0472C2.63662 26.4263 1.79583 23.4026 1.79583 20.1815C1.79583 10.1808 9.90247 2.07421 19.9031 2.07421C26.323 2.07421 31.9623 5.41519 35.1774 10.4526C32.0745 4.93686 26.1651 1.21091 19.3857 1.21091Z" fill="#FFF9F2"/>
</g>
<g id="Group_3" opacity="0.3">
<path id="Vector_4" opacity="0.3" d="M27.3564 14.8596C27.3564 14.8596 26.0153 14.1084 24.62 14.6129C23.3245 13.1934 21.4592 12.3026 19.386 12.3026C15.474 12.3026 12.3029 15.4737 12.3029 19.3855C12.3002 20.9827 12.8399 22.5335 13.8338 23.7839V23.7847C13.8224 23.8407 13.3801 26.2356 16.4943 28.0605C16.4943 28.0605 12.0968 28.2909 10.0951 26.4687C8.09344 24.6464 8.80502 17.1389 8.92806 16.2386C9.0511 15.3383 8.55993 13.3486 8.92806 12.7449C9.29618 12.1412 10.8047 10.8174 11.6938 10.2232C12.583 9.629 15.3368 7.9956 15.3368 7.9956C15.3368 7.9956 18.7528 7.9034 19.2418 7.9956C19.7308 8.0878 23.6236 9.36607 23.6236 9.36607L27.3564 14.8596Z" fill="#31241B"/>
</g>
<g id="Group_4" opacity="0.3">
<path id="Vector_5" opacity="0.3" d="M33.1936 7.6705C34.5666 10.2214 35.3454 13.1391 35.3454 16.2386C35.3454 26.2393 27.2386 34.3459 17.2379 34.3459C11.7055 34.3459 6.75281 31.8647 3.43066 27.9545C6.48705 33.6336 12.4861 37.4928 19.3862 37.4928C29.3866 37.4928 37.4934 29.3862 37.4934 19.3856C37.4936 14.9183 35.8757 10.8278 33.1936 7.6705Z" fill="#31241B"/>
</g>
<path id="Vector_6" d="M19.386 37.8377C14.4571 37.8377 9.82317 35.9184 6.33813 32.4334C2.85309 28.9483 0.933594 24.3139 0.933594 19.3855C0.933594 14.4572 2.85309 9.82289 6.33813 6.33769C9.82317 2.85248 14.4576 0.933319 19.386 0.933319C24.3143 0.933319 28.9486 2.85265 32.4337 6.33769C35.9187 9.82273 37.8382 14.4572 37.8382 19.3855C37.8382 24.3139 35.9189 28.9482 32.4337 32.4334C28.9484 35.9186 24.3148 37.8377 19.386 37.8377ZM19.386 1.62322C9.59175 1.62322 1.6235 9.59132 1.6235 19.3855C1.6235 29.1798 9.59175 37.1478 19.386 37.1478C29.1802 37.1478 37.1483 29.1798 37.1483 19.3855C37.1483 9.59132 29.18 1.62322 19.386 1.62322ZM19.386 26.8136C15.2901 26.8136 11.9579 23.4815 11.9579 19.3855C11.9579 15.2896 15.2901 11.9576 19.386 11.9576C23.4819 11.9576 26.8139 15.2898 26.8139 19.3855C26.8139 23.4813 23.4817 26.8136 19.386 26.8136ZM19.386 12.6475C15.6705 12.6475 12.6478 15.6703 12.6478 19.3855C12.6478 23.1008 15.6705 26.1237 19.386 26.1237C23.1014 26.1237 26.124 23.1018 26.124 19.3855C26.124 15.6693 23.1013 12.6482 19.386 12.6482V12.6475Z" fill="#31241B"/>
<path id="Vector_7" d="M36.5618 17.9979C36.0186 16.9562 35.1363 16.1223 34.5748 15.0899C33.8816 13.8118 33.7237 12.3206 33.2874 10.934C32.851 9.54733 31.9772 8.12934 30.5698 7.76622C29.1589 7.40226 29.4892 4.69432 28.4949 3.61278C28.4689 3.58344 28.4414 3.55593 28.4128 3.52942C27.7841 2.94455 26.826 2.85235 25.9852 3.02741C25.1444 3.20247 24.3716 3.60444 23.5662 3.90188C22.7607 4.19932 21.8681 4.39355 21.0486 4.13729C19.705 3.71732 18.6383 1.69845 17.2306 1.70712C16.2336 1.71396 15.5929 2.9909 14.965 3.76483C14.3371 4.53877 13.2911 5.17915 12.3036 5.31537C9.52315 5.69567 7.29388 8.26055 6.77553 11.0185C6.57463 12.0845 5.70616 13.0512 4.80818 13.6601C3.91021 14.269 2.89619 14.758 2.21229 15.5998C1.12658 16.9356 1.12658 18.9036 1.7648 20.5015C2.40302 22.0993 3.58009 23.414 4.73399 24.6911C5.26184 25.2746 5.54377 26.0822 5.58962 26.8678C5.63547 27.6534 5.65248 28.5211 6.18383 29.1019C6.47259 29.4187 6.85723 29.5891 7.27037 29.7188H7.2712C7.74037 30.1251 7.98962 30.7495 8.09999 31.366C8.21986 32.0329 8.20519 32.7183 8.29756 33.3901C8.45545 34.5346 8.96329 35.6644 9.81108 36.4336C9.96507 36.574 10.1304 36.7015 10.3053 36.8148C11.4505 37.5574 13.0882 37.584 14.1206 36.6906C14.8321 36.0737 15.2011 35.121 15.6298 34.2544C15.6876 34.2509 15.7273 34.2474 15.7273 34.2474C17.1726 34.4268 18.6783 34.595 20.1377 34.538C20.8096 34.5121 21.4714 34.4389 22.1135 34.2966C22.8784 34.1275 23.6159 33.8619 24.3066 33.4629L24.6507 33.4784C25.533 32.6902 26.9362 33.0663 27.9607 33.6578C28.1668 33.7769 28.3737 33.9046 28.5816 34.0313C28.9335 34.246 29.2888 34.4599 29.6544 34.6298C30.1443 34.8584 30.6531 35.0085 31.193 34.9783C32.6073 34.8989 33.669 33.5638 34.0148 32.1908C34.3606 30.8179 34.1847 29.376 34.2167 27.9607C34.2487 26.5454 34.5538 25.019 35.6103 24.076C37.2742 22.5887 37.595 19.9763 36.5618 17.9979ZM14.6209 27.3095C14.0824 26.9691 13.576 26.5802 13.1082 26.1477C9.00914 22.3756 10.7366 15.9342 11.0807 15.3357C11.875 13.955 12.4623 12.4448 13.4428 11.1892C13.694 10.8668 13.9753 10.5691 14.283 10.3001C15.1953 9.50482 16.3415 8.98664 17.5212 9.13919C17.6337 9.15342 17.7443 9.18032 17.8507 9.21938C19.3324 9.75674 19.5346 12.4587 20.9984 13.2953C21.7154 13.7049 22.563 13.6936 23.3951 13.5444C23.7204 13.4867 24.0428 13.4073 24.3551 13.3245L24.5965 13.2598C24.8923 13.1814 25.1942 13.1054 25.4968 13.046L26.1687 13.5574C26.6122 13.9458 27.0108 14.3826 27.3571 14.8597C28.1833 15.9877 28.719 17.3272 28.8715 18.7172C28.9129 19.0906 28.8948 19.4864 28.8302 19.8952C28.5084 21.9108 27.0329 24.2264 25.7979 25.6139C25.7969 25.6149 25.7961 25.6166 25.7944 25.6174C24.7026 26.5816 23.5875 27.4043 22.582 27.9192C19.9629 29.2611 17.0426 28.8445 14.6202 27.3095H14.6209Z" fill="#81AA71"/>
<g id="Group_5" opacity="0.55">
<path id="Vector_8" opacity="0.55" d="M28.4119 3.52838C27.7832 2.94351 26.825 2.85131 25.9842 3.02637C25.1434 3.20143 24.3706 3.60341 23.5652 3.90084C22.7598 4.19828 21.8671 4.39251 21.0477 4.13626C19.704 3.71628 18.6373 1.69741 17.2297 1.70608C16.2327 1.71292 15.5919 2.98986 14.9641 3.76379C14.3362 4.53773 13.2901 5.17812 12.3026 5.31433C9.52217 5.69463 7.2929 8.25951 6.77456 11.0175C6.57365 12.0835 5.70519 13.0502 4.80721 13.659C3.90923 14.2679 2.89521 14.7569 2.21131 15.5987C1.1256 16.9345 1.1256 18.9025 1.76382 20.5004C2.40204 22.0983 3.57912 23.4129 4.73302 24.69C5.26086 25.2736 5.5428 26.0812 5.58865 26.8668C5.6345 27.6524 5.6515 28.52 6.18285 29.1009C6.32495 29.2543 6.4924 29.382 6.67786 29.4785C6.37775 28.9283 6.35958 28.2263 6.32157 27.5804C6.27588 26.7948 5.99395 25.9875 5.4661 25.4036C4.3122 24.1263 3.1358 22.812 2.49674 21.214C1.85769 19.6159 1.85869 17.6479 2.9444 16.3123C3.62797 15.4707 4.64165 14.9817 5.5403 14.3728C6.43894 13.7639 7.30657 12.7971 7.50764 11.7312C8.02599 8.97326 10.2553 6.40754 13.0357 6.02724C14.0232 5.8927 15.0698 5.25181 15.6971 4.47837C16.3245 3.70494 16.9657 2.42767 17.9628 2.4205C19.3702 2.41199 20.4369 4.43086 21.7807 4.85084C22.6 5.10692 23.4927 4.91302 24.2983 4.61542C25.1039 4.31782 25.8775 3.91601 26.7175 3.74095C27.3935 3.6004 28.1448 3.63225 28.7398 3.95486C28.6528 3.79685 28.5422 3.65304 28.4119 3.52838ZM29.6038 19.4304C29.387 17.4545 28.3947 15.578 26.901 14.2706L26.8475 14.2301C27.9601 15.4702 28.6878 17.0587 28.8707 18.7171C28.912 19.0906 28.894 19.4864 28.8293 19.8952C28.5076 21.9107 27.0321 24.2264 25.7971 25.6138C25.7961 25.6148 25.7953 25.6165 25.7936 25.6173C24.7018 26.5815 23.5867 27.4043 22.5812 27.9191C19.4801 29.5085 15.9552 28.6307 13.3368 26.3531C13.4939 26.5272 13.6618 26.6964 13.8405 26.8609C16.4804 29.2896 20.1215 30.2685 23.3141 28.6324C24.3198 28.1175 25.4348 27.2948 26.5267 26.3306C26.5284 26.3306 26.5292 26.3279 26.5301 26.3271C27.7651 24.9394 29.2407 22.624 29.5624 20.6085C29.6271 20.1996 29.6451 19.8038 29.6038 19.4304Z" fill="#FFF9F2"/>
<path id="Vector_9" opacity="0.55" d="M10.0944 36.344C9.07505 35.5818 8.47051 34.333 8.29628 33.0652C8.20392 32.3933 8.21859 31.7086 8.09872 31.041C8.03586 30.6901 7.92799 30.3373 7.75977 30.024C7.83913 30.0542 7.92032 30.0817 8.00218 30.1074C8.47135 30.5137 8.7206 31.1381 8.83097 31.7546C8.95084 32.4215 8.93617 33.1069 9.02854 33.7788C9.15691 34.7046 9.51404 35.6204 10.0944 36.344Z" fill="#FFF9F2"/>
</g>
<g id="Group_6" opacity="0.55">
<path id="Vector_10" opacity="0.55" d="M24.5951 13.2597L24.3536 13.3244C23.2428 13.6203 21.9948 13.8652 20.997 13.2952C19.5326 12.4586 19.3309 9.75665 17.8492 9.2193C17.8389 9.20263 17.8286 9.18596 17.8174 9.17012C18.0841 8.76665 18.3469 8.39918 18.6133 7.99554C19.1385 8.30432 19.4481 8.87785 19.6595 9.44955C19.8709 10.0212 20.013 10.6243 20.3244 11.1476C20.7531 11.8661 21.4731 12.3749 22.2476 12.6915C22.996 12.9968 23.7971 13.1382 24.5951 13.2597Z" fill="#FFF9F2"/>
</g>
<g id="Group_7" opacity="0.55">
<path id="Vector_11" opacity="0.55" d="M7.68748 23.9744C7.40105 23.8502 7.16397 23.5699 7.05193 23.2682C6.87504 22.792 6.91305 22.266 6.97941 21.7632C7.01625 21.4872 7.06143 21.2098 7.08311 20.9327C7.09 20.8456 7.07882 20.7581 7.05026 20.6755C7.02171 20.593 6.97639 20.5173 6.91716 20.4531C6.85793 20.3889 6.78607 20.3376 6.70609 20.3025C6.62611 20.2674 6.53973 20.2492 6.45239 20.2491C6.52325 20.7511 6.42922 21.2598 6.36186 21.7635C6.2945 22.2672 6.25666 22.7923 6.43355 23.2685C6.60261 23.7247 7.0596 24.1308 7.53393 24.0266C7.58653 24.0148 7.63773 23.9974 7.68665 23.9748" fill="#FFF9F2"/>
</g>
<g id="Group_8" opacity="0.55">
<path id="Vector_12" opacity="0.55" d="M32.1006 27.6535C31.8883 28.0182 31.4985 28.2958 31.0967 28.208C30.6732 28.1148 30.4232 27.662 30.3593 27.2325C30.2954 26.803 30.3628 26.3632 30.2989 25.9347C30.2351 25.5062 29.985 25.0524 29.5615 24.9592L29.6782 24.9005C30.1361 24.6689 30.6981 24.9432 30.7768 25.4507L30.7783 25.4609C30.8421 25.8893 30.7748 26.3302 30.8386 26.7586C30.9025 27.1871 31.1526 27.641 31.5761 27.7342C31.7581 27.7735 31.9383 27.7368 32.1006 27.6535Z" fill="#FFF9F2"/>
</g>
<path id="Vector_13" d="M7.63668 18.432C8.65569 17.9985 9.43897 17.2231 10.0709 16.3506C10.3915 15.9141 10.6697 15.4478 10.931 14.9658C11.1922 14.4838 11.4345 13.9838 11.6861 13.482C11.9377 12.9801 12.2029 12.4801 12.4987 11.9898C12.7988 11.5011 13.1259 11.0238 13.5272 10.5916C13.5757 10.5361 13.6263 10.483 13.6791 10.4326L13.835 10.2775C13.9444 10.1795 14.0494 10.0775 14.1653 9.9861C14.3919 9.79719 14.6325 9.62564 14.885 9.47292C15.1402 9.31911 15.4079 9.18709 15.6853 9.07828C15.9672 8.97608 16.2582 8.89289 16.5588 8.84904C16.6333 8.83553 16.7098 8.83237 16.7853 8.82453L16.8989 8.81419C16.9367 8.81119 16.9751 8.81269 17.0131 8.81186H17.2418L17.4701 8.8312C17.5504 8.83748 17.6302 8.84901 17.709 8.86571C17.7501 8.87297 17.7906 8.88305 17.8304 8.89589C17.8705 8.90806 17.9112 8.91823 17.9506 8.93257C18.1074 8.99033 18.2561 9.06799 18.3931 9.16365C18.6647 9.35105 18.8709 9.59246 19.0478 9.83605C19.2225 10.0821 19.3646 10.3362 19.4991 10.5901C19.7647 11.0965 19.9941 11.6015 20.2719 12.053C20.4111 12.2772 20.5605 12.49 20.7322 12.6657C20.7761 12.7082 20.8177 12.7539 20.8642 12.7912L20.9319 12.8503L21.003 12.9029C21.0488 12.9408 21.1003 12.9668 21.1487 12.9991C21.1999 13.0283 21.2556 13.0537 21.3084 13.0825C21.7456 13.2862 22.2587 13.3358 22.7781 13.2921C23.3008 13.2531 23.8284 13.1289 24.365 12.9931C24.6364 12.9251 24.9118 12.8571 25.1926 12.7984C25.4733 12.7397 25.7603 12.6902 26.0544 12.6729C26.3485 12.6555 26.6484 12.6682 26.9417 12.7297C27.235 12.7912 27.5197 12.9009 27.7611 13.0708C27.7754 13.0809 27.7859 13.0956 27.7908 13.1123C27.7957 13.1291 27.7947 13.1471 27.7881 13.1633C27.7815 13.1795 27.7696 13.1929 27.7543 13.2015C27.7391 13.21 27.7214 13.2132 27.7041 13.2104C27.1553 13.12 26.6397 13.1525 26.1156 13.2386C25.854 13.2812 25.5912 13.3341 25.327 13.3971C25.0627 13.4605 24.7976 13.5342 24.5293 13.6099C23.9887 13.7627 23.4248 13.9033 22.8328 13.9568C22.531 13.9842 22.2272 13.9797 21.9264 13.9435C21.6145 13.9054 21.3106 13.8179 21.0261 13.6842C20.9554 13.647 20.8844 13.613 20.8147 13.5723C20.7465 13.5278 20.6745 13.4875 20.612 13.4366L20.5156 13.3633L20.4259 13.2842C20.3647 13.2324 20.3122 13.1747 20.257 13.1187C20.042 12.8908 19.8736 12.6397 19.7219 12.3879C19.4217 11.8826 19.1995 11.3624 18.9484 10.8787C18.8234 10.6373 18.6935 10.4031 18.5459 10.1925C18.3976 9.98443 18.2338 9.7952 18.0448 9.66382C17.9525 9.59857 17.8524 9.54519 17.7468 9.50493C17.7207 9.49509 17.6933 9.48826 17.6666 9.48042C17.6402 9.47109 17.6131 9.464 17.5854 9.45925C17.5277 9.4463 17.4691 9.43799 17.4101 9.43441L17.2208 9.41923L17.0308 9.42124C16.9991 9.42224 16.9674 9.42124 16.9357 9.4234L16.8407 9.43307C16.7777 9.44074 16.714 9.44241 16.6511 9.45458C16.3987 9.49309 16.151 9.56612 15.9084 9.65465C15.6664 9.75178 15.4329 9.86889 15.2103 10.0048C14.9861 10.1437 14.7731 10.2998 14.5731 10.4716C14.4699 10.555 14.3763 10.6488 14.2785 10.7384L14.1393 10.8806C14.0922 10.9274 14.0471 10.9758 14.0039 11.0263C13.6504 11.4191 13.3431 11.8672 13.0601 12.3307C12.7785 12.7976 12.5265 13.2866 12.2703 13.7812C12.014 14.2759 11.7603 14.7776 11.4772 15.2699C11.3363 15.516 11.1876 15.7621 11.0288 16.0007C10.866 16.2371 10.6999 16.4717 10.5167 16.6948C10.1499 17.1396 9.73507 17.552 9.25824 17.8852C9.02078 18.0522 8.768 18.1964 8.50331 18.3156L8.30324 18.399C8.23655 18.4264 8.16619 18.4457 8.09817 18.469C7.96346 18.5191 7.81974 18.5431 7.68136 18.5777C7.66296 18.5822 7.64355 18.5797 7.62696 18.5705C7.61038 18.5614 7.59783 18.5463 7.59181 18.5284C7.58579 18.5104 7.58673 18.4909 7.59446 18.4736C7.60218 18.4563 7.61612 18.4425 7.63351 18.435L7.63668 18.432Z" fill="#31241B"/>
<path id="Vector_14" d="M11.4848 15.2204C11.0787 16.5206 10.8476 17.8691 10.7978 19.2303C10.7715 19.9076 10.7994 20.5859 10.8811 21.2588C10.9246 21.5936 10.9823 21.9257 11.0562 22.2533C11.132 22.5793 11.2263 22.9006 11.3386 23.2158C11.4524 23.5278 11.5878 23.8314 11.7439 24.1245C11.9021 24.4131 12.0833 24.6883 12.2859 24.9476C12.4924 25.2014 12.7216 25.4358 12.9708 25.6478C13.2301 25.8663 13.4994 26.0727 13.7743 26.2707C14.8772 27.0568 16.1046 27.6787 17.403 28.0315C17.7264 28.1207 18.0549 28.1903 18.3867 28.2399C18.7168 28.2911 19.0499 28.3205 19.3839 28.3279C19.7163 28.3345 20.0487 28.3185 20.3789 28.2801C20.7073 28.2378 21.0319 28.1706 21.3501 28.079C21.6677 27.9881 21.9768 27.8698 22.2739 27.7254C22.4231 27.6574 22.569 27.5722 22.7154 27.49L22.9351 27.3669C23.0071 27.3231 23.0778 27.2764 23.1494 27.2314L23.3636 27.0957L23.471 27.028L23.5755 26.9553L23.9937 26.6637L24.402 26.3556C24.5398 26.2556 24.6734 26.1487 24.8066 26.0413C25.8766 25.189 26.8837 24.2475 27.841 23.2589C28.316 22.7608 28.787 22.2568 29.2285 21.728C29.6731 21.202 30.1028 20.6626 30.5022 20.1009L30.5039 20.0986C30.5209 20.0749 30.5465 20.0586 30.5752 20.0533C30.6039 20.048 30.6336 20.054 30.658 20.07C30.6824 20.0861 30.6997 20.1109 30.7062 20.1394C30.7127 20.1679 30.708 20.1977 30.693 20.2228L30.4207 20.6715C30.3287 20.8203 30.2288 20.9634 30.1329 21.1098C30.0371 21.2562 29.9362 21.3989 29.8348 21.5413C29.7335 21.6836 29.6348 21.8282 29.5262 21.9652C29.1079 22.5256 28.6613 23.0634 28.2051 23.5936C27.7398 24.1155 27.2641 24.6292 26.7624 25.1182C26.6399 25.2434 26.5104 25.3616 26.3836 25.4826C26.2569 25.6037 26.1319 25.7265 25.9983 25.8407L25.6032 26.1889C25.4722 26.3056 25.3335 26.4144 25.1989 26.5275C24.6561 26.9808 24.0816 27.3947 23.4798 27.7661C23.404 27.8126 23.3298 27.8606 23.2527 27.906L23.0172 28.0347C22.8601 28.1205 22.7052 28.2084 22.5378 28.2829C22.2089 28.4382 21.8677 28.5659 21.5176 28.6647C21.1682 28.7627 20.812 28.8345 20.4519 28.8793C20.0929 28.9212 19.7314 28.9387 19.3701 28.9315C19.0102 28.9234 18.6514 28.8918 18.2957 28.8368C17.9414 28.7838 17.5907 28.7095 17.2453 28.6144C15.8637 28.2384 14.5777 27.5843 13.4232 26.7619C13.1354 26.5547 12.8536 26.3386 12.5824 26.11C12.3028 25.8724 12.0456 25.6096 11.8141 25.3249C11.5892 25.0375 11.3882 24.7323 11.2129 24.4123C11.0426 24.0929 10.895 23.7621 10.7711 23.4221C10.6503 23.0836 10.549 22.7385 10.4678 22.3884C10.3888 22.0393 10.3279 21.6873 10.2819 21.334C10.1963 20.6289 10.1671 19.9182 10.1945 19.2085C10.2463 17.7926 10.4868 16.3901 10.9095 15.0378C10.9208 14.9993 10.9396 14.9635 10.9649 14.9323C10.9903 14.9012 11.0215 14.8754 11.0569 14.8565C11.0923 14.8376 11.1311 14.826 11.1711 14.8222C11.2111 14.8185 11.2514 14.8228 11.2896 14.8348C11.3279 14.8468 11.3634 14.8664 11.3941 14.8923C11.4247 14.9182 11.4499 14.9499 11.4681 14.9857C11.4864 15.0214 11.4973 15.0604 11.5003 15.1005C11.5033 15.1405 11.4982 15.1807 11.4855 15.2187L11.4848 15.2204Z" fill="#31241B"/>
<path id="Vector_15" d="M25.7933 25.9195C25.7351 25.9194 25.6781 25.9025 25.6293 25.8708C25.5805 25.8391 25.5419 25.794 25.5181 25.7409C25.4943 25.6878 25.4863 25.6289 25.4952 25.5714C25.5041 25.5139 25.5293 25.4601 25.568 25.4166C27.1697 23.62 28.7926 20.7672 28.5707 18.7493C28.3361 16.6163 27.1562 14.5946 25.4143 13.3413C25.3512 13.2938 25.3093 13.2236 25.2974 13.1455C25.2855 13.0675 25.3047 12.9879 25.3507 12.9238C25.3968 12.8597 25.4662 12.8162 25.5439 12.8026C25.6217 12.7891 25.7017 12.8065 25.7667 12.8511C27.6454 14.2028 28.9178 16.383 29.1708 18.6833C29.4128 20.8841 27.7066 23.9251 26.0187 25.8191C25.9903 25.8508 25.9555 25.8761 25.9167 25.8934C25.8778 25.9107 25.8358 25.9196 25.7933 25.9195Z" fill="#31241B"/>
<path id="Vector_16" d="M10.0268 32.8294C9.90912 32.3282 9.80009 31.8278 9.59701 31.3945C9.49381 31.1798 9.3676 30.9851 9.21205 30.8277C9.05649 30.6703 8.87276 30.5506 8.66353 30.4554C8.24371 30.2651 7.74654 30.1761 7.23503 30.0219C6.97894 29.9439 6.71435 29.8497 6.4606 29.7026C6.20684 29.5556 5.96876 29.3525 5.79603 29.1024C5.62331 28.8523 5.5126 28.5739 5.44491 28.3006C5.37722 28.0274 5.34321 27.7548 5.32087 27.4904C5.3102 27.3581 5.30203 27.2274 5.29453 27.0985L5.28352 26.9066C5.27902 26.8446 5.27519 26.7876 5.26918 26.7281C5.24502 26.4925 5.19789 26.2599 5.12847 26.0335C5.06041 25.809 4.96799 25.5926 4.85287 25.3881C4.79612 25.2873 4.73332 25.1901 4.66481 25.0969C4.62896 25.052 4.59595 25.0047 4.55761 24.9623L4.50159 24.8971L4.4369 24.8256C4.09194 24.4441 3.74616 24.0598 3.41087 23.6619C2.74398 22.8661 2.11043 22.0113 1.6551 21.0421C1.19011 20.0778 0.949524 18.9859 1.02272 17.897C1.0604 17.3528 1.1821 16.8075 1.40752 16.2983C1.52066 16.043 1.65972 15.7999 1.82249 15.5729C1.98545 15.3472 2.17036 15.1382 2.37452 14.949C2.77649 14.5734 3.22314 14.2763 3.66096 13.9987L4.31119 13.589C4.41756 13.521 4.52226 13.4521 4.62529 13.3823C4.72533 13.3145 4.82292 13.2431 4.91806 13.1681C5.29886 12.8691 5.64265 12.521 5.91708 12.1332C6.05327 11.9422 6.17 11.7381 6.26553 11.5238C6.31182 11.4191 6.35158 11.3116 6.38457 11.2019C6.40124 11.1475 6.41475 11.0928 6.42775 11.0382L6.46443 10.8581C6.67217 9.81274 7.06064 8.79939 7.64017 7.89391C8.2177 6.99126 9.00031 6.19332 9.96081 5.66564C10.4409 5.40034 10.9579 5.20805 11.4947 5.09511C11.628 5.06343 11.7659 5.04659 11.8971 5.02392C12.0197 5.00424 12.1432 4.9874 12.2648 4.96556C12.385 4.94072 12.5084 4.92272 12.6256 4.89237L12.8031 4.85069L12.9763 4.80067C13.2051 4.73198 13.4255 4.65062 13.6249 4.54358C13.8231 4.43772 14.0049 4.30386 14.1649 4.14611C14.3288 3.98706 14.4817 3.79849 14.6438 3.59892L14.759 3.45421L14.87 3.30716L15.0917 2.99938C15.2418 2.79015 15.3942 2.5754 15.5649 2.36433C15.7356 2.15326 15.9244 1.94469 16.1578 1.75929C16.2783 1.66302 16.4089 1.58002 16.5473 1.5117C16.7703 1.40133 17.0163 1.34539 17.2652 1.34848C17.3446 1.34921 17.4239 1.35534 17.5026 1.36682C17.656 1.3888 17.8064 1.42795 17.9511 1.48353C18.2345 1.59123 18.4801 1.74412 18.7037 1.90651C18.9196 2.06699 19.1272 2.23839 19.3257 2.42002C19.7153 2.77014 20.076 3.12693 20.4583 3.41036C20.6488 3.55091 20.8446 3.67178 21.0418 3.74998C21.0908 3.76969 21.1409 3.78639 21.1919 3.79999C21.2445 3.81483 21.2972 3.83017 21.3517 3.84001C21.4608 3.86321 21.5713 3.87865 21.6825 3.88619C22.1327 3.91537 22.6055 3.83084 23.0685 3.68712C23.5315 3.54341 23.9953 3.34167 24.4755 3.14493C24.9557 2.9482 25.4618 2.75747 26.0107 2.6546C26.5609 2.55556 27.1414 2.55456 27.7061 2.72579C27.9939 2.8127 28.2637 2.95091 28.5024 3.13376C28.563 3.18073 28.6212 3.23081 28.6766 3.28381C28.7335 3.33855 28.787 3.39668 28.8368 3.45788C28.9313 3.57555 29.0146 3.70175 29.0858 3.83484C29.2246 4.09293 29.3192 4.35518 29.3995 4.61344C29.4799 4.8717 29.5422 5.12762 29.6031 5.37871C29.7253 5.87771 29.8338 6.37288 30.0227 6.78436C30.1169 6.9881 30.2337 7.16349 30.3729 7.27436C30.4405 7.32924 30.5171 7.37185 30.5994 7.40024C30.6208 7.40841 30.6395 7.41208 30.6651 7.42025L30.7698 7.44992C30.8394 7.47026 30.9079 7.49427 30.9759 7.51928C31.5216 7.72252 31.9908 8.07931 32.3624 8.49295C33.108 9.32657 33.5248 10.3646 33.7879 11.3783C34.0581 12.3895 34.2365 13.394 34.602 14.3025C34.7823 14.7547 35.0174 15.183 35.3022 15.5779C35.5868 15.9847 35.9096 16.3807 36.2204 16.805C36.5312 17.2293 36.8318 17.6848 37.0478 18.1938C37.2639 18.6983 37.4058 19.2314 37.469 19.7765C37.5967 20.8621 37.41 21.9884 36.8998 22.9686C36.6443 23.4613 36.3048 23.9056 35.8964 24.2814L35.7609 24.4073C35.7205 24.448 35.6787 24.4873 35.6407 24.5303C35.5621 24.6148 35.4886 24.7039 35.4206 24.7971C35.2826 24.9861 35.1638 25.1885 35.066 25.4011C34.8659 25.8303 34.7384 26.3014 34.6603 26.7849C34.5823 27.2684 34.5531 27.7628 34.5518 28.2671C34.5441 29.2751 34.6232 30.3178 34.4973 31.3825C34.4664 31.6502 34.4197 31.9159 34.3576 32.1781C34.2957 32.4464 34.2102 32.7086 34.1022 32.9617C33.8854 33.4681 33.5853 33.9414 33.1933 34.3431C32.8014 34.7447 32.3074 35.0701 31.74 35.2164C31.4577 35.2897 31.1654 35.317 30.8744 35.2972C30.5905 35.2769 30.3103 35.2205 30.0408 35.1292C29.5109 34.9513 29.0444 34.6813 28.6006 34.4122L27.9454 34.0121C27.7353 33.8838 27.5182 33.7674 27.2951 33.6633C26.8531 33.4592 26.3858 33.3037 25.9243 33.2555C25.6947 33.2338 25.467 33.2388 25.2589 33.2889C25.0562 33.3342 24.8679 33.4291 24.7107 33.565L24.7096 33.5659C24.6494 33.6169 24.5717 33.6423 24.4931 33.6367C24.4145 33.6312 24.3412 33.5951 24.2888 33.5362C24.2364 33.4773 24.2092 33.4002 24.2128 33.3215C24.2165 33.2428 24.2508 33.1686 24.3084 33.1148C24.5395 32.9108 24.8175 32.7672 25.1175 32.6968C25.4097 32.626 25.7024 32.621 25.9832 32.6455C26.5452 32.7015 27.0657 32.8762 27.5559 33.0975C27.6782 33.1536 27.7989 33.2131 27.918 33.2759C28.0372 33.3389 28.1538 33.4064 28.2655 33.4721L28.9272 33.8706C29.3607 34.1306 29.7942 34.3721 30.2415 34.5184C30.6888 34.6648 31.1463 34.7042 31.5753 34.589C32.0054 34.4766 32.4001 34.2202 32.7242 33.8861C33.0483 33.5519 33.3077 33.1428 33.4933 32.7048C33.586 32.4853 33.6589 32.258 33.7112 32.0256C33.7667 31.788 33.808 31.5472 33.8349 31.3047C33.9488 30.3255 33.8714 29.3078 33.8736 28.2641C33.8736 27.7419 33.9009 27.2063 33.9849 26.6767C34.069 26.1472 34.2082 25.6162 34.4399 25.1122C34.5562 24.8577 34.6975 24.6154 34.8618 24.3889C34.9448 24.2745 35.0345 24.165 35.1303 24.061C35.1774 24.008 35.2287 23.9586 35.2787 23.9083L35.4248 23.7716C35.7727 23.4489 36.0615 23.0678 36.2781 22.6457C36.7156 21.8005 36.8758 20.8117 36.7637 19.8592C36.7083 19.3826 36.5842 18.9165 36.3953 18.4754C36.2094 18.0373 35.9421 17.6299 35.6464 17.225C35.3506 16.82 35.0236 16.4204 34.7189 15.9859C34.5628 15.7665 34.4188 15.5387 34.2876 15.3036C34.1566 15.0659 34.0406 14.8202 33.9401 14.568C33.539 13.5652 33.3597 12.534 33.0976 11.5633C33.031 11.3221 32.9626 11.0798 32.8831 10.8498C32.8038 10.619 32.7122 10.3927 32.6086 10.1719C32.4016 9.73321 32.1451 9.32157 31.8309 8.97145C31.5166 8.62133 31.1425 8.34406 30.723 8.18784C30.6705 8.16867 30.6178 8.15 30.5641 8.13449L30.4836 8.11165C30.4479 8.10081 30.4039 8.08998 30.365 8.07564C30.204 8.0202 30.054 7.93697 29.9217 7.82972C29.659 7.61631 29.4942 7.34505 29.3725 7.08546C29.2508 6.82321 29.1689 6.56162 29.0966 6.30469C29.0242 6.04777 28.9659 5.79435 28.9055 5.54626C28.785 5.05359 28.6638 4.56709 28.4537 4.17496C28.404 4.08217 28.3459 3.99411 28.2801 3.91187C28.249 3.87357 28.2156 3.83721 28.1801 3.80299C28.1427 3.76728 28.1034 3.7335 28.0626 3.70179C27.8922 3.57206 27.6997 3.47422 27.4945 3.41303C27.0742 3.28431 26.5979 3.27965 26.1407 3.36301C25.6786 3.44921 25.2156 3.62093 24.7479 3.81216C24.2803 4.0034 23.8014 4.2173 23.2816 4.37769C22.7662 4.53708 22.2115 4.64445 21.6345 4.60794C21.3406 4.5889 21.0512 4.52619 20.7757 4.42187C20.4953 4.31034 20.2522 4.15512 20.0298 3.99256C19.5868 3.66311 19.2173 3.29332 18.8437 2.95687C18.6639 2.79126 18.4758 2.63484 18.2802 2.48821C18.0896 2.34849 17.8937 2.22962 17.6966 2.15476C17.6016 2.11763 17.5028 2.09129 17.4019 2.07623C17.3535 2.06904 17.3046 2.06514 17.2557 2.06456C17.2106 2.06396 17.1656 2.06681 17.121 2.07306C16.9456 2.0969 16.7685 2.18627 16.5986 2.32032C16.4287 2.45436 16.2687 2.62609 16.1163 2.81349C15.9639 3.00088 15.8172 3.20412 15.6679 3.41253L15.4385 3.7293L15.317 3.88919L15.1923 4.04525C15.0302 4.24398 14.8588 4.45522 14.6544 4.65362C14.4471 4.85595 14.212 5.02768 13.9562 5.16363C13.7018 5.29868 13.4378 5.39455 13.1753 5.47274L12.9779 5.52809L12.7804 5.57394C12.6487 5.60728 12.5177 5.62646 12.3863 5.6528C12.2551 5.67598 12.1242 5.69348 11.9932 5.71399C11.8716 5.73516 11.7548 5.74733 11.6374 5.77601C11.1673 5.87333 10.7144 6.04034 10.2938 6.27152C9.44913 6.73251 8.74322 7.44109 8.21354 8.26337C7.68385 9.08565 7.31906 10.0231 7.12433 10.9903L7.08331 11.1874C7.06664 11.2576 7.04863 11.3273 7.02796 11.3958C6.98653 11.5321 6.93675 11.6657 6.87891 11.7959C6.76448 12.0507 6.62484 12.2935 6.4621 12.5205C6.14115 12.9707 5.75368 13.3581 5.32637 13.6919C5.21933 13.7753 5.10963 13.8551 4.99726 13.9315C4.88744 14.005 4.77746 14.0769 4.66731 14.1472L4.01292 14.5569C3.58377 14.827 3.17163 15.1027 2.8215 15.4285C2.47292 15.7459 2.1937 16.1318 2.00139 16.5622C1.80932 16.9924 1.70128 17.4626 1.66644 17.9427C1.63353 18.4265 1.66674 18.9125 1.76514 19.3874C1.81389 19.6257 1.87709 19.8608 1.95437 20.0915C2.03411 20.323 2.1265 20.5501 2.23113 20.7715C2.64794 21.6668 3.24315 22.4816 3.89138 23.2581C4.21649 23.6465 4.55644 24.0267 4.89906 24.4085L4.96341 24.4798L5.03277 24.5608C5.08029 24.614 5.12113 24.6719 5.16498 24.7276C5.24811 24.8415 5.32433 24.9603 5.39323 25.0834C5.5297 25.327 5.63905 25.5849 5.71934 25.8525C5.79984 26.1175 5.85423 26.3899 5.88173 26.6656C5.8884 26.7336 5.89323 26.8049 5.8984 26.8708L5.9089 27.0634C5.91591 27.1909 5.92341 27.3163 5.93325 27.4402C5.97126 27.9318 6.05529 28.4072 6.29704 28.7546C6.41675 28.9277 6.5748 29.0667 6.76587 29.1781C6.95693 29.2895 7.17834 29.3723 7.41243 29.4449C7.87925 29.5917 8.40594 29.6883 8.91294 29.9514C9.16303 30.0819 9.40828 30.2625 9.59268 30.4914C9.77941 30.7173 9.90846 30.9777 9.99282 31.24C10.075 31.497 10.1282 31.7624 10.1514 32.0313C10.1757 32.2917 10.1846 32.5534 10.178 32.8149C10.1779 32.8335 10.1709 32.8514 10.1585 32.8652C10.146 32.879 10.1289 32.8877 10.1104 32.8898C10.0919 32.8918 10.0733 32.887 10.0582 32.8763C10.043 32.8656 10.0322 32.8496 10.028 32.8315L10.0268 32.8294Z" fill="#31241B"/>
<g id="Group_9" opacity="0.55">
<path id="Vector_17" opacity="0.55" d="M25.8934 8.10012C25.6865 8.48359 25.2846 8.78369 24.8681 8.69266C24.4446 8.59946 24.1945 8.14664 24.1307 7.71716C24.0668 7.28768 24.1342 6.84786 24.0703 6.41921C24.1172 6.38163 24.1738 6.35806 24.2336 6.35122C24.2933 6.34439 24.3538 6.35456 24.408 6.38057C24.4622 6.40657 24.508 6.44736 24.54 6.49824C24.5721 6.54911 24.5891 6.608 24.5892 6.66813C24.5892 6.85019 24.593 7.03192 24.6197 7.21182C24.6835 7.64047 24.9336 8.09329 25.3571 8.18632C25.5442 8.22784 25.7291 8.18899 25.8934 8.10012Z" fill="#FFF9F2"/>
</g>
<path id="Vector_18" d="M7.22055 29.3937C7.557 29.6406 7.8256 29.9587 8.02783 30.3107C8.12892 30.4869 8.21316 30.6723 8.27942 30.8644C8.31276 30.9606 8.34044 31.0588 8.36445 31.1581C8.37612 31.2082 8.38562 31.2582 8.39596 31.3082L8.41997 31.4521C8.53667 32.219 8.5085 32.9558 8.64388 33.635C8.77576 34.3186 9.03818 34.98 9.43215 35.544C9.82612 36.108 10.3568 36.5732 10.9765 36.8243C11.5962 37.0754 12.3078 37.1369 12.949 36.9668C13.2671 36.8838 13.5655 36.7384 13.8268 36.539C14.0824 36.3389 14.3028 36.0808 14.4916 35.7922C14.683 35.5045 14.8439 35.1862 14.9917 34.8554C15.1396 34.5246 15.2985 34.1885 15.4976 33.8632C15.6928 33.5385 15.9184 33.216 16.2023 32.9414C16.4836 32.666 16.8347 32.4506 17.208 32.3556C17.2256 32.3511 17.2442 32.353 17.2605 32.361C17.2767 32.3689 17.2897 32.3824 17.2969 32.3991C17.3041 32.4157 17.3052 32.4343 17.3 32.4517C17.2947 32.469 17.2834 32.484 17.2682 32.4938L17.2667 32.4946C16.9719 32.6831 16.7177 32.9284 16.5188 33.2162C16.322 33.4996 16.163 33.8107 16.0186 34.137C15.8742 34.4633 15.7288 34.7976 15.5568 35.1283C15.3847 35.4591 15.2098 35.7977 14.9957 36.1245C14.7817 36.4513 14.5212 36.7622 14.1968 37.0162C13.8717 37.2648 13.5004 37.4462 13.1044 37.5497C12.3208 37.7558 11.4889 37.6822 10.7488 37.383C10.0007 37.0787 9.3848 36.5308 8.93748 35.8894C8.49016 35.2481 8.19822 34.5085 8.05117 33.749C7.90245 32.9808 7.9313 32.2327 7.82359 31.5436L7.80209 31.4152L7.77708 31.2957C7.75757 31.2163 7.7354 31.1375 7.70855 31.0598C7.65485 30.9036 7.58646 30.7529 7.50432 30.6096C7.34043 30.324 7.12252 30.0693 6.8651 29.8805L6.86359 29.8794C6.83163 29.8559 6.80459 29.8264 6.78403 29.7925C6.76346 29.7586 6.74978 29.721 6.74375 29.6819C6.73772 29.6427 6.73946 29.6027 6.74888 29.5642C6.75831 29.5257 6.77522 29.4894 6.79866 29.4575C6.82209 29.4255 6.8516 29.3985 6.88549 29.3779C6.91937 29.3573 6.95698 29.3436 6.99615 29.3376C7.03533 29.3316 7.07531 29.3333 7.11381 29.3428C7.15232 29.3522 7.18859 29.3691 7.22055 29.3925V29.3937Z" fill="#31241B"/>
<path id="Vector_19" d="M15.7641 33.9468C16.9845 34.0696 18.1982 34.1985 19.4038 34.2017C20.6066 34.2113 21.809 34.0963 22.9274 33.721L23.1361 33.6488C23.2062 33.6267 23.2751 33.6008 23.3424 33.5711L23.7475 33.3976L24.138 33.1943C24.2685 33.1276 24.3926 33.0476 24.5183 32.9691C24.7684 32.808 25.0131 32.6341 25.2605 32.4561C25.5079 32.278 25.7537 32.0911 26.0108 31.9144C26.2679 31.7377 26.5301 31.5634 26.8092 31.4079C27.0892 31.2557 27.3791 31.1184 27.6827 31.0142C27.9866 30.9085 28.3024 30.8404 28.6229 30.8113C28.9428 30.7845 29.2649 30.8127 29.5753 30.8947C29.5935 30.8997 29.6091 30.9113 29.6191 30.9273C29.6291 30.9432 29.6329 30.9622 29.6296 30.9808C29.6263 30.9993 29.6163 31.0159 29.6014 31.0274C29.5865 31.039 29.5679 31.0445 29.5492 31.0431H29.5477C29.2519 31.0194 28.9543 31.0386 28.664 31.1001C28.3769 31.1648 28.0975 31.2598 27.8304 31.3835C27.2929 31.6311 26.8089 31.9744 26.3332 32.3505L25.6136 32.9219C25.3709 33.1148 25.1205 33.3054 24.8567 33.4826C24.7233 33.5703 24.59 33.66 24.4502 33.7375L24.0283 33.9709L23.5908 34.171C23.5181 34.205 23.4438 34.2351 23.368 34.2614L23.1426 34.3447C22.5379 34.5563 21.913 34.6972 21.285 34.7847C20.6559 34.8669 20.0252 34.8929 19.3983 34.8881C18.7714 34.8832 18.1479 34.8429 17.531 34.7765C16.9135 34.7129 16.2999 34.6357 15.6902 34.5451C15.6128 34.5329 15.5432 34.491 15.4961 34.4283C15.449 34.3657 15.4281 34.2871 15.4379 34.2094C15.4476 34.1316 15.4872 34.0607 15.5483 34.0116C15.6094 33.9625 15.6872 33.939 15.7652 33.9463L15.7641 33.9468Z" fill="#31241B"/>
<path id="Vector_20" d="M12.9941 9.53408C14.0407 9.69447 14.8923 10.5404 15.2878 11.5226C15.6832 12.5048 15.6836 13.6035 15.5439 14.653C15.4041 15.7025 15.1312 16.7311 14.9973 17.7813C14.9306 18.3076 14.8996 18.8516 15.0504 19.3603C15.2011 19.869 15.5632 20.3408 16.0694 20.4997C16.7334 20.7081 17.4759 20.3163 17.8558 19.7328C18.2358 19.1492 18.3203 18.4228 18.3143 17.7267C18.3031 16.4565 18.0259 15.206 17.809 13.9543C17.5921 12.7025 17.4347 11.4161 17.6631 10.1665C17.8915 8.91687 18.5579 7.69411 19.6588 7.06039" fill="#81AA71"/>
<g id="Group_10" opacity="0.55">
<path id="Vector_21" opacity="0.55" d="M17.6806 19.9618C17.2734 20.4128 16.643 20.68 16.0705 20.4998C15.5642 20.3412 15.202 19.8694 15.051 19.3606C14.8999 18.8517 14.9311 18.3075 14.9985 17.7815C15.1319 16.7312 15.4046 15.7023 15.5452 14.6526C15.6857 13.6029 15.684 12.5052 15.2891 11.523C14.8941 10.5409 14.042 9.69456 12.9951 9.53417C13.9788 9.16888 15.0983 9.51383 15.6749 10.391C15.8068 10.5912 15.9185 10.8039 16.0083 11.0262C16.4033 12.0085 16.4041 13.1064 16.2644 14.1559C16.1247 15.2055 15.8514 16.2343 15.7177 17.2847C15.651 17.8109 15.6202 18.3551 15.7711 18.8639C15.922 19.3727 16.2834 19.8444 16.7896 20.0031C17.0829 20.0953 17.3931 20.0703 17.6806 19.9618Z" fill="#FFF9F2"/>
</g>
<path id="Vector_22" d="M13.0067 9.45944C13.3235 9.40676 13.6543 9.46711 13.953 9.59166C14.2545 9.7157 14.5187 9.91293 14.7521 10.1348C14.8085 10.1924 14.8667 10.2485 14.9209 10.3082C14.9722 10.3701 15.0271 10.4296 15.0754 10.4938C15.1754 10.62 15.266 10.7533 15.3465 10.8926C15.5076 11.1696 15.6335 11.4656 15.7213 11.7737C15.8982 12.3836 15.9412 13.011 15.93 13.6225C15.9189 14.2341 15.8328 14.8385 15.728 15.4257C15.6231 16.0129 15.4972 16.5892 15.3982 17.1618C15.3033 17.7333 15.21 18.3102 15.2587 18.8394C15.2845 19.1048 15.3473 19.3547 15.4626 19.5749C15.5778 19.7952 15.743 19.9867 15.9377 20.1085C16.1321 20.2325 16.3557 20.2752 16.5861 20.2438C16.8165 20.2125 17.0469 20.1068 17.2433 19.9562C17.342 19.8806 17.4311 19.7933 17.5089 19.6963C17.588 19.5983 17.6563 19.4921 17.7127 19.3795C17.8289 19.1411 17.9091 18.8868 17.9509 18.6249C18.0421 18.0891 18.0198 17.5101 17.9734 16.9384C17.8734 15.791 17.6056 14.6456 17.4232 13.4648C17.3324 12.8745 17.2637 12.2742 17.2522 11.6655C17.2407 11.0568 17.2877 10.4418 17.4227 9.8339C17.4884 9.5303 17.5709 9.22753 17.6967 8.94043C17.8224 8.65333 17.9888 8.38474 18.1755 8.13365C18.5523 7.63531 19.0501 7.21667 19.6215 6.99592C19.6384 6.98938 19.6571 6.98907 19.6743 6.99507C19.6914 7.00107 19.7058 7.01297 19.715 7.02864C19.7241 7.04432 19.7274 7.06274 19.7242 7.0806C19.721 7.09847 19.7115 7.11461 19.6975 7.12614C19.2595 7.48634 18.8958 7.92845 18.6268 8.42775C18.4913 8.67017 18.3854 8.92693 18.2827 9.18335C18.18 9.43977 18.0826 9.70019 18.0159 9.97179C17.8859 10.514 17.8464 11.0838 17.8564 11.6532C17.8664 12.2226 17.9321 12.7981 18.0206 13.3728C18.1965 14.5232 18.4694 15.6804 18.5748 16.8855C18.6011 17.1866 18.6161 17.4894 18.6171 17.7948C18.6199 18.1069 18.596 18.4186 18.5458 18.7266C18.494 19.0479 18.3947 19.3597 18.2512 19.6518C18.1755 19.8028 18.0839 19.9452 17.9779 20.0768C17.8708 20.2099 17.7482 20.3297 17.6128 20.4339C17.3429 20.6403 17.0228 20.7957 16.6665 20.8424C16.4862 20.867 16.3032 20.8613 16.1248 20.8257C15.9457 20.7882 15.7747 20.7192 15.6198 20.622C15.3135 20.4302 15.0836 20.1551 14.9274 19.855C14.8493 19.7046 14.7878 19.5461 14.744 19.3824C14.7017 19.2239 14.6727 19.0622 14.6574 18.8989C14.6271 18.5761 14.6426 18.2605 14.6741 17.9559C14.7056 17.6513 14.7523 17.3557 14.8033 17.0606C14.9054 16.471 15.0312 15.8935 15.1334 15.3211C15.2356 14.7488 15.3168 14.1792 15.325 13.6124C15.3332 13.0455 15.2682 12.485 15.0991 11.9655C15.0167 11.7086 14.9079 11.4611 14.7743 11.2267C14.7076 11.11 14.6341 10.9983 14.5562 10.8894C14.5181 10.8344 14.474 10.7841 14.4334 10.7309L14.303 10.5787C14.1218 10.3816 13.9154 10.214 13.6999 10.0545C13.4845 9.89493 13.2498 9.75438 12.983 9.6105L12.981 9.60949C12.9625 9.59944 12.9488 9.58246 12.9427 9.56226C12.9367 9.54207 12.939 9.52032 12.949 9.50179C12.9547 9.49077 12.9629 9.48122 12.9729 9.47387C12.9829 9.46653 12.9945 9.46159 13.0067 9.45944Z" fill="#31241B"/>
<path id="Vector_23" d="M29.5806 24.8742C29.8157 24.8952 30.0341 25.0378 30.184 25.2167C30.3332 25.3979 30.4404 25.6099 30.4977 25.8376C30.6111 26.2877 30.5773 26.7212 30.6389 27.0838C30.652 27.169 30.6716 27.2531 30.6976 27.3353C30.7223 27.4129 30.7534 27.4884 30.7907 27.5608C30.8647 27.7009 30.9597 27.8146 31.0664 27.8713C31.1206 27.8998 31.1804 27.916 31.2415 27.9186C31.3027 27.9213 31.3636 27.9103 31.4201 27.8866C31.5448 27.8344 31.6701 27.7326 31.764 27.6032C31.8103 27.5386 31.8494 27.4693 31.8807 27.3963C31.912 27.3186 31.9368 27.2385 31.9549 27.1567C31.9941 26.9876 32.0083 26.8066 32.0113 26.6185C32.0158 26.2419 31.9624 25.8411 31.9279 25.4164C31.8987 24.9934 31.8945 24.537 32.0514 24.1006C32.1308 23.8876 32.2413 23.6838 32.3949 23.5148C32.5444 23.3417 32.7383 23.2128 32.9557 23.1418C32.9761 23.1352 32.9982 23.1365 33.0177 23.1452C33.0373 23.154 33.0529 23.1697 33.0615 23.1893C33.0701 23.2089 33.0712 23.231 33.0645 23.2513C33.0577 23.2717 33.0437 23.2888 33.0251 23.2994L33.0228 23.3009C32.6893 23.4931 32.4989 23.8469 32.4234 24.2093C32.3869 24.3938 32.375 24.5823 32.3881 24.7699C32.399 24.9654 32.4226 25.16 32.4589 25.3524C32.5239 25.7467 32.6256 26.161 32.639 26.612C32.6443 26.8366 32.6295 27.0703 32.5713 27.3031C32.5429 27.4226 32.5032 27.5391 32.4526 27.651C32.3988 27.7662 32.3325 27.8751 32.2548 27.9756C32.0996 28.1745 31.8984 28.3484 31.6391 28.4511C31.5043 28.5026 31.3609 28.5278 31.2166 28.5255C31.0693 28.5218 30.9244 28.4867 30.7917 28.4226C30.5259 28.2943 30.3415 28.0752 30.228 27.8503C30.1716 27.7385 30.1285 27.6206 30.0994 27.4988C30.0717 27.3815 30.0554 27.2617 30.0509 27.1412C30.0319 26.682 30.1128 26.2816 30.0796 25.9154C30.0629 25.737 30.0144 25.556 29.9277 25.3986C29.841 25.2412 29.715 25.109 29.5426 25.0425H29.5406C29.5211 25.0348 29.5051 25.0204 29.4953 25.0019C29.4856 24.9834 29.4829 24.962 29.4876 24.9417C29.4924 24.9213 29.5043 24.9033 29.5212 24.891C29.5381 24.8788 29.5589 24.873 29.5797 24.8747L29.5806 24.8742Z" fill="#31241B"/>
<path id="Vector_24" d="M32.9896 23.2215L32.8939 23.2699L32.8525 23.2914C32.867 23.2829 32.8809 23.2747 32.8956 23.2664C32.9257 23.25 32.9577 23.2352 32.9896 23.2215Z" fill="#FFF9F2"/>
<path id="Vector_25" d="M32.8525 23.2914C32.867 23.2829 32.8809 23.2747 32.8956 23.2664C32.8951 23.2668 32.8947 23.2674 32.8944 23.268C32.8941 23.2686 32.8939 23.2692 32.8939 23.2699L32.8525 23.2914Z" fill="#FFF9F2"/>
<path id="Vector_26" d="M31.3186 33.6521C30.9004 33.7673 30.6742 34.2325 30.633 34.6641C30.5918 35.0958 30.6812 35.5323 30.6398 35.9646C30.5985 36.3969 30.3721 36.8614 29.9538 36.9762C29.4846 37.1051 29.0076 36.7228 28.8149 36.276C28.614 35.8092 28.6241 35.2827 28.6648 34.7768C28.7055 34.271 28.7737 33.758 28.6772 33.2596C28.5806 32.7613 28.2819 32.2678 27.8047 32.0952" fill="#81AA71"/>
<g id="Group_11" opacity="0.55">
<path id="Vector_27" opacity="0.55" d="M30.1584 36.8831C30.0956 36.9246 30.0266 36.9558 29.954 36.9755C29.4848 37.1049 29.008 36.7227 28.8148 36.2753C28.6139 35.8084 28.6242 35.2817 28.6647 34.7747C28.7052 34.2677 28.7743 33.7562 28.6776 33.2575C28.5905 32.8074 28.3378 32.3614 27.9385 32.1527L28.6732 32.4783C28.9528 32.6021 29.1629 32.8506 29.2224 33.1505C29.2224 33.1522 29.2233 33.154 29.2236 33.1557C29.3201 33.6533 29.2519 34.1665 29.2114 34.6729C29.1709 35.1792 29.1597 35.7066 29.3606 36.1717C29.5064 36.5115 29.8136 36.8124 30.1584 36.8831Z" fill="#FFF9F2"/>
</g>
<path id="Vector_28" d="M31.341 33.7352C31.1722 33.8107 31.052 33.9491 30.9742 34.1108C30.8963 34.2725 30.8575 34.4554 30.8491 34.6345C30.835 35.0013 30.9365 35.3976 30.9413 35.8571C30.9432 35.9777 30.9332 36.0982 30.9115 36.2169C30.8887 36.3399 30.8517 36.4599 30.8013 36.5745C30.6989 36.8051 30.5269 37.0333 30.2678 37.1747C30.1385 37.2456 29.9956 37.2882 29.8486 37.2996C29.7046 37.3094 29.5601 37.2916 29.4228 37.2472C29.1586 37.158 28.9486 36.9948 28.7834 36.8042C28.7005 36.7079 28.6286 36.6026 28.569 36.4903C28.5126 36.3812 28.4669 36.2669 28.4325 36.149C28.3623 35.9196 28.3353 35.687 28.3289 35.4623C28.3184 35.0121 28.399 34.5923 28.4435 34.1952C28.4698 34.0011 28.4834 33.8056 28.4842 33.6098C28.4873 33.4218 28.4657 33.2342 28.4196 33.0519C28.3254 32.6938 28.1172 32.3504 27.7741 32.1756L27.7716 32.1745C27.7526 32.1647 27.738 32.1483 27.7303 32.1284C27.7227 32.1085 27.7227 32.0865 27.7303 32.0666C27.7378 32.0467 27.7525 32.0303 27.7714 32.0205C27.7903 32.0106 27.8121 32.0081 27.8328 32.0134C28.0536 32.073 28.254 32.1918 28.4123 32.3569C28.5743 32.5186 28.6957 32.7155 28.7856 32.9237C28.9643 33.3514 28.9843 33.8074 28.9772 34.2313C28.965 34.6573 28.9325 35.0601 28.9566 35.4361C28.9692 35.6233 28.9928 35.8039 29.04 35.9706C29.0623 36.0513 29.0913 36.1301 29.1265 36.206C29.1618 36.2771 29.2047 36.3442 29.2544 36.4061C29.3545 36.5306 29.4853 36.6258 29.6125 36.6715C29.6701 36.6924 29.7315 36.7002 29.7924 36.6945C29.8534 36.6887 29.9122 36.6695 29.9648 36.6382C30.0685 36.576 30.1574 36.4576 30.2241 36.3139C30.2576 36.2396 30.2848 36.1627 30.3054 36.0838C30.3272 36.0004 30.3424 35.9154 30.351 35.8296C30.3936 35.4639 30.3375 35.034 30.4275 34.5778C30.4728 34.3475 30.5688 34.1302 30.7086 33.9416C30.8488 33.755 31.0595 33.6013 31.2935 33.5681C31.3141 33.5653 31.3351 33.5701 31.3526 33.5814C31.3701 33.5928 31.3829 33.6101 31.3887 33.6302C31.3945 33.6502 31.3929 33.6717 31.3842 33.6906C31.3755 33.7096 31.3603 33.7248 31.3413 33.7335L31.341 33.7352Z" fill="#31241B"/>
<path id="Vector_29" d="M24.1552 6.40641C24.2532 6.70418 24.2747 7.01729 24.3131 7.30089C24.3334 7.44227 24.3541 7.58048 24.3896 7.70336C24.4221 7.82061 24.4706 7.93281 24.5338 8.03681C24.5894 8.12809 24.6586 8.21035 24.739 8.28073C24.7735 8.30932 24.8106 8.33461 24.8498 8.35625C24.8873 8.37529 24.9274 8.38883 24.9688 8.39643C25.05 8.4121 25.1404 8.39743 25.2301 8.35408C25.3261 8.30506 25.4112 8.23699 25.4801 8.15401C25.5538 8.06764 25.6128 7.96982 25.6549 7.86441C25.6991 7.75046 25.7326 7.63263 25.7549 7.51246C25.8021 7.26237 25.8166 6.98928 25.8049 6.70535C25.8014 6.56347 25.7926 6.41875 25.7831 6.27087C25.7736 6.12298 25.7664 5.9726 25.7646 5.82071C25.7599 5.5171 25.7782 5.20116 25.8646 4.90373C25.8704 4.88371 25.8833 4.86644 25.9007 4.85506C25.9182 4.84368 25.9392 4.83895 25.9599 4.84171C25.9805 4.84447 25.9995 4.85455 26.0134 4.87012C26.0273 4.88569 26.0351 4.90572 26.0355 4.92657V4.92774C26.044 5.5056 26.2314 6.04329 26.3368 6.65183C26.3868 6.9551 26.4201 7.27771 26.3754 7.613C26.3527 7.78515 26.3066 7.95341 26.2386 8.11317C26.1654 8.28076 26.0639 8.43446 25.9385 8.56749C25.8136 8.70087 25.6685 8.82091 25.4883 8.90244C25.3116 8.98347 25.1012 9.03582 24.8881 9.00798C24.7828 8.99645 24.6798 8.96913 24.5827 8.92695C24.4889 8.88391 24.4018 8.82778 24.3239 8.76023C24.1825 8.63325 24.0725 8.47515 24.0026 8.2984C23.9355 8.1363 23.8939 7.96475 23.8794 7.78989C23.8675 7.62982 23.8701 7.469 23.8871 7.30939C23.9159 7.00262 23.9704 6.72185 23.983 6.43325V6.43159C23.9838 6.41113 23.9919 6.39163 24.0056 6.37648C24.0194 6.36133 24.0381 6.35149 24.0584 6.34868C24.0786 6.34586 24.0993 6.35025 24.1167 6.36107C24.134 6.37189 24.1471 6.38847 24.1535 6.40791L24.1552 6.40641Z" fill="#31241B"/>
<g id="Group_12" opacity="0.3">
<path id="Vector_30" opacity="0.3" d="M26.9827 8.43007C26.8138 8.8864 26.3575 9.29337 25.8823 9.189C25.6314 9.13382 25.4408 8.95275 25.3154 8.72501C25.4488 8.62247 25.6077 8.46625 25.7784 8.22834C26.2744 7.53843 25.8931 5.08041 25.8931 5.08041C26.4767 5.26048 26.9055 5.76398 26.9792 6.36969C27.0018 6.55526 27.0302 6.74066 27.0549 6.92522C27.1224 7.42973 27.1596 7.95524 26.9827 8.43007Z" fill="#31241B"/>
</g>
<path id="Vector_31" d="M8.41802 21.7655C8.43052 22.0541 8.4847 22.3349 8.51388 22.6417C8.53089 22.8013 8.53346 22.9621 8.52155 23.1222C8.50707 23.297 8.4655 23.4686 8.39834 23.6307C8.32847 23.8074 8.21849 23.9655 8.07706 24.0925C7.99918 24.16 7.91211 24.2162 7.81847 24.2592C7.72132 24.3015 7.61835 24.3288 7.51304 24.3403C7.3003 24.3686 7.08989 24.3158 6.91283 24.2347C6.73327 24.1532 6.58838 24.0325 6.46267 23.8998C6.33718 23.7668 6.23565 23.6131 6.16257 23.4455C6.09455 23.2857 6.0485 23.1174 6.02569 22.9453C5.981 22.61 6.01502 22.2874 6.06437 21.9841C6.16974 21.3756 6.35714 20.838 6.36564 20.26V20.259C6.36584 20.2381 6.37357 20.2179 6.38742 20.2023C6.40127 20.1866 6.4203 20.1764 6.44104 20.1736C6.46178 20.1708 6.48283 20.1756 6.50033 20.187C6.51784 20.1985 6.53063 20.2159 6.53636 20.236C6.62289 20.5341 6.64123 20.8501 6.6364 21.1538C6.6339 21.306 6.62506 21.4564 6.61789 21.604C6.61072 21.7515 6.59955 21.8964 6.59605 22.0385C6.58405 22.3219 6.59855 22.5957 6.64607 22.8454C6.66841 22.9656 6.7019 23.0834 6.7461 23.1974C6.78819 23.3028 6.84721 23.4006 6.92083 23.487C6.98975 23.5699 7.07484 23.638 7.17092 23.687C7.26062 23.7304 7.35098 23.7451 7.43218 23.7294C7.47359 23.7218 7.51368 23.7083 7.55122 23.6892C7.59044 23.6676 7.62751 23.6423 7.66192 23.6137C7.74236 23.5433 7.81157 23.461 7.86716 23.3698C7.93033 23.2658 7.97885 23.1536 8.01138 23.0363C8.04689 22.9134 8.06756 22.7752 8.08807 22.6338C8.12625 22.3504 8.14776 22.0371 8.24579 21.7394C8.25221 21.7199 8.26523 21.7034 8.2826 21.6925C8.29997 21.6817 8.32058 21.6773 8.34086 21.6801C8.36113 21.6829 8.37979 21.6927 8.39358 21.7078C8.40737 21.7229 8.41543 21.7424 8.41635 21.7629L8.41802 21.7655Z" fill="#31241B"/>
<path id="Vector_32" d="M22.194 33.2273C22.1305 33.6565 22.197 34.3667 22.1335 34.7957C22.07 35.2247 21.8194 35.6773 21.3959 35.7705C20.9206 35.8749 20.4641 35.4684 20.2947 35.0121C20.1181 34.5365 20.1558 34.0103 20.223 33.5073C20.2902 33.0043 20.3846 32.4954 20.314 31.9929" fill="#81AA71"/>
<g id="Group_13" opacity="0.55">
<path id="Vector_33" opacity="0.55" d="M21.7509 35.581C21.6515 35.6747 21.5289 35.7402 21.3957 35.7705C20.9205 35.8749 20.4643 35.4688 20.2953 35.0126C20.1184 34.5364 20.1556 34.0104 20.2228 33.5067C20.2899 33.0031 20.385 32.4952 20.3143 31.9932L20.3176 31.9954C20.5088 32.1207 20.6624 32.2956 20.7618 32.5015C20.8612 32.7073 20.9028 32.9363 20.8821 33.164C20.8755 33.2367 20.8688 33.3092 20.8626 33.3817C20.8205 33.8879 20.8085 34.4154 21.0085 34.8822C21.1456 35.2023 21.4293 35.4903 21.7509 35.581Z" fill="#FFF9F2"/>
</g>
<path id="Vector_34" d="M22.2798 33.24C22.2878 33.5361 22.3323 33.8377 22.3631 34.1467C22.3766 34.3016 22.392 34.4583 22.393 34.6227C22.394 34.7871 22.3836 34.9713 22.3366 35.1454C22.2921 35.3288 22.2132 35.5022 22.104 35.6562C21.98 35.8277 21.8076 35.9583 21.6089 36.0312C21.402 36.105 21.1771 36.1121 20.966 36.0515C20.7727 35.9954 20.5945 35.8964 20.4448 35.7619C20.3024 35.6364 20.1825 35.4875 20.09 35.3217C20.0444 35.2393 20.0065 35.1528 19.9768 35.0633C19.9481 34.9787 19.9249 34.8923 19.9076 34.8046C19.8409 34.4554 19.8691 34.1153 19.9163 33.7986C20.0183 33.1613 20.2201 32.6045 20.2289 32.0046V32.0036C20.2292 31.9827 20.237 31.9627 20.2509 31.9471C20.2648 31.9315 20.2838 31.9214 20.3044 31.9186C20.3251 31.9158 20.3461 31.9205 20.3636 31.9319C20.3811 31.9433 20.3939 31.9606 20.3998 31.9806C20.49 32.2904 20.5053 32.6183 20.4998 32.9331C20.4943 33.2479 20.4633 33.5558 20.4581 33.8481C20.449 34.141 20.4708 34.4216 20.5273 34.675C20.544 34.7377 20.5578 34.8004 20.5795 34.8598C20.597 34.9164 20.6193 34.9714 20.6462 35.0241C20.6985 35.1297 20.769 35.2253 20.8544 35.3064C20.9386 35.3841 21.0333 35.4433 21.1262 35.4675C21.2129 35.4913 21.3052 35.4839 21.387 35.4466C21.4667 35.4133 21.5413 35.3523 21.6145 35.2707C21.6939 35.1814 21.7587 35.0801 21.8066 34.9706C21.8602 34.8496 21.8963 34.7216 21.914 34.5905C21.9346 34.4484 21.9525 34.2984 21.9663 34.1465C21.9997 33.8426 22.0212 33.528 22.1092 33.2147C22.1148 33.1946 22.1274 33.1772 22.1447 33.1656C22.162 33.154 22.1829 33.1491 22.2036 33.1516C22.2243 33.1542 22.2434 33.1641 22.2574 33.1796C22.2713 33.1951 22.2793 33.215 22.2798 33.2359V33.24Z" fill="#31241B"/>
<g id="Group_14" opacity="0.3">
<path id="Vector_35" opacity="0.3" d="M14.6195 27.3095C13.2949 26.8221 11.7787 26.9427 10.5093 26.3211C9.84952 25.9977 9.24331 25.4466 8.83534 24.7964C7.97204 24.7429 7.13808 24.2721 6.66109 23.5493C6.83365 23.7804 7.08373 23.9443 7.3675 23.9918C7.65126 24.0393 7.96937 23.9296 8.12726 23.6882C8.20395 23.5715 8.23947 23.4321 8.27298 23.2966C8.28431 23.2509 8.29632 23.2052 8.30749 23.1595C8.30264 22.9519 8.32506 22.7445 8.37418 22.5426C8.56658 21.7562 8.35184 20.8817 7.81632 20.2752C7.51622 19.9354 7.12891 19.6793 6.84698 19.3257C6.56505 18.9721 6.38816 18.3874 6.56489 17.9701C7.11508 16.6773 8.57691 16.0374 9.41587 14.911C9.88153 14.2839 10.1378 13.5302 10.3819 12.7886C10.626 12.047 10.8734 11.2914 11.3262 10.6545C11.779 10.0176 12.4801 9.50913 13.2602 9.48495C13.5068 9.61833 13.8271 9.80173 14.0363 9.98863C14.1346 10.0783 14.2174 10.1835 14.2814 10.3001C13.9738 10.5691 13.6924 10.8668 13.4413 11.1892C12.4608 12.4448 11.8741 13.955 11.0791 15.3356C10.735 15.9342 9.00756 22.3756 13.1066 26.1477C13.5745 26.5802 14.0809 26.9691 14.6195 27.3095Z" fill="#31241B"/>
</g>
<g id="Group_15" opacity="0.3">
<path id="Vector_36" opacity="0.3" d="M20.1561 33.7793C20.1535 34.031 20.1681 34.2881 20.1371 34.5364C18.6779 34.5934 17.1721 34.4252 15.7268 34.2458C15.7268 34.2458 15.6871 34.2493 15.6292 34.2528C15.2006 35.1198 14.8316 36.0716 14.12 36.689C13.0877 37.5824 11.4499 37.5559 10.3047 36.8132C10.1298 36.6999 9.96454 36.5724 9.81055 36.432C10.5333 36.9037 11.5638 36.7235 12.2374 36.1716C12.9351 35.6006 13.3103 34.7211 13.5242 33.8456C13.7001 33.1264 13.7958 32.3606 14.2184 31.7534C14.6901 31.0755 15.5447 30.6979 16.3691 30.7607C17.1936 30.8236 17.9639 31.3068 18.4199 31.9967C18.5786 32.2373 18.72 32.5192 18.9867 32.6314C19.4646 32.834 20.0009 32.3743 20.4296 32.6667C20.1785 32.9367 20.1586 33.4118 20.1561 33.7793Z" fill="#31241B"/>
</g>
<g id="Group_16" opacity="0.3">
<path id="Vector_37" opacity="0.3" d="M28.5096 14.3293C28.4009 14.9649 28.1914 15.5964 28.2492 16.2387C28.0396 15.6988 27.7507 15.2788 27.3566 14.8597C27.0102 14.3827 26.6116 13.9459 26.1682 13.5574L25.4963 13.046C25.1937 13.1054 24.8917 13.1814 24.596 13.2598L24.3545 13.3245C24.0423 13.4078 23.7198 13.4867 23.3945 13.5444L23.0039 13.4177C23.6258 13.3668 24.1993 13.0744 24.7452 12.771C25.291 12.4675 25.8404 12.1439 26.4528 12.0224C27.0651 11.9008 27.7662 12.0205 28.1775 12.4892C28.6027 12.9744 28.6173 13.6936 28.5096 14.3293Z" fill="#31241B"/>
</g>
<g id="Group_17" opacity="0.3">
<path id="Vector_38" opacity="0.3" d="M28.4625 32.5469C28.6565 32.9903 28.591 33.4973 28.5823 33.9808C28.5823 33.9974 28.5823 34.0141 28.5823 34.0299C28.3744 33.9032 28.1675 33.7755 27.9614 33.6565C26.9369 33.0649 25.5338 32.6895 24.6515 33.4771L24.3074 33.4616C23.6166 33.8601 22.8792 34.1256 22.1143 34.2952C22.1151 34.1503 22.1228 34.0054 22.1366 33.8589C22.1798 33.4009 22.2366 32.9499 22.248 32.4892C22.9816 32.5859 23.7968 32.3815 24.2867 31.8287C24.9921 31.0336 26.0821 30.5963 27.1412 30.6843C27.5061 30.7153 27.9011 30.8447 28.0898 31.1586C27.9373 31.363 27.9761 31.6545 28.0847 31.8847C28.1932 32.115 28.3599 32.314 28.4625 32.5469Z" fill="#31241B"/>
</g>
<g id="Group_18" opacity="0.3">
<path id="Vector_39" opacity="0.3" d="M35.6101 24.0745C34.5536 25.018 34.2492 26.5437 34.2165 27.9592C34.1838 29.3747 34.3614 30.8163 34.0146 32.1893C33.6678 33.5623 32.6071 34.8974 31.1928 34.9768C30.6529 35.0069 29.9103 33.9151 29.9725 33.5486C30.0659 32.9816 29.9367 32.4004 29.6119 31.9264C29.2894 31.4596 28.8013 31.0614 28.2433 30.9519C28.6477 30.8277 29.0885 30.9225 29.4843 31.0707C29.8802 31.219 30.258 31.4227 30.6693 31.5227C30.866 31.5701 31.0892 31.5894 31.2566 31.4752C31.4153 31.3667 31.4834 31.1596 31.4687 30.9682C31.454 30.7768 31.3705 30.5983 31.2773 30.43C31.0475 30.0153 30.7565 29.6377 30.414 29.3098C30.1751 29.0821 29.9035 28.8665 29.7805 28.5595C29.6574 28.2526 29.7638 27.823 30.0824 27.7376C30.4954 27.6272 30.8101 28.1361 31.2259 28.2396C31.5356 28.3171 31.8675 28.1456 32.0596 27.8911C32.2516 27.6367 32.3295 27.3133 32.3733 26.9968C32.4777 26.2578 32.3277 25.4091 32.295 24.6627C32.2605 23.8891 32.6571 23.1673 33.0754 22.5163C33.4937 21.8652 34.1621 20.9337 34.0999 20.1618C33.9991 18.8854 32.6693 18.1076 32.0371 16.994C31.4765 16.0074 31.4964 14.81 31.4619 13.6762C31.4274 12.5425 31.2841 11.3141 30.5029 10.4918C29.6991 9.64584 28.3036 9.31556 27.9233 8.21334C27.6689 7.47426 27.988 6.67648 28.2494 5.94006C28.5108 5.20364 28.6996 4.32383 28.2424 3.69078C28.3258 3.6606 28.4091 3.63476 28.4943 3.61142C29.4887 4.69296 29.1584 7.4009 30.5692 7.76486C31.9775 8.12882 32.8512 9.5458 33.2868 10.9326C33.7225 12.3194 33.881 13.8104 34.5743 15.0886C35.1358 16.1209 36.0181 16.9549 36.5613 17.9966C37.5953 19.9762 37.2745 22.5887 35.6101 24.0745Z" fill="#31241B"/>
</g>
<g id="Group_19" opacity="0.3">
<path id="Vector_40" opacity="0.3" d="M4.27971 19.6516C4.22252 19.6353 4.1691 19.6079 4.12252 19.571C4.07593 19.534 4.03708 19.4882 4.00819 19.4362C3.97929 19.3843 3.96093 19.3271 3.95413 19.268C3.94734 19.209 3.95226 19.1491 3.9686 19.0919L4.57281 16.9774C4.60581 16.8619 4.68332 16.7643 4.78827 16.706C4.89323 16.6477 5.01705 16.6335 5.1325 16.6664C5.18969 16.6827 5.2431 16.7102 5.28969 16.7471C5.33628 16.7841 5.37513 16.8298 5.40402 16.8818C5.43291 16.9338 5.45128 16.991 5.45807 17.05C5.46486 17.1091 5.45995 17.1689 5.44361 17.2261L4.8394 19.3407C4.80639 19.4561 4.72889 19.5537 4.62393 19.612C4.51898 19.6704 4.39516 19.6846 4.27971 19.6516Z" fill="#31241B"/>
</g>
<path id="Vector_41" d="M3.89284 19.3582C3.83566 19.3419 3.78226 19.3144 3.73569 19.2774C3.68912 19.2404 3.65028 19.1947 3.62141 19.1427C3.59254 19.0907 3.57419 19.0335 3.56741 18.9744C3.56063 18.9154 3.56555 18.8555 3.5819 18.7983L4.1861 16.6839C4.20241 16.6268 4.22983 16.5733 4.26678 16.5268C4.30374 16.4802 4.34951 16.4413 4.40149 16.4124C4.45347 16.3835 4.51063 16.3652 4.56971 16.3584C4.62878 16.3516 4.68862 16.3565 4.7458 16.3728C4.86125 16.4059 4.95886 16.4834 5.01717 16.5884C5.07547 16.6934 5.08971 16.8172 5.05674 16.9327L4.4527 19.0473C4.41965 19.1627 4.34212 19.2603 4.23714 19.3186C4.13215 19.3769 4.00831 19.3912 3.89284 19.3582Z" fill="#FFF9F2"/>
<g id="Group_20" opacity="0.3">
<path id="Vector_42" opacity="0.3" d="M11.9012 31.2379C11.8786 31.1829 11.867 31.124 11.8672 31.0645C11.8674 31.005 11.8792 30.9462 11.9021 30.8913C11.9251 30.8365 11.9586 30.7866 12.0007 30.7447C12.0429 30.7028 12.0929 30.6696 12.1479 30.647L14.182 29.8114C14.237 29.7888 14.2959 29.7772 14.3554 29.7774C14.4148 29.7776 14.4737 29.7894 14.5285 29.8123C14.5834 29.8353 14.6332 29.8688 14.6751 29.9109C14.7171 29.9531 14.7503 30.0031 14.7729 30.0581C14.8185 30.1692 14.8181 30.2939 14.7718 30.4047C14.7256 30.5155 14.6372 30.6034 14.5261 30.649L12.4921 31.4846C12.4371 31.5073 12.3782 31.5188 12.3187 31.5186C12.2592 31.5185 12.2004 31.5066 12.1455 31.4837C12.0906 31.4608 12.0408 31.4273 11.9989 31.3851C11.957 31.3429 11.9238 31.2929 11.9012 31.2379Z" fill="#31241B"/>
</g>
<path id="Vector_43" d="M11.3963 30.9008C11.3737 30.8458 11.3622 30.7869 11.3623 30.7275C11.3625 30.668 11.3743 30.6092 11.3972 30.5543C11.4201 30.4994 11.4536 30.4496 11.4958 30.4077C11.5379 30.3658 11.5879 30.3326 11.6429 30.31L13.677 29.4742C13.788 29.4285 13.9127 29.4289 14.0235 29.4752C14.1343 29.5215 14.2222 29.6099 14.2678 29.7209C14.2904 29.7759 14.302 29.8348 14.3018 29.8943C14.3017 29.9538 14.2898 30.0126 14.2669 30.0675C14.244 30.1224 14.2105 30.1722 14.1683 30.2141C14.1261 30.256 14.0761 30.2892 14.0211 30.3118L11.987 31.1476C11.876 31.1931 11.7514 31.1928 11.6406 31.1465C11.5298 31.1002 11.442 31.0119 11.3963 30.9008Z" fill="#FFF9F2"/>
<g id="Group_21" opacity="0.3">
<path id="Vector_44" opacity="0.3" d="M12.9002 8.46342C12.8812 8.34485 12.9101 8.2236 12.9806 8.12634C13.051 8.02907 13.1571 7.96375 13.2757 7.94474L15.4471 7.59646C15.5656 7.57748 15.6869 7.60635 15.7841 7.67672C15.8814 7.7471 15.9467 7.85322 15.9658 7.97175C15.9848 8.09032 15.956 8.21159 15.8856 8.3089C15.8152 8.4062 15.7091 8.47156 15.5905 8.4906L13.4191 8.83889C13.3005 8.85787 13.1792 8.82898 13.0819 8.75857C12.9846 8.68816 12.9193 8.582 12.9002 8.46342Z" fill="#31241B"/>
</g>
<path id="Vector_45" d="M12.4862 8.01994C12.4672 7.90137 12.496 7.78009 12.5664 7.68279C12.6368 7.58549 12.7429 7.52013 12.8615 7.50109L15.0329 7.15297C15.1515 7.13394 15.2727 7.16279 15.37 7.23317C15.4673 7.30355 15.5327 7.4097 15.5518 7.52827C15.5707 7.64684 15.5418 7.76809 15.4714 7.86535C15.401 7.96262 15.2949 8.02794 15.1763 8.04695L13.0049 8.39523C12.9462 8.40465 12.8862 8.40242 12.8284 8.38866C12.7705 8.37489 12.716 8.34987 12.6678 8.31502C12.6196 8.28017 12.5788 8.23617 12.5476 8.18554C12.5165 8.13491 12.4956 8.07864 12.4862 8.01994Z" fill="#FFF9F2"/>
<g id="Group_22" opacity="0.3">
<path id="Vector_46" opacity="0.3" d="M26.6488 29.3605C26.5575 29.2825 26.501 29.1714 26.4916 29.0517C26.4822 28.9319 26.5208 28.8134 26.5988 28.7221L28.0275 27.0502C28.1055 26.9589 28.2166 26.9024 28.3363 26.893C28.456 26.8836 28.5746 26.9222 28.6659 27.0002C28.7111 27.0388 28.7482 27.086 28.7752 27.1389C28.8022 27.1919 28.8185 27.2497 28.8231 27.309C28.8278 27.3683 28.8207 27.4279 28.8023 27.4845C28.7839 27.541 28.7545 27.5934 28.7159 27.6386L27.2872 29.3105C27.2486 29.3557 27.2014 29.3929 27.1485 29.4198C27.0955 29.4468 27.0377 29.4631 26.9784 29.4678C26.9191 29.4724 26.8595 29.4653 26.8029 29.4469C26.7464 29.4285 26.694 29.3991 26.6488 29.3605Z" fill="#31241B"/>
</g>
<path id="Vector_47" d="M26.0473 29.2908C25.956 29.2128 25.8994 29.1017 25.8901 28.982C25.8807 28.8623 25.9192 28.7437 25.9973 28.6524L27.4259 26.9805C27.5039 26.8892 27.615 26.8327 27.7347 26.8233C27.8545 26.8139 27.973 26.8525 28.0643 26.9305C28.1556 27.0085 28.2121 27.1196 28.2215 27.2393C28.2309 27.359 28.1923 27.4776 28.1143 27.5689L26.6857 29.2408C26.647 29.286 26.5999 29.3232 26.5469 29.3502C26.4939 29.3772 26.4361 29.3935 26.3768 29.3981C26.3175 29.4028 26.2579 29.3957 26.2014 29.3773C26.1448 29.3589 26.0925 29.3295 26.0473 29.2908Z" fill="#FFF9F2"/>
<g id="Group_23" opacity="0.3">
<path id="Vector_48" opacity="0.3" d="M31.3481 22.7871C31.3029 22.7484 31.2657 22.7013 31.2387 22.6483C31.2118 22.5953 31.1955 22.5375 31.1908 22.4782C31.1862 22.4189 31.1933 22.3593 31.2117 22.3028C31.2301 22.2462 31.2594 22.1939 31.2981 22.1487L32.7268 20.4768C32.7654 20.4316 32.8125 20.3944 32.8655 20.3674C32.9185 20.3405 32.9762 20.3242 33.0355 20.3196C33.0948 20.3149 33.1544 20.322 33.2109 20.3404C33.2674 20.3588 33.3198 20.3881 33.365 20.4267C33.4563 20.5048 33.5128 20.6159 33.5222 20.7356C33.5316 20.8553 33.493 20.9738 33.415 21.0651L31.9863 22.737C31.9083 22.8283 31.7973 22.8848 31.6776 22.8942C31.5579 22.9035 31.4394 22.865 31.3481 22.7871Z" fill="#31241B"/>
</g>
<path id="Vector_49" d="M30.7456 22.7173C30.7004 22.6787 30.6632 22.6316 30.6362 22.5786C30.6092 22.5257 30.5929 22.4679 30.5883 22.4086C30.5837 22.3493 30.5907 22.2897 30.6091 22.2332C30.6275 22.1767 30.6569 22.1243 30.6955 22.0791L32.1242 20.4071C32.1628 20.3619 32.21 20.3247 32.263 20.2978C32.3159 20.2708 32.3737 20.2545 32.433 20.2499C32.4922 20.2452 32.5518 20.2523 32.6084 20.2707C32.6649 20.2891 32.7172 20.3184 32.7624 20.357C32.8537 20.4351 32.9103 20.5462 32.9196 20.6659C32.929 20.7856 32.8905 20.9041 32.8124 20.9954L31.3838 22.6673C31.3058 22.7586 31.1947 22.8151 31.075 22.8245C30.9554 22.8338 30.8368 22.7953 30.7456 22.7173Z" fill="#FFF9F2"/>
<g id="Group_24" opacity="0.3">
<path id="Vector_50" opacity="0.3" d="M29.3288 16.1919C29.3636 16.1436 29.4075 16.1028 29.4581 16.0715C29.5087 16.0403 29.565 16.0193 29.6237 16.0098C29.6823 16.0003 29.7423 16.0025 29.8002 16.0162C29.8581 16.0299 29.9126 16.0549 29.9609 16.0897L31.7448 17.3764C31.793 17.4112 31.8339 17.4552 31.8651 17.5058C31.8964 17.5564 31.9173 17.6126 31.9268 17.6713C31.9363 17.73 31.9342 17.79 31.9205 17.8478C31.9068 17.9057 31.8818 17.9603 31.847 18.0085C31.8122 18.0567 31.7683 18.0976 31.7177 18.1289C31.6671 18.1601 31.6109 18.1811 31.5522 18.1906C31.4935 18.2001 31.4335 18.198 31.3756 18.1843C31.3178 18.1706 31.2632 18.1457 31.215 18.1109L29.431 16.8239C29.3828 16.7891 29.3419 16.7452 29.3107 16.6946C29.2794 16.644 29.2585 16.5878 29.249 16.5291C29.2395 16.4704 29.2416 16.4104 29.2553 16.3525C29.269 16.2947 29.294 16.2401 29.3288 16.1919Z" fill="#31241B"/>
</g>
<path id="Vector_51" d="M29.3493 15.5862C29.3841 15.538 29.428 15.4971 29.4786 15.4659C29.5292 15.4346 29.5855 15.4137 29.6442 15.4042C29.7029 15.3947 29.7628 15.3968 29.8207 15.4105C29.8786 15.4242 29.9332 15.4492 29.9814 15.484L31.7653 16.7708C31.8135 16.8055 31.8545 16.8495 31.8857 16.9001C31.917 16.9507 31.9379 17.0069 31.9474 17.0656C31.9569 17.1243 31.9548 17.1843 31.9411 17.2421C31.9274 17.3 31.9025 17.3546 31.8677 17.4028C31.8329 17.4511 31.7889 17.492 31.7383 17.5232C31.6877 17.5545 31.6315 17.5755 31.5727 17.5849C31.514 17.5944 31.454 17.5923 31.3962 17.5786C31.3383 17.5648 31.2837 17.5399 31.2355 17.505L29.4515 16.2183C29.4033 16.1835 29.3624 16.1395 29.3312 16.0889C29.2999 16.0383 29.279 15.9821 29.2695 15.9234C29.26 15.8647 29.2621 15.8047 29.2758 15.7469C29.2895 15.689 29.3145 15.6344 29.3493 15.5862Z" fill="#FFF9F2"/>
<g id="Group_25" opacity="0.3">
<path id="Vector_52" opacity="0.3" d="M22.3726 10.9076C22.3589 10.8498 22.3567 10.7898 22.3661 10.7311C22.3756 10.6724 22.3965 10.6161 22.4277 10.5655C22.4589 10.5149 22.4998 10.4709 22.548 10.4361C22.5962 10.4013 22.6508 10.3763 22.7087 10.3626L24.8484 9.85477C24.9653 9.82708 25.0883 9.84691 25.1905 9.90991C25.2927 9.97291 25.3657 10.0739 25.3935 10.1907C25.4212 10.3076 25.4013 10.4306 25.3383 10.5329C25.2753 10.6351 25.1743 10.7081 25.0575 10.7359L22.9178 11.2436C22.8599 11.2573 22.7999 11.2596 22.7412 11.2501C22.6825 11.2407 22.6262 11.2198 22.5756 11.1886C22.5249 11.1574 22.481 11.1165 22.4461 11.0683C22.4113 11.0201 22.3863 10.9655 22.3726 10.9076Z" fill="#31241B"/>
</g>
<path id="Vector_53" d="M21.9273 10.4963C21.9135 10.4385 21.9113 10.3785 21.9208 10.3198C21.9302 10.2611 21.9512 10.2048 21.9824 10.1542C22.0136 10.1036 22.0544 10.0596 22.1026 10.0248C22.1508 9.99 22.2054 9.96502 22.2632 9.9513L24.403 9.44346C24.5198 9.41576 24.6428 9.43559 24.745 9.49859C24.8472 9.56159 24.9203 9.6626 24.948 9.77941C24.9757 9.89626 24.9559 10.0193 24.8929 10.1216C24.8299 10.2238 24.7289 10.2968 24.6121 10.3246L22.4723 10.8323C22.4145 10.846 22.3545 10.8482 22.2958 10.8388C22.2371 10.8293 22.1808 10.8084 22.1302 10.7772C22.0796 10.746 22.0356 10.7051 22.0008 10.6569C21.966 10.6088 21.941 10.5542 21.9273 10.4963Z" fill="#FFF9F2"/>
<g id="Group_26" opacity="0.3">
<path id="Vector_54" opacity="0.3" d="M8.98774 13.4933C8.92969 13.5062 8.86968 13.5076 8.81111 13.4973C8.75255 13.487 8.69658 13.4653 8.64642 13.4333C8.59626 13.4014 8.55287 13.3599 8.51875 13.3112C8.48463 13.2625 8.46043 13.2076 8.44755 13.1495L7.97072 11.0026C7.95783 10.9446 7.95651 10.8846 7.96682 10.826C7.97713 10.7674 7.99888 10.7115 8.03082 10.6613C8.06276 10.6111 8.10426 10.5678 8.15297 10.5336C8.20167 10.4995 8.25662 10.4753 8.31467 10.4624C8.37271 10.4496 8.43273 10.4482 8.49128 10.4586C8.54983 10.4689 8.60579 10.4906 8.65593 10.5226C8.70608 10.5545 8.74944 10.596 8.78355 10.6447C8.81765 10.6934 8.84183 10.7484 8.85469 10.8064L9.33152 12.9531C9.35755 13.0704 9.33596 13.1931 9.27149 13.2944C9.20702 13.3957 9.10495 13.4673 8.98774 13.4933Z" fill="#31241B"/>
</g>
<path id="Vector_55" d="M8.35086 13.4934C8.23364 13.5194 8.11088 13.4978 8.00958 13.4333C7.90828 13.3689 7.83673 13.2668 7.81067 13.1496L7.33401 11.0027C7.30798 10.8855 7.32958 10.7627 7.39405 10.6614C7.45852 10.5601 7.56058 10.4886 7.6778 10.4625C7.73585 10.4496 7.79587 10.4483 7.85444 10.4586C7.913 10.4689 7.96896 10.4907 8.01912 10.5226C8.06929 10.5545 8.11266 10.596 8.14678 10.6447C8.1809 10.6934 8.2051 10.7484 8.21798 10.8064L8.69481 12.9532C8.72079 13.0704 8.69915 13.1932 8.63466 13.2945C8.57016 13.3958 8.46808 13.4673 8.35086 13.4934Z" fill="#FFF9F2"/>
<g id="Group_27" opacity="0.3">
<path id="Vector_56" opacity="0.3" d="M23.1888 31.5389C23.1307 31.5518 23.0707 31.5531 23.0122 31.5428C22.9536 31.5325 22.8977 31.5108 22.8475 31.4788C22.7974 31.4469 22.754 31.4054 22.7199 31.3567C22.6858 31.3081 22.6616 31.2531 22.6487 31.1951L22.1719 29.0482C22.1459 28.931 22.1675 28.8082 22.2319 28.7069C22.2964 28.6056 22.3985 28.5341 22.5157 28.508C22.5737 28.4951 22.6337 28.4937 22.6923 28.504C22.7509 28.5143 22.8068 28.5361 22.857 28.568C22.9072 28.5999 22.9506 28.6414 22.9847 28.6901C23.0188 28.7388 23.043 28.7937 23.0559 28.8518L23.5327 30.9987C23.5456 31.0568 23.5469 31.1168 23.5366 31.1753C23.5263 31.2339 23.5045 31.2899 23.4726 31.34C23.4407 31.3902 23.3992 31.4336 23.3505 31.4677C23.3018 31.5018 23.2468 31.526 23.1888 31.5389Z" fill="#31241B"/>
</g>
<path id="Vector_57" d="M22.552 31.5389C22.4348 31.5649 22.3121 31.5433 22.2108 31.4789C22.1095 31.4144 22.0379 31.3123 22.0118 31.1951L21.5352 29.0482C21.5092 28.931 21.5308 28.8082 21.5952 28.7069C21.6597 28.6056 21.7618 28.5341 21.879 28.508C21.9962 28.482 22.1189 28.5036 22.2202 28.5681C22.3216 28.6325 22.3931 28.7346 22.4192 28.8518L22.8958 30.9987C22.9218 31.1159 22.9003 31.2387 22.8358 31.34C22.7713 31.4413 22.6692 31.5128 22.552 31.5389Z" fill="#FFF9F2"/>
<g id="Group_28" opacity="0.3">
<path id="Vector_58" opacity="0.3" d="M8.98774 28.6216C8.92969 28.6345 8.86968 28.6358 8.81111 28.6255C8.75255 28.6152 8.69659 28.5935 8.64642 28.5616C8.59626 28.5297 8.55287 28.4882 8.51875 28.4395C8.48463 28.3908 8.46043 28.3358 8.44755 28.2778L7.97072 26.1309C7.95783 26.0728 7.95651 26.0128 7.96682 25.9542C7.97713 25.8957 7.99888 25.8397 8.03082 25.7895C8.06276 25.7394 8.10426 25.696 8.15297 25.6619C8.20167 25.6278 8.25662 25.6036 8.31467 25.5907C8.37271 25.5778 8.43273 25.5765 8.49128 25.5868C8.54984 25.5971 8.60579 25.6188 8.65593 25.6508C8.70608 25.6827 8.74944 25.7242 8.78355 25.7729C8.81765 25.8216 8.84183 25.8766 8.85469 25.9346L9.33152 28.0815C9.34441 28.1396 9.34574 28.1996 9.33544 28.2581C9.32513 28.3167 9.3034 28.3726 9.27147 28.4228C9.23955 28.4729 9.19806 28.5163 9.14938 28.5504C9.1007 28.5845 9.04577 28.6087 8.98774 28.6216Z" fill="#31241B"/>
</g>
<path id="Vector_59" d="M8.35086 28.6215C8.29282 28.6344 8.2328 28.6358 8.17423 28.6255C8.11567 28.6152 8.05971 28.5934 8.00954 28.5615C7.95938 28.5296 7.916 28.4881 7.88187 28.4394C7.84775 28.3907 7.82356 28.3358 7.81067 28.2777L7.33401 26.1308C7.30798 26.0136 7.32958 25.8908 7.39405 25.7895C7.45852 25.6882 7.56058 25.6167 7.6778 25.5906C7.79504 25.5646 7.91779 25.5863 8.01909 25.6508C8.12038 25.7153 8.19192 25.8174 8.21798 25.9346L8.69481 28.0815C8.7077 28.1395 8.70902 28.1995 8.69871 28.2581C8.68839 28.3166 8.66664 28.3726 8.6347 28.4227C8.60276 28.4729 8.56126 28.5163 8.51255 28.5504C8.46385 28.5845 8.40891 28.6086 8.35086 28.6215Z" fill="#FFF9F2"/>
<g id="Group_29" opacity="0.3">
<path id="Vector_60" opacity="0.3" d="M20.7684 6.89621C20.7304 6.94195 20.6838 6.97975 20.6312 7.00746C20.5786 7.03517 20.5211 7.05225 20.4619 7.05771C20.4026 7.06318 20.3429 7.05693 20.2862 7.03931C20.2294 7.0217 20.1766 6.99307 20.1309 6.95507L18.4398 5.54925C18.3941 5.51124 18.3562 5.4646 18.3285 5.41198C18.3008 5.35936 18.2837 5.3018 18.2783 5.24258C18.2728 5.18336 18.2791 5.12364 18.2967 5.06684C18.3143 5.01004 18.3429 4.95726 18.3809 4.91153C18.4578 4.81921 18.5681 4.76117 18.6877 4.75017C18.8072 4.73916 18.9263 4.77609 19.0187 4.85284L20.7099 6.25933C20.802 6.33608 20.8599 6.44626 20.8709 6.56566C20.8819 6.68507 20.845 6.80395 20.7684 6.89621Z" fill="#31241B"/>
</g>
<path id="Vector_61" d="M20.1024 6.72595C20.0256 6.81829 19.9153 6.87636 19.7957 6.88739C19.6762 6.89843 19.5571 6.86153 19.4647 6.7848L17.7736 5.37898C17.6813 5.30217 17.6233 5.19185 17.6123 5.07227C17.6013 4.95268 17.6382 4.83363 17.7149 4.74126C17.7529 4.69554 17.7996 4.65775 17.8522 4.63005C17.9048 4.60236 17.9623 4.5853 18.0215 4.57985C18.0808 4.5744 18.1405 4.58066 18.1972 4.59829C18.254 4.61592 18.3068 4.64456 18.3525 4.68257L20.0436 6.08839C20.0893 6.12639 20.1271 6.17302 20.1548 6.22562C20.1825 6.27822 20.1996 6.33577 20.2051 6.39498C20.2105 6.45418 20.2043 6.51388 20.1867 6.57067C20.1691 6.62746 20.1404 6.68023 20.1024 6.72595Z" fill="#FFF9F2"/>
</g>
</svg>
