<svg width="40" height="40" viewBox="0 0 40 40" fill="none" xmlns="http://www.w3.org/2000/svg">
<g id="Group 36254">
<path id="Vector" opacity="0.3" d="M21.4094 2.39752C11.1956 2.39752 2.88574 10.7074 2.88574 20.9211C2.88574 31.1349 11.1956 39.4448 21.4094 39.4448C31.6232 39.4448 39.9335 31.1349 39.9335 20.9211C39.9335 10.7074 31.6236 2.39752 21.4094 2.39752ZM21.4094 25.6251C20.479 25.625 19.5696 25.3491 18.7961 24.8321C18.0226 24.3152 17.4197 23.5805 17.0638 22.7209C16.7078 21.8614 16.6147 20.9156 16.7963 20.0031C16.9779 19.0907 17.4259 18.2526 18.0838 17.5947C18.7417 16.9369 19.5799 16.489 20.4923 16.3075C21.4048 16.126 22.3506 16.2192 23.2101 16.5753C24.0696 16.9313 24.8043 17.5342 25.3211 18.3078C25.838 19.0814 26.1139 19.9908 26.1139 20.9211C26.1124 22.1684 25.6163 23.3641 24.7343 24.246C23.8524 25.1278 22.6566 25.6238 21.4094 25.6251Z" fill="#31241B"/>
<path id="Vector_2" d="M19.457 1.53513C9.55898 1.53513 1.53516 9.55895 1.53516 19.457C1.53516 29.355 9.55898 37.3788 19.457 37.3788C29.355 37.3788 37.3793 29.355 37.3793 19.457C37.3793 9.55895 29.355 1.53513 19.457 1.53513ZM19.457 25.4992C18.2623 25.4992 17.0944 25.145 16.101 24.4813C15.1077 23.8176 14.3334 22.8742 13.8761 21.7705C13.4189 20.6667 13.2992 19.4522 13.5322 18.2805C13.7651 17.1087 14.3403 16.0323 15.185 15.1874C16.0297 14.3426 17.1059 13.7671 18.2776 13.5339C19.4493 13.3006 20.6639 13.42 21.7677 13.877C22.8715 14.334 23.8151 15.108 24.479 16.1013C25.143 17.0945 25.4975 18.2623 25.4978 19.457C25.4978 21.0591 24.8614 22.5956 23.7285 23.7284C22.5956 24.8613 21.0591 25.4978 19.457 25.4978V25.4992Z" fill="#FFC35C"/>
<g id="Group" opacity="0.3">
<path id="Vector_3" opacity="0.3" d="M29.1491 4.37909C33.3069 7.66134 35.9757 12.746 35.9757 18.454C35.9757 28.352 27.9519 36.3763 18.0538 36.3763C14.6168 36.3815 11.2514 35.3938 8.3623 33.5318C11.5208 36.0292 15.431 37.3849 19.4575 37.3788C29.3555 37.3788 37.3799 29.355 37.3799 19.457C37.3799 13.1297 34.1005 7.56812 29.1491 4.37909Z" fill="#31241B"/>
</g>
<g id="Group_2" opacity="0.6">
<path id="Vector_4" opacity="0.6" d="M6.03613 11.5229C6.5608 10.6634 6.84241 9.76589 6.87853 9.00353C10.1662 5.05311 15.1196 2.53761 20.6606 2.53761C24.5861 2.53175 28.404 3.82079 31.5225 6.20495C28.9559 3.86229 25.7632 2.3168 22.3336 1.75684C18.9039 1.19688 15.3855 1.64662 12.207 3.05126C9.02852 4.4559 6.32723 6.75478 4.43237 9.66773C2.5375 12.5807 1.53088 15.9819 1.53517 19.457C1.53517 25.2708 4.30447 30.4385 8.59507 33.7119C5.84617 31.207 3.94373 27.9097 3.15101 24.2762C2.35829 20.6426 2.71446 16.8525 4.17024 13.4303C4.83597 13.0496 5.50901 12.3868 6.03613 11.5229Z" fill="#FFF9F2"/>
</g>
<path id="Vector_5" d="M19.4572 37.9806C9.24343 37.9806 0.933594 29.6712 0.933594 19.457C0.933594 9.24268 9.24343 0.933334 19.4572 0.933334C29.671 0.933334 37.9808 9.24317 37.9808 19.457C37.9808 29.6707 29.6715 37.9806 19.4572 37.9806ZM19.4572 2.13691C9.90671 2.13691 2.13718 9.90645 2.13718 19.457C2.13718 29.0075 9.90671 36.777 19.4572 36.777C29.0077 36.777 36.7778 29.0075 36.7778 19.457C36.7778 9.90645 29.0077 2.13691 19.4572 2.13691Z" fill="#31241B"/>
<path id="Vector_6" d="M33.5105 16.1899L31.1189 12.7734C30.9862 12.5841 30.8661 12.3864 30.7592 12.1814L28.8309 8.48476C28.3453 7.55388 27.5946 6.78785 26.6738 6.28347C25.7529 5.7791 24.7032 5.55901 23.6573 5.65104L19.5039 6.0166C19.2736 6.03693 19.0423 6.04215 18.8113 6.03222L14.6457 5.85408C13.5966 5.80915 12.5577 6.07626 11.6604 6.62165C10.7631 7.16704 10.0476 7.96621 9.60443 8.91816L7.84446 12.6978C7.74674 12.9073 7.63555 13.1102 7.51159 13.3054L5.27137 16.8263C4.70803 17.7124 4.42002 18.7457 4.44374 19.7954C4.46745 20.8452 4.80183 21.8643 5.40461 22.7241L7.79614 26.1406C7.92898 26.3299 8.04931 26.5276 8.15634 26.7326L10.0847 30.4292C10.5702 31.3602 11.3209 32.1262 12.2417 32.6306C13.1626 33.135 14.2123 33.3551 15.2582 33.263L19.4117 32.8974C19.6433 32.8759 19.8761 32.8697 20.1086 32.8789L24.2743 33.057C25.3233 33.1019 26.3621 32.8348 27.2593 32.2894C28.1565 31.744 28.8719 30.9448 29.315 29.9929L31.075 26.2133C31.1727 26.0038 31.2839 25.8008 31.4079 25.6057L33.6452 22.0872C34.2082 21.201 34.4959 20.1678 34.4719 19.1181C34.4479 18.0685 34.1134 17.0495 33.5105 16.1899ZM19.4575 25.164C18.3288 25.164 17.2254 24.8293 16.2869 24.2022C15.3484 23.5751 14.6169 22.6838 14.185 21.641C13.753 20.5982 13.64 19.4507 13.8602 18.3436C14.0804 17.2366 14.624 16.2197 15.4221 15.4216C16.2202 14.6234 17.2371 14.0799 18.3442 13.8597C19.4512 13.6395 20.5987 13.7525 21.6415 14.1845C22.6843 14.6164 23.5756 15.3479 24.2027 16.2864C24.8298 17.2249 25.1645 18.3283 25.1645 19.457C25.1645 20.9706 24.5632 22.4222 23.493 23.4924C22.4227 24.5627 20.9711 25.164 19.4575 25.164Z" fill="#66ACDF"/>
<g id="Group_3" opacity="0.3">
<path id="Vector_7" opacity="0.3" d="M15.491 22.9588C14.6915 21.9355 14.2939 20.655 14.3732 19.3588C14.4525 18.0626 15.0032 16.8401 15.9215 15.9219C16.8397 15.0036 18.0622 14.4529 19.3584 14.3736C20.6546 14.2943 21.9351 14.6919 22.9584 15.4914C22.4946 14.8977 21.91 14.4094 21.2433 14.0586C20.5766 13.7078 19.843 13.5026 19.091 13.4566C18.3391 13.4106 17.5859 13.5249 16.8814 13.7918C16.1769 14.0587 15.5372 14.4722 15.0045 15.0049C14.4718 15.5376 14.0583 16.1773 13.7914 16.8818C13.5244 17.5863 13.4102 18.3395 13.4562 19.0914C13.5022 19.8434 13.7074 20.577 14.0582 21.2437C14.409 21.9104 14.8973 22.495 15.491 22.9588Z" fill="#31241B"/>
</g>
<g id="Group_4" opacity="0.3">
<path id="Vector_8" opacity="0.3" d="M33.51 16.1898L31.1184 12.7734C30.9858 12.5841 30.8656 12.3863 30.7587 12.1814L28.8304 8.48472C28.4684 7.79116 27.9575 7.18617 27.3345 6.71304C27.5206 6.95462 27.6855 7.21181 27.8274 7.48175L29.7558 11.1784C29.8625 11.3834 29.9827 11.5812 30.1155 11.7704L32.507 15.1869C33.1098 16.0465 33.4442 17.0657 33.4679 18.1154C33.4915 19.1651 33.2033 20.1983 32.6397 21.0842L30.4029 24.6027C30.2788 24.7977 30.1676 25.0007 30.0701 25.2103L28.3101 28.9904C27.8668 29.9422 27.1513 30.7412 26.254 31.2865C25.3567 31.8318 24.3179 32.0989 23.2689 32.054L19.1032 31.8758C18.8722 31.8659 18.6409 31.8711 18.4106 31.8915L14.2572 32.257C12.9417 32.3728 11.6303 31.9942 10.5791 31.195C11.1222 31.9057 11.836 32.4677 12.6544 32.8287C13.4728 33.1898 14.3691 33.3381 15.2602 33.26L19.4136 32.8944C19.6445 32.874 19.8765 32.8688 20.1081 32.8788L24.2738 33.057C25.3228 33.1019 26.3616 32.8347 27.2588 32.2893C28.1561 31.7439 28.8714 30.9448 29.3145 29.9929L31.0745 26.2133C31.1722 26.0038 31.2834 25.8008 31.4074 25.6056L33.6447 22.0872C34.2077 21.201 34.4954 20.1677 34.4714 19.1181C34.4474 18.0684 34.1129 17.0494 33.51 16.1898Z" fill="#31241B"/>
</g>
<g id="Group_5" opacity="0.6">
<path id="Vector_9" opacity="0.6" d="M20.0596 25.5651C21.2365 25.5646 22.3845 25.2002 23.3463 24.5218C24.308 23.8435 25.0366 22.8843 25.432 21.7758C25.8275 20.6673 25.8706 19.4637 25.5554 18.3297C25.2402 17.1958 24.5821 16.187 23.6713 15.4417C24.5671 16.537 25.0241 17.9262 24.9535 19.3395C24.8828 20.7528 24.2897 22.0895 23.289 23.0901C22.2884 24.0907 20.9518 24.6839 19.5385 24.7545C18.1252 24.8251 16.736 24.3682 15.6406 23.4723C16.1757 24.1273 16.8498 24.6549 17.6142 25.0169C18.3785 25.3789 19.2139 25.5662 20.0596 25.5651Z" fill="#FFF9F2"/>
</g>
<g id="Group_6" opacity="0.6">
<path id="Vector_10" opacity="0.6" d="M10.889 31.2291L8.96067 27.5325C8.85357 27.3275 8.73325 27.1298 8.60047 26.9405L6.20894 23.524C5.60634 22.6642 5.27211 21.6451 5.24848 20.5955C5.22485 19.5458 5.51289 18.5127 6.07619 17.6267L8.31349 14.1082C8.43745 13.913 8.54863 13.7101 8.64635 13.5005L10.4063 9.72047C10.8496 8.76869 11.565 7.96966 12.4622 7.42437C13.3594 6.87908 14.3981 6.61199 15.4471 6.65687L19.6127 6.83501C19.8439 6.84494 20.0754 6.83972 20.3058 6.81939L24.4592 6.45383C25.8268 6.33414 27.1876 6.7493 28.2554 7.61202C27.7089 6.93269 27.0034 6.39845 26.2014 6.0565C25.3993 5.71456 24.5254 5.57545 23.6569 5.65145L19.5034 6.01701C19.2731 6.03734 19.0418 6.04255 18.8108 6.03263L14.6452 5.85449C13.5961 5.80955 12.5572 6.07666 11.6599 6.62205C10.7626 7.16744 10.0471 7.96662 9.60394 8.91857L7.84397 12.6982C7.74625 12.9077 7.63506 13.1107 7.5111 13.3058L5.27137 16.8262C4.70803 17.7124 4.42002 18.7456 4.44374 19.7953C4.46745 20.8451 4.80183 21.8643 5.40461 22.724L7.79614 26.1405C7.92898 26.3298 8.04931 26.5276 8.15634 26.7325L10.0847 30.4292C10.4234 31.0766 10.8923 31.6471 11.462 32.1047C11.2425 31.8325 11.0506 31.5392 10.889 31.2291Z" fill="#FFF9F2"/>
</g>
<path id="Vector_11" d="M14.7886 33.7826C13.727 33.7836 12.6856 33.4927 11.7781 32.9418C10.8706 32.3909 10.132 31.6013 9.64296 30.659L7.71167 26.9619C7.61478 26.7761 7.50588 26.5967 7.38564 26.425L4.99412 23.0115C4.33234 22.0714 3.96506 20.9558 3.93899 19.8064C3.91292 18.6571 4.22923 17.5259 4.84769 16.5568L7.08499 13.0383C7.1973 12.8618 7.29791 12.678 7.38613 12.4883L9.14658 8.70819C9.62815 7.66416 10.4101 6.78747 11.3926 6.19018C12.375 5.5929 13.5132 5.30217 14.6617 5.35517L18.8279 5.53331C19.037 5.5418 19.2465 5.53708 19.4551 5.51916L23.6085 5.15311C24.7534 5.05026 25.9031 5.29025 26.9112 5.84256C27.9194 6.39486 28.7405 7.23453 29.2701 8.25478L31.1984 11.9514C31.2954 12.1371 31.4041 12.3165 31.524 12.4883L33.9155 15.9047C34.5776 16.8446 34.945 17.9602 34.9711 19.1096C34.9971 20.2589 34.6807 21.39 34.0619 22.3589L31.8246 25.8774C31.7124 26.054 31.6118 26.2378 31.5235 26.4275L29.7635 30.2076C29.2807 31.2506 28.4984 32.1264 27.5163 32.7235C26.5342 33.3206 25.3966 33.612 24.2484 33.5606L20.0827 33.3824C19.8736 33.3735 19.6641 33.3782 19.4556 33.3966L15.3021 33.7626C15.1303 33.7753 14.959 33.7826 14.7886 33.7826ZM14.4133 6.35327C13.4977 6.35228 12.6009 6.61345 11.829 7.10592C11.0571 7.59839 10.4423 8.30156 10.0573 9.13232L8.29735 12.9114C8.19066 13.1411 8.06903 13.3634 7.93325 13.5772L5.69644 17.0951C5.1843 17.8968 4.92225 18.8328 4.94363 19.7839C4.96501 20.735 5.26885 21.6582 5.8165 22.4361L8.20803 25.8525C8.35335 26.0598 8.48509 26.2763 8.60239 26.5007L10.5307 30.1973C10.9692 31.0415 11.6487 31.7363 12.4831 32.1933C13.3174 32.6502 14.2687 32.8487 15.2162 32.7636L19.3692 32.3975C19.6213 32.3755 19.8747 32.3698 20.1276 32.3804L24.2933 32.5591C25.2439 32.6031 26.186 32.3627 26.9992 31.8684C27.8123 31.3741 28.4596 30.6485 28.8582 29.7844L30.6181 26.0048C30.7249 25.7754 30.8466 25.5532 30.9822 25.3396L33.2195 21.8211C33.7315 21.0193 33.9934 20.0833 33.9719 19.1323C33.9504 18.1812 33.6466 17.2581 33.099 16.4802L30.7074 13.0637C30.5621 12.8565 30.4306 12.64 30.3136 12.4156L28.3838 8.71942C27.9452 7.87533 27.2656 7.18068 26.4313 6.72373C25.597 6.26679 24.6457 6.06819 23.6983 6.15316L19.5449 6.51921C19.2928 6.54127 19.0396 6.54698 18.7869 6.53629L14.6212 6.35815C14.5519 6.35424 14.4817 6.35278 14.4123 6.35278L14.4133 6.35327Z" fill="#31241B"/>
<path id="Vector_12" d="M23.1618 27.2997C23.1619 27.3658 23.1424 27.4304 23.1058 27.4854C23.0691 27.5403 23.017 27.5832 22.956 27.6085C22.8949 27.6339 22.8278 27.6405 22.763 27.6276C22.6982 27.6148 22.6386 27.583 22.5919 27.5363C22.5452 27.4895 22.5134 27.43 22.5005 27.3652C22.4877 27.3004 22.4943 27.2332 22.5196 27.1722C22.545 27.1112 22.5878 27.0591 22.6428 27.0224C22.6978 26.9858 22.7624 26.9663 22.8285 26.9664C22.9169 26.9664 23.0017 27.0015 23.0642 27.064C23.1267 27.1265 23.1618 27.2113 23.1618 27.2997Z" fill="#E06B38"/>
<path id="Vector_13" d="M19.4739 3.50252C18.0951 4.56261 16.6978 5.59584 15.3097 6.64275L11.1123 9.74003L11.1001 9.74881L11.0728 9.76443C10.4947 10.0929 9.94165 10.4637 9.41825 10.8738C8.8947 11.272 8.41616 11.7262 7.99114 12.2282C7.5836 12.725 7.25221 13.2829 7.14337 13.8632C7.03453 14.4435 7.16484 15.0229 7.50747 15.5226L7.37812 15.4011C7.36787 15.3948 7.40643 15.4138 7.42693 15.4206C7.44743 15.4275 7.48014 15.4387 7.50844 15.447C7.56817 15.4632 7.62879 15.4759 7.69 15.4851C7.8205 15.5028 7.95241 15.5077 8.08387 15.4997C8.36217 15.4811 8.63644 15.4231 8.89846 15.3274C9.43973 15.1376 9.95366 14.8232 10.4359 14.4635C10.6799 14.283 10.9073 14.0897 11.1392 13.8779L11.3134 13.7173L11.5086 13.5552L11.8815 13.2551C12.3803 12.8588 12.8855 12.4719 13.397 12.0945C14.4195 11.338 15.4669 10.6146 16.545 9.93428C17.6231 9.25391 18.7291 8.61649 19.8892 8.06644C21.0494 7.51639 22.2603 7.05078 23.5556 6.8287L23.7996 6.7882L24.0466 6.76282L24.2931 6.73841C24.3814 6.73451 24.4707 6.7306 24.5596 6.7345C25.0955 6.75076 25.6139 6.9295 26.0459 7.24703C26.478 7.56456 26.8034 8.00589 26.9789 8.51254C27.0928 8.84836 27.1342 9.2045 27.1004 9.55749C27.0592 9.89704 26.9685 10.2287 26.831 10.5419C26.5675 11.1603 26.1702 11.6982 25.7202 12.1657C24.8163 13.1052 23.7191 13.7949 22.5966 14.3874L22.4672 14.1531C23.541 13.5138 24.5854 12.7939 25.4088 11.8787C25.8183 11.4234 26.1633 10.9128 26.3761 10.3584C26.4838 10.0885 26.5519 9.80443 26.5782 9.51503C26.605 9.0953 26.5011 8.67758 26.2809 8.31927C26.0606 7.96096 25.7349 7.67964 25.3483 7.51395C25.095 7.40259 24.8216 7.34429 24.5449 7.34264C24.4761 7.34264 24.4073 7.34557 24.338 7.34947L24.1135 7.37729L23.8894 7.40463L23.6654 7.44757C22.4706 7.67794 21.312 8.15625 20.2001 8.70581C17.9667 9.81031 15.8681 11.2096 13.8592 12.7109C13.3571 13.087 12.8619 13.4719 12.3735 13.8657L12.0104 14.1619L11.842 14.3035L11.6687 14.4645C11.4335 14.6807 11.1807 14.8984 10.9181 15.0961C10.3939 15.4958 9.81504 15.8487 9.16103 16.0761C8.8278 16.1949 8.47946 16.2661 8.12633 16.2875C7.94212 16.2973 7.75739 16.289 7.57481 16.2626C7.47981 16.2481 7.38576 16.2279 7.2932 16.202C7.24439 16.1884 7.19852 16.1728 7.14971 16.1532C7.09212 16.1318 7.03617 16.1062 6.98231 16.0766L6.90568 16.0346L6.85296 15.9546C6.63366 15.63 6.4763 15.2676 6.38881 14.8857C6.30392 14.4977 6.30143 14.0961 6.38149 13.707C6.54109 12.9364 6.95546 12.2916 7.41668 11.7416C7.8839 11.2039 8.40843 10.7188 8.98094 10.295C9.54473 9.87246 10.1407 9.49468 10.7634 9.16508L10.7238 9.18949L15.0052 6.21228C16.443 5.23614 17.8711 4.24341 19.3177 3.27899L19.4739 3.50252Z" fill="#FFF9F2"/>
<path id="Vector_14" d="M13.8443 20.1861C13.0922 20.6561 12.3465 21.1447 11.6305 21.6655C10.9145 22.1862 10.2097 22.7202 9.54884 23.2971C8.888 23.874 8.26718 24.4894 7.74299 25.163C7.48356 25.4927 7.25868 25.8483 7.0719 26.224L6.94988 26.5037C6.91328 26.5979 6.88352 26.693 6.84935 26.7872C6.81519 26.8814 6.80055 26.9786 6.77614 27.0742C6.76633 27.1176 6.75964 27.1617 6.75612 27.206C6.74826 27.248 6.74548 27.2907 6.74783 27.3334C6.73319 27.675 6.88546 28.0094 7.12511 28.2549C7.24725 28.3768 7.39226 28.4733 7.55181 28.5391C7.71135 28.6048 7.88231 28.6384 8.05488 28.638C8.09848 28.6387 8.14207 28.6358 8.18519 28.6292C8.23247 28.6263 8.27946 28.6197 8.32576 28.6097C8.42825 28.5911 8.53075 28.5706 8.63275 28.5448C8.83774 28.496 9.04174 28.434 9.24478 28.3671C9.6554 28.229 10.0576 28.067 10.4493 27.882C12.0317 27.1352 13.5178 26.143 14.9737 25.1161L15.1401 25.3255C13.7911 26.5076 12.3616 27.6194 10.7422 28.474C10.334 28.6881 9.91351 28.878 9.48296 29.0426C9.26479 29.1231 9.0437 29.1963 8.81382 29.2564C8.7001 29.2886 8.58394 29.3149 8.46729 29.3393C8.40455 29.3537 8.34098 29.3641 8.27695 29.3706C8.20967 29.3819 8.14163 29.3881 8.07342 29.3891C7.79813 29.3985 7.52379 29.3523 7.26677 29.2532C7.00975 29.1542 6.77533 29.0044 6.5775 28.8127C6.18704 28.4286 5.94301 27.8854 5.95472 27.3261C5.95243 27.257 5.95651 27.1879 5.96692 27.1196C5.97258 27.0527 5.9822 26.9862 5.99572 26.9205C6.02549 26.7994 6.04891 26.6764 6.08503 26.5569C6.12115 26.4373 6.16117 26.3221 6.20509 26.2079L6.35151 25.8741C6.56768 25.4501 6.82726 25.0497 7.12608 24.6793C7.702 23.9408 8.3892 23.3244 9.093 22.748C10.5221 21.6162 12.0824 20.6981 13.7238 19.9475L13.8443 20.1861Z" fill="#FFF9F2"/>
<path id="Vector_15" d="M25.0343 17.9927C25.7046 17.1571 26.4307 16.3678 27.2077 15.6304C27.9886 14.8949 28.8042 14.1863 29.7364 13.6162L30.0883 13.4063C30.2073 13.3385 30.3323 13.2804 30.4553 13.2174C30.6959 13.0842 30.9619 12.9929 31.2206 12.889C31.7711 12.6874 32.4305 12.6791 32.9903 12.9148C33.5623 13.1434 34.0309 13.5732 34.3081 14.1233C34.3776 14.2603 34.4353 14.403 34.4804 14.5499C34.5208 14.6981 34.5487 14.8494 34.5638 15.0023C34.5803 15.1549 34.5826 15.3086 34.5707 15.4616C34.5614 15.6114 34.536 15.7442 34.5189 15.8867C34.331 17.0024 33.8537 18.0273 33.2695 18.9537C32.6853 19.8801 31.9727 20.7176 31.2054 21.4819C29.6739 23.011 27.9232 24.3068 26.1344 25.4499C24.3896 26.6325 22.6882 27.899 21.0898 29.2675C20.2947 29.9557 19.5245 30.6732 18.83 31.4448C18.7436 31.5424 18.6524 31.6352 18.5694 31.7337L18.3253 32.0334L18.2038 32.1833C18.1644 32.2272 18.1293 32.2747 18.0989 32.3253C18.0422 32.4078 17.9969 32.4976 17.9642 32.5923C17.8378 32.9656 17.9788 33.4176 18.2912 33.6826C18.4432 33.8152 18.6324 33.8976 18.8329 33.9188C19.0394 33.9379 19.2166 33.8983 19.4762 33.8041C19.96 33.6333 20.4275 33.4193 20.8731 33.1648C21.7667 32.6518 22.5725 31.9836 23.2963 31.2349C23.9923 30.4867 24.701 29.6146 25.4926 28.9127C25.8831 28.5476 26.2735 28.1855 26.6835 27.839C27.1023 27.5002 27.4976 27.1474 28.0213 26.8985L28.1267 27.1425C27.6958 27.3699 27.297 27.7448 26.9065 28.0923C26.5195 28.4495 26.1403 28.8185 25.7679 29.1943C24.9919 29.9357 24.3881 30.7449 23.6658 31.5771C22.941 32.393 22.099 33.0966 21.1674 33.665C20.6956 33.9481 20.1991 34.1879 19.6841 34.3815C19.4489 34.4757 19.0984 34.5797 18.7749 34.5465C18.4431 34.5188 18.1279 34.3898 17.8719 34.177C17.3648 33.7656 17.1115 33.0432 17.3097 32.3912C17.3589 32.233 17.4295 32.0822 17.5195 31.9431C17.5572 31.8795 17.5998 31.819 17.6469 31.7621L17.7728 31.6L18.0252 31.2755C18.1111 31.1691 18.2033 31.07 18.2922 30.967C19.0116 30.1514 19.7969 29.414 20.6032 28.7058C22.224 27.2987 23.9293 26.0116 25.6937 24.7973L27.0115 23.9081C27.4327 23.5947 27.8685 23.299 28.2805 22.9729C29.1145 22.3421 29.9064 21.6574 30.651 20.9231C31.3894 20.191 32.0727 19.4017 32.6335 18.5413C33.1943 17.6808 33.6341 16.7457 33.8186 15.7622C33.8356 15.6412 33.863 15.5123 33.8727 15.3972C33.8841 15.2856 33.8853 15.1732 33.8762 15.0614C33.8683 14.9497 33.8512 14.8388 33.8249 14.73C33.7941 14.6222 33.7546 14.517 33.7068 14.4156C33.5107 14.0027 33.171 13.6754 32.7512 13.4947C32.5428 13.4015 32.318 13.3509 32.0898 13.3458C31.858 13.3361 31.6264 13.3692 31.4065 13.4434C31.1708 13.5327 30.9292 13.6064 30.7013 13.7255C30.5861 13.7816 30.4685 13.8314 30.3547 13.8924L30.016 14.0882C29.119 14.6045 28.2839 15.2512 27.4917 15.9428C27.0945 16.2884 26.7108 16.651 26.3355 17.0224C25.9602 17.3938 25.5888 17.7726 25.2388 18.1635L25.0343 17.9927Z" fill="#FFF9F2"/>
<g id="Group_7" opacity="0.3">
<path id="Vector_16" opacity="0.3" d="M28.2361 13.9461L30.6641 15.2085C30.8313 15.2954 31.0373 15.2303 31.1242 15.0631L31.1478 15.0177C31.2347 14.8505 31.1697 14.6445 31.0025 14.5576L28.5744 13.2953C28.4073 13.2083 28.2013 13.2734 28.1144 13.4406L28.0907 13.486C28.0038 13.6532 28.0689 13.8592 28.2361 13.9461Z" fill="#31241B"/>
<path id="Vector_17" opacity="0.3" d="M28.2207 28.2321L26.3031 26.8235C26.1611 26.7191 25.9613 26.7497 25.8569 26.8918L25.8006 26.9685C25.6962 27.1105 25.7268 27.3103 25.8689 27.4147L27.7864 28.8233C27.9285 28.9276 28.1283 28.8971 28.2327 28.755L28.289 28.6783C28.3934 28.5362 28.3628 28.3364 28.2207 28.2321Z" fill="#31241B"/>
<path id="Vector_18" opacity="0.3" d="M13.2262 24.8213L13.5679 28.1626C13.5777 28.2595 13.5486 28.3562 13.4871 28.4316C13.4256 28.507 13.3367 28.555 13.2399 28.5648C13.1431 28.5746 13.0463 28.5456 12.9709 28.4841C12.8955 28.4226 12.8476 28.3336 12.8377 28.2368L12.4961 24.8955C12.4911 24.8476 12.4957 24.7992 12.5095 24.753C12.5233 24.7069 12.546 24.6639 12.5765 24.6266C12.6069 24.5892 12.6444 24.5582 12.6868 24.5354C12.7292 24.5125 12.7756 24.4982 12.8236 24.4933C12.8715 24.4884 12.92 24.493 12.9662 24.5068C13.0124 24.5206 13.0555 24.5434 13.0929 24.5739C13.1303 24.6043 13.1613 24.6419 13.1842 24.6843C13.207 24.7268 13.2213 24.7733 13.2262 24.8213Z" fill="#31241B"/>
<path id="Vector_19" opacity="0.3" d="M15.6866 8.74283L16.7021 10.9156C16.7771 11.076 16.9679 11.1453 17.1284 11.0703L17.212 11.0313C17.3724 10.9563 17.4417 10.7654 17.3667 10.605L16.3512 8.43224C16.2762 8.2718 16.0854 8.20253 15.9249 8.27752L15.8414 8.31657C15.6809 8.39156 15.6116 8.5824 15.6866 8.74283Z" fill="#31241B"/>
<path id="Vector_20" opacity="0.3" d="M11.0347 13.5672L13.7558 14.351C13.9392 14.4039 14.1307 14.298 14.1835 14.1146L14.1953 14.0738C14.2481 13.8904 14.1423 13.699 13.9589 13.6461L11.2378 12.8623C11.0544 12.8094 10.8629 12.9153 10.8101 13.0987L10.7983 13.1395C10.7455 13.3228 10.8513 13.5143 11.0347 13.5672Z" fill="#31241B"/>
<path id="Vector_21" opacity="0.3" d="M8.2161 18.1835L10.0655 19.7129C10.203 19.8266 10.4066 19.8073 10.5204 19.6698L10.576 19.6025C10.6898 19.465 10.6705 19.2613 10.533 19.1476L8.68359 17.6182C8.54607 17.5045 8.34241 17.5238 8.22869 17.6613L8.17302 17.7286C8.0593 17.8661 8.07858 18.0698 8.2161 18.1835Z" fill="#31241B"/>
<path id="Vector_22" opacity="0.3" d="M20.3575 27.6486L18.2705 29.1318C18.1222 29.2372 18.0874 29.4429 18.1928 29.5912L18.2361 29.6521C18.3415 29.8004 18.5471 29.8352 18.6954 29.7298L20.7825 28.2466C20.9308 28.1412 20.9656 27.9355 20.8602 27.7872L20.8169 27.7263C20.7115 27.578 20.5059 27.5432 20.3575 27.6486Z" fill="#31241B"/>
<path id="Vector_23" opacity="0.3" d="M29.7744 21.3724L29.6125 18.9986C29.6005 18.8227 29.4482 18.6899 29.2724 18.7019L29.1774 18.7083C29.0015 18.7203 28.8687 18.8726 28.8807 19.0485L29.0425 21.4223C29.0545 21.5982 29.2068 21.7311 29.3827 21.7191L29.4776 21.7126C29.6535 21.7006 29.7864 21.5483 29.7744 21.3724Z" fill="#31241B"/>
<path id="Vector_24" opacity="0.3" d="M23.1541 11.4999L25.5322 10.9228C25.7064 10.8806 25.8134 10.7051 25.7711 10.5309L25.7512 10.4488C25.7089 10.2746 25.5335 10.1677 25.3593 10.21L22.9811 10.7871C22.8069 10.8293 22.7 11.0048 22.7422 11.179L22.7621 11.2611C22.8044 11.4353 22.9799 11.5422 23.1541 11.4999Z" fill="#31241B"/>
</g>
<path id="Vector_25" d="M27.8513 13.7533L30.2793 15.0157C30.4465 15.1026 30.6525 15.0375 30.7394 14.8703L30.763 14.8249C30.85 14.6577 30.7849 14.4517 30.6177 14.3648L28.1897 13.1025C28.0225 13.0155 27.8165 13.0806 27.7296 13.2478L27.706 13.2932C27.619 13.4604 27.6841 13.6664 27.8513 13.7533Z" fill="#31241B"/>
<path id="Vector_26" d="M27.835 28.0385L25.9174 26.6299C25.7753 26.5256 25.5756 26.5562 25.4712 26.6982L25.4148 26.7749C25.3105 26.917 25.3411 27.1168 25.4831 27.2212L27.4007 28.6297C27.5428 28.7341 27.7425 28.7035 27.8469 28.5615L27.9033 28.4848C28.0076 28.3427 27.977 28.1429 27.835 28.0385Z" fill="#31241B"/>
<path id="Vector_27" d="M12.8394 24.6305L13.1811 27.9718C13.1909 28.0686 13.1619 28.1654 13.1004 28.2408C13.0389 28.3162 12.9499 28.3641 12.8531 28.374C12.7563 28.3838 12.6595 28.3548 12.5841 28.2933C12.5087 28.2317 12.4608 28.1428 12.4509 28.046L12.1093 24.7047C12.0995 24.6079 12.1285 24.5111 12.19 24.4357C12.2515 24.3603 12.3405 24.3124 12.4373 24.3025C12.5341 24.2927 12.6308 24.3217 12.7063 24.3832C12.7817 24.4447 12.8296 24.5337 12.8394 24.6305Z" fill="#31241B"/>
<path id="Vector_28" d="M15.3019 8.55006L16.3174 10.7228C16.3923 10.8833 16.5832 10.9525 16.7436 10.8775L16.8272 10.8385C16.9876 10.7635 17.0569 10.5727 16.9819 10.4122L15.9664 8.23946C15.8914 8.07902 15.7006 8.00974 15.5402 8.08472L15.4566 8.12378C15.2962 8.19877 15.2269 8.38962 15.3019 8.55006Z" fill="#EC9A9A"/>
<path id="Vector_29" d="M10.65 13.3739L13.3711 14.1578C13.5545 14.2106 13.7459 14.1048 13.7988 13.9214L13.8105 13.8806C13.8634 13.6972 13.7575 13.5057 13.5741 13.4529L10.853 12.669C10.6696 12.6162 10.4782 12.7221 10.4253 12.9054L10.4136 12.9462C10.3607 13.1296 10.4666 13.3211 10.65 13.3739Z" fill="#31241B"/>
<path id="Vector_30" d="M7.83035 17.9906L9.67972 19.52C9.81723 19.6337 10.0209 19.6144 10.1346 19.4769L10.1903 19.4096C10.304 19.2721 10.2847 19.0684 10.1472 18.9547L8.29785 17.4253C8.16034 17.3116 7.95667 17.3309 7.84295 17.4684L7.78727 17.5357C7.67355 17.6732 7.69284 17.8769 7.83035 17.9906Z" fill="#EC9A9A"/>
<path id="Vector_31" d="M19.9738 27.4557L17.8867 28.9389C17.7384 29.0443 17.7036 29.25 17.809 29.3983L17.8523 29.4591C17.9577 29.6075 18.1633 29.6422 18.3116 29.5368L20.3987 28.0536C20.547 27.9482 20.5818 27.7426 20.4764 27.5943L20.4331 27.5334C20.3277 27.3851 20.1221 27.3503 19.9738 27.4557Z" fill="#EC9A9A"/>
<path id="Vector_32" d="M29.3896 21.1796L29.2278 18.8058C29.2158 18.6299 29.0635 18.4971 28.8876 18.5091L28.7926 18.5155C28.6168 18.5275 28.4839 18.6798 28.4959 18.8557L28.6577 21.2295C28.6697 21.4054 28.822 21.5383 28.9979 21.5263L29.0928 21.5198C29.2687 21.5078 29.4016 21.3555 29.3896 21.1796Z" fill="#EC9A9A"/>
<path id="Vector_33" d="M22.7693 11.3069L25.1475 10.7298C25.3217 10.6876 25.4286 10.5121 25.3864 10.3379L25.3664 10.2558C25.3242 10.0816 25.1487 9.97468 24.9745 10.017L22.5963 10.594C22.4222 10.6363 22.3152 10.8118 22.3575 10.986L22.3774 11.0681C22.4197 11.2423 22.5951 11.3492 22.7693 11.3069Z" fill="#EC9A9A"/>
<path id="Vector_34" d="M19.457 14.753C20.3873 14.753 21.2968 15.0289 22.0704 15.5457C22.8439 16.0626 23.4469 16.7973 23.8029 17.6568C24.1589 18.5164 24.2521 19.4622 24.0706 20.3747C23.8891 21.2872 23.4411 22.1253 22.7832 22.7832C22.1253 23.4411 21.2872 23.8891 20.3747 24.0706C19.4622 24.2521 18.5164 24.1589 17.6568 23.8029C16.7973 23.4469 16.0626 22.8439 15.5457 22.0704C15.0289 21.2968 14.753 20.3873 14.753 19.457C14.7544 18.2098 15.2505 17.0142 16.1323 16.1323C17.0142 15.2505 18.2098 14.7544 19.457 14.753ZM19.457 13.75C18.3282 13.75 17.2249 14.0847 16.2864 14.7118C15.3478 15.3389 14.6164 16.2302 14.1844 17.273C13.7525 18.3158 13.6395 19.4633 13.8597 20.5703C14.0799 21.6774 14.6234 22.6943 15.4215 23.4924C16.2197 24.2905 17.2366 24.8341 18.3436 25.0543C19.4506 25.2745 20.5981 25.1615 21.6409 24.7295C22.6838 24.2976 23.5751 23.5661 24.2021 22.6276C24.8292 21.6891 25.1639 20.5857 25.1639 19.457C25.1639 17.9434 24.5627 16.4918 23.4924 15.4215C22.4221 14.3513 20.9706 13.75 19.457 13.75Z" fill="#31241B"/>
</g>
</svg>
